<svg width="270" height="270" viewBox="0 0 270 270" fill="none" xmlns="http://www.w3.org/2000/svg">
<path d="M132.581 -0.493027C132.581 -75.9254 194.007 -137.293 269.447 -137.293C344.886 -137.293 406.313 -75.8933 406.313 -0.493027C406.313 74.9073 344.876 136.307 269.5 136.307C194.125 136.307 132.581 74.9607 132.581 -0.493027ZM402.818 -0.493027C402.801 -35.8455 388.751 -69.7456 363.753 -94.7466C338.756 -119.748 304.856 -133.805 269.5 -133.83C196.038 -133.83 136.001 -74.1192 136.001 -0.460968C136.001 73.1973 195.985 133.015 269.5 133.015C343.016 133.015 402.818 73.1331 402.818 -0.493027Z" fill="#E2F2D9"/>
<path d="M178.925 -0.494759C178.921 -18.4079 184.23 -35.92 194.18 -50.8163C204.129 -65.7126 218.274 -77.3239 234.824 -84.1819C251.374 -91.0399 269.586 -92.8365 287.157 -89.3444C304.728 -85.8523 320.869 -77.2284 333.538 -64.5634C346.207 -51.8984 354.836 -35.7612 358.332 -18.1925C361.829 -0.623894 360.036 17.587 353.182 34.137C346.327 50.687 334.718 64.8327 319.823 74.7851C304.927 84.7376 287.415 90.0497 269.5 90.0497C245.488 90.0299 222.465 80.4848 205.483 63.5093C188.502 46.5338 178.951 23.515 178.925 -0.494759ZM357.424 -0.494759C357.407 -17.8843 352.234 -34.8783 342.559 -49.3287C332.884 -63.779 319.142 -75.0368 303.069 -81.6787C286.997 -88.3207 269.316 -90.0488 252.261 -86.6443C235.206 -83.2399 219.544 -74.8558 207.254 -62.5521C194.964 -50.2484 186.598 -34.5774 183.214 -17.5203C179.83 -0.463203 181.58 17.2142 188.242 33.2772C194.904 49.3402 206.18 63.0675 220.643 72.7238C235.107 82.3801 252.109 87.5317 269.5 87.5275C292.817 87.4709 315.161 78.1746 331.635 61.6755C348.11 45.1764 357.372 22.8201 357.391 -0.494759H357.424Z" fill="#E2F2D9"/>
<path d="M187.754 -0.49791C187.763 -16.6521 192.561 -32.4411 201.541 -45.8692C210.522 -59.2974 223.283 -69.7618 238.211 -75.9399C253.138 -82.1179 269.562 -83.7321 285.407 -80.5785C301.252 -77.4249 315.806 -69.6451 327.23 -58.2224C338.654 -46.7997 346.434 -32.2469 349.588 -16.4036C352.742 -0.560242 351.128 15.8624 344.949 30.7885C338.77 45.7146 328.305 58.4741 314.875 67.4541C301.446 76.4342 285.656 81.2316 269.5 81.2401C247.827 81.2174 227.047 72.5985 211.722 57.2746C196.397 41.9507 187.777 21.1734 187.754 -0.49791ZM348.702 -0.49791C348.695 -16.1597 344.045 -31.468 335.338 -44.4872C326.632 -57.5064 314.26 -67.652 299.787 -73.6411C285.314 -79.6302 269.39 -81.1939 254.029 -78.1346C238.667 -75.0752 224.558 -67.5302 213.484 -56.4534C202.411 -45.3766 194.871 -31.2654 191.818 -15.9041C188.764 -0.542778 190.334 15.3789 196.33 29.8479C202.326 44.3169 212.477 56.6835 225.501 65.3841C238.525 74.0847 253.837 78.7285 269.5 78.7285C290.499 78.6889 310.626 70.3282 325.472 55.478C340.317 40.6278 348.671 20.4991 348.702 -0.49791Z" fill="#E2F2D9"/>
<path d="M134.205 0.97019V-1.60547L180.102 -1.48792V0.97019H134.205Z" fill="#E2F2D9"/>
<path d="M135.124 15.3136L180.55 9.82031L181.01 12.225L135.498 17.8787L135.124 15.3136Z" fill="#E2F2D9"/>
<path d="M138.149 31.9926L182.645 20.6211L183.244 23.3037L138.833 34.5041L138.149 31.9926Z" fill="#E2F2D9"/>
<path d="M143.237 48.2207L186.012 31.4199L186.931 33.8781L144.295 50.5613L143.237 48.2207Z" fill="#E2F2D9"/>
<path d="M150.323 63.6508L190.523 41.5918L191.698 43.7614L151.702 65.9379L150.323 63.6508Z" fill="#E2F2D9"/>
<path d="M159.238 78.0475L196.444 51.0723L197.951 53.2525L160.873 80.1102L159.238 78.0475Z" fill="#E2F2D9"/>
<path d="M170.011 91.2997L203.498 59.9961L205.241 61.8236L171.753 93.0204L170.011 91.2997Z" fill="#E2F2D9"/>
<path d="M182.292 102.96L211.611 67.7656L213.471 69.3581L184.27 104.509L182.292 102.96Z" fill="#E2F2D9"/>
<path d="M195.984 113.137L220.525 74.3945L222.759 75.8267L198.186 114.505L195.984 113.137Z" fill="#E2F2D9"/>
<path d="M210.703 121.305L230.273 79.9336L232.582 81.1413L213.011 122.395L210.703 121.305Z" fill="#E2F2D9"/>
<path d="M226.447 127.753L240.695 84.2227L243.014 85.0242L229.012 128.501L226.447 127.753Z" fill="#E2F2D9"/>
<path d="M242.896 132.103L251.586 87.0762L254.044 87.7602L245.333 132.562L242.896 132.103Z" fill="#E2F2D9"/>
<path d="M259.592 134.447L262.617 88.6191L265.161 88.8543L262.125 134.565L259.592 134.447Z" fill="#E2F2D9"/>
<path d="M50.8879 0.102914L51.9568 -1.1582L52.4485 -0.698649C62.2712 11.1858 97.1585 49.1264 134.141 35.4144L138.769 33.8754L139.218 35.4144L134.825 36.9107C96.7096 51.0823 61.1275 12.4577 51.1552 0.348738L50.8879 0.102914Z" fill="#E2F2D9"/>
<path d="M50.7706 -0.351246L50.8882 -0.575672V-0.800133L51.5723 -1.6017C64.6871 -16.7993 98.9758 -50.6359 134.782 -37.4369L139.175 -35.6627L138.609 -34.1772L134.098 -35.8338C99.4354 -48.6587 65.6918 -15.4313 52.9725 -0.458126L52.5129 -0.116119V0.108311L52.0319 0.738869L50.7706 -0.351246Z" fill="#E2F2D9"/>
<path d="M115.2 152.901L115.66 152.784L115.895 152.901C131.319 154.323 182.634 156.439 199.095 120.55L201.093 116.211L202.836 116.895L200.73 121.341C183.81 158.02 131.436 156.022 115.778 154.6L115.318 154.718L115.2 152.901Z" fill="#E2F2D9"/>
<path d="M114.154 140.956C114.154 117.753 119.263 82.0462 148.004 68.7937L152.408 66.6562L153.209 68.3128L148.806 70.1404C115.094 85.68 114.977 132.994 116.238 152.541L116.345 153.107L116.58 153.343V154.08L115.094 154.304L114.752 154.198V153.962L114.635 153.856V152.787C114.378 149.474 114.154 145.477 114.154 140.956Z" fill="#E2F2D9"/>
<path d="M268.87 217.003L269.329 216.49C281.279 206.604 318.935 171.41 305.328 134.838L303.618 130.327L305.221 129.814L306.91 134.164C320.912 171.934 282.562 207.705 270.505 217.708L270.045 218.221L268.87 217.003Z" fill="#E2F2D9"/>
<path d="M229.579 151.014C229.522 145.324 230.5 139.671 232.465 134.331L234.218 129.703L235.842 130.334L234.1 134.844C221.274 169.471 254.494 203.244 269.372 216.069L269.832 216.518H270.056L270.633 216.924L269.501 218.27L269.383 218.153H269.158L268.357 217.362C255.531 206.268 229.579 180.276 229.579 151.014Z" fill="#E2F2D9"/>
<path d="M29.575 0.576351L31.5416 -1.48633L31.7661 -1.2512C32.4608 -0.342764 86.9188 69.2863 143.237 48.0075L144.305 50.5725C86.1278 72.8025 32.0119 3.66504 29.8101 0.747355L29.575 0.576351Z" fill="#E2F2D9"/>
<path d="M29.575 -0.927521L29.7994 -1.16265C32.0012 -4.01621 86.2347 -73.0361 144.295 -50.9878L143.226 -48.2945C87.1326 -69.6695 34.2031 -2.0711 31.873 0.729027L31.5309 1.07103L29.575 -0.927521Z" fill="#E2F2D9"/>
<path d="M100.621 167.015H101.081C102 167.133 189.368 178.162 214.55 122.844L217.201 124.105C191.121 181.133 101.541 169.933 100.621 169.815V167.015Z" fill="#E2F2D9"/>
<path d="M98.484 150.446C98.484 122.156 104.405 70.8451 145.065 52.2168L146.347 54.7283C94.091 78.7324 101.145 159.188 102.31 168.326V169.01H99.4032V168.443C98.7835 162.464 98.4766 156.457 98.484 150.446Z" fill="#E2F2D9"/>
<path d="M268.431 238.212V237.582L268.891 237.133C280.434 227.76 337.586 178.277 317.812 125.705L320.324 124.732C340.846 178.501 283.523 228.839 271.061 238.96C270.659 239.448 270.092 239.772 269.468 239.869V237.015C269.319 237.019 269.172 237.053 269.037 237.117C268.902 237.18 268.782 237.271 268.684 237.384C268.587 237.497 268.514 237.629 268.47 237.771C268.427 237.914 268.413 238.064 268.431 238.212Z" fill="#E2F2D9"/>
<path d="M214.754 148.062C214.728 140.078 216.178 132.157 219.029 124.699L221.691 125.672C202.163 178.158 259.015 227.759 270.569 237.132L271.136 237.581V238.211C271.155 238.054 271.139 237.894 271.09 237.744C271.04 237.593 270.957 237.456 270.848 237.341C270.738 237.227 270.605 237.138 270.457 237.081C270.309 237.025 270.15 237.002 269.992 237.014V239.868C269.701 239.861 269.419 239.772 269.177 239.611C268.934 239.45 268.743 239.224 268.624 238.959C257.839 230.356 214.754 192.501 214.754 148.062Z" fill="#E2F2D9"/>
<path d="M30.4943 0.338945V-1.37109H31.1783H51.4651L51.8072 -1.26418L51.572 0.338945H51.3475H31.1783H30.4943Z" fill="#E2F2D9"/>
<path d="M45.5436 15.5378L58.4339 7.08398L59.2356 8.50537L46.4949 17.0768L45.5436 15.5378Z" fill="#E2F2D9"/>
<path d="M54.6071 23.8822L67.4653 15.7598L68.267 17.1919L55.5156 25.2503L54.6071 23.8822Z" fill="#E2F2D9"/>
<path d="M68.8658 34.5014L80.4308 25.8125L81.489 27.3088L69.7744 35.987L68.8658 34.5014Z" fill="#E2F2D9"/>
<path d="M62.4635 30.2198L73.8361 21.082L74.8621 22.3966L63.5217 31.5344L62.4635 30.2198Z" fill="#E2F2D9"/>
<path d="M88.0947 45.3669L100.034 35.7695L101.071 37.0841L89.0033 46.6815L88.0947 45.3669Z" fill="#E2F2D9"/>
<path d="M100.151 48.4598L114.153 38.5098L115.094 39.8885L100.953 49.8813L100.151 48.4598Z" fill="#E2F2D9"/>
<path d="M114.036 52.3326L129.919 36.793L131.062 38.0541L115.211 53.4761L114.036 52.3326Z" fill="#E2F2D9"/>
<path d="M129.694 52.3361L138.149 36.9141L139.784 37.8867L131.319 53.1377L129.694 52.3361Z" fill="#E2F2D9"/>
<path d="M37.4309 6.96586L54.8318 2.96875L55.2914 4.74291L37.805 8.62248L37.4309 6.96586Z" fill="#E2F2D9"/>
<path d="M99.8948 167.875L100.376 167.469L114.976 152.902L116.002 154.217L115.778 154.441L101.071 169.126L99.8948 167.875Z" fill="#E2F2D9"/>
<path d="M122.49 169.243L125.633 154.109L127.151 154.441L124.126 169.702L122.49 169.243Z" fill="#E2F2D9"/>
<path d="M134.782 168.56L138.042 153.875L139.667 154.217L136.407 169.019L134.782 168.56Z" fill="#E2F2D9"/>
<path d="M152.407 166.387L154.385 151.756L156.127 151.98L154.15 166.558L152.407 166.387Z" fill="#E2F2D9"/>
<path d="M144.872 167.536L146.379 153.129L148.121 153.364L146.614 167.643L144.872 167.536Z" fill="#E2F2D9"/>
<path d="M173.613 160.45L175.356 144.91L176.98 145.188L175.356 160.567L173.613 160.45Z" fill="#E2F2D9"/>
<path d="M184.387 153.989L187.038 137.018L188.78 137.189L186.012 154.214L184.387 153.989Z" fill="#E2F2D9"/>
<path d="M196.786 146.671L197.246 124.623H198.871L198.646 146.671H196.786Z" fill="#E2F2D9"/>
<path d="M110.573 168.787L120.182 153.643L121.582 154.679L112.176 169.706L110.573 168.787Z" fill="#E2F2D9"/>
<path d="M99.8948 145.361L115.211 142.508L115.436 144.218L100.376 146.911L99.8948 145.361Z" fill="#E2F2D9"/>
<path d="M100.6 132.786L115.211 129.814L115.66 131.418L100.718 134.56L100.6 132.786Z" fill="#E2F2D9"/>
<path d="M102.695 115.081L117.296 113.254L117.638 114.964L102.92 116.791L102.695 115.081Z" fill="#E2F2D9"/>
<path d="M101.52 122.852L116.12 121.303L116.238 123.077L101.637 124.391L101.52 122.852Z" fill="#E2F2D9"/>
<path d="M108.488 93.7089L123.891 92.1699L124.126 93.944L108.724 95.3655L108.488 93.7089Z" fill="#E2F2D9"/>
<path d="M114.752 82.91L131.896 80.2168L132.238 81.9375L114.977 84.5666L114.752 82.91Z" fill="#E2F2D9"/>
<path d="M99.8948 157.646L115.211 148.102L116.12 149.587L100.835 159.078L99.8948 157.646Z" fill="#E2F2D9"/>
<path d="M252.761 222.499L261.558 209.812L262.958 210.732L254.162 223.525L252.761 222.499Z" fill="#E2F2D9"/>
<path d="M244.189 213.368L252.526 200.789L254.044 201.591L245.59 214.277L244.189 213.368Z" fill="#E2F2D9"/>
<path d="M233.298 199.072L242.33 187.412L243.613 188.556L234.559 200.333L233.298 199.072Z" fill="#E2F2D9"/>
<path d="M237.819 205.474L247.182 194.156L248.476 195.3L239.187 206.5L237.819 205.474Z" fill="#E2F2D9"/>
<path d="M222.161 179.932L232.133 167.877L233.523 169.021L223.561 180.905L222.161 179.932Z" fill="#E2F2D9"/>
<path d="M219.039 167.876L229.129 153.875L230.615 154.848L220.418 168.902L219.039 167.876Z" fill="#E2F2D9"/>
<path d="M215.331 153.759L231.214 137.877L232.357 139.074L216.496 154.966L215.331 153.759Z" fill="#E2F2D9"/>
<path d="M215.555 137.644L231.332 129.254L232.133 130.846L216.496 139.193L215.555 137.644Z" fill="#E2F2D9"/>
<path d="M261.441 231.194L265.502 213.709L267.159 214.169L262.958 231.536L261.441 231.194Z" fill="#E2F2D9"/>
<path d="M61.2023 85.0038C90.5209 72.6597 89.9437 49.735 89.7192 47.2342L92.1455 47.0098C92.4875 49.8633 93.2144 74.2629 62.2177 87.2909L61.2023 85.0038Z" fill="#E2F2D9"/>
<path d="M61.662 85.4778C88.6612 75.3033 104.779 87.5298 110.316 92.959L108.488 94.9041C101.979 88.1069 87.1113 78.4561 62.7202 87.7115L61.662 85.4778Z" fill="#E2F2D9"/>
<path d="M86.235 75.3843C102.118 69.2711 106.404 57.9637 107.548 52.0215L109.173 52.2459C107.89 58.6584 103.604 70.3612 86.8015 77.0409L86.235 75.3843Z" fill="#E2F2D9"/>
<path d="M86.235 75.8106C101.402 70.5523 111.952 73.812 118.097 77.5847L117.178 78.8992C111.374 75.351 101.295 72.273 86.6946 77.4671L86.235 75.8106Z" fill="#E2F2D9"/>
<path d="M176.039 160.439L177.664 158.387C179.748 160.332 197.726 177.015 184.954 208.105L182.634 207.186C194.466 177.699 177.889 161.956 176.039 160.439Z" fill="#E2F2D9"/>
<path d="M183.351 207.187C195.108 180.907 214.978 178.16 223.208 178.16V180.672C213.696 180.672 196.327 184.22 185.67 208.213L183.351 207.187Z" fill="#E2F2D9"/>
<path d="M191.923 151.131L193.291 150.062C197.01 155.492 202.237 166.97 195.151 183.429L193.558 182.745C200.377 166.906 195.375 156.218 191.923 151.131Z" fill="#E2F2D9"/>
<path d="M193.9 183.131C200.837 168.564 210.585 163.477 217.522 161.756L217.874 163.412C211.387 165.069 202.12 169.825 195.375 183.868L193.9 183.131Z" fill="#E2F2D9"/>
<path d="M69.6254 18.275C74.029 9.59678 83.6594 -1.03728 104.513 -1.26172V0.341406C84.461 0.736843 75.3117 10.7403 71.1431 19.0766L69.6254 18.275Z" fill="#E2F2D9"/>
<path d="M69.8922 -19.0933L71.3993 -19.7773C74.8624 -13.2687 83.6911 -2.06814 104.662 -1.72614L104.544 0.101412C82.7505 -0.582588 73.4942 -12.1785 69.8922 -19.0933Z" fill="#E2F2D9"/>
<path d="M139.667 143.414C139.667 135.527 142.435 125.705 152.183 115.627L153.433 116.877C139.538 131.167 140.233 144.665 143.001 153.514L141.494 154.198C140.281 150.732 139.664 147.086 139.667 143.414Z" fill="#E2F2D9"/>
<path d="M115.2 127.531L115.66 125.928C122.714 128.066 136.866 129.701 151.915 115.305L153.326 116.555C137.465 131.421 122.608 129.893 115.2 127.531Z" fill="#E2F2D9"/>
<path d="M268.752 164.553H270.355C270.591 184.442 280.531 193.698 289.103 197.93L288.184 199.351C281.162 195.696 268.87 186.387 268.752 164.553Z" fill="#E2F2D9"/>
<path d="M250.1 197.592C256.695 194.161 267.843 185.365 268.41 164.332H270.013C269.5 186.273 257.743 195.529 250.902 199.077L250.1 197.592Z" fill="#E2F2D9"/>
<path d="M85.7754 29.8822C85.893 29.7112 93.7811 -0.919141 134.098 -1.7207L134.205 0.737408C95.8654 1.70997 88.3193 30.2242 88.3193 30.5662L85.7754 29.8822Z" fill="#E2F2D9"/>
<path d="M85.7754 -30.8668L88.3193 -31.5508C88.5437 -30.4072 95.8654 -3.08998 134.205 -2.2991L134.098 0.340712C93.7811 -0.578413 85.893 -30.6317 85.7754 -30.8668Z" fill="#E2F2D9"/>
<path d="M156.576 131.302C156.576 120.956 159.922 107.875 172.919 94.2695L174.64 96.1612C148.122 123.874 163.182 149.353 163.299 149.599L161.162 151.02C158.048 144.92 156.474 138.15 156.576 131.302Z" fill="#E2F2D9"/>
<path d="M117.98 107.876L119.262 105.739C120.331 106.316 144.861 120.487 172.555 93.9824L174.18 95.7565C145.097 123.64 118.322 108.047 117.98 107.876Z" fill="#E2F2D9"/>
<path d="M268.303 134.84H270.815C271.499 173.122 299.214 180.443 300.529 180.668L299.962 183.243C299.428 183.126 268.987 175.185 268.303 134.84Z" fill="#E2F2D9"/>
<path d="M238.386 180.668C239.551 180.443 266.817 173.122 267.608 134.84H270.131C269.329 175.185 239.327 183.126 239.07 183.243L238.386 180.668Z" fill="#E2F2D9"/>
<path d="M45.7787 71.1881C45.7321 63.576 47.4797 56.06 50.8799 49.2491C54.28 42.4383 59.2371 36.5243 65.3494 31.9863L66.9847 34.3376C55.4946 42.6738 48.6646 56.5569 48.5578 71.1881C48.5971 83.5735 53.5292 95.4416 62.2799 104.207C71.0305 112.973 82.8908 117.927 95.2772 117.989L102.129 117.305L102.471 120.105C100.091 120.476 97.6859 120.666 95.2772 120.671C88.7747 120.682 82.334 119.41 76.3241 116.928C70.3143 114.445 64.8536 110.801 60.2552 106.204C55.6567 101.607 52.0109 96.1472 49.5267 90.1385C47.0426 84.1298 45.7689 77.6899 45.7787 71.1881Z" fill="#E2F2D9"/>
<path d="M147.406 173.714C147.427 171.397 147.627 169.085 148.004 166.799L150.783 167.258C149.759 174.36 150.421 181.603 152.714 188.402C155.007 195.201 158.868 201.365 163.983 206.396C168.304 210.742 173.442 214.191 179.101 216.545C184.76 218.898 190.829 220.11 196.957 220.11C203.086 220.11 209.155 218.898 214.814 216.545C220.473 214.191 225.611 210.742 229.932 206.396C231.595 204.787 233.105 203.027 234.442 201.138L236.644 202.848C235.207 204.833 233.62 206.705 231.898 208.448C224.981 215.326 216.188 220.01 206.62 221.913C197.053 223.815 187.136 222.851 178.114 219.142C169.091 215.433 161.365 209.144 155.902 201.063C150.439 192.981 147.484 183.467 147.406 173.714Z" fill="#E2F2D9"/>
<path d="M56.3498 67.0215C56.3141 55.1709 60.5876 43.7113 68.3744 34.7773L69.9991 36.0385C62.4637 44.2678 58.541 55.3508 58.4341 67.0322C58.4679 79.1733 63.0576 90.8595 71.2953 99.7791C79.5329 108.699 90.8186 114.202 102.92 115.201L102.802 117.146C90.1953 116.107 78.4346 110.385 69.8367 101.108C61.2389 91.8302 56.4273 79.6696 56.3498 67.0215Z" fill="#E2F2D9"/>
<path d="M152.183 166.563L154.267 166.381C154.886 177.817 159.772 188.606 167.959 196.616C176.628 205.154 188.178 210.14 200.338 210.595C212.498 211.05 224.389 206.94 233.672 199.074L234.816 200.559C225.156 208.767 212.767 213.051 200.1 212.564C187.433 212.077 175.41 206.855 166.409 197.93C158.031 189.537 152.977 178.394 152.183 166.563Z" fill="#E2F2D9"/>
<path d="M56.3498 67.0215C56.3141 55.1709 60.5876 43.7113 68.3744 34.7773L69.9991 36.0385C62.4637 44.2678 58.541 55.3508 58.4341 67.0322C58.4679 79.1733 63.0576 90.8595 71.2953 99.7791C79.5329 108.699 90.8186 114.202 102.92 115.201L102.802 117.146C90.1953 116.107 78.4346 110.385 69.8367 101.108C61.2389 91.8302 56.4273 79.6696 56.3498 67.0215Z" fill="#E2F2D9"/>
<path d="M51.4545 49.5847C55.5054 47.2441 59.4495 44.9036 63.0515 42.6699L64.1204 44.444C60.4008 46.667 56.6384 48.9007 52.5447 51.0703L51.4545 49.5847Z" fill="#E2F2D9"/>
<path d="M48.5793 59.59C49.9475 58.8419 51.4652 57.9335 52.8547 57.0143C55.0566 55.7639 57.376 54.3852 59.6847 53.1348" fill="#E2F2D9"/>
<path d="M47.4037 67.6475C50.3216 65.9268 53.09 64.0993 55.9545 62.5603L57.9212 61.3633" fill="#E2F2D9"/>
<path d="M57.6005 68.7969C54.1161 70.742 50.6637 72.794 47.4037 74.6216L57.6005 68.7969Z" fill="#E2F2D9"/>
<path d="M58.2846 76.1562C54.8322 78.0479 51.4653 79.9931 48.3442 81.7031L58.2846 76.1562Z" fill="#E2F2D9"/>
<path d="M59.9196 82.2812C56.713 84.2157 53.4317 85.9363 50.2999 87.9883L59.9196 82.2812Z" fill="#E2F2D9"/>
<path d="M62.1427 87.9902C59.0216 89.8178 55.9968 91.9339 52.8757 93.4729L62.1427 87.9902Z" fill="#E2F2D9"/>
<path d="M65.2535 93.8145C62.1218 95.5886 59.0007 97.4803 56.2003 99.1582L65.2535 93.8145Z" fill="#E2F2D9"/>
<path d="M69.1973 98.9043C66.3969 100.39 63.2865 102.217 60.3685 104.163L69.1973 98.9043Z" fill="#E2F2D9"/>
<path d="M73.7185 103.174C70.9501 104.948 68.0322 106.487 65.3707 108.261L73.7185 103.174Z" fill="#E2F2D9"/>
<path d="M79.1485 107.643C76.3209 109.098 73.5833 110.722 70.9504 112.505L79.1485 107.643Z" fill="#E2F2D9"/>
<path d="M77.3207 115.873C79.6294 114.505 82.1732 113.137 84.7171 111.534C84.747 111.55 84.7799 111.559 84.8138 111.562C84.8477 111.565 84.8818 111.561 84.9139 111.55C84.946 111.539 84.9756 111.521 85.0006 111.498C85.0256 111.475 85.0455 111.447 85.0591 111.416" fill="#E2F2D9"/>
<path d="M85.5507 118.503C86.2293 117.963 86.9682 117.504 87.7525 117.135C89.3531 116.089 91.0125 115.136 92.7226 114.281" fill="#E2F2D9"/>
<path d="M101.979 116.211C100.104 117.069 98.3145 118.103 96.6348 119.3L101.979 116.211Z" fill="#E2F2D9"/>
<path d="M152.183 166.563L154.267 166.381C154.886 177.817 159.772 188.606 167.959 196.616C176.628 205.154 188.178 210.14 200.338 210.595C212.498 211.05 224.389 206.94 233.672 199.074L234.816 200.559C225.156 208.767 212.767 213.051 200.1 212.564C187.433 212.077 175.41 206.855 166.409 197.93C158.031 189.537 152.977 178.394 152.183 166.563Z" fill="#E2F2D9"/>
<path d="M150.665 189.014L151.007 187.528C151.916 183.809 153.092 179.812 154.15 176.039L155.978 176.552C155.069 180.271 154.011 184.215 152.867 187.977L152.525 189.58L150.665 189.014Z" fill="#E2F2D9"/>
<path d="M155.86 198.296C156.234 196.639 156.576 195.089 157.035 193.379C157.613 190.921 158.211 188.239 159.002 185.834" fill="#E2F2D9"/>
<path d="M160.638 204.709C161.322 201.503 162.123 198.296 163.064 195.09C163.299 194.406 163.524 193.38 163.641 192.867" fill="#E2F2D9"/>
<path d="M168.494 198.291C167.585 202.064 166.409 206.061 165.608 209.598L168.494 198.291Z" fill="#E2F2D9"/>
<path d="M174.18 203.074C173.111 206.847 172.203 210.726 171.177 214.05L174.18 203.074Z" fill="#E2F2D9"/>
<path d="M179.867 206.158C178.926 209.813 177.782 213.351 176.981 216.846L179.867 206.158Z" fill="#E2F2D9"/>
<path d="M185.435 208.502C184.612 212.275 183.81 215.812 182.752 219.189L185.435 208.502Z" fill="#E2F2D9"/>
<path d="M191.698 210.721C190.758 214.045 189.956 217.582 189.24 220.778L191.698 210.721Z" fill="#E2F2D9"/>
<path d="M198.176 211.418C197.108 214.63 196.262 217.912 195.643 221.24L198.176 211.418Z" fill="#E2F2D9"/>
<path d="M204.439 211.182C203.499 214.495 202.815 217.594 202.013 220.8L204.439 211.182Z" fill="#E2F2D9"/>
<path d="M211.387 210.721C210.348 213.665 209.533 216.684 208.95 219.752L211.387 210.721Z" fill="#E2F2D9"/>
<path d="M215.897 217.584C216.496 214.955 217.298 212.241 218.099 209.408C218.099 209.408 218.324 209.408 218.099 209.066" fill="#E2F2D9"/>
<path d="M223.54 213.591C223.788 212.764 223.98 211.921 224.117 211.068C224.683 209.187 224.94 207.413 225.517 205.725" fill="#E2F2D9"/>
<path d="M233.64 200.561C232.91 202.454 232.328 204.402 231.898 206.385L233.64 200.561Z" fill="#E2F2D9"/>
<path d="M18.5443 102.732C18.5443 98.8414 24.3481 93.5831 32.8027 89.8104C39.8892 86.8927 46.8261 85.8133 50.4281 87.1813C51.4302 87.5963 52.2522 88.3539 52.7475 89.3188C52.9935 89.7351 53.1124 90.2144 53.0895 90.6975C53.0895 94.5771 47.1681 99.8353 38.8311 103.384C31.766 106.59 24.7971 107.605 21.1202 106.237C20.6023 106.084 20.1238 105.82 19.7178 105.464C19.3118 105.108 18.988 104.668 18.7688 104.174C18.5977 103.713 18.5213 103.223 18.5443 102.732ZM51.1122 90.7295C51.1406 90.5306 51.103 90.328 51.0053 90.1524C50.7701 89.586 50.3212 89.3509 49.6051 89.0089C46.9436 87.9401 41.1398 88.389 33.6258 91.7021C25.3956 95.2397 20.511 100.103 20.511 102.732C20.4935 102.966 20.5339 103.201 20.6286 103.416C20.9061 103.921 21.3642 104.302 21.9112 104.484C24.9146 105.681 31.6591 104.484 38.0294 101.684C46.2596 98.1573 51.1122 93.2411 51.1122 90.7295Z" fill="#E2F2D9"/>
<path d="M163.299 243.863C163.415 239.399 164.313 234.99 165.95 230.835C168.75 223.643 172.919 218.01 176.499 216.493C176.971 216.187 177.513 216.006 178.074 215.967C178.634 215.928 179.196 216.031 179.706 216.268C181.566 216.899 182.592 219.293 182.592 223.183C182.464 227.608 181.567 231.976 179.941 236.094C177.055 243.414 172.876 249.186 169.252 250.554C168.773 250.812 168.244 250.966 167.7 251.005C167.156 251.043 166.611 250.966 166.099 250.778C164.207 250.041 163.299 247.636 163.299 243.863ZM180.785 223.183C180.785 220.436 180.091 218.502 179.065 218.149C178.49 217.962 177.866 218.004 177.322 218.267C174.639 219.336 170.834 223.985 167.927 231.519C166.29 235.436 165.388 239.62 165.266 243.863C165.266 246.61 165.832 248.438 167.008 248.897C167.467 249.186 167.927 249.186 168.633 248.662C171.636 247.518 175.462 242.1 178.006 235.409C179.66 231.534 180.601 227.392 180.785 223.183Z" fill="#E2F2D9"/>
<path d="M18.9188 104.447L20.5114 103.186C20.629 103.421 44.7423 131.422 90.1791 118.96L90.628 120.959C44.1758 133.698 19.1433 104.735 18.9188 104.447Z" fill="#E2F2D9"/>
<path d="M18.6619 101.186C18.6619 91.9311 21.3447 61.7068 56.3495 40.6738L57.4184 42.5013C23.4717 62.8076 20.6713 92.273 20.6713 101.08V103.645L18.8115 103.869C18.8115 103.869 18.6619 102.736 18.6619 101.186Z" fill="#E2F2D9"/>
<path d="M166.409 250.899L166.666 248.9C167.008 248.9 203.841 251.647 227.152 210.842L228.873 211.911C205.006 253.87 166.89 250.899 166.409 250.899Z" fill="#E2F2D9"/>
<path d="M145.097 200.784C145.185 193.549 146.161 186.352 148.004 179.355L149.832 179.815C138.267 225.525 167.008 248.899 167.232 249.188L165.95 250.662C165.822 250.438 145.097 233.562 145.097 200.784Z" fill="#E2F2D9"/>
<path d="M19.1433 33.7672L48.2267 17.6504L49.3704 19.7666L20.4045 35.8726L19.1433 33.7672Z" fill="#E2F2D9"/>
<path d="M0 1.43212V-2.28711L30.8364 -2.06265L30.7188 1.71L0 1.43212Z" fill="#E2F2D9"/>
<path d="M19.7095 30.1053C20.3275 30.0881 20.9427 30.1952 21.5185 30.4202C22.0943 30.6452 22.619 30.9835 23.0616 31.4151C23.5042 31.8467 23.8556 32.3627 24.095 32.9327C24.3344 33.5026 24.4569 34.1148 24.4552 34.733C24.4679 35.6613 24.2048 36.5725 23.6993 37.3512C23.1938 38.1299 22.4686 38.7412 21.6156 39.1076C20.7625 39.4741 19.8199 39.5793 18.907 39.4098C17.9941 39.2404 17.1521 38.8039 16.4874 38.1558C15.8226 37.5076 15.3652 36.6768 15.1729 35.7685C14.9806 34.8603 15.0621 33.9154 15.4071 33.0535C15.7521 32.1916 16.345 31.4514 17.1109 30.9266C17.8768 30.4017 18.7811 30.116 19.7095 30.1053Z" fill="#E2F2D9"/>
<path d="M116.719 200.782L125.868 168.783L128.294 169.478L119.156 201.476L116.719 200.782Z" fill="#E2F2D9"/>
<path d="M67.4659 149.812L99.8949 140.332L100.6 142.726L68.15 152.217L67.4659 149.812Z" fill="#E2F2D9"/>
<path d="M77.6628 188.893L99.5529 167.123L102.236 169.816L80.2067 191.298L77.6628 188.893Z" fill="#E2F2D9"/>
<path d="M114.517 197.694C115.434 196.844 116.638 196.371 117.889 196.371C119.139 196.371 120.344 196.844 121.261 197.694C121.734 198.12 122.117 198.638 122.385 199.216C122.653 199.793 122.802 200.419 122.822 201.056C122.842 201.693 122.733 202.327 122.501 202.921C122.27 203.514 121.921 204.055 121.475 204.51C121.029 204.965 120.496 205.325 119.907 205.569C119.319 205.812 118.687 205.935 118.05 205.928C117.413 205.921 116.784 205.786 116.2 205.53C115.617 205.274 115.092 204.902 114.655 204.438C114.194 204.01 113.824 203.493 113.566 202.919C113.308 202.345 113.169 201.724 113.156 201.095C113.143 200.466 113.257 199.841 113.491 199.256C113.724 198.672 114.073 198.141 114.517 197.694Z" fill="#E2F2D9"/>
<path d="M64.2807 147.647C64.7254 147.186 65.2583 146.819 65.8478 146.569C66.4373 146.318 67.0712 146.189 67.7117 146.189C68.3522 146.189 68.9861 146.318 69.5756 146.569C70.1651 146.819 70.6981 147.186 71.1427 147.647C72.0032 148.546 72.4834 149.742 72.4834 150.987C72.4834 152.231 72.0032 153.427 71.1427 154.326C70.255 155.228 69.0465 155.741 67.7814 155.754C66.5163 155.768 65.2974 155.28 64.3909 154.398C63.4843 153.515 62.9639 152.31 62.9433 151.045C62.9226 149.78 63.4034 148.558 64.2807 147.647Z" fill="#E2F2D9"/>
<path d="M232.817 248.67L249.16 218.959L251.362 220.209L235.019 249.814L232.817 248.67Z" fill="#E2F2D9"/>
<path d="M267.619 269.012L267.961 238.104L271.499 238.328L271.274 269.012H267.619Z" fill="#E2F2D9"/>
<path d="M229.129 249.186C229.187 247.968 229.712 246.819 230.594 245.977C231.477 245.136 232.65 244.666 233.869 244.666C235.089 244.666 236.262 245.136 237.145 245.977C238.027 246.819 238.552 247.968 238.61 249.186C238.64 249.828 238.54 250.468 238.316 251.07C238.091 251.672 237.747 252.221 237.304 252.686C236.861 253.151 236.328 253.521 235.737 253.773C235.147 254.026 234.512 254.157 233.869 254.157C233.227 254.157 232.592 254.026 232.001 253.773C231.411 253.521 230.878 253.151 230.435 252.686C229.992 252.221 229.648 251.672 229.423 251.07C229.199 250.468 229.099 249.828 229.129 249.186Z" fill="#E2F2D9"/>
<path d="M133.404 111.196C133.404 110.737 135.723 82.3398 162.124 82.3398V84.5736C137.925 84.5736 135.723 109.999 135.723 111.292L133.404 111.196Z" fill="#E2F2D9"/>
<path d="M130.154 84.6204L130.379 82.3867C136.866 82.8997 142.318 84.8983 146.497 88.6175C153.092 93.7048 155.635 101.186 156.811 106.498L154.727 107.075C153.551 102.159 151.242 95.0728 144.979 90.3916C141.153 86.961 136.182 85.1334 130.154 84.6204Z" fill="#E2F2D9"/>
<path d="M243.848 152.905C243.848 146.898 245.932 140.336 252.302 134.105L253.788 135.644C236.526 152.744 253.211 172.217 253.927 173.126L252.185 174.558C252.185 174.44 243.848 164.789 243.848 152.905Z" fill="#E2F2D9"/>
<path d="M229.813 156.679C234.666 152.223 239.903 149.818 245.322 149.476C254.728 148.215 262.841 153.131 265.502 154.734L264.359 156.679C259.923 153.986 253.328 150.673 245.579 151.763C240.587 151.988 235.842 154.221 231.32 158.272L229.813 156.679Z" fill="#E2F2D9"/>
<path d="M95.8651 15.7624L97.3508 13.9883C98.1738 14.8433 117.659 31.1952 134.761 14.1593L136.385 15.6448C117.638 34.3373 95.972 15.9869 95.8651 15.7624Z" fill="#E2F2D9"/>
<path d="M111.374 37.7666C123.89 24.8454 118.204 10.7379 113.8 3.65213L115.66 2.27344C120.524 10.0432 126.659 25.2409 112.892 39.1881L111.374 37.7666Z" fill="#E2F2D9"/>
<path d="M158.062 131.421C159.13 131.421 184.612 129.358 184.612 105.183V105.076H186.92V105.183C186.92 131.421 158.553 133.697 158.211 133.751L158.062 131.421Z" fill="#E2F2D9"/>
<path d="M162.123 112.509L162.604 110.275C171.636 112.274 186.696 118.622 186.92 138.33H184.612C184.494 120.215 170.578 114.39 162.123 112.509Z" fill="#E2F2D9"/>
<path d="M203.616 -0.494499C203.599 -13.5147 207.444 -26.2474 214.665 -37.0822C221.886 -47.917 232.158 -56.3673 244.183 -61.364C256.207 -66.3608 269.443 -67.6796 282.217 -65.1538C294.991 -62.6279 306.729 -56.3708 315.947 -47.1739C325.164 -37.977 331.446 -26.2533 333.999 -13.4859C336.552 -0.718407 335.261 12.5193 330.289 24.5531C325.318 36.5868 316.888 46.8759 306.068 54.119C295.247 61.362 282.521 65.2337 269.5 65.2443C252.051 65.2443 235.314 58.3228 222.962 45.9983C210.61 33.6739 203.653 16.9533 203.616 -0.494499ZM333.898 -0.494499C333.907 -13.227 330.139 -25.6762 323.072 -36.2679C316.005 -46.8596 305.956 -55.1182 294.195 -59.9995C282.434 -64.8809 269.49 -66.1657 256.999 -63.6915C244.508 -61.2174 233.031 -55.0954 224.02 -46.0996C215.008 -37.1038 208.866 -25.6382 206.371 -13.1524C203.876 -0.666725 205.14 12.2784 210.002 24.0462C214.864 35.8139 223.107 45.8759 233.688 52.9599C244.269 60.0438 256.713 63.8316 269.447 63.8442C286.516 63.8245 302.882 57.043 314.961 44.9845C327.041 32.926 333.85 16.5729 333.898 -0.494499Z" fill="#E2F2D9"/>
<path d="M197.47 -0.497993C197.479 -14.7307 201.707 -28.6415 209.62 -40.472C217.533 -52.3025 228.777 -61.5218 241.929 -66.9645C255.081 -72.4072 269.552 -73.8291 283.512 -71.0503C297.472 -68.2716 310.295 -61.417 320.36 -51.353C330.425 -41.2889 337.28 -28.4672 340.059 -14.5084C342.838 -0.549553 341.416 13.9197 335.973 27.0706C330.53 40.2216 321.31 51.4638 309.478 59.3764C297.646 67.2889 283.734 71.5166 269.5 71.5251C250.403 71.5053 232.093 63.9108 218.589 50.4081C205.085 36.9055 197.49 18.5976 197.47 -0.497993ZM339.905 -0.497993C339.905 -14.4549 335.765 -28.0981 328.007 -39.7009C320.249 -51.3038 309.224 -60.3446 296.325 -65.6793C283.427 -71.014 269.236 -72.4028 255.548 -69.6698C241.86 -66.9368 229.29 -60.2049 219.43 -50.3262C209.57 -40.4475 202.862 -27.8659 200.156 -14.1738C197.449 -0.481735 198.866 13.7053 204.227 26.5919C209.588 39.4785 218.651 50.4854 230.27 58.2194C241.889 65.9534 255.542 70.067 269.5 70.0395C288.186 70.0027 306.093 62.5549 319.293 49.3305C332.492 36.1061 339.905 18.1857 339.905 -0.497993Z" fill="#E2F2D9"/>
</svg>
