<svg width="380" height="381" viewBox="0 0 380 381" fill="none" xmlns="http://www.w3.org/2000/svg">
<path d="M-193.059 380.004C-193.059 273.643 -106.446 187.113 -0.0748901 187.113C106.296 187.113 192.909 273.688 192.909 380.004C192.909 486.32 106.281 572.894 0.000457764 572.894C-106.28 572.894 -193.059 486.395 -193.059 380.004ZM187.981 380.004C187.957 330.156 168.146 282.356 132.899 247.105C97.6524 211.853 49.8528 192.032 0.000457764 191.996C-103.583 191.996 -188.236 276.19 -188.236 380.049C-188.236 483.909 -103.658 568.253 0.000457764 568.253C103.659 568.253 187.981 483.818 187.981 380.004Z" fill="#E2F2D9"/>
<path d="M-127.712 380.005C-127.718 354.747 -120.233 330.055 -106.203 309.051C-92.1735 288.047 -72.2297 271.675 -48.894 262.005C-25.5583 252.335 0.121269 249.802 24.8969 254.725C49.6725 259.649 72.4314 271.809 90.2952 289.667C108.159 307.525 120.325 330.279 125.256 355.051C130.186 379.823 127.658 405.501 117.993 428.837C108.328 452.172 91.9588 472.118 70.956 486.151C49.9533 500.184 25.2603 507.675 3.05176e-05 507.675C-33.8574 507.647 -66.3206 494.188 -90.2643 470.252C-114.208 446.316 -127.676 413.859 -127.712 380.005ZM123.974 380.005C123.95 355.486 116.657 331.524 103.015 311.148C89.3733 290.773 69.9964 274.9 47.3338 265.534C24.6711 256.169 -0.259689 253.732 -24.307 258.533C-48.3544 263.333 -70.4385 275.155 -87.7676 292.503C-105.097 309.852 -116.893 331.948 -121.664 355.999C-126.436 380.05 -123.969 404.975 -114.575 427.624C-105.181 450.273 -89.2824 469.629 -68.8887 483.245C-48.495 496.86 -24.5218 504.124 3.05176e-05 504.118C32.8774 504.038 64.3826 490.93 87.6121 467.666C110.842 444.402 123.901 412.88 123.929 380.005H123.974Z" fill="#E2F2D9"/>
<path d="M-115.263 379.997C-115.251 357.219 -108.486 334.956 -95.8229 316.022C-83.1597 297.088 -65.1668 282.333 -44.1187 273.622C-23.0706 264.911 0.0877838 262.635 22.4293 267.082C44.7708 271.528 65.2925 282.498 81.4002 298.604C97.508 314.71 108.479 335.23 112.926 357.57C117.373 379.909 115.097 403.065 106.385 424.111C97.6726 445.157 82.9161 463.148 63.9804 475.811C45.0446 488.473 22.7797 495.237 -0.00012207 495.249C-30.56 495.217 -59.859 483.064 -81.4681 461.457C-103.077 439.85 -115.231 410.554 -115.263 379.997ZM111.676 379.997C111.667 357.913 105.11 336.328 92.8332 317.971C80.5566 299.614 63.1121 285.308 42.7052 276.864C22.2982 268.419 -0.154701 266.214 -21.8148 270.528C-43.4748 274.841 -63.3694 285.48 -78.983 301.099C-94.5967 316.717 -105.228 336.614 -109.534 358.274C-113.839 379.934 -111.625 402.383 -103.171 422.785C-94.7173 443.187 -80.4034 460.624 -62.0394 472.892C-43.6753 485.16 -22.0857 491.708 -0.00012207 491.708C29.6089 491.652 57.9886 479.863 78.9212 458.924C99.8538 437.985 111.632 409.603 111.676 379.997Z" fill="#E2F2D9"/>
<path d="M124.653 362.492L188.629 354.43L189.277 357.971L124.984 366.033L124.653 362.492Z" fill="#E2F2D9"/>
<path d="M121.428 346.946L184.123 330.912L184.922 334.454L122.317 350.397L121.428 346.946Z" fill="#E2F2D9"/>
<path d="M109.19 317.767L166.068 286.588L167.68 289.813L111.043 320.916L109.19 317.767Z" fill="#E2F2D9"/>
<path d="M100.568 304.551L153.015 266.605L154.96 269.423L102.573 307.369L100.568 304.551Z" fill="#E2F2D9"/>
<path d="M90.4866 292.554L137.553 248.234L139.965 250.811L92.7472 295.131L90.4866 292.554Z" fill="#E2F2D9"/>
<path d="M78.5652 281.919L119.83 232.129L122.648 234.374L81.308 284.179L78.5652 281.919Z" fill="#E2F2D9"/>
<path d="M65.438 272.737L100.403 218.186L103.387 220.039L68.5728 274.742L65.438 272.737Z" fill="#E2F2D9"/>
<path d="M51.573 265.4L79.2133 206.824L82.4384 208.437L54.8736 266.771L51.573 265.4Z" fill="#E2F2D9"/>
<path d="M36.9844 259.763L56.9685 198.279L60.3595 199.41L40.4507 260.969L36.9844 259.763Z" fill="#E2F2D9"/>
<path d="M21.6726 256.13L33.7746 192.566L37.1505 193.124L25.2293 256.778L21.6726 256.13Z" fill="#E2F2D9"/>
<path d="M5.80225 254.372L9.9166 189.754L13.4583 190.07L9.43432 254.689L5.80225 254.372Z" fill="#E2F2D9"/>
<path d="M176.542 308.17C258.89 276.75 337.38 377.49 338.028 378.439L338.345 378.59L335.526 381.513L335.044 381.197C334.079 379.901 257.443 281.602 177.838 311.982L176.542 308.17Z" fill="#E2F2D9"/>
<path d="M176.542 451.189L177.838 447.392C257.127 477.697 334.079 379.398 335.044 378.268L335.526 377.951L338.345 380.528L338.028 381.176C334.878 385.034 258.574 482.278 176.542 451.189Z" fill="#E2F2D9"/>
<path d="M183.64 329.516L189.895 327.256C245.658 306.641 298.105 366.904 307.856 378.99L308.172 379.306L306.575 380.919L306.077 380.602C296.251 368.426 245.01 309.534 190.694 329.366L184.409 331.852L183.64 329.516Z" fill="#E2F2D9"/>
<path d="M183.64 429.727L184.439 427.633L190.724 430.059C239.644 447.946 287.012 401.201 305.263 380.329L305.746 379.696V379.365L306.559 378.4L307.841 379.696H308.157V380.661L307.042 381.866C288.58 403.054 240.232 450.84 189.88 432.38L183.64 429.727Z" fill="#E2F2D9"/>
<path d="M94.0276 214.552L96.9363 208.434C121.668 154.439 201.197 159.759 217.022 161.492L217.173 161.326L217.339 163.752L216.856 163.903C201.137 162.291 123.22 156.82 98.8955 209.353L96.0621 215.471L94.0276 214.552Z" fill="#E2F2D9"/>
<path d="M163.973 283.196L170.182 280.453C217.399 258.618 218.032 191.829 215.953 164.282V163.468L215.621 163.227V162.022H217.234L217.565 161.705L218.198 162.338V164.116C220.383 192.311 219.705 260.155 170.981 282.473L164.787 285.291L163.973 283.196Z" fill="#E2F2D9"/>
<path d="M-57.0884 166.543C-57.0884 120.445 -11.5287 80.6461 -1.0544 72.0263L-0.888596 71.7852L0.889774 73.3976L0.558208 73.7141C-11.4986 83.7052 -70.5015 135.273 -50.5626 189.177L-48.2718 195.537L-50.5626 196.501L-53.0192 190.127C-55.6918 182.55 -57.0675 174.577 -57.0884 166.543Z" fill="#E2F2D9"/>
<path d="M-1.50757 73.3976L-0.377243 72.0263V71.7852H0.436604L1.9437 73.0811C23.0431 91.4359 70.5921 139.945 52.1452 190.066L49.4777 196.501L47.3828 195.537L49.8092 189.177C67.8944 140.593 21.2798 92.973 0.165291 74.6484L-0.467665 74.1661H-0.799229L-1.50757 73.3976Z" fill="#E2F2D9"/>
<path d="M73.5618 204.399C110.546 123.431 236.66 139.6 237.941 139.947L238.107 143.82H237.459C236.178 143.654 113.048 127.71 77.3446 206.012L73.5618 204.399Z" fill="#E2F2D9"/>
<path d="M173.648 302.215C251.233 267.088 235.846 143.487 235.695 142.116V141.076H239.629V141.905C239.945 142.885 255.499 269.454 175.08 305.787L173.648 302.215Z" fill="#E2F2D9"/>
<path d="M-78.0378 170.529C-78.0378 108.247 -17.2413 54.7498 -2.01962 42.3325C-1.83724 41.9726 -1.55942 41.6699 -1.21653 41.4572C-0.87365 41.2446 -0.478897 41.1304 -0.0754471 41.127V45.0752C0.335632 45.0797 0.73259 44.9256 1.03294 44.645C1.33329 44.3643 1.51388 43.9786 1.53712 43.5682V44.5327L0.889076 45.0149C-15.5986 58.3967 -96.0024 128.184 -68.2115 202.176L-71.9943 203.682C-76.0043 193.09 -78.0522 181.856 -78.0378 170.529Z" fill="#E2F2D9"/>
<path d="M-2.33569 44.5519V43.5875C-2.33569 43.9872 -2.17693 44.3704 -1.8943 44.6531C-1.61166 44.9357 -1.2283 45.0945 -0.828593 45.0945V41.0859C-0.406874 41.0977 0.0053041 41.214 0.370952 41.4244C0.736599 41.6348 1.04424 41.9328 1.26625 42.2915C18.9144 56.8035 99.6498 127.857 71.2108 203.536L67.5033 202.029C95.2189 128.384 14.7548 58.2803 -1.47668 44.9136L-2.33569 44.5519Z" fill="#E2F2D9"/>
<path d="M336.897 378.766H306.921V381.177H336.897V378.766Z" fill="#E2F2D9"/>
<path d="M296.28 367.478L314.486 355.393L315.948 357.322L297.652 369.332L296.28 367.478Z" fill="#E2F2D9"/>
<path d="M283.561 355.074L301.601 343.621L302.897 345.716L284.842 357.078L283.561 355.074Z" fill="#E2F2D9"/>
<path d="M264.933 341.047L281.466 328.645L283.063 330.573L266.636 342.991L264.933 341.047Z" fill="#E2F2D9"/>
<path d="M274.292 347.817L290.328 334.857L291.775 336.862L275.905 349.596L274.292 347.817Z" fill="#E2F2D9"/>
<path d="M237.308 327.031L254.384 313.498L255.831 315.427L238.755 328.884L237.308 327.031Z" fill="#E2F2D9"/>
<path d="M217.566 323.163L237.459 309.148L238.756 311.092L218.937 325.107L217.566 323.163Z" fill="#E2F2D9"/>
<path d="M194.838 325.745L217.249 303.984L219.087 305.763L196.858 327.433L194.838 325.745Z" fill="#E2F2D9"/>
<path d="M182.917 326.06L194.838 304.465L197.008 305.595L185.087 327.19L182.917 326.06Z" fill="#E2F2D9"/>
<path d="M301.932 373.113L326.588 367.16L327.071 369.647L302.565 375.207L301.932 373.113Z" fill="#E2F2D9"/>
<path d="M216.269 162.016L216.6 161.7L237.142 140.994L239.147 142.682L238.423 143.164L217.881 163.794L216.269 162.016Z" fill="#E2F2D9"/>
<path d="M200.716 161.544L204.83 140.205L207.332 140.763L202.976 162.026L200.716 161.544Z" fill="#E2F2D9"/>
<path d="M182.917 161.872L187.513 141.076L189.924 141.558L185.252 162.354L182.917 161.872Z" fill="#E2F2D9"/>
<path d="M159.948 165.009L162.691 144.469L164.952 144.951L162.209 165.415L159.948 165.009Z" fill="#E2F2D9"/>
<path d="M170.98 163.241L173.332 142.852L175.577 143.017L173.648 163.482L170.98 163.241Z" fill="#E2F2D9"/>
<path d="M130.289 174.589L132.715 153.16L135.051 153.492L132.715 174.996L130.289 174.589Z" fill="#E2F2D9"/>
<path d="M113.696 185.873L117.735 162.018L120.147 162.349L115.957 186.355L113.696 185.873Z" fill="#E2F2D9"/>
<path d="M99.439 203.6L99.9212 172.512H102.257L101.941 203.6H99.439Z" fill="#E2F2D9"/>
<path d="M208.462 161.382L221.83 140.104L223.759 141.234L210.556 162.663L208.462 161.382Z" fill="#E2F2D9"/>
<path d="M217.083 176.05L238.589 172.012L239.147 174.272L217.399 178.462L217.083 176.05Z" fill="#E2F2D9"/>
<path d="M216.751 193.937L237.79 189.582L238.423 191.993L217.248 196.348L216.751 193.937Z" fill="#E2F2D9"/>
<path d="M213.933 217.375L234.882 214.723L235.198 217.058L214.25 219.711L213.933 217.375Z" fill="#E2F2D9"/>
<path d="M215.952 205.934L236.66 203.93L236.826 206.341L216.118 208.27L215.952 205.934Z" fill="#E2F2D9"/>
<path d="M204.83 247.029L226.667 244.859L226.833 247.346L205.146 249.365L204.83 247.029Z" fill="#E2F2D9"/>
<path d="M193.542 263.864L217.882 260.006L218.198 262.417L194.039 266.29L193.542 263.864Z" fill="#E2F2D9"/>
<path d="M216.269 168.466L237.79 155.084L239.147 157.194L217.399 170.485L216.269 168.466Z" fill="#E2F2D9"/>
<path d="M-1.03955 72.9111V72.4289V43.1035H1.20601V43.9022V73.0769L-1.03955 72.9111Z" fill="#E2F2D9"/>
<path d="M9.26904 82.3494L21.6725 64.2207L23.4509 65.592L11.1982 83.6303L9.26904 82.3494Z" fill="#E2F2D9"/>
<path d="M21.8379 95.0737L33.6083 77.0957L35.5374 78.5424L23.7669 96.43L21.8379 95.0737Z" fill="#E2F2D9"/>
<path d="M36.3369 113.525L49.0719 97.084L51.001 98.3799L38.1153 114.972L36.3369 113.525Z" fill="#E2F2D9"/>
<path d="M29.4941 104.184L42.636 88.1504L44.5651 89.6724L31.5136 105.706L29.4941 104.184Z" fill="#E2F2D9"/>
<path d="M50.6841 141.075L64.7905 124.242L66.4785 125.764L52.387 142.687L50.6841 141.075Z" fill="#E2F2D9"/>
<path d="M54.7224 161.056L69.055 141.164L70.9991 142.686L56.6515 162.518L54.7224 161.056Z" fill="#E2F2D9"/>
<path d="M52.2212 183.216L74.5413 160.898L76.2293 162.511L53.8338 184.904L52.2212 183.216Z" fill="#E2F2D9"/>
<path d="M52.3867 194.981L74.5411 183.137L75.581 185.231L53.6678 197.151L52.3867 194.981Z" fill="#E2F2D9"/>
<path d="M3.14917 77.5093L8.93648 52.8555L11.3629 53.413L5.48516 77.9915L3.14917 77.5093Z" fill="#E2F2D9"/>
<path d="M190.723 378.274C244.874 377.068 255.529 336.546 255.529 336.215L258.905 337.029C258.905 337.511 247.632 380.534 190.738 381.74L190.723 378.274Z" fill="#E2F2D9"/>
<path d="M190.723 382.7V379.068C247.616 380.199 258.89 422.589 258.89 422.77L255.514 423.735C255.182 422.198 244.708 383.589 190.723 382.7Z" fill="#E2F2D9"/>
<path d="M232.621 378.746C260.668 378.429 273.554 364.324 279.687 352.404L281.782 353.444C275.754 365.861 261.964 380.841 232.621 381.172V378.746Z" fill="#E2F2D9"/>
<path d="M232.621 381.738V379.236C263.32 380.05 276.327 396.325 281.3 406.151L279.356 407.281C274.443 398.088 261.964 382.386 232.621 381.738Z" fill="#E2F2D9"/>
<path d="M249.878 311.236C249.878 302.692 252.892 272.884 292.077 256.127L293.584 259.503C252.259 276.908 253.375 309.142 253.375 313L249.923 313.165L249.878 311.236Z" fill="#E2F2D9"/>
<path d="M224.091 248.068L226.819 245.566C236.178 254.834 257.127 268.532 291.624 255.648L292.921 258.948C256.479 272.722 234.234 257.939 224.091 248.068Z" fill="#E2F2D9"/>
<path d="M226.065 305.751C227.572 296.71 233.796 280.299 257.488 270.865L258.453 272.885C235.741 282.062 229.818 297.538 228.401 306.158L226.065 305.751Z" fill="#E2F2D9"/>
<path d="M213.451 270.072L214.581 268.053C222.961 273.056 236.977 277.396 257.443 270.223L258.257 272.559C236.811 279.973 222.147 275.301 213.451 270.072Z" fill="#E2F2D9"/>
<path d="M112.641 115.606C112.865 105.353 115.044 95.2357 119.061 85.7988L122.362 87.3058C105.498 128.913 129.008 150.945 131.736 153.235L129.325 156.053C123.952 150.791 119.703 144.493 116.835 137.54C113.967 130.588 112.541 123.126 112.641 115.606Z" fill="#E2F2D9"/>
<path d="M65.1069 128.19V124.558C78.3996 124.558 102.905 119.645 118.202 85.7988L121.668 87.3058C104.834 124.241 76.5458 128.19 65.1069 128.19Z" fill="#E2F2D9"/>
<path d="M99.7554 143.17C99.9633 135.454 101.689 127.855 104.834 120.807L106.929 121.605C97.2536 144.21 104.352 159.279 109.024 166.407L107.411 167.688C102.345 160.524 99.6657 151.944 99.7554 143.17Z" fill="#E2F2D9"/>
<path d="M72.4463 149.134C81.7903 146.707 95.1583 139.775 104.517 120.275L106.446 121.255C96.6202 141.719 82.7549 148.968 72.9286 151.394L72.4463 149.134Z" fill="#E2F2D9"/>
<path d="M163.656 214.716C183.474 194.402 182.419 175.309 178.154 162.666L180.49 162.018C184.273 172.822 187.016 194.161 165.269 216.479L163.656 214.716Z" fill="#E2F2D9"/>
<path d="M163.973 215.036C186.052 193.939 207.166 196.35 217.234 199.484L216.751 201.82C206.85 198.686 186.866 196.501 165.42 216.814L163.973 215.036Z" fill="#E2F2D9"/>
<path d="M-27.6709 100.304L-26.5557 98.209C-16.443 103.197 0.722836 116.413 1.20511 147.426H-1.05554C-1.50767 119.291 -15.7497 106.256 -27.6709 100.304Z" fill="#E2F2D9"/>
<path d="M-0.888184 147.438C-0.0743494 116.741 16.4434 103.736 25.8628 98.7031L26.9931 100.707C17.9505 105.545 2.33699 118.037 1.53823 147.604L-0.888184 147.438Z" fill="#E2F2D9"/>
<path d="M133.59 243.878C170.981 204.803 149.957 168.621 149.791 168.53L152.7 166.602C153.016 167.069 175.578 205.436 136.122 246.47L133.59 243.878Z" fill="#E2F2D9"/>
<path d="M134.237 244.525C175.095 205.118 213.134 226.954 213.45 227.285L211.672 230.179C210.165 229.455 175.501 209.548 136.739 247.026L134.237 244.525Z" fill="#E2F2D9"/>
<path d="M-43.8711 124.558L-43.0723 121.092C-42.5448 121.258 0.558228 132.379 1.85433 189.176L-1.68736 189.327C-3.01361 135.272 -42.1982 124.874 -43.8711 124.558Z" fill="#E2F2D9"/>
<path d="M-1.05493 189.176C0.0753937 132.379 42.229 121.258 42.7867 121.092L43.7512 124.558C41.8975 124.874 3.63217 135.272 2.50185 189.357L-1.05493 189.176Z" fill="#E2F2D9"/>
<path d="M235.529 210.046L235.694 211.885L235.845 210.046C239.099 209.518 242.39 209.246 245.686 209.232C264.139 209.264 281.827 216.608 294.875 229.655C307.923 242.702 315.268 260.388 315.299 278.839C315.299 300.916 305.141 321.712 287.825 334.204L285.489 331.055C293.613 324.997 300.201 317.116 304.722 308.046C309.243 298.977 311.57 288.972 311.517 278.839C311.469 261.414 304.505 244.721 292.156 232.427C279.807 220.133 263.082 213.243 245.656 213.271C242.528 213.322 239.404 213.533 236.297 213.904L235.664 211.885L235.529 210.046Z" fill="#E2F2D9"/>
<path d="M46.1775 93.2905L46.8104 92.2507C48.5888 89.9902 50.5179 87.8202 52.7032 85.4844C65.8075 72.4273 83.5534 65.0957 102.053 65.0957C120.553 65.0957 138.299 72.4273 151.403 85.4844C159.053 93.0304 164.814 102.275 168.218 112.466C171.623 122.657 172.574 133.507 170.996 144.135L167.213 143.487C168.675 133.491 167.759 123.291 164.538 113.715C161.317 104.139 155.882 95.4585 148.675 88.3778C142.583 82.2496 135.338 77.3862 127.359 74.0676C119.38 70.749 110.823 69.0405 102.181 69.0405C93.5393 69.0405 84.9827 70.749 77.0035 74.0676C69.0243 77.3862 61.78 82.2496 55.6873 88.3778C53.598 90.3343 51.7097 92.495 50.0507 94.8276L49.2519 95.792L46.1775 93.2905Z" fill="#E2F2D9"/>
<path d="M48.7546 96.608C62.3218 85.0264 79.7526 78.9771 97.5783 79.664C115.404 80.351 132.317 87.7237 144.953 100.315C156.998 111.959 164.196 127.726 165.103 144.454L162.526 144.62C161.396 128.624 154.524 113.574 143.175 102.244C130.999 90.1799 114.74 83.1224 97.611 82.4667C80.4825 81.8109 63.7312 87.6047 50.6687 98.7027L48.7546 96.608Z" fill="#E2F2D9"/>
<path d="M234.882 217.047L235.108 214.229C252.856 215.691 269.411 223.75 281.508 236.817C293.605 249.884 300.365 267.009 300.456 284.814C300.576 301.602 294.477 317.841 283.335 330.4L281.075 328.546C291.846 316.548 297.756 300.967 297.653 284.845C297.588 267.735 291.101 251.273 279.477 238.718C267.852 226.163 251.937 218.428 234.882 217.047Z" fill="#E2F2D9"/>
<path d="M289.68 316.705C294.668 313.691 300.23 310.421 305.957 307.211L307.238 309.622C301.601 312.847 296.115 315.906 291.127 319.131L289.68 316.705Z" fill="#E2F2D9"/>
<path d="M311.517 295.111C309.423 296.407 307.403 297.538 305.489 298.909C302.264 300.762 299.114 302.857 295.979 304.379" fill="#E2F2D9"/>
<path d="M312.874 284.012C309.016 286.498 304.992 288.924 301.119 291.26C300.229 291.577 299.099 292.541 298.3 292.767" fill="#E2F2D9"/>
<path d="M298.617 282.469C303.38 279.651 308.685 276.909 312.875 274.166L298.617 282.469Z" fill="#E2F2D9"/>
<path d="M297.983 272.244C302.731 269.335 307.403 266.608 311.834 264.182L297.983 272.244Z" fill="#E2F2D9"/>
<path d="M295.392 263.375C299.822 260.632 304.736 258.146 309.091 255.312L295.392 263.375Z" fill="#E2F2D9"/>
<path d="M292.378 255.316C296.553 252.664 301.074 249.846 305.429 247.42L292.378 255.316Z" fill="#E2F2D9"/>
<path d="M287.856 247.023C292.377 244.687 296.627 241.779 300.666 239.488L287.856 247.023Z" fill="#E2F2D9"/>
<path d="M282.431 239.852C286.689 237.752 290.78 235.329 294.668 232.604L282.431 239.852Z" fill="#E2F2D9"/>
<path d="M276.056 233.831C279.839 231.496 283.878 229.16 287.827 226.658L276.056 233.831Z" fill="#E2F2D9"/>
<path d="M268.4 227.436C272.37 225.457 276.192 223.196 279.839 220.67L268.4 227.436Z" fill="#E2F2D9"/>
<path d="M270.661 215.918C267.334 218.109 263.893 220.121 260.352 221.946C260.352 221.946 259.87 221.946 259.87 222.353" fill="#E2F2D9"/>
<path d="M259.221 212.291C258.091 213.271 257.127 213.587 256.207 214.386C253.827 215.6 251.517 216.948 249.29 218.424" fill="#E2F2D9"/>
<path d="M236.178 215.521C238.762 214.199 241.277 212.745 243.713 211.166L236.178 215.521Z" fill="#E2F2D9"/>
<path d="M48.7546 96.608C62.3218 85.0264 79.7526 78.9771 97.5783 79.664C115.404 80.351 132.317 87.7237 144.953 100.315C156.998 111.959 164.196 127.726 165.103 144.454L162.526 144.62C161.396 128.624 154.524 113.574 143.175 102.244C130.999 90.1799 114.74 83.1224 97.611 82.4667C80.4825 81.8109 63.7312 87.6047 50.6687 98.7027L48.7546 96.608Z" fill="#E2F2D9"/>
<path d="M159.948 130.436C161.244 124.8 162.842 118.998 164.786 112.156L167.514 112.88C165.419 119.646 163.972 125.448 162.691 131.249L159.948 130.436Z" fill="#E2F2D9"/>
<path d="M160.266 99.9082C159.542 102.078 159.06 104.339 158.412 106.599C157.744 110.237 156.802 113.818 155.594 117.314" fill="#E2F2D9"/>
<path d="M153.347 90.8105C152.368 95.241 151.237 99.8523 150.122 104.373C149.764 105.424 149.492 106.503 149.308 107.598" fill="#E2F2D9"/>
<path d="M142.226 99.81C143.507 94.5055 145.24 88.8695 146.491 83.791L142.226 99.81Z" fill="#E2F2D9"/>
<path d="M134.237 93.0473C135.744 87.7428 137.251 82.4233 138.517 77.5859L134.237 93.0473Z" fill="#E2F2D9"/>
<path d="M126.431 88.6148C127.561 83.461 129.159 78.5483 130.289 73.3945L126.431 88.6148Z" fill="#E2F2D9"/>
<path d="M118.368 85.1544C119.498 80.1663 120.794 75.0125 122.151 70.2656L118.368 85.1544Z" fill="#E2F2D9"/>
<path d="M109.34 82.4204C111.028 77.5831 112.007 72.4293 113.213 68.0742L109.34 82.4204Z" fill="#E2F2D9"/>
<path d="M100.568 81.2898C102.016 76.7349 103.223 72.1072 104.185 67.4258L100.568 81.2898Z" fill="#E2F2D9"/>
<path d="M91.782 81.6271C92.8972 76.9555 94.0225 72.4346 95.1579 68.0645L91.782 81.6271Z" fill="#E2F2D9"/>
<path d="M81.7905 82.428C83.227 78.19 84.3552 73.8538 85.1664 69.4531L81.7905 82.428Z" fill="#E2F2D9"/>
<path d="M75.2642 72.4395C74.4708 76.3724 73.4185 80.2487 72.1143 84.043C72.0715 84.0839 72.0374 84.133 72.0141 84.1874C71.9908 84.2418 71.9788 84.3003 71.9788 84.3595C71.9788 84.4187 71.9908 84.4772 72.0141 84.5316C72.0374 84.586 72.0715 84.6351 72.1143 84.6759" fill="#E2F2D9"/>
<path d="M64.8051 78.2363C64.4735 79.5172 64.157 80.331 63.8254 81.7777C62.9966 84.2438 62.3271 86.7605 61.821 89.3125" fill="#E2F2D9"/>
<path d="M50.5181 96.6951C51.5329 93.9848 52.2652 91.1771 52.7033 88.3164L50.5181 96.6951Z" fill="#E2F2D9"/>
<path d="M305.143 251.463C305.143 246.144 313.372 238.564 325.293 233.244C336.897 228.331 350.748 226.327 353.325 232.445C355.751 237.931 347.131 246.701 333.732 252.669C321.977 257.823 308.112 259.751 305.459 253.558C305.176 252.898 305.067 252.177 305.143 251.463ZM351.155 234.45C351.196 234.172 351.138 233.889 350.989 233.651C349.376 230.185 339.068 230.426 326.333 235.987C313.598 241.547 306.514 249.203 308.127 252.337C309.498 255.652 319.882 255.487 332.451 250.001C344.147 244.848 351.155 238.247 351.155 234.45Z" fill="#E2F2D9"/>
<path d="M122.316 64.7755C122.553 58.4399 123.889 52.1936 126.265 46.3153C130.138 36.1734 136.015 28.2318 141.094 26.0165C142.499 25.4054 144.083 25.3515 145.525 25.8658C147.454 26.6645 149.79 28.8797 149.79 35.6008C149.53 41.9042 148.195 48.1168 145.842 53.9706C141.321 65.7399 132.866 76.9366 126.43 74.5255C123.763 73.3953 122.316 70.0951 122.316 64.7755ZM146.972 35.6008C146.972 31.6525 146.173 29.0003 144.47 28.4277C144.073 28.3011 143.653 28.2585 143.238 28.3026C142.823 28.3467 142.421 28.4765 142.059 28.6838C138.02 30.5374 132.383 38.1023 128.842 47.2948C126.541 52.8512 125.23 58.7673 124.968 64.7755C124.968 68.558 125.948 71.3006 127.711 71.8582C130.937 73.2295 138.261 65.7399 143.189 53.0062C145.516 47.4882 146.798 41.5865 146.972 35.6008Z" fill="#E2F2D9"/>
<path d="M252.213 208.919C317.712 190.715 352.842 231.629 353.189 232.111L351.154 233.829C350.823 233.437 316.823 193.864 252.922 211.511L252.213 208.919Z" fill="#E2F2D9"/>
<path d="M298.934 319.613C355.751 285.601 350.748 233.641 350.748 233.234L353.325 232.918C353.656 233.234 358.886 287.168 300.396 321.949L298.934 319.613Z" fill="#E2F2D9"/>
<path d="M57.27 80.6488C90.9537 21.5158 144.682 25.7052 144.938 25.7052L144.787 28.4327C144.29 28.4327 92.4005 24.4091 59.5307 82.0955L57.27 80.6488Z" fill="#E2F2D9"/>
<path d="M144.154 28.1122L145.842 26.0176C146.325 26.3491 188.041 60.346 171.146 126.577L168.569 125.929C184.771 61.4763 144.682 28.4287 144.154 28.1122Z" fill="#E2F2D9"/>
<path d="M190.572 378.273H125.948V381.739H190.572V378.273Z" fill="#E2F2D9"/>
<path d="M116.123 331.227L173.799 306.166L175.095 309.481L117.569 334.452L116.123 331.227Z" fill="#E2F2D9"/>
<path d="M310.071 351.444L351.079 328.719L352.857 331.868L311.834 354.593L310.071 351.444Z" fill="#E2F2D9"/>
<path d="M336.415 382.218L336.58 377.064L380 377.471V382.716L336.415 382.218Z" fill="#E2F2D9"/>
<path d="M352.044 337.026C350.297 336.977 348.634 336.267 347.392 335.039C346.149 333.81 345.42 332.156 345.352 330.41C345.344 328.619 346.041 326.897 347.294 325.616C348.546 324.336 350.253 323.6 352.044 323.568C353.773 323.65 355.405 324.395 356.6 325.648C357.795 326.901 358.462 328.566 358.462 330.297C358.462 332.028 357.795 333.693 356.6 334.946C355.405 336.199 353.773 336.944 352.044 337.026Z" fill="#E2F2D9"/>
<path d="M199.119 140.517L212.004 95.3984L215.471 96.4382L202.495 141.481L199.119 140.517Z" fill="#E2F2D9"/>
<path d="M237.79 177.981L283.877 164.855L284.842 168.306L239.147 181.522L237.79 177.981Z" fill="#E2F2D9"/>
<path d="M235.861 139.944L266.802 109.504L270.494 113.121L239.478 143.652L235.861 139.944Z" fill="#E2F2D9"/>
<path d="M218.198 100.632C217.592 101.244 216.87 101.729 216.074 102.061C215.279 102.392 214.426 102.563 213.564 102.563C212.702 102.563 211.849 102.392 211.054 102.061C210.258 101.729 209.536 101.244 208.93 100.632C207.732 99.3714 207.064 97.699 207.064 95.9602C207.064 94.2214 207.732 92.5491 208.93 91.2887C210.184 90.141 211.835 89.5231 213.535 89.5644C215.235 89.6057 216.853 90.3029 218.051 91.5102C219.248 92.7174 219.932 94.3411 219.96 96.0413C219.987 97.7415 219.356 99.3864 218.198 100.632Z" fill="#E2F2D9"/>
<path d="M289.198 171.36C288.257 172.3 287.06 172.939 285.756 173.198C284.452 173.457 283.101 173.324 281.873 172.815C280.645 172.306 279.596 171.444 278.857 170.339C278.119 169.234 277.725 167.935 277.725 166.606C277.725 165.277 278.119 163.978 278.857 162.872C279.596 161.767 280.645 160.906 281.873 160.397C283.101 159.888 284.452 159.755 285.756 160.014C287.06 160.272 288.257 160.912 289.198 161.851C290.438 163.123 291.132 164.829 291.132 166.606C291.132 168.382 290.438 170.088 289.198 171.36Z" fill="#E2F2D9"/>
<path d="M25.3799 68.8912L48.4385 27.1484L51.5733 28.9266L28.5298 70.6543L25.3799 68.8912Z" fill="#E2F2D9"/>
<path d="M-2.96875 43.4233L-2.65223 0.0078125L2.50203 0.083188L2.18551 43.5891L-2.96875 43.4233Z" fill="#E2F2D9"/>
<path d="M56.803 27.9493C56.805 28.8349 56.6309 29.7121 56.2906 30.5297C55.9503 31.3474 55.4507 32.0891 54.8209 32.7118C54.1912 33.3345 53.4438 33.8257 52.6223 34.1568C51.8008 34.4878 50.9217 34.6522 50.0361 34.6402C49.1616 34.6403 48.2957 34.4666 47.4889 34.1292C46.6821 33.7919 45.9503 33.2976 45.3362 32.6751C44.722 32.0526 44.2377 31.3142 43.9113 30.5029C43.5849 29.6917 43.423 28.8236 43.435 27.9493C43.4186 27.078 43.5782 26.2123 43.9041 25.4041C44.2301 24.5959 44.7157 23.8618 45.3319 23.2456C45.9482 22.6294 46.6825 22.1438 47.4907 21.8179C48.299 21.492 49.1647 21.3324 50.0361 21.3488C50.9147 21.3348 51.7873 21.4948 52.6038 21.8195C53.4203 22.1443 54.1644 22.6273 54.7933 23.2408C55.4223 23.8543 55.9237 24.5862 56.2686 25.3943C56.6135 26.2024 56.7951 27.0707 56.803 27.9493Z" fill="#E2F2D9"/>
<path d="M187.499 357.247C213.933 330.891 244.392 356.916 244.769 357.082L242.84 359.583C241.468 358.528 213.994 335.321 189.986 359.493L187.499 357.247Z" fill="#E2F2D9"/>
<path d="M208.929 350.869C208.929 342.325 211.838 332.982 220.534 323.955L222.961 326.216C205.147 344.435 213.134 364.326 219.57 374.634L216.917 376.141C213.134 370.053 208.929 361.177 208.929 350.869Z" fill="#E2F2D9"/>
<path d="M151.237 263.133V259.833C185.403 259.833 188.312 224.058 188.478 222.611L191.492 222.762C191.537 223.274 188.387 263.133 151.237 263.133Z" fill="#E2F2D9"/>
<path d="M158.577 229.219L161.727 228.496C163.49 235.428 166.881 245.495 175.577 252.02C180.973 256.782 187.634 259.434 196.36 259.841L196.209 263.051C187.016 262.568 179.119 259.6 173.603 254.521C164.138 247.393 160.597 236.634 158.577 229.219Z" fill="#E2F2D9"/>
<path d="M22.0032 135.356L24.4146 133.186C24.5804 133.668 50.5176 164.048 24.2488 190.45L22.0032 188.19C46.1771 163.807 22.9677 136.486 22.0032 135.356Z" fill="#E2F2D9"/>
<path d="M5.48584 161.058L7.0984 158.481C13.2926 162.188 22.8024 167.011 33.6083 165.413C41.1483 164.729 48.227 161.485 53.6678 156.221L55.838 158.556C48.7547 164.675 41.5809 168.141 33.9248 168.623C22.1544 170.235 12.1623 165.082 5.48584 161.058Z" fill="#E2F2D9"/>
<path d="M116.59 231.145C116.59 193.923 156.407 190.713 156.965 190.713L157.131 193.923C155.428 194.013 119.664 196.937 119.664 231.145V231.31H116.65L116.59 231.145Z" fill="#E2F2D9"/>
<path d="M116.273 184.264H119.499C119.815 209.716 139.483 218.095 151.238 220.838L150.605 223.851C138.021 221.003 116.59 211.886 116.273 184.264Z" fill="#E2F2D9"/>
<path d="M-92.8974 380.004C-92.9212 361.646 -87.4994 343.692 -77.3178 328.415C-67.1362 313.138 -52.6522 301.223 -35.6976 294.177C-18.743 287.132 -0.0796356 285.272 17.932 288.834C35.9436 292.395 52.4944 301.218 65.4908 314.186C78.4873 327.153 87.3458 343.684 90.9456 361.686C94.5455 379.689 92.725 398.354 85.7146 415.322C78.7043 432.29 66.8188 446.798 51.5616 457.01C36.3043 467.223 18.3608 472.682 0.000320435 472.697C-24.6038 472.697 -48.203 462.938 -65.6191 445.56C-83.0352 428.182 -92.8455 404.606 -92.8974 380.004ZM90.8031 380.004C90.815 362.051 85.5029 344.498 75.5382 329.563C65.5736 314.629 51.404 302.984 34.821 296.101C18.2381 289.218 -0.0136032 287.407 -17.6262 290.895C-35.2388 294.384 -51.4214 303.016 -64.1279 315.7C-76.8344 328.385 -85.4942 344.551 -89.0124 362.156C-92.5306 379.762 -90.7491 398.014 -83.8932 414.607C-77.0374 431.2 -65.415 445.388 -50.4956 455.376C-35.5762 465.365 -18.0298 470.705 -0.0750122 470.723C23.9927 470.695 47.069 461.133 64.1016 444.131C81.1342 427.128 90.7354 404.07 90.8031 380.004Z" fill="#E2F2D9"/>
<path d="M-101.563 379.998C-101.552 359.929 -95.5899 340.315 -84.432 323.634C-73.2741 306.952 -57.4208 293.953 -38.876 286.279C-20.3312 278.604 0.0727539 276.6 19.7568 280.518C39.4409 284.436 57.5215 294.101 71.7133 308.291C85.9052 322.482 95.5712 340.561 99.4897 360.243C103.408 379.925 101.403 400.327 93.728 418.87C86.053 437.413 73.0524 453.265 56.3695 464.422C39.6866 475.579 20.0704 481.54 5.34058e-05 481.552C-26.9277 481.524 -52.7446 470.815 -71.7854 451.776C-90.8262 432.737 -101.536 406.923 -101.563 379.998ZM99.2728 379.998C99.2727 360.318 93.434 341.081 82.4956 324.721C71.5572 308.361 56.0107 295.613 37.8237 288.091C19.6368 280.569 -0.373077 278.611 -19.6734 282.464C-38.9738 286.318 -56.697 295.81 -70.6001 309.739C-84.5032 323.668 -93.9612 341.409 -97.7771 360.715C-101.593 380.021 -99.5952 400.025 -92.0366 418.195C-84.478 436.365 -71.6984 451.885 -55.3151 462.79C-38.9318 473.696 -19.6813 479.496 5.34058e-05 479.457C26.3468 479.405 51.5967 468.904 70.2084 450.257C88.82 431.61 99.2728 406.342 99.2728 379.998Z" fill="#E2F2D9"/>
</svg>
