<svg width="128" height="125" viewBox="0 0 128 125" fill="none" xmlns="http://www.w3.org/2000/svg">
<path d="M65.8768 65.6766C72.2895 66.8135 78.6578 67.4885 85.1016 67.3242C89.8179 67.2043 94.3832 66.5382 98.4866 63.998C99.6768 63.2608 101.431 62.4392 101.271 61.1291C101.098 59.7213 99.0817 59.9878 97.8604 59.7524C88.6455 57.9805 79.475 58.5667 70.34 60.4319C69.4873 60.6051 68.6346 60.7694 67.7909 60.9337C67.6044 60.2942 67.9996 60.1699 68.2971 60.0189C75.6868 56.2707 83.2009 52.8201 91.1146 50.2755C95.933 48.7256 100.68 48.73 105.494 50.2177C112.955 52.5181 119.923 55.911 126.758 59.6103C127.894 60.2276 128.623 60.7605 127.259 62.004C119.417 69.1539 110.699 74.6962 100.072 76.548C89.8978 78.32 80.5719 75.7442 71.8765 70.4817C69.696 69.1583 67.4711 67.866 65.8768 65.6766Z" fill="#E86851"/>
<path d="M50.3824 58.5963C40.6879 55.8696 31.0466 53.0673 22.2624 47.9869C18.612 45.8775 16.4936 42.5068 14.704 38.9185C11.653 32.7989 9.68125 26.2885 7.98037 19.6848C7.61622 18.2726 7.85605 17.5221 9.47255 17.6198C19.216 18.2149 28.7684 19.6626 37.4637 24.4677C47.8067 30.1877 53.2246 39.3049 55.1475 50.7225C55.4584 52.5744 55.9158 54.4485 55.3563 56.7267C53.8774 54.7149 52.6251 52.9341 51.2973 51.211C46.6476 45.1936 41.6204 39.6024 34.3862 36.5826C32.4632 35.7788 30.4737 35.2592 28.3598 35.2459C26.6012 35.2325 26.2459 35.7921 27.1963 37.3331C30.5536 42.751 34.9591 47.1875 39.8974 51.1444C43.2414 53.8223 46.8563 56.1138 50.3824 58.5963Z" fill="#E86851"/>
<path d="M64.4735 72.1009C68.799 74.7121 72.4361 78.1894 76.1976 81.4979C79.4706 84.3756 82.5437 87.4665 85.3459 90.8327C88.1526 94.2123 89.0807 98.178 89.2584 102.375C89.5426 109.205 88.6189 115.942 87.4109 122.643C87.2022 123.811 86.8913 124.881 85.2571 124.193C75.567 120.112 66.8361 114.681 60.6143 105.981C54.6946 97.694 54.1084 88.4524 56.4221 78.8422C56.9683 76.5729 57.5856 74.3124 58.9845 71.7012C59.5841 74.3968 60.0282 76.5329 60.5389 78.6512C61.9866 84.6554 63.9628 90.4508 67.7731 95.4246C69.6738 97.9027 71.8588 100.11 74.8964 101.238C76.9614 102.006 77.2501 101.806 76.9703 99.6657C75.9445 91.792 72.596 84.8419 68.4482 78.1983C67.1603 76.1377 65.4727 74.3391 64.4913 72.0875L64.4735 72.1009Z" fill="#E86851"/>
<path d="M64.4779 56.1145C66.4497 52.313 68.8789 48.7647 70.6064 44.8301C72.6803 40.1093 74.2302 35.2954 73.8483 30.0373C73.715 28.2343 73.2931 26.5334 72.4094 24.9613C71.3702 23.1139 70.9084 23.0739 69.656 24.7926C65.1973 30.8989 62.8836 37.88 61.4403 45.2031C60.9118 47.8854 60.5033 50.5855 60.2546 53.3611C59.2687 50.9763 58.9934 48.4272 58.5759 45.9181C57.6522 40.3758 57.0393 34.8113 56.875 29.1758C56.7107 23.629 58.6736 19.086 62.293 15.0891C66.8716 10.0265 71.9964 5.56777 77.361 1.3622C78.8621 0.189797 79.7592 0.0965472 80.7228 2.01059C84.1823 8.8896 86.6382 16.0617 87.0467 23.7934C87.6329 34.9179 82.6546 43.4578 74.2835 50.2835C71.3169 52.6905 68.2705 55.0531 64.4779 56.1145Z" fill="#E86851"/>
<path d="M52.9981 69.9249C47.8821 77.9408 42.1045 85.4149 34.7681 91.5389C31.3263 94.4122 26.9742 95.0073 22.7109 95.5402C15.7875 96.4062 8.82412 96.122 1.87406 96.0198C0.590626 96.0021 -0.399695 95.7534 0.159862 94.0969C3.5927 83.9405 8.61095 74.8321 17.6705 68.5749C25.1179 63.4278 33.6001 62.1044 42.4331 62.5574C45.7372 62.7262 49.0457 63.0503 52.4474 64.1251C51.8479 64.8845 51.1018 64.8667 50.4534 65.0488C43.3035 67.0561 36.3046 69.4098 30.1673 73.7663C27.3473 75.7692 24.9625 78.1584 23.6435 81.4314C23.346 82.173 22.8752 83.0123 23.5147 83.7229C24.0921 84.3624 24.9092 83.9627 25.6108 83.8028C34.6704 81.7467 42.5308 77.2702 49.885 71.7679C50.8265 71.0618 51.8079 70.4134 52.7716 69.734C52.8516 69.8006 52.9226 69.8627 52.9981 69.9249Z" fill="#E86851"/>
<path d="M54.6767 62.1098C54.6545 59.8982 56.311 58.1396 58.4693 58.0907C60.9029 58.0374 63.1589 60.3911 63.1678 62.9891C63.1767 65.2584 61.4758 66.755 58.909 66.7506C56.3998 66.7461 54.7034 64.8898 54.6767 62.1098Z" fill="#E86851"/>
</svg>
