<svg width="53" height="55" viewBox="0 0 53 55" fill="none" xmlns="http://www.w3.org/2000/svg">
<path d="M28.4791 26.0113C31.008 24.5436 33.5239 23.0565 36.0725 21.6211C41.601 18.4982 46.868 20.5866 52.0501 22.5845C53.8864 23.2957 52.6187 24.6083 51.9129 25.4359C47.2013 30.9446 41.2285 35.3219 31.8118 32.4511C31.0211 32.2119 30.2238 31.6947 28.8646 32.2443C31.2041 34.2163 33.4063 36.0008 35.5302 37.8823C39.8693 41.7165 41.4114 48.5249 39.3007 53.8397C38.7125 55.3203 37.7846 55.1328 36.6998 54.6479C30.3153 51.8095 25.4273 47.7037 24.4994 40.3199C24.1857 37.8047 23.9374 35.2767 23.5779 32.018C21.7417 35.2896 20.1145 37.9082 18.7552 40.6561C15.6185 47.0054 9.49541 47.5421 3.57486 48.415C1.71244 48.6865 1.90846 47.3093 2.07836 46.0356C3.15007 37.8177 8.06429 32.4512 16.651 30.214C17.6901 29.9425 18.7422 29.7355 20.3171 29.3734C17.9907 27.8734 15.7231 27.6278 13.6385 27.3239C6.43713 26.2829 2.8168 21.5888 0.366244 15.427C-0.502887 13.248 0.176712 12.5045 2.38548 12.3817C9.5215 11.9937 15.8342 13.4743 20.0884 19.7784C20.3824 20.218 20.5915 20.7159 21.1405 21.0004C22.1599 18.4335 21.0881 16.2352 20.8398 14.0046C20.4477 10.5196 24.6562 1.8943 27.6557 0.245545C29.0737 -0.530339 29.322 0.717512 29.8252 1.42874C34.7916 8.44402 34.9289 15.3494 30.2892 22.5134C29.59 23.5931 28.9561 24.7182 28.2895 25.8238C28.0935 26.1471 28.1327 26.2376 28.4791 26.0113ZM22.0749 22.6815L22.2971 22.7074L22.2056 22.4681L22.0749 22.6815Z" fill="#E86851"/>
</svg>
