<svg width="88" height="88" viewBox="0 0 88 88" fill="none" xmlns="http://www.w3.org/2000/svg">
<path fill-rule="evenodd" clip-rule="evenodd" d="M43.2577 12.2667V14.5333H44.391H45.5243V12.2667V10H44.391H43.2577V12.2667ZM30.6809 14.5721L29.9431 15.3193L31.5716 16.9431L33.2 18.567L34.0124 17.7548L34.8245 16.9425L33.2706 15.3838C32.4159 14.5264 31.6496 13.825 31.5678 13.825C31.4859 13.825 31.0868 14.1612 30.6809 14.5721ZM55.5114 15.3838L53.9575 16.9425L54.7696 17.7547L55.5818 18.5669L57.1406 17.0129C57.9979 16.1582 58.6993 15.3918 58.6993 15.3095C58.6993 15.1222 57.3933 13.825 57.2046 13.825C57.128 13.825 56.3661 14.5264 55.5114 15.3838ZM37.4849 19.2855C34.0876 20.2004 32.3815 23.461 33.3399 27.208C33.8914 29.3644 35.2126 31.5415 37.4265 33.9422C39.4572 36.1442 43.6538 39.4667 44.4043 39.4667C45.1162 39.4667 48.3496 36.9485 50.766 34.5123C53.3466 31.9106 54.8334 29.588 55.4421 27.208C56.4089 23.4283 54.6841 20.1765 51.2363 19.2785C49.166 18.7393 46.6802 19.3424 45.0468 20.7801L44.391 21.3574L43.7352 20.7801C42.1014 19.3421 39.5451 18.7308 37.4849 19.2855ZM41.0291 21.7293C41.8513 22.0929 42.6376 22.8037 43.214 23.7043C43.9853 24.9091 44.7967 24.9091 45.568 23.7043C46.4854 22.271 47.7192 21.493 49.2699 21.3699C52.2422 21.1339 54.0619 23.5783 53.2503 26.7167C52.979 27.766 52.1971 29.2966 51.3181 30.4992C50.122 32.1357 46.8591 35.2213 44.8442 36.6213L44.3765 36.9463L43.0039 35.9043C41.2531 34.5755 38.6515 32.063 37.6546 30.7384C35.9851 28.5202 35.2301 26.5746 35.3705 24.8522C35.5142 23.0886 36.4798 21.8817 38.0868 21.4569C38.7503 21.2815 40.3521 21.4298 41.0291 21.7293ZM25.1243 27V28.1333H27.391H29.6577V27V25.8667H27.391H25.1243V27ZM59.1243 27V28.1333H61.391H63.6577V27V25.8667H61.391H59.1243V27ZM24.3195 44.3669C23.973 44.7134 23.9577 44.7885 24.0444 45.7201C24.3041 48.5151 25.4707 52.399 26.9642 55.441C28.0318 57.6154 28.4988 58.3477 32.5114 64.1388L35.3243 68.1985V73.0992V78H36.4577H37.591V72.8198C37.591 69.1689 37.5425 67.5484 37.4269 67.3302C37.3368 67.1601 35.7199 64.7896 33.8339 62.0625C29.4994 55.795 28.7375 54.4517 27.5417 50.9683C27.1303 49.7698 26.4037 46.8856 26.4006 46.4382C26.3996 46.3001 26.6961 46.2657 27.6174 46.2966L28.8354 46.3375L29.2919 47.825C30.2266 50.8717 31.399 53.1042 34.0588 56.9023C35.9502 59.6033 36.3703 60.0578 37.4371 60.558L38.2285 60.9292H44.391C50.5246 60.9292 50.5569 60.9276 51.2759 60.6022C52.2128 60.178 52.8601 59.4941 54.4442 57.2539C57.102 53.4958 58.38 51.1291 59.33 48.2055L59.9371 46.3375L61.1574 46.2966L62.3777 46.2558L62.2945 46.7216C61.6879 50.1162 60.3173 53.773 58.5738 56.6477C58.1852 57.2883 56.3652 59.9796 54.5292 62.628L51.191 67.4437V72.7218V78H52.3243H53.4577V73.075V68.1498L56.5995 63.6187C58.3276 61.1265 60.0922 58.5137 60.5207 57.8125C62.6378 54.3493 64.2855 49.5676 64.7277 45.6044C64.8186 44.7889 64.8005 44.7049 64.4603 44.3648L64.0956 44H61.429C59.2814 44 58.703 44.0416 58.4574 44.2136C58.2372 44.3679 57.9346 45.1073 57.3701 46.8699C56.2628 50.328 55.2826 52.1511 52.1512 56.5773C51.3084 57.7689 50.8773 58.2487 50.4576 58.4627C49.5557 58.9229 49.4272 58.772 49.9977 57.9236C51.8004 55.2424 51.4488 51.7442 49.1448 49.437C48.6685 48.9602 47.9465 48.4016 47.5404 48.1957C44.2449 46.5258 40.2617 47.7013 38.4356 50.8826C37.1865 53.0587 37.3455 56.0259 38.8214 58.0803L39.3202 58.7746L38.8812 58.6867C38.1133 58.5332 37.7368 58.1613 36.2949 56.1328C33.4793 52.1715 32.3859 50.1043 31.3016 46.6917C30.9426 45.5619 30.6012 44.5674 30.5429 44.4817C30.267 44.0761 29.7468 44 27.2522 44H24.6864L24.3195 44.3669ZM46.1641 50.0769C47.0846 50.4828 48.1191 51.5106 48.5185 52.4161C48.9607 53.419 48.9607 54.981 48.5185 55.9839C48.1219 56.883 47.0922 57.9105 46.1618 58.335C45.1315 58.8052 43.4581 58.7958 42.4785 58.3144C39.3084 56.7565 38.9334 52.4684 41.7951 50.4995C42.1548 50.252 42.7107 49.9637 43.0304 49.8591C43.8379 49.5944 45.3001 49.6961 46.1641 50.0769Z" fill="#E86851"/>
</svg>
