<svg width="88" height="88" viewBox="0 0 88 88" fill="none" xmlns="http://www.w3.org/2000/svg">
<path fill-rule="evenodd" clip-rule="evenodd" d="M32.7253 10.2295C31.5247 10.5401 30.6219 10.9332 29.7183 11.539C28.7919 12.1599 12.5204 28.3932 11.7384 29.4767C10.4783 31.2225 9.88352 33.252 10.0189 35.3425C10.2618 39.0925 12.6483 42.2377 16.1722 43.4524C19.0083 44.4299 22.0532 43.9806 24.4868 42.2256C25.5662 41.4471 41.7988 25.1753 42.4231 24.246C45.2854 19.9845 43.9824 13.9801 39.62 11.3301C37.651 10.134 34.8329 9.68418 32.7253 10.2295ZM36.2261 12.3951C39.3984 13.0567 41.7527 15.9855 41.7167 19.2255C41.7051 20.2833 41.2971 21.7038 40.7417 22.6201C40.4406 23.1167 38.8431 24.8299 36.4577 27.2141L32.6537 31.0161L27.8005 26.163L22.9474 21.3098L26.7494 17.5058C29.1336 15.1204 30.8468 13.5229 31.3434 13.2218C32.7504 12.3692 34.5998 12.056 36.2261 12.3951ZM48.0603 14.4829C46.4796 16.0803 46.2602 16.3597 46.2602 16.7738C46.2602 17.1879 46.4796 17.4673 48.0603 19.0647C49.0503 20.0653 49.9087 20.8839 49.968 20.8839C50.109 20.8839 51.5042 19.5097 51.5042 19.3708C51.5042 19.3119 51.2035 18.9587 50.8363 18.5856L50.1684 17.9076H55.8158C59.8354 17.9076 61.6311 17.9574 62.0464 18.08C62.8249 18.31 63.999 19.4841 64.229 20.2626C64.3509 20.6753 64.4013 22.4062 64.4013 26.1797V31.5134H65.5425H66.6837L66.6409 25.7381L66.5981 19.9627L66.1495 19.0159C65.5255 17.6987 64.7219 16.8777 63.4323 16.2402L62.3619 15.7109L56.289 15.64L50.2161 15.5691L50.8601 14.9373C51.2143 14.5898 51.5042 14.2366 51.5042 14.1524C51.5042 13.9598 50.1983 12.6637 50.0041 12.6637C49.925 12.6637 49.0503 13.4823 48.0603 14.4829ZM26.2057 27.8284L31.0229 32.6471L27.221 36.4508C24.837 38.8361 23.1238 40.4335 22.6272 40.7345C19.9647 42.3482 16.544 41.9021 14.2816 39.6463C12.5576 37.9275 11.902 35.6113 12.4641 33.2265C12.8582 31.5548 13.1914 31.125 17.3362 26.9427C19.48 24.7796 21.2689 23.0098 21.3114 23.0098C21.3539 23.0098 23.5564 25.1782 26.2057 27.8284ZM64.4013 34.9149V36.0487H65.5352H66.669V34.9149V33.7811H65.5352H64.4013V34.9149ZM64.4013 39.4502V40.584H65.5352H66.669V39.4502V38.3164H65.5352H64.4013V39.4502ZM64.4507 43.5048C63.6344 44.3811 61.8671 47.0492 61.1749 48.4499C60.2937 50.2331 59.9734 51.2892 59.8991 52.6562C59.7728 54.9846 60.6147 56.7719 62.9486 59.1297L64.4013 60.5972V61.3103V62.0236L63.726 61.392C62.0237 59.7995 59.4032 58.9547 55.5936 58.7697L53.8013 58.6827L53.4111 59.073L53.0208 59.4632L53.1078 61.2555C53.2121 63.4044 53.5056 65.0372 54.0615 66.5603C55.3077 69.9751 57.6913 71.5567 62.4781 72.1454L64.4013 72.3818V75.191V78H65.5352H66.669V75.191V72.3818L68.5922 72.1454C70.6407 71.8934 72.6272 71.3252 73.7464 70.6713C76.4061 69.1168 77.8636 65.791 77.9152 61.1587C77.9359 59.304 77.9298 59.2644 77.582 58.9788C77.2527 58.7085 77.1021 58.6939 75.4561 58.7723C71.6473 58.9538 68.9599 59.8375 67.2713 61.4637L66.669 62.0438V61.2517V60.4597L67.8858 59.2734C72.1044 55.1618 72.1666 51.673 68.1292 45.6486C67.6191 44.8875 66.9033 43.9468 66.5384 43.5581C65.6583 42.6208 65.2829 42.6113 64.4507 43.5048ZM66.4653 47.2377C67.5977 48.9662 68.4342 50.721 68.7267 51.9827C69.1475 53.7969 68.5124 55.4315 66.6385 57.3564L65.5451 58.4798L65.0086 58.02C64.7136 57.7672 64.1468 57.1828 63.7491 56.7215C61.809 54.4703 61.6521 52.6046 63.149 49.5837C63.6621 48.5481 65.3549 45.8279 65.4863 45.8279C65.5167 45.8279 65.9572 46.4623 66.4653 47.2377ZM15.6471 47.3869V48.5207H16.781H17.9148V47.3869V46.2531H16.781H15.6471V47.3869ZM15.6471 51.9222V53.056H16.781H17.9148V51.9222V50.7884H16.781H15.6471V51.9222ZM15.6471 56.4575V57.5913H16.781H17.9148V56.4575V55.3236H16.781H15.6471V56.4575ZM15.6717 63.3746L15.718 66.8903L16.2474 67.9607C16.8848 69.25 17.706 70.0538 19.0231 70.6777L19.9698 71.1262L33.9922 71.1651L48.0145 71.2038L47.318 71.911L46.6215 72.6182L47.4359 73.4311L48.2502 74.2442L50.0897 72.3911C52.514 69.949 52.512 70.1805 50.1293 67.7724C49.1393 66.7718 48.26 65.9532 48.1753 65.9532C47.9887 65.9532 46.6854 67.2551 46.6854 67.4413C46.6854 67.5139 46.986 67.8784 47.3532 68.2514L48.0212 68.9295H34.4371C24.1861 68.9295 20.7099 68.8872 20.2697 68.7571C19.4912 68.5271 18.3171 67.353 18.0871 66.5745C17.9752 66.1952 17.9148 64.9181 17.9148 62.925V59.8589H16.77H15.6253L15.6717 63.3746ZM58.3779 61.3709C61.6317 61.9783 63.1421 63.3523 63.8823 66.3784C64.1608 67.5171 64.4699 69.9001 64.3541 70.0161C64.2382 70.1319 61.8552 69.8228 60.7164 69.5443C57.1968 68.6833 55.9078 66.839 55.3956 61.931L55.2938 60.9557L56.269 61.0575C56.8053 61.1135 57.7543 61.2545 58.3779 61.3709ZM75.7387 61.3116C75.7351 62.6963 75.0384 65.6775 74.448 66.8349C73.6238 68.4504 71.8595 69.3796 68.724 69.8493C66.4764 70.186 66.6219 70.2455 66.7431 69.0394C67.0066 66.4154 67.692 64.3059 68.6272 63.2407C69.4716 62.2789 71.1451 61.591 73.5493 61.2174C75.4762 60.9179 75.7397 60.9292 75.7387 61.3116Z" fill="#E86851"/>
</svg>
