<svg width="88" height="88" viewBox="0 0 88 88" fill="none" xmlns="http://www.w3.org/2000/svg">
<path fill-rule="evenodd" clip-rule="evenodd" d="M28.1673 10.1422C26.3932 10.3981 24.1366 11.2947 22.5921 12.3572C19.378 14.5686 17.2314 18.341 16.873 22.4084L16.7793 23.4705L16.0112 23.5498C14.4865 23.7072 13.0955 24.7146 12.4378 26.1375C12.1999 26.6523 12.14 27.0476 12.14 28.1057C12.1398 29.304 12.1818 29.5183 12.5822 30.3636C13.351 31.9862 14.9154 33.1931 16.4781 33.3693C17.1916 33.4497 17.2533 33.5142 17.5762 34.5167C17.8975 35.5142 18.5181 36.7479 19.224 37.7919C19.9157 38.815 21.6749 40.5793 22.5633 41.1405L23.2192 41.5549L23.2194 43.3396L23.2197 45.1244L22.5577 45.4157C19.6397 46.6993 15.1869 48.8318 14.272 49.3838C11.1645 51.259 9.33363 53.6007 8.48584 56.7846C8.15735 58.0187 8.11944 58.4412 8.06258 61.5117L8 64.8835L8.35637 65.2399C8.80639 65.6899 9.33572 65.6952 9.77682 65.254C10.1173 64.9136 10.119 64.8977 10.1239 62.0833C10.1291 58.9968 10.2871 57.7442 10.8615 56.2309C11.5665 54.3742 12.9172 52.745 14.7172 51.5805C15.8105 50.8732 18.7512 49.4032 18.9441 49.4674C19.0163 49.4915 19.5678 50.8882 20.1696 52.5712C21.2899 55.7049 21.5247 56.119 22.1814 56.119C22.3782 56.119 23.1372 55.6255 24.1104 54.8647C24.9931 54.1748 25.7495 53.6103 25.7915 53.6103C25.8335 53.6103 25.868 55.0057 25.8683 56.7113C25.869 61.2602 25.8167 61.206 30.2129 61.206C32.9059 61.206 33.1197 61.1872 33.4794 60.9186C34.4242 60.2132 34.4348 60.1689 34.4812 56.7329L34.5236 53.6036L35.9602 54.7161C37.7755 56.1219 37.9656 56.2124 38.512 55.9297C38.8921 55.7332 39.0278 55.4376 39.9947 52.6995C40.5801 51.0419 41.059 49.6316 41.059 49.5657C41.059 49.2602 41.4088 49.325 42.5138 49.8355C43.17 50.1388 43.707 50.4316 43.707 50.4865C43.707 50.5413 43.605 51.0894 43.4804 51.7047C43.1589 53.2913 43.2776 55.8617 43.7574 57.699C44.4927 60.5155 46.1066 63.2525 48.7349 66.1403L50.2574 67.8131V70.607V73.4008H47.4076H44.5579L44.5157 70.1989C44.4751 67.1166 44.4621 66.9856 44.1678 66.6914C43.7922 66.3162 43.1176 66.2918 42.7333 66.6397C42.4673 66.8804 42.4527 67.0637 42.4527 70.1472V73.4008H37.3845C32.4681 73.4008 32.3054 73.4094 31.9491 73.6897C31.4889 74.0517 31.4456 74.7976 31.8606 75.2126C32.1341 75.4861 32.3251 75.4913 41.8798 75.4913C51.2585 75.4913 51.6324 75.4815 51.9492 75.2253C52.2687 74.9669 52.2804 74.8829 52.348 72.3684L52.4176 69.7775L55.9102 73.1571C60.9019 77.987 60.9164 78 61.3434 78C61.7607 78 61.7364 78.0224 69.6167 70.3382C75.6691 64.4361 76.9156 62.8898 78.212 59.6747C79.0671 57.5543 79.3056 56.316 79.3001 54.0284C79.2942 51.6127 79.0393 50.485 78.0405 48.4537C77.4831 47.3203 77.197 46.9381 76.053 45.7998C74.5282 44.2822 73.4113 43.6391 71.4318 43.1385C70.453 42.891 70.0123 42.8557 68.7267 42.9222C67.8819 42.966 66.8145 43.104 66.3546 43.229C65.292 43.5177 62.9386 44.6451 62.0445 45.2937C61.6668 45.5676 61.2905 45.7525 61.2082 45.7047C61.1259 45.6569 60.7136 45.3864 60.292 45.1036C57.4087 43.1697 54.0274 42.4369 51.2302 43.1398C48.5129 43.8227 46.4636 45.3523 44.9094 47.858L44.544 48.447L43.513 47.9771C42.9461 47.7188 41.2526 46.96 39.7498 46.2912L37.0173 45.0749V43.3619V41.6491L37.8884 41.0251C38.8823 40.3134 40.409 38.7705 40.9847 37.8964L41.3748 37.3041H45.7009H50.0268L50.9899 38.3494C51.8274 39.2582 52.0153 39.3946 52.4292 39.3946C53.015 39.3946 53.1017 39.3085 54.5695 37.2658C55.2165 36.3654 55.7941 35.6772 55.8534 35.7365C55.9126 35.7957 56.4415 36.8782 57.029 38.142C58.1671 40.5911 58.4847 41.0671 58.981 41.0671C59.5522 41.0671 59.7146 40.9145 61.0682 39.1031L62.4125 37.3041H68.8874C72.7659 37.3041 75.4627 37.2503 75.6128 37.17C75.7505 37.0963 75.9395 36.8518 76.0327 36.6269C76.1721 36.2903 76.164 36.1441 75.9873 35.8022C75.8691 35.5737 75.6709 35.3478 75.5467 35.3001C75.1629 35.1528 61.6921 35.2003 61.4126 35.35C61.2723 35.425 60.7618 36.0208 60.2781 36.674C59.7943 37.3271 59.3577 37.8616 59.3079 37.8616C59.2582 37.8616 58.9492 37.2842 58.6214 36.5785C56.9799 33.0456 56.8088 32.739 56.3771 32.5604C56.0707 32.4334 55.8716 32.427 55.6315 32.5364C55.4513 32.6185 54.6623 33.568 53.8782 34.6464C53.094 35.7249 52.4109 36.6072 52.3601 36.6072C52.3093 36.6072 51.959 36.2937 51.5814 35.9104L50.895 35.2135H46.683H42.471L42.7478 34.394C43.012 33.6113 43.0492 33.5705 43.5734 33.4866C45.3411 33.204 46.8562 32.0957 47.6336 30.5166C48.009 29.754 48.0917 29.4073 48.1382 28.4021C48.2039 26.9743 47.9021 25.9891 47.1178 25.0729C46.5205 24.375 45.2106 23.697 44.2209 23.5734L43.4863 23.4816L43.3275 21.9959C42.9976 18.9073 41.8855 16.4635 39.8059 14.257C36.7305 10.9938 32.5388 9.51184 28.1673 10.1422ZM31.8157 12.2201C32.2892 12.2969 33.0911 12.4878 33.5976 12.6442L34.5185 12.9286L34.4345 13.4442C33.7148 17.8521 32.2092 20.356 29.4893 21.6679C27.4351 22.6589 24.5917 23.2282 20.6762 23.4324L19.0386 23.5179V22.6286C19.0386 20.6695 20.1516 17.8372 21.5965 16.1199C24.1061 13.1367 28.0918 11.6156 31.8157 12.2201ZM38.2935 15.6562C39.24 16.6313 40.0636 17.8867 40.544 19.0868C40.9542 20.1116 41.3378 21.8469 41.3378 22.6782V23.2554L40.2738 22.2616C38.954 21.0291 37.4194 20.011 36.0175 19.4377L34.9452 18.9994L35.1987 18.5003C35.5308 17.8464 36.1097 15.9966 36.3245 14.9027L36.4952 14.034L37.0002 14.439C37.2779 14.6618 37.8598 15.2095 38.2935 15.6562ZM36.4239 21.9927C38.3764 23.1099 40.0988 24.8701 40.905 26.5726C41.2552 27.312 41.2678 27.4279 41.2621 29.8478C41.2562 32.3082 41.2474 32.382 40.802 33.6805C40.2319 35.3429 39.4713 36.6362 38.3739 37.8093C36.8849 39.4012 35.3051 40.3711 33.1577 41.0119C31.5232 41.4997 29.0153 41.5351 27.3764 41.0934C23.4244 40.0283 20.3253 36.8871 19.3188 32.9265C19.0795 31.9846 19.0386 31.3708 19.0386 28.7106C19.0386 26.9981 19.0542 25.5944 19.0735 25.5913C19.0927 25.5881 20.1431 25.5299 21.4079 25.4617C26.963 25.1623 30.607 24.0068 32.9042 21.8162L33.8794 20.8863L34.7718 21.2222C35.2626 21.407 36.006 21.7536 36.4239 21.9927ZM16.9481 28.4541C16.9481 31.6373 16.9804 31.5487 16.0018 31.0453C14.2524 30.1454 13.6109 27.7854 14.7598 26.4767C15.2648 25.9017 15.843 25.6103 16.4951 25.6025L16.9481 25.597V28.4541ZM44.7523 25.8592C45.4947 26.2001 45.802 26.5719 46.0128 27.3843C46.2048 28.1248 46.0972 29.0639 45.7416 29.7518C45.5774 30.0693 44.5106 31.1718 44.3678 31.1718C44.3483 31.1718 44.1289 31.2302 43.8803 31.3014L43.4283 31.4311V28.514V25.597L43.8116 25.6001C44.0223 25.6018 44.4457 25.7183 44.7523 25.8592ZM28.9054 43.4407C30.7288 43.6297 33.5726 43.2715 34.6829 42.713C34.9065 42.6005 34.9265 42.6977 34.9241 43.8844L34.9216 45.1785L32.52 46.4019L30.1185 47.6254L27.7492 46.3907L25.3799 45.1562L25.3401 43.8977L25.3004 42.639L26.4504 42.9722C27.083 43.1554 28.1877 43.3662 28.9054 43.4407ZM55.6072 45.2441C57.0435 45.6114 58.1987 46.1812 59.7154 47.2703C60.487 47.8243 61.1147 48.1749 61.3349 48.1749C61.5525 48.1749 62.0918 47.8783 62.7006 47.424C64.8321 45.8328 66.5543 45.1351 68.6542 45.0118C74.0336 44.6958 78.0183 49.6419 77.1649 55.5756C76.8428 57.8141 75.9829 59.92 74.4672 62.1816C73.6066 63.4657 70.5981 66.5455 64.0427 72.8536L61.3129 75.4806L55.4553 69.7828C49.6123 64.099 48.5185 62.8985 47.3535 60.8906C44.4553 55.895 44.7983 50.3273 48.202 47.116C50.2454 45.1879 52.8317 44.5342 55.6072 45.2441ZM28.0641 49.0259C28.0443 49.0765 26.8364 50.0591 25.3799 51.2093C23.587 52.6251 22.6999 53.245 22.6328 53.1291C22.334 52.6124 20.987 48.5408 21.0839 48.4474C21.1472 48.3866 21.8876 48.021 22.7294 47.635L24.2601 46.9333L26.1802 47.9334C27.2362 48.4835 28.084 48.9752 28.0641 49.0259ZM37.6439 47.635C38.5257 48.0279 39.2472 48.3967 39.2472 48.4543C39.2472 48.6606 37.6959 52.9854 37.5801 53.1023C37.479 53.2042 32.2688 49.2782 32.1759 49.0301C32.1518 48.9657 34.5969 47.6298 36.0063 46.9375C36.0251 46.9281 36.7621 47.2421 37.6439 47.635ZM31.7561 51.4186L32.4181 51.9638V55.5745V59.1851H30.1882H27.9583V55.5099V51.8346L29.0384 50.9938L30.1185 50.1528L30.6063 50.5131C30.8746 50.7113 31.3919 51.1188 31.7561 51.4186ZM58.5098 50.6961C57.6918 50.9417 57.5057 51.4619 57.5052 53.5058L57.5046 55.2828L55.7277 55.2833C52.8277 55.2842 52.7155 55.4444 52.7899 59.4822L52.8357 61.9678L53.2873 62.419L53.739 62.8703L55.6113 62.9251L57.4836 62.9797L57.529 64.8572L57.5743 66.7346L58.0295 67.141L58.4847 67.5473H61.3084C63.6936 67.5473 64.1828 67.512 64.4568 67.32C65.0062 66.9353 65.17 66.3034 65.17 64.5694V62.9761L66.9717 62.9272C69.8064 62.8504 69.9566 62.6356 69.8832 58.767C69.8186 55.3668 69.7452 55.2828 66.8353 55.2828H65.1973L65.1461 53.4361C65.0681 50.6189 65.0746 50.6241 61.5463 50.5863C60.1283 50.5711 58.7617 50.6204 58.5098 50.6961ZM63.0794 54.8414C63.1417 56.7498 63.1781 56.9995 63.4196 57.1758C63.6231 57.3244 64.1842 57.3733 65.6844 57.3733H67.6786V59.1154V60.8575H65.596C62.9456 60.8575 63.0794 60.7189 63.0794 63.467V65.4567H61.3373H59.5952V63.4625C59.5952 61.9623 59.5463 61.4012 59.3977 61.1977C59.2214 60.9562 58.9716 60.9198 57.0632 60.8575L54.9263 60.7879L54.8871 59.0806L54.848 57.3733H56.8991C59.6838 57.3733 59.5952 57.458 59.5952 54.7939C59.5952 53.7086 59.6389 52.7769 59.6923 52.7235C59.7457 52.67 60.5139 52.6439 61.3996 52.6654L63.0097 52.7044L63.0794 54.8414ZM29.6814 54.749C29.3847 54.8927 29.0732 55.4096 29.0732 55.7583C29.0732 55.8593 29.2033 56.1073 29.3621 56.3092C29.7241 56.7694 30.47 56.8128 30.885 56.3977C31.3001 55.9827 31.2567 55.2368 30.7965 54.8748C30.3946 54.5586 30.1351 54.5293 29.6814 54.749ZM16.4603 66.4539C15.8529 66.7862 15.8331 66.9048 15.8331 70.2219V73.4008H12.9761H10.119V71.2594C10.119 69.304 10.0939 69.0861 9.83006 68.7507C9.62059 68.4844 9.41279 68.3835 9.0737 68.3835C8.73462 68.3835 8.52682 68.4844 8.31734 68.7507C8.04669 69.0947 8.02843 69.2961 8.02843 71.9374C8.02843 74.5788 8.04669 74.7801 8.31734 75.1241L8.60612 75.4913H18.3972H28.1884L28.4915 75.1688C28.8934 74.7408 28.8777 74.1683 28.4523 73.743L28.1103 73.4008H23.0169H17.9237V70.2764C17.9237 68.558 17.8846 67.0504 17.8371 66.9264C17.755 66.7125 17.0895 66.2881 16.8505 66.2971C16.7892 66.2995 16.6136 66.37 16.4603 66.4539Z" fill="#E86851"/>
</svg>
