<svg width="88" height="88" viewBox="0 0 88 88" fill="none" xmlns="http://www.w3.org/2000/svg">
<path fill-rule="evenodd" clip-rule="evenodd" d="M29.8796 16.1446C26.766 16.5692 23.3552 18.2668 20.776 20.6758C18.5009 22.8006 16.4948 26.6451 15.7585 30.2915C15.5098 31.5224 15.5126 35.7043 15.7631 37.4502C15.9995 39.0967 16.3028 39.6026 17.0536 39.6026C17.8412 39.6026 18.2101 39.1194 18.1125 38.2152C17.6285 33.7267 17.6218 32.4717 18.0708 30.2534C19.1942 24.7035 23.4516 20.1195 28.7125 18.7951C33.797 17.5153 38.8738 19.1345 42.6359 23.2359C43.8892 24.6023 44.0947 24.6023 45.348 23.2359C50.3922 17.7367 57.9433 16.7806 63.8142 20.8977C66.8391 23.0189 68.9607 26.2154 69.8567 30.001C70.1224 31.1237 70.1845 31.8326 70.1836 33.7342C70.1823 36.5553 69.8176 38.986 68.9918 41.6781L68.7631 42.4235L63.6159 42.3823L58.4688 42.3412L57.0878 38.2724C56.3283 36.0346 55.5803 34.0688 55.4257 33.9037C55.0769 33.5317 54.3088 33.5136 53.9701 33.8694C53.8074 34.0406 53.0504 36.9326 51.8434 41.9939C50.8128 46.3163 49.9295 49.7471 49.8804 49.618C49.8314 49.4889 48.7185 44.8411 47.4073 39.2896C45.2965 30.3523 44.9804 29.1557 44.6479 28.8439C44.1875 28.4123 43.8469 28.3992 43.37 28.7945C43.0596 29.0517 42.6286 30.4465 40.4946 38.1009C39.1139 43.0529 37.9373 47.0539 37.8799 46.9921C37.8226 46.9301 36.9948 44.5907 36.0407 41.7935C35.0864 38.9962 34.1836 36.5725 34.0344 36.4076C33.8807 36.2376 33.5633 36.1077 33.3013 36.1077C33.0418 36.1077 32.7177 36.239 32.5615 36.4076C32.4087 36.5725 31.8341 37.9047 31.2847 39.3679C30.7353 40.8311 30.2211 42.1163 30.1421 42.2238C30.03 42.3762 28.1033 42.4194 21.4011 42.4194H12.8036L12.6688 42.0456C12.4395 41.4099 11.5798 40.5037 10.9096 40.1913C8.17174 38.9148 5.29359 41.6085 6.15552 44.6405C6.39235 45.4735 7.32481 46.5512 8.08666 46.8725C8.88638 47.2097 10.054 47.2097 10.8537 46.8725C11.486 46.606 12.6625 45.3746 12.6625 44.9795C12.6625 44.8086 13.1546 44.7668 15.1643 44.7668H17.666L18.5719 46.6838C20.5035 50.7711 23.0309 54.3321 26.8237 58.3097C29.5149 61.1322 32.1184 63.423 35.1159 65.6059C39.2517 68.6177 43.5593 71.1662 44.2193 70.9915C44.7336 70.8555 47.5865 69.1989 49.7827 67.7611C57.3651 62.7968 63.9418 56.2553 67.7257 49.914C68.4243 48.7433 68.4718 48.4246 68.035 47.8395C67.7277 47.4277 67.0008 47.2772 66.6223 47.5468C66.5335 47.61 65.9711 48.4365 65.3724 49.3832C62.5254 53.8853 58.4341 58.3152 53.5689 62.1635C51.0482 64.1573 47.8104 66.3602 44.9958 67.9965L43.9952 68.5783L42.1004 67.4542C39.7164 66.0402 35.6528 63.19 33.5382 61.4491C28.8934 57.6248 25.4985 53.8869 22.7405 49.5601C21.7688 48.0357 20.235 45.1555 20.235 44.8552C20.235 44.8145 22.7304 44.7602 25.7805 44.7349C30.0667 44.699 31.3788 44.6422 31.5588 44.4846C31.7528 44.3147 32.2736 43.0862 33.031 41.011C33.1491 40.6872 33.1959 40.6617 33.3027 40.8625C33.3735 40.996 34.2415 43.4607 35.2316 46.3397C36.2215 49.2186 37.1574 51.7091 37.3112 51.8741C37.468 52.0422 37.7938 52.1739 38.0527 52.1739C38.3129 52.1739 38.6355 52.0429 38.7911 51.8741C38.9669 51.6833 39.9112 48.5272 41.3857 43.2019C42.6605 38.5972 43.752 34.7046 43.8108 34.5517C43.8781 34.3776 44.8509 38.2095 46.4206 44.8317C48.2838 52.6922 48.9956 55.4585 49.2064 55.6596C49.5821 56.0179 50.3246 56.0029 50.6739 55.6298C50.8724 55.4178 51.4814 53.1049 52.7515 47.7401C54.9102 38.6213 54.8341 38.9277 54.9177 39.0159C54.9547 39.0549 55.3789 40.233 55.8603 41.6339C56.3417 43.0347 56.844 44.2951 56.9764 44.4347C57.1923 44.6622 58.1531 44.6931 66.2692 44.7324C73.6799 44.7682 75.3213 44.8137 75.3213 44.9841C75.3213 45.3754 76.5015 46.6074 77.1301 46.8725C78.3777 47.3986 79.9471 47.119 80.8709 46.206C81.475 45.6093 82 44.3576 82 43.5149C82 42.6722 81.475 41.4204 80.8709 40.8237C79.926 39.8899 78.3012 39.6194 77.0743 40.1913C76.4041 40.5037 75.5444 41.4099 75.3151 42.0456C75.1821 42.4143 75.1525 42.4194 73.1721 42.4194C72.0675 42.4194 71.1639 42.3905 71.1639 42.3551C71.1639 42.3197 71.3288 41.6332 71.5303 40.8293C72.3446 37.5825 72.6631 34.0391 72.3678 31.5154C71.5378 24.4215 66.864 18.6267 60.399 16.6754C54.8574 15.0029 48.7773 16.5607 44.6328 20.7154L44.0115 21.3382L43.0737 20.4435C39.5443 17.0767 34.677 15.4908 29.8796 16.1446ZM10.4387 42.6942C11.275 43.8147 10.1388 45.2757 8.9281 44.6364C7.99386 44.1432 7.9851 42.8914 8.91236 42.4014C9.5146 42.0833 10.0609 42.188 10.4387 42.6942ZM79.5554 42.7834C80.4239 44.0903 78.601 45.5477 77.5857 44.3582C77.1711 43.8726 77.1577 43.2135 77.5515 42.6858C78.0416 42.029 79.088 42.08 79.5554 42.7834Z" fill="#E86851"/>
</svg>
