<svg width="88" height="88" viewBox="0 0 88 88" fill="none" xmlns="http://www.w3.org/2000/svg">
<path fill-rule="evenodd" clip-rule="evenodd" d="M61.8689 10.0954C60.9779 10.3209 59.7099 11.0765 59.0943 11.749C58.7782 12.0944 58.3189 12.8032 58.074 13.324L57.6283 14.2711L57.5885 24.0468L57.5486 33.8223L56.9997 34.5389C54.1505 38.2577 55.0616 43.548 58.9917 46.1058C62.0421 48.0911 66.1397 47.6508 68.7109 45.0617C70.2898 43.4718 71 41.7268 71 39.4366C71 37.441 70.553 36.0947 69.3735 34.5383L68.831 33.8223L68.7912 24.0391L68.7513 14.256L68.2254 13.1848C67.2739 11.2464 65.5837 10.109 63.5065 10.0095C62.9064 9.98074 62.1695 10.0194 61.8689 10.0954ZM32.7371 11.0505C32.3723 11.4236 32.0736 11.7856 32.0736 11.855C32.0736 11.9244 32.5171 12.4417 33.0592 13.0047C34.2353 14.226 34.2972 14.5362 33.5562 15.494C32.6548 16.659 32.4359 17.8094 32.8708 19.0948C33.0412 19.5978 33.404 20.0975 34.2016 20.9277L35.2983 22.0688L36.1082 21.2587L36.918 20.4484L35.9039 19.3952C34.6965 18.1416 34.6335 17.8388 35.3781 16.8761C36.7861 15.0562 36.6026 13.4044 34.779 11.4823C34.1998 10.8718 33.6527 10.3722 33.5633 10.3722C33.4739 10.3722 33.102 10.6774 32.7371 11.0505ZM38.369 11.0505C38.0041 11.4236 37.7055 11.7856 37.7055 11.855C37.7055 11.9244 38.149 12.4417 38.6911 13.0047C39.8672 14.226 39.9291 14.5362 39.1881 15.494C38.2867 16.659 38.0678 17.8094 38.5027 19.0948C38.6731 19.5978 39.0359 20.0975 39.8335 20.9277L40.9302 22.0688L41.7401 21.2587L42.5499 20.4484L41.5358 19.3952C40.3284 18.1416 40.2654 17.8388 41.01 16.8761C42.418 15.0562 42.2345 13.4044 40.4109 11.4823C39.8317 10.8718 39.2846 10.3722 39.1952 10.3722C39.1057 10.3722 38.7339 10.6774 38.369 11.0505ZM44.0008 11.0505C43.636 11.4236 43.3374 11.7856 43.3374 11.855C43.3374 11.9244 43.7809 12.4417 44.323 13.0047C45.4991 14.226 45.561 14.5362 44.82 15.494C43.9186 16.659 43.6997 17.8094 44.1346 19.0948C44.305 19.5978 44.6678 20.0975 45.4654 20.9277L46.5621 22.0688L47.372 21.2587L48.1818 20.4484L47.1677 19.3952C45.9603 18.1416 45.8972 17.8388 46.6419 16.8761C48.0499 15.0562 47.8664 13.4044 46.0428 11.4823C45.4636 10.8718 44.9164 10.3722 44.827 10.3722C44.7376 10.3722 44.3658 10.6774 44.0008 11.0505ZM64.2295 12.3877C65.0029 12.6178 66.1692 13.7923 66.3978 14.5711C66.5249 15.0046 66.569 17.674 66.569 24.9516V34.7484L67.2228 35.4898C67.5824 35.8975 68.0735 36.6493 68.314 37.1605C68.7078 37.9971 68.7513 38.2238 68.7513 39.4366C68.7513 40.6546 68.7087 40.874 68.3057 41.7305C67.072 44.3525 64.3164 45.6521 61.6916 44.8493C57.5416 43.58 56.2447 38.7915 59.1568 35.4898L59.8107 34.7484V24.9516C59.8107 17.674 59.8548 15.0046 59.9819 14.5711C60.1938 13.8489 61.3724 12.6199 62.0635 12.4006C62.7377 12.1867 63.5375 12.1818 64.2295 12.3877ZM62.0635 16.7522V19.0206H63.1898H64.3162V16.7522V14.4837H63.1898H62.0635V16.7522ZM62.0635 28.8032C62.0635 35.5272 62.0402 36.3174 61.8431 36.3174C61.4596 36.3174 60.168 37.7555 59.9819 38.3897C59.5919 39.719 59.8669 40.7788 60.8619 41.7807C62.2863 43.2151 64.0933 43.2151 65.5178 41.7807C66.9532 40.3353 66.9432 38.5322 65.4917 37.0618C65.0876 36.6525 64.6578 36.3174 64.5366 36.3174C64.3394 36.3174 64.3162 35.5272 64.3162 28.8032V21.289H63.1898H62.0635V28.8032ZM39.5976 23.6905C38.9269 23.8521 37.7187 24.5641 37.3341 25.0245C37.1426 25.2536 36.8153 25.7668 36.6066 26.1652L36.2271 26.8893V30.3119V33.7347L34.3826 33.789C32.5872 33.8417 32.5097 33.8573 31.4809 34.3693C30.2068 35.0033 29.4071 35.827 28.7881 37.1426L28.3425 38.0897L28.2963 41.5207L28.2503 44.9518L27.641 45.3112C26.5133 45.9769 25.4875 47.0877 23.7871 49.4852L22.0957 51.8701L21.1645 51.9578C20.5073 52.0196 19.9843 52.1789 19.3879 52.4991C18.4454 53.0048 18.0173 53.4534 17.4582 54.5207L17.0787 55.2447L17.0394 66.2702L17 77.2956L17.3497 77.6478C17.6978 77.9983 17.7127 78 20.3874 78C23.0536 78 23.0782 77.9972 23.4209 77.6519C23.7488 77.3219 23.7666 77.2182 23.7666 75.6305V73.9569L26.83 70.8744L29.8937 67.792H40.6646H51.4356L54.4969 70.8768L57.5579 73.9618V75.6329C57.5579 77.2181 57.5757 77.3219 57.9036 77.6519C58.2463 77.9972 58.2709 78 60.9371 78C63.6118 78 63.6267 77.9983 63.9748 77.6478L64.3245 77.2956L64.2851 66.2702L64.2458 55.2447L63.8664 54.5207C63.6577 54.1223 63.3254 53.6031 63.128 53.3667C62.7721 52.941 61.333 52.137 60.6555 51.9855C60.4056 51.9297 59.2616 50.6221 56.7132 47.4793L53.1228 43.0519L53.0496 40.5708C52.9785 38.1559 52.9647 38.0644 52.5337 37.1426C51.9196 35.8292 51.1193 35.0042 49.8437 34.3693C48.8147 33.8573 48.7374 33.8417 46.942 33.7891L45.0974 33.735L45.1461 31.593C45.1942 29.4794 45.2011 29.4381 45.6772 28.4865C46.2495 27.3421 46.3844 26.5484 46.1536 25.6851C45.9374 24.8766 45.0256 23.9326 44.2522 23.7164C43.6342 23.5436 40.2841 23.5249 39.5976 23.6905ZM43.8202 26.0487C44.1217 26.3523 44.1001 26.5694 43.687 27.3902L43.3326 28.0944H41.2421C39.3403 28.0944 39.118 28.1209 38.7805 28.3883L38.4095 28.682V28.1848C38.4095 27.2257 38.9248 26.394 39.7471 26.0261C40.3919 25.7375 43.5283 25.7549 43.8202 26.0487ZM42.8922 31.9124C42.8524 33.2093 42.7973 33.526 42.5543 33.8531C42.0049 34.5932 41.5513 34.8288 40.6762 34.8288C40.0002 34.8288 39.7778 34.761 39.334 34.4202C38.7274 33.9543 38.4095 33.3055 38.4095 32.5336C38.4095 32.0762 38.5226 31.8865 39.2147 31.1821L40.0198 30.3628H41.4799H42.9399L42.8922 31.9124ZM38.5103 36.5656C39.4037 37.0628 39.5431 37.0972 40.6623 37.0972C41.7815 37.0972 41.9208 37.0628 42.8142 36.5656L43.7695 36.0339H45.825C48.3619 36.0339 48.8199 36.1575 49.7485 37.0924C50.5786 37.9283 50.7997 38.5371 50.7997 39.9866V41.0002L49.9901 40.5891C47.9664 39.5615 45.4882 39.2019 43.3863 39.6308C41.1082 40.0955 39.5198 40.9755 37.8141 42.718L36.5852 43.9734H35.8077H35.0304V42.2721V40.5708H33.904H32.7776V42.2721V43.9734L32.1792 43.975C31.85 43.9758 31.3433 44.0161 31.0528 44.0644L30.5249 44.1523V41.5628C30.5249 39.944 30.5891 38.7545 30.6961 38.3897C30.908 37.6675 32.0866 36.4385 32.7776 36.2192C33.0486 36.1333 34.2344 36.0563 35.4128 36.0484L37.555 36.0339L38.5103 36.5656ZM63.9706 38.6504C64.669 39.3536 64.1741 40.5708 63.1898 40.5708C62.611 40.5708 62.0635 40.0194 62.0635 39.4366C62.0635 38.8537 62.611 38.3023 63.1898 38.3023C63.4641 38.3023 63.7527 38.4309 63.9706 38.6504ZM47.0143 41.9087C48.2845 42.1798 49.7752 42.9652 50.7248 43.8637C51.1594 44.275 52.8343 46.2383 54.447 48.2267L57.379 51.8421L49.3131 51.8787C44.8769 51.8988 37.5642 51.8988 33.0629 51.8787L24.8785 51.8421L25.8725 50.4243C27.1482 48.6046 28.052 47.6755 29.0862 47.1205C30.5094 46.3566 31.2308 46.2419 34.6106 46.2419C36.8292 46.2419 37.7128 46.1939 37.8776 46.0646C38.0019 45.9672 38.4416 45.4581 38.8548 44.9333C40.8804 42.3611 43.8964 41.2432 47.0143 41.9087ZM60.7118 54.379C60.9702 54.4878 61.3641 54.8176 61.5873 55.1119L61.9931 55.6471L62.0368 58.3169L62.0805 60.9867H40.6708H19.2611V58.5148C19.2611 55.9526 19.3393 55.4883 19.8689 54.9077C20.5518 54.1589 19.5688 54.1929 40.6316 54.1869C57.0904 54.1822 60.3176 54.2132 60.7118 54.379ZM62.0635 64.3894V65.5236H40.6623H19.2611V64.3894V63.2551H40.6623H62.0635V64.3894ZM21.5138 71.7618V75.7316H20.3874H19.2611V71.7618V67.792H20.3874H21.5138V71.7618ZM26.5825 67.8302C26.5825 67.8512 25.9489 68.5039 25.1746 69.2807L23.7666 70.6931V69.2425V67.792H25.1746C25.9489 67.792 26.5825 67.8092 26.5825 67.8302ZM57.5579 69.2098C57.5579 69.9896 57.5409 70.6276 57.5201 70.6276C57.4992 70.6276 56.851 69.9896 56.0796 69.2098L54.6769 67.792H56.1174H57.5579V69.2098ZM62.0635 71.7618V75.7316H60.9371H59.8107V71.7618V67.792H60.9371H62.0635V71.7618Z" fill="#E86851"/>
</svg>
