<svg width="88" height="88" viewBox="0 0 88 88" fill="none" xmlns="http://www.w3.org/2000/svg">
<path fill-rule="evenodd" clip-rule="evenodd" d="M43.5402 10.0774C43.0539 10.2819 42.9663 10.6484 42.9663 12.4772V14.2254L43.3551 14.6141C43.8468 15.1059 44.2139 15.1059 44.7057 14.6141L45.0945 14.2254V12.4342C45.0945 10.9238 45.058 10.5991 44.8617 10.3627C44.5919 10.0379 43.9593 9.90132 43.5402 10.0774ZM36.9143 19.405C33.8879 19.7764 31.3094 22.2843 30.7985 25.3537C30.7333 25.745 30.6478 25.907 30.5301 25.8618C29.3938 25.4257 27.3595 25.4442 26.0273 25.9029C21.481 27.4677 19.7016 33.0894 22.55 36.889L22.8535 37.2938L21.9698 37.7464C20.8411 38.3243 19.241 39.9048 18.6584 41.0172C17.5595 43.1153 17.5591 45.5466 18.6572 47.6446C19.2362 48.7506 20.6196 50.1026 21.7339 50.6511L22.6188 51.0868L22.2956 51.6381C21.3948 53.1751 21.114 55.4071 21.6083 57.1007C22.3422 59.615 24.2704 61.5157 26.739 62.1581C27.5926 62.3802 29.686 62.3776 30.4132 62.1535C30.6707 62.0741 30.714 62.1487 30.9068 63.0022C31.3301 64.8767 32.4649 66.4921 34.1115 67.5645C36.3349 69.0124 39.4878 68.9842 41.8128 67.4954C42.5255 67.0391 43.8974 65.6414 43.8974 65.3717C43.8974 65.2872 44.2707 65.6317 44.7271 66.1374C46.2478 67.8222 47.9285 68.6212 49.9493 68.6199C51.2663 68.6191 52.2911 68.3603 53.6914 67.6749C55.5469 66.7667 56.6922 65.2497 57.1642 63.0747L57.3789 62.0854L57.8539 62.1867C58.8049 62.3896 60.9438 62.303 61.7843 62.0275C64.6326 61.0943 66.6676 58.3035 66.6825 55.3097C66.6889 54.0535 66.4655 53.0919 65.9042 51.9597L65.4656 51.075L66.3386 50.6453C66.8835 50.377 67.5474 49.8846 68.1048 49.3353C70.3558 47.1167 70.8661 43.8237 69.3953 41.0064C68.8208 39.9058 67.2158 38.3224 66.0909 37.7464L65.2072 37.2938L65.5107 36.889C66.3331 35.792 66.9025 34.0751 66.9061 32.6813C66.9087 31.7218 66.4728 30.0246 66.024 29.2465C64.7902 27.1077 62.7022 25.7571 60.318 25.5556C59.4665 25.4835 58.1361 25.6294 57.5326 25.861C57.4135 25.9067 57.2957 25.6294 57.1433 24.9445C56.7165 23.0258 55.2282 21.2075 53.314 20.2655C50.3722 18.8178 47.38 19.2277 45.2151 21.3752C44.7289 21.8575 44.2635 22.3717 44.1808 22.518L44.0304 22.784L43.8797 22.518C43.7968 22.3717 43.3584 21.8851 42.9054 21.4369C41.3872 19.9343 39.0529 19.1426 36.9143 19.405ZM19.9787 19.9661C19.7995 20.1569 19.6895 20.445 19.6895 20.7237C19.6895 21.1153 19.8577 21.3417 20.9937 22.4774C22.1072 23.591 22.3607 23.7816 22.7288 23.7816C23.3063 23.7816 23.8128 23.2751 23.8128 22.6976C23.8128 22.3295 23.6222 22.076 22.5086 20.9625C21.3524 19.8061 21.1514 19.6583 20.7361 19.6583C20.4187 19.6583 20.1748 19.7574 19.9787 19.9661ZM65.5521 20.9625C64.4385 22.076 64.2479 22.3295 64.2479 22.6976C64.2479 23.2751 64.7544 23.7816 65.332 23.7816C65.7 23.7816 65.9535 23.591 67.0671 22.4774C68.2235 21.3212 68.3712 21.1202 68.3712 20.7049C68.3712 20.0975 67.9242 19.6583 67.3058 19.6583C66.9142 19.6583 66.6879 19.8265 65.5521 20.9625ZM39.508 21.8059C40.6903 22.1857 41.6863 22.9128 42.2522 23.8093C42.8891 24.8183 42.9663 25.4969 42.9663 30.0945V34.3565L39.8205 38.812C34.6788 46.0941 34.917 45.6718 35.5782 46.3328C35.9034 46.6582 35.9146 46.6594 38.6153 46.6594C40.106 46.6594 41.3521 46.6857 41.3843 46.7179C41.4165 46.7499 41.2059 49.1218 40.9163 51.9886C40.4439 56.6668 40.41 57.2362 40.5849 57.548C41.0186 58.3206 41.9299 58.2571 42.5142 57.4135L42.8998 56.8569L42.936 59.4915C42.9777 62.5384 42.8401 63.3419 42.0884 64.4399C41.5408 65.24 40.5354 65.9682 39.5398 66.2861C38.4858 66.6225 36.6245 66.5102 35.6247 66.0499C34.6605 65.606 33.7328 64.68 33.2814 63.7108C32.9666 63.0348 32.9265 62.7821 32.9098 61.3652C32.8925 59.8934 32.8693 59.7597 32.5936 59.5364C32.1685 59.1921 31.7477 59.2358 30.7485 59.7276C29.9345 60.1284 29.7729 60.1599 28.5347 60.1599C27.2965 60.1599 27.1349 60.1284 26.3209 59.7276C23.8264 58.4995 22.7636 55.3702 24.0089 52.9192C24.1785 52.5854 24.6526 51.9721 25.0626 51.5561C25.646 50.9644 25.808 50.7102 25.808 50.3863C25.808 49.8589 25.2911 49.3201 24.7831 49.318C24.2802 49.3158 23.1833 49.0147 22.6234 48.7252C21.811 48.3048 20.8114 47.2378 20.4043 46.3564C20.0728 45.6389 20.022 45.3694 20.022 44.3317C20.022 43.2614 20.067 43.0396 20.4467 42.238C21.2518 40.5385 23.0545 39.2281 24.8697 39.0227C25.829 38.9142 26.207 38.5987 26.207 37.9068C26.207 37.5572 26.1087 37.3694 25.785 37.1006C23.8841 35.522 23.36 34.5695 23.36 32.6933C23.36 31.8305 23.4316 31.3817 23.6624 30.7983C24.0835 29.7335 25.0784 28.6838 26.1813 28.1409C26.9948 27.7405 27.1689 27.7054 28.3446 27.7054C29.5587 27.7054 29.6728 27.7305 30.6086 28.2047C31.1505 28.4794 31.7584 28.7039 31.9597 28.7035C32.2914 28.703 32.8434 28.3185 32.8671 28.0712C32.8723 28.0164 32.8873 27.343 32.9003 26.5748C32.9211 25.3469 32.9683 25.0879 33.2913 24.4306C34.4939 21.9814 36.8968 20.967 39.508 21.8059ZM51.2397 21.6701C52.939 22.0309 54.3838 23.1989 54.929 24.653C55.1672 25.2879 55.2204 25.6807 55.1983 26.6413C55.1631 28.1708 55.156 28.1237 55.4692 28.437C55.8564 28.8242 56.3423 28.7672 57.4522 28.2047C58.3879 27.7305 58.502 27.7054 59.7161 27.7054C60.8918 27.7054 61.0659 27.7405 61.8794 28.1409C62.9823 28.6838 63.9773 29.7335 64.3984 30.7983C64.6291 31.3817 64.7007 31.8305 64.7007 32.6933C64.7007 34.5695 64.1766 35.522 62.2758 37.1006C61.9442 37.3759 61.8537 37.5541 61.8537 37.9319C61.8537 38.6269 62.1803 38.8821 63.2782 39.0451C65.168 39.3256 66.8041 40.528 67.6094 42.2281C67.9942 43.0407 68.0387 43.2587 68.0387 44.3317C68.0387 45.3694 67.9879 45.6389 67.6564 46.3564C67.2263 47.2876 66.2323 48.318 65.3106 48.7882C64.9913 48.9511 64.2892 49.161 63.7501 49.2545C62.6053 49.4534 62.2528 49.7092 62.2528 50.3411C62.2528 50.7057 62.4039 50.9517 63.0623 51.6595C63.5075 52.1381 63.9917 52.8008 64.1383 53.1322C64.7177 54.4421 64.6934 56.101 64.0753 57.426C63.6844 58.264 62.5426 59.3697 61.6234 59.8004C60.9497 60.1161 60.6938 60.1599 59.5233 60.1599C58.2883 60.1599 58.1259 60.1281 57.3122 59.7276C56.3128 59.2356 55.8922 59.1921 55.4669 59.5366C55.1923 59.7589 55.1672 59.8976 55.1475 61.299C55.1279 62.6803 55.0906 62.8931 54.7416 63.6152C52.8656 67.4958 47.4286 67.4739 45.5831 63.5784L45.161 62.6871L45.1197 58.2906L45.0785 53.8941L48.9438 48.5852C53.0846 42.898 53.1198 42.8347 52.4825 42.1975C52.1588 41.8737 52.1353 41.871 49.6197 41.871H47.0834L47.1597 40.8402C47.2017 40.2731 47.3516 37.7843 47.493 35.3091C47.7227 31.2867 47.7287 30.7678 47.5504 30.4229C47.146 29.641 46.2221 29.7463 45.5878 30.6467L45.161 31.2524L45.1249 28.562C45.0842 25.531 45.2148 24.7046 45.9045 23.63C46.9372 22.0205 49.1177 21.2196 51.2397 21.6701ZM45.1697 38.519C44.9028 43.1047 44.904 43.2336 45.2154 43.6186C45.4577 43.9184 45.5633 43.9357 47.5384 43.9992L49.6075 44.0657L46.3344 48.5578C44.5341 51.0285 43.0376 53.0266 43.009 52.9978C42.9803 52.9692 43.1085 51.4565 43.2939 49.6363C43.7127 45.524 43.7169 45.182 43.3517 44.8511C43.1062 44.6284 42.7904 44.5896 40.7537 44.5312L38.435 44.4647L41.8646 39.5992C43.7508 36.9232 45.3129 34.7804 45.336 34.8374C45.3591 34.8943 45.2844 36.5511 45.1697 38.519ZM10.2905 43.2773C10.0053 43.5626 9.96112 43.7012 10.0264 44.1086C10.1628 44.9604 10.4255 45.0632 12.4654 45.0632H14.2566L14.6453 44.6745C15.1371 44.1827 15.1371 43.8156 14.6453 43.3239L14.2566 42.9351H12.4446C10.6755 42.9351 10.6246 42.9432 10.2905 43.2773ZM73.4154 43.3239C73.2015 43.5378 73.0266 43.8415 73.0266 43.9992C73.0266 44.1568 73.2015 44.4606 73.4154 44.6745L73.8042 45.0632H75.5953C77.7354 45.0632 78.0085 44.9429 78.0085 43.9992C78.0085 43.0555 77.7354 42.9351 75.5953 42.9351H73.8042L73.4154 43.3239ZM20.9937 65.5209C19.8373 66.6771 19.6895 66.8781 19.6895 67.2934C19.6895 67.9008 20.1365 68.34 20.7549 68.34C21.1465 68.34 21.3729 68.1718 22.5086 67.0359C23.6222 65.9223 23.8128 65.6688 23.8128 65.3008C23.8128 64.7232 23.3063 64.2167 22.7288 64.2167C22.3607 64.2167 22.1072 64.4073 20.9937 65.5209ZM64.5745 64.5433C64.362 64.7555 64.2479 65.0204 64.2479 65.3008C64.2479 65.6688 64.4385 65.9223 65.5521 67.0359C66.7084 68.1923 66.9093 68.34 67.3246 68.34C67.932 68.34 68.3712 67.893 68.3712 67.2746C68.3712 66.883 68.203 66.6567 67.0671 65.5209C65.9535 64.4073 65.7 64.2167 65.332 64.2167C65.0516 64.2167 64.7868 64.3308 64.5745 64.5433ZM43.3551 73.3842L42.9663 73.773V75.5493C42.9663 77.5188 43.0672 77.8302 43.7548 77.9812C44.196 78.0781 44.8811 77.786 45.0119 77.4453C45.0572 77.3269 45.0945 76.4522 45.0945 75.5014V73.773L44.7057 73.3842C44.4918 73.1703 44.188 72.9954 44.0304 72.9954C43.8727 72.9954 43.569 73.1703 43.3551 73.3842Z" fill="#E86851"/>
</svg>
