<svg width="88" height="88" viewBox="0 0 88 88" fill="none" xmlns="http://www.w3.org/2000/svg">
<path fill-rule="evenodd" clip-rule="evenodd" d="M57.9372 10.0862C56.8639 10.2011 55.1189 10.6075 53.9738 11.0095C47.9153 13.1362 43.5188 18.1735 42.1404 24.5675C41.7778 26.2498 41.7778 29.9627 42.1404 31.645C42.6047 33.7988 43.4793 35.9754 44.5616 37.6704L45.0197 38.3878L44.5138 40.6823L44.0077 42.977L38.9055 37.8924C36.0991 35.0958 33.5926 32.7019 33.3354 32.5727C32.0379 31.9204 30.5694 32.1717 29.3925 33.2472L28.6167 33.9562L26.9987 32.3427L25.3805 30.7291L27.2067 28.8869C28.211 27.8737 29.1273 26.8535 29.2426 26.62C30.0414 25.0026 29.3243 22.9396 27.6879 22.1473C26.7814 21.7085 25.5458 21.7106 24.6731 22.1525C24.2373 22.3732 22.0109 24.4925 17.6216 28.8648C14.0936 32.379 10.9859 35.5531 10.7156 35.918C9.66244 37.3395 9.78106 39.125 11.01 40.3539C12.0371 41.3811 13.5719 41.6512 14.8355 41.0271C15.069 40.9118 16.0892 39.9955 17.1024 38.9912L18.9447 37.165L20.5665 38.7915L22.1884 40.418L21.5264 41.0918C20.7227 41.91 20.4262 42.5778 20.4281 43.5659C20.4309 45.0879 20.1825 44.809 32.2667 56.8618C38.4057 62.9849 43.6513 68.1108 43.9238 68.2528C44.2656 68.431 44.7265 68.511 45.4101 68.511C46.5429 68.511 47.0141 68.3118 47.9741 67.4269L48.5949 66.8546L49.2158 67.4269C50.0089 68.158 50.5676 68.4433 51.3982 68.5413C52.2009 68.6361 53.0549 68.4246 53.7047 67.9701L54.1861 67.6335L59.3876 72.8168L64.5891 78L65.4023 77.1868L66.2155 76.3736L61.0323 71.1721L55.849 65.9706L56.1856 65.4892C56.6401 64.8393 56.8516 63.9854 56.7568 63.1826C56.6588 62.352 56.3735 61.7933 55.6424 61.0002L55.0701 60.3794L55.6424 59.7586C56.5246 58.8014 56.7259 58.3268 56.7303 57.1946C56.7334 56.3678 56.671 56.0983 56.3538 55.5667C56.1447 55.2164 53.5225 52.4831 50.5268 49.4927L45.08 44.0556L45.9528 43.7406C46.4328 43.5675 47.319 43.2438 47.922 43.0214C48.9119 42.6563 49.0494 42.637 49.3375 42.8221C51.6916 44.3353 53.1655 45.0229 55.2527 45.5815C64.1132 47.9527 73.4093 43.2511 76.7479 34.7101C78.5059 30.2129 78.4059 25.2242 76.4692 20.8081C74.8237 17.0562 71.6296 13.7243 67.8698 11.8377C65.0841 10.4398 61.1376 9.74394 57.9372 10.0862ZM62.4128 12.469C72.0993 14.1358 77.9905 23.786 74.9724 33.0429C72.9397 39.2773 67.2127 43.5938 60.5558 43.9088C57.0378 44.0752 53.4048 42.9914 50.6341 40.9486C50.1596 40.5988 49.6427 40.2717 49.4854 40.2217C49.3151 40.1678 48.7252 40.3058 48.028 40.5628C47.3837 40.8004 46.8383 40.9764 46.8159 40.9541C46.7937 40.9317 46.8959 40.4044 47.0433 39.7825C47.4339 38.1341 47.4065 37.8421 46.774 36.9099C41.4695 29.0923 44.288 18.2684 52.7342 14.0208C55.8836 12.437 59.1672 11.9106 62.4128 12.469ZM58.4326 14.6615C55.3778 15.2704 52.8279 17.7447 52.1998 20.7093C51.8906 22.1678 51.9266 22.8163 52.3396 23.2292C52.6841 23.5738 52.7089 23.5767 55.3893 23.5767C58.0696 23.5767 58.0944 23.5738 58.439 23.2292C58.6581 23.0102 58.7865 22.72 58.7865 22.4443C58.7865 21.8624 59.3369 21.3119 59.9188 21.3119C60.7463 21.3119 61.3082 22.2659 60.9141 23.0021C60.8388 23.1431 60.4549 23.465 60.0614 23.7177C58.0092 25.0345 56.5273 27.7633 56.5252 30.2295C56.5238 31.7678 57.5139 33.1229 58.9516 33.5498C59.8626 33.8203 59.975 33.8203 60.8861 33.5498C62.2179 33.1543 63.1047 32.0638 63.277 30.6097C63.3707 29.8177 63.5489 29.5878 64.7778 28.6724C65.1436 28.4 65.7379 27.7948 66.0986 27.3277C68.6153 24.068 68.371 19.7074 65.5117 16.8531C63.6543 14.9988 60.9459 14.1604 58.4326 14.6615ZM62.1129 17.2157C63.2976 17.6611 64.7026 19.0645 65.1414 20.2409C66.1885 23.048 65.2776 25.608 62.5443 27.54C61.7087 28.1307 61.2207 28.995 61.0619 30.1652C60.9813 30.7586 60.8618 31.0582 60.6313 31.2449C60.18 31.6104 59.551 31.5731 59.134 31.1559C58.693 30.7151 58.6735 29.9175 59.0718 28.6278C59.4333 27.4571 60.2007 26.4343 61.3877 25.5404C61.9005 25.1544 62.4717 24.6342 62.657 24.3845C64.5795 21.7939 62.0142 18.2914 58.8736 19.2192C58.2405 19.4064 56.8048 20.7048 56.8048 21.0904C56.8048 21.274 56.599 21.3119 55.6016 21.3119C54.6791 21.3119 54.3984 21.2667 54.3984 21.1185C54.3984 20.6652 55.4349 18.8996 56.0149 18.365C56.6965 17.7366 57.7788 17.1368 58.609 16.927C59.4441 16.7159 61.1591 16.8572 62.1129 17.2157ZM26.8322 24.2822C27.2973 24.6481 27.4232 25.1746 27.163 25.6658C26.8042 26.3432 14.0289 38.9775 13.5959 39.0831C12.8752 39.2589 12.0788 38.4352 12.265 37.7067C12.3111 37.5258 15.3623 34.3681 19.0453 30.6895C26.2112 23.5324 26.0489 23.666 26.8322 24.2822ZM25.4163 37.1992L23.8254 38.7901L22.1967 37.1661L20.5681 35.5421L22.1591 33.9466L23.75 32.3512L25.3786 33.9797L27.0071 35.6083L25.4163 37.1992ZM43.3943 45.6251C53.1515 55.3853 54.54 56.8264 54.54 57.1941C54.54 57.5562 53.9402 58.2139 50.1848 61.9693C46.4294 65.7247 45.7717 66.3245 45.4096 66.3245C45.0419 66.3245 43.6008 64.936 33.8406 55.1788C23.3279 44.6692 22.6915 44.0047 22.6915 43.5389C22.6915 43.0797 22.9944 42.742 26.9759 38.7604C30.9575 34.7789 31.2952 34.4759 31.7544 34.4759C32.2203 34.4759 32.8847 35.1124 43.3943 45.6251ZM58.7865 35.0856C58.0917 35.3046 56.9068 36.5315 56.6938 37.2526C56.3017 38.5797 56.5781 39.6378 57.5785 40.6381C59.0105 42.0702 60.8272 42.0702 62.2592 40.6381C63.6424 39.2549 63.6838 37.4953 62.3675 36.0313C61.4514 35.0124 60.1279 34.6628 58.7865 35.0856ZM60.7037 37.5129C61.406 38.215 60.9084 39.4302 59.9188 39.4302C59.3369 39.4302 58.7865 38.8797 58.7865 38.2978C58.7865 37.7159 59.3369 37.1654 59.9188 37.1654C60.1946 37.1654 60.4848 37.2938 60.7037 37.5129ZM54.0281 62.6446C54.8027 63.5021 54.7189 63.9006 53.4975 65.1676C52.2207 66.4921 51.7137 66.605 50.8188 65.7646L50.2227 65.205L51.7774 63.6414C52.6325 62.7815 53.3735 62.078 53.4242 62.078C53.4747 62.078 53.7466 62.3329 54.0281 62.6446Z" fill="#E86851"/>
</svg>
