<svg width="88" height="88" viewBox="0 0 88 88" fill="none" xmlns="http://www.w3.org/2000/svg">
<path fill-rule="evenodd" clip-rule="evenodd" d="M43.8919 10.1544C43.7379 10.2432 43.0359 11.093 42.3322 12.0429C37.7461 18.2326 33.4171 21.617 29.1607 22.3405C27.3397 22.6499 24.3163 22.3272 21.7246 21.5466C20.9878 21.3247 20.266 21.1431 20.1206 21.1431C19.9753 21.1431 19.6637 21.3175 19.4282 21.5309L19 21.9185V32.4578C19 40.4502 19.0427 43.3661 19.1766 44.5247C20.0887 52.4138 22.9874 59.4293 27.9319 65.7142C29.404 67.5854 32.8758 71.1047 34.7326 72.608C36.4394 73.9898 39.5289 76.111 41.0936 76.9753C43.4934 78.3008 45.3759 78.3372 47.7 77.1029C49.0815 76.3691 52.627 73.9405 54.2448 72.6196C57.204 70.2037 60.3065 66.8903 62.4523 63.8543C65.904 58.9705 68.1412 53.7662 69.2766 47.9788C69.9735 44.4268 70 43.8574 70 32.4578V21.9185L69.5718 21.5309C69.3363 21.3175 69.0247 21.1431 68.8794 21.1431C68.734 21.1431 68.0122 21.3247 67.2754 21.5466C64.5652 22.3628 61.5166 22.6642 59.6382 22.3018C55.4179 21.4873 51.1393 18.1027 46.6695 12.0429C45.9689 11.093 45.2679 10.2432 45.1117 10.1544C44.7492 9.94852 44.2498 9.94852 43.8919 10.1544ZM45.6837 15.1317C47.0782 16.9287 50.3824 20.304 51.8241 21.4042C56.4369 24.9241 60.5241 25.83 66.1918 24.5886C66.8373 24.4472 67.3879 24.3315 67.415 24.3315C67.5439 24.3315 67.3315 43.4914 67.1904 44.5911C65.8638 54.9344 60.7862 63.8795 52.3373 70.7578C50.9669 71.8734 47.9047 73.9562 46.5321 74.7063C45.5618 75.2365 45.4096 75.2794 44.5 75.2794C43.5855 75.2794 43.4433 75.2386 42.4679 74.6972C39.3333 72.9573 35.734 70.1854 32.9614 67.376C26.7764 61.1092 23.1353 53.7767 21.87 45.04C21.6865 43.7721 21.6418 41.9805 21.5927 33.9299C21.5606 28.6507 21.5569 24.3315 21.5843 24.3315C21.6119 24.3315 22.1627 24.4472 22.8082 24.5886C28.4905 25.8332 32.4315 24.9608 37.1357 21.4168C38.5968 20.316 41.8889 16.9676 43.3151 15.1317C43.9251 14.3461 44.4584 13.7035 44.5 13.7035C44.5416 13.7035 45.0744 14.3461 45.6837 15.1317ZM39.9622 31.5001C39.81 31.564 39.5592 31.7787 39.405 31.9773C39.1369 32.3227 39.1247 32.4727 39.1247 35.4424V38.5464H36.0458H32.9669L32.5387 38.9341L32.1105 39.3217V43.9933V48.6648L32.5387 49.0524L32.9669 49.4401H36.0458H39.1247V52.5599V55.6798L39.5072 56.1137L39.8898 56.5476H44.5H49.1102L49.4928 56.1137L49.8753 55.6798V52.5599V49.4401H52.9542H56.0331L56.4613 49.0524L56.8895 48.6648V43.9933V39.3217L56.4613 38.9341L56.0331 38.5464H52.9542H49.8753V35.4266V32.3067L49.4929 31.8729L49.1104 31.439L44.6748 31.4116C42.2352 31.3965 40.1145 31.4363 39.9622 31.5001ZM47.2532 37.0917C47.2532 40.4199 47.3114 40.7403 47.9706 41.0447C48.2053 41.1531 49.2697 41.2034 51.3236 41.2034H54.3329V43.9933V46.7831H51.3109C48.0265 46.7831 47.7102 46.8421 47.4099 47.5101C47.3029 47.7479 47.2532 48.8265 47.2532 50.9077V53.957H44.5H41.7468V50.9077C41.7468 48.8265 41.6971 47.7479 41.5901 47.5101C41.2898 46.8421 40.9735 46.7831 37.6891 46.7831H34.6671V43.9933V41.2034H37.6764C39.7303 41.2034 40.7947 41.1531 41.0294 41.0447C41.6886 40.7403 41.7468 40.4199 41.7468 37.0917V34.0295H44.5H47.2532V37.0917ZM60.5965 50.0391C59.8472 50.4649 59.7287 51.474 60.3537 52.1073C61.2789 53.0448 62.8679 52.0829 62.4604 50.832C62.3834 50.5956 62.2119 50.3027 62.0794 50.1811C61.7355 49.8658 61.0218 49.7975 60.5965 50.0391ZM58.4366 55.5775C58.264 55.662 57.8448 56.3106 57.3908 57.1959C55.3351 61.2039 52.5535 64.507 48.9576 67.2101C47.1009 68.6058 46.991 68.7278 46.991 69.3925C46.991 70.101 47.5511 70.6961 48.2181 70.6961C49.3624 70.6961 54.1108 66.5957 56.4588 63.5801C58.3155 61.1954 60.3638 57.577 60.3638 56.6816C60.3638 55.726 59.336 55.1371 58.4366 55.5775Z" fill="#E86851"/>
</svg>
