<svg width="80" height="80" viewBox="0 0 80 80" fill="none" xmlns="http://www.w3.org/2000/svg">
<rect width="80" height="80" rx="8" fill="#FAE1DC"/>
<path fill-rule="evenodd" clip-rule="evenodd" d="M35.1256 16.4377C31.0035 17.3767 26.0684 19.9519 26.0684 21.1636C26.0684 22.0331 27.0437 21.8294 29.0792 20.5353C32.1488 18.5841 35.821 17.6366 40.3123 17.6366C45.3379 17.6366 48.7151 18.65 52.8056 21.386C62.5403 27.8969 65.5947 41.2861 59.6009 51.1749L58.3346 53.2651L57.645 52.4206C57.0437 51.6842 56.9243 51.6573 56.7081 52.211C56.5723 52.5603 56.5153 53.7017 56.5816 54.7476C56.6991 56.5962 56.7397 56.6528 58.0247 56.7757C60.7771 57.0383 62.3951 55.7661 60.253 55.0231L59.3157 54.698L60.7826 52.2809C63.2025 48.2926 64.1176 44.8838 64.1145 39.8688C64.1118 34.796 63.2497 31.5238 60.8899 27.6237C56.6324 20.5888 49.4819 16.3546 41.3059 16.0276C38.9469 15.9332 36.68 16.0838 35.1256 16.4377ZM19.9221 23.1425C19.1174 23.4824 19.3703 24.3667 20.3717 24.7144L21.309 25.0395L19.8558 27.4348C15.6013 34.4455 15.2462 42.924 18.8887 50.5259C20.9016 54.7265 25.4546 59.2795 29.6552 61.2924C35.3559 64.0237 41.7563 64.5404 47.5319 62.7355C50.6136 61.7724 54.3026 59.6288 54.4821 58.6973C54.678 57.6807 53.6649 57.8547 51.5455 59.2022C48.4759 61.1534 44.8037 62.101 40.3123 62.101C35.2868 62.101 31.9096 61.0875 27.8191 58.3515C18.0844 51.8407 15.03 38.4514 21.0238 28.5626L22.2901 26.4725L22.9797 27.317C23.581 28.0534 23.7004 28.0803 23.9166 27.5265C24.0524 27.1773 24.1094 26.0358 24.0431 24.9899L23.9221 23.0883L22.166 23.0126C21.2001 22.9708 20.1906 23.0294 19.9221 23.1425ZM27.7278 27.2264C24.6273 28.7613 22.8684 31.7131 22.8684 35.381C22.8684 39.0816 23.5077 39.9948 32.2277 48.7507L40.2967 56.8534L48.216 48.9462C56.9239 40.2524 57.7563 39.075 57.7563 35.4532C57.7563 30.1751 54.127 26.4054 49.0464 26.4054C46.4458 26.4054 43.4413 27.7743 41.7075 29.7486C41.0605 30.4854 40.4329 31.0883 40.3123 31.0883C40.1918 31.0883 39.5642 30.4854 38.9172 29.7486C36.173 26.6235 31.2076 25.5043 27.7278 27.2264ZM34.4755 28.5334C35.222 28.8455 36.7697 29.987 37.9151 31.0699C39.0604 32.1533 40.1637 33.0395 40.3662 33.0395C40.5691 33.0395 41.5182 32.2348 42.4751 31.251C45.014 28.6415 46.7693 27.8457 49.544 28.0463C51.3293 28.1755 52.1254 28.46 53.2821 29.3817C55.1705 30.8869 56.2074 32.9985 56.2074 35.3384C56.2074 36.3866 55.8909 37.8032 55.4792 38.5962C55.0788 39.3681 51.7223 43.0805 48.0197 46.8455L41.288 53.6912V48.2013V42.7109L42.2386 42.9497C43.9986 43.3915 47.2165 42.4085 48.6269 40.9981C50.4357 39.1894 50.2238 38.1458 47.9221 37.5296C46.9563 37.2713 45.6392 36.7706 44.9953 36.4178C43.5451 35.6229 43.0979 35.6167 41.5127 36.3687C40.3838 36.9045 40.1352 36.9049 39.112 36.371C37.663 35.6155 37.0788 35.6233 35.6294 36.4178C34.9855 36.7706 33.6684 37.2713 32.7026 37.5296C30.4009 38.1458 30.189 39.1894 31.9978 40.9981C33.4082 42.4085 36.6261 43.3915 38.3861 42.9497L39.3367 42.7109V48.1825V53.6537L32.605 46.8311C24.2745 38.3878 23.6548 37.3341 24.6835 33.3677C25.8015 29.0575 30.3525 26.8108 34.4755 28.5334ZM30.2476 29.7708C29.5678 30.4506 30.0064 31.1359 31.0441 31.0165C31.6829 30.9431 32.1172 30.6563 32.1172 30.3078C32.1172 29.6943 30.7241 29.2943 30.2476 29.7708ZM27.0308 31.8832C25.9237 33.107 25.8054 36.787 26.8216 38.4054C27.6778 39.7693 28.808 40.1056 28.7877 38.9907C28.781 38.6153 28.5176 37.9667 28.2023 37.5503C27.8874 37.1335 27.6294 36.1575 27.6294 35.381C27.6294 34.6044 27.8874 33.6284 28.2023 33.2116C29.5065 31.4875 28.4614 30.3023 27.0308 31.8832ZM38.4692 37.9398C39.624 38.7484 39.5923 40.2688 38.4044 41.0469C37.6341 41.5519 37.1763 41.5827 35.7703 41.2253C33.9658 40.7667 32.2437 39.6893 32.8977 39.4286C33.1123 39.3427 34.166 38.8498 35.2392 38.3332C37.6314 37.1815 37.423 37.2069 38.4692 37.9398ZM45.4359 38.3655C46.696 38.9341 47.8019 39.4629 47.8936 39.5406C48.2429 39.8364 46.4856 40.8108 44.8544 41.2253C42.7857 41.7513 41.288 41.0231 41.288 39.4918C41.288 38.7773 42.4895 37.3322 43.0839 37.3322C43.1174 37.3322 44.1758 37.7974 45.4359 38.3655Z" fill="#E86851"/>
</svg>
