<svg width="80" height="80" viewBox="0 0 80 80" fill="none" xmlns="http://www.w3.org/2000/svg">
<rect width="80" height="80" rx="8" fill="#FAE1DC"/>
<path fill-rule="evenodd" clip-rule="evenodd" d="M47.3076 16.825C45.8153 17.7803 44.2664 20.2658 43.8941 22.3021C43.509 24.4098 44.5697 27.6453 46.1302 29.1231C48.2996 31.177 48.8709 31.3222 50.3839 30.2061C54.5127 27.1598 54.9166 21.3288 51.253 17.6648C50.3336 16.7454 49.3572 15.9965 49.0832 16C48.8093 16.0035 48.01 16.3746 47.3076 16.825ZM51.3673 20.9565C52.1232 22.7302 52.0315 24.7465 51.114 26.5456C50.0803 28.5713 49.5609 28.5011 49.5609 26.3348C49.5609 24.839 49.4454 24.5787 48.7804 24.5787C48.1111 24.5787 47.9979 24.8429 47.9874 26.4324L47.9753 28.2861L47.0294 27.2113C45.1152 25.0365 45.4075 21.2578 47.6643 19.0006L48.8194 17.8455L49.8258 18.7731C50.3792 19.2831 51.0731 20.2658 51.3673 20.9565ZM35.6733 29.2308C33.8325 29.6839 33.6541 29.8958 33.3685 31.9731C32.5693 37.7834 37.1468 42.9202 43.1238 42.9202C46.5958 42.9202 47.0278 42.4788 47.0091 38.951C46.9915 35.7026 46.2122 33.8084 44.0342 31.7206C41.8945 29.6695 38.2731 28.5912 35.6733 29.2308ZM58.1931 29.2937C55.4044 29.84 52.8151 31.8365 51.4024 34.53C50.7921 35.6937 50.5806 36.8211 50.5708 38.9596C50.5552 42.4878 50.9771 42.9218 54.4159 42.9163C58.357 42.9101 61.6249 40.9175 63.4352 37.4166C64.6996 34.9717 64.6192 30.3883 63.3002 29.7081C62.163 29.1216 59.978 28.9444 58.1931 29.2937ZM40.8928 31.7553C43.3814 33.0424 45.2682 35.8923 45.2682 38.3641V39.5665L43.7884 38.1214C42.1837 36.5546 41.4727 36.3341 41.1062 37.2894C40.9556 37.6812 41.4102 38.4546 42.3683 39.4357L43.8657 40.969H42.405C40.7375 40.969 38.4491 39.913 37.1894 38.5627C35.235 36.4675 34.4077 32.0812 35.8048 31.2219C36.6403 30.7083 39.434 31.001 40.8928 31.7553ZM61.5609 31.0685C62.3125 31.2699 62.4389 31.5665 62.4389 33.127C62.4389 37.056 59.4153 40.5444 55.7224 40.8753L53.6584 41.0603L55.1218 39.5348C56.5872 38.007 57.0317 36.6763 56.0764 36.6763C55.7966 36.6763 54.972 37.2909 54.2438 38.0422C52.6477 39.689 52.2898 39.7428 52.3012 38.3348C52.3351 34.0632 57.5285 29.9879 61.5609 31.0685ZM29.6268 46.1397C27.1121 47.4201 16.3901 55.4755 16.3901 56.0847C16.3901 57.5192 17.8832 56.7938 23.5031 52.6275C31.8071 46.4718 33.8048 45.9032 38.9739 48.2232C40.6504 48.976 41.724 49.1641 44.3398 49.1641C47.0895 49.1641 47.7337 49.2882 48.3901 49.9446C49.3185 50.873 49.3443 51.1188 48.6173 52.114C48.1365 52.7719 47.4321 52.8972 43.2514 53.0666C39.3205 53.2258 38.4389 53.369 38.4389 53.847C38.4389 54.3333 39.3365 54.4507 43.7431 54.5405L49.0473 54.6486L54.5458 52.2966C60.3371 49.8193 61.2733 49.5957 62.0307 50.5085C62.9174 51.577 62.3453 52.8242 60.595 53.6375C57.6623 54.9998 58.0124 56.8687 60.9626 55.5996C63.5601 54.4824 64.195 53.7077 64.195 51.6562C64.195 50.1908 64.0018 49.7108 63.1 48.935C61.5726 47.6211 60.4834 47.7413 55.8005 49.7417C53.5492 50.7036 51.4879 51.4939 51.2194 51.4978C50.9513 51.5021 50.7316 51.0587 50.7316 50.5124C50.7316 49.9661 50.3004 49.088 49.7736 48.5612C48.9103 47.6976 48.4959 47.6031 45.5675 47.6031C42.8346 47.6031 41.8867 47.4189 39.5983 46.4429C36.0456 44.9276 32.2348 44.8121 29.6268 46.1397ZM54.8292 56.5787C54.469 57.1618 54.97 57.7495 55.8278 57.7495C56.325 57.7495 56.5853 57.4814 56.5853 56.969C56.5853 56.1413 55.2791 55.8509 54.8292 56.5787ZM49.3657 58.8394C47.0547 59.8822 46.8998 59.8974 37.4188 60.0176L27.8134 60.1397L26.538 61.4552C25.7423 62.2759 25.3509 63.0014 25.4969 63.3823C25.8169 64.2162 26.1533 64.1542 27.4754 63.0174C28.6091 62.0422 28.6095 62.0422 37.0629 62.0422C43.6971 62.0422 45.973 61.9067 47.6362 61.4139C50.7753 60.4831 52.7535 59.3795 52.6098 58.6392C52.4214 57.6664 51.8945 57.6987 49.3657 58.8394Z" fill="#E86851"/>
</svg>
