<svg width="80" height="80" viewBox="0 0 80 80" fill="none" xmlns="http://www.w3.org/2000/svg">
<rect width="80" height="80" rx="8" fill="#FAE1DC"/>
<path fill-rule="evenodd" clip-rule="evenodd" d="M47.7092 16.5124C47.4938 16.5798 47.1774 16.7227 47.0061 16.8301C46.8347 16.9375 39.9776 23.7456 31.7682 31.9592C19.494 44.2397 16.8072 46.9722 16.6466 47.3385C16.3599 47.9919 16.3152 48.5907 16.5042 49.2446C16.66 49.7836 16.7397 49.8749 19.3045 52.4554C20.8164 53.9765 22.1047 55.1947 22.3194 55.3061C22.5539 55.4279 22.9418 55.5171 23.3544 55.544C24.6797 55.6306 23.2636 56.9348 40.0092 40.2055C50.9251 29.3005 55.0516 25.1206 55.2436 24.7743C55.4747 24.3575 55.5069 24.2019 55.5058 23.5025C55.5049 22.8661 55.4639 22.63 55.3025 22.3306C55.1913 22.1244 53.905 20.768 52.4442 19.3165C49.948 16.8361 49.7575 16.6683 49.2789 16.5274C48.6757 16.3497 48.2426 16.3456 47.7092 16.5124ZM48.924 18.008C49.3552 18.1945 53.93 22.8234 54.0119 23.156C54.1525 23.7267 54.0014 24.0658 53.2851 24.787L52.6042 25.4725L51.1961 24.0781C50.4218 23.3111 49.7155 22.6587 49.6268 22.6283C49.4014 22.5509 48.9119 22.738 48.8018 22.9436C48.7514 23.038 48.7101 23.2495 48.7101 23.4137C48.7101 23.6727 48.8963 23.9009 50.114 25.1347L51.5179 26.557L50.447 27.625L49.376 28.6929L48.6222 27.9727C47.9908 27.3694 47.8176 27.2525 47.5555 27.2525C47.1554 27.2525 46.8038 27.6055 46.8038 28.0074C46.8038 28.2413 46.9422 28.4343 47.5447 29.0402L48.2855 29.7854L47.187 30.8839L46.0885 31.9825L44.6503 30.5549C43.3929 29.307 43.174 29.1275 42.9099 29.1275C42.5055 29.1275 42.1476 29.4854 42.1476 29.8899C42.1476 30.154 42.327 30.3728 43.5745 31.6297L45.0015 33.0674L43.9301 34.1417L42.8589 35.2161L42.1452 34.5216C41.3556 33.7532 41.0906 33.6327 40.669 33.8508C40.0748 34.158 40.1197 34.6366 40.8118 35.3722C41.1082 35.6872 41.4326 36.037 41.5328 36.1495L41.7149 36.354L40.6434 37.4285L39.5721 38.503L38.1446 37.0777C36.839 35.7741 36.6887 35.6525 36.3834 35.6525C35.9382 35.6525 35.6413 35.9494 35.6413 36.3946C35.6413 36.6999 35.7629 36.8501 37.0665 38.1558L38.4918 39.5832L37.4163 40.6556L36.3408 41.728L35.5987 41.0059C34.9475 40.3722 34.8145 40.2837 34.5134 40.2837C34.0695 40.2837 33.7101 40.6222 33.7101 41.0402C33.7101 41.2827 34.1078 41.6999 34.4269 42.0731C34.7399 42.4393 35.317 42.9272 35.317 42.9272C34.9267 43.5126 33.756 44.4882 33.1706 45.0736L31.1249 43.0962L30.6632 42.6275C30.2851 42.2436 30.1426 42.1587 29.8759 42.1587C29.4647 42.1587 29.1163 42.4672 29.1163 42.8313V43.0962L31.9999 46.2443L23.6096 54.4394L17.5609 48.1955L22.7885 43.0962L35.2102 30.665C42.0422 23.8279 47.7585 18.1538 47.9132 18.056C48.2481 17.8443 48.5162 17.8315 48.924 18.008ZM43.9522 43.9635C26.4072 61.5086 24.9913 62.9476 24.9913 63.2334C24.9913 63.4363 25.0703 63.6212 25.2215 63.7723L25.4515 64.0025H44.4474H63.4433L63.7173 63.7284L63.9913 63.4544V44.4585V25.4627L63.7612 25.2326C63.6099 25.0813 63.4252 25.0025 63.2221 25.0025C62.9361 25.0025 61.5015 26.4141 43.9522 43.9635ZM62.4913 31.0025V34.4712H61.9226C61.249 34.4712 61.056 34.5575 60.903 34.9268C60.6617 35.5094 61.1837 35.9712 62.0834 35.9712H62.4913V37.0025V38.0337H61.3122C60.1341 38.0337 60.1329 38.0339 59.8591 38.3078C59.7084 38.4585 59.5851 38.6504 59.5851 38.7343C59.5851 38.966 59.8403 39.4099 60.0112 39.4755C60.0946 39.5075 60.6868 39.5337 61.3271 39.5337H62.4913V40.6119V41.69H61.9365C61.2422 41.69 61.1124 41.7401 60.939 42.0756C60.6218 42.6888 61.0726 43.19 61.9415 43.19H62.4913V44.2138V45.2376L61.2642 45.2685C60.0524 45.299 60.0343 45.3026 59.8111 45.5624C59.5344 45.8844 59.5238 46.1806 59.7773 46.5027C59.9648 46.7412 59.9992 46.7477 61.2069 46.7732L62.4444 46.7994L62.471 47.854L62.4975 48.9087H61.8934C61.3339 48.9087 61.2713 48.93 61.0465 49.1972C60.741 49.5603 60.741 49.7572 61.0465 50.1203C61.2711 50.3872 61.3343 50.4087 61.8903 50.4087H62.4913V51.4306V52.4524L61.2644 52.4853C60.0539 52.5176 60.0344 52.5216 59.8113 52.7812C59.5087 53.133 59.5239 53.4558 59.8591 53.7909C60.1329 54.0648 60.1341 54.065 61.3122 54.065H62.4913V55.0962V56.1275H61.9216C61.4119 56.1275 61.3219 56.1575 61.0669 56.4125C60.8276 56.6517 60.7915 56.7456 60.8418 56.9972C60.9339 57.4579 61.1153 57.5754 61.8148 57.6275L62.4444 57.6744L62.4695 60.0884L62.4945 62.5025H60.1132H57.7319L57.6923 61.8804C57.6581 61.3438 57.6174 61.228 57.3949 61.0367C57.0481 60.7384 56.7241 60.7553 56.3904 61.089C56.1476 61.3317 56.1163 61.4281 56.1163 61.9328V62.5025H55.0851H54.0538V61.3713C54.0538 60.2399 53.9892 59.9484 53.687 59.7164C53.448 59.5329 53.0535 59.5786 52.77 59.8224C52.5104 60.0456 52.5065 60.0651 52.4741 61.2756L52.4412 62.5025H51.4194H50.3976V61.914C50.3976 61.5424 50.3457 61.2514 50.2568 61.1245C49.9857 60.7374 49.3358 60.7674 49.0178 61.1818C48.9549 61.2637 48.9022 61.5943 48.9006 61.9165L48.8976 62.5025H47.8663H46.8351V61.3234C46.8351 60.1452 46.8349 60.1441 46.561 59.8703C46.2054 59.5147 45.8709 59.5147 45.5154 59.8703C45.2415 60.1441 45.2413 60.1452 45.2413 61.3234V62.5025H44.2101H43.1788L43.1758 61.9165C43.1742 61.5943 43.1214 61.2637 43.0586 61.1818C42.7405 60.7674 42.0907 60.7374 41.8195 61.1245C41.7307 61.2514 41.6788 61.5424 41.6788 61.914V62.5025H40.6617H39.6446L39.5894 61.2605C39.5363 60.0688 39.5242 60.0099 39.2888 59.8074C38.9585 59.5232 38.5763 59.5367 38.2697 59.8434C38.0283 60.0849 38.0226 60.1185 38.0226 61.2965V62.5025H36.9913H35.9601V61.9328C35.9601 61.4281 35.9288 61.3317 35.686 61.089C35.3523 60.7553 35.0283 60.7384 34.6815 61.0367C34.459 61.228 34.4183 61.3438 34.384 61.8804L34.3445 62.5025H30.9589H27.5732L30.7119 59.3401C35.7386 54.2754 62.4353 27.5337 62.4646 27.5337C62.4793 27.5337 62.4913 29.0947 62.4913 31.0025ZM55.0382 43.9285C54.8835 44.0276 52.3002 46.5703 49.2977 49.579C43.3009 55.5879 43.4622 55.3941 44.0044 55.9362L44.2894 56.2212H49.9757H55.662L55.936 55.9472L56.2101 55.6732V49.9993V44.3255L55.9991 44.0893C55.7078 43.7633 55.3815 43.7086 55.0382 43.9285ZM54.7101 50.5494V54.7212H50.5151H46.3202L50.4913 50.5494C52.7854 48.2548 54.6731 46.3775 54.6863 46.3775C54.6994 46.3775 54.7101 48.2548 54.7101 50.5494Z" fill="#E86851"/>
</svg>
