<svg width="48" height="48" viewBox="0 0 48 48" fill="none" xmlns="http://www.w3.org/2000/svg">
<path fill-rule="evenodd" clip-rule="evenodd" d="M23.9394 0.704138C23.5464 0.929513 23.5236 1.04436 23.5205 2.8122C23.5176 4.46783 23.524 4.52539 23.7371 4.77317C24.0383 5.12332 24.4967 5.12332 24.798 4.77317C25.011 4.52539 25.0174 4.46783 25.0145 2.8122C25.0114 1.02908 24.9886 0.918451 24.5784 0.699919C24.3251 0.565013 24.1802 0.565951 23.9394 0.704138ZM13.4214 3.49808C13.1268 3.61667 12.8921 4.01436 12.9591 4.28126C13.0406 4.60601 14.4802 7.09058 14.7044 7.29345C14.9913 7.55314 15.4417 7.51583 15.7042 7.21067C15.825 7.07033 15.9238 6.86792 15.9238 6.76095C15.9238 6.65398 15.5431 5.9007 15.0779 5.08704C14.3643 3.83923 14.186 3.59173 13.9389 3.50558C13.7776 3.44933 13.6415 3.40611 13.6364 3.40929C13.6311 3.41258 13.5345 3.45251 13.4214 3.49808ZM34.5597 3.51223C34.3624 3.58367 34.114 3.93842 33.4581 5.08545C32.9924 5.89995 32.6113 6.65398 32.6113 6.76095C32.6113 6.86792 32.7101 7.07033 32.8308 7.21067C33.0933 7.51583 33.5437 7.55314 33.8307 7.29345C34.0777 7.06986 35.5159 4.55989 35.5797 4.24095C35.6143 4.06826 35.5641 3.92539 35.409 3.75439C35.1421 3.46011 34.8969 3.39026 34.5597 3.51223ZM22.0175 7.85379C19.7764 8.23226 17.5192 9.19629 15.7465 10.532C14.1705 11.7195 12.499 13.7316 11.5955 15.5284C11.1069 16.5004 10.5355 18.2225 10.3307 19.3409C10.099 20.6063 10.1003 23.0158 10.3335 24.2628C10.698 26.2122 11.4674 28.1095 12.5626 29.7595C13.4163 31.0455 15.1915 32.7845 16.6255 33.7398C17.8421 34.5501 18.321 35.0621 18.6346 35.8878L18.8127 36.3565L18.6105 36.575C18.4118 36.7894 18.4081 36.8493 18.4081 39.8409V42.8884L18.6712 43.1147C18.8702 43.2859 19.0437 43.3409 19.3842 43.3409H19.8342L19.8895 43.933C20.0372 45.5151 21.01 46.7698 22.5702 47.3903C23.0152 47.5673 23.2751 47.5993 24.2675 47.5993C25.26 47.5993 25.5198 47.5673 25.9649 47.3903C27.5251 46.7698 28.4978 45.5151 28.6456 43.933L28.7009 43.3409H29.1509C29.4914 43.3409 29.6648 43.2859 29.8638 43.1147L30.1269 42.8884V39.8409V36.7935L29.906 36.5584L29.6851 36.3232L29.932 35.7839C30.3122 34.9534 30.7464 34.5008 31.8887 33.7444C35.219 31.5394 37.3215 28.4595 38.1598 24.5579C38.4326 23.2884 38.4567 20.6546 38.2069 19.4093C37.6411 16.5883 36.2815 14.0909 34.163 11.9814C32.7966 10.6208 31.7425 9.86004 30.1269 9.06851C28.8513 8.44367 27.7583 8.08367 26.4361 7.85314C25.4741 7.68533 23.013 7.68579 22.0175 7.85379ZM27.088 9.52133C29.4751 10.1548 31.4236 11.2866 33.1738 13.0565C36.0106 15.9253 37.3452 19.7917 36.7917 23.5376C36.5725 25.0213 36.2549 26.0526 35.6106 27.3726C34.5767 29.4911 33.2022 31.0419 31.0841 32.4795C30.4762 32.892 29.8276 33.3807 29.643 33.5655C29.1336 34.0747 28.6066 34.948 28.3756 35.6657L28.1681 36.3096H24.2623H20.3564L20.1492 35.6782C19.7215 34.3757 18.9586 33.4677 17.4671 32.486C13.9267 30.1562 11.8545 26.5451 11.6454 22.3409C11.541 20.2445 11.9576 18.2672 12.9197 16.2903C14.7253 12.5807 17.9689 10.1431 22.1581 9.34751C22.5983 9.26389 23.3701 9.23276 24.5019 9.25282C25.9501 9.27861 26.3169 9.31667 27.088 9.52133ZM5.46642 11.4148C5.17027 11.7109 5.16192 12.1509 5.44721 12.4331C5.72658 12.7095 8.34352 14.1846 8.55455 14.1846C8.79933 14.1846 9.26752 13.6729 9.26752 13.4054C9.26752 13.2782 9.19374 13.085 9.10346 12.9761C8.87067 12.6951 6.18511 11.1846 5.9183 11.1846C5.79633 11.1846 5.59299 11.2882 5.46642 11.4148ZM40.955 11.9906C39.5134 12.8294 39.2675 13.0355 39.2675 13.4054C39.2675 13.6788 39.7378 14.1846 39.9918 14.1846C40.1728 14.1846 42.8401 12.6943 43.1347 12.4285C43.2358 12.3374 43.2988 12.1448 43.2988 11.9269C43.2988 11.5136 42.9629 11.1798 42.5596 11.1921C42.4247 11.1964 41.7027 11.5556 40.955 11.9906ZM26.8289 12.4211C26.7166 12.4754 26.5743 12.6413 26.5128 12.7897C26.3745 13.1238 26.5213 13.5464 26.8284 13.6984C27.2561 13.9101 28.2735 14.2784 28.4305 14.2784C28.6371 14.2784 29.1425 13.781 29.1425 13.5778C29.1425 13.1603 28.8719 12.9028 28.1216 12.6064C27.3208 12.2899 27.1507 12.2655 26.8289 12.4211ZM29.9088 14.3078C29.515 14.7272 29.6206 14.9899 30.5762 15.9663C31.0555 16.4559 31.6496 17.1628 31.8965 17.537C32.5008 18.4529 32.8062 18.5989 33.3017 18.209C33.8303 17.7934 33.4683 16.928 32.108 15.3554C31.0894 14.1778 30.3583 13.8295 29.9088 14.3078ZM30.5038 19.6329C29.4545 19.7857 28.4412 20.0982 27.4755 20.5669C25.9582 21.3032 24.8026 22.5195 24.1501 24.0669L23.925 24.6006L23.5309 23.9914C22.8262 22.9018 21.6852 22.0718 20.2363 21.5953C18.9318 21.1662 16.6267 20.9825 15.9732 21.2556C15.529 21.4413 15.4151 21.8971 15.4876 23.1989C15.5934 25.0952 16.045 26.5979 16.8567 27.7536C17.9326 29.2858 19.8791 30.2272 22.2988 30.3858L23.2831 30.4503L23.3085 32.3434L23.3339 34.2365L23.5789 34.4294C23.9019 34.6834 24.198 34.6729 24.5201 34.3961L24.7831 34.17L24.812 32.2867L24.841 30.4034L25.6089 30.403C26.6287 30.4025 27.9601 30.1788 28.9994 29.8332C32.3866 28.7069 34.196 25.7529 34.2031 21.3375C34.2052 20.1033 34.1267 19.7958 33.7684 19.6324C33.5013 19.5108 31.3404 19.511 30.5038 19.6329ZM32.7046 21.7081C32.7034 23.9546 31.7897 26.3178 30.5299 27.3331C29.3325 28.2983 27.4202 28.9034 25.5677 28.9034H24.83V28.1657C24.83 25.8861 25.7816 23.5321 27.1041 22.5396C28.3634 21.5946 30.0911 21.0568 31.9316 21.0368L32.705 21.0284L32.7046 21.7081ZM2.61127 21.9659C2.32627 22.2509 2.33077 22.7457 2.62102 23.044C2.78827 23.2159 2.94849 23.2339 4.53689 23.2608L6.27033 23.29L6.55017 23.0102C6.89424 22.6661 6.91139 22.32 6.59986 22.0085C6.37167 21.7803 6.35499 21.7784 4.58424 21.7784C2.92374 21.7784 2.78564 21.7915 2.61127 21.9659ZM41.9352 22.0085C41.6236 22.32 41.6408 22.6661 41.9849 23.0102L42.2647 23.29L43.9981 23.2608C45.5866 23.2339 45.7468 23.2159 45.914 23.044C46.2043 22.7457 46.2088 22.2509 45.9238 21.9659C45.7494 21.7915 45.6113 21.7784 43.9508 21.7784C42.18 21.7784 42.1634 21.7803 41.9352 22.0085ZM19.339 22.9017C21.7886 23.5281 23.0548 25.1968 23.2111 28.0043L23.2628 28.9333L22.3354 28.8729C18.981 28.6543 17.2903 26.929 16.9997 23.4281L16.9305 22.5934L17.7839 22.6578C18.2533 22.6932 18.9531 22.803 19.339 22.9017ZM6.87455 31.6769C6.10242 32.1195 5.41796 32.5494 5.35346 32.6323C5.17289 32.8644 5.21058 33.3777 5.42377 33.5909C5.76014 33.9273 6.11255 33.8324 7.55161 33.0179C8.93208 32.2367 9.26752 31.9513 9.26752 31.5584C9.26752 31.2487 8.86983 30.8721 8.54292 30.8721C8.38242 30.8721 7.72655 31.1885 6.87455 31.6769ZM39.4977 31.1023C39.2191 31.3807 39.2037 31.7032 39.4536 32.0209C39.5559 32.151 40.2443 32.5997 40.9834 33.0179C42.4225 33.8324 42.7749 33.9273 43.1113 33.5909C43.3246 33.3776 43.362 32.866 43.1816 32.6291C42.9748 32.3574 40.2807 30.8721 39.9948 30.8721C39.8363 30.8721 39.6343 30.9656 39.4977 31.1023ZM28.6269 39.8253V41.794H24.2675H19.9081L19.8826 39.9216C19.8687 38.8919 19.8781 37.995 19.9036 37.9285C19.9406 37.8319 20.8178 37.8126 24.2883 37.8321L28.6269 37.8565V39.8253ZM27.1738 43.6523C27.1738 44.4878 26.515 45.4845 25.6962 45.8877C25.3162 46.0748 25.1094 46.1065 24.2675 46.1065C23.4256 46.1065 23.2188 46.0748 22.8389 45.8877C22.0201 45.4845 21.3613 44.4878 21.3613 43.6523V43.3409H24.2675H27.1738V43.6523Z" fill="#E86851"/>
</svg>
