<svg width="48" height="48" viewBox="0 0 48 48" fill="none" xmlns="http://www.w3.org/2000/svg">
<path fill-rule="evenodd" clip-rule="evenodd" d="M36.3002 0.31875C36.0705 0.548438 35.9814 0.721313 35.9814 0.9375C35.9814 1.15369 36.0705 1.32656 36.3002 1.55625L36.6189 1.875H38.5264H40.4338L35.7953 6.51431L31.1566 11.1537L29.2748 9.27994C27.3956 7.40897 27.3923 7.40625 26.9773 7.40625H26.5617L17.9228 16.0547C11.9294 22.0545 9.27282 24.7749 9.24798 24.9375C9.14907 25.5865 9.52698 26.0625 10.1414 26.0625H10.5258L18.7524 17.8378L26.9791 9.61322L28.8318 11.456C30.6839 13.2982 30.9489 13.4941 31.4044 13.3583C31.5241 13.3225 33.8897 11.0306 36.6611 8.265L41.7002 3.23672L41.7054 4.78247C41.7116 6.58725 41.7868 6.90497 42.2683 7.16297C42.666 7.37606 43.0152 7.3185 43.3489 6.98484L43.5752 6.75853V3.70125C43.5752 1.78359 43.5392 0.576656 43.4786 0.463594C43.2446 0.0263438 43.0315 0 39.7268 0H36.6189L36.3002 0.31875ZM35.5127 13.9762C34.9464 14.2322 34.5051 14.6673 34.2365 15.2344L34.0146 15.7031L34.0136 30.9141L34.0127 46.125H31.3877H28.7627L28.7621 37.8047C28.7619 32.4247 28.7277 29.3624 28.6658 29.1392C28.504 28.5568 28.0068 27.9363 27.4477 27.6191L26.9346 27.3281H23.9346C21.0355 27.3281 20.9218 27.335 20.5546 27.5316C20.0407 27.8066 19.5926 28.2725 19.3524 28.7812C19.1546 29.2003 19.1531 29.2599 19.1274 37.6641L19.1017 46.125H16.5317H13.9617L13.9325 41.6484C13.9035 37.2061 13.9016 37.1683 13.6878 36.7031C13.3919 36.0597 12.8838 35.5667 12.2864 35.3432C11.8299 35.1724 11.5545 35.1562 9.08841 35.1562C6.11391 35.1562 5.84935 35.1952 5.20266 35.7283C5.01216 35.8853 4.74029 36.2111 4.59854 36.4523L4.34082 36.8906L4.31401 41.5078L4.2872 46.125H3.1141C1.57088 46.125 1.2002 46.3066 1.2002 47.0625C1.2002 47.4548 1.33679 47.6876 1.66707 47.8584C1.90904 47.9835 4.49598 48 23.8877 48C43.2794 48 45.8664 47.9835 46.1083 47.8584C46.4386 47.6876 46.5752 47.4548 46.5752 47.0625C46.5752 46.3128 46.2007 46.125 44.7049 46.125H43.5752L43.5743 30.9141L43.5733 15.7031L43.3534 15.2344C43.0747 14.6406 42.7159 14.2818 42.1221 14.0031C41.6621 13.7872 41.5996 13.7831 38.7939 13.7843C36.1205 13.7853 35.9071 13.7977 35.5127 13.9762ZM41.5287 15.8114C41.6934 15.9605 41.7002 16.5563 41.7002 31.0458V46.125H38.7939H35.8877V31.0621C35.8877 17.1774 35.8998 15.9857 36.0429 15.8277C36.186 15.6695 36.3976 15.6562 38.7776 15.6562C41.0465 15.6562 41.378 15.6749 41.5287 15.8114ZM6.7621 27.534C6.65007 27.5558 6.44963 27.6824 6.31679 27.8153C5.77651 28.3554 6.1906 29.3438 6.9571 29.3438C7.94382 29.3438 8.24073 27.9793 7.33632 27.6014C7.16166 27.5285 7.00679 27.4745 6.99226 27.4815C6.97773 27.4885 6.87413 27.5122 6.7621 27.534ZM26.6708 29.3601L26.8877 29.564V37.8444V46.125H23.9346H20.9814V37.8708V29.6165L21.2116 29.3864L21.4417 29.1562H23.9477C26.3917 29.1562 26.4591 29.1613 26.6708 29.3601ZM11.773 37.1772L11.9814 37.3231V41.7241V46.125H9.0752H6.16895V41.7656C6.16895 37.5312 6.17429 37.4009 6.35645 37.2188C6.53457 37.0406 6.66891 37.0312 9.05429 37.0312C11.1747 37.0312 11.5971 37.0539 11.773 37.1772Z" fill="#E86851"/>
</svg>
