<svg width="48" height="48" viewBox="0 0 48 48" fill="none" xmlns="http://www.w3.org/2000/svg">
<path fill-rule="evenodd" clip-rule="evenodd" d="M5.11124 3.22622L4.84818 3.45253L4.82399 20.5735L4.7998 37.6945L5.01149 37.905C5.25955 38.1517 19.7729 44.625 20.0779 44.625C20.1915 44.625 20.4081 44.5013 20.5593 44.3502L20.8341 44.0754L20.8099 26.9513L20.7857 9.82716L20.5812 9.66159C20.4688 9.57056 18.0219 8.45062 15.1437 7.17291C12.2656 5.89519 9.80521 4.79391 9.6763 4.72556C9.47999 4.6215 10.7566 4.60069 17.5279 4.5975L25.6138 4.59375V20.625V36.6562H24.2144H22.8149L22.6206 36.9033C22.363 37.2308 22.3749 37.6174 22.6525 37.9401L22.8788 38.2031H24.8169H26.755L26.9813 37.9401L27.2076 37.677V20.6125V3.54806L26.9335 3.27403L26.6595 3H16.0169H5.3743L5.11124 3.22622ZM12.9052 7.92188L19.2378 10.7344L19.2382 26.6562C19.2385 35.4711 19.2029 42.5642 19.1584 42.5468C19.1142 42.5297 16.2249 41.25 12.7378 39.7031L6.39759 36.8906L6.39637 20.9688C6.39552 10.9836 6.42815 5.05856 6.48384 5.07816C6.53268 5.09531 9.42234 6.375 12.9052 7.92188ZM34.2118 12.931C33.6296 13.6229 32.6388 16.0937 32.3252 17.6356C31.6685 20.8642 32.1171 24.2671 33.5849 27.1922C34.1448 28.3078 34.3935 28.5938 34.8042 28.5938C35.14 28.5938 35.6451 28.1572 35.6451 27.8669C35.6451 27.7687 35.4156 27.2486 35.1352 26.7113C34.1039 24.7352 33.6546 22.8883 33.6549 20.625C33.6551 18.3243 34.0821 16.5717 35.1378 14.5387C35.4168 14.0014 35.6451 13.4693 35.6451 13.3562C35.6451 13.0183 35.2063 12.6562 34.7969 12.6562C34.5206 12.6562 34.3923 12.7165 34.2118 12.931ZM38.1382 14.9297C37.8607 15.1777 37.2467 16.3894 36.9688 17.2372C36.0771 19.9578 36.2661 22.6946 37.5247 25.287C38.1398 26.5542 38.562 26.7923 39.1841 26.2229C39.4834 25.949 39.4516 25.5534 39.0728 24.8401C38.6105 23.9694 38.2098 22.6854 38.0793 21.6562C37.8683 19.9937 38.1513 18.3537 38.9346 16.6988C39.5212 15.4594 39.5355 15.1259 39.0133 14.8559C38.6438 14.6648 38.4127 14.6843 38.1382 14.9297ZM41.7891 17.1904C41.2566 17.8884 40.8013 19.4771 40.8013 20.6372C40.8013 21.4745 41.0551 22.549 41.455 23.4053C41.8213 24.1895 42.0103 24.375 42.443 24.375C42.7371 24.375 43.2388 23.9129 43.2388 23.642C43.2388 23.5402 43.091 23.1456 42.9102 22.765C42.2441 21.3624 42.2493 19.8966 42.9254 18.4517C43.2936 17.6648 43.2962 17.398 42.9387 17.0651C42.8088 16.944 42.6067 16.875 42.3821 16.875C42.0921 16.875 41.987 16.931 41.7891 17.1904ZM13.094 20.8552L12.8638 21.0852V24.6452V28.2052L13.1108 28.3994C13.3287 28.5709 13.487 28.5938 14.4539 28.5938C15.5046 28.5938 15.559 28.584 15.7722 28.357C16.0835 28.0258 16.0626 27.5026 15.7266 27.2136C15.534 27.0479 15.3639 27 14.9679 27H14.4576V24.6094V22.2188H14.9679C15.3697 22.2188 15.5333 22.1715 15.7367 21.9966C16.0762 21.7045 16.0921 21.2021 15.7725 20.8619C15.5586 20.6343 15.5061 20.625 14.4369 20.625C13.3804 20.625 13.3124 20.6366 13.094 20.8552Z" fill="#E86851"/>
</svg>
