<svg width="48" height="48" viewBox="0 0 48 48" fill="none" xmlns="http://www.w3.org/2000/svg">
<g clip-path="url(#clip0_857_52)">
<path fill-rule="evenodd" clip-rule="evenodd" d="M22.0891 0.0635427C20.883 0.200605 19.3266 0.505011 18.0775 0.848043C15.87 1.45442 13.1615 2.6727 12.8305 3.20811C12.6264 3.53857 12.5931 3.99814 12.751 4.30939C12.8995 4.60226 15.5507 7.26626 15.8533 7.42676C16.2632 7.64407 16.7274 7.58407 17.644 7.19511C23.333 4.78142 29.9573 5.59395 35.0533 9.33064C35.885 9.94048 37.4864 11.4766 38.1898 12.3393C39.7668 14.2733 40.955 16.6423 41.5531 19.0454C41.9838 20.7755 42.0379 21.2835 42.033 23.5454C42.0287 25.522 42.0072 25.8013 41.7745 26.8975C41.4326 28.5085 40.9674 29.8755 40.2891 31.2615L39.7245 32.4152L39.272 31.9919C38.7447 31.4987 38.4548 31.4015 37.9558 31.5511C37.255 31.761 37.2335 31.8369 36.8101 35.581C36.5988 37.4497 36.4597 39.0487 36.496 39.1931C36.5796 39.5264 36.9331 39.8783 37.2718 39.9656C37.6111 40.0531 43.8978 39.3664 44.3091 39.1969C44.7488 39.0158 45.0112 38.5504 44.9595 38.0433C44.9248 37.7029 44.8361 37.552 44.4278 37.1386L43.9376 36.6423L44.2147 36.2345C45.4126 34.4706 46.5856 31.8003 47.1941 29.4516C48.4465 24.6182 48.2046 19.7944 46.48 15.2135C43.4639 7.20204 36.4455 1.50748 27.9752 0.199199C26.7845 0.0152614 23.2333 -0.0665823 22.0891 0.0635427ZM28.069 1.64829C32.8464 2.49007 36.8357 4.5491 40.1338 7.87535C41.933 9.68989 43.2116 11.4924 44.3331 13.7954C45.3565 15.8969 45.9872 17.9277 46.3627 20.33C46.5907 21.7889 46.5943 24.9977 46.3696 26.504C45.9067 29.6085 44.7972 32.6504 43.191 35.2194C42.8533 35.7596 42.5474 36.2975 42.5112 36.4146C42.4055 36.7578 42.5488 37.1805 42.9043 37.574C43.0867 37.7759 43.2194 37.9549 43.1993 37.9719C43.1552 38.0093 37.9306 38.5954 37.9044 38.566C37.8888 38.5485 38.4832 33.359 38.512 33.2611C38.5176 33.2421 38.6909 33.3793 38.8974 33.5658C39.2214 33.8584 39.3355 33.9048 39.7339 33.9048C40.4218 33.9048 40.6468 33.6616 41.4557 32.0443C42.4807 29.9948 43.115 27.9031 43.3927 25.6572C43.5343 24.5112 43.5133 22.1797 43.3501 20.935C42.54 14.7552 38.6725 9.2951 33.1197 6.49235C30.3177 5.07804 27.6414 4.44561 24.4596 4.44617C21.7998 4.44654 19.5425 4.88576 17.1689 5.86451L16.5145 6.13432L15.3718 4.98889L14.2291 3.84345L15.196 3.39326C17.1055 2.50414 19.9615 1.71561 22.1627 1.4697C23.4754 1.32307 26.7924 1.42339 28.069 1.64829ZM6.92833 8.08339C5.40723 8.25664 3.99536 8.45257 3.7908 8.51876C3.26552 8.68873 2.95933 9.15889 3.01905 9.70376C3.05608 10.0418 3.14823 10.1977 3.55389 10.6084L4.04402 11.1048L3.76708 11.5126C2.59877 13.2331 1.43233 15.8532 0.830172 18.1095C-0.461141 22.9483 -0.243641 27.854 1.46617 32.4516C4.19195 39.7814 10.3393 45.2642 17.9161 47.1231C19.9817 47.6299 20.9075 47.7296 23.5221 47.7268C26.1992 47.7238 27.2475 47.5954 29.5783 46.9843C31.8996 46.3759 34.8014 45.1047 35.1475 44.5447C35.3676 44.1886 35.3879 43.746 35.2003 43.3923C35.0398 43.0896 32.3758 40.4384 32.083 40.2899C31.7345 40.1132 31.2216 40.1739 30.541 40.4727C28.0381 41.5712 24.9572 42.0921 22.2407 41.876C18.7975 41.6022 15.906 40.5361 12.9332 38.4441C12.4645 38.1142 12.275 38.0314 12.0895 38.0751C11.5228 38.2086 11.3464 38.8598 11.7638 39.2772C12.1503 39.6636 13.7393 40.6933 14.7399 41.2056C17.5464 42.6426 20.299 43.3039 23.4752 43.3039C26.2011 43.3039 28.6617 42.8117 31.0468 41.7892L31.4646 41.6102L32.6076 42.7558L33.7505 43.9015L33.4878 44.025C31.4621 44.9771 29.8811 45.5195 27.9974 45.9087C26.1656 46.2872 24.711 46.4076 22.7252 46.3454C17.0542 46.1677 11.8417 43.8995 7.84783 39.8717C6.04867 38.0571 4.77002 36.2546 3.64858 33.9516C2.62745 31.8548 1.98339 29.781 1.61167 27.393C1.38564 25.9414 1.3893 22.6347 1.61842 21.1738C2.11183 18.028 3.19155 15.0852 4.79064 12.5276C5.12833 11.9874 5.43423 11.4495 5.47042 11.3324C5.57617 10.9893 5.43283 10.5665 5.07733 10.173C4.89498 9.97114 4.76223 9.79254 4.78239 9.77595C4.82533 9.7407 10.0547 9.15504 10.0791 9.18279C10.0935 9.1992 9.49642 14.3952 9.4697 14.4859C9.46408 14.5049 9.29073 14.3677 9.0843 14.1813C8.7603 13.8886 8.64611 13.8423 8.24777 13.8423C7.55983 13.8423 7.33483 14.0854 6.52595 15.7027C5.12214 18.5097 4.49083 21.1803 4.49083 24.3116C4.49083 28.8104 6.03039 33.1149 8.82723 36.436C9.34145 37.0465 9.46455 37.1429 9.7623 37.1679C10.0102 37.1887 10.1586 37.1433 10.298 37.0039C10.6365 36.6653 10.5476 36.3379 9.89852 35.5313C7.75042 32.8625 6.51789 30.0439 6.03048 26.686C5.80033 25.1001 5.8878 22.3773 6.21958 20.8014C6.54817 19.2405 7.01795 17.8641 7.69258 16.4855L8.25714 15.3319L8.70142 15.7474C8.94583 15.976 9.24114 16.1933 9.35767 16.2303C9.9047 16.4039 10.6884 15.9362 10.7971 15.3713C10.825 15.2265 11.0074 13.6698 11.2026 11.9121C11.5967 8.36201 11.5928 8.2782 11.014 7.92523C10.6279 7.68992 10.2582 7.70417 6.92833 8.08339ZM16.1439 10.8385C15.5459 11.203 15.5065 11.389 15.5065 13.8423V16.0454L18.304 19.6849C19.8427 21.6867 21.137 23.4481 21.1803 23.599C21.2236 23.7499 21.2236 23.9971 21.1803 24.148C21.137 24.299 19.8427 26.0603 18.304 28.0621L15.5065 31.7016V33.9048C15.5065 35.9501 15.5201 36.1314 15.6971 36.436C16.0983 37.1262 15.6652 37.092 23.9908 37.092C32.3165 37.092 31.8834 37.1262 32.2845 36.436C32.4615 36.1314 32.4752 35.9501 32.4752 33.9048V31.7016L31.3502 30.2333C30.0113 28.4858 29.7624 28.3122 29.2835 28.7912C28.9044 29.1702 28.9763 29.4672 29.6617 30.353C29.9962 30.7854 30.2704 31.1707 30.271 31.2094C30.2716 31.2482 29.8354 31.2798 29.3018 31.2798H28.3315L27.6175 30.3527C26.821 29.3185 26.4065 28.9506 25.6451 28.6021C24.5505 28.101 23.3832 28.1129 22.2681 28.6365C21.4975 28.9984 21.2022 29.2645 20.3629 30.3544L19.6502 31.2798H18.6799C18.1463 31.2798 17.7097 31.2482 17.7099 31.2094C17.7101 31.1411 21.9164 25.6327 22.1494 25.3955C22.243 25.3003 22.4121 25.3787 23.0087 25.794C23.4449 26.0976 23.852 26.311 23.995 26.311C24.1385 26.311 24.5443 26.0976 24.982 25.7921L25.7252 25.2733L25.9127 25.4937C26.0158 25.6149 26.3853 26.0805 26.7338 26.5282C27.3389 27.3059 27.3837 27.3423 27.7362 27.3423C28.0112 27.3423 28.1424 27.2892 28.2511 27.1339C28.5389 26.723 28.4402 26.4446 27.6403 25.4117C26.8312 24.3668 26.6769 24.0333 26.8014 23.599C26.8447 23.4481 28.139 21.6867 29.6777 19.6849L32.4752 16.0454V13.8423C32.4752 11.7969 32.4615 11.6156 32.2845 11.311C31.8833 10.6205 32.322 10.655 23.944 10.6552C16.6705 10.6554 16.4349 10.6609 16.1439 10.8385ZM31.1158 13.5551V15.0492L29.4379 15.0785C27.5124 15.1122 27.3658 15.1647 27.3658 15.8202C27.3658 16.3921 27.5588 16.4673 29.0274 16.4673C29.7119 16.4673 30.2721 16.4948 30.2721 16.5286C30.2721 16.5623 29.8818 17.1086 29.4049 17.7424L28.5377 18.895H23.9908H19.444L18.5768 17.7424C18.0998 17.1086 17.7096 16.5623 17.7096 16.5286C17.7096 16.4948 19.3455 16.4673 21.3449 16.4673C25.4496 16.4673 25.3971 16.4756 25.3971 15.8202C25.3971 15.5783 25.3342 15.4082 25.1998 15.2865C25.0132 15.1175 24.7829 15.1065 20.9342 15.0815L16.8658 15.0553V13.5581V12.061H23.9908H31.1158V13.5551ZM27.3082 20.4282C27.2704 20.4927 26.9154 20.9673 26.5192 21.4829C25.6943 22.5565 25.505 22.8898 25.4127 23.4302C25.3541 23.7733 25.2748 23.8676 24.6985 24.2788L24.0501 24.7414L23.7626 24.5848C23.6046 24.4987 23.2749 24.282 23.0299 24.1031C22.6881 23.8535 22.5841 23.7183 22.5825 23.521C22.5791 23.1012 22.2587 22.5152 21.4783 21.5015C21.0734 20.9757 20.7113 20.4927 20.6735 20.4282C20.619 20.3354 21.3078 20.311 23.9908 20.311C26.6739 20.311 27.3626 20.3354 27.3082 20.4282ZM13.4862 21.0894C12.1909 21.4556 11.3907 22.5187 11.3907 23.8735C11.3907 25.5013 12.585 26.7204 14.1884 26.7292C15.584 26.7369 16.6094 25.9562 17.009 24.5818C17.6044 22.5337 15.5569 20.5039 13.4862 21.0894ZM32.9862 21.0894C31.6913 21.4555 30.8981 22.513 30.8981 23.8735C30.8981 24.7459 31.1209 25.2898 31.7262 25.8951C32.3316 26.5005 32.8703 26.7229 33.7414 26.727C34.3241 26.7298 34.5361 26.6858 34.9751 26.471C36.0215 25.9592 36.5909 25.0437 36.5909 23.8735C36.5909 23.0493 36.388 22.5124 35.8524 21.9195C35.179 21.1741 33.9477 20.8175 32.9862 21.0894ZM15.0284 22.649C15.4516 22.9105 15.7828 23.5783 15.7105 24.024C15.5821 24.815 14.7889 25.4566 14.081 25.3417C12.6166 25.1041 12.2904 23.2342 13.5975 22.571C14.0823 22.325 14.545 22.3503 15.0284 22.649ZM34.4006 22.5844C34.8509 22.8115 35.2408 23.4097 35.2408 23.8735C35.2408 24.3373 34.8509 24.9355 34.4006 25.1626C33.8719 25.4292 33.5924 25.4282 33.0808 25.1576C32.635 24.9218 32.2408 24.3194 32.2408 23.8735C32.2408 23.4276 32.635 22.8252 33.0808 22.5894C33.5924 22.3189 33.8719 22.3178 34.4006 22.5844ZM25.0093 29.8349C25.4898 30.0356 25.8705 30.3526 26.2232 30.8457L26.5337 31.2798H23.9876H21.4416L21.7681 30.8344C22.5658 29.7465 23.85 29.3505 25.0093 29.8349ZM31.1158 34.186V35.686H23.9908H16.8658V34.186V32.686H23.9908H31.1158V34.186Z" fill="#E86851"/>
</g>
<defs>
<clipPath id="clip0_857_52">
<rect width="48" height="48" fill="white"/>
</clipPath>
</defs>
</svg>
