<svg width="64" height="64" viewBox="0 0 64 64" fill="none" xmlns="http://www.w3.org/2000/svg">
<path fill-rule="evenodd" clip-rule="evenodd" d="M37.8591 8.22443C37.6989 8.38462 37.6288 8.5585 37.6288 8.79634C37.6288 9.19297 37.6999 9.26894 39.1157 10.3858L40.0668 11.1361L26.8664 11.183L13.666 11.2299L13.1033 11.4926C12.372 11.8339 11.8225 12.3805 11.4931 13.0946C11.2427 13.637 11.2266 13.752 11.1963 15.2002C11.1787 16.0428 11.1901 16.8352 11.2217 16.9611C11.373 17.5638 12.1066 17.7686 12.5448 17.3303C12.7696 17.1056 12.7751 17.0652 12.7771 15.6187C12.7788 14.3798 12.8076 14.0746 12.9529 13.7547C13.1559 13.3076 13.5086 13.004 13.9835 12.8672C14.2133 12.801 18.4744 12.7784 27.201 12.7969L40.0795 12.8243L39.2059 13.5207C37.8281 14.619 37.6288 14.8303 37.6288 15.1922C37.6288 15.6188 37.9806 15.9661 38.4123 15.9661C38.6911 15.9661 39.035 15.7255 40.9254 14.2076C43.0883 12.4709 43.1158 12.4444 43.1435 12.0665C43.163 11.8013 43.1198 11.625 43.0028 11.4913C42.841 11.3066 39.3297 8.48441 38.8506 8.15408C38.5193 7.92552 38.1303 7.9531 37.8591 8.22443ZM46.867 11.2863C46.3806 11.5652 46.2898 12.1618 46.6752 12.5471C46.8999 12.7719 46.9402 12.7775 48.3868 12.7794C49.6256 12.7811 49.9308 12.8099 50.2507 12.9552C50.6978 13.1582 51.0014 13.5109 51.1382 13.9858C51.2045 14.2156 51.2271 18.478 51.2086 27.2078L51.1812 40.0906L50.5253 39.2595C49.4108 37.8471 49.1846 37.6311 48.8203 37.6311C48.3864 37.6311 48.0393 37.9794 48.0393 38.4146C48.0393 38.6934 48.28 39.0373 49.7978 40.9277C51.5346 43.0906 51.561 43.1181 51.9389 43.1458C52.2041 43.1653 52.3805 43.1222 52.5141 43.0051C52.6989 42.8433 55.521 39.332 55.8514 38.8529C56.2181 38.3212 55.8554 37.6311 55.2093 37.6311C54.8125 37.6311 54.7366 37.7021 53.6197 39.118L52.8694 40.0691L52.8225 26.8687L52.7756 13.6683L52.5129 13.1056C52.1712 12.3735 51.6242 11.8242 50.9108 11.4969C50.3617 11.2448 50.2668 11.2324 48.6958 11.2061C47.5861 11.1877 46.9938 11.2136 46.867 11.2863ZM31.1279 16.0569C30.5705 16.1648 30.295 16.4341 29.9654 17.1936C29.7617 17.6631 29.5949 17.9151 29.4496 17.9728C29.3314 18.0198 29.0061 18.1583 28.7265 18.2805L28.2182 18.5026L27.5372 18.2192C26.772 17.9006 26.5914 17.8804 26.1603 18.0648C25.8732 18.1877 24.6583 19.3418 24.4792 19.6617C24.3093 19.9654 24.3666 20.538 24.6285 21.1545L24.8911 21.7724L24.5839 22.5239L24.2766 23.2754L23.6607 23.521C22.5722 23.9552 22.4352 24.1877 22.4352 25.5997C22.4352 27.046 22.5606 27.2367 23.8666 27.7768C24.1122 27.8783 24.3393 28.0374 24.3713 28.1303C24.4033 28.2233 24.5354 28.5425 24.665 28.8399L24.9006 29.3807L24.6614 29.9654C24.3434 30.7425 24.3112 30.9181 24.4163 31.2988C24.5151 31.6569 25.2855 32.5488 25.8491 32.9577C26.3281 33.3053 26.871 33.3037 27.6357 32.9524L28.1936 32.6962L28.9018 33.0008C29.6431 33.3197 29.6595 33.3374 30.0806 34.2717C30.2808 34.7155 30.3906 34.8381 30.7391 35.0069L31.1575 35.2094V35.9982V36.7871H27.4699C23.3196 36.7871 23.0906 36.8158 22.4228 37.419C21.8729 37.9158 21.6616 38.3919 21.6104 39.249L21.567 39.9758L20.7585 39.9764C19.7929 39.977 19.3538 40.0852 18.9552 40.4206C18.4488 40.8467 18.4023 41.0813 18.4023 43.2115C18.4023 44.6283 18.4363 45.2215 18.5303 45.4464C18.6934 45.8367 19.1539 46.2251 19.601 46.3493C20.0597 46.4767 24.717 46.4767 25.1756 46.3493C25.3674 46.296 25.6538 46.1435 25.812 46.0103C26.3482 45.5592 26.3743 45.4293 26.3743 43.2115C26.3743 40.9937 26.3482 40.8638 25.812 40.4127C25.4217 40.0843 24.9777 39.977 24.0062 39.9764L23.1855 39.9758V39.4653C23.1855 39.0608 23.2325 38.8999 23.4118 38.6915L23.638 38.4283L27.3978 38.4018L31.1575 38.3753V39.1651V39.9551L30.1493 39.9898C28.9945 40.0297 28.6099 40.1924 28.2313 40.8012C28.0233 41.1359 28.0156 41.2214 28.0156 43.2115C28.0156 45.2016 28.0233 45.2872 28.2313 45.6219C28.35 45.8126 28.6033 46.0659 28.794 46.1846C29.1364 46.3974 29.1796 46.4003 32.0016 46.4003C34.8236 46.4003 34.8668 46.3974 35.2091 46.1846C35.3999 46.0659 35.6531 45.8126 35.7718 45.6219C35.9799 45.2872 35.9876 45.2016 35.9876 43.2115C35.9876 41.2214 35.9799 41.1359 35.7718 40.8012C35.3932 40.1924 35.0087 40.0297 33.8539 39.9898L32.8457 39.9551V39.1651V38.3753L36.6053 38.4018L40.3651 38.4283L40.5913 38.6915C40.7706 38.8999 40.8176 39.0608 40.8176 39.4653V39.9758L39.997 39.9764C39.0065 39.977 38.5139 40.0986 38.1598 40.4301C37.6502 40.9068 37.6288 41.019 37.6288 43.2115C37.6288 45.4302 37.6548 45.5591 38.1925 46.0116C38.6761 46.4184 39.0399 46.4602 41.8324 46.4291C44.7309 46.3969 44.7896 46.385 45.2911 45.728L45.5539 45.3838L45.5839 43.4067C45.6178 41.1789 45.5675 40.8811 45.0864 40.4586C44.6656 40.0891 44.2374 39.977 43.2447 39.9764L42.4361 39.9758L42.3927 39.249C42.3415 38.3919 42.1302 37.9158 41.5803 37.419C40.9125 36.8158 40.6835 36.7871 36.5332 36.7871H32.8457V35.9943V35.2015L33.256 35.02C33.6054 34.8653 33.703 34.7571 33.9145 34.2887C34.3479 33.3287 34.3608 33.3143 35.047 33.0275C35.4065 32.8771 35.7536 32.7542 35.8181 32.7542C35.8825 32.7542 36.1739 32.8597 36.4655 32.9886C37.0772 33.2592 37.6739 33.2902 38.0065 33.0688C38.3787 32.8211 39.2176 31.9832 39.4221 31.6551C39.6849 31.2331 39.6657 30.7058 39.3615 29.9901L39.1025 29.3807L39.3408 28.8399C39.4718 28.5425 39.6043 28.2148 39.6353 28.1117C39.6728 27.9868 39.8949 27.8477 40.3004 27.6952C40.6569 27.5611 41.0362 27.3355 41.2152 27.1509C41.5195 26.8371 41.5212 26.8305 41.5527 25.7545C41.5978 24.2207 41.4595 23.9656 40.3424 23.5207L39.7265 23.2754L39.4193 22.5239L39.112 21.7724L39.3746 21.1545C39.6775 20.4418 39.6938 19.9269 39.4252 19.5515C39.3245 19.4107 38.95 19.0141 38.593 18.67C37.7435 17.8512 37.5017 17.7974 36.504 18.2053L35.7811 18.5009L35.2747 18.2795C34.9962 18.1578 34.6717 18.0198 34.5535 17.9728C34.4083 17.9151 34.2414 17.6631 34.0377 17.1936C33.8666 16.7994 33.6296 16.4205 33.4889 16.3161C33.0695 16.005 32.0019 15.8878 31.1279 16.0569ZM32.3325 17.6142C32.4605 17.6486 32.5957 17.8551 32.7462 18.246C33.0849 19.1258 33.1694 19.2166 33.8613 19.4443C34.2054 19.5575 34.7285 19.7708 35.0235 19.9184C35.3187 20.0659 35.6414 20.1866 35.7406 20.1866C35.8398 20.1866 36.2272 20.0563 36.6013 19.8971L37.2815 19.6077L37.6377 19.9674L37.9938 20.3273L37.7175 20.9696C37.3819 21.75 37.3726 22.0514 37.6687 22.5615C37.7937 22.777 37.9874 23.2268 38.099 23.5612C38.3956 24.4493 38.4042 24.4588 39.2268 24.7952L39.9817 25.1038L39.9542 25.616L39.9266 26.1283L39.276 26.3944C38.448 26.7333 38.3567 26.8211 38.1509 27.4773C38.0576 27.7746 37.8598 28.2594 37.7113 28.5545C37.3722 29.2283 37.3738 29.4171 37.7255 30.2436L38.0097 30.9115L37.6708 31.2587L37.3317 31.6058L36.5326 31.28L35.7333 30.9542L34.9226 31.3295C34.4766 31.5361 33.9391 31.7509 33.7281 31.8071C33.24 31.9371 33.0977 32.0994 32.7693 32.9008L32.5027 33.5514H32.0016H31.5005L31.2338 32.9008C30.9055 32.0994 30.7631 31.9371 30.275 31.8071C30.064 31.7509 29.5265 31.5361 29.0805 31.3295L28.2698 30.9542L27.4706 31.28L26.6714 31.6058L26.3324 31.2587L25.9934 30.9115L26.2776 30.2436C26.6293 29.4171 26.6309 29.2283 26.2919 28.5545C26.1434 28.2594 25.9456 27.7746 25.8523 27.4773C25.6472 26.8235 25.567 26.7457 24.7317 26.3898L24.0765 26.1108L24.0489 25.6073L24.0214 25.1038L24.7763 24.7952C25.599 24.4588 25.6076 24.4493 25.9041 23.5612C26.0157 23.2268 26.2094 22.777 26.3344 22.5615C26.6305 22.0514 26.6212 21.75 26.2857 20.9696L26.0094 20.3273L26.3655 19.9674L26.7216 19.6077L27.4018 19.8971C27.776 20.0563 28.1635 20.1866 28.263 20.1866C28.3625 20.1866 28.664 20.0744 28.9331 19.9374C29.2022 19.8004 29.7383 19.5787 30.1243 19.4446L30.8261 19.2011L31.1257 18.498C31.2905 18.1114 31.4722 17.7423 31.5295 17.6778C31.6382 17.5556 32.0059 17.5265 32.3325 17.6142ZM11.4834 21.0072C11.3025 21.166 8.47535 24.6856 8.15178 25.1548C7.77757 25.6975 8.13452 26.3766 8.79404 26.3766C9.19067 26.3766 9.26664 26.3055 10.3835 24.8898L11.1338 23.9387L11.1807 37.139L11.2276 50.3394L11.4903 50.9021C11.8322 51.6347 12.3794 52.1839 13.0923 52.5101C13.631 52.7566 13.7593 52.7748 15.1921 52.8084C16.0314 52.8281 16.8238 52.8177 16.9529 52.7852C17.5613 52.6325 17.7684 51.901 17.328 51.4606C17.1033 51.2358 17.0629 51.2303 15.6164 51.2283C14.3775 51.2266 14.0723 51.1979 13.7524 51.0526C13.3053 50.8495 13.0017 50.4969 12.8649 50.0219C12.7987 49.7922 12.7761 45.5298 12.7946 36.8L12.8219 23.9171L13.4778 24.7483C14.5924 26.1606 14.8185 26.3766 15.1829 26.3766C15.6161 26.3766 15.9638 26.0284 15.9638 25.5945C15.9638 25.3177 15.7225 24.9714 14.2383 23.1185C13.2893 21.9337 12.4417 20.9371 12.3549 20.9037C12.0682 20.7937 11.6732 20.8406 11.4834 21.0072ZM30.4988 21.0566C27.0986 22.2159 26.1028 26.4652 28.6374 28.9999C30.4809 30.8433 33.5046 30.846 35.3449 29.0057C37.5451 26.8055 37.1831 23.2542 34.5875 21.5751C33.4294 20.826 31.7862 20.6176 30.4988 21.0566ZM33.1909 22.6395C33.8406 22.8825 34.5736 23.576 34.9108 24.2664C35.1012 24.6563 35.1401 24.8774 35.1416 25.5794C35.1432 26.3158 35.1101 26.4916 34.8814 26.9572C34.5031 27.7275 33.7507 28.3846 32.9712 28.6254C32.1986 28.864 31.8045 28.864 31.0319 28.6254C30.2524 28.3846 29.5001 27.7275 29.1217 26.9572C28.8931 26.4916 28.86 26.3158 28.8616 25.5794C28.8638 24.5536 29.0738 24.0463 29.7972 23.3191C30.6531 22.4587 31.9914 22.1908 33.1909 22.6395ZM24.7799 43.2115V44.8528H22.3883H19.9967V43.2115V41.5702H22.3883H24.7799V43.2115ZM34.3932 43.2115V44.8059H32.0016H29.61L29.5841 43.3091C29.5697 42.4858 29.5793 41.7571 29.6052 41.6896C29.6425 41.5922 30.1394 41.5721 32.0227 41.5921L34.3932 41.6171V43.2115ZM44.0064 43.2115V44.8528H41.6148H39.2232V43.2115V41.5702H41.6148H44.0064V43.2115ZM51.4583 46.6775C51.2335 46.9022 51.228 46.9425 51.226 48.3891C51.2243 49.6279 51.1955 49.9331 51.0503 50.253C50.8472 50.7001 50.4946 51.0037 50.0196 51.1405C49.7899 51.2068 45.5275 51.2294 36.7977 51.2109L23.9148 51.1835L24.746 50.5276C26.1583 49.4131 26.3743 49.1869 26.3743 48.8226C26.3743 48.3887 26.0261 48.0416 25.5909 48.0416C25.3121 48.0416 24.9681 48.2823 23.0777 49.8001C20.9148 51.5369 20.8873 51.5633 20.8597 51.9412C20.8402 52.2064 20.8833 52.3828 21.0003 52.5164C21.1621 52.7012 24.6735 55.5233 25.1525 55.8537C25.6842 56.2204 26.3743 55.8577 26.3743 55.2116C26.3743 54.8148 26.3034 54.7389 24.8875 53.622L23.9364 52.8717L37.1367 52.8248L50.3371 52.7779L50.8998 52.5152C51.6324 52.1732 52.1816 51.6261 52.5078 50.9131C52.7543 50.3745 52.7725 50.2462 52.8061 48.8134C52.8258 47.9741 52.8154 47.1817 52.7829 47.0525C52.6302 46.4441 51.8987 46.237 51.4583 46.6775Z" fill="#A39E60"/>
</svg>
