<svg width="64" height="64" viewBox="0 0 64 64" fill="none" xmlns="http://www.w3.org/2000/svg">
<path fill-rule="evenodd" clip-rule="evenodd" d="M50.4359 8.05748C48.8941 8.56514 48.0114 10.0805 48.4056 11.5431C48.4822 11.8272 48.5161 12.0854 48.481 12.1169C48.2824 12.2957 40.3223 18.6558 40.2228 18.7153C40.1552 18.7556 39.9149 18.696 39.6728 18.5788C39.0799 18.2918 38.1209 18.2308 37.4905 18.4402C36.8408 18.6561 36.0678 19.3693 35.7842 20.0148C35.5468 20.5549 35.4916 21.606 35.6764 22.0685C35.7871 22.3459 36.3606 21.8488 30.5025 26.5538L27.4223 29.0276L26.8408 28.7656C26.1365 28.4484 25.3407 28.4143 24.6649 28.6724L24.2187 28.8427L23.3473 27.9623C22.8681 27.4781 20.8694 25.4216 18.9058 23.3923L15.3355 19.7027L15.5342 19.2612C15.8363 18.5896 15.8142 17.6534 15.4799 16.9704C14.9681 15.9242 14.0496 15.354 12.8799 15.3564C11.7327 15.3587 10.8588 15.8961 10.3515 16.9112C9.97111 17.6725 9.94453 18.6547 10.2845 19.3848C10.5584 19.973 11.3265 20.6772 11.9113 20.8765C12.4697 21.0668 13.2928 21.0676 13.8784 20.8785L14.3352 20.731L15.8844 22.3092C16.7364 23.1771 18.1301 24.606 18.9815 25.4846C19.8328 26.3631 21.1335 27.6965 21.8718 28.4476L23.2142 29.8134L23.0094 30.2763C22.5704 31.2688 22.8325 32.5686 23.6334 33.3694C24.9331 34.6692 27.1942 34.3938 28.0896 32.8268C28.5625 31.9992 28.643 31.1373 28.3248 30.3081C28.2798 30.1909 29.2148 29.3921 32.2807 26.9283C34.4888 25.1538 36.3721 23.6463 36.466 23.5782C36.6123 23.4723 36.7137 23.4924 37.1752 23.7191C38.3073 24.275 39.7281 23.9873 40.569 23.0319C41.1951 22.3207 41.4415 21.1356 41.1477 20.248C41.0354 19.9088 41.0418 19.8834 41.2872 19.6903C41.4286 19.5791 43.3174 18.0642 45.4845 16.3237L49.4247 13.1595L49.9028 13.4075C50.3115 13.6196 50.4977 13.6555 51.183 13.6544C51.8701 13.6532 52.054 13.6169 52.466 13.4006C53.0795 13.0787 53.6682 12.4107 53.8677 11.8103C54.0881 11.1468 54.0234 10.1365 53.7225 9.54047C53.4455 8.99206 52.9104 8.4905 52.3267 8.2323C51.8601 8.02593 50.823 7.93007 50.4359 8.05748ZM51.8516 9.57521C52.3532 9.83115 52.5946 10.2446 52.5949 10.8485C52.5956 11.7401 51.9451 12.3417 51.0627 12.2656C50.4931 12.2165 50.1679 11.9829 49.8857 11.4201C49.6292 10.9087 49.6586 10.53 49.994 10.0279C50.4073 9.40931 51.1645 9.22472 51.8516 9.57521ZM13.5407 16.9183C14.0932 17.1969 14.4315 17.827 14.3351 18.3978C14.1135 19.7091 12.3465 20.0657 11.6589 18.9378C11.4082 18.5268 11.4095 17.8155 11.6616 17.4075C11.869 17.0721 12.5054 16.7073 12.8835 16.7072C13.0145 16.7071 13.3103 16.8022 13.5407 16.9183ZM39.1736 19.9231C39.6051 20.2139 39.842 20.6547 39.842 21.1669C39.842 21.7365 39.5867 22.1514 39.073 22.417C38.2641 22.8352 37.3786 22.4927 37.051 21.6348C36.7932 20.9598 37.0431 20.3005 37.7138 19.8863C38.1127 19.6398 38.7781 19.6566 39.1736 19.9231ZM48.5788 19.8439C47.6294 20.0807 46.7658 20.8778 46.4553 21.8039C46.3194 22.209 46.3047 23.7915 46.3047 37.9259C46.3047 53.5606 46.3052 53.6001 46.4996 54.1198C46.7365 54.753 47.3828 55.4441 48.0417 55.7687C48.5073 55.9981 48.5329 56 51.187 56H53.8628L54.3527 55.7418C54.9747 55.4139 55.4362 54.9524 55.7641 54.3304L56.0223 53.8405V37.9262V22.0119L55.7594 21.4764C55.4424 20.8311 54.737 20.1685 54.1205 19.9374C53.746 19.7969 53.3084 19.7663 51.3748 19.7454C49.7124 19.7272 48.937 19.7547 48.5788 19.8439ZM53.7875 21.3311C53.9527 21.4214 54.2062 21.6505 54.3509 21.8401L54.614 22.185L54.6408 37.6372C54.6556 46.1359 54.643 53.2276 54.6127 53.3965C54.5445 53.778 54.0596 54.3431 53.6561 54.5117C53.4305 54.606 52.7886 54.6386 51.1578 54.6386C49.0422 54.6386 48.9483 54.6307 48.5493 54.4203C48.2914 54.2843 48.0566 54.0632 47.9258 53.8335L47.7161 53.465L47.7146 37.9467C47.713 21.1681 47.6852 22.0871 48.2084 21.6049C48.6825 21.168 49.0069 21.1201 51.3278 21.1443C53.1787 21.1637 53.5302 21.1903 53.7875 21.3311ZM9.71047 26.475C9.06037 26.7999 8.53722 27.331 8.24522 27.9624C8.04533 28.3948 8.04448 28.4291 8.01923 37.3375C7.99416 46.1995 7.99566 46.2804 8.18354 46.4683C8.43441 46.7192 8.96827 46.7201 9.2182 46.4702C9.40326 46.2851 9.40598 46.1572 9.40598 37.5995C9.40598 27.8469 9.36739 28.3949 10.0913 27.8704L10.4669 27.5983H12.8801C15.2281 27.5983 15.3017 27.604 15.6037 27.8096C15.7743 27.9258 16.0024 28.1401 16.1105 28.2859L16.3069 28.5509L16.3314 40.998L16.3559 53.445L16.1215 53.8449C15.9648 54.1122 15.7522 54.3103 15.4805 54.4418C15.1037 54.6242 14.9153 54.6386 12.9033 54.6386C10.601 54.6386 10.382 54.6053 9.9343 54.1866C9.45715 53.7405 9.40598 53.4889 9.40598 51.5902C9.40598 49.9754 9.39246 49.8367 9.2182 49.6624C8.96517 49.4094 8.43432 49.4135 8.17743 49.6704C7.98918 49.8587 7.98299 49.9418 8.01435 51.8534C8.04646 53.8072 8.05134 53.8487 8.304 54.3304C8.62998 54.9516 9.09145 55.4135 9.71422 55.7418L10.204 56H12.8799C15.4532 56 15.573 55.9919 16.0066 55.79C16.6408 55.4946 17.3286 54.7575 17.5686 54.1162C17.7645 53.5924 17.7648 53.574 17.74 40.9471L17.7152 28.3025L17.4622 27.8229C17.1396 27.2113 16.4214 26.5651 15.8295 26.3538C15.4325 26.212 15.0125 26.1891 12.8245 26.1895L10.2809 26.19L9.71047 26.475ZM35.4168 29.1195C34.7127 29.3898 34.0042 30.1086 33.7364 30.8245L33.5327 31.3688L33.5577 42.6047L33.5826 53.8405L33.8125 54.3075C34.1053 54.9026 34.6735 55.4708 35.2726 55.7675C35.739 55.9985 35.7596 56 38.418 56H41.0938L41.7041 55.664C42.102 55.4449 42.4332 55.1716 42.6557 54.8786C43.3283 53.993 43.3002 54.4022 43.3002 45.4735C43.3002 37.5819 43.2973 37.4538 43.1124 37.269C42.851 37.0075 42.356 37.0219 42.096 37.2984L41.8919 37.5158V45.423C41.8919 54.0194 41.9127 53.6731 41.3636 54.1866C40.9159 54.6053 40.6968 54.6386 38.3946 54.6386C36.3826 54.6386 36.1942 54.6242 35.8174 54.4418C35.5463 54.3105 35.333 54.1123 35.1774 53.8467L34.944 53.4484V42.4913C34.944 31.7613 34.9479 31.5267 35.1296 31.1703C35.2318 30.9702 35.4536 30.7078 35.6226 30.5872C35.9228 30.3731 35.9851 30.3675 38.3241 30.3437C40.6606 30.3199 40.7273 30.3244 41.0938 30.5318C41.7148 30.8833 41.8919 31.358 41.8919 32.6719C41.8919 33.6903 41.9062 33.7758 42.1091 33.9665C42.3902 34.2304 42.8613 34.234 43.1211 33.9742C43.3052 33.7901 43.3154 33.695 43.2854 32.4485C43.2556 31.2161 43.234 31.08 42.9898 30.5827C42.6667 29.9245 42.044 29.3587 41.3623 29.1036C40.8954 28.929 40.6427 28.9131 38.3909 28.9177C36.1239 28.9222 35.8894 28.9381 35.4168 29.1195ZM26.4155 30.1099C27.161 30.5486 27.3165 31.6298 26.7279 32.2813C26.1313 32.9416 25.2153 32.9728 24.6452 32.3522C23.9469 31.592 24.0721 30.6593 24.9448 30.1203C25.3081 29.8958 26.043 29.8906 26.4155 30.1099ZM23.246 37.2677C22.2752 37.4707 21.4194 38.1358 21.035 38.9858L20.8136 39.4754L20.7878 46.4671C20.759 54.2711 20.7384 53.9926 21.409 54.8756C21.6338 55.1717 21.9634 55.4441 22.3628 55.664L22.9731 56H25.6489C28.3073 56 28.3279 55.9985 28.7942 55.7675C29.3934 55.4708 29.9616 54.9026 30.2544 54.3075L30.4843 53.8405V46.611V39.3815L30.2312 38.9019C29.9137 38.3001 29.1644 37.6186 28.5824 37.4026C28.2114 37.2647 27.761 37.233 25.8837 37.2123C24.6443 37.1986 23.4574 37.2234 23.246 37.2677ZM27.9228 38.6814C28.3704 38.8058 28.8315 39.1946 28.9948 39.5853C29.0989 39.8346 29.1229 41.153 29.1229 46.6402V53.3885L28.9066 53.7973C28.7574 54.0795 28.5611 54.2746 28.2732 54.4269C27.8631 54.6437 27.816 54.647 25.5482 54.6195C23.2631 54.5919 23.2371 54.5893 22.8941 54.3569C22.7036 54.2278 22.4639 53.9504 22.3614 53.7404C22.1807 53.3705 22.175 53.1512 22.175 46.6253C22.175 39.364 22.1637 39.5352 22.6704 39.0684C23.1212 38.6529 23.4935 38.5919 25.602 38.588C26.6864 38.5861 27.7308 38.6281 27.9228 38.6814Z" fill="#E86851"/>
</svg>
