<svg width="64" height="64" viewBox="0 0 64 64" fill="none" xmlns="http://www.w3.org/2000/svg">
<path fill-rule="evenodd" clip-rule="evenodd" d="M14.472 8.16158C11.8182 8.7373 9.61162 10.5848 8.60951 13.0698C7.9762 14.6403 8.00012 14.0554 8.00012 28.0023C8.00012 39.0515 8.01822 40.6923 8.14728 41.3728C8.72394 44.4127 10.8658 46.7893 13.8623 47.7145L14.7065 47.975L19.0915 48.0065L23.4764 48.0379V50.6121V53.1864L21.2488 53.1866C19.3152 53.1867 18.9781 53.2084 18.6947 53.3507C17.6906 53.8552 17.6906 55.3315 18.6947 55.836C19.0008 55.9898 19.8289 56 31.9649 56C44.1009 56 44.9291 55.9898 45.2351 55.836C45.7037 55.6006 45.9874 55.1319 45.9874 54.5933C45.9874 54.0548 45.7037 53.5861 45.2351 53.3507C44.9518 53.2084 44.6147 53.1867 42.6811 53.1866L40.4534 53.1864V50.6121V48.0379L44.8384 48.0065L49.2233 47.975L50.0675 47.7138C52.78 46.8742 54.7653 44.889 55.6195 42.162L55.8828 41.3213V28.0492V14.7771L55.6676 14.0267C54.8621 11.2173 52.6763 9.0306 49.8799 8.2368L49.1295 8.02379L32.1994 8.00616C16.0597 7.98937 15.232 7.99669 14.472 8.16158ZM49.1348 10.9797C51.0323 11.4651 52.5506 13.0338 52.9727 14.9452C53.1059 15.5485 53.1191 16.9903 53.0955 28.3306L53.0689 41.0399L52.8501 41.6236C52.275 43.1579 51.0599 44.373 49.5256 44.9481L48.9419 45.1669L32.2066 45.1916C13.7572 45.2188 15.0073 45.2566 13.7217 44.634C12.9886 44.2791 11.8306 43.1592 11.4432 42.4304C11.3012 42.1634 11.1016 41.6185 10.9995 41.2195C10.8192 40.5143 10.814 40.1435 10.8154 28.0107C10.8169 14.2587 10.7881 14.9606 11.4019 13.7034C11.8097 12.868 12.8933 11.7855 13.7311 11.3764C14.9694 10.7719 13.8594 10.8072 31.9265 10.7986C48.1413 10.7909 48.4075 10.7937 49.1348 10.9797ZM24.2693 14.1042C23.5093 14.397 22.9967 14.9187 22.742 15.6587C22.6636 15.8865 22.6322 17.399 22.6322 20.9583V25.939L22.2085 26.1639C21.6639 26.4528 21.1746 26.9978 20.8628 27.6627C20.6368 28.1447 20.6157 28.2903 20.6167 29.3623C20.6177 30.4481 20.6371 30.5763 20.88 31.0975C21.2133 31.8126 21.9058 32.4732 22.6146 32.7522C23.1092 32.9468 23.3311 32.9649 25.6572 33.0003L28.1662 33.0383V35.8304C28.1662 37.3661 28.209 38.8498 28.2613 39.1278C28.3952 39.8391 28.7639 40.5442 29.263 41.0432C31.0305 42.8107 34.0194 42.2662 35.0902 39.9817L35.3416 39.4453L35.3685 36.2328L35.3955 33.0203L37.5727 33.0198C38.7702 33.0195 39.9949 32.9792 40.2942 32.9301C41.3459 32.7579 42.1894 32.151 42.6742 31.218C42.9053 30.7733 42.9355 30.604 42.9685 29.5701C42.9975 28.6625 42.9715 28.314 42.8455 27.9286C42.624 27.251 42.1584 26.6548 41.5479 26.2671L41.031 25.9388L41.0002 20.8738C40.9661 15.2775 40.991 15.5105 40.3486 14.7789C39.4274 13.7297 37.7027 13.7181 36.7172 14.7548C36.5451 14.9356 36.3077 15.3506 36.1897 15.677L35.9748 16.2703L35.9047 15.9458C35.7305 15.1398 35.0008 14.3058 34.281 14.0901C33.7632 13.935 24.6754 13.9477 24.2693 14.1042ZM27.9786 18.9371C27.9786 21.0093 27.9856 21.0911 28.1915 21.3992C28.7637 22.2558 29.8945 22.234 30.5522 21.3538C30.732 21.1132 30.7477 20.9433 30.7767 18.9443L30.8078 16.7937H32.0158H33.2239L33.3176 17.1454C33.3692 17.3389 33.5781 18.1242 33.7819 18.8906C34.1969 20.4512 34.4124 20.8228 35.1089 21.1786C35.6684 21.4645 36.2933 21.4572 36.884 21.1578C37.4356 20.8783 37.7043 20.5225 37.9798 19.7065L38.1874 19.0917L38.1949 22.398L38.2023 25.7043H31.8242H25.4461V21.249V16.7937H26.7124H27.9786V18.9371ZM39.9906 28.6152C40.1431 28.6969 40.172 28.8157 40.172 29.3623C40.172 29.909 40.1431 30.0277 39.9906 30.1094C39.8695 30.1741 37.124 30.2065 31.7433 30.2065C24.5357 30.2065 23.6617 30.1908 23.53 30.0591C23.4296 29.9587 23.3826 29.7366 23.3826 29.3623C23.3826 28.988 23.4296 28.766 23.53 28.6655C23.6617 28.5338 24.5357 28.5181 31.7433 28.5181C37.124 28.5181 39.8695 28.5505 39.9906 28.6152ZM32.5746 35.9325V38.8446L32.3264 39.0747C32.0105 39.3674 31.6279 39.3688 31.2901 39.0784L31.027 38.8521L30.9997 35.9363L30.9724 33.0203H31.7735H32.5746V35.9325ZM37.6395 50.607V53.1864H31.9649H26.2903V50.607V48.0276H31.9649H37.6395V50.607Z" fill="#B4C02A"/>
</svg>
