<svg width="64" height="64" viewBox="0 0 64 64" fill="none" xmlns="http://www.w3.org/2000/svg">
<path fill-rule="evenodd" clip-rule="evenodd" d="M31.2673 8.04678C30.3706 8.28246 29.5824 8.93114 29.1904 9.75616C28.9488 10.2647 28.8612 11.3146 29.0146 11.8626C29.0804 12.0975 29.0588 12.1337 28.8207 12.1868C26.7277 12.6541 24.5535 13.6865 22.8867 15.0044L22.1305 15.6025L21.4332 14.9005L20.736 14.1985L20.9467 13.5769C21.211 12.7974 21.161 11.9771 20.8065 11.2776C20.4494 10.5727 20.1483 10.2616 19.469 9.89528C18.9089 9.59329 18.7896 9.56614 18.034 9.56905C17.0618 9.57264 16.4803 9.8026 15.8504 10.4325C15.219 11.0639 14.9902 11.6439 14.989 12.6161C14.9882 13.32 15.0256 13.5124 15.2454 13.9353C15.6226 14.6613 15.9191 14.9707 16.5702 15.3176C17.3752 15.7467 18.1524 15.8144 18.9949 15.5288L19.6164 15.318L20.3184 16.0153L21.0204 16.7126L20.4223 17.4688C18.8334 19.4783 17.6227 22.3774 17.4084 24.686C17.297 25.8877 17.373 25.8009 16.4326 25.8009C15.8023 25.8009 15.6104 25.77 15.6104 25.6685C15.6104 25.5957 15.4572 25.23 15.2701 24.8559C14.8565 24.0293 14.2747 23.4693 13.398 23.0539C12.8124 22.7765 12.6623 22.7471 11.8294 22.7471C10.9965 22.7471 10.8465 22.7765 10.2608 23.0539C9.35949 23.4809 8.79817 24.0305 8.3621 24.9129C8.01997 25.6051 8 25.6967 8 26.5765C8 27.4563 8.01997 27.5479 8.3621 28.2401C8.79817 29.1225 9.35949 29.6721 10.2608 30.0991C10.8465 30.3766 10.9965 30.4059 11.8294 30.4059C12.6623 30.4059 12.8124 30.3766 13.398 30.0991C14.2747 29.6838 14.8565 29.1237 15.2701 28.2971C15.4572 27.923 15.6104 27.5573 15.6104 27.4845C15.6104 27.383 15.8023 27.3521 16.4326 27.3521C17.373 27.3521 17.2972 27.2656 17.4081 28.467C17.4923 29.38 17.9544 31.1447 18.3803 32.1789C18.9286 33.5107 19.7302 34.8467 20.6656 35.9879L21.0293 36.4315L20.3229 37.1333L19.6164 37.835L18.9949 37.6242C17.5151 37.1225 15.9166 37.8026 15.2252 39.2281C15.0331 39.6241 14.9899 39.8639 14.989 40.5369C14.9882 41.2408 15.0256 41.4332 15.2454 41.8561C15.625 42.5867 15.9187 42.8909 16.5991 43.2577C17.157 43.5586 17.2814 43.5872 18.034 43.5872C18.7866 43.5872 18.9111 43.5586 19.469 43.2577C20.1483 42.8914 20.4494 42.5803 20.8065 41.8755C21.1612 41.1755 21.211 40.3557 20.9463 39.5749L20.7352 38.9523L21.418 38.2695L22.1008 37.5867L22.7669 38.3104C24.1285 39.7898 24.5414 40.3125 24.909 41.0216C25.3171 41.8092 25.6929 42.9207 25.6929 43.3402C25.6929 43.5752 25.6402 43.6161 25.1876 43.7321C24.798 43.8319 24.5696 43.975 24.1906 44.3563C23.3438 45.2083 23.222 46.3166 23.8723 47.2505C24.0552 47.5131 24.0552 47.5211 23.8723 47.7837C23.2229 48.7163 23.344 49.8283 24.1869 50.6712C24.6577 51.1419 25.1796 51.395 25.6799 51.395C25.8147 51.395 25.8868 51.456 25.8868 51.5701C25.8868 51.9181 26.2985 52.9531 26.6587 53.5104C27.3713 54.613 28.3646 55.3749 29.6677 55.8185C30.1131 55.9701 30.4962 56 31.9944 56C33.4927 56 33.8758 55.9701 34.3212 55.8185C36.1584 55.1931 37.5305 53.7808 37.9742 52.0583C38.1105 51.5293 38.1826 51.395 38.3304 51.395C38.8095 51.395 39.3383 51.1348 39.802 50.6712C40.584 49.8892 40.733 49.0216 40.25 48.064L39.9741 47.5171L40.25 46.9702C40.7336 46.0114 40.5843 45.1471 39.7983 44.3563C39.4192 43.975 39.1908 43.8319 38.8013 43.7321C38.3487 43.6161 38.296 43.5752 38.296 43.3402C38.296 42.9207 38.6718 41.8092 39.0799 41.0216C39.4475 40.3125 39.8604 39.7898 41.222 38.3104L41.8881 37.5867L42.5709 38.2695L43.2537 38.9523L43.0426 39.5749C42.7779 40.3557 42.8277 41.1755 43.1824 41.8755C43.5395 42.5803 43.8406 42.8914 44.5199 43.2577C45.0778 43.5586 45.2022 43.5872 45.9548 43.5872C46.7075 43.5872 46.8319 43.5586 47.3898 43.2577C48.0701 42.8909 48.3639 42.5867 48.7435 41.8561C48.9622 41.4353 49.0011 41.2372 49.003 40.5369C49.0049 39.7823 48.9773 39.6614 48.6757 39.102C48.3093 38.4227 47.9982 38.1216 47.2934 37.7644C46.5938 37.41 45.7736 37.36 44.994 37.6242L44.3725 37.835L43.6687 37.136L42.9651 36.437L43.6288 35.5782C45.2148 33.5261 46.3711 30.7406 46.5808 28.467C46.6916 27.2656 46.6159 27.3521 47.5563 27.3521C48.1866 27.3521 48.3785 27.383 48.3785 27.4845C48.3785 27.5573 48.5317 27.923 48.7188 28.2971C49.1324 29.1237 49.7142 29.6838 50.5909 30.0991C51.1773 30.3769 51.3259 30.4059 52.1645 30.4059C53.0385 30.4059 53.1317 30.3856 53.8231 30.0438C54.7055 29.6078 55.2551 29.0464 55.6821 28.1451C55.9599 27.5587 55.9889 27.4101 55.9889 26.5715C55.9889 25.6975 55.9685 25.6043 55.6268 24.9129C55.1907 24.0305 54.6294 23.4809 53.7281 23.0539C53.1424 22.7765 52.9923 22.7471 52.1595 22.7471C51.3266 22.7471 51.1765 22.7765 50.5909 23.0539C49.7142 23.4693 49.1324 24.0293 48.7188 24.8559C48.5317 25.23 48.3785 25.5957 48.3785 25.6685C48.3785 25.77 48.1866 25.8009 47.5563 25.8009C46.6159 25.8009 46.6919 25.8877 46.5805 24.686C46.3659 22.3747 45.1361 19.4425 43.5376 17.4308L42.9675 16.7136L43.67 16.0158L44.3725 15.318L44.994 15.5288C45.8365 15.8144 46.6137 15.7467 47.4187 15.3176C48.0698 14.9707 48.3663 14.6613 48.7435 13.9353C48.9629 13.5131 49.0008 13.3189 49.0008 12.6161C49.0008 11.9133 48.9629 11.7191 48.7435 11.2969C48.3639 10.5663 48.0701 10.2621 47.3898 9.89528C46.8297 9.59329 46.7105 9.56614 45.9548 9.56905C45.2847 9.57157 45.0402 9.61607 44.6461 9.80725C43.2205 10.4987 42.5405 12.0971 43.0422 13.5769L43.2529 14.1985L42.5536 14.9025L41.8543 15.6065L41.192 15.0715C39.7241 13.8854 37.6032 12.821 35.7357 12.3332C35.314 12.223 34.9553 12.1192 34.9385 12.1024C34.9218 12.0857 34.9556 11.9 35.0137 11.6897C35.2339 10.8922 34.9194 9.71845 34.2831 8.96206C33.8697 8.47083 32.9642 8.05406 32.2127 8.00936C31.8527 7.98784 31.4273 8.00471 31.2673 8.04678ZM32.608 9.64603C33.6041 10.0622 33.8469 11.3681 33.0723 12.1428C32.4434 12.7716 31.5455 12.7716 30.9166 12.1428C29.7177 10.9439 31.0406 8.99115 32.608 9.64603ZM18.6476 11.1972C19.6437 11.6134 19.8865 12.9193 19.1119 13.694C18.483 14.3228 17.5851 14.3228 16.9562 13.694C15.7573 12.495 17.0802 10.5423 18.6476 11.1972ZM46.5684 11.1972C47.5645 11.6134 47.8073 12.9193 47.0327 13.694C46.4038 14.3228 45.5059 14.3228 44.877 13.694C43.6781 12.495 45.001 10.5423 46.5684 11.1972ZM30.6739 13.835L31.2189 14.0846V15.2892V16.494H30.1581H29.0972L28.8746 17.1852C28.5815 18.0953 28.4397 18.1622 27.6494 17.7631C27.3228 17.5983 27.0009 17.4635 26.934 17.4635C26.8671 17.4635 26.4948 17.7788 26.1068 18.1643L25.4013 18.8651L24.3404 17.8074C23.7568 17.2258 23.3039 16.7102 23.3338 16.6618C23.438 16.4932 24.9378 15.4255 25.5566 15.0795C26.432 14.5899 27.6807 14.0962 28.7269 13.8257C29.8634 13.532 30.0135 13.5327 30.6739 13.835ZM35.6409 13.9294C37.2931 14.4057 38.9118 15.2339 40.1527 16.2379L40.741 16.714L39.6649 17.7901L38.5888 18.8662L37.8826 18.1649C37.4943 17.7791 37.1218 17.4635 37.0549 17.4635C36.988 17.4635 36.666 17.5983 36.3395 17.7631C35.5492 18.1622 35.4074 18.0953 35.1143 17.1852L34.8917 16.494H33.8308H32.77V15.2886V14.0831L33.279 13.8368C33.8928 13.5397 34.3511 13.5577 35.6409 13.9294ZM23.5828 20.6883C23.1971 21.0767 22.8814 21.4492 22.8814 21.5161C22.8814 21.5829 23.0163 21.9049 23.1811 22.2314C23.5801 23.0217 23.5132 23.1636 22.6032 23.4566L21.9119 23.6792V24.7401V25.8009H20.37H18.828L18.8748 25.3889C19.0558 23.7904 19.5734 21.9389 20.1735 20.7431C20.5607 19.9714 21.3894 18.69 21.8144 18.206L22.1387 17.8367L23.2114 18.9094L24.2841 19.9822L23.5828 20.6883ZM42.8697 19.1541C44.1407 21.0514 44.8442 23.0057 45.1141 25.3889L45.1609 25.8009H43.6189H42.077V24.7401V23.6792L41.3857 23.4566C40.4757 23.1636 40.4088 23.0217 40.8078 22.2314C40.9726 21.9049 41.1075 21.5829 41.1075 21.5161C41.1075 21.4492 40.7921 21.0769 40.4067 20.6889L39.7058 19.9833L40.7663 18.9195L41.8268 17.8557L42.058 18.0716C42.1851 18.1904 42.5504 18.6775 42.8697 19.1541ZM33.9838 18.5848L34.1758 19.1244L34.9756 19.444L35.7753 19.7635L36.2794 19.53L36.7834 19.2965L38.0289 20.542L39.2744 21.7875L39.041 22.2915L38.8074 22.7957L39.127 23.5954L39.4466 24.3952L39.9862 24.5872L40.5258 24.7791V26.5765V28.3739L39.9862 28.5659L39.4466 28.7578L39.127 29.5576L38.8074 30.3574L39.041 30.8615L39.2744 31.3655L38.0289 32.611L36.7834 33.8565L36.2794 33.623L35.7753 33.3895L34.9756 33.709L34.1758 34.0287L33.9838 34.5683L33.7918 35.1079H31.9944H30.197L30.0051 34.5683L29.8131 34.0287L29.0133 33.709L28.2136 33.3895L27.7095 33.623L27.2054 33.8565L25.96 32.611L24.7145 31.3655L24.9479 30.8615L25.1815 30.3574L24.8619 29.5576L24.5423 28.7578L24.0027 28.5659L23.4631 28.3739V26.5765V24.7791L24.0027 24.5872L24.5423 24.3952L24.8619 23.5954L25.1815 22.7957L24.9479 22.2915L24.7145 21.7875L25.96 20.542L27.2054 19.2965L27.7095 19.53L28.2136 19.7635L29.0133 19.444L29.8131 19.1244L30.0051 18.5848L30.197 18.0451H31.9944H33.7918L33.9838 18.5848ZM30.6473 20.5218C29.5772 20.754 28.4587 21.3798 27.6297 22.2104C25.2042 24.6406 25.1842 28.5071 27.585 30.8907C28.7706 32.0677 30.0691 32.6626 31.6462 32.751C34.4757 32.9096 37.0708 31.1019 37.9353 28.37C38.2399 27.4076 38.2399 25.7454 37.9353 24.783C36.9586 21.6967 33.7852 19.8411 30.6473 20.5218ZM33.1053 22.0715C35.5881 22.7182 37.1312 25.2619 36.5033 27.6727C36.0654 29.3539 34.7774 30.646 33.1053 31.0816C30.6833 31.7124 28.1369 30.1733 27.4894 27.6873C26.6261 24.3727 29.7906 21.2082 33.1053 22.0715ZM31.2673 23.5583C30.3733 23.7932 29.588 24.4381 29.1856 25.2677C28.9944 25.6619 28.9499 25.9063 28.9474 26.5765C28.9445 27.3321 28.9716 27.4514 29.2736 28.0114C29.6405 28.6918 29.9447 28.9856 30.6753 29.3652C31.0975 29.5846 31.2917 29.6225 31.9944 29.6225C32.6972 29.6225 32.8914 29.5846 33.3136 29.3652C34.0442 28.9856 34.3484 28.6918 34.7153 28.0114C35.0169 27.452 35.0445 27.3311 35.0426 26.5765C35.0407 25.8763 35.0018 25.6781 34.7831 25.2573C34.4053 24.5303 34.1093 24.2219 33.4537 23.8726C32.8288 23.5394 31.8658 23.401 31.2673 23.5583ZM12.5453 24.3677C13.0778 24.525 13.8809 25.3281 14.0383 25.8606C14.3068 26.7696 14.1175 27.4943 13.4323 28.1794C12.4515 29.1602 11.2073 29.1602 10.2265 28.1794C9.24568 27.1986 9.24568 25.9555 10.2265 24.9725C10.9066 24.291 11.6391 24.0999 12.5453 24.3677ZM52.8753 24.3677C53.7085 24.6138 54.4862 25.6802 54.4862 26.5765C54.4862 27.7778 53.3607 28.9032 52.1595 28.9032C50.9582 28.9032 49.8327 27.7778 49.8327 26.5765C49.8327 25.9672 50.0546 25.4756 50.5565 24.9725C51.2366 24.291 51.9692 24.0999 52.8753 24.3677ZM32.608 25.1576C33.6041 25.5738 33.8469 26.8797 33.0723 27.6544C32.4434 28.2832 31.5455 28.2832 30.9166 27.6544C29.7177 26.4554 31.0406 24.5027 32.608 25.1576ZM21.9119 28.4129V29.4738L22.6032 29.6964C23.5132 29.9894 23.5801 30.1313 23.1811 30.9216C23.0163 31.2481 22.8814 31.5701 22.8814 31.637C22.8814 31.7039 23.1968 32.0761 23.5822 32.4641L24.2831 33.1697L23.2187 34.2408L22.1543 35.3118L21.8262 34.9432C21.3112 34.3648 20.4796 33.0495 20.0749 32.1735C19.4623 30.8474 19.0541 29.348 18.8748 27.7641L18.828 27.3521H20.37H21.9119V28.4129ZM45.1141 27.7641C44.8025 30.5152 43.7042 33.1829 42.1583 34.9432L41.8346 35.3118L40.7702 34.2408L39.7058 33.1697L40.4067 32.4641C40.7921 32.0761 41.1075 31.7039 41.1075 31.637C41.1075 31.5701 40.9726 31.2481 40.8078 30.9216C40.4088 30.1313 40.4757 29.9894 41.3857 29.6964L42.077 29.4738V28.4129V27.3521H43.6189H45.1609L45.1141 27.7641ZM26.1291 35.0109C26.4995 35.3842 26.8595 35.6895 26.9291 35.6895C26.9988 35.6895 27.3228 35.5547 27.6494 35.3899C28.4397 34.9909 28.5815 35.0577 28.8746 35.9678L29.0972 36.659H30.1581H31.2189V39.4149V42.1708L30.7099 42.4066C30.189 42.6479 29.8765 42.8994 29.5053 43.3761C29.2966 43.6442 29.2876 43.646 28.3002 43.6185L27.3053 43.5908L27.1799 42.8476C27.0331 41.9766 26.6933 41.0299 26.2114 40.1491C25.7951 39.388 25.4591 38.9608 24.2193 37.6159C23.6967 37.049 23.2692 36.5481 23.2692 36.5025C23.2692 36.4135 25.3154 34.3323 25.403 34.3323C25.432 34.3323 25.7588 34.6377 26.1291 35.0109ZM39.7174 35.4143L40.8025 36.4963L39.7666 37.6199C38.487 39.0077 38.2162 39.3522 37.7787 40.1491C37.2967 41.0271 36.9562 41.9744 36.8089 42.8476L36.6836 43.5908L35.6887 43.6185C34.7147 43.6456 34.6897 43.6409 34.493 43.3907C34.1199 42.9165 33.7902 42.6502 33.279 42.4099L32.77 42.1708V39.4149V36.659H33.8308H34.8917L35.1143 35.9678C35.4074 35.0577 35.5492 34.9909 36.3395 35.3899C36.666 35.5547 36.9901 35.6895 37.0597 35.6895C37.1294 35.6895 37.4894 35.3842 37.8598 35.0109C38.2301 34.6377 38.5554 34.3323 38.5828 34.3323C38.61 34.3323 39.1206 34.8192 39.7174 35.4143ZM18.6476 39.118C19.6437 39.5342 19.8865 40.8401 19.1119 41.6148C18.0227 42.704 16.2378 41.7284 16.5244 40.2004C16.6957 39.2877 17.7578 38.7462 18.6476 39.118ZM46.5684 39.118C47.5645 39.5342 47.8073 40.8401 47.0327 41.6148C45.9435 42.704 44.1586 41.7284 44.4452 40.2004C44.6165 39.2877 45.6786 38.7462 46.5684 39.118ZM32.608 43.7715C33.6041 44.1877 33.8469 45.4935 33.0723 46.2682C31.9831 47.3574 30.1982 46.3819 30.4848 44.8539C30.6561 43.9412 31.7182 43.3997 32.608 43.7715ZM28.9971 45.7968C29.0816 46.1298 29.1843 46.4786 29.2256 46.5719C29.2956 46.7303 29.1739 46.7415 27.3955 46.7415C25.5018 46.7415 25.4887 46.7401 25.2522 46.5035C25.1022 46.3536 25.0142 46.1548 25.0142 45.966C25.0142 45.7771 25.1022 45.5784 25.2522 45.4284C25.4866 45.194 25.5157 45.1904 27.167 45.1909L28.8437 45.1914L28.9971 45.7968ZM38.7366 45.4284C38.8867 45.5784 38.9746 45.7771 38.9746 45.966C38.9746 46.1548 38.8867 46.3536 38.7366 46.5035C38.5002 46.7401 38.4871 46.7415 36.5934 46.7415C34.815 46.7415 34.6933 46.7303 34.7633 46.5719C34.8046 46.4786 34.9073 46.1298 34.9918 45.7968L35.1452 45.1914L36.8219 45.1909C38.4732 45.1904 38.5023 45.194 38.7366 45.4284ZM38.7366 48.5307C39.0515 48.8455 39.0515 49.2911 38.7366 49.6058L38.4987 49.8438H31.9944H25.4902L25.2522 49.6058C25.1022 49.4559 25.0142 49.2571 25.0142 49.0683C25.0142 48.8794 25.1022 48.6807 25.2522 48.5307L25.4902 48.2927H31.9944H38.4987L38.7366 48.5307ZM36.551 51.5274C36.551 51.6002 36.3978 51.9659 36.2107 52.34C35.7971 53.1666 35.2153 53.7267 34.3386 54.142L33.691 54.4488H31.9944H30.2979L29.6503 54.142C28.7736 53.7267 28.1918 53.1666 27.7782 52.34C27.5911 51.9659 27.4379 51.6002 27.4379 51.5274C27.4379 51.4174 28.2081 51.395 31.9944 51.395C35.7808 51.395 36.551 51.4174 36.551 51.5274Z" fill="#8BC1AC"/>
</svg>
