<svg width="88" height="88" viewBox="0 0 88 88" fill="none" xmlns="http://www.w3.org/2000/svg">
<path fill-rule="evenodd" clip-rule="evenodd" d="M33.7547 13.1143C27.5617 19.2683 26.609 33.1493 31.7613 42.1512C33.4801 45.1544 34.2755 47.808 34.0732 49.8626C33.8094 52.5444 33.271 53.1163 30.3445 53.8271C21.395 56.0011 16.658 57.6236 15.288 58.9849C14.4653 59.8024 12.9 63.4494 11.8085 67.0896C9.60412 74.4447 9.41749 75.9264 10.6965 75.9264C11.1763 75.9264 12.3156 72.8969 13.2292 69.1937C14.1419 65.4904 15.4385 61.7143 16.1098 60.8025C17.5579 58.8354 30.6572 55.2729 31.1887 56.7021C31.3851 57.2284 30.0103 58.9169 28.1343 60.453C26.2592 61.99 23.79 65.2214 22.6487 67.6343C20.1658 72.8814 20.1863 72.6581 22.1269 73.398C24.3889 74.2602 25.7765 73.1077 24.4251 71.489C22.8695 69.6267 27.8011 61.1084 30.1745 61.558C33.183 62.1269 32.76 73.0135 29.7299 73.0135C28.9033 73.0135 28.4108 73.5592 28.6345 74.2272C29.3684 76.4157 32.6622 75.5729 33.3785 73.0135C34.3927 69.3898 34.3751 63.4028 33.3443 61.488C32.7707 60.4239 32.7981 59.282 33.4185 58.3965C33.9814 57.5925 34.5969 57.4071 34.8588 57.9634C35.1099 58.4975 37.1648 63.2436 39.4259 68.5111C41.686 73.7786 43.9754 78.0936 44.5128 78.1004C45.0502 78.1072 47.3122 73.3766 49.541 67.5867C51.7689 61.7968 53.9674 56.9526 54.4267 56.8216C55.949 56.3866 60.6353 63.5698 60.6353 66.339C60.6353 70.7356 66.3622 72.4416 67.8846 68.4985C68.7005 66.3866 66.8293 63.4882 64.4187 63.129C63.2725 62.9581 61.1835 61.3278 59.7754 59.5063L57.2154 56.1943L62.5895 56.9012C71.1266 58.0227 72.5855 59.0975 74.8036 65.8972C75.8784 69.1927 77.1457 72.2513 77.6206 72.694C78.9378 73.9242 77.3363 66.2856 75.3185 61.7143C73.3721 57.3041 71.8849 56.5633 60.8014 54.4757C55.6911 53.5135 54.4579 52.8988 53.7104 50.9433C52.7538 48.445 54.5498 43.2387 57.5906 39.6917C59.8272 37.0837 59.3504 22.8502 56.8372 17.205C54.4208 11.7763 50.866 9.90039 42.9982 9.90039C37.499 9.90039 36.7144 10.1732 33.7547 13.1143ZM50.2612 12.7696C52.8877 13.7619 55.1058 16.6515 56.2578 20.5811L56.9691 23.0085L54.5869 20.8238C51.6047 18.0896 51.3018 18.1002 47.7549 21.0666C45.6775 22.8036 43.692 23.4959 40.7733 23.4998C38.5308 23.5037 35.4363 24.1591 33.8973 24.9563C30.3592 26.7904 30.3445 26.7885 30.3445 24.4844C30.3445 20.8588 33.5065 14.697 36.0812 13.3066C39.0468 11.7064 46.6791 11.417 50.2612 12.7696ZM55.7448 28.1061C55.7497 30.4782 53.9078 30.985 52.0356 29.1246C51.123 28.2177 50.0882 28.2372 47.3718 29.213C44.5821 30.216 43.2982 30.2277 40.9727 29.2703C38.6354 28.308 37.5928 28.3236 35.6708 29.345C32.4033 31.0831 31.2698 29.5878 34.1172 27.2944C35.6786 26.036 37.9494 25.4359 41.1466 25.4359C44.7786 25.4359 46.5032 24.8815 48.6108 23.0366L51.3526 20.6384L53.5463 23.2794C54.753 24.7329 55.7419 26.904 55.7448 28.1061ZM40.3786 31.5045C41.0792 33.4989 40.0288 35.1456 38.0569 35.1456C36.7349 35.1456 36.2072 34.4523 36.2072 32.7182C36.2072 30.9734 36.7339 30.2908 38.0804 30.2908C39.1103 30.2908 40.145 30.8374 40.3786 31.5045ZM51.8412 32.7182C51.8412 34.463 51.3145 35.1456 49.968 35.1456C48.9382 35.1456 47.9034 34.5999 47.6699 33.9319C46.9693 31.9375 48.0197 30.2908 49.9915 30.2908C51.3135 30.2908 51.8412 30.984 51.8412 32.7182ZM34.7797 34.8077C36.4193 36.8506 37.372 37.2517 39.3927 36.7477C40.7938 36.3982 42.2185 35.2388 42.5595 34.1727C43.3529 31.689 44.6955 31.689 45.4889 34.1727C45.8299 35.2388 47.2546 36.3982 48.6558 36.7477C50.6765 37.2517 51.6292 36.8506 53.2688 34.8077C56.0008 31.4025 57.9502 31.4054 57.0893 34.8145C55.2836 41.9647 49.073 48.7188 44.2919 48.7324C38.3677 48.7499 30.2771 38.9955 31.2093 32.9609C31.4233 31.5725 32.7238 32.2453 34.7797 34.8077ZM44.0242 49.9801C45.9052 49.9675 48.3069 49.7917 49.3613 49.5907C51.9428 49.0975 52.6356 52.5571 50.2954 54.2582C48.2258 55.7622 42.2683 55.9322 38.7136 54.5893C36.8961 53.9028 36.2072 52.9367 36.2072 51.0773C36.2072 48.8441 36.4916 48.6091 38.4058 49.2577C39.6145 49.6675 42.1433 49.9927 44.0242 49.9801ZM50.8133 57.9634C50.6872 60.3831 45.3863 73.097 44.5128 73.0756C43.6695 73.0542 37.1844 59.383 37.1844 57.6265C37.1844 57.2779 40.2623 56.9925 44.0242 56.9925C47.9669 56.9925 50.8426 57.4041 50.8133 57.9634ZM66.0095 67.2012C66.0095 69.282 63.1699 68.982 62.7586 66.8565C62.5075 65.5593 62.9051 65.1641 64.2106 65.4137C65.2004 65.603 66.0095 66.407 66.0095 67.2012Z" fill="#B9C14D"/>
</svg>
