<svg width="88" height="88" viewBox="0 0 88 88" fill="none" xmlns="http://www.w3.org/2000/svg">
<path fill-rule="evenodd" clip-rule="evenodd" d="M12.7943 19.2106C11.5579 22.4091 12.1027 60.9118 13.4028 62.202C14.2565 63.0492 19.6043 63.4239 30.846 63.4239C39.7626 63.4239 47.058 63.6235 47.058 63.8669C47.058 64.1103 46.588 65.5369 46.0134 67.0369C45.0233 69.6204 45.1053 69.7294 47.5751 69.1143C49.4077 68.6581 50.3588 68.9259 50.7816 70.0176C51.7994 72.6519 53.0769 71.7518 54.3615 67.4972C55.0377 65.2569 55.9068 63.4239 56.2926 63.4239C56.6784 63.4239 57.5475 65.2569 58.2237 67.4972C59.5155 71.7762 60.7858 72.6499 61.8211 69.9727C62.249 68.8658 63.1181 68.5889 64.6479 69.0705C66.6642 69.7059 66.8006 69.4901 66.2178 66.595C65.6011 63.537 65.7048 63.4239 69.1083 63.4239C71.5472 63.4239 72.9653 62.816 73.6999 61.4545C75.2657 58.5493 75.1149 20.3939 73.5306 18.8216C72.6298 17.9275 64.3883 17.5996 42.8582 17.5996C16.9581 17.5996 13.3422 17.7931 12.7943 19.2106ZM72.7098 40.5118V61.3873H68.6055C66.3481 61.3873 64.5012 60.9291 64.5012 60.369C64.5012 59.8089 64.9629 59.3507 65.5273 59.3507C66.0916 59.3507 67.4768 58.4342 68.6055 57.314C70.4699 55.4637 70.6576 53.92 70.6576 40.4008C70.6576 19.3491 72.5261 20.6943 43.2564 20.6719L20.4734 20.6546L17.861 23.2462C15.3102 25.7787 15.2497 26.1718 15.2497 40.1869C15.2497 54.2601 15.3 54.5809 17.8682 56.9423C20.3503 59.2264 21.1989 59.3507 34.2854 59.3507C44.6395 59.3507 48.084 59.6684 48.0851 60.6236C48.0861 61.6032 44.1788 61.8272 31.1549 61.594L14.2236 61.2926V40.4639V19.6362H43.4667H72.7098V40.5118ZM66.5533 24.7278C68.4013 26.5618 68.6055 28.1219 68.6055 40.3875C68.6055 51.254 68.2946 54.2662 67.0664 55.2774C65.4821 56.5819 65.5026 56.6094 65.0994 52.6033C64.8203 49.8223 61.9227 46.1298 59.3113 45.2256C57.7466 44.6848 56.2003 44.5066 55.875 44.8294C55.5497 45.1533 50.6615 45.3274 45.014 45.2164C38.4697 45.0891 34.7451 45.3997 34.7451 46.0738C34.7451 46.7052 37.6807 47.1308 42.0374 47.1308C48.2656 47.1308 49.2384 47.3661 48.7069 48.7418C48.3641 49.6278 48.084 51.919 48.084 53.8334V57.314L35.0016 57.2804C16.9766 57.2336 17.3018 57.5421 17.3018 40.4924C17.3018 21.8093 15.9587 22.7309 43.2102 22.7085C63.1458 22.6922 64.6315 22.8205 66.5533 24.7278ZM25.5104 29.8194C25.5104 30.461 32.3513 30.8378 43.9797 30.8378C55.6082 30.8378 62.4491 30.461 62.4491 29.8194C62.4491 29.1779 55.6082 28.8011 43.9797 28.8011C32.3513 28.8011 25.5104 29.1779 25.5104 29.8194ZM22.0187 36.5475C20.4355 40.6431 22.7185 41.0759 44.3789 40.7867L65.0142 40.5118V37.966V35.4202L43.8412 35.1452C24.9697 34.8998 22.5974 35.0526 22.0187 36.5475ZM63.4751 37.966C63.4751 38.6096 56.1213 38.9843 43.4667 38.9843C30.8121 38.9843 23.4583 38.6096 23.4583 37.966C23.4583 37.3224 30.8121 36.9477 43.4667 36.9477C56.1213 36.9477 63.4751 37.3224 63.4751 37.966ZM61.7175 49.528C63.7306 52.6369 62.1197 58.1195 58.827 59.3619C54.1594 61.1236 50.1485 58.0136 50.2737 52.7316L50.3465 49.6766L51.1643 53.1175C52.0642 56.8986 53.6125 58.2926 56.937 58.3171C59.8767 58.3374 61.6426 55.9994 61.2403 52.6175C60.7519 48.4995 58.51 48.3304 58.7008 52.4251C58.8383 55.369 58.5407 55.7866 56.307 55.7866C52.7906 55.7866 52.2714 52.4383 55.4153 50.0392C56.7441 49.0249 57.2274 48.1838 56.4886 48.1716C55.7498 48.1593 55.404 47.7337 55.7201 47.2266C56.6261 45.7714 60.1619 47.1278 61.7175 49.528ZM52.9189 61.1847C54.1368 61.9525 53.6259 66.4942 52.3248 66.4636C50.4378 66.4178 49.2527 64.6296 49.7812 62.6235C50.4183 60.205 50.9673 59.9535 52.9189 61.1847ZM63.4597 64.0787C63.4679 64.7192 62.7169 65.5319 61.7893 65.8852C59.8233 66.6337 59.8336 66.6408 58.943 63.761C58.4361 62.1236 58.7347 61.4535 60.0973 61.1694C61.9873 60.7753 63.432 62.0248 63.4597 64.0787Z" fill="#95ADA3"/>
</svg>
