<svg width="88" height="88" viewBox="0 0 88 88" fill="none" xmlns="http://www.w3.org/2000/svg">
<path fill-rule="evenodd" clip-rule="evenodd" d="M12.0996 14.1945C12.0996 14.7488 14.7772 15.1897 18.1397 15.1897C21.9128 15.1897 23.9485 14.8165 23.5637 14.1945C23.2247 13.6471 20.5073 13.1992 17.5236 13.1992C14.54 13.1992 12.0996 13.6471 12.0996 14.1945ZM64.934 14.1945C64.934 14.7418 67.4013 15.1897 70.4168 15.1897C73.4323 15.1897 75.8996 14.7418 75.8996 14.1945C75.8996 13.6471 73.4323 13.1992 70.4168 13.1992C67.4013 13.1992 64.934 13.6471 64.934 14.1945ZM40.696 15.3051C37.9466 16.9015 37.0574 20.2634 38.5906 23.2621C39.8197 25.6646 39.734 25.9442 37.4511 26.9833C35.912 27.6829 34.7566 29.2345 34.3818 31.1026C33.8793 33.6096 33.3081 34.0992 30.8837 34.0992C26.3529 34.0992 21.0715 36.6848 21.0715 38.9042C21.0715 40.7335 23.0872 41.9467 28.7973 43.554C30.6235 44.0685 31.0402 44.8946 31.0402 48.0027C31.0402 51.3109 31.421 51.9518 33.9053 52.8157C36.7493 53.8059 36.7753 53.8905 37.49 64.3594C38.1519 74.055 39.0342 77.2886 40.4099 75.0662C40.7049 74.5905 40.3829 68.1374 39.6951 60.7268C39.0073 53.3153 38.6105 46.7557 38.8129 46.1496C39.0172 45.5375 41.4177 45.0468 44.2109 45.0468H49.2412L48.6371 49.7742C47.2205 60.8711 46.7131 75.8992 47.7548 75.8992C48.3569 75.8992 49.0867 72.5691 49.4455 68.1861C50.564 54.5315 50.908 53.159 53.2985 52.8186C55.0669 52.5678 55.5195 51.7478 55.7667 48.349C56.0429 44.5582 56.3549 44.1272 59.2558 43.5231C63.4756 42.6463 66.9277 40.3871 66.9277 38.5041C66.9277 36.7595 61.2266 34.0992 57.4893 34.0992C54.1109 34.0992 54.2654 35.9016 57.7066 36.6391C59.2149 36.9625 61.3452 37.5945 62.4418 38.0433C64.294 38.8017 64.2372 38.9371 61.6293 39.9622C56.321 42.0502 54.4947 41.454 54.2156 37.5427C53.8507 32.4451 51.4792 27.4252 49.0747 26.6638C46.8407 25.9562 46.3682 24.6474 47.9871 23.6492C49.8722 22.4858 49.0827 17.3623 46.7679 15.744C44.192 13.9417 43.1702 13.868 40.696 15.3051ZM12.5941 18.1824C11.8504 19.3836 14.2907 20.4664 16.6942 20.0017C17.6402 19.8185 18.6012 19.1089 18.8285 18.4242C19.3349 16.9065 13.5231 16.6816 12.5941 18.1824ZM45.8887 18.5466C47.5385 20.5321 46.1539 23.1516 43.4533 23.1516C40.6451 23.1516 39.6672 21.824 40.5135 19.1617C41.2383 16.8816 44.2209 16.5402 45.8887 18.5466ZM64.934 18.673C64.934 19.9002 65.7185 20.2166 68.1738 19.9798C69.9552 19.8086 71.4137 19.2204 71.4137 18.673C71.4137 18.1256 69.9552 17.5375 68.1738 17.3663C65.7185 17.1294 64.934 17.4459 64.934 18.673ZM14.7304 21.8518C13.236 23.3437 14.3316 26.3951 17.6981 30.1153C20.9907 33.7539 24.0621 35.2905 24.0621 33.299C24.0621 32.8591 22.492 30.9801 20.573 29.123C18.6541 27.2659 17.084 24.9649 17.084 24.0105C17.084 22.0966 15.7302 20.8546 14.7304 21.8518ZM65.571 21.8518C65.2211 22.2021 64.934 23.2312 64.934 24.1389C64.934 25.0475 63.8125 26.8419 62.4418 28.1278C59.6406 30.7552 59.2717 32.1087 61.3562 32.1087C63.2572 32.1087 67.9246 26.4379 67.9246 24.1289C67.9246 22.1156 66.5958 20.8297 65.571 21.8518ZM45.0025 26.8837C45.0065 27.2948 46.3522 28.3935 47.9931 29.3251C51.1751 31.1324 51.9517 33.104 49.4824 33.104C48.4028 33.104 47.9871 34.2097 47.9871 37.0849C47.9871 39.9602 48.4028 41.0659 49.4824 41.0659C50.3477 41.0659 51.0076 40.1224 51.0475 38.8266C51.1143 36.6898 51.1572 36.6789 51.9746 38.5778C52.4461 39.6726 52.8628 40.9037 52.9017 41.3147C52.9396 41.7257 48.7687 42.0611 43.6318 42.0611H34.293L35.6219 36.3504C36.3576 33.1916 37.7472 30.0974 38.7311 29.4246C39.7101 28.7558 40.9591 27.7655 41.5074 27.2231C42.6937 26.0487 44.9935 25.8258 45.0025 26.8837ZM37.0215 37.0023C37.0215 41.3505 38.9146 42.7419 39.1648 38.5778C39.2465 37.2093 39.3592 35.5672 39.414 34.9283C39.4688 34.2903 38.9534 33.5807 38.2676 33.3528C37.4063 33.0662 37.0215 34.1928 37.0215 37.0023ZM32.8057 38.5778C32.5894 41.1793 30.8917 41.666 26.3051 40.4389C23.126 39.588 23.5258 38.2922 27.302 37.2034C32.406 35.7324 33.028 35.8877 32.8057 38.5778ZM18.7847 48.8198C15.154 52.4992 14.0934 54.2986 14.0934 56.7747C14.0934 58.5353 14.542 59.9754 15.0902 59.9754C15.6385 59.9754 16.0871 58.9832 16.0871 57.77C16.0871 56.4801 18.033 53.5929 20.7784 50.8103C23.9066 47.6394 25.1377 45.7226 24.4738 45.0598C23.8089 44.396 21.9128 45.649 18.7847 48.8198ZM35.4694 47.2861C34.6649 49.8986 34.2063 50.5296 33.5723 49.8966C32.8107 49.1363 34.1924 45.0468 35.2112 45.0468C35.7335 45.0468 35.8502 46.051 35.4694 47.2861ZM53.3633 46.6213C54.2126 48.8317 54.1159 50.023 53.0881 50.023C52.6036 50.023 51.9926 48.9034 51.7304 47.5349C51.206 44.794 52.4033 44.1233 53.3633 46.6213ZM43.0027 63.4587C43.0027 71.0892 43.3885 75.8992 43.9996 75.8992C44.6107 75.8992 44.9965 71.0892 44.9965 63.4587C44.9965 55.8283 44.6107 51.0183 43.9996 51.0183C43.3885 51.0183 43.0027 55.8283 43.0027 63.4587ZM12.0996 63.5105C12.0996 64.7466 13.1304 64.9954 17.2545 64.7545C24.6383 64.3236 24.9862 61.9659 17.6652 61.9659C13.2989 61.9659 12.0996 62.2993 12.0996 63.5105ZM12.0996 67.4397C12.0996 68.6668 12.8841 68.9833 15.3395 68.7464C17.1219 68.5753 18.5793 67.9871 18.5793 67.4397C18.5793 66.8923 17.1219 66.3041 15.3395 66.1329C12.8841 65.8961 12.0996 66.2126 12.0996 67.4397Z" fill="#E86851"/>
</svg>
