<svg width="88" height="88" viewBox="0 0 88 88" fill="none" xmlns="http://www.w3.org/2000/svg">
<path fill-rule="evenodd" clip-rule="evenodd" d="M53.2434 20.2711C51.3904 21.7344 48.9581 24.9647 47.8382 27.4513C46.4226 30.5936 45.5291 31.5398 44.9048 30.5562C44.3443 29.6705 44.0014 30.6178 43.9904 33.0824C43.9816 35.251 44.2794 37.3316 44.6542 37.7056C45.7566 38.8103 53.594 31.915 54.8337 28.7496C56.0867 25.5534 57.6418 17.5798 57.0099 17.5996C56.7922 17.6062 55.0964 18.8088 53.2434 20.2711ZM40.6767 20.4295C40.6767 22.3725 43.043 22.0348 43.7222 19.9949C43.9618 19.2753 43.3738 18.6878 42.4165 18.6878C41.4592 18.6878 40.6767 19.4712 40.6767 20.4295ZM31.8842 25.2684C31.8842 29.4307 32.4656 30.5848 36.4948 34.4225C41.0328 38.7432 41.124 38.774 42.1956 36.3688C42.932 34.7163 42.9122 33.6842 42.1341 33.1825C41.501 32.7743 40.2195 30.9556 39.2864 29.1402C38.3522 27.3248 36.3047 24.6391 34.7363 23.1724L31.8842 20.5043V25.2684ZM13.2002 51.099V70.3996H43.4507H73.7002L73.4002 51.4203L73.099 32.4409H64.8561H56.6131L56.2834 38.7674L55.9537 45.0938H43.4244H30.8951L30.5654 38.7674L30.2356 32.4409L21.7179 32.1197L13.2002 31.7984V51.099ZM40.8174 34.9165C42.1835 36.6615 42.1451 36.7 40.402 35.3324C39.3447 34.5017 38.4786 33.6347 38.4786 33.407C38.4786 32.5015 39.3809 33.0835 40.8174 34.9165ZM28.342 51.4203L28.0375 67.649L21.7179 67.9791L15.3983 68.3091V51.7504V35.1916H22.0224H28.6453L28.342 51.4203ZM71.4504 51.6953V68.1991H64.8561H58.2617V51.6953V35.1916H64.8561H71.4504V51.6953ZM18.6955 39.5926C18.6955 40.1977 20.2089 40.6928 22.0575 40.6928C24.0194 40.6928 25.1371 40.234 24.7403 39.5926C24.3667 38.9874 22.8543 38.4923 21.3783 38.4923C19.9023 38.4923 18.6955 38.9874 18.6955 39.5926ZM61.5589 39.5926C61.5589 40.1977 63.0426 40.6928 64.8561 40.6928C66.6695 40.6928 68.1532 40.1977 68.1532 39.5926C68.1532 38.9874 66.6695 38.4923 64.8561 38.4923C63.0426 38.4923 61.5589 38.9874 61.5589 39.5926ZM18.6955 46.1941C18.6955 46.7992 19.9023 47.2943 21.3783 47.2943C22.8543 47.2943 24.3667 46.7992 24.7403 46.1941C25.1371 45.5526 24.0194 45.0938 22.0575 45.0938C20.2089 45.0938 18.6955 45.5889 18.6955 46.1941ZM62.1084 46.1941C62.4821 46.7992 63.9944 47.2943 65.4704 47.2943C66.9465 47.2943 68.1532 46.7992 68.1532 46.1941C68.1532 45.5889 66.6398 45.0938 64.7912 45.0938C62.8294 45.0938 61.7116 45.5526 62.1084 46.1941ZM56.0636 57.7467C56.0636 66.1581 55.7514 68.1991 54.4655 68.1991C53.2566 68.1991 52.7873 66.3881 52.5422 60.7724L52.2169 53.3457H43.4244H34.6319L34.3066 60.7724C34.0615 66.3881 33.5922 68.1991 32.3832 68.1991C31.0973 68.1991 30.7852 66.1581 30.7852 57.7467V47.2943H43.4244H56.0636V57.7467ZM18.6955 51.6953C18.6955 52.3005 20.1792 52.7956 21.9927 52.7956C23.8061 52.7956 25.2899 52.3005 25.2899 51.6953C25.2899 51.0902 23.8061 50.5951 21.9927 50.5951C20.1792 50.5951 18.6955 51.0902 18.6955 51.6953ZM61.5589 51.6953C61.5589 52.3005 63.0426 52.7956 64.8561 52.7956C66.6695 52.7956 68.1532 52.3005 68.1532 51.6953C68.1532 51.0902 66.6695 50.5951 64.8561 50.5951C63.0426 50.5951 61.5589 51.0902 61.5589 51.6953ZM41.7758 56.6465C41.7758 57.673 40.7383 58.2968 39.0281 58.2968C37.318 58.2968 36.2805 57.673 36.2805 56.6465C36.2805 55.6199 37.318 54.9961 39.0281 54.9961C40.7383 54.9961 41.7758 55.6199 41.7758 56.6465ZM50.0231 56.104C50.8969 57.5179 47.8096 58.7391 45.5532 57.8721C43.3507 57.0261 44.563 54.9961 47.2711 54.9961C48.4086 54.9961 49.6473 55.4945 50.0231 56.104ZM18.6955 57.1966C18.6955 57.8017 20.2089 58.2968 22.0575 58.2968C24.0194 58.2968 25.1371 57.838 24.7403 57.1966C24.3667 56.5915 22.8543 56.0963 21.3783 56.0963C19.9023 56.0963 18.6955 56.5915 18.6955 57.1966ZM61.5589 57.1966C61.5589 57.8017 63.0426 58.2968 64.8561 58.2968C66.6695 58.2968 68.1532 57.8017 68.1532 57.1966C68.1532 56.5915 66.6695 56.0963 64.8561 56.0963C63.0426 56.0963 61.5589 56.5915 61.5589 57.1966ZM41.7758 64.3482C41.7758 67.7227 41.4351 68.1991 39.0281 68.1991C36.6212 68.1991 36.2805 67.7227 36.2805 64.3482C36.2805 60.9738 36.6212 60.4973 39.0281 60.4973C41.4351 60.4973 41.7758 60.9738 41.7758 64.3482ZM50.5683 64.3482C50.5683 67.8932 50.3067 68.1991 47.2711 68.1991C44.2355 68.1991 43.9739 67.8932 43.9739 64.3482C43.9739 60.8032 44.2355 60.4973 47.2711 60.4973C50.3067 60.4973 50.5683 60.8032 50.5683 64.3482ZM18.6955 63.7981C18.6955 64.4032 19.9023 64.8984 21.3783 64.8984C22.8543 64.8984 24.3667 64.4032 24.7403 63.7981C25.1371 63.1567 24.0194 62.6979 22.0575 62.6979C20.2089 62.6979 18.6955 63.193 18.6955 63.7981ZM62.1084 63.7981C62.4821 64.4032 63.9944 64.8984 65.4704 64.8984C66.9465 64.8984 68.1532 64.4032 68.1532 63.7981C68.1532 63.193 66.6398 62.6979 64.7912 62.6979C62.8294 62.6979 61.7116 63.1567 62.1084 63.7981Z" fill="#E86851"/>
</svg>
