<svg width="64" height="64" viewBox="0 0 64 64" fill="none" xmlns="http://www.w3.org/2000/svg">
<path fill-rule="evenodd" clip-rule="evenodd" d="M15.2503 8.23038C15.0349 8.45006 15.0245 8.51416 15.0245 9.62158C15.0245 10.7138 15.0371 10.7946 15.2373 10.9866C15.5385 11.2753 15.9724 11.2561 16.2134 10.9433C16.3643 10.7478 16.4041 10.5615 16.4041 10.0518V9.40762H22.7045H29.0049L29.0036 16.61L29.0023 23.8123L28.4976 23.9758C28.2201 24.0657 27.3203 24.4509 26.4984 24.8318C25.6764 25.2126 24.796 25.5932 24.5421 25.6775C23.2497 26.1063 21.3645 26.2798 19.8145 26.1124C18.6265 25.9841 18.0308 25.8465 17.0709 25.4789L16.4041 25.2235V19.4783C16.4041 15.4083 16.3739 13.6653 16.3002 13.5005C16.0876 13.0244 15.3582 12.9821 15.122 13.4321C15.0565 13.5571 15.0245 15.4087 15.0245 19.0772C15.0245 23.4093 15.0007 24.5256 14.9095 24.4848C13.386 23.8031 12.1861 23.5036 10.6528 23.4222C9.56069 23.3642 9.54285 23.3666 9.27317 23.6032L9 23.843V39.568V55.2931L9.34648 55.6465L9.69286 56H32.5H55.3071L55.6535 55.6465L56 55.2931V39.568V23.843L55.7419 23.6165C55.5196 23.4214 55.39 23.39 54.8059 23.39C53.5635 23.39 51.8874 23.7143 50.9082 24.144C50.5667 24.2939 50.4229 24.4179 50.353 24.6225C50.1385 25.25 50.6138 25.6756 51.2921 25.4636C52.4008 25.1171 53.3146 24.9041 53.9535 24.8434L54.6663 24.7756V39.7075V54.6393H32.5H10.3337V39.7064V24.7734L11.0005 24.8386C12.2523 24.9609 13.5501 25.3478 14.6776 25.9347L15.0504 26.1288L14.9877 27.3166C14.7941 30.9862 14.2121 33.7978 12.9046 37.3807C12.2306 39.2277 12.0634 40.0293 12.0646 41.4076C12.0662 43.2175 12.5088 44.7263 13.4668 46.1876C14.6094 47.9303 16.2958 49.16 18.3816 49.7713L19.1174 49.9869L32.1108 50.0165L45.1043 50.046L45.3325 49.8132C45.6246 49.5152 45.631 49.1089 45.3478 48.8374L45.1349 48.6334L32.5401 48.6301C22.4125 48.6275 19.8101 48.6022 19.2554 48.5008C17.4631 48.1733 15.7973 47.1215 14.8013 45.6885C13.8435 44.3103 13.4495 43.0813 13.444 41.4545C13.44 40.252 13.5954 39.4687 14.1007 38.1439C15.362 34.8377 16.0517 31.7489 16.3161 28.2229C16.3741 27.4487 16.4316 26.8046 16.4438 26.7915C16.4559 26.7785 16.7107 26.8537 17.0098 26.9587C18.2225 27.3845 19.3075 27.5451 21.0029 27.5499C23.4704 27.5571 24.5604 27.3027 26.9907 26.1526C27.7191 25.808 28.4644 25.4716 28.6469 25.4053L28.9788 25.2846L29.0328 27.3638C29.1068 30.214 29.3528 31.3441 30.3219 33.285C30.8952 34.4333 31.6131 35.4152 32.5599 36.3462C33.903 37.6667 34.2022 37.8414 39.2603 40.2579C43.8406 42.4461 43.8071 42.4366 47.2643 42.5204L49.7496 42.5806L50.3661 42.8903C51.2811 43.35 51.8278 44.0989 51.9824 45.1047C52.1947 46.4863 51.5277 47.7496 50.264 48.3593C49.938 48.5166 49.592 48.5786 48.7947 48.6227C47.8316 48.6759 47.7378 48.698 47.5684 48.9115C47.3448 49.1932 47.3986 49.6329 47.6866 49.8768C47.9357 50.0879 49.2124 50.1002 50.0463 49.8995C52.0546 49.4164 53.3922 47.6869 53.3908 45.5749C53.3896 43.6669 52.2659 42.054 50.4813 41.3986C49.9909 41.2185 49.6535 41.1882 47.4462 41.1263C44.1685 41.0343 44.0377 41.0004 40.5939 39.3409C39.6075 38.8655 38.5521 38.3593 38.2485 38.2158C35.2756 36.81 34.7025 36.4672 33.6272 35.4515C32.1168 34.0248 31.1208 32.251 30.6484 30.1466C30.4082 29.0766 30.2833 25.0608 30.4863 24.9313C30.5568 24.8863 31.2974 24.8335 32.1321 24.8139C34.5125 24.7581 35.5599 24.9973 38.0198 26.1589C40.4172 27.291 41.5216 27.5502 43.9511 27.5511C45.0505 27.5514 45.7535 27.504 46.3193 27.3915C47.4975 27.1572 48.3439 26.876 48.5269 26.6579C48.7379 26.4064 48.7342 25.9018 48.52 25.704C48.2793 25.4818 48.0178 25.4935 47.0323 25.7709C45.3981 26.2309 43.3676 26.303 41.6076 25.9634C40.634 25.7757 40.1909 25.6145 38.5245 24.8424C35.8342 23.5961 35.1392 23.437 32.385 23.437H30.3844L30.3845 15.913V8.38897L30.1422 8.19453C29.9017 8.0015 29.8447 8 22.6879 8H15.476L15.2503 8.23038ZM36.92 10.3408C36.8216 10.4412 36.7154 10.684 36.6838 10.8804C36.6524 11.0768 36.6075 11.3438 36.5842 11.4736C36.5609 11.6035 36.3364 12.0179 36.0853 12.3946C35.4949 13.2805 35.3118 13.9147 35.3776 14.8457C35.4358 15.6702 35.5818 16.0616 36.1421 16.8965C36.6284 17.6211 36.6714 17.7699 36.6224 18.5557C36.5888 19.0942 36.5361 19.2318 36.1335 19.833C35.347 21.0074 35.1208 22.1311 35.5771 22.5966C36.0694 23.099 36.6255 22.7844 36.7378 21.9396C36.7856 21.5805 36.9119 21.2313 37.1086 20.9145C37.8735 19.6825 37.9618 19.4521 38.0027 18.5797C38.0523 17.5208 37.9296 17.0853 37.3166 16.1456C36.7859 15.332 36.6849 14.9966 36.7529 14.2744C36.7862 13.9207 36.8892 13.6697 37.1647 13.2709C37.7788 12.3816 37.9516 11.9578 37.9985 11.2257C38.0363 10.6356 38.0183 10.5334 37.846 10.3577C37.6006 10.1072 37.1569 10.0991 36.92 10.3408ZM43.0773 10.346C42.9715 10.454 42.8916 10.6633 42.8893 10.8387C42.8832 11.2952 42.6887 11.7699 42.2175 12.4777C41.691 13.2687 41.4681 14.0798 41.5452 14.9232C41.6083 15.6108 41.81 16.1166 42.3385 16.9105C43.0299 17.9493 43.0396 18.7468 42.3729 19.7469C41.8738 20.496 41.6127 21.1363 41.5476 21.7711C41.4936 22.299 41.5068 22.3593 41.7272 22.5841C41.8607 22.7204 42.0698 22.827 42.2035 22.827C42.5411 22.827 42.8924 22.4372 42.8974 22.057C42.9032 21.6098 43.0846 21.166 43.5164 20.5422C44.0445 19.7794 44.2276 19.189 44.2192 18.2757C44.2114 17.4242 44.0627 16.9982 43.4553 16.0855C42.7294 14.9951 42.7206 14.2233 43.4218 13.1816C43.9192 12.4427 44.1573 11.8536 44.2354 11.1688C44.283 10.75 44.2611 10.6351 44.0917 10.4164C43.8433 10.0959 43.3557 10.062 43.0773 10.346ZM49.2861 10.3456C49.1948 10.4486 49.0828 10.7753 49.0372 11.0716C48.9746 11.4796 48.8326 11.8024 48.453 12.4002C47.8548 13.3423 47.7334 13.73 47.7439 14.6628C47.7534 15.4996 47.9038 15.9638 48.4139 16.7302C48.9099 17.4755 49.0558 17.8479 49.0558 18.3695C49.0558 18.8943 48.9193 19.2392 48.4302 19.9505C47.4894 21.3186 47.4773 22.827 48.4071 22.827C48.7592 22.827 49.0311 22.48 49.0963 21.9475C49.1378 21.6087 49.2632 21.2722 49.4728 20.9368C49.6457 20.6603 49.9227 20.1595 50.0883 19.824C50.3619 19.2698 50.3894 19.1368 50.3894 18.3695C50.3894 17.3862 50.2881 17.0778 49.6237 16.0395C48.904 14.9145 48.9041 14.2183 49.6242 13.1364C50.1279 12.3797 50.3345 11.8697 50.3997 11.2228C50.4474 10.7502 50.4273 10.6388 50.2546 10.4164C50.0067 10.0973 49.5368 10.0629 49.2861 10.3456ZM19.3699 31.8509C18.6096 31.94 17.7465 32.3818 17.15 32.9872C16.2328 33.9183 15.9001 34.815 15.9619 36.1895C15.9947 36.9193 16.0454 37.1395 16.3086 37.6983C17.2789 39.7574 19.6562 40.6348 21.6904 39.6848C22.3165 39.3923 23.1877 38.5647 23.5147 37.9518C23.7987 37.4194 24.0382 36.5424 24.0382 36.0346C24.0382 35.603 23.7113 35.2141 23.3483 35.2141C23.0021 35.2141 22.6585 35.6039 22.6585 35.9967C22.6585 37.7029 20.8713 39.0424 19.2404 38.5587C17.2459 37.9671 16.6412 35.3665 18.1661 33.9384C18.6092 33.5235 19.1357 33.2893 19.8369 33.1954C20.0874 33.1619 20.3575 33.0573 20.4577 32.9551C20.7941 32.6119 20.6043 31.9017 20.1548 31.821C20.0395 31.8004 19.6863 31.8138 19.3699 31.8509Z" fill="#B4C02A"/>
</svg>
