<svg width="64" height="64" viewBox="0 0 64 64" fill="none" xmlns="http://www.w3.org/2000/svg">
<path fill-rule="evenodd" clip-rule="evenodd" d="M23.5204 8.14208C18.808 8.91212 15.0161 12.0515 13.4409 16.4872C13.276 16.9514 13.0528 17.7322 12.9448 18.2222C12.7545 19.0851 12.7473 19.3935 12.7138 28.0352L12.6792 36.9573L11.8735 37.554C9.91688 39.0032 8.5182 41.1578 8.14524 43.2976C8.02504 43.9866 8.00001 45.0928 8.00001 49.7028C8.00001 55.7839 7.99157 55.6863 8.53471 55.9103C8.73019 55.991 13.0637 56.0122 25.5642 55.9939L42.3314 55.9692L42.5577 55.7061L42.784 55.4429L42.7833 49.5634C42.7827 44.0055 42.7723 43.641 42.5949 42.9003C42.4915 42.4694 42.2756 41.8172 42.115 41.4512L41.823 40.7856L41.8675 38.9993C41.908 37.3721 41.9344 37.147 42.1641 36.473C42.6487 35.0518 43.3537 34.1804 44.7576 33.2675C47.1528 31.71 48.319 29.7058 48.4736 26.8814L48.531 25.8343L49.1363 25.6822C51.3337 25.1301 53.0774 23.49 53.825 21.272L54.0786 20.5198L54.1085 15.1977L54.1385 9.87563H54.7008C55.3509 9.87563 55.733 9.71095 55.8917 9.36246C56.0823 8.944 56.0261 8.66003 55.685 8.31886L55.3662 8H47.6279C42.9371 8 39.797 8.03526 39.6541 8.08956C39.3354 8.21082 39.0899 8.6107 39.0899 9.00871C39.0899 9.25967 39.1608 9.40006 39.3915 9.6062C39.6571 9.84356 39.7644 9.87563 40.2945 9.87563H40.8962L40.9318 15.1039C40.9666 20.2071 40.9725 20.349 41.1789 21.0341C41.8933 23.4047 43.6691 25.1179 46.0084 25.6931L46.6544 25.852L46.5966 26.7964C46.4582 29.0584 45.636 30.4394 43.6451 31.7534C41.447 33.2043 40.2813 35.1341 40.0192 37.756L39.9555 38.3928L39.6034 38.0746C39.4097 37.8996 38.9914 37.573 38.6737 37.349L38.0961 36.9415L38.0957 28.2618C38.0954 21.0891 38.0715 19.435 37.958 18.7352C37.3094 14.735 34.8967 11.3837 31.2518 9.42023C30.458 8.99258 28.8555 8.43111 27.8474 8.22733C26.8314 8.02204 24.5324 7.97674 23.5204 8.14208ZM27.0611 10.0153C31.655 10.7079 35.341 14.3474 36.083 18.9234C36.1958 19.6194 36.2203 21.2126 36.2206 27.9L36.221 36.0305L35.6969 35.8502C34.5833 35.467 33.8679 35.3707 31.744 35.318L29.6579 35.2662V33.7856V32.305L30.3846 31.7945C32.3937 30.3831 33.7953 28.2015 34.2059 25.8461C34.4054 24.7014 34.4065 19.4922 34.2072 18.8211C33.9191 17.8505 33.1336 17.0121 32.1894 16.6673C31.8853 16.5562 31.2437 16.4925 29.8923 16.439C27.198 16.3326 25.2393 15.9005 23.1175 14.945C22.6531 14.7359 22.1944 14.5649 22.0981 14.5652C21.7634 14.5661 21.3908 14.8961 21.0952 15.4535C20.715 16.1702 20.3797 16.3953 19.5815 16.4699C18.0149 16.6163 16.8201 17.6903 16.5405 19.2036C16.4101 19.9089 16.4073 24.0911 16.5363 25.3487C16.7536 27.4664 17.626 29.2829 19.149 30.7889C19.5402 31.1757 20.145 31.6765 20.4932 31.9018L21.126 32.3114V33.7888V35.2662L19.0399 35.3181C16.9318 35.3705 16.0672 35.4916 14.9615 35.8891L14.563 36.0323L14.5633 28.1354C14.5636 19.8007 14.5893 19.1857 14.9976 17.7533C16.1131 13.8398 19.5734 10.7004 23.47 10.0668C23.8567 10.0039 24.2364 9.94015 24.3138 9.92496C24.7272 9.84393 26.2585 9.89429 27.0611 10.0153ZM52.2535 11.2824V12.6891H47.5187H42.784V11.2824V9.87563H47.5187H52.2535V11.2824ZM52.2521 17.1671C52.251 19.1565 52.2174 19.9111 52.1091 20.3704C51.4715 23.0758 48.6226 24.6515 46.0001 23.7489C45.293 23.5055 44.6846 23.103 44.1276 22.5101C43.5511 21.8963 43.3247 21.5249 43.057 20.7543C42.8614 20.1912 42.8421 19.9425 42.8041 17.4965C42.7815 16.0401 42.7875 14.7845 42.8174 14.7065C42.865 14.5825 43.4625 14.5647 47.5627 14.5647H52.2535L52.2521 17.1671ZM47.3194 16.5119C46.9057 16.5788 46.6785 16.9659 46.628 17.6902L46.5811 18.3629L45.9249 18.3911C45.365 18.4153 45.2309 18.4557 45.0108 18.6665C44.81 18.859 44.7529 19.0005 44.7529 19.3054C44.7529 19.9752 45.2165 20.2854 46.2178 20.2854H46.628V20.8877C46.628 21.3927 46.6657 21.535 46.8614 21.7676C47.1416 22.1007 47.5065 22.1882 47.9109 22.0192C48.304 21.8549 48.5032 21.4469 48.5032 20.8059V20.2854L48.9485 20.2801C49.6346 20.272 50.023 20.1011 50.2288 19.7171C50.4419 19.3192 50.3843 18.9699 50.0506 18.6361C49.8542 18.4397 49.737 18.4097 49.1637 18.4097H48.5032L48.5028 17.8236C48.5026 17.4049 48.4494 17.1504 48.3167 16.9327C48.2145 16.7651 48.1194 16.6279 48.1054 16.6279C48.0915 16.6279 47.9538 16.5946 47.7993 16.5538C47.645 16.5131 47.429 16.4943 47.3194 16.5119ZM23.5166 17.1413C25.4815 17.8773 27.342 18.2235 29.7683 18.3044C31.7089 18.3691 31.8066 18.3993 32.2663 19.0748L32.4837 19.3944L32.4457 22.4892C32.4033 25.9491 32.3802 26.1056 31.7128 27.4674C31.0194 28.8824 29.8196 30.082 28.3922 30.7873C27.3732 31.2909 26.5499 31.4752 25.3451 31.4694C22.1411 31.4538 19.4321 29.3484 18.5732 26.2064C18.3999 25.5722 18.3728 25.159 18.3362 22.5971C18.2998 20.0442 18.3136 19.6552 18.4532 19.2897C18.6873 18.6764 19.0726 18.4277 19.9636 18.3148C20.9001 18.1962 21.5448 17.8841 22.0745 17.2932C22.3005 17.0409 22.5219 16.8303 22.5663 16.825C22.6108 16.8198 23.0384 16.962 23.5166 17.1413ZM21.4717 21.4862C21.2376 21.7306 21.2198 21.8073 21.2198 22.568C21.2198 23.5097 21.3402 23.7814 21.8288 23.9428C22.2037 24.0664 22.7373 23.8857 22.9011 23.5794C23.2091 23.0038 23.1258 21.8423 22.7495 21.4659C22.3997 21.116 21.8174 21.1253 21.4717 21.4862ZM28.0569 21.4973C27.7967 21.7576 27.7828 21.8119 27.7828 22.5743C27.7828 23.3196 27.8015 23.3981 28.0432 23.6687C28.3514 24.0137 28.8349 24.0737 29.2288 23.8155C29.5577 23.6 29.6579 23.3095 29.6579 22.5722C29.6579 21.6145 29.3721 21.2232 28.6725 21.2232C28.42 21.2232 28.2595 21.2946 28.0569 21.4973ZM24.1566 26.5679C22.9741 26.8779 22.6261 27.1611 22.6261 27.813C22.6261 28.067 22.6922 28.2376 22.8525 28.3979C23.1964 28.7419 23.4978 28.7769 24.1071 28.5438C24.9826 28.2086 25.6401 28.1925 26.5083 28.4847C27.3257 28.7598 27.645 28.7446 27.9516 28.416C28.4697 27.8608 28.2472 27.1865 27.4254 26.8207C26.3897 26.3598 25.2783 26.2738 24.1566 26.5679ZM27.2774 36.3829C26.6328 36.988 26.0323 37.2093 25.2123 37.1434C24.4981 37.086 23.9578 36.8182 23.4164 36.2531L23.0012 35.8195V34.4641V33.1088L23.3996 33.1685C25.1481 33.4309 26.1491 33.4265 27.4078 33.1506L27.7359 33.0787L27.7639 34.4893L27.7919 35.9L27.2774 36.3829ZM22.2067 37.7102C22.907 38.3522 23.5121 38.7004 24.2702 38.8979C25.8096 39.299 27.391 38.8635 28.5951 37.7069L29.1787 37.1463L31.4106 37.1889C33.4303 37.2274 33.7274 37.2542 34.5333 37.4709C37.1528 38.1754 39.3179 39.8764 40.3129 42.0115C40.9001 43.2718 40.9059 43.3397 40.9074 49.0059L40.9088 54.1405H39.0337H37.1585V50.6633V47.1862L36.8845 46.9121C36.5919 46.6194 36.1042 46.5433 35.747 46.7346C35.3053 46.971 35.2834 47.1611 35.2834 50.7597V54.1405H25.392H15.5006V50.6633V47.1862L15.2265 46.9121C14.7461 46.4315 13.9438 46.5967 13.7262 47.2208C13.6617 47.4059 13.6254 48.703 13.6254 50.8252V54.1405H11.7503H9.87515V49.1661C9.87515 43.5756 9.89747 43.3288 10.5247 41.9958C11.4577 40.013 13.5173 38.3188 15.8756 37.5943C16.9987 37.2493 17.5397 37.1904 19.7053 37.1775L21.6129 37.166L22.2067 37.7102ZM22.0636 41.0239C20.8443 41.2192 19.7004 42.1181 19.1361 43.3242C18.547 44.5833 18.712 46.1235 19.5548 47.2358C19.9856 47.8042 24.8296 52.1139 25.1533 52.2165C25.2611 52.2508 25.4665 52.253 25.6098 52.2216C25.9411 52.1488 30.9465 47.7345 31.3264 47.1801C31.8376 46.4338 32.0294 45.7252 31.9863 44.7423C31.9384 43.6508 31.5996 42.8505 30.8813 42.1319C30.1829 41.4335 29.3619 41.0771 28.3378 41.0281C27.3749 40.9821 26.7698 41.1324 25.9656 41.6175L25.4141 41.9501L24.991 41.6698C24.1242 41.0955 23.0694 40.8628 22.0636 41.0239ZM23.1802 42.8936C23.5531 42.9736 23.7852 43.1159 24.3092 43.5859C25.2704 44.4481 25.5685 44.4538 26.4423 43.6273C27.0454 43.0568 27.429 42.8867 28.1126 42.8867C29.261 42.8867 30.1267 43.7592 30.1267 44.9165C30.1267 45.8372 29.9745 46.0316 27.6354 48.0979C26.4715 49.126 25.4861 49.9792 25.4456 49.9939C25.377 50.019 22.483 47.5172 21.4668 46.5544C21.2159 46.3167 20.932 45.9534 20.836 45.747C20.298 44.5914 21.0106 43.1941 22.298 42.8806C22.6967 42.7835 22.6647 42.7831 23.1802 42.8936Z" fill="#A39E60"/>
</svg>
