<svg width="64" height="64" viewBox="0 0 64 64" fill="none" xmlns="http://www.w3.org/2000/svg">
<path fill-rule="evenodd" clip-rule="evenodd" d="M32.0004 8.14676C31.6538 8.31473 31.4683 8.60575 31.3712 9.13348C31.2993 9.52448 31.4808 9.47289 29.4546 9.67763C25.6159 10.0655 21.6584 11.605 18.4123 13.9734C16.7037 15.22 16.4442 15.6008 16.9585 16.1066C17.3288 16.4708 17.5752 16.4023 18.5028 15.6768C21.4661 13.3598 24.7374 11.8753 28.2118 11.2713C29.3438 11.0746 31.0638 10.8974 31.8442 10.8973C32.4546 10.8972 32.6291 10.7688 32.773 10.2143L32.8884 9.76935L33.8892 10.7625L34.89 11.7556L33.8887 12.6837L32.8875 13.6118L32.7921 13.2418C32.6325 12.6222 32.5109 12.5623 31.4428 12.5764C29.0164 12.6084 26.398 13.1996 23.9716 14.2633C18.1841 16.8003 13.8823 22.1283 12.6619 28.2711L12.4989 29.0917H12.0013C11.7275 29.0917 11.3644 29.0643 11.1942 29.0308L10.8848 28.97L10.9446 28.4696C11.0478 27.6052 11.658 25.4363 12.1144 24.3111C12.8962 22.3838 13.7125 20.947 14.9262 19.3614C15.9022 18.0864 15.9093 18.0724 15.7658 17.7315C15.5274 17.1655 15.0047 17.1216 14.5142 17.6264C13.2712 18.9058 11.5217 21.8346 10.6849 24.0373C9.99404 25.856 9.38194 28.4294 9.38194 29.5156C9.38194 30.2706 9.43858 30.296 11.5146 30.4691C13.1458 30.6052 13.3056 30.6048 13.5231 30.4646C13.6778 30.365 13.7796 30.1905 13.8179 29.96C14.0695 28.442 14.3104 27.4014 14.6353 26.4282C16.7001 20.2427 21.9367 15.6417 28.4156 14.3203C29.0193 14.1972 29.917 14.0673 30.4105 14.0317L31.3077 13.9669L31.3721 14.3634C31.5018 15.1609 32.2694 15.655 32.9397 15.3722C33.3251 15.2097 36.0239 12.6863 36.2285 12.2974C36.3867 11.9963 36.4085 11.575 36.2825 11.255C36.1705 10.9711 33.4992 8.36659 33.1018 8.15398C32.7223 7.95093 32.4088 7.94887 32.0004 8.14676ZM41.7514 9.15796C41.5447 9.3611 41.5173 9.47008 41.5173 10.0859V10.7836L40.7451 10.8181C40.0728 10.8481 39.9494 10.8811 39.7915 11.0729C39.5455 11.3716 39.5618 11.7577 39.8308 12.0063C40.0179 12.1792 40.1632 12.2102 40.7844 12.2102H41.5173V12.9084C41.5173 13.5003 41.5499 13.6423 41.7318 13.8414C42.0417 14.1807 42.447 14.2032 42.7569 13.8984C42.9159 13.742 42.9476 13.5858 42.9476 12.9605V12.2102H43.7105C44.6038 12.2102 44.8548 12.0574 44.8548 11.5137C44.8548 11.002 44.5179 10.8034 43.6499 10.8034H42.9476V10.0958C42.9476 9.46952 42.9207 9.36166 42.7135 9.15796C42.4153 8.8645 42.0496 8.8645 41.7514 9.15796ZM47.7224 14.1455C47.5449 14.3675 47.5248 14.52 47.5248 15.6461V16.8995H46.2332C44.9888 16.8995 44.9329 16.908 44.7074 17.1298C44.4754 17.3579 44.4733 17.3758 44.4733 19.1298C44.4733 21.4221 44.3815 21.3075 46.2197 21.3075H47.5248V22.5808V23.8541L47.8094 24.1341L48.094 24.414L49.8572 24.3848C52.156 24.3466 52.0415 24.4374 52.0872 22.618L52.1202 21.3075H53.4391C55.2321 21.3075 55.1533 21.4095 55.1533 19.0866C55.1533 17.3784 55.1509 17.3575 54.9192 17.1298C54.694 16.9082 54.6373 16.8995 53.4027 16.8995H52.1202L52.0872 15.5782C52.0428 13.7966 52.1836 13.8984 49.762 13.8984H47.92L47.7224 14.1455ZM50.6716 16.6113C50.6716 17.9107 50.6729 17.9186 50.9228 18.1119C51.1485 18.2865 51.3036 18.3063 52.4485 18.3063H53.723V19.1035V19.9007H52.4485C51.3079 19.9007 51.148 19.9208 50.9254 20.093C50.6808 20.2822 50.6763 20.3075 50.6503 21.6171L50.6239 22.9487H49.8133H49.0028L48.9551 21.6153C48.8929 19.8736 48.9773 19.9569 47.2356 19.917L45.9037 19.8865V19.0964V18.3063H47.1781C48.3231 18.3063 48.4781 18.2865 48.7039 18.1119C48.9538 17.9186 48.9551 17.9107 48.9551 16.6113V15.3052H49.8133H50.6716V16.6113ZM27.8464 17.2815L27.5951 17.4758V22.5335V27.5911H22.4528H17.3104L17.1128 27.8382C16.92 28.0793 16.9151 28.1817 16.9151 31.9991C16.9151 35.8164 16.92 35.9188 17.1128 36.1599L17.3104 36.407H22.4528H27.5951V41.4646V46.5223L27.8464 46.7166C28.0915 46.9062 28.1956 46.911 32.0769 46.911C35.9582 46.911 36.0624 46.9062 36.3074 46.7166L36.5587 46.5223V41.4646V36.407H41.701H46.8434L47.041 36.1599C47.2338 35.9188 47.2387 35.8164 47.2387 31.9991C47.2387 28.1817 47.2338 28.0793 47.041 27.8382L46.8434 27.5911H45.2292C43.7422 27.5911 43.6001 27.6059 43.4244 27.7787C43.1404 28.058 43.1701 28.5599 43.485 28.8035C43.7041 28.9731 43.8685 28.9979 44.7723 28.9979H45.8083V31.9991V35.0002H40.8066C37.344 35.0002 35.7333 35.0323 35.5724 35.1043C35.4447 35.1616 35.2925 35.3113 35.2342 35.437C35.161 35.5952 35.1283 37.1793 35.1283 40.5849V45.5042H32.0769H29.0255V40.5849C29.0255 37.1793 28.9929 35.5952 28.9196 35.437C28.8614 35.3113 28.7092 35.1616 28.5814 35.1043C28.4206 35.0323 26.8099 35.0002 23.3473 35.0002H18.3455V31.9991V28.9979H23.3473C26.8099 28.9979 28.4206 28.9658 28.5814 28.8938C28.7092 28.8365 28.8614 28.6868 28.9196 28.5612C28.9929 28.4029 29.0255 26.8188 29.0255 23.4132V18.4939H32.0769H35.1283V23.4132C35.1283 26.8188 35.161 28.4029 35.2342 28.5612C35.421 28.9643 35.656 28.9979 38.287 28.9979H40.7691L41.0576 28.7142C41.2888 28.4868 41.3338 28.3798 41.2845 28.1749C41.1501 27.6164 41.0382 27.5911 38.6937 27.5911H36.5587V22.5335V17.4758L36.3074 17.2815C36.0624 17.0919 35.9582 17.0871 32.0769 17.0871C28.1956 17.0871 28.0915 17.0919 27.8464 17.2815ZM50.5847 33.57C50.4246 33.6991 50.3417 33.9642 50.196 34.8126C49.8691 36.7158 49.3319 38.3877 48.5618 39.8985C48.1375 40.7305 48.1177 40.884 48.3899 41.2243C48.6461 41.5447 49.1239 41.5617 49.4045 41.2604C50.0085 40.6121 51.0921 37.7398 51.4919 35.7271L51.655 34.9064H52.1525C52.4263 34.9064 52.7843 34.9328 52.9482 34.965C53.3232 35.0389 53.3264 35.1397 52.999 36.5833C52.2818 39.7448 50.8104 42.7435 48.7364 45.2698C48.3976 45.6824 47.6026 46.5143 46.9697 47.1184C43.1156 50.7969 38.4963 52.757 32.9575 53.0643C32.3143 53.1 31.7223 53.1764 31.6421 53.2341C31.5619 53.2918 31.4443 53.5392 31.3808 53.7839L31.2654 54.2288L30.2647 53.236L29.2639 52.2431L30.2651 51.3182L31.2664 50.3933L31.3617 50.7598C31.522 51.3759 31.6442 51.4358 32.711 51.4218C36.7813 51.368 41.0715 49.8246 44.4181 47.2101C45.8439 46.0963 47.8108 43.9972 47.8108 43.5894C47.8108 43.2279 47.4611 42.8782 47.0995 42.8782C46.8207 42.8782 46.684 42.9863 45.9421 43.7926C44.043 45.8567 42.465 47.061 40.2081 48.1686C38.2436 49.1327 35.7683 49.82 33.7251 49.9685L32.8464 50.0324L32.7818 49.6353C32.652 48.8372 31.8846 48.343 31.2141 48.6259C30.8288 48.7884 28.1299 51.3118 27.9254 51.7008C27.7672 52.0018 27.7453 52.4231 27.8714 52.7431C27.9833 53.027 30.6547 55.6315 31.052 55.8441C31.4343 56.0487 31.717 56.0515 32.1382 55.8549C32.497 55.6875 32.6843 55.3997 32.7827 54.8646C32.8547 54.4736 32.676 54.5243 34.6992 54.3212C42.1955 53.5692 49.1421 48.7863 52.543 42.0357C53.7341 39.6713 54.5964 36.8205 54.7422 34.7657C54.8168 33.7123 54.8229 33.7161 52.8535 33.5444C50.877 33.372 50.8293 33.3726 50.5847 33.57ZM12.5731 39.685C12.1547 39.8518 12.1011 40.0323 12.0666 41.3919L12.0336 42.6907H10.7147C8.92175 42.6907 9.00051 42.5886 9.00051 44.9115C9.00051 46.6197 9.00299 46.6406 9.23462 46.8684C9.45985 47.09 9.51659 47.0986 10.7512 47.0986H12.0336L12.0666 48.42C12.1111 50.2015 11.9702 50.0998 14.3918 50.0998H16.2338L16.4314 49.8526C16.609 49.6306 16.6291 49.4781 16.6291 48.3521V47.0986H17.9207C19.165 47.0986 19.221 47.0902 19.4464 46.8684C19.6784 46.6403 19.6805 46.6224 19.6805 44.8684C19.6805 42.5761 19.7723 42.6907 17.9341 42.6907H16.6291V41.4173V40.144L16.3504 39.8699L16.0716 39.5957L14.4194 39.6016C13.5106 39.6049 12.6798 39.6424 12.5731 39.685ZM15.1987 42.3829C15.261 44.1246 15.1765 44.0412 16.9183 44.0811L18.2501 44.1116V44.9018V45.6918H16.9757C15.8307 45.6918 15.6757 45.7116 15.45 45.8862C15.2001 46.0795 15.1987 46.0874 15.1987 47.3868V48.693H14.3405H13.4823V47.3868C13.4823 46.0874 13.481 46.0795 13.231 45.8862C13.0053 45.7116 12.8503 45.6918 11.7053 45.6918H10.4309V44.8946V44.0975H11.7053C12.8503 44.0975 13.0053 44.0777 13.231 43.903C13.4808 43.7099 13.4823 43.7006 13.4823 42.4181C13.4823 41.7083 13.5125 41.0979 13.5494 41.0616C13.5863 41.0252 13.9618 41.0077 14.3838 41.0225L15.151 41.0494L15.1987 42.3829ZM21.6154 49.9609C21.253 50.1108 21.2062 50.2402 21.2062 51.0922V51.7879H20.4434C19.5501 51.7879 19.2991 51.9407 19.2991 52.4845C19.2991 52.9961 19.636 53.1947 20.5039 53.1947H21.2062V53.9023C21.2062 54.5286 21.2331 54.6365 21.4403 54.8402C21.5691 54.9668 21.7855 55.0704 21.9214 55.0704C22.0573 55.0704 22.2737 54.9668 22.4025 54.8402C22.6091 54.637 22.6366 54.528 22.6366 53.9122V53.2146L23.4088 53.1801C24.081 53.15 24.2044 53.117 24.3623 52.9252C24.6084 52.6265 24.5921 52.2404 24.3231 51.9918C24.136 51.8189 23.9906 51.7879 23.3695 51.7879H22.6366V51.0972C22.6366 50.0994 22.2692 49.6906 21.6154 49.9609Z" fill="#E86851"/>
</svg>
