<svg width="64" height="64" viewBox="0 0 64 64" fill="none" xmlns="http://www.w3.org/2000/svg">
<path fill-rule="evenodd" clip-rule="evenodd" d="M8.66635 8.11739C7.6506 8.46849 7 9.37928 7 10.45C7 11.1594 7.22632 11.7138 7.70346 12.1728C8.41775 12.8599 8.33421 12.8481 12.8847 12.9035L17.0017 12.9535L16.3667 13.955C11.6166 21.4459 8.40226 32.4876 7.79601 43.3967C7.58215 47.2452 7.80917 50.0793 8.43142 51.3294C9.71875 53.9154 14.0033 55.9994 18.033 55.9994C22.0693 55.9994 26.347 53.9157 27.639 51.3203C28.9989 48.5886 28.3091 38.6398 26.1731 30.178C25.4356 27.2562 24.3966 24.0326 23.3326 21.3655C22.3708 18.9543 20.3574 15.0557 19.1048 13.1789L18.921 12.9035H31.6508H44.3806L44.1644 13.2289C43.4764 14.2646 42.5042 15.9652 41.7682 17.4201C38.5764 23.7303 36.1635 32.2879 35.3047 40.3424C34.7094 45.9265 34.8725 50.0038 35.7519 51.5241C36.9106 53.5267 39.9679 55.2774 43.3481 55.8736C44.4029 56.0597 46.343 56.0373 47.4364 55.8264C51.2467 55.0914 54.3009 53.0882 55.0961 50.8023C55.9521 48.3414 55.6585 41.0872 54.4313 34.3839C53.0774 26.9886 50.3555 19.4999 47.1151 14.2554L46.3107 12.9535L50.6773 12.9035C55.496 12.8482 55.4296 12.8569 56.1 12.194C56.586 11.7133 56.8113 11.1609 56.8113 10.45C56.8113 9.72086 56.578 9.16828 56.0601 8.67077C55.2997 7.94044 57.3032 7.99562 31.8623 8.00443C16.1733 8.00984 8.87454 8.04539 8.66635 8.11739ZM14.7817 9.36957C14.5153 9.8865 14.5206 10.9239 14.7926 11.4514C14.904 11.6675 14.9951 11.8573 14.9951 11.8731C14.9951 11.889 13.6951 11.9021 12.106 11.9021C8.98056 11.9021 8.79657 11.8756 8.31193 11.3561C8.09736 11.1262 8.05878 10.988 8.05878 10.45C8.05878 9.91193 8.09736 9.77384 8.31193 9.54401C8.79343 9.02818 8.94663 9.00605 12.073 9.00184L14.9733 8.99794L14.7817 9.36957ZM18.2245 9.36957C17.9581 9.8865 17.9635 10.9239 18.2355 11.4514C18.3469 11.6675 18.438 11.8573 18.438 11.8731C18.438 11.889 18.062 11.902 17.6026 11.9019C17.0094 11.9018 16.665 11.851 16.4148 11.7266C15.9209 11.4813 15.6027 10.9733 15.6027 10.4302C15.6027 9.43085 16.1966 9.00385 17.5917 9.00014L18.4161 8.99794L18.2245 9.36957ZM43.5215 9.20844C44.0323 9.45308 44.2595 9.8197 44.2595 10.3999C44.2595 10.918 44.051 11.3205 43.6281 11.6188L43.2975 11.852L31.7538 11.8778C20.9118 11.902 20.1886 11.8928 19.8577 11.7276C19.3633 11.4807 19.0456 10.973 19.0456 10.4302C19.0456 9.8135 19.2815 9.41924 19.7864 9.19251C20.1945 9.00935 20.6306 9.00224 31.6458 9.00014C43.0627 8.99794 43.0824 8.99824 43.5215 9.20844ZM46.9643 9.20844C47.4752 9.45308 47.7023 9.8197 47.7023 10.3999C47.7023 10.9164 47.4939 11.3205 47.0757 11.6151C46.8066 11.8046 46.5861 11.8516 45.8084 11.8852C45.2907 11.9077 44.867 11.9076 44.867 11.8851C44.867 11.8626 44.9582 11.6675 45.0695 11.4514C45.3402 10.9265 45.3446 9.93787 45.0788 9.3937L44.8854 8.99794H45.705C46.3308 8.99794 46.6285 9.04771 46.9643 9.20844ZM54.9204 9.13523C55.0996 9.21074 55.3602 9.3946 55.4994 9.54391C55.714 9.77384 55.7525 9.91204 55.7525 10.45C55.7525 10.988 55.714 11.1262 55.4994 11.3561C55.01 11.8806 54.8509 11.9021 51.4522 11.9021C49.7239 11.9021 48.3099 11.889 48.3099 11.8731C48.3099 11.8573 48.401 11.6675 48.5124 11.4514C48.7831 10.9265 48.7874 9.93787 48.5216 9.3937L48.3282 8.99794H51.4614C53.8896 8.99794 54.6678 9.02888 54.9204 9.13523ZM17.5267 22.304V30.4027L15.9824 30.4702C13.9993 30.5569 12.4579 30.7074 11.7548 30.883C10.5964 31.1722 10.533 32.0326 11.6482 32.3296C11.9945 32.4219 12.0605 32.4813 12.0705 32.7105C12.0925 33.2077 12.05 33.2783 11.3041 33.9834C10.8063 34.4538 10.5173 34.8161 10.4252 35.0849C10.2783 35.514 10.2413 37.7968 10.3707 38.4504L10.4422 38.8116L9.83267 38.9588L9.22328 39.1061V38.8284C9.22328 37.986 10.0629 33.2848 10.6496 30.8426C11.7406 26.3014 13.2615 22.0442 15.1444 18.2611C16.176 16.1883 17.3024 14.2081 17.4507 14.2062C17.4924 14.2057 17.5267 17.8497 17.5267 22.304ZM20.507 17.6102C23.2057 22.8609 25.375 29.8065 26.481 36.7373C26.626 37.6461 26.7699 38.5535 26.8006 38.7536L26.8565 39.1176L26.2826 38.9857C25.9668 38.9131 25.6951 38.8394 25.6786 38.8219C25.6621 38.8045 25.6926 38.3396 25.7464 37.7888C25.8481 36.7452 25.7933 35.6453 25.6082 35.0192C25.5384 34.7832 25.2527 34.4107 24.8043 33.9705C24.1587 33.337 24.1086 33.2566 24.1086 32.8563C24.1086 32.5328 24.1529 32.4113 24.2858 32.3707C24.3833 32.3408 24.6099 32.2534 24.7895 32.1764C25.4363 31.8989 25.2852 31.1442 24.5399 30.9295C23.942 30.7573 21.9834 30.5535 20.1847 30.4762L18.5393 30.4055L18.5412 22.2804L18.543 14.1553L19.2033 15.2568C19.5664 15.8627 20.1532 16.9217 20.507 17.6102ZM44.7658 22.3047V30.4041L43.1709 30.4723C39.9748 30.6091 38.4348 30.875 38.1506 31.3391C37.906 31.7386 38.2364 32.131 39.0192 32.3707C39.1521 32.4113 39.1964 32.5328 39.1964 32.8563C39.1964 33.2575 39.1467 33.3366 38.4856 33.9854C38.0283 34.4341 37.7396 34.8082 37.6762 35.0342C37.5047 35.6456 37.4535 36.8548 37.5575 37.8388C37.6128 38.3621 37.6442 38.8045 37.6273 38.8219C37.6103 38.8394 37.3393 38.9128 37.0251 38.9851L36.4537 39.1164L36.5182 38.6529C37.6174 30.7593 39.8637 23.2748 42.879 17.4599C43.6097 16.0507 44.6646 14.2053 44.7393 14.2053C44.7539 14.2053 44.7658 17.85 44.7658 22.3047ZM46.711 15.5332C49.8852 20.9237 52.4047 28.3033 53.67 35.9166C53.832 36.8912 53.9965 38.0117 54.0355 38.4066L54.1063 39.1245L53.4823 38.969L52.8582 38.8135L52.9342 38.3513C52.976 38.0969 53.0093 37.3256 53.0083 36.6371C53.006 35.0694 52.8698 34.7167 51.9683 33.9445C51.2304 33.3123 51.1092 33.1213 51.1967 32.7276C51.2483 32.4954 51.3396 32.4141 51.6381 32.3345C52.0769 32.2178 52.4616 31.8972 52.4616 31.6485C52.4616 30.9249 51.2222 30.6407 47.3226 30.4702L45.7784 30.4027V22.304C45.7784 17.8497 45.8125 14.2058 45.8543 14.2063C45.8961 14.2069 46.2816 14.804 46.711 15.5332ZM27.6753 15.2625C27.4749 15.4013 27.4502 15.5055 27.4502 16.2116C27.4502 16.947 27.4686 17.0166 27.7033 17.1687C27.9379 17.3206 27.9751 17.3206 28.2096 17.1687C28.4444 17.0166 28.4628 16.947 28.4628 16.2116C28.4628 15.5055 28.4381 15.4013 28.2377 15.2625C28.114 15.1768 27.9874 15.1066 27.9565 15.1066C27.9256 15.1066 27.799 15.1768 27.6753 15.2625ZM25.4452 17.3298C25.3784 17.3958 25.3237 17.5671 25.3237 17.7103C25.3237 18.1251 25.4983 18.211 26.3409 18.211C26.9622 18.211 27.1481 18.1749 27.2826 18.0278C27.5004 17.7898 27.4947 17.581 27.265 17.3753C27.0386 17.1726 25.6395 17.1377 25.4452 17.3298ZM28.5041 17.4599C28.3505 17.6919 28.3505 17.7287 28.5041 17.9607C28.6575 18.1922 28.7292 18.211 29.4575 18.211C30.3141 18.211 30.488 18.1265 30.488 17.7103C30.488 17.2941 30.3141 17.2096 29.4575 17.2096C28.7292 17.2096 28.6575 17.2284 28.5041 17.4599ZM27.6178 18.3942C27.4933 18.5302 27.4502 18.7698 27.4502 19.3255C27.4502 20.1405 27.539 20.314 27.9565 20.314C28.3759 20.314 28.4628 20.1413 28.4628 19.3081C28.4628 18.6936 28.4262 18.5097 28.2776 18.3767C28.0369 18.1613 27.8258 18.1669 27.6178 18.3942ZM31.7257 20.2696C31.5253 20.4084 31.5006 20.5126 31.5006 21.2187C31.5006 21.9541 31.519 22.0237 31.7538 22.1758C31.9883 22.3277 32.0256 22.3277 32.2601 22.1758C32.4948 22.0237 32.5132 21.9541 32.5132 21.2187C32.5132 20.5126 32.4885 20.4084 32.2881 20.2696C32.1644 20.1839 32.0378 20.1137 32.0069 20.1137C31.976 20.1137 31.8495 20.1839 31.7257 20.2696ZM29.4957 22.3369C29.4288 22.403 29.3741 22.5742 29.3741 22.7174C29.3741 23.1322 29.5487 23.2181 30.3913 23.2181C31.0126 23.2181 31.1986 23.182 31.333 23.0349C31.5508 22.7969 31.5452 22.5881 31.3154 22.3824C31.089 22.1797 29.6899 22.1448 29.4957 22.3369ZM32.5545 22.467C32.4009 22.699 32.4009 22.7358 32.5545 22.9678C32.708 23.1993 32.7796 23.2181 33.5079 23.2181C34.3646 23.2181 34.5384 23.1336 34.5384 22.7174C34.5384 22.3012 34.3646 22.2167 33.5079 22.2167C32.7796 22.2167 32.708 22.2355 32.5545 22.467ZM31.6682 23.4013C31.5438 23.5373 31.5006 23.7769 31.5006 24.3326C31.5006 25.1476 31.5894 25.3211 32.0069 25.3211C32.4263 25.3211 32.5132 25.1484 32.5132 24.3152C32.5132 23.7007 32.4767 23.5168 32.328 23.3838C32.0873 23.1684 31.8762 23.174 31.6682 23.4013ZM17.5267 31.58C17.5267 31.7062 17.3031 31.7302 16.1217 31.7302C14.3105 31.7302 13.6207 31.6039 14.9951 31.524C17.0141 31.4066 17.5267 31.4179 17.5267 31.58ZM21.517 31.5399C21.927 31.5478 21.9809 31.5662 21.7796 31.63C21.6404 31.6741 20.8544 31.7147 20.0329 31.7202C18.7069 31.7291 18.5393 31.7116 18.5393 31.5645C18.5393 31.416 18.666 31.4057 19.7703 31.4644C20.4473 31.5005 21.2334 31.5344 21.517 31.5399ZM44.766 31.605C44.7661 31.7674 44.6418 31.7757 43.0699 31.7182C42.1368 31.6839 41.3507 31.6416 41.3229 31.6238C41.2603 31.5841 42.9207 31.4748 43.981 31.4489C44.6683 31.4322 44.7658 31.4516 44.766 31.605ZM48.7561 31.5399C49.1661 31.5478 49.22 31.5662 49.0187 31.63C48.8795 31.6741 48.0935 31.7147 47.272 31.7202C45.9461 31.7291 45.7784 31.7116 45.7784 31.5645C45.7784 31.416 45.9052 31.4057 47.0094 31.4644C47.6864 31.5005 48.4725 31.5344 48.7561 31.5399ZM15.4661 32.7135L17.476 32.7817L17.5089 33.1229L17.5418 33.4639L16.3519 33.3967C14.3067 33.2813 13.277 33.1251 13.1623 32.9131C13.0419 32.6907 13.1249 32.5196 13.3176 32.5927C13.3938 32.6215 14.3606 32.6759 15.4661 32.7135ZM23.096 32.7798C23.096 32.9562 23.03 33.0423 22.8682 33.0771C22.4552 33.1656 20.8373 33.3269 19.6708 33.3958L18.5241 33.4636L18.557 33.1227L18.5899 32.7817L20.6512 32.7114C21.7849 32.6727 22.7646 32.6199 22.8283 32.5941C23.0522 32.5033 23.096 32.5336 23.096 32.7798ZM42.7476 32.7155L44.7151 32.7817L44.7468 33.1071L44.7786 33.4326H44.2124C43.6294 33.4326 40.8425 33.1723 40.4369 33.0801C40.2767 33.0436 40.209 32.9552 40.209 32.7823C40.209 32.5659 40.2434 32.5431 40.4946 32.5928C40.6517 32.6238 41.6656 32.6791 42.7476 32.7155ZM50.1004 32.9705C50.0432 33.118 48.7235 33.2968 46.9531 33.3967L45.7632 33.4639L45.7961 33.1229L45.829 32.7817L47.8916 32.7114C49.026 32.6726 49.9829 32.6122 50.0181 32.5772C50.1004 32.495 50.165 32.804 50.1004 32.9705ZM14.8939 34.2881C15.6457 34.3672 16.5457 34.4323 16.8938 34.4329L17.5267 34.434V37.3535V40.2728L15.3749 40.1979C14.1914 40.1567 12.9054 40.0935 12.5171 40.0575L11.8111 39.9919L11.6388 39.5319C11.4048 38.9076 11.2044 36.8281 11.2959 35.9733L11.3695 35.2852L12.0431 34.6555C12.6889 34.0519 12.7335 34.0282 13.1218 34.0851C13.3446 34.1178 14.142 34.2091 14.8939 34.2881ZM24.0821 34.6649C24.6943 35.2954 24.6953 35.2974 24.7641 36.0419C24.8332 36.79 24.6882 38.6827 24.5112 39.3441C24.329 40.0242 24.3413 40.0198 22.2934 40.1362C21.2671 40.1946 20.0027 40.2423 19.4834 40.2423H18.5393V37.3528V34.4633L19.7797 34.3925C20.462 34.3534 21.453 34.2622 21.9821 34.1896C23.4977 33.9815 23.3962 33.9585 24.0821 34.6649ZM41.198 34.1806C41.8184 34.2615 42.8749 34.3584 43.5459 34.3959L44.7658 34.4641V37.3532V40.2423H43.8216C43.3023 40.2423 42.0379 40.1946 41.0116 40.1362C38.9704 40.0202 38.981 40.0239 38.7953 39.359C38.618 38.7238 38.4602 36.6728 38.5353 35.9792C38.607 35.3167 38.6267 35.279 39.2227 34.6652C39.5601 34.3178 39.8887 34.0334 39.953 34.0334C40.0173 34.0334 40.5776 34.0996 41.198 34.1806ZM51.1849 34.5935C51.9697 35.2561 52.0138 35.3875 51.9885 36.9876C51.9685 38.258 51.8345 39.1905 51.6024 39.6743C51.4417 40.009 51.4301 40.0137 50.609 40.0768C50.152 40.112 48.8783 40.1707 47.7783 40.2073L45.7784 40.2739V37.3681V34.4623L47.0694 34.3878C47.7795 34.3468 48.7706 34.2568 49.2719 34.1877C49.7731 34.1186 50.2594 34.0556 50.3523 34.0478C50.4454 34.0399 50.82 34.2855 51.1849 34.5935ZM9.79682 40.7085C10.1516 40.7726 10.2322 40.9379 10.2345 41.6057C10.2361 42.0833 10.0661 42.3321 9.31117 42.9572L8.791 43.3878L8.85975 42.3909C8.97833 40.6718 9.01296 40.5162 9.26135 40.5882C9.37963 40.6226 9.62063 40.6767 9.79682 40.7085ZM27.1256 41.8663C27.1871 42.5942 27.2265 43.2007 27.2131 43.2139C27.1997 43.2272 26.9555 43.0169 26.6704 42.7465C26.1018 42.2072 25.9745 41.8751 26.0773 41.1977C26.1335 40.827 26.1858 40.7557 26.4671 40.6664C26.6458 40.6096 26.8418 40.5585 26.9028 40.5529C26.9729 40.5464 27.0547 41.0288 27.1256 41.8663ZM36.7702 40.6558C37.1169 40.7586 37.1582 40.8084 37.2169 41.1961C37.3311 41.949 37.1942 42.2628 36.4729 42.9018L36.0277 43.2963L36.0907 42.7457C36.1252 42.4428 36.1833 41.8233 36.2198 41.3689C36.2562 40.9144 36.309 40.5427 36.3371 40.5427C36.3653 40.5427 36.5601 40.5937 36.7702 40.6558ZM54.3219 41.0184C54.3531 41.28 54.4085 41.9196 54.4451 42.4399L54.5114 43.3857L53.9926 42.9561C53.1993 42.2992 53.0689 42.0942 53.0707 41.5055C53.0726 40.8775 53.1164 40.812 53.6261 40.6761C54.2565 40.5078 54.2614 40.5102 54.3219 41.0184ZM13.9319 41.145C14.8787 41.1977 16.0748 41.2415 16.59 41.2423L17.5267 41.2437V41.8974V42.5511L16.8938 42.5007C16.5457 42.4729 15.7824 42.4238 15.1977 42.3917C14.1547 42.3342 11.9257 42.0953 11.4763 41.9928C11.2768 41.9474 11.2485 41.8775 11.2485 41.4326V40.9244L11.7295 40.9868C11.994 41.0212 12.9851 41.0924 13.9319 41.145ZM25.0446 41.4189C25.0162 41.6806 24.9863 41.9034 24.9782 41.9141C24.907 42.0086 21.3481 42.3804 19.4759 42.489L18.5393 42.5433V41.9088V41.2742L20.691 41.1984C21.8746 41.1568 23.1846 41.0889 23.6023 41.0476C24.02 41.0063 24.527 40.966 24.729 40.958L25.0963 40.9433L25.0446 41.4189ZM41.1204 41.1437C41.9836 41.1958 43.157 41.2397 43.7278 41.2411L44.7658 41.2437V41.8935V42.5433L43.8291 42.489C41.956 42.3804 38.3946 42.0083 38.3276 41.9141C38.3199 41.9034 38.2845 41.6747 38.2488 41.406L38.1841 40.9174L38.8674 40.9832C39.2433 41.0194 40.2571 41.0917 41.1204 41.1437ZM52.0565 41.4421C52.0565 41.8772 52.0275 41.9475 51.8287 41.9928C51.3793 42.0953 49.1504 42.3342 48.1074 42.3917C47.5226 42.4238 46.7594 42.4729 46.4113 42.5007L45.7784 42.5511V41.9121V41.2732L47.9302 41.197C49.1137 41.1552 50.4237 41.0876 50.8414 41.0467C52.1775 40.9163 52.0565 40.877 52.0565 41.4421ZM12.4851 43.1406C13.3365 43.2475 14.4888 43.3616 15.0458 43.394C15.6027 43.4265 16.3888 43.4779 16.7925 43.5085L17.5267 43.5641V44.8335V46.1029L15.8655 47.7434C14.8343 48.7617 14.1526 49.3623 14.0681 49.3267C13.9932 49.2954 12.7699 48.4621 11.3498 47.4751C8.76882 45.6815 8.76761 45.6805 8.80183 45.3398C8.85763 44.7844 9.10784 44.3832 9.66265 43.9597C9.95003 43.7403 10.3191 43.4225 10.4827 43.2534C10.6462 43.0844 10.8154 42.9461 10.8585 42.9461C10.9017 42.9461 11.6336 43.0336 12.4851 43.1406ZM26.2168 43.7106C27.0933 44.5199 27.2069 44.7325 27.2676 45.6771L27.2983 46.1549L24.6149 47.7953L21.9315 49.4356L20.2354 47.7691L18.5393 46.1028V44.8329V43.5629L19.1721 43.5072C19.5203 43.4766 20.2835 43.4244 20.8683 43.3911C21.453 43.3579 22.5694 43.2498 23.3491 43.1511C25.4945 42.8793 25.2691 42.8353 26.2168 43.7106ZM39.804 43.1399C40.6672 43.2452 41.852 43.3587 42.4368 43.3919C43.0216 43.4253 43.7849 43.4773 44.1329 43.5077L44.7658 43.5629V44.8329V46.1028L43.0696 47.7707L41.3735 49.4388L38.6591 47.7817L35.9447 46.1248L36.0146 45.5619C36.053 45.2523 36.1253 44.8863 36.1753 44.7486C36.3019 44.3995 37.7854 42.9683 38.0319 42.9574C38.1433 42.9525 38.9407 43.0346 39.804 43.1399ZM52.5797 43.0348C52.5983 43.0837 52.9551 43.405 53.3727 43.749C54.3013 44.5139 54.38 44.6215 54.4512 45.2227L54.5077 45.7L51.8699 47.5276C50.4191 48.5328 49.196 49.3552 49.1519 49.3552C49.1077 49.3552 48.3306 48.6234 47.425 47.729L45.7784 46.1029V44.8335V43.5641L46.5125 43.5107C49.2106 43.3147 50.3902 43.2099 51.1452 43.0989C52.2414 42.9378 52.5377 42.9246 52.5797 43.0348ZM10.7979 48.311C11.8788 49.0586 12.8559 49.7458 12.9692 49.8382C13.1683 50.0005 13.1216 50.0302 11.579 50.7254C10.7011 51.121 9.92188 51.459 9.84745 51.4765C9.6022 51.5341 9.14075 50.5602 8.98471 49.6556C8.80588 48.6195 8.66979 46.9518 8.76396 46.9518C8.80173 46.9518 9.71692 47.5634 10.7979 48.311ZM54.5445 47.7279C54.3662 49.7815 54.1304 50.7882 53.7009 51.3295L53.5248 51.5514L51.8314 50.781C50.8057 50.3143 50.1747 49.9745 50.2309 49.9189C50.4174 49.7344 54.4388 46.9582 54.524 46.955C54.5724 46.9533 54.5816 47.3011 54.5445 47.7279ZM19.6029 48.5544L21.1197 50.057L19.5764 51.5833L18.033 53.1097L16.4895 51.5833L14.9462 50.057L16.463 48.5544C17.2972 47.7281 18.0037 47.0519 18.033 47.0519C18.0622 47.0519 18.7687 47.7281 19.6029 48.5544ZM46.842 48.5544L48.3588 50.057L46.8155 51.5833L45.2721 53.1097L43.7287 51.5833L42.1853 50.057L43.7021 48.5544C44.5363 47.7281 45.2428 47.0519 45.2721 47.0519C45.3013 47.0519 46.0078 47.7281 46.842 48.5544ZM27.3489 47.4781C27.3489 47.5473 27.2797 48.1891 27.1951 48.9043C27.0395 50.2204 26.7656 51.0261 26.2675 51.6326L26.0832 51.8571L24.4916 50.9817C23.6163 50.5002 22.8992 50.0837 22.8982 50.0562C22.8962 49.9998 27.1546 47.3775 27.273 47.3622C27.3147 47.3567 27.3489 47.4089 27.3489 47.4781ZM38.2647 48.7043C39.4443 49.4203 40.4085 50.0286 40.4075 50.0562C40.4064 50.0837 39.6892 50.4999 38.8137 50.981L37.2218 51.8558L37.034 51.6329C36.6669 51.1973 36.336 50.4075 36.2081 49.6613C36.0174 48.5484 35.9214 47.3231 36.0283 47.3659C36.0787 47.386 37.085 47.9882 38.2647 48.7043ZM15.8294 52.3333L17.5267 54.0096V54.5183V55.027L16.7925 54.9419C15.3569 54.7755 13.5036 54.1938 12.2312 53.5105C11.6054 53.1744 10.5412 52.4485 10.5402 52.357C10.5398 52.3141 13.9197 50.702 14.0827 50.6675C14.1099 50.6617 14.896 51.4114 15.8294 52.3333ZM51.0186 51.5122C51.9794 51.9465 52.7646 52.326 52.7638 52.3556C52.7603 52.4868 51.5262 53.2949 50.7611 53.6671C49.4058 54.3264 47.9039 54.7766 46.5125 54.9406L45.7784 55.027V54.5205V54.0139L47.4678 52.341C48.3971 51.4208 49.1831 50.6803 49.2145 50.6954C49.246 50.7104 50.0578 51.0779 51.0186 51.5122ZM23.6207 51.6334C24.4997 52.1154 25.205 52.5547 25.1883 52.6098C25.1308 52.7984 23.5373 53.719 22.7059 54.0438C21.6463 54.4579 20.2129 54.833 19.2734 54.9419L18.5393 55.027V54.5205V54.014L20.1836 52.3856C21.088 51.4899 21.8717 50.7572 21.9253 50.7572C21.9789 50.7572 22.7418 51.1515 23.6207 51.6334ZM43.1192 52.3834L44.7658 54.0095V54.5183V55.027L44.0316 54.9419C42.5161 54.7662 40.297 54.0419 39.1289 53.3417C38.4425 52.9305 38.0031 52.5602 38.1332 52.5029C38.1889 52.4785 38.8952 52.0798 39.7027 51.6172C40.5103 51.1544 41.2389 50.7717 41.3218 50.7666C41.4047 50.7614 42.2135 51.4889 43.1192 52.3834Z" fill="#8BC1AC"/>
</svg>
