<svg width="40" height="40" viewBox="0 0 40 40" fill="none" xmlns="http://www.w3.org/2000/svg">
<path fill-rule="evenodd" clip-rule="evenodd" d="M18.6893 6.0274C17.1943 6.20928 16.102 6.53735 15.0247 7.12814C11.9595 8.80906 9.91216 11.9077 9.43282 15.5916C9.36081 16.1446 9.34695 16.5418 9.36868 17.4251C9.39553 18.5178 9.45283 19.0074 9.65291 19.854L9.74054 20.2248L9.51906 20.675C9.22075 21.2815 9.14067 21.8215 9.26056 22.4187C9.38339 23.0306 9.58695 23.4179 10.0215 23.8669C10.4604 24.3205 10.9049 24.5635 11.4803 24.6645L11.858 24.7307L12.0034 25.3636C12.8205 28.918 14.7297 31.7597 17.0844 32.9262C17.915 33.3377 18.4432 33.4752 19.3204 33.5085C20.1421 33.5397 20.6432 33.4783 21.2806 33.2683C21.8711 33.0738 22.5838 32.693 23.1285 32.281L23.6063 31.9195L23.7422 32.1052C23.9703 32.4165 24.5068 32.9753 24.7614 33.1666C26.345 34.3563 28.6088 34.263 30.1193 32.9459C30.7445 32.4008 30.9006 32.0263 30.6218 31.741C30.3843 31.4981 30.2179 31.5519 29.7185 32.033C29.2022 32.5306 28.9443 32.6964 28.3665 32.9018C27.998 33.0328 27.863 33.0519 27.3025 33.0526C26.7235 33.0532 26.6157 33.037 26.2034 32.8877C25.6286 32.6796 25.2391 32.4162 24.7974 31.9371C24.1973 31.2864 23.9054 30.5153 23.9054 29.5815C23.9054 28.6478 24.1973 27.8767 24.7974 27.226C25.2391 26.7469 25.6286 26.4835 26.2034 26.2754C26.6157 26.1261 26.7235 26.1099 27.3025 26.1105C27.8563 26.1111 27.9995 26.1309 28.3457 26.2547C28.5664 26.3336 28.8664 26.4667 29.0123 26.5506C29.377 26.76 29.9934 27.3731 30.2115 27.7433C30.3776 28.0251 30.6742 28.7605 30.6219 28.7605C30.6094 28.7605 30.351 28.6363 30.0476 28.4844C29.6451 28.283 29.4597 28.2175 29.3621 28.2424C29.0713 28.3165 28.9316 28.5994 29.0461 28.8823C29.1 29.0153 29.2693 29.123 30.0651 29.5306C31.1553 30.089 31.285 30.1163 31.5376 29.8415C31.797 29.5593 32.8364 28.1192 32.8956 27.96C33.0322 27.5925 32.6652 27.2394 32.3052 27.3919C32.2264 27.4253 32.0095 27.6632 31.8232 27.9206L31.4844 28.3885L31.3701 28.0656C31.149 27.4407 30.8664 27.0049 30.3302 26.4617C29.779 25.9034 29.4112 25.6506 28.8401 25.4375C28.4121 25.2779 27.7897 25.1481 27.4516 25.1481H27.2088L27.2423 24.9771C27.2607 24.883 27.2757 24.7845 27.2757 24.7582C27.2757 24.7318 27.3567 24.7103 27.4557 24.7103C28.352 24.7103 29.3429 24.0882 29.7754 23.254C30.2956 22.2508 30.2001 21.1064 29.5193 20.1838C29.3096 19.8997 29.3074 19.8922 29.3659 19.6348C29.465 19.1982 29.4577 19.2069 29.6052 19.3487C29.7987 19.5346 29.9963 19.9981 30.0384 20.3645C30.0815 20.74 30.2319 20.9337 30.4802 20.9337C30.7578 20.9337 30.9113 20.7399 30.9696 20.3155C31.0848 19.4786 31.6008 18.9533 32.4085 18.8508C32.8053 18.8005 33 18.6403 33 18.3642C33 18.0964 32.8489 17.9734 32.4174 17.8899C32.2031 17.8484 31.9506 17.7771 31.8564 17.7313C31.3711 17.4957 31.0553 17.0281 30.9712 16.4204C30.9431 16.2173 30.88 16.0057 30.831 15.9503C30.6482 15.7437 30.2769 15.7714 30.1388 16.002C30.1098 16.0503 30.058 16.256 30.0235 16.4592C29.9875 16.6716 29.8961 16.9391 29.8086 17.0886L29.6564 17.3487L29.622 16.6098C29.6031 16.2034 29.579 15.79 29.5685 15.6913C29.5498 15.5152 29.5562 15.5092 29.8971 15.3857C30.6109 15.1271 31.1408 14.7784 31.6686 14.22C32.2476 13.6075 32.6111 12.9531 32.819 12.149C32.9683 11.5712 32.9566 10.4338 32.7952 9.85485C32.5657 9.03111 32.1785 8.36605 31.5816 7.77033C31.1084 7.29798 30.5111 6.92777 29.8436 6.69318C29.3558 6.5217 29.3021 6.51448 28.5062 6.51376C27.8736 6.51322 27.5945 6.53626 27.3292 6.61086C26.7831 6.76444 26.0607 7.15781 25.6054 7.54959L25.1922 7.90508L24.6959 7.57625C23.4736 6.76647 22.155 6.27398 20.6794 6.07612C20.1123 6.00009 19.1146 5.97568 18.6893 6.0274ZM20.5897 7.00078C23.654 7.41823 26.2946 9.44336 27.6968 12.4513C28.3959 13.951 28.7202 15.4287 28.7202 17.1146C28.7202 17.7961 28.7112 17.8687 28.6265 17.8689C28.5751 17.8691 28.4407 17.8954 28.328 17.9275C28.1696 17.9724 28.1057 18.0282 28.0465 18.1734C27.9798 18.3365 27.9799 18.386 28.0467 18.5496C28.1084 18.7007 28.168 18.7501 28.3481 18.7998C28.5721 18.8614 28.5727 18.8623 28.5439 19.0812C28.5281 19.2019 28.5064 19.3096 28.4958 19.3205C28.4852 19.3314 28.2982 19.2924 28.0803 19.2339C27.8624 19.1754 27.6465 19.1274 27.6003 19.1274C27.5344 19.1273 27.4784 18.9272 27.3385 18.1918C27.0518 16.6843 26.6287 15.2913 26.0634 13.9936L25.8178 13.43L25.9815 13.0631C26.249 12.4637 26.3775 11.8107 26.2795 11.5494C26.2279 11.4116 25.9513 11.289 25.7794 11.3276C25.5477 11.3797 25.4755 11.5032 25.3475 12.0669C25.1326 13.0139 24.9189 13.3755 24.2368 13.9464C22.8938 15.0706 21.014 15.8242 18.4218 16.2776C17.2404 16.4843 16.6669 16.5405 14.7572 16.6368C13.4648 16.702 13.075 16.7409 12.6049 16.8516C11.6192 17.0836 10.8989 17.506 10.4754 18.1002L10.3299 18.3046L10.2966 18.1345C10.2331 17.8095 10.2639 16.2815 10.3463 15.6675C10.5106 14.4437 10.7954 13.491 11.3326 12.3679C12.1161 10.7299 13.2043 9.43592 14.6067 8.47464C16.4056 7.24155 18.5248 6.71951 20.5897 7.00078ZM29.2284 7.49661C29.6785 7.59299 30.3644 7.93064 30.7117 8.22681C32.0197 9.34249 32.3906 11.0852 31.6548 12.6589C31.4862 13.0196 31.3473 13.2129 30.986 13.5894L30.5301 14.0647L30.4042 13.4393C30.2166 12.5072 29.9245 11.6448 29.5147 10.8128C29.0282 9.82502 28.5622 9.16811 27.7768 8.36287C27.0512 7.61894 27.0663 7.68889 27.5967 7.53109C28.0435 7.39814 28.7033 7.38424 29.2284 7.49661ZM26.6392 8.54119C28.2043 9.85118 29.3609 12.0625 29.6086 14.2181C29.6321 14.4236 29.6251 14.5299 29.5878 14.5299C29.5568 14.5299 29.4968 14.5435 29.4546 14.56C29.3969 14.5827 29.3545 14.4916 29.2832 14.1905C29.0122 13.048 28.4066 11.666 27.7171 10.6165C27.2693 9.93498 26.4578 8.9564 26.1251 8.6968L25.9337 8.54743L26.0798 8.3915C26.1601 8.30573 26.2366 8.23556 26.25 8.23556C26.2632 8.23556 26.4384 8.37311 26.6392 8.54119ZM25.4208 14.7426C26.4261 16.9927 26.9437 20.3911 26.6595 22.8763C26.5737 23.6271 26.2803 25.2075 26.2166 25.2623C26.196 25.2801 26.0225 25.3502 25.8313 25.4181C24.5198 25.8839 23.4512 27.0944 23.1026 28.5093C22.9611 29.0836 22.9583 29.9921 23.0963 30.5821L23.1959 31.0079L22.9488 31.2315C22.5643 31.5795 22.1169 31.8729 21.5848 32.1261C20.7752 32.5114 20.5244 32.5649 19.5453 32.5617C18.7557 32.559 18.654 32.5469 18.2346 32.4054C16.9552 31.974 15.8727 31.1285 14.9212 29.8174C13.7045 28.1409 12.8655 25.8074 12.5534 23.2325C12.4479 22.3613 12.4633 19.9272 12.5797 19.0728C12.7433 17.8732 12.7695 17.7739 12.9308 17.7397C13.1739 17.6883 14.3622 17.5987 15.5748 17.5402C19.6834 17.3421 23.2826 16.2035 24.8951 14.5917C25.0422 14.4447 25.1773 14.3214 25.1952 14.3176C25.2132 14.314 25.3147 14.5052 25.4208 14.7426ZM30.7874 18.6569L30.5031 18.9477L30.209 18.6585L29.9148 18.3693L30.2048 18.0726L30.4949 17.7758L30.7833 18.0709L31.0718 18.366L30.7874 18.6569ZM11.7374 18.4844C11.6667 19.1251 11.6761 19.1079 11.3576 19.1734C11.2003 19.2056 10.9513 19.2945 10.8041 19.3708C10.6569 19.4471 10.5256 19.4913 10.5121 19.469C10.4988 19.4467 10.4708 19.3126 10.4501 19.1711L10.4125 18.9136L10.5692 18.9742C10.8088 19.0667 10.9886 18.9909 11.1703 18.7207C11.3084 18.5154 11.6847 18.1423 11.7537 18.1423C11.7655 18.1423 11.7582 18.2963 11.7374 18.4844ZM15.5075 20.091C14.6109 20.3374 13.9174 21.1862 13.8596 22.1077C13.8358 22.4865 13.843 22.5211 13.9723 22.6533C14.1456 22.8307 14.3814 22.8379 14.5695 22.6715C14.6767 22.5766 14.7193 22.4711 14.7548 22.2119C14.8276 21.682 15.0342 21.3649 15.4658 21.1208C15.8302 20.9147 16.3732 20.8973 16.7099 21.081C17.1311 21.3108 17.4818 21.8343 17.4844 22.2372C17.4876 22.7346 17.9516 22.9797 18.2711 22.6527C18.4016 22.5193 18.4079 22.4882 18.3782 22.1254C18.2615 20.7011 16.8714 19.716 15.5075 20.091ZM22.4473 20.0627C22.1828 20.1264 21.7386 20.3593 21.4872 20.566C21.0448 20.9297 20.6955 21.6747 20.6955 22.2547C20.6955 22.5941 20.86 22.7946 21.1384 22.7946C21.3962 22.7946 21.5591 22.5977 21.6084 22.2268C21.6791 21.6931 21.925 21.3258 22.3735 21.0837C22.6805 20.9179 23.2563 20.9167 23.5576 21.081C23.9656 21.3036 24.2491 21.7051 24.3094 22.1458C24.3778 22.646 24.4929 22.7946 24.8113 22.7946C25.2853 22.7946 25.3748 22.1204 25.0055 21.3318C24.546 20.3509 23.4686 19.8164 22.4473 20.0627ZM28.2415 20.251C29.0424 20.6662 29.4199 21.7944 29.0468 22.6575C28.8176 23.1875 28.2119 23.6659 27.6582 23.7542C27.4483 23.7876 27.4283 23.7813 27.4543 23.6898C27.5715 23.2778 27.6231 22.5727 27.6233 21.3817L27.6235 20.0509L27.8078 20.0862C27.9091 20.1057 28.1043 20.1798 28.2415 20.251ZM11.5478 21.1116C11.5482 22.0348 11.608 23.109 11.684 23.555L11.7155 23.7407L11.5188 23.708C11.0296 23.6268 10.5197 23.196 10.2832 22.6642C9.98203 21.9868 10.1166 21.2175 10.6375 20.6394C10.8452 20.4089 11.3176 20.1127 11.4776 20.1127C11.5323 20.1127 11.5474 20.3272 11.5478 21.1116ZM9.26318 25.6916C9.13484 25.7728 9.08423 25.8515 9.06005 26.0076C9.04239 26.1219 9.015 26.3005 8.99922 26.4044C8.96402 26.636 8.8177 26.9372 8.62858 27.167C8.40903 27.434 8.06263 27.6121 7.60442 27.6935C7.1353 27.7768 7 27.8873 7 28.187C7 28.4324 7.24957 28.6511 7.52958 28.6511C8.27218 28.6511 9.03292 29.4294 9.03292 30.1891C9.03292 30.4756 9.24665 30.7309 9.48648 30.7309C9.77943 30.7309 9.88744 30.5925 9.96892 30.1126C10.1141 29.257 10.5915 28.7741 11.4094 28.6556C11.8295 28.5947 11.859 28.578 11.9536 28.346C12.0979 27.9929 11.8973 27.7606 11.3929 27.6966C10.6294 27.5999 10.0525 27.001 9.9617 26.211C9.90291 25.6991 9.60353 25.4766 9.26318 25.6916ZM16.4691 27.4856C16.2757 27.5579 16.1481 27.7411 16.1481 27.9468C16.1481 28.1266 16.1886 28.1945 16.4558 28.4626C17.1171 29.1265 18.0971 29.6513 18.964 29.8058C20.2041 30.0267 21.5164 29.5393 22.6556 28.4346C22.9045 28.1932 22.9424 28.129 22.9424 27.9481C22.9424 27.6747 22.7704 27.5017 22.4986 27.5017C22.3341 27.5017 22.2458 27.5543 21.9499 27.8287C21.0175 28.6932 19.9875 29.0616 19.0264 28.8744C18.4761 28.7673 17.6857 28.3405 17.2037 27.8901C16.9751 27.6764 16.7664 27.5017 16.7399 27.5017C16.7135 27.5017 16.6598 27.4913 16.6206 27.4786C16.5814 27.466 16.5133 27.4691 16.4691 27.4856ZM9.78409 28.4729L9.49204 28.7615L9.21027 28.4769L8.92855 28.1922L9.20813 27.888L9.48765 27.5838L9.78189 27.884L10.0761 28.1843L9.78409 28.4729ZM26.8745 28.0057C26.6478 28.1387 26.6372 28.1982 26.6355 29.3514C26.6332 30.8415 26.5257 30.7315 27.9822 30.7292C29.1185 30.7274 29.1739 30.7167 29.2999 30.4746C29.4002 30.2818 29.3727 30.1312 29.2058 29.9605L29.0494 29.8005H28.2963H27.5432V29.03V28.2595L27.3868 28.0995C27.2227 27.9316 27.0536 27.9006 26.8745 28.0057Z" fill="#E86851"/>
</svg>
