<svg width="40" height="40" viewBox="0 0 40 40" fill="none" xmlns="http://www.w3.org/2000/svg">
<path fill-rule="evenodd" clip-rule="evenodd" d="M19.4654 5.07384C17.41 5.4176 15.6735 6.69057 14.7304 8.54477C14.2574 9.47467 14.0633 10.3915 14.0629 11.6969L14.0627 12.5393L13.8934 12.7294C13.248 13.454 13.7812 15.2217 14.7905 15.7033C14.9327 15.7712 15.0564 15.8553 15.0654 15.8903C15.329 16.9164 15.6113 17.5506 16.1026 18.2202L16.4351 18.6735L16.2414 19.4667C16.0917 20.0805 16.0151 20.2926 15.9031 20.4039C15.7849 20.5214 15.4681 20.6239 14.1782 20.9619C13.3092 21.1897 12.4298 21.4384 12.224 21.5145C11.6575 21.7242 11.1076 22.0703 10.629 22.5184C9.91415 23.1878 9.49165 23.8604 9.19306 24.8043L9.03541 25.3027L9.0177 29.5099L9 33.7171L9.14352 33.8585C9.31715 34.0297 9.56999 34.0433 9.76 33.8917L9.8957 33.7834L9.92519 29.5997L9.95467 25.416L10.0899 25.0194C10.4858 23.8575 11.1879 23.0252 12.1906 22.5288C12.4141 22.418 12.7225 22.2911 12.8759 22.2466L13.1548 22.1657L13.4655 22.8102C13.8207 23.5468 14.1234 24.4051 14.2747 25.1044C14.3532 25.4678 14.3779 25.8225 14.375 26.5492C14.3715 27.4315 14.3579 27.5553 14.2135 28.0224C14.1268 28.3029 13.954 28.7191 13.8294 28.9475L13.6029 29.3626V31.5422V33.7219L13.744 33.8609C13.8329 33.9486 13.9507 34 14.0627 34C14.1747 34 14.2925 33.9486 14.3814 33.8609L14.5225 33.7219V31.6762V29.6304L14.7534 29.1535C14.8805 28.8912 15.0548 28.4273 15.1408 28.1228C15.2852 27.6122 15.2973 27.4875 15.2979 26.5209C15.2984 25.631 15.2784 25.3845 15.1657 24.8885C14.9998 24.1582 14.6529 23.1599 14.3237 22.4655L14.0715 21.9335L14.2827 21.8767C14.3988 21.8454 14.7265 21.756 15.0111 21.6781C15.2956 21.6 15.5446 21.5359 15.5645 21.5355C15.5844 21.5352 15.7829 21.7598 16.0056 22.0347C16.9356 23.1829 18.0854 23.9873 19.2769 24.3234C19.9213 24.5052 21.0827 24.504 21.7323 24.3209C22.9171 23.987 24.0631 23.1844 24.991 22.0389C25.2156 21.7616 25.4121 21.5348 25.4277 21.5348C25.4662 21.5348 26.5175 21.8114 26.7494 21.8826L26.9351 21.9395L26.7852 22.2311C26.3366 23.1039 25.9328 24.3118 25.7608 25.296C25.6487 25.9368 25.6479 27.0453 25.759 27.6734C25.8537 28.2085 26.1041 28.9361 26.3315 29.3373L26.4775 29.5948V31.6583V33.7219L26.6186 33.8609C26.8052 34.0449 27.0694 34.0449 27.256 33.8609L27.3971 33.7219V31.5398V29.3578L27.1955 28.9963C26.7294 28.1604 26.5609 27.3569 26.6078 26.1943C26.6545 25.039 26.9865 23.8755 27.6328 22.6022L27.8531 22.1681L28.128 22.2495C29.452 22.6417 30.4325 23.6179 30.9101 25.0194L31.0453 25.416L31.0748 29.5997L31.1043 33.7834L31.24 33.8917C31.43 34.0433 31.6828 34.0297 31.8565 33.8585L32 33.7171L31.9823 29.5099L31.9646 25.3027L31.8069 24.8043C31.5084 23.8604 31.0858 23.1878 30.371 22.5184C29.5534 21.7528 29.0635 21.5395 26.7361 20.9362C25.5138 20.6193 25.2154 20.5225 25.0969 20.4044C24.9849 20.2927 24.908 20.0794 24.7574 19.4623L24.5626 18.6646L24.7915 18.3575C25.2859 17.694 25.6166 17.0298 25.8177 16.2958C25.9365 15.8623 25.9515 15.8392 26.1951 15.7124C26.7197 15.4393 27.1269 14.8847 27.3091 14.195C27.4729 13.575 27.4019 13.061 27.1066 12.7294L26.9373 12.5393L26.9361 11.7252C26.9344 10.4241 26.7696 9.59615 26.3306 8.68058C25.5521 7.05711 24.2008 5.86696 22.4974 5.30445C21.6131 5.01242 20.3892 4.91939 19.4654 5.07384ZM21.7571 6.03643C23.431 6.44229 24.9056 7.66303 25.5639 9.18786C25.8889 9.94092 25.971 10.3663 26.0028 11.4635C26.0308 12.4317 26.0278 12.4693 25.9202 12.4693C25.8356 12.4693 25.7347 12.3231 25.5047 11.8669C24.8563 10.5811 24.4849 10.4474 20.8048 10.1757C18.3416 9.99378 17.4626 9.85786 17.0817 9.59977C16.9099 9.48334 16.6606 9.50651 16.5123 9.65269C16.4069 9.75661 16.3731 9.87004 16.3429 10.222C16.2818 10.9353 15.9843 11.6873 15.5056 12.3388C15.3379 12.567 15.3265 12.5725 15.1507 12.5078L14.9692 12.4409L14.9993 11.4494C15.031 10.4042 15.0962 10.0309 15.3642 9.36027C15.65 8.64528 16.0124 8.1124 16.6211 7.51225C17.5433 6.6032 18.3516 6.2025 19.8103 5.93127C20.0926 5.87875 21.3974 5.94929 21.7571 6.03643ZM17.625 10.7401C18.0622 10.8548 19.1993 10.979 20.7586 11.0823C23.0747 11.2358 24.073 11.4054 24.3305 11.6891C24.512 11.8891 24.6679 12.1716 24.8919 12.7068L25.0981 13.1994V14.2458C25.0981 15.8194 24.9086 16.5482 24.2393 17.5497C23.2695 19.0009 21.6166 20.0239 20.386 19.9345C18.7796 19.8178 16.7832 18.1465 16.1644 16.4005C15.955 15.8097 15.9029 15.3866 15.9024 14.2751C15.902 13.427 15.9158 13.265 15.9942 13.2009C16.3124 12.9405 16.9368 11.7817 17.1175 11.1159C17.1862 10.863 17.2576 10.6564 17.2762 10.6568C17.2949 10.6572 17.4518 10.6947 17.625 10.7401ZM14.853 13.3548C14.9776 13.3878 14.9823 13.4128 14.9823 14.0409C14.9823 14.5912 14.9698 14.6827 14.9024 14.6275C14.7048 14.4658 14.4569 13.6262 14.5421 13.4073C14.5789 13.3127 14.6487 13.3009 14.853 13.3548ZM26.4426 13.6591C26.4364 13.9775 26.2488 14.5037 26.0976 14.6275C26.0302 14.6827 26.0177 14.5908 26.0177 14.0385C26.0177 13.3378 26.0275 13.316 26.3338 13.3389C26.4346 13.3464 26.448 13.3859 26.4426 13.6591ZM17.6262 19.7242C18.1448 20.115 19.1637 20.6071 19.7522 20.7507C20.8499 21.0187 22.1388 20.6583 23.383 19.7355C23.607 19.5694 23.7964 19.441 23.8038 19.4501C23.8112 19.4593 23.8757 19.709 23.9472 20.005C24.0746 20.5322 24.2562 20.9336 24.4328 21.0781C24.5111 21.1421 24.5001 21.1799 24.3379 21.4025C24.0353 21.8179 23.1454 22.6251 22.6665 22.9186C22.4198 23.0699 21.993 23.2722 21.7181 23.3682C21.2619 23.5275 21.156 23.5427 20.5 23.5427C19.844 23.5427 19.7381 23.5275 19.2819 23.3682C19.007 23.2722 18.5802 23.0699 18.3335 22.9186C17.8546 22.6251 16.9647 21.8179 16.6621 21.4025C16.4999 21.1799 16.4889 21.1421 16.5672 21.0781C16.7464 20.9315 16.9274 20.5293 17.0565 19.9909C17.1294 19.687 17.2034 19.4393 17.2208 19.4405C17.2383 19.4416 17.4207 19.5692 17.6262 19.7242ZM22.8278 28.1566C22.2977 28.2938 21.8322 28.6707 21.5936 29.1556C21.4803 29.386 21.4539 29.5288 21.4524 29.9205C21.4507 30.3621 21.4667 30.4318 21.6458 30.7591C21.8634 31.157 22.044 31.3288 22.4768 31.5499C22.7255 31.6769 22.8448 31.7001 23.2588 31.7016C23.8337 31.7036 24.1737 31.571 24.5534 31.1967C24.9331 30.8224 25.0676 30.4872 25.0656 29.9205C25.0641 29.5124 25.0406 29.3947 24.9117 29.1495C24.6886 28.725 24.5128 28.5445 24.124 28.3402C23.7535 28.1455 23.1826 28.0646 22.8278 28.1566ZM23.6226 29.0912C24.2131 29.3345 24.3571 30.0977 23.8979 30.5504C23.2521 31.187 22.1939 30.6168 22.3638 29.7238C22.4654 29.1904 23.0951 28.8739 23.6226 29.0912Z" fill="#E86851"/>
</svg>
