<svg width="40" height="40" viewBox="0 0 40 40" fill="none" xmlns="http://www.w3.org/2000/svg">
<path fill-rule="evenodd" clip-rule="evenodd" d="M13.5687 7.06719C12.5027 7.41639 11.9819 8.48106 12.3672 9.52341C12.4718 9.80623 12.6059 9.96062 13.731 11.0936C14.4173 11.7846 15.0472 12.3783 15.1307 12.4129C15.4299 12.5367 15.581 12.4253 16.8537 11.1425C18.2764 9.70847 18.3549 9.58763 18.3523 8.83455C18.351 8.45581 18.326 8.32098 18.2116 8.07588C17.7388 7.06339 16.4338 6.68303 15.5314 7.29478C15.3302 7.43124 15.3153 7.43346 15.183 7.34762C14.7063 7.03798 14.0211 6.91898 13.5687 7.06719ZM23.5424 7.06654C23.4723 7.10539 23.2743 7.37098 23.1025 7.65678C22.4851 8.68357 21.2297 10.3476 20.2516 11.4357C19.6489 12.1061 18.2842 13.481 17.5644 14.1429C17.1931 14.4844 16.8596 14.8136 16.8234 14.8745C16.5615 15.3144 17.0982 15.8456 17.5492 15.5929C17.6137 15.5567 18.0897 15.1352 18.6069 14.6563C20.503 12.9004 22.2554 10.8916 23.4815 9.06843C24.1081 8.13658 24.3479 7.71313 24.3479 7.53832C24.3479 7.13368 23.8975 6.86983 23.5424 7.06654ZM27.1263 7.19112C27.0881 7.20645 26.7307 7.64957 26.3322 8.17581C24.4399 10.6745 22.2207 13.0632 19.8994 15.1001C15.834 18.6673 13.7087 22.0269 13.0046 25.999C12.8608 26.8101 12.8057 28.5593 12.8982 29.3746C13.0348 30.5779 13.3815 31.9112 13.743 32.624C13.9234 32.9795 14.2061 33.0892 14.5217 32.9262C14.6744 32.8473 14.8008 32.6404 14.8008 32.4694C14.8008 32.417 14.7178 32.1682 14.6162 31.9165C14.4007 31.3823 14.1939 30.6397 14.0585 29.9145C13.9831 29.5104 13.9625 29.1144 13.9629 28.0721C13.9633 26.9249 13.98 26.656 14.0855 26.0941C14.7789 22.403 16.8932 19.1189 20.672 15.8633C22.9163 13.9297 25.3543 11.2909 27.3266 8.66087C27.9878 7.77908 28.0501 7.59332 27.7763 7.31982C27.647 7.19063 27.5657 7.15557 27.4034 7.15893C27.2892 7.16126 27.1645 7.17578 27.1263 7.19112ZM30.5739 7.22239C30.5261 7.25967 30.2608 7.59494 29.9847 7.9675C28.686 9.71936 27.3347 11.2717 25.57 13.0391C24.8531 13.757 23.876 14.6824 23.3987 15.0955C20.7912 17.3519 18.9717 19.5994 17.785 22.0299C16.2289 25.2169 15.9055 28.7242 16.8901 31.7352C17.2345 32.7887 17.462 33.0765 17.8687 32.9736C18.23 32.8822 18.2543 32.7999 18.3234 31.4319C18.3859 30.1952 18.4938 29.3791 18.7009 28.5771C19.3917 25.901 20.937 24.0904 23.263 23.2317C24.1299 22.9116 24.2345 22.9049 25.9233 23.0607C28.0749 23.2591 28.797 23.2843 29.2199 23.1753C29.6789 23.057 30.0111 22.8535 30.2611 22.5376C30.5603 22.1595 30.6646 21.8094 30.6662 21.1785L30.6675 20.6522L30.8721 20.5601C31.4821 20.2853 31.8027 19.4744 31.4498 19.0991L31.3388 18.9811L31.5763 18.8662C31.8665 18.7258 32.0507 18.4294 32.0507 18.1027C32.0507 17.9763 31.9784 17.6949 31.888 17.4693C31.7985 17.2459 31.7252 17.0538 31.7252 17.0421C31.7252 17.0305 31.9525 16.8986 32.2303 16.7491C32.9453 16.364 33 16.2951 33 15.78C33 15.182 32.8809 14.9969 32.2063 14.5468C31.6137 14.1515 31.0974 13.6344 30.911 13.2498C30.6609 12.7338 30.7024 12.0704 31.1586 9.28665C31.2912 8.47727 31.3998 7.73069 31.3998 7.62768C31.3998 7.35412 31.1837 7.15465 30.8874 7.15465C30.7629 7.15465 30.6219 7.18516 30.5739 7.22239ZM14.3822 8.15072C14.4782 8.19185 14.6422 8.31589 14.7466 8.42628C15.1652 8.8689 15.3867 8.86868 15.8843 8.42514C16.0654 8.26365 16.2743 8.11631 16.3484 8.09772C16.8729 7.96626 17.4027 8.50588 17.271 9.03738C17.2478 9.13091 16.8705 9.55164 16.2624 10.1622L15.2909 11.1376L14.3912 10.2435C13.8964 9.75171 13.4566 9.28351 13.4139 9.20304C13.3712 9.12251 13.3362 8.95474 13.3362 8.8301C13.3362 8.27834 13.8704 7.93136 14.3822 8.15072ZM29.7982 10.9839C29.5679 12.6835 29.6357 13.2862 30.1458 14.0747C30.4703 14.5762 31.2189 15.2674 31.7117 15.5205C31.8087 15.5703 31.888 15.6328 31.888 15.6594C31.888 15.686 31.6074 15.8569 31.2645 16.0393C30.6503 16.3661 30.4776 16.5268 30.4776 16.7715C30.4776 16.8181 30.5634 17.0689 30.6684 17.3289C30.8547 17.7904 30.8726 17.9385 30.7421 17.9385C30.6333 17.9385 30.3193 18.2062 30.2335 18.3721C30.1045 18.6212 30.1301 19.0628 30.2897 19.3416C30.3646 19.4726 30.4192 19.5842 30.4111 19.5897C30.36 19.6241 30.0431 19.7255 29.8959 19.7545C29.7966 19.7741 29.6599 19.8616 29.5793 19.9574C29.4259 20.1394 29.4266 20.1092 29.5583 20.919C29.6368 21.4017 29.5781 21.6944 29.3588 21.9135C29.0556 22.2164 28.7947 22.224 26.2852 22.0027C24.2002 21.8189 24.0526 21.8252 23.1129 22.1394C22.4269 22.3687 21.7204 22.7141 21.0988 23.124C20.4441 23.5557 19.4224 24.5888 18.9609 25.2854C18.345 26.2155 17.8236 27.458 17.588 28.5575C17.4684 29.1155 17.418 29.0165 17.4101 28.2075C17.3792 25.0888 18.6548 21.8932 21.1168 18.9217C21.7437 18.165 23.0534 16.8449 24.0213 15.9942C26.0296 14.2288 27.8053 12.4038 29.4439 10.421C29.6957 10.1163 29.9112 9.87641 29.9228 9.888C29.9344 9.89954 29.8783 10.3927 29.7982 10.9839ZM8.09248 11.4243C6.73163 11.9102 6.61262 13.768 7.90186 14.4004C8.34086 14.6158 8.89297 14.6158 9.33197 14.4004C9.91386 14.1149 10.2149 13.6214 10.2149 12.953C10.2149 12.4914 10.1022 12.1826 9.81443 11.8551C9.42549 11.4126 8.66096 11.2213 8.09248 11.4243ZM8.88027 12.4883C9.24637 12.6774 9.23542 13.2604 8.86254 13.4301C8.58421 13.5568 8.28087 13.4655 8.15177 13.2161C7.89714 12.7242 8.38789 12.234 8.88027 12.4883ZM14.3398 14.86C13.9721 15.0674 11.9044 17.0686 11.1589 17.9385C7.83839 21.813 6.50451 26.1413 7.34292 30.321C7.58925 31.5491 8.08336 32.8076 8.37054 32.9383C8.65201 33.0664 8.97808 32.9622 9.09454 32.7068C9.19039 32.4967 9.18161 32.4519 8.91081 31.7759C8.04892 29.6237 7.95176 27.009 8.64431 24.6039C9.47051 21.7348 11.4995 18.7578 14.2855 16.3272C14.9695 15.7304 15.1255 15.5496 15.126 15.3535C15.127 14.9494 14.6793 14.6684 14.3398 14.86ZM12.1559 20.6115C11.8787 20.7652 11.3055 21.6687 10.9625 22.4926C10.3587 23.9428 10.1125 25.3512 10.1152 27.3405C10.1174 28.9587 10.2891 30.3984 10.6809 32.0821C10.8254 32.7029 10.884 32.8322 11.0629 32.9246C11.3596 33.0779 11.6978 32.9667 11.8182 32.6763C11.8801 32.5269 11.8679 32.4117 11.7158 31.7118C11.3261 29.9183 11.2018 28.8544 11.2022 27.3134C11.2024 26.0877 11.2809 25.3142 11.5016 24.36C11.7188 23.4211 12.1702 22.3362 12.584 21.7587C12.9038 21.3123 12.9559 21.2197 12.9562 21.0976C12.9572 20.685 12.5114 20.4142 12.1559 20.6115ZM23.3578 26.502C22.8053 26.6407 22.2836 27.0703 22.0579 27.5724C21.9716 27.7644 21.9419 27.9434 21.9385 28.2898C21.9312 29.0502 22.0362 29.2103 23.4909 30.6558C24.6972 31.8544 24.8476 31.9693 25.1211 31.9007C25.1884 31.8838 25.8197 31.2898 26.5241 30.5807C27.6951 29.4018 27.8152 29.2635 27.9259 28.9662C28.0252 28.6999 28.0428 28.5627 28.0235 28.2075C27.9944 27.675 27.8522 27.3511 27.4873 26.9865C26.8735 26.3734 25.792 26.2993 25.1235 26.8246C24.9984 26.923 24.972 26.9266 24.8941 26.8561C24.5844 26.5761 23.791 26.3933 23.3578 26.502ZM30.3329 26.5975C28.972 27.0835 28.853 28.9412 30.1423 29.5737C30.5813 29.789 31.1334 29.789 31.5724 29.5737C32.1543 29.2882 32.4553 28.7947 32.4553 28.1263C32.4553 27.6646 32.3427 27.3558 32.0548 27.0283C31.6659 26.5858 30.9014 26.3946 30.3329 26.5975ZM23.9701 27.584C24.0756 27.6132 24.2587 27.7371 24.377 27.8591C24.8322 28.3288 25.0354 28.3435 25.4884 27.9397C25.8862 27.5851 26.1216 27.4918 26.4049 27.5767C26.8465 27.7088 27.0883 28.2527 26.88 28.6456C26.834 28.7325 26.3849 29.2127 25.8821 29.7127L24.9679 30.6217L24.0117 29.6571C23.2035 28.8417 23.0495 28.6604 23.0167 28.4854C22.9281 28.0141 23.2446 27.5897 23.7241 27.5368C23.754 27.5335 23.8647 27.5547 23.9701 27.584ZM31.1207 27.6616C31.4868 27.8507 31.4758 28.4337 31.1029 28.6034C30.6103 28.8276 30.1313 28.3286 30.3906 27.8613C30.5328 27.6048 30.8454 27.5194 31.1207 27.6616Z" fill="#E86851"/>
</svg>
