<svg width="40" height="40" viewBox="0 0 40 40" fill="none" xmlns="http://www.w3.org/2000/svg">
<path fill-rule="evenodd" clip-rule="evenodd" d="M19.8809 5.0603C16.8004 5.33016 14.0091 6.51542 12.164 8.33706C10.3183 10.1593 9.22995 12.6958 9.09687 15.485L9.06191 16.2175L7.67004 18.3434C6.90457 19.5126 6.22434 20.5894 6.15851 20.7363C5.89598 21.3223 5.96537 22.1854 6.32359 22.7888C6.52961 23.1359 7.00548 23.5547 7.40104 23.7368C7.70388 23.8763 7.82496 23.8954 8.52437 23.9142L9.3083 23.9353L9.32569 26.8744L9.34308 29.8136L9.53261 30.2086C9.87991 30.9324 10.5392 31.4222 11.3378 31.5499C11.6767 31.6041 11.9067 31.5819 13.4853 31.3421C14.4576 31.1944 15.3057 31.0736 15.3699 31.0736C15.4833 31.0736 15.4865 31.123 15.4865 32.8479C15.4865 34.7828 15.4889 34.7967 15.8297 34.9361C15.9502 34.9853 16.4621 35.0005 17.5884 34.9882L19.1771 34.9707L19.3203 34.8063C19.5145 34.5833 19.5145 34.2447 19.3203 34.0217L19.1772 33.8572L17.9278 33.8393L16.6784 33.8214L16.6612 31.9738L16.644 30.1262L16.4501 29.9552C16.3355 29.8541 16.1896 29.7843 16.0929 29.7843C16.0031 29.7843 14.9749 29.9286 13.808 30.105C11.3721 30.4733 11.2608 30.4708 10.845 30.0386C10.4963 29.6762 10.5005 29.7217 10.5005 26.3002V23.1639L10.3275 22.9725L10.1544 22.7811L9.06612 22.7515C7.83464 22.718 7.71456 22.6834 7.4157 22.2761C7.19412 21.9741 7.1274 21.5767 7.24469 21.2575C7.29206 21.1285 7.95448 20.0737 8.7168 18.9133C9.47907 17.753 10.1389 16.7187 10.183 16.615C10.2289 16.5068 10.2631 16.2146 10.2631 15.9294C10.2631 15.6561 10.3041 15.1212 10.3543 14.7408C10.9712 10.0622 14.1233 7.08517 19.2854 6.30591C20.2348 6.16263 22.2861 6.16105 23.1139 6.30298C25.9758 6.79373 28.3208 8.10856 30.1355 10.24C33.4774 14.1651 33.7082 19.817 30.6985 24.0271C29.8885 25.1602 28.8831 26.1125 27.6165 26.9465C27.1547 27.2506 26.7607 27.5409 26.7409 27.5917C26.7212 27.6426 26.705 29.0665 26.705 30.756V33.8279H25.3636H24.0221L23.8203 34.0272C23.6748 34.1708 23.6185 34.2788 23.6185 34.414C23.6185 34.5491 23.6748 34.6572 23.8203 34.8007L24.0221 35H25.7484H27.4748L27.6686 34.8291L27.8625 34.658L27.8789 31.4154L27.8954 28.1727L28.1164 28.0467C28.2379 27.9775 28.5826 27.7401 28.8824 27.5193C32.8049 24.6297 34.6979 19.8106 33.7656 15.0876C33.0196 11.3089 30.4903 8.03906 26.9649 6.29595C24.8441 5.2473 22.4711 4.83338 19.8809 5.0603ZM16.9408 9.91894C15.8858 10.128 14.9625 10.8405 14.4743 11.8223C14.1574 12.4596 14.0567 12.8818 14.0542 13.5824C14.0517 14.2741 14.1601 14.7513 14.4545 15.3445C14.7058 15.8509 14.6206 15.7553 18.1088 19.4478C20.2051 21.6669 20.9808 22.4514 21.101 22.4742C21.1902 22.491 21.3388 22.4788 21.4311 22.447C21.5371 22.4105 22.6147 21.3141 24.3545 19.4725C25.8701 17.8683 27.2557 16.3948 27.4335 16.198C28.5072 15.01 28.7291 13.2854 27.9984 11.8076C27.7109 11.2262 26.9873 10.516 26.4037 10.2424C25.3473 9.74706 24.3668 9.74958 23.3293 10.2502C22.936 10.44 22.7683 10.5781 22.0538 11.2999L21.2312 12.131L20.5402 11.4004C20.1602 10.9987 19.6953 10.5683 19.5071 10.4442C18.7585 9.95036 17.7863 9.7514 16.9408 9.91894ZM18.4983 11.2321C18.7847 11.359 19.0154 11.5617 19.9193 12.4806C21.3555 13.941 21.1221 13.9431 22.5959 12.4562C23.6061 11.4371 23.74 11.3226 24.0636 11.202C24.3242 11.105 24.5478 11.069 24.8969 11.0682C25.3072 11.0673 25.429 11.0924 25.765 11.2477C25.9799 11.347 26.2641 11.5249 26.3965 11.643C27.3382 12.4829 27.5217 14.0329 26.8037 15.0829C26.5957 15.3871 21.3201 20.9937 21.2419 20.9937C21.1518 20.9937 15.8161 15.304 15.6178 14.9965C15.1125 14.2128 15.1 13.039 15.5883 12.2163C15.9026 11.6869 16.5004 11.2341 17.0741 11.091C17.4514 10.997 18.1162 11.0628 18.4983 11.2321ZM21.1798 33.9911C21.0127 34.1385 20.9797 34.2081 20.9797 34.414C20.9797 34.6179 21.013 34.6896 21.1723 34.8302C21.387 35.0196 21.5808 35.0432 21.8389 34.9115C22.3426 34.6544 22.1945 33.9226 21.6235 33.847C21.412 33.819 21.3532 33.8381 21.1798 33.9911Z" fill="#E86851"/>
</svg>
