<svg width="40" height="40" viewBox="0 0 40 40" fill="none" xmlns="http://www.w3.org/2000/svg">
<path fill-rule="evenodd" clip-rule="evenodd" d="M19.75 7.07244C19.4504 7.22171 18.7273 8.30042 18.2332 9.33506C18.0661 9.68495 17.9216 9.98017 17.9121 9.99112C17.9026 10.0021 17.7969 9.93167 17.6772 9.83462C16.9714 9.26244 15.2855 8.36811 14.9125 8.36811C14.7262 8.36811 14.5322 8.47636 14.4565 8.62267C14.2797 8.96462 14.1923 10.9156 14.3175 11.727C14.3456 11.9089 14.3654 12.0609 14.3617 12.0647C14.3579 12.0684 14.2059 12.0486 14.024 12.0205C13.2124 11.8954 11.2613 11.9827 10.9193 12.1595C10.7737 12.2349 10.6647 12.4289 10.6647 12.613C10.6647 12.7741 10.9186 13.3766 11.2511 14.0048C12.463 16.2944 14.2151 17.6805 16.4809 18.1422C17.2679 18.3026 18.3422 18.3595 19.1647 18.2843C20.0004 18.2079 19.9956 18.2079 20.8279 18.2864C22.3251 18.4274 23.9594 18.1646 25.2007 17.5831C26.3035 17.0666 27.3977 16.0911 28.1661 14.9395C28.7941 13.9983 29.2977 12.9514 29.3087 12.564C29.315 12.3398 29.1484 12.1607 28.8694 12.0916C28.3776 11.9699 27.2292 11.9153 26.4889 11.9784C26.0941 12.012 25.7362 12.0529 25.6935 12.0693C25.6291 12.094 25.621 12.0651 25.6466 11.9003C25.771 11.099 25.7267 9.22666 25.5718 8.73789C25.5057 8.52918 25.3029 8.36811 25.1064 8.36811C24.7486 8.36811 23.3727 9.06203 22.5284 9.66815C22.0951 9.97926 21.9648 10.028 21.9636 9.87915C21.9629 9.78388 21.4436 8.73662 21.2017 8.34266C20.8281 7.73414 20.3701 7.15234 20.2004 7.07096C20.0025 6.976 19.9431 6.9762 19.75 7.07244ZM20.0637 8.45717C20.25 8.69285 20.7045 9.51838 20.9143 10.0022C21.8494 12.1593 21.6442 14.1899 20.2679 16.3964C20.1239 16.6273 19.9939 16.8162 19.9791 16.8162C19.9295 16.8162 19.4286 15.9823 19.1996 15.5185C18.7012 14.5094 18.483 13.6207 18.4809 12.5922C18.4789 11.5752 18.7049 10.6492 19.1951 9.66586C19.4122 9.23028 19.9288 8.36811 19.9727 8.36811C19.984 8.36811 20.025 8.40821 20.0637 8.45717ZM16.7578 10.4244C16.9758 10.5784 17.2551 10.7925 17.3783 10.9002L17.6025 11.0959L17.531 11.526C17.4218 12.1835 17.4439 13.3199 17.5781 13.9484C17.7145 14.587 17.9883 15.3828 18.2522 15.9075C18.3621 16.1261 18.4521 16.3184 18.4521 16.3347C18.4521 16.4287 17.5828 15.7451 17.1236 15.2899C15.9508 14.1274 15.4449 12.967 15.2984 11.1028C15.2681 10.7176 15.2586 10.2192 15.2772 9.99539L15.3111 9.58851L15.8362 9.86638C16.125 10.0192 16.5397 10.2703 16.7578 10.4244ZM24.6962 10.7053C24.6602 11.787 24.5555 12.3873 24.2698 13.1503C23.8095 14.3798 23.0798 15.2802 21.8411 16.1474C21.6755 16.2634 21.5322 16.3505 21.5227 16.341C21.5132 16.3314 21.6175 16.0852 21.7545 15.7939C22.2032 14.8395 22.4517 13.8917 22.5072 12.923C22.533 12.4721 22.5135 12.1918 22.3953 11.3199L22.3643 11.0908L22.6825 10.8366C23.1832 10.4367 23.5264 10.2068 24.1 9.88709C24.5688 9.62581 24.6383 9.60042 24.6801 9.67513C24.708 9.72495 24.7146 10.1503 24.6962 10.7053ZM13.4386 12.9964C13.7186 13.0204 14.1003 13.0673 14.287 13.1005L14.6263 13.1609L14.7609 13.5254C14.9455 14.0252 15.2958 14.6721 15.6426 15.1537C16.0328 15.6956 16.7858 16.4366 17.3431 16.8271C17.5942 17.0031 17.8376 17.1749 17.8841 17.209C18.106 17.3719 16.7299 17.1957 15.9864 16.9661C15.0549 16.6784 14.3318 16.2221 13.5404 15.4226C12.9455 14.8216 12.4647 14.1552 12.097 13.4218L11.8878 13.0046L12.1542 12.9859C12.6571 12.9507 12.9305 12.9529 13.4386 12.9964ZM28.059 13.0203C28.0935 13.0548 27.7116 13.7753 27.4228 14.2207C26.5328 15.5931 25.4251 16.4912 24.0718 16.9378C23.6031 17.0924 22.6209 17.2735 22.2477 17.2739L21.9969 17.2743L22.3749 17.0146C23.7659 16.0594 24.6395 14.9973 25.1957 13.585L25.356 13.1782L25.6323 13.1137C26.0763 13.0099 26.831 12.9539 27.4576 12.9782C27.7776 12.9907 28.0482 13.0096 28.059 13.0203ZM30.5021 17.6319C29.9829 17.7623 29.838 17.886 27.6393 20.0763L25.5015 22.2057L25.3849 21.9378C25.1473 21.392 24.6404 20.9676 24.0331 20.8059C23.6434 20.7022 15.9335 20.7042 15.4429 20.8081C14.6715 20.9716 14.8083 20.8522 10.7283 24.9261L7 28.6489V28.9267V29.2045L8.89611 31.1022L10.7922 33H11.0468H11.3014L13.3604 30.9407L15.4194 28.8815L19.7479 28.8663C24.0405 28.8513 24.0788 28.8502 24.3651 28.7413C24.5238 28.6809 24.7758 28.552 24.925 28.4549C25.0813 28.353 26.7738 26.6972 28.9217 24.5447C32.9776 20.4803 32.8361 20.642 32.9697 19.9235C33.1817 18.7837 32.2533 17.642 31.0788 17.5983C30.8667 17.5904 30.6072 17.6055 30.5021 17.6319ZM31.4359 18.7159C31.8899 18.9555 32.0924 19.4808 31.9153 19.9588C31.8377 20.1682 31.3345 20.6928 28.1547 23.8794C25.1105 26.93 24.4358 27.5818 24.2036 27.6963L23.9237 27.8344L19.4576 27.8599L14.9915 27.8853L13.0167 29.8594L11.042 31.8334L9.62712 30.3809L8.21219 28.9284L11.5361 25.5674C13.3642 23.7188 14.9773 22.1285 15.1207 22.0333C15.2641 21.9381 15.4826 21.8352 15.6061 21.8046C15.762 21.7659 17.0622 21.7533 19.8518 21.7635L23.8728 21.7782L24.0684 21.9134C24.6039 22.2833 24.7043 22.9447 24.2957 23.4101C23.9742 23.7762 24.1011 23.7602 21.2855 23.7885L18.7491 23.8139L18.595 23.9863C18.4656 24.1313 18.4458 24.1875 18.4704 24.3399C18.4866 24.4395 18.5583 24.5795 18.6299 24.6509L18.7598 24.7809H21.3927H24.0255L24.3708 24.6174C24.6921 24.4652 24.91 24.2584 27.5152 21.632C29.4189 19.7129 30.383 18.7763 30.5292 18.7039C30.8172 18.5613 31.1515 18.5658 31.4359 18.7159ZM16.7413 23.8364C16.5429 23.9201 16.404 24.1515 16.4355 24.3456C16.5339 24.9519 17.4064 24.9086 17.4064 24.2974C17.4064 23.9594 17.0445 23.7085 16.7413 23.8364Z" fill="#E86851"/>
</svg>
