<svg width="40" height="40" viewBox="0 0 40 40" fill="none" xmlns="http://www.w3.org/2000/svg">
<path fill-rule="evenodd" clip-rule="evenodd" d="M13.7737 7.0534C12.4803 7.31363 11.5288 8.70097 11.7301 10.0331C11.8022 10.5105 12.0923 11.1429 12.3673 11.4224C12.4735 11.5304 12.5612 11.6358 12.5622 11.6568C12.5631 11.6778 12.0213 12.6566 11.358 13.832C10.6947 15.0074 10.1128 16.0536 10.0647 16.157C9.94445 16.4153 10.0034 16.6178 10.2312 16.7291C10.573 16.8961 10.5982 16.8628 11.9745 14.4177C12.6676 13.1866 13.2421 12.1705 13.2513 12.1598C13.2605 12.149 13.4251 12.1805 13.6172 12.2299C14.8816 12.5547 16.0974 11.969 16.6547 10.7664C16.8305 10.3871 16.8583 10.2689 16.8775 9.82039C16.9131 8.9861 16.668 8.32097 16.1248 7.77836C15.4831 7.13717 14.6437 6.87835 13.7737 7.0534ZM25.0407 7.09445C24.1639 7.32928 23.4303 8.07453 23.2091 8.95526L23.1456 9.20758L20.624 9.23562C18.2872 9.26158 18.0942 9.27111 17.9926 9.36542C17.8428 9.50437 17.8184 9.63614 17.9039 9.84445C17.9436 9.94134 17.9835 10.0263 17.9925 10.0332C18.0015 10.0402 19.1651 10.0591 20.5784 10.0753L23.1479 10.1047L23.1919 10.3218C23.2695 10.7049 23.6134 11.2948 23.934 11.5951C25.2318 12.8104 27.2412 12.4479 28.0172 10.8583C28.5193 9.83004 28.3582 8.69895 27.5883 7.84688C26.9379 7.12703 25.9778 6.84347 25.0407 7.09445ZM15.0421 8.01739C15.6644 8.30931 16.0237 8.85999 16.0564 9.57205C16.0913 10.3302 15.7323 10.9714 15.0929 11.2931C14.8202 11.4303 14.7171 11.4504 14.2877 11.45C13.8613 11.4495 13.7582 11.4295 13.5194 11.3008C12.2332 10.6075 12.1921 8.83358 13.4443 8.06803C13.8856 7.79832 14.5315 7.77785 15.0421 8.01739ZM26.4235 7.99054C27.304 8.3896 27.7269 9.49859 27.3403 10.395C27.2007 10.7187 26.8222 11.1233 26.493 11.3008C26.2542 11.4295 26.1511 11.4495 25.7247 11.45C25.3117 11.4504 25.1881 11.4282 24.9586 11.3127C23.956 10.8078 23.6341 9.54469 24.2676 8.60116C24.7154 7.93424 25.6902 7.65814 26.4235 7.99054ZM27.5792 12.8995C27.4794 12.9875 27.4308 13.0845 27.4319 13.1939C27.433 13.3024 27.8407 14.0781 28.651 15.5134C29.3207 16.6994 29.8785 17.6966 29.8908 17.7293C29.903 17.762 29.7587 17.9523 29.57 18.1521C29.0547 18.6981 28.8179 19.2804 28.8179 20.0015C28.8179 21.1368 29.5293 22.1456 30.5995 22.5277C31.0358 22.6835 31.7276 22.6868 32.1956 22.5351C33.9797 21.9572 34.593 19.6478 33.3397 18.2271C32.7199 17.5245 31.9325 17.2627 30.7945 17.3808C30.6788 17.3927 30.5368 17.166 29.4151 15.1793C28.7273 13.9611 28.1115 12.9203 28.0467 12.8663C27.8874 12.7336 27.7569 12.7429 27.5792 12.8995ZM8.24082 17.3726C7.18325 17.5247 6.35234 18.2914 6.07883 19.3675C5.74119 20.6956 6.5193 22.114 7.81683 22.5355C8.12891 22.6368 8.72243 22.6736 9.21795 22.6222C9.33358 22.6102 9.47564 22.8369 10.5973 24.8237C11.2852 26.0418 11.9009 27.0827 11.9657 27.1366C12.1323 27.2754 12.3269 27.2584 12.4904 27.0909C12.5963 26.9824 12.6235 26.9092 12.601 26.7936C12.5845 26.7093 12.0129 25.6497 11.3307 24.4389L10.0905 22.2375L10.4173 21.8888C11.4408 20.7966 11.4611 19.2425 10.466 18.1644C9.88814 17.5383 9.08223 17.2515 8.24082 17.3726ZM9.31448 18.3471C9.69945 18.5223 10.0147 18.8302 10.1955 19.2074C10.3256 19.4789 10.3476 19.5938 10.3476 20.0015C10.3476 20.4092 10.3256 20.524 10.1955 20.7955C9.76441 21.6949 8.70082 22.0708 7.8298 21.6314C7.44723 21.4384 7.17115 21.1506 6.97295 20.738C6.7945 20.3665 6.7945 19.6364 6.97295 19.2649C7.42463 18.3247 8.41347 17.9371 9.31448 18.3471ZM32.1934 18.3826C32.5664 18.5646 32.8422 18.8527 33.038 19.2649C33.2141 19.6356 33.2141 20.3673 33.038 20.738C32.8429 21.1489 32.5661 21.438 32.1826 21.6314C31.3116 22.0708 30.248 21.6949 29.8169 20.7955C29.6868 20.524 29.6648 20.4092 29.6648 20.0015C29.6648 19.5938 29.6868 19.4789 29.8169 19.2074C30.1451 18.5225 30.8603 18.117 31.6074 18.1922C31.7429 18.2057 32.0066 18.2915 32.1934 18.3826ZM29.4276 23.2672C29.3456 23.3125 28.8493 24.1392 28.0388 25.5806C27.3453 26.8142 26.7703 27.8324 26.7611 27.8431C26.7519 27.854 26.5873 27.8224 26.3952 27.7731C25.1533 27.4539 23.9507 28.0155 23.389 29.177C23.187 29.5947 23.1574 29.706 23.1356 30.1313C23.0914 30.9955 23.3364 31.673 23.8959 32.234C25.4065 33.7485 27.932 32.8784 28.2753 30.725C28.3924 29.9906 28.1198 29.0629 27.6451 28.5805C27.5389 28.4725 27.4512 28.3674 27.4502 28.3468C27.4493 28.3263 27.9865 27.3549 28.644 26.1881C30.0137 23.7574 30.0205 23.7447 30.0205 23.599C30.0205 23.3324 29.6672 23.1347 29.4276 23.2672ZM13.6082 27.7724C12.3848 28.1094 11.5247 29.4683 11.7349 30.7322C11.9793 32.2021 13.3207 33.2077 14.711 32.9634C15.709 32.7881 16.5654 32.0061 16.8025 31.0537L16.8668 30.7953L19.3884 30.7673C21.7252 30.7413 21.9182 30.7318 22.0198 30.6375C22.1696 30.4985 22.194 30.3668 22.1085 30.1585C22.0688 30.0616 22.0289 29.9766 22.0199 29.9697C22.0109 29.9627 20.8473 29.9438 19.434 29.9276L16.8645 29.8982L16.8219 29.6881C16.6493 28.8366 15.8411 28.004 14.9516 27.7613C14.5915 27.663 13.9869 27.668 13.6082 27.7724ZM14.9543 28.6452C15.3842 28.81 15.7889 29.2275 15.9531 29.6756C16.0502 29.9407 16.0717 30.0977 16.0564 30.4309C16.0236 31.1447 15.6679 31.6883 15.0345 31.9926C14.6091 32.197 13.9778 32.2021 13.5818 32.0045C13.0584 31.7432 12.7518 31.3693 12.5882 30.7928C12.3296 29.8813 12.8945 28.8671 13.8225 28.5768C14.1012 28.4897 14.6323 28.5218 14.9543 28.6452ZM26.493 28.7061C27.2424 29.0993 27.63 29.949 27.4283 30.7559C27.2814 31.3436 26.9304 31.78 26.4116 32.0202C26.0261 32.1988 25.3811 32.1863 24.9779 31.9926C24.3532 31.6925 23.9911 31.146 23.9553 30.4491C23.9119 29.6028 24.354 28.9134 25.1372 28.606C25.4652 28.4771 26.1536 28.528 26.493 28.7061Z" fill="#E86851"/>
</svg>
