<svg width="40" height="40" viewBox="0 0 40 40" fill="none" xmlns="http://www.w3.org/2000/svg">
<path fill-rule="evenodd" clip-rule="evenodd" d="M8.12924 6.13426C8.05817 6.20809 8 6.31784 8 6.37816C8 6.43854 8.62658 11.9592 9.39235 18.6462C10.9057 31.8611 10.8251 31.2802 11.2495 32.0242C11.6594 32.7429 12.3502 33.3708 13.0803 33.6884C13.82 34.0102 13.5455 33.9999 21.4508 33.9999C29.4361 33.9999 29.0952 34.0138 29.8586 33.6592C30.2837 33.4618 30.4064 33.2922 30.3169 33.0256C30.2838 32.9268 30.2014 32.8357 30.1092 32.7961C29.9755 32.7386 29.9088 32.7508 29.5731 32.8944C28.9963 33.1412 28.7279 33.1796 27.5813 33.1796H26.531V30.2265V27.2734H27.6518C28.8924 27.2734 29.1416 27.3141 29.7026 27.6083C30.1748 27.8559 30.6786 28.3991 30.9137 28.914C31.3334 29.8335 31.3205 30.7075 30.874 31.61C30.7728 31.8145 30.69 32.0375 30.69 32.1056C30.69 32.294 30.8765 32.4687 31.0777 32.4687C31.3016 32.4687 31.4227 32.332 31.6609 31.8105C32.4937 29.9871 31.738 27.7384 29.9915 26.843C29.4247 26.5524 29.0025 26.4549 28.3078 26.4539C27.7527 26.4531 27.7419 26.4507 27.7419 26.3274C27.7419 26.2582 28.2512 21.7535 28.8737 16.3168C29.4962 10.8801 30.0056 6.39517 30.0056 6.35022C30.0056 6.30526 29.9474 6.20809 29.8763 6.13426L29.7472 6H19.0028H8.25843L8.12924 6.13426ZM29.1326 7.13476C29.1115 7.30774 28.6054 11.7189 28.0079 16.9375L26.9215 26.4257H26.5288C26.1677 26.4257 26.137 26.4169 26.1469 26.3164C26.1528 26.2562 26.4833 23.3474 26.8814 19.8524C27.6019 13.5269 27.6047 13.4973 27.5024 13.3785C27.3655 13.2196 27.0207 13.0699 26.4884 12.9383C25.946 12.8044 24.8887 12.7911 24.3335 12.9113C23.9763 12.9887 23.7838 13.0648 22.8157 13.5113C22.1764 13.8061 21.8571 13.8751 21.137 13.8742C20.3427 13.8732 19.9903 13.7888 19.2124 13.4139C18.879 13.2531 18.4407 13.0678 18.2385 13.0022C17.5321 12.7726 16.247 12.7694 15.5305 12.9955C15.0097 13.1598 14.0723 13.6282 14.0058 13.7573C13.8675 14.0258 14.0433 14.3672 14.3198 14.3672C14.3979 14.3672 14.7076 14.2452 15.0081 14.0961C15.7041 13.7508 16.1206 13.6509 16.8676 13.6499C17.6208 13.649 18.0262 13.7474 18.7932 14.1172C19.7726 14.5895 20.0097 14.6515 20.9507 14.6811C21.9751 14.7133 22.3925 14.6216 23.3799 14.1468C23.7584 13.9648 24.2233 13.7786 24.4131 13.7328C25.0763 13.5731 26.5053 13.6628 26.712 13.8771C26.7525 13.9191 25.4502 25.7128 25.3399 26.3027C25.3244 26.3854 25.2815 26.4531 25.2444 26.4531C25.1952 26.4531 25.1697 26.2869 25.1499 25.8378C25.1293 25.3679 25.0894 25.1194 24.9808 24.7857C24.2595 22.5687 21.869 21.5532 19.8531 22.6072C19.3981 22.8451 18.7882 23.4124 18.4952 23.8702C18.2798 24.2069 16.4819 28.7484 16.3366 29.3227C16.2187 29.7891 16.2304 30.6956 16.3604 31.1699L16.4617 31.539H15.3915C14.4447 31.539 14.2884 31.5262 14.0355 31.4279C13.6904 31.2938 13.3221 30.9104 13.1953 30.5531C13.1396 30.3962 12.7872 27.4954 12.2124 22.4609C11.7195 18.1447 11.3164 14.599 11.3165 14.5815C11.3166 14.564 11.4647 14.582 11.6457 14.6214C11.8267 14.6608 12.204 14.6935 12.4841 14.6941C12.9724 14.6952 12.9982 14.6893 13.1027 14.5512C13.2441 14.3646 13.2405 14.2438 13.0882 14.0599C12.9709 13.9182 12.9325 13.9084 12.338 13.8696C11.8714 13.839 11.6158 13.7926 11.3366 13.6877C10.7032 13.4497 10.4743 13.5243 10.4743 13.9687C10.4743 14.4917 12.3205 30.3653 12.4233 30.7257C12.6111 31.3844 13.106 31.9272 13.7909 32.2257C13.9966 32.3152 14.2155 32.3327 15.4493 32.3578L16.8707 32.3867L17.2347 32.7831L17.5986 33.1796H15.9138C14.0263 33.1796 13.7343 33.1388 13.09 32.7845C12.3948 32.4022 11.7779 31.5517 11.605 30.7373C11.5613 30.5315 10.9335 25.183 10.2098 18.8515C9.48622 12.5201 8.87943 7.22297 8.86143 7.08008L8.82874 6.82031H18.9998H29.1708L29.1326 7.13476ZM21.3731 16.3142C20.9733 16.4258 20.6941 16.6087 20.3823 16.963C20.0127 17.3831 19.8795 17.7572 19.8753 18.3867C19.8723 18.8297 19.8886 18.9155 20.0388 19.2453C20.5747 20.4223 21.9673 20.8478 23.0155 20.1548C23.3482 19.9349 23.565 19.6682 23.7617 19.2369C23.9089 18.9144 23.9251 18.8271 23.9251 18.3581C23.9251 17.883 23.9104 17.8064 23.757 17.4831C23.4691 16.8764 23.0041 16.4747 22.4005 16.3114C22.0178 16.2079 21.7513 16.2086 21.3731 16.3142ZM22.465 17.2043C23.3341 17.6649 23.387 18.9476 22.5588 19.479C22.3302 19.6257 22.2555 19.6443 21.9022 19.6429C21.4482 19.6411 21.2835 19.5711 20.987 19.2539C20.2028 18.4152 20.8569 16.9826 21.9837 17.071C22.132 17.0827 22.3486 17.1427 22.465 17.2043ZM15.7125 19.7449C15.389 19.8564 15.2048 19.9701 14.9813 20.196C14.3487 20.8351 14.3488 21.9349 14.9814 22.5912C15.7168 23.3541 16.934 23.2298 17.5016 22.3337C18.2017 21.2286 17.5212 19.7938 16.2509 19.6973C16.0541 19.6823 15.8389 19.7013 15.7125 19.7449ZM16.6293 20.674C17.1624 21.0404 17.0887 21.8925 16.4982 22.1895C15.8637 22.5085 15.1425 21.8873 15.3233 21.1775C15.4778 20.5704 16.1191 20.3232 16.6293 20.674ZM22.2329 23.0944C23.6835 23.4829 24.6377 25.0708 24.3171 26.5624C24.2764 26.7516 23.5595 28.7128 23.5014 28.794C23.4872 28.8137 18.2754 26.6397 18.2268 26.5937C18.1941 26.5628 18.9705 24.6459 19.1212 24.3856C19.4546 23.8099 20.1014 23.3083 20.7664 23.1099C21.1684 22.9898 21.8169 22.983 22.2329 23.0944ZM25.7413 30.2265V33.1796H24.7219C24.1613 33.1796 23.586 33.1566 23.4436 33.1286C23.0968 33.0603 22.5826 32.8571 22.5826 32.7884C22.5826 32.758 22.6632 32.6306 22.7616 32.5052C23.0298 32.1637 23.1821 31.8163 24.0844 29.4882C24.5391 28.3152 24.9216 27.337 24.9345 27.3144C24.9474 27.2918 25.1341 27.2734 25.3496 27.2734H25.7413V30.2265ZM19.9241 28.2002C20.9375 28.6269 22.0899 29.1113 22.4851 29.2766L23.2035 29.5771L22.8118 30.5708C22.3573 31.7232 22.2174 31.9697 21.7765 32.3937C20.1011 34.005 17.3437 32.9483 17.0552 30.5843C16.9816 29.9815 17.0636 29.5627 17.4559 28.5352C17.6463 28.0367 17.824 27.5707 17.8506 27.4997C17.8831 27.4132 17.9292 27.3794 17.9903 27.3975C18.0405 27.4123 18.9107 27.7735 19.9241 28.2002Z" fill="#E86851"/>
</svg>
