<svg width="40" height="40" viewBox="0 0 40 40" fill="none" xmlns="http://www.w3.org/2000/svg">
<path fill-rule="evenodd" clip-rule="evenodd" d="M12.1536 4.15223C12.0002 4.30553 12.0001 4.30621 12.0001 5.64499V6.98433L11.5646 7.00895C11.0994 7.03526 10.9053 7.132 10.6603 7.45977C10.5426 7.61713 10.5297 7.73486 10.512 8.81511L10.4926 9.99809H9.89421C9.56515 9.99809 9.18016 10.0323 9.03866 10.0741C8.69535 10.1755 8.1776 10.6932 8.07616 11.0365C8.01823 11.2325 8.00016 13.1751 8.00016 19.1998V27.1058L7.81054 27.1844C7.55304 27.2911 7.16342 27.7468 7.07367 28.0463C6.90255 28.6175 7.02792 29.0902 7.46679 29.5291C7.87423 29.9365 8.08748 29.9957 9.14803 29.9957H10.0002V31.4955V32.9953H9.64803C9.10553 32.9953 8.82103 33.1077 8.46679 33.4619C8.0251 33.9035 7.90304 34.3706 8.07616 34.9566C8.1776 35.2998 8.69535 35.8175 9.03866 35.919C9.40453 36.027 15.5957 36.027 15.9616 35.919C16.3049 35.8175 16.8227 35.2998 16.9241 34.9566C17.0877 34.4029 16.9782 33.9359 16.5813 33.4945C16.2642 33.1419 15.9068 32.9953 15.364 32.9953H15.0001V31.4955V29.9957H15.8522C16.9128 29.9957 17.126 29.9365 17.5335 29.5291C17.9723 29.0902 18.0977 28.6175 17.9266 28.0463C17.8368 27.7468 17.4472 27.2911 17.1897 27.1844C17.0854 27.1412 17.0001 27.0671 17.0001 27.0197C17.0001 26.9081 17.016 26.9103 17.263 27.056C17.6081 27.2596 18.3749 27.5588 18.9376 27.7094L19.4688 27.8517L19.4867 28.4862C19.502 29.0337 19.4907 29.1208 19.4045 29.1208C19.2325 29.1208 18.6592 29.7529 18.5761 30.0342C18.403 30.6201 18.525 31.0872 18.9667 31.5289C19.3968 31.9589 19.556 31.9954 21.0001 31.9954C22.4442 31.9954 22.6033 31.9589 23.0334 31.5289C23.6706 30.8918 23.6662 30.097 23.0219 29.4489C22.8425 29.2684 22.6507 29.1208 22.5957 29.1208C22.5094 29.1208 22.4981 29.0337 22.5135 28.4862L22.5313 27.8517L23.0626 27.7103C23.7219 27.5347 24.5042 27.207 25.078 26.8662L25.5155 26.6063L25.9519 27.0428C26.338 27.4288 26.3804 27.4941 26.3192 27.6085C26.2233 27.7878 26.2325 28.4581 26.3343 28.701C26.65 29.4543 27.5738 29.8235 28.3125 29.4916C28.7138 29.3113 30.276 27.7567 30.4748 27.3397C30.8493 26.5544 30.4331 25.5582 29.6299 25.3176C29.3267 25.2267 28.7804 25.2256 28.6125 25.3154C28.4982 25.3766 28.4328 25.3342 28.0468 24.9482L27.6103 24.5118L27.8702 24.0743C28.211 23.5006 28.5387 22.7184 28.7143 22.0591L28.8558 21.5279L29.4904 21.5101C30.0379 21.4948 30.125 21.5061 30.125 21.5923C30.125 21.7643 30.7572 22.3375 31.0385 22.4206C31.6245 22.5937 32.0917 22.4716 32.5334 22.03C32.9635 21.5999 33 21.4408 33 19.9969C33 18.5529 32.9635 18.3938 32.5334 17.9638C32.0917 17.5221 31.6245 17.4001 31.0385 17.5732C30.7572 17.6563 30.125 18.2295 30.125 18.4015C30.125 18.4877 30.0379 18.499 29.4904 18.4836L28.8558 18.4658L28.7143 17.9346C28.5387 17.2753 28.211 16.4931 27.8702 15.9194L27.6103 15.482L28.0468 15.0456C28.4328 14.6595 28.4982 14.6172 28.6125 14.6783C28.7804 14.7681 29.3267 14.767 29.6299 14.6762C30.4121 14.4419 30.8416 13.4545 30.4959 12.6853C30.3156 12.2841 28.7608 10.7221 28.3438 10.5233C27.5882 10.163 26.6586 10.519 26.3343 11.2928C26.2325 11.5357 26.2233 12.206 26.3192 12.3853C26.3804 12.4997 26.338 12.565 25.9519 12.951L25.5155 13.3874L25.078 13.1276C24.5042 12.7868 23.7219 12.4591 23.0626 12.2835L22.5313 12.1421L22.5135 11.5075C22.4981 10.9601 22.5094 10.873 22.5957 10.873C22.7677 10.873 23.3409 10.2409 23.4241 9.95959C23.5877 9.40591 23.4782 8.93897 23.0813 8.49752C22.6759 8.04664 22.4756 7.99833 21.0118 7.99833C19.5549 7.99833 19.3974 8.03426 18.9667 8.4649C18.525 8.90653 18.403 9.37366 18.5761 9.95959C18.6592 10.2409 19.2325 10.873 19.4045 10.873C19.4907 10.873 19.502 10.9601 19.4867 11.5075L19.4688 12.1421L18.9376 12.2843C18.3749 12.4349 17.6081 12.7342 17.263 12.9378C17.1489 13.0051 17.043 13.0602 17.0278 13.0602C17.0125 13.0602 17.0001 12.6628 17.0001 12.177C17.0001 11.0826 16.9434 10.8745 16.5335 10.4647C16.1475 10.0788 15.9006 9.99809 15.1061 9.99809H14.5077L14.4883 8.81511C14.4706 7.73486 14.4577 7.61713 14.34 7.45977C14.0949 7.132 13.9009 7.03526 13.4356 7.00895L13.0001 6.98433V5.64499C13.0001 4.30621 13.0001 4.30553 12.8467 4.15223C12.6438 3.94926 12.3565 3.94926 12.1536 4.15223ZM13.5001 8.99821V9.99809H12.5001H11.5001V8.99821V7.99833H12.5001H13.5001V8.99821ZM22.3466 9.15163C22.6567 9.46159 22.437 9.99809 22.0001 9.99809C21.8783 9.99809 21.7502 10.0548 21.6535 10.1515C21.5011 10.3039 21.5001 10.3126 21.5001 11.5292C21.5001 12.9933 21.5001 12.9935 22.2233 13.1182C23.14 13.2763 24.0762 13.661 24.9796 14.2507C25.3532 14.4945 25.5004 14.5584 25.6227 14.5295C25.7128 14.5082 26.1525 14.1202 26.6407 13.6311C27.5756 12.6945 27.6413 12.5692 27.375 12.2308C27.1046 11.887 27.3095 11.3729 27.7169 11.3729C27.8847 11.3729 28.032 11.494 28.7685 12.2372C29.6911 13.1681 29.7443 13.2667 29.4955 13.583C29.334 13.7883 29.0007 13.8064 28.7671 13.6227C28.4286 13.3564 28.3033 13.4221 27.3666 14.3569C26.8775 14.8451 26.4894 15.2847 26.4681 15.3748C26.4392 15.4971 26.5031 15.6443 26.7469 16.0178C27.3367 16.9211 27.7214 17.8572 27.8795 18.7738C28.0043 19.4969 28.0045 19.4969 29.4688 19.4969C30.6855 19.4969 30.6941 19.4959 30.8466 19.3435C30.9433 19.2468 31 19.1187 31 18.997C31 18.5601 31.5366 18.3405 31.8466 18.6505C31.9988 18.8026 32 18.8135 32 19.9969C32 21.1802 31.9988 21.1912 31.8466 21.3433C31.7499 21.44 31.6218 21.4967 31.5 21.4967C31.3783 21.4967 31.2501 21.44 31.1534 21.3433C31.0567 21.2466 31 21.1185 31 20.9968C31 20.875 30.9433 20.7469 30.8466 20.6502C30.6941 20.4978 30.6855 20.4968 29.4688 20.4968C28.0045 20.4968 28.0043 20.4969 27.8795 21.2199C27.7214 22.1366 27.3367 23.0726 26.7469 23.976C26.5031 24.3495 26.4392 24.4967 26.4681 24.619C26.4894 24.7091 26.8775 25.1487 27.3666 25.6368C28.3033 26.5717 28.4286 26.6373 28.7671 26.3711C29.1082 26.1028 29.625 26.3056 29.625 26.7076C29.625 26.8681 29.4921 27.0302 28.7632 27.7591C28.0525 28.4697 27.8696 28.6208 27.7203 28.6208C27.3099 28.6208 27.1035 28.1082 27.375 27.763C27.6413 27.4245 27.5756 27.2992 26.6407 26.3627C26.1525 25.8736 25.7128 25.4856 25.6227 25.4643C25.5004 25.4354 25.3532 25.4993 24.9796 25.7431C24.0762 26.3328 23.14 26.7174 22.2233 26.8756C21.5001 27.0003 21.5001 27.0005 21.5001 28.4646C21.5001 29.6812 21.5011 29.6898 21.6535 29.8423C21.7502 29.939 21.8783 29.9957 22.0001 29.9957C22.437 29.9957 22.6567 30.5322 22.3466 30.8421C22.1945 30.9943 22.1836 30.9956 21.0001 30.9956C19.8166 30.9956 19.8056 30.9943 19.6535 30.8421C19.3435 30.5322 19.5631 29.9957 20.0001 29.9957C20.1218 29.9957 20.25 29.939 20.3466 29.8423C20.4991 29.6898 20.5001 29.6812 20.5001 28.4646C20.5001 26.9797 20.5198 27.0183 19.6739 26.8521C18.943 26.7086 18.1885 26.4284 17.5544 26.0649L17.0314 25.7651V19.9969V14.2286L17.5544 13.9289C18.1885 13.5654 18.943 13.2852 19.6739 13.1416C20.5198 12.9755 20.5001 13.014 20.5001 11.5292C20.5001 10.3126 20.4991 10.3039 20.3466 10.1515C20.25 10.0548 20.1218 9.99809 20.0001 9.99809C19.8783 9.99809 19.7502 9.94141 19.6535 9.84467C19.5568 9.74799 19.5001 9.61988 19.5001 9.49815C19.5001 9.37641 19.5568 9.2483 19.6535 9.15163C19.8056 8.99946 19.8166 8.99821 21.0001 8.99821C22.1836 8.99821 22.1945 8.99946 22.3466 9.15163ZM15.8467 11.1514L16.0001 11.3047V19.1504V26.996H12.5001H9.00016V19.1504V11.3047L9.15359 11.1514L9.30697 10.998H12.5001H15.6933L15.8467 11.1514ZM9.71609 14.151C9.61934 14.2477 9.56265 14.3758 9.56265 14.4975C9.56265 14.6193 9.61934 14.7474 9.71609 14.8441C9.86796 14.9959 9.88109 14.9975 11.0314 14.9975C12.1817 14.9975 12.1948 14.9959 12.3467 14.8441C12.5131 14.6777 12.5461 14.4064 12.42 14.2421C12.2549 14.0271 12.0799 13.9976 10.9701 13.9976C9.88484 13.9976 9.86734 13.9997 9.71609 14.151ZM9.71609 16.6507C9.61934 16.7474 9.56265 16.8755 9.56265 16.9972C9.56265 17.119 9.61934 17.2471 9.71609 17.3438C9.86753 17.4952 9.88353 17.4972 10.9922 17.4972C11.6097 17.4972 12.1604 17.4797 12.2161 17.4584C12.33 17.4146 12.5001 17.1187 12.5001 16.9643C12.5001 16.9084 12.4179 16.7805 12.3174 16.68L12.1348 16.4973H11.0021C9.8829 16.4973 9.86765 16.4991 9.71609 16.6507ZM19.0313 16.5515C18.455 16.703 17.9487 17.1187 17.6893 17.6534C17.566 17.9075 17.5374 18.0651 17.5357 18.4971C17.5339 18.9841 17.5514 19.061 17.746 19.422C17.982 19.8596 18.1771 20.0483 18.6497 20.2963C18.9231 20.4398 19.045 20.4638 19.5001 20.4638C19.9552 20.4638 20.0771 20.4398 20.3505 20.2963C20.8226 20.0486 21.0178 19.8599 21.2553 19.422C21.451 19.0611 21.4688 18.984 21.4679 18.4971C21.4672 18.043 21.4428 17.9196 21.2995 17.6467C21.0527 17.1765 20.8626 16.9788 20.4408 16.7541C20.038 16.5394 19.4172 16.4501 19.0313 16.5515ZM19.8956 17.5824C20.5378 17.8507 20.6943 18.6925 20.195 19.1919C19.7895 19.5972 19.2107 19.5972 18.8052 19.1919C18.0323 18.419 18.8852 17.1603 19.8956 17.5824ZM24.0001 17.5789C23.6933 17.6755 23.1701 18.2172 23.0761 18.5356C22.9029 19.1215 23.025 19.5886 23.4667 20.0303C23.7904 20.3539 24.1069 20.4968 24.5001 20.4968C24.8932 20.4968 25.2097 20.3539 25.5334 20.0303C26.1442 19.4196 26.1624 18.6427 25.5812 17.9964C25.1767 17.5466 24.5924 17.3922 24.0001 17.5789ZM24.8466 18.6505C25.1567 18.9604 24.937 19.4969 24.5001 19.4969C24.2431 19.4969 24.0001 19.2539 24.0001 18.997C24.0001 18.7401 24.2431 18.4971 24.5001 18.4971C24.6218 18.4971 24.7499 18.5537 24.8466 18.6505ZM9.71609 19.1504C9.61934 19.2471 9.56265 19.3752 9.56265 19.4969C9.56265 19.6187 9.61934 19.7468 9.71609 19.8435C9.8679 19.9953 9.88103 19.9969 11.013 19.9949C11.8131 19.9935 12.1861 19.9701 12.2556 19.9168C12.5374 19.7004 12.5422 19.3383 12.2659 19.121C12.122 19.0078 12.0106 18.997 10.9889 18.997C9.88371 18.997 9.86753 18.9989 9.71609 19.1504ZM9.71609 21.6501C9.61934 21.7468 9.56265 21.8749 9.56265 21.9966C9.56265 22.1184 9.61934 22.2465 9.71609 22.3432C9.86778 22.4949 9.8819 22.4966 11.0176 22.4966C12.137 22.4966 12.1693 22.493 12.3018 22.352C12.4999 22.141 12.4862 21.7939 12.2729 21.6262C12.1203 21.5061 12.0267 21.4967 10.9889 21.4967C9.88371 21.4967 9.86753 21.4986 9.71609 21.6501ZM21.0001 21.5784C20.6933 21.6751 20.1701 22.2167 20.0761 22.5351C19.903 23.121 20.025 23.5881 20.4667 24.0298C20.7904 24.3534 21.107 24.4963 21.5001 24.4963C21.8932 24.4963 22.2098 24.3534 22.5334 24.0298C23.1442 23.4191 23.1624 22.6423 22.5813 21.9959C22.1768 21.5461 21.5924 21.3917 21.0001 21.5784ZM21.8466 22.65C21.9434 22.7467 22.0001 22.8748 22.0001 22.9965C22.0001 23.1183 21.9434 23.2464 21.8466 23.343C21.7499 23.4398 21.6218 23.4965 21.5001 23.4965C21.3783 23.4965 21.2502 23.4398 21.1535 23.343C21.0568 23.2464 21.0001 23.1183 21.0001 22.9965C21.0001 22.8748 21.0568 22.7467 21.1535 22.65C21.2502 22.5533 21.3783 22.4966 21.5001 22.4966C21.6218 22.4966 21.7499 22.5533 21.8466 22.65ZM9.71609 24.1498C9.5299 24.336 9.51578 24.6121 9.68203 24.8175C9.79846 24.9615 9.82928 24.9655 10.9501 24.9844C12.0433 25.0028 12.107 24.9973 12.2682 24.8705C12.5056 24.6838 12.508 24.3107 12.2729 24.1259C12.1203 24.0058 12.0267 23.9964 10.9889 23.9964C9.88371 23.9964 9.86753 23.9983 9.71609 24.1498ZM16.8467 28.1493C17.0497 28.3522 17.0497 28.6395 16.8467 28.8424L16.6933 28.9958H12.5001H8.30697L8.1536 28.8424C8.05685 28.7457 8.00016 28.6176 8.00016 28.4959C8.00016 28.3741 8.05685 28.246 8.1536 28.1493L8.30697 27.9959H12.5001H16.6933L16.8467 28.1493ZM14.0001 31.4955V32.9953H12.5001H11.0001V31.4955V29.9957H12.5001H14.0001V31.4955ZM15.8467 34.1486C15.9434 34.2453 16.0001 34.3734 16.0001 34.4951C16.0001 34.6169 15.9434 34.745 15.8467 34.8417L15.6933 34.9951H12.5001H9.30697L9.15359 34.8417C9.05684 34.745 9.00016 34.6169 9.00016 34.4951C9.00016 34.3734 9.05684 34.2453 9.15359 34.1486L9.30697 33.9952H12.5001H15.6933L15.8467 34.1486Z" fill="#E86851"/>
</svg>
