<svg width="331" height="331" viewBox="0 0 331 331" fill="none" xmlns="http://www.w3.org/2000/svg">
<path d="M162.951 331.071C162.951 238.446 238.378 163.092 331.011 163.092C423.645 163.092 499.072 238.486 499.072 331.071C499.072 423.656 423.631 499.05 331.077 499.05C238.522 499.05 162.951 423.722 162.951 331.071ZM494.78 331.071C494.759 287.661 477.506 246.034 446.812 215.335C416.117 184.636 374.491 167.375 331.077 167.344C240.871 167.344 167.15 240.664 167.15 331.11C167.15 421.556 240.806 495.008 331.077 495.008C421.348 495.008 494.78 421.478 494.78 331.071Z" fill="#E2F2D9"/>
<path d="M219.858 331.07C219.853 309.074 226.372 287.57 238.589 269.279C250.807 250.988 268.175 236.73 288.497 228.309C308.819 219.888 331.182 217.682 352.758 221.97C374.334 226.258 394.153 236.847 409.71 252.399C425.267 267.95 435.862 287.765 440.155 309.338C444.449 330.911 442.248 353.273 433.831 373.595C425.414 393.917 411.159 411.286 392.868 423.507C374.578 435.728 353.074 442.251 331.076 442.251C301.591 442.226 273.321 430.506 252.469 409.661C231.618 388.817 219.89 360.552 219.858 331.07ZM439.039 331.07C439.019 309.717 432.667 288.849 420.787 271.106C408.907 253.362 392.033 239.538 372.297 231.382C352.561 223.227 330.85 221.105 309.908 225.285C288.967 229.465 269.735 239.76 254.644 254.868C239.553 269.976 229.28 289.219 225.125 310.164C220.97 331.108 223.118 352.815 231.299 372.539C239.479 392.263 253.325 409.119 271.084 420.976C288.844 432.833 309.721 439.159 331.076 439.154C359.708 439.084 387.144 427.669 407.373 407.41C427.603 387.15 438.976 359.698 439 331.07H439.039Z" fill="#E2F2D9"/>
<path d="M230.699 331.067C230.71 311.231 236.601 291.844 247.629 275.355C258.657 258.866 274.326 246.017 292.655 238.431C310.985 230.845 331.153 228.862 350.609 232.735C370.065 236.607 387.936 246.16 401.964 260.186C415.991 274.212 425.545 292.082 429.418 311.536C433.291 330.991 431.308 351.156 423.721 369.484C416.135 387.812 403.284 403.48 386.794 414.507C370.303 425.533 350.914 431.424 331.076 431.435C304.463 431.407 278.948 420.824 260.13 402.007C241.311 383.191 230.727 357.678 230.699 331.067ZM428.33 331.067C428.322 311.836 422.611 293.039 411.92 277.052C401.229 261.065 386.038 248.608 368.266 241.253C350.495 233.899 330.942 231.979 312.079 235.736C293.216 239.492 275.891 248.757 262.294 262.358C248.697 275.96 239.438 293.287 235.689 312.15C231.939 331.012 233.868 350.563 241.23 368.329C248.592 386.096 261.057 401.281 277.049 411.965C293.042 422.648 311.843 428.351 331.076 428.351C356.861 428.302 381.576 418.036 399.805 399.801C418.034 381.566 428.291 356.85 428.33 331.067Z" fill="#E2F2D9"/>
<path d="M318.766 165.664L321.889 165.389L325.459 221.662L322.349 221.937L318.766 165.664Z" fill="#E2F2D9"/>
<path d="M298.278 168.325L301.257 167.84L311.783 223.194L308.804 223.758L298.278 168.325Z" fill="#E2F2D9"/>
<path d="M278.211 173.798L281.046 172.893L298.409 226.423L295.575 227.551L278.211 173.798Z" fill="#E2F2D9"/>
<path d="M258.734 181.665L261.582 180.34L285.613 231.337L282.765 232.741L258.734 181.665Z" fill="#E2F2D9"/>
<path d="M240.661 191.765L243.22 190.295L273.499 237.788L270.808 239.547L240.661 191.765Z" fill="#E2F2D9"/>
<path d="M223.993 204.325L226.276 202.291L262.133 245.795L259.718 247.75L223.993 204.325Z" fill="#E2F2D9"/>
<path d="M208.768 218.707L210.907 216.463L252.026 255.124L249.756 257.434L208.768 218.707Z" fill="#E2F2D9"/>
<path d="M195.539 234.915L197.547 232.461L243.221 265.571L241.226 268.104L195.539 234.915Z" fill="#E2F2D9"/>
<path d="M184.737 252.674L186.141 249.932L235.542 277.163L234.099 279.892L184.737 252.674Z" fill="#E2F2D9"/>
<path d="M175.891 271.608L177.19 268.668L229.689 289.429L228.416 292.382L175.891 271.608Z" fill="#E2F2D9"/>
<path d="M169.657 291.529L170.497 288.59L224.977 302.553L224.137 305.637L169.657 291.529Z" fill="#E2F2D9"/>
<path d="M166.074 312.029L166.533 308.945L222.286 316.098L221.853 319.326L166.074 312.029Z" fill="#E2F2D9"/>
<path d="M164.945 332.866V329.703L221.302 329.847V332.866H164.945Z" fill="#E2F2D9"/>
<path d="M281.361 145.178C281.361 105.034 321.036 70.3747 330.158 62.8682L330.302 62.6582L331.851 64.0624L331.562 64.338C321.063 73.0388 269.68 117.947 287.044 164.889L289.039 170.427L287.044 171.267L284.904 165.716C282.577 159.118 281.379 152.174 281.361 145.178Z" fill="#E2F2D9"/>
<path d="M329.764 64.0624L330.748 62.8682V62.6582H331.457L332.769 63.7868C351.144 79.771 392.552 122.015 376.487 165.663L374.164 171.267L372.34 170.427L374.453 164.889C390.203 122.579 349.608 81.1096 331.221 65.1516L330.669 64.7317H330.381L329.764 64.0624Z" fill="#E2F2D9"/>
<path d="M140.035 158.784C140.035 151.199 140.455 145.306 140.743 142.288V141.803L142.738 141.658L142.883 142.288C141.478 155.831 137.055 223.889 182.453 244.729L187.703 247.354L186.68 249.178L181.43 246.658C145.298 230.018 140.035 184.663 140.035 158.784Z" fill="#E2F2D9"/>
<path d="M140.914 141.516L141.058 141.24H141.334L141.478 141.096L142.883 140.964C167.373 139.14 226.696 139.56 246.199 182.08L248.627 187.552L246.764 188.327L244.204 182.775C225.292 141.66 167.084 141.24 143.145 143.064H142.449L142.161 143.209H141.176L140.914 141.516Z" fill="#E2F2D9"/>
<path d="M62.6385 331.804L63.951 330.256L64.5547 330.82C76.6162 345.413 119.455 392.001 164.866 375.164L170.549 373.274L171.1 375.164L165.706 377.001C118.904 394.403 75.2119 346.975 62.9667 332.106L62.6385 331.804Z" fill="#E2F2D9"/>
<path d="M62.4946 331.242L62.639 330.967V330.691L63.479 329.707C79.5829 311.045 121.687 269.497 165.654 285.704L171.048 287.883L170.353 289.707L164.814 287.673C122.251 271.925 80.8166 312.725 65.1983 331.111L64.6339 331.531V331.807L64.0434 332.581L62.4946 331.242Z" fill="#E2F2D9"/>
<path d="M263.117 148.653C263.117 94.4143 316.062 47.8264 329.318 37.0127C329.476 36.6994 329.718 36.4357 330.017 36.2505C330.315 36.0654 330.659 35.9659 331.011 35.9629V39.4012C331.369 39.4052 331.714 39.271 331.976 39.0265C332.237 38.7821 332.395 38.4463 332.415 38.0889V38.9288L331.851 39.3487C317.492 51.0022 247.472 111.777 271.674 176.212L268.38 177.525C264.888 168.3 263.104 158.517 263.117 148.653Z" fill="#E2F2D9"/>
<path d="M329.042 38.9422V38.1023C329.042 38.4504 329.18 38.7841 329.427 39.0303C329.673 39.2764 330.007 39.4146 330.355 39.4146V35.9238C330.722 35.9341 331.081 36.0353 331.399 36.2186C331.718 36.4018 331.986 36.6613 332.179 36.9737C347.548 49.6115 417.856 111.488 393.09 177.394L389.862 176.081C413.998 111.947 343.926 50.8976 329.79 39.2572L329.042 38.9422Z" fill="#E2F2D9"/>
<path d="M120.702 146.983C120.692 139.248 121.13 131.518 122.015 123.834L125.427 123.689V124.398C125.427 125.382 111.778 232.731 179.527 263.598L178.214 266.76C127.934 243.952 120.702 181.222 120.702 146.983Z" fill="#E2F2D9"/>
<path d="M122.986 125.805V122.287H123.708C134.942 121.172 235.989 112.406 266.438 178.495L263.288 179.899C233.823 115.975 135.06 124.545 123.708 125.805H122.986Z" fill="#E2F2D9"/>
<path d="M36.468 332.384L38.8829 329.852L39.1585 330.14C40.0116 331.256 106.882 416.754 176.035 390.626L177.348 393.776C105.91 421.072 39.4604 336.177 36.7568 332.594L36.468 332.384Z" fill="#E2F2D9"/>
<path d="M36.468 330.539L36.7436 330.251C39.4473 326.747 106.042 241.996 177.334 269.069L176.022 272.376C107.144 246.13 42.151 329.135 39.2898 332.573L38.8698 332.993L36.468 330.539Z" fill="#E2F2D9"/>
<path d="M330.171 63.6377V63.2177V37.6797H332.126V38.3752V63.7821L330.171 63.6377Z" fill="#E2F2D9"/>
<path d="M122.815 124.4L124.259 122.93L124.81 123.35L142.738 141.526L141.058 142.72L140.914 142.431L122.815 124.4Z" fill="#E2F2D9"/>
<path d="M163.974 255.679L184.592 249.721L185.157 251.755L164.394 257.713L163.974 255.679Z" fill="#E2F2D9"/>
<path d="M244.073 150.229H242.065V177.735H244.073V150.229Z" fill="#E2F2D9"/>
<path d="M249.467 184.745L255.754 163.773L257.854 164.469L251.475 185.453L249.467 184.745Z" fill="#E2F2D9"/>
<path d="M37.5972 332.092V329.992H38.4371H63.3476L63.7676 330.123L63.4789 332.092H63.2032H38.4371H37.5972Z" fill="#E2F2D9"/>
<path d="M223.152 76.6258L226 75.4316C241.225 111.219 269.39 110.51 272.514 110.235L272.803 113.398C269.39 113.673 239.204 114.447 223.152 76.6258Z" fill="#E2F2D9"/>
<path d="M213.887 133.589C221.998 125.387 233.954 107.211 222.589 77.1584L225.581 76.043C237.957 108.943 223.153 128.799 216.171 135.82L213.887 133.589Z" fill="#E2F2D9"/>
<path d="M235.818 106.854L237.826 106.014C245.701 125.804 259.153 130.856 266.7 132.116L266.28 134.216C258.445 132.812 244.06 127.418 235.818 106.854Z" fill="#E2F2D9"/>
<path d="M233.534 144.19C237.826 137.024 241.645 124.675 235.398 106.854L237.366 106.014C243.929 124.675 239.781 137.733 235.227 145.305L233.534 144.19Z" fill="#E2F2D9"/>
<path d="M74.8839 227.398L76.0126 224.524C112.145 239.196 131.517 218.711 133.656 216.322L135.926 218.422C133.656 220.955 113.024 242.845 74.8839 227.398Z" fill="#E2F2D9"/>
<path d="M74.8839 228.103L76.0126 225.229C108.181 239.756 111.725 264.021 111.725 274.126L108.601 274.271V274.126C108.601 264.795 105.202 241.83 74.8839 228.103Z" fill="#E2F2D9"/>
<path d="M105.202 239.82L106.042 237.93C125.545 246.277 138.63 240.306 144.733 236.027L146.045 237.642C139.614 242.274 125.545 248.586 105.202 239.82Z" fill="#E2F2D9"/>
<path d="M104.743 240.176L105.622 238.352C123.55 246.764 129.653 258.837 131.871 267.394L129.719 267.813C127.934 259.743 121.831 248.312 104.743 240.176Z" fill="#E2F2D9"/>
<path d="M306.98 87.494L307.951 85.6699C316.757 90.0138 331.706 101.523 332.126 128.531H330.158C329.764 104.03 317.361 92.6778 306.98 87.494Z" fill="#E2F2D9"/>
<path d="M330.302 128.539C331.011 101.806 345.396 90.4809 353.599 86.0977L354.583 87.8431C346.708 92.0557 333.111 102.935 332.415 128.683L330.302 128.539Z" fill="#E2F2D9"/>
<path d="M141.059 173.863C150.561 170.714 169.368 168.325 188.425 187.131L187.021 188.667C169.513 171.409 152.7 172.249 141.899 175.898L141.059 173.863Z" fill="#E2F2D9"/>
<path d="M172.072 153.905C171.99 149.737 172.606 145.585 173.896 141.621L175.747 142.33C173.122 150.886 171.193 168.222 188.976 186.949L187.296 188.353C175.196 175.624 172.072 163.34 172.072 153.905Z" fill="#E2F2D9"/>
<path d="M85.6466 354.118C91.0539 343.462 102.879 330.404 128.485 330.129V332.097C103.864 332.583 92.6289 344.866 87.5103 355.103L85.6466 354.118Z" fill="#E2F2D9"/>
<path d="M85.9745 308.232L87.8251 307.393C92.0774 315.385 102.918 329.138 128.669 329.558L128.524 331.802C101.763 330.962 90.3975 316.723 85.9745 308.232Z" fill="#E2F2D9"/>
<path d="M292.871 108.614L293.566 105.596C294.026 105.74 331.562 115.425 332.691 164.887L329.607 165.018C328.452 117.945 294.328 108.89 292.871 108.614Z" fill="#E2F2D9"/>
<path d="M330.158 164.887C331.142 115.425 367.852 105.74 368.337 105.596L369.177 108.614C367.563 108.89 334.24 117.945 333.255 165.045L330.158 164.887Z" fill="#E2F2D9"/>
<path d="M145.022 198.074C145.442 197.785 178.87 178.218 214.582 212.509L212.469 214.753C178.345 182.063 147.004 200.436 146.584 200.724L145.022 198.074Z" fill="#E2F2D9"/>
<path d="M192.415 168.603C192.415 154.574 197.967 145.309 198.098 145.178L200.723 146.858C199.87 148.17 182.782 178.144 215.239 211.963L212.955 214.272C196.799 197.369 192.415 181.228 192.415 168.603Z" fill="#E2F2D9"/>
<path d="M105.478 368.368C105.622 368.158 115.308 330.547 164.814 329.562L164.945 332.581C117.867 333.775 108.601 368.788 108.601 369.208L105.478 368.368Z" fill="#E2F2D9"/>
<path d="M105.478 293.773L108.601 292.934C108.877 294.338 117.867 327.881 164.945 328.852L164.814 332.094C115.308 330.965 105.622 294.062 105.478 293.773Z" fill="#E2F2D9"/>
<path d="M182.178 117.153C182.244 101.025 188.695 85.5804 200.119 74.1962C211.544 62.812 227.013 56.4151 243.142 56.4048C252.464 56.3665 261.666 58.5101 270.012 62.6643C278.357 66.8185 285.615 72.8679 291.204 80.3287L288.356 82.4416C283.117 75.3965 276.295 69.681 268.442 65.7556C260.588 61.8303 251.922 59.805 243.142 59.8431C227.93 59.8396 213.339 65.8731 202.573 76.6185C191.807 87.3639 185.746 101.943 185.722 117.153C185.793 119.95 186.025 122.742 186.417 125.512L183.018 125.919C182.558 123.017 182.277 120.09 182.178 117.153Z" fill="#E2F2D9"/>
<path d="M56.9558 242C56.9364 234.044 58.4854 226.163 61.5144 218.806C64.5434 211.449 68.9928 204.762 74.6083 199.126C81.1746 192.451 89.2208 187.416 98.0953 184.429C106.97 181.443 116.423 180.588 125.689 181.934L125.086 185.438C116.359 184.212 107.467 185.047 99.1204 187.875C90.7744 190.703 83.2066 195.446 77.0233 201.724C71.7092 207.028 67.4933 213.327 64.6168 220.262C61.7404 227.196 60.2597 234.63 60.2597 242.137C60.2597 249.645 61.7404 257.079 64.6168 264.013C67.4933 270.948 71.7092 277.247 77.0233 282.551C79.0029 284.544 81.1404 286.374 83.4149 288.023L81.2625 290.766C78.9323 289.003 76.7103 287.101 74.6083 285.071C68.9372 279.435 64.4532 272.72 61.4212 265.322C58.3893 257.924 56.8709 249.994 56.9558 242Z" fill="#E2F2D9"/>
<path d="M186.705 126.344C187.949 110.866 194.963 96.4203 206.356 85.869C217.749 75.3177 232.691 69.4311 248.22 69.3757C262.812 69.2376 276.925 74.5813 287.765 84.3494L286.177 86.1079C275.709 76.8519 262.194 71.7821 248.22 71.8691C233.309 71.9082 218.953 77.5353 207.988 87.6397C197.022 97.7441 190.243 111.592 188.989 126.449L186.705 126.344Z" fill="#E2F2D9"/>
<path d="M69.3455 248.398C69.3105 240.268 70.9032 232.213 74.0295 224.708C77.1559 217.203 81.7528 210.399 87.5494 204.698C97.6876 194.21 111.402 187.923 125.965 187.086L126.254 189.461C112.21 190.379 98.9888 196.406 89.085 206.404C78.5751 217 72.4241 231.154 71.8481 246.067C71.2722 260.98 76.3132 275.566 85.9744 286.942L84.1107 288.635C74.5625 277.404 69.3279 263.139 69.3455 248.398Z" fill="#E2F2D9"/>
<path d="M186.705 126.344C187.949 110.866 194.963 96.4203 206.356 85.869C217.749 75.3177 232.691 69.4311 248.22 69.3757C262.812 69.2376 276.925 74.5813 287.765 84.3494L286.177 86.1079C275.709 76.8519 262.194 71.7821 248.22 71.8691C233.309 71.9082 218.953 77.5353 207.988 87.6397C197.022 97.7441 190.243 111.592 188.989 126.449L186.705 126.344Z" fill="#E2F2D9"/>
<path d="M267.54 64.6677L269.679 63.5391C272.383 68.316 275.218 73.1585 278.066 77.6467L275.782 78.959C273.079 74.4446 270.099 69.3921 267.54 64.6677Z" fill="#E2F2D9"/>
<path d="M257.146 59.8516C258.314 61.5314 259.154 63.3687 260.282 65.1797C262.068 67.8333 263.682 70.5993 265.112 73.4605" fill="#E2F2D9"/>
<path d="M246.488 59.1541L248.627 57.8418C250.622 61.4245 252.735 64.7841 254.73 68.3405C254.956 68.8106 255.238 69.2513 255.57 69.6528C255.57 70.0728 256.03 70.4927 256.03 70.9652L254.035 72.0938C253.89 71.8051 253.602 71.3851 253.326 70.9652C253.05 70.5452 252.735 70.1253 252.735 69.6528C250.622 66.0964 248.627 62.5925 246.488 59.1541Z" fill="#E2F2D9"/>
<path d="M237.892 59.1541L239.847 57.8418C241.567 60.6502 243.43 63.813 244.966 66.687C245.8 67.8538 246.52 69.0973 247.118 70.4009L244.966 71.7132C244.385 70.4393 243.732 69.1994 243.01 67.9993C241.225 64.9022 239.506 61.8182 237.892 59.1541Z" fill="#E2F2D9"/>
<path d="M229.124 60.1248L231.25 58.8125C232.563 61.4372 234.098 64.0618 235.542 66.6865L238.167 70.9647L236.028 72.1589L233.6 67.8151C231.959 65.1773 230.424 62.6576 229.124 60.1248Z" fill="#E2F2D9"/>
<path d="M229.4 73.7485C226.985 69.9558 224.833 65.8744 222.418 62.0293L229.4 73.7485Z" fill="#E2F2D9"/>
<path d="M214.452 65.6727L216.591 64.4785C218.31 67.7725 220.594 71.2108 222.589 74.4392L223.573 75.909L221.434 77.1032L220.594 75.699C218.455 72.5363 216.315 69.1111 214.452 65.6727Z" fill="#E2F2D9"/>
<path d="M215.186 80.3359C213.047 76.5564 210.632 72.7637 208.624 69.2598L215.186 80.3359Z" fill="#E2F2D9"/>
<path d="M208.913 85.2439C207.174 81.4556 205.082 77.8395 202.665 74.4434L208.913 85.2439Z" fill="#E2F2D9"/>
<path d="M203.768 90.7146C201.498 87.2894 199.529 83.851 197.534 80.334L203.768 90.7146Z" fill="#E2F2D9"/>
<path d="M198.242 97.3848C196.379 93.9465 194.423 90.4426 192.415 87.293L198.242 97.3848Z" fill="#E2F2D9"/>
<path d="M188.136 95.3457C189.856 98.0885 191.68 101.251 193.268 104.335C193.268 104.335 193.268 104.611 193.688 104.611" fill="#E2F2D9"/>
<path d="M185.012 105.453C185.643 106.281 186.205 107.158 186.692 108.078C187.86 110.256 189.317 112.015 190.144 114.049" fill="#E2F2D9"/>
<path d="M187.861 125.386C186.692 123.352 185.432 121.029 183.858 118.824L187.861 125.386Z" fill="#E2F2D9"/>
<path d="M69.3455 248.398C69.3105 240.268 70.9032 232.213 74.0295 224.708C77.1559 217.203 81.7528 210.399 87.5494 204.698C97.6876 194.21 111.402 187.923 125.965 187.086L126.254 189.461C112.21 190.379 98.9888 196.406 89.085 206.404C78.5751 217 72.4241 231.154 71.8481 246.067C71.2722 260.98 76.3132 275.566 85.9744 286.942L84.1107 288.635C74.5625 277.404 69.3279 263.139 69.3455 248.398Z" fill="#E2F2D9"/>
<path d="M97.6555 187.553L98.3511 185.23C103.758 186.7 109.166 188.183 114.284 189.299L113.72 191.766C108.601 190.427 103.063 189.023 97.6555 187.553Z" fill="#E2F2D9"/>
<path d="M86.6698 192.735L87.2735 190.359C88.3891 190.569 89.2291 190.911 90.2528 191.199C91.235 191.441 92.2295 191.629 93.2321 191.764C96.3558 192.603 99.6238 193.299 102.629 194.388L101.763 196.711C98.787 195.716 95.7487 194.918 92.6678 194.323L89.6491 193.483C88.8091 193.155 87.6935 193.023 86.6698 192.735Z" fill="#E2F2D9"/>
<path d="M78.8475 198.64L79.4119 196.252C81.2625 196.672 83.1261 197.236 84.9898 197.656C87.0898 198.076 89.2291 198.706 91.2372 199.192L92.0771 199.402C92.7093 199.535 93.3285 199.724 93.9277 199.966L93.2321 202.276C92.7044 201.991 92.1124 201.846 91.5128 201.856L90.6728 201.724C88.5335 201.16 86.3942 200.412 84.3861 199.966C82.3781 199.52 80.7112 199.126 78.8475 198.64Z" fill="#E2F2D9"/>
<path d="M72.7448 204.81L73.1647 202.422C76.2884 203.131 79.412 203.97 82.7063 204.81C84.1107 205.296 85.83 205.65 87.4049 206.123L86.6699 208.367C85.1212 208.091 83.5463 207.671 81.9713 207.251C78.946 206.259 75.8652 205.444 72.7448 204.81Z" fill="#E2F2D9"/>
<path d="M67.2715 211.644L68.1115 209.256L76.4587 211.644C78.1485 211.992 79.8109 212.461 81.4329 213.049L80.7373 215.293C79.1493 214.807 77.4693 214.453 75.75 213.98C72.8757 213.232 70.0408 212.379 67.2715 211.644Z" fill="#E2F2D9"/>
<path d="M77.2992 221.018C72.8762 219.969 68.4663 218.564 64.0433 217.58L77.2992 221.018Z" fill="#E2F2D9"/>
<path d="M60.9197 225.793L61.484 223.326C65.7994 224.67 70.1799 225.796 74.6086 226.699L74.0049 229.087C69.6213 228.103 65.1983 226.988 60.9197 225.793Z" fill="#E2F2D9"/>
<path d="M71.9046 235.755C67.7572 234.443 63.3474 233.432 59.3706 232.461L71.9046 235.755Z" fill="#E2F2D9"/>
<path d="M58.6361 241.565L58.9249 239.189C63.0799 239.965 67.1726 241.044 71.1701 242.418L70.4614 244.662C66.5915 243.372 62.6413 242.338 58.6361 241.565Z" fill="#E2F2D9"/>
<path d="M71.2091 251.123C67.2717 250.27 63.3344 249.154 59.397 248.314L71.2091 251.123Z" fill="#E2F2D9"/>
<path d="M71.905 259.746C68.1777 258.552 64.0303 257.581 60.4998 256.807L71.905 259.746Z" fill="#E2F2D9"/>
<path d="M63.3345 265.361C66.445 266.136 69.7524 267.12 73.296 268.104C73.296 268.104 73.4273 268.235 73.716 268.104" fill="#E2F2D9"/>
<path d="M68.1777 274.641C69.3458 274.929 70.0414 275.205 71.3014 275.415C73.4407 276.189 75.7244 276.399 77.8637 277.095" fill="#E2F2D9"/>
<path d="M84.2547 286.976C82.1417 286.267 79.4117 285.493 77.0231 284.941L84.2547 286.976Z" fill="#E2F2D9"/>
<path d="M199.083 31.0811C199.083 25.8318 201.091 23.9289 202.521 23.3646C207.929 20.9105 215.646 30.4512 220.174 40.4249C222.536 45.7158 223.873 51.4072 224.111 57.1966C224.111 62.446 222.392 64.2832 220.843 64.9919C219.556 65.4207 218.158 65.3694 216.906 64.8476C212.509 63.1678 207.076 56.5011 203.388 47.8659C200.671 41.816 199.083 35.6349 199.083 31.0811ZM221.723 57.2491C221.445 51.8058 220.145 46.4633 217.89 41.5011C213.047 30.8449 206.354 24.2438 203.453 25.5037C202.324 26.068 201.458 28.1284 201.458 31.1205C201.458 35.4774 203.033 41.2911 205.396 46.9735C208.939 54.69 213.927 61.2911 217.641 62.7215C218.301 63.0382 219.057 63.0898 219.754 62.8659C221.158 62.3016 221.723 60.2675 221.723 57.2491Z" fill="#E2F2D9"/>
<path d="M22.2153 205.939C22.1444 205.361 22.2995 204.778 22.6484 204.311C24.6434 198.839 36.7442 200.112 47.1258 204.115C57.5074 208.117 65.1984 214.495 65.1984 219.259C65.2528 219.837 65.1579 220.42 64.9228 220.952C64.6515 221.56 64.2591 222.106 63.7694 222.558C63.2797 223.009 62.703 223.356 62.0747 223.576C57.6517 225.545 49.1339 224.626 40.4322 221.044C29.6176 217.015 22.2153 210.702 22.2153 205.939ZM62.9016 219.259C62.9016 216.031 56.6543 210.427 46.1021 206.359C35.2874 202.002 25.9296 202.277 24.6302 205.164V205.939C24.6302 209.023 30.8775 214.849 41.2985 218.839C49.252 221.923 57.5074 223.052 60.9854 221.372C61.3434 221.286 61.6746 221.113 61.9494 220.868C62.2242 220.623 62.4341 220.313 62.5603 219.968C62.6679 219.883 62.7554 219.775 62.8166 219.653C62.8779 219.53 62.9113 219.396 62.9147 219.259H62.9016Z" fill="#E2F2D9"/>
<path d="M178.03 83.039C178.03 44.0889 201.786 23.7477 202.245 23.459L203.781 25.3618C203.505 25.5718 168.948 55.1781 184.094 110.756L181.85 111.451C179.289 102.198 178.004 92.6394 178.03 83.039Z" fill="#E2F2D9"/>
<path d="M202.941 23.2239C203.505 23.0927 249.888 18.5913 280.481 69.5362L278.342 70.8486C248.772 21.2423 203.65 25.6648 203.23 25.6648L202.941 23.2239Z" fill="#E2F2D9"/>
<path d="M22.3594 206.908V204.742L24.9843 204.808C24.9843 205.372 21.4407 250.621 71.6554 279.047L70.3429 281.212C25.3387 255.674 22.3594 216.737 22.3594 206.908Z" fill="#E2F2D9"/>
<path d="M22.6483 204.036C22.9239 203.681 52.6774 167.487 110.321 181.936L109.586 184.324C53.793 170.217 24.9189 205.164 24.4989 205.518L22.6483 204.036Z" fill="#E2F2D9"/>
<path d="M286.348 25.3337L289.052 23.7852L308.804 59.5726L306.245 61.1211L286.348 25.3337Z" fill="#E2F2D9"/>
<path d="M328.491 37.9588L328.767 0.150391L333.255 0.216031L332.98 38.1032L328.491 37.9588Z" fill="#E2F2D9"/>
<path d="M293.435 24.4828C293.453 26.0085 292.864 27.4789 291.799 28.5712C290.733 29.6636 289.278 30.2888 287.752 30.3095C286.982 30.3275 286.216 30.1891 285.501 29.9026C284.786 29.6161 284.136 29.1876 283.592 28.6429C283.047 28.0982 282.618 27.4487 282.332 26.7336C282.045 26.0186 281.907 25.2528 281.925 24.4828C281.89 23.7109 282.019 22.9403 282.301 22.2211C282.584 21.502 283.014 20.8502 283.565 20.3082C284.116 19.7662 284.774 19.346 285.498 19.0749C286.222 18.8039 286.994 18.688 287.765 18.7347C289.276 18.7554 290.718 19.3701 291.779 20.4459C292.841 21.5216 293.435 22.9718 293.435 24.4828Z" fill="#E2F2D9"/>
<path d="M83.1265 146.436L83.9796 143.418L123.406 154.652L122.395 157.736L83.1265 146.436Z" fill="#E2F2D9"/>
<path d="M143.618 83.8489L146.597 82.9434L158.107 122.93L155.128 123.836L143.618 83.8489Z" fill="#E2F2D9"/>
<path d="M95.516 98.5899L98.6396 95.5059L125.086 122.579L121.975 125.663L95.516 98.5899Z" fill="#E2F2D9"/>
<path d="M87.6939 140.775C88.2376 141.319 88.669 141.965 88.9633 142.675C89.2576 143.385 89.4091 144.147 89.4091 144.916C89.4091 145.685 89.2576 146.446 88.9633 147.157C88.669 147.867 88.2376 148.512 87.6939 149.056C87.1501 149.6 86.5045 150.031 85.7941 150.326C85.0836 150.62 84.3221 150.771 83.5531 150.771C82.784 150.771 82.0226 150.62 81.3121 150.326C80.6016 150.031 79.956 149.6 79.4122 149.056C78.3623 147.933 77.7782 146.453 77.7782 144.916C77.7782 143.378 78.3623 141.898 79.4122 140.775C80.5439 139.743 82.0208 139.17 83.5531 139.17C85.0853 139.17 86.5622 139.743 87.6939 140.775Z" fill="#E2F2D9"/>
<path d="M149.301 79.3504C149.843 79.8884 150.273 80.5283 150.567 81.2333C150.86 81.9383 151.011 82.6944 151.011 83.4581C151.011 84.2217 150.86 84.9778 150.567 85.6828C150.273 86.3878 149.843 87.0277 149.301 87.5657C148.187 88.674 146.679 89.2962 145.107 89.2962C143.536 89.2962 142.028 88.674 140.914 87.5657C140.365 87.0273 139.931 86.3827 139.64 85.6711C139.348 84.9595 139.205 84.1959 139.218 83.427C139.232 82.6581 139.402 81.9 139.718 81.1991C140.035 80.4982 140.491 79.8691 141.059 79.3504C142.16 78.2732 143.639 77.6699 145.18 77.6699C146.72 77.6699 148.2 78.2732 149.301 79.3504Z" fill="#E2F2D9"/>
<path d="M23.6589 288.862L25.2076 286.133L61.484 306.198L60.2241 308.941L23.6589 288.862Z" fill="#E2F2D9"/>
<path d="M0.152588 333.434V328.867L38.0171 329.143L37.8727 333.775L0.152588 333.434Z" fill="#E2F2D9"/>
<path d="M24.3545 281.568C25.9001 281.568 27.3823 282.182 28.4751 283.275C29.5679 284.368 30.1819 285.85 30.1819 287.395C30.1819 288.94 29.5679 290.423 28.4751 291.515C27.3823 292.608 25.9001 293.222 24.3545 293.222C22.809 293.222 21.3268 292.608 20.234 291.515C19.1412 290.423 18.5272 288.94 18.5272 287.395C18.5272 285.85 19.1412 284.368 20.234 283.275C21.3268 282.182 22.809 281.568 24.3545 281.568Z" fill="#E2F2D9"/>
<path d="M193.819 166.919L194.108 164.176C194.423 164.176 229.256 166.919 229.256 199.333H226.421C226.421 169.648 195.263 166.919 193.819 166.919Z" fill="#E2F2D9"/>
<path d="M198.938 190.281C205.08 188.746 213.756 185.872 219.583 178.221C223.717 173.588 226.001 167.486 226.421 160.045L229.124 160.321C228.56 168.326 226.132 174.992 221.578 180.006C215.475 188.365 206.209 191.239 199.686 192.919L198.938 190.281Z" fill="#E2F2D9"/>
<path d="M116.003 309.772C116.423 309.641 142.883 286.977 165.785 309.917L163.829 311.885C142.83 290.77 118.983 311.045 117.893 311.951L116.003 309.772Z" fill="#E2F2D9"/>
<path d="M136.071 284.084L138.171 282.26C143.618 288.297 146.597 294.898 146.873 301.63C148.461 311.879 143.762 320.711 140.455 326.394L138.04 324.924C141.19 319.596 145.587 311.315 144.038 301.905C143.762 295.737 141.059 289.701 136.071 284.084Z" fill="#E2F2D9"/>
<path d="M300.968 144.533C300.968 129.874 310.943 118.155 311.074 117.945L313.082 119.769C312.374 120.754 291.886 144.612 313.082 165.793L311.074 167.617C303.515 159.979 300.968 151.764 300.968 144.533Z" fill="#E2F2D9"/>
<path d="M282.201 138.934L284.195 136.9C299.945 152.333 317.361 145.312 326.194 139.84L327.664 142.294C318.057 148.265 299.433 155.837 282.201 138.934Z" fill="#E2F2D9"/>
<path d="M166.218 194.583L168.948 194.373C169.093 195.567 171.652 226.866 201.366 226.722V229.596C168.948 229.57 166.389 194.767 166.218 194.583Z" fill="#E2F2D9"/>
<path d="M160.666 226.991C182.729 226.702 190 209.576 192.415 199.34L194.974 199.97C192.415 210.98 184.737 229.51 160.666 229.786V226.991Z" fill="#E2F2D9"/>
<path d="M250.176 331.068C250.155 315.081 254.877 299.446 263.744 286.142C272.61 272.838 285.224 262.461 299.989 256.326C314.754 250.19 331.007 248.571 346.692 251.672C362.378 254.774 376.791 262.457 388.109 273.75C399.427 285.043 407.141 299.439 410.276 315.116C413.411 330.794 411.826 347.048 405.721 361.825C399.616 376.601 389.265 389.235 375.979 398.129C362.692 407.023 347.066 411.777 331.076 411.79C309.65 411.79 289.098 403.291 273.932 388.158C258.765 373.024 250.221 352.493 250.176 331.068ZM410.152 331.068C410.162 315.434 405.536 300.147 396.859 287.142C388.181 274.136 375.841 263.995 361.4 258.001C346.959 252.007 331.064 250.43 315.726 253.468C300.388 256.506 286.296 264.023 275.23 275.069C264.165 286.115 256.623 300.194 253.559 315.526C250.496 330.857 252.047 346.753 258.017 361.202C263.988 375.652 274.109 388.008 287.102 396.706C300.094 405.405 315.375 410.056 331.011 410.071C351.97 410.047 372.066 401.72 386.899 386.913C401.732 372.106 410.093 352.026 410.152 331.068Z" fill="#E2F2D9"/>
<path d="M242.63 331.064C242.64 313.587 247.832 296.506 257.549 281.979C267.265 267.452 281.071 256.132 297.221 249.448C313.371 242.765 331.14 241.019 348.282 244.431C365.424 247.843 381.169 256.26 393.528 268.618C405.887 280.976 414.305 296.72 417.717 313.86C421.129 331.001 419.383 348.768 412.7 364.916C406.016 381.064 394.694 394.869 380.166 404.585C365.637 414.301 348.555 419.492 331.076 419.502C307.626 419.478 285.144 410.152 268.562 393.572C251.98 376.992 242.654 354.512 242.63 331.064ZM417.528 331.064C417.528 313.926 412.443 297.173 402.918 282.926C393.392 268.679 379.853 257.577 364.015 251.027C348.177 244.476 330.751 242.771 313.944 246.127C297.136 249.482 281.702 257.749 269.594 269.879C257.487 282.009 249.25 297.458 245.927 314.271C242.604 331.084 244.344 348.504 250.926 364.328C257.509 380.152 268.638 393.667 282.905 403.164C297.173 412.661 313.937 417.712 331.076 417.678C354.021 417.633 376.009 408.488 392.217 392.249C408.425 376.011 417.528 354.006 417.528 331.064Z" fill="#E2F2D9"/>
</svg>
