<svg width="199" height="200" viewBox="0 0 199 200" fill="none" xmlns="http://www.w3.org/2000/svg">
<path d="M-101.217 0.919586C-101.217 -54.8013 -55.8418 -100.133 -0.115585 -100.133C55.6106 -100.133 100.986 -54.7777 100.986 0.919586C100.986 56.6168 55.6027 101.972 -0.0761185 101.972C-55.7549 101.972 -101.217 56.6563 -101.217 0.919586ZM98.404 0.919586C98.3915 -25.1948 88.0127 -50.2364 69.5475 -68.7043C51.0822 -87.1722 26.0408 -97.5561 -0.0761185 -97.5749C-54.3417 -97.5749 -98.6905 -53.4671 -98.6905 0.943268C-98.6905 55.3537 -54.3811 99.5404 -0.0761185 99.5404C54.2289 99.5404 98.404 55.3063 98.404 0.919586Z" fill="#E2F2D9"/>
<path d="M-66.9824 0.919579C-66.9855 -12.3126 -63.0642 -25.2486 -55.7144 -36.2523C-48.3645 -47.256 -37.9163 -55.8332 -25.6911 -60.8991C-13.4658 -65.965 -0.0127182 -67.2921 12.9669 -64.7125C25.9464 -62.133 37.8694 -55.7626 47.228 -46.4071C56.5866 -37.0516 62.9604 -25.1313 65.5432 -12.1535C68.1261 0.824188 66.802 14.2764 61.7385 26.5016C56.675 38.7269 48.0995 49.1761 37.0965 56.5279C26.0935 63.8796 13.1572 67.8036 -0.0762329 67.8036C-17.8136 67.789 -34.8206 60.7381 -47.3643 48.1986C-59.908 35.659 -66.9636 18.6553 -66.9824 0.919579ZM64.8719 0.919579C64.8594 -11.9258 61.0383 -24.4791 53.8917 -35.1534C46.7451 -45.8277 36.5938 -54.1437 24.7212 -59.05C12.8486 -63.9564 -0.212296 -65.2328 -12.8103 -62.718C-25.4084 -60.2032 -36.9779 -54.01 -46.0563 -44.9214C-55.1347 -35.8328 -61.3144 -24.2569 -63.8142 -11.657C-66.3139 0.942886 -65.0215 14.001 -60.1002 25.8665C-55.179 37.732 -46.8499 47.8722 -36.166 55.0052C-25.482 62.1382 -12.9229 65.9436 -0.0762329 65.9405C17.1477 65.8987 33.6528 59.0316 45.8224 46.844C57.992 34.6563 64.8336 18.142 64.8482 0.919579H64.8719Z" fill="#E2F2D9"/>
<path d="M-60.4609 0.917225C-60.4547 -11.0156 -56.9105 -22.6788 -50.2765 -32.598C-43.6424 -42.5172 -34.2162 -50.2472 -23.1895 -54.8108C-12.1627 -59.3744 -0.0303421 -60.5668 11.674 -58.2373C23.3784 -55.9078 34.1294 -50.1609 42.568 -41.7231C51.0066 -33.2853 56.754 -22.5354 59.0838 -10.8321C61.4135 0.871181 60.221 13.0024 55.6569 24.0281C51.0929 35.0538 43.3621 44.4791 33.442 51.1125C23.5218 57.746 11.8576 61.2898 -0.0763969 61.296C-16.0862 61.2793 -31.4356 54.9126 -42.7562 43.593C-54.0769 32.2734 -60.4442 16.9256 -60.4609 0.917225ZM58.429 0.917225C58.4243 -10.6519 54.9891 -21.96 48.5575 -31.5771C42.126 -41.1942 32.9871 -48.6886 22.2962 -53.1127C11.6054 -57.5368 -0.157375 -58.6919 -11.5048 -56.432C-22.8521 -54.1721 -33.2746 -48.5987 -41.4543 -40.4164C-49.6341 -32.2341 -55.2038 -21.8103 -57.4594 -10.4631C-59.7149 0.884079 -58.5549 12.6452 -54.1261 23.3333C-49.6973 34.0214 -42.1985 43.1564 -32.5778 49.5834C-22.9572 56.0104 -11.6467 59.4408 -0.0763969 59.4408C15.4353 59.4116 30.303 53.2356 41.2693 42.2659C52.2355 31.2963 58.406 16.4275 58.429 0.917225Z" fill="#E2F2D9"/>
<path d="M3.12964 66.9178L5.03243 66.7441L7.06157 100.597L5.19825 100.684L3.12964 66.9178Z" fill="#E2F2D9"/>
<path d="M11.364 66.1107L13.1405 65.6055L19.4726 98.8659L17.6961 99.2054L11.364 66.1107Z" fill="#E2F2D9"/>
<path d="M19.386 64.0033L21.2019 63.498L31.545 95.6532L29.7685 96.2059L19.386 64.0033Z" fill="#E2F2D9"/>
<path d="M27.1079 61.1342L28.8449 60.25L43.112 90.8894L41.4224 91.6946L27.1079 61.1342Z" fill="#E2F2D9"/>
<path d="M34.3718 57.2083L36.014 56.1504L54.1736 84.8556L52.6103 85.8661L34.3718 57.2083Z" fill="#E2F2D9"/>
<path d="M41.1702 52.4381L42.6861 51.2539L64.1776 77.338L62.7011 78.4828L41.1702 52.4381Z" fill="#E2F2D9"/>
<path d="M47.3281 46.8689L48.5993 45.3926L73.249 68.6504L71.9857 70.0004L47.3281 46.8689Z" fill="#E2F2D9"/>
<path d="M52.7759 40.5381L53.8338 38.9355L81.1048 58.9407L80.0863 60.3776L52.7759 40.5381Z" fill="#E2F2D9"/>
<path d="M57.2053 33.5303L58.2633 31.9277L87.7686 48.3014L86.9239 49.9909L57.2053 33.5303Z" fill="#E2F2D9"/>
<path d="M60.8374 26.1439L61.6033 24.3281L93.0035 36.9044L92.4193 38.6334L60.8374 26.1439Z" fill="#E2F2D9"/>
<path d="M63.6638 18.3342L64.0033 16.4316L96.7221 24.9185L96.3826 26.7737L63.6638 18.3342Z" fill="#E2F2D9"/>
<path d="M65.314 10.1886L65.4797 8.20703L99.0039 12.5965L98.7433 14.4912L65.314 10.1886Z" fill="#E2F2D9"/>
<path d="M92.4114 -36.7146C135.552 -53.1751 176.672 -0.398861 177.011 0.0985069L177.177 0.177456L175.701 1.70903L175.448 1.54325C174.943 0.864307 134.794 -50.633 93.0904 -34.7172L92.4114 -36.7146Z" fill="#E2F2D9"/>
<path d="M92.4114 38.2121L93.0904 36.2226C134.628 52.0989 174.943 0.601636 175.448 0.00953238L175.701 -0.15625L177.177 1.19374L177.011 1.53321C175.361 3.55426 135.386 54.4989 92.4114 38.2121Z" fill="#E2F2D9"/>
<path d="M96.1301 -25.5294L99.4068 -26.7137C128.62 -37.5136 156.096 -5.94265 161.205 0.388914L161.37 0.554722L160.533 1.39944L160.273 1.23366C155.125 -5.14528 128.281 -35.9978 99.8252 -25.6084L96.5328 -24.3058L96.1301 -25.5294Z" fill="#E2F2D9"/>
<path d="M96.1301 26.9695L96.5486 25.8721L99.841 27.1432C125.47 36.5142 150.285 12.0248 159.847 1.0906L160.099 0.759012V0.585328L160.526 0.0800781L161.197 0.759012H161.362V1.26429L160.778 1.89585C151.106 12.9958 125.778 38.03 99.3989 28.359L96.1301 26.9695Z" fill="#E2F2D9"/>
<path d="M-0.541748 161.583L-0.202249 161.204C8.62488 153.901 36.4406 127.904 26.3897 100.888L25.1264 97.5567L26.3107 97.1777L27.5582 100.391C37.9013 128.291 9.57234 154.714 0.666257 162.104L0.326758 162.483L-0.541748 161.583Z" fill="#E2F2D9"/>
<path d="M-29.5656 112.836C-29.608 108.633 -28.8856 104.457 -27.4338 100.512L-26.139 97.0938L-24.9389 97.5595L-26.2258 100.891C-35.7004 126.47 -11.1613 151.417 -0.17079 160.891L0.168709 161.223H0.334507L0.760868 161.523L-0.0760479 162.517L-0.162888 162.43H-0.328709L-0.92087 161.846C-10.3954 153.652 -29.5656 134.452 -29.5656 112.836Z" fill="#E2F2D9"/>
<path d="M86.0791 51.4474L86.5844 50.3105L89.7979 51.7869C116.982 64.1974 115.545 102.984 114.448 114.51V114.803L113.137 114.889V114.424C114.234 102.984 115.719 64.9553 89.332 52.8448L86.0791 51.4474Z" fill="#E2F2D9"/>
<path d="M49.5232 87.3792L50.6207 86.7871L52.0971 90.0792C63.5377 114.948 98.404 115.113 112.971 114.055H113.39L113.476 113.89H114.069L114.234 115.026H114.148V115.2H114.069L113.903 115.279L113.113 115.366C98.3014 116.424 62.6691 116.155 51.0233 90.6318L49.5232 87.3792Z" fill="#E2F2D9"/>
<path d="M-0.865608 177.25V176.784L-0.526109 176.453C8.001 169.529 50.2181 132.976 35.6115 94.1423L37.4669 93.4238C52.6262 133.142 10.2828 170.326 1.07667 177.803C0.78011 178.163 0.361433 178.402 -0.0997466 178.474V176.366C-0.209904 176.368 -0.318322 176.394 -0.418018 176.441C-0.517714 176.488 -0.606494 176.555 -0.67863 176.638C-0.750766 176.721 -0.804658 176.819 -0.836862 176.924C-0.869067 177.03 -0.878859 177.141 -0.865608 177.25Z" fill="#E2F2D9"/>
<path d="M-40.5168 110.656C-40.5356 104.758 -39.4649 98.9076 -37.3587 93.3984L-35.3927 94.1168C-49.8177 132.888 -7.82172 169.527 0.713284 176.451L1.13174 176.782V177.248C1.14614 177.132 1.13453 177.014 1.09775 176.903C1.06097 176.792 0.999943 176.69 0.919083 176.606C0.838223 176.521 0.739563 176.456 0.63023 176.414C0.520897 176.372 0.403625 176.355 0.286922 176.364V178.472C0.0722923 178.467 -0.136532 178.401 -0.31538 178.282C-0.494228 178.164 -0.635792 177.997 -0.723694 177.801C-8.69022 171.446 -40.5168 143.483 -40.5168 110.656Z" fill="#E2F2D9"/>
<path d="M91.1477 41.6355L91.9373 39.6934C134.407 58.9407 125.833 124.909 125.754 125.627L123.685 125.714V125.296C123.732 124.656 132.133 60.0775 91.1477 41.6355Z" fill="#E2F2D9"/>
<path d="M38.801 92.7022L40.7433 91.8574C59.1398 132.634 123.883 124.486 124.498 124.486H125.004V126.555H124.672C124.072 126.642 57.9238 134.915 38.801 92.7022Z" fill="#E2F2D9"/>
<path d="M176.419 0.271484H160.715V1.53467H176.419V0.271484Z" fill="#E2F2D9"/>
<path d="M113.145 115.037L114.155 114.318L114.234 114.484L125.209 125.292L124.159 126.216L123.906 125.884L113.145 115.037Z" fill="#E2F2D9"/>
<path d="M87.6899 48.6429L100.015 45.0508L100.433 46.3613L87.9426 49.9929L87.6899 48.6429Z" fill="#E2F2D9"/>
<path d="M53.4076 93.168H52.0969V109.802H53.4076V93.168Z" fill="#E2F2D9"/>
<path d="M43.9565 101.235L47.8332 88.6504L49.0176 88.903L45.133 101.566L43.9565 101.235Z" fill="#E2F2D9"/>
<path d="M99.8408 0.0126781C128.209 -0.618898 133.791 -21.8478 133.791 -22.0215L135.56 -21.5952C135.56 -21.3425 129.654 1.19688 99.8487 1.82845L99.8408 0.0126781Z" fill="#E2F2D9"/>
<path d="M99.8408 2.33232V0.429688C129.646 1.02179 135.552 23.2296 135.552 23.3244L133.783 23.8296C133.61 23.0244 128.122 2.79811 99.8408 2.33232Z" fill="#E2F2D9"/>
<path d="M121.79 0.260919C136.484 0.095129 143.234 -7.29434 146.448 -13.5391L147.545 -12.9943C144.387 -6.48907 137.163 1.35827 121.79 1.53196V0.260919Z" fill="#E2F2D9"/>
<path d="M121.79 1.8281V0.517578C137.873 0.943893 144.687 9.47018 147.292 14.6175L146.274 15.2096C143.7 10.3939 137.163 2.16758 121.79 1.8281Z" fill="#E2F2D9"/>
<path d="M117.235 68.7278C118.585 67.291 130.996 53.9568 153.956 63.241L153.372 65.0173C131.541 56.1515 119.895 68.562 118.632 69.9909L117.235 68.7278Z" fill="#E2F2D9"/>
<path d="M131.881 35.1289H133.783C133.783 42.0526 136.318 54.9683 154.043 62.8631L153.254 64.6788C134.628 56.1841 131.881 42.5578 131.881 35.1289Z" fill="#E2F2D9"/>
<path d="M111.155 57.1217C115.103 54.4217 123.48 50.6165 135.805 55.8112L135.299 56.948C123.654 52.1006 115.632 55.6454 111.913 58.1717L111.155 57.1217Z" fill="#E2F2D9"/>
<path d="M119.643 39.2671L120.953 38.9355C122.13 43.9092 125.801 50.7776 135.955 55.6487L135.449 56.8329C124.672 51.5987 120.953 44.4224 119.643 39.2671Z" fill="#E2F2D9"/>
<path d="M34.9165 131.869C36.9456 131.704 55.0973 131.159 64.7614 153.975L62.9454 154.764C53.834 133.069 36.9456 133.661 35.0902 133.788L34.9165 131.869Z" fill="#E2F2D9"/>
<path d="M60.4112 139.508C60.3755 131.64 63.4387 124.073 68.9383 118.445L70.3358 119.795C65.4801 124.651 58.2636 135.672 65.1011 153.648L63.372 154.437C61.4726 149.686 60.4688 144.625 60.4112 139.508Z" fill="#E2F2D9"/>
<path d="M38.4614 120.566L38.8009 119.469C43.4435 120.258 52.2706 123.519 57.0395 135.842L56.0209 136.308C51.4258 124.49 42.9382 121.411 38.4614 120.566Z" fill="#E2F2D9"/>
<path d="M54.2526 124.995C54.1824 120.691 55.3085 116.452 57.5055 112.75L58.5162 113.389C56.0212 117.605 53.6605 125.121 57.3792 135.929L56.2817 136.308C54.9912 132.673 54.3057 128.851 54.2526 124.995Z" fill="#E2F2D9"/>
<path d="M-0.628906 122.838H0.555414C0.729114 137.53 8.07193 144.367 14.4041 147.493L13.725 148.543C8.53773 145.843 -0.542056 138.967 -0.628906 122.838Z" fill="#E2F2D9"/>
<path d="M-14.4065 147.242C-9.53499 144.708 -1.30002 138.211 -0.881557 122.674H0.302762C-0.0762205 138.882 -8.76124 145.719 -13.8143 148.34L-14.4065 147.242Z" fill="#E2F2D9"/>
<path d="M85.6606 87.6355L86.5054 86.625C97.038 96.9276 107.144 96.446 113.729 94.3065L114.069 95.4908C108.534 97.4329 97.2275 98.8618 85.6606 87.6355Z" fill="#E2F2D9"/>
<path d="M85.408 87.6319L86.2528 86.7871C97.3933 98.3608 96.209 109.5 94.4798 114.861L93.1692 114.6C94.8193 109.334 96.13 98.8581 85.408 87.6319Z" fill="#E2F2D9"/>
<path d="M-0.960449 100.889H0.89499C1.4003 129.168 21.8733 134.575 22.8444 134.741L22.4259 136.644C22.0311 136.557 -0.455139 130.691 -0.960449 100.889Z" fill="#E2F2D9"/>
<path d="M-23.0598 134.741C-22.1992 134.575 -2.05787 129.168 -1.47361 100.889H0.389713C-0.202448 130.691 -22.365 136.557 -22.5545 136.644L-23.0598 134.741Z" fill="#E2F2D9"/>
<path d="M69.9092 72.3173L71.2672 70.9199C91.6533 90.5462 110.65 79.4462 110.816 79.3594L111.747 80.9383C111.581 81.0962 91.4006 92.8673 69.9092 72.3173Z" fill="#E2F2D9"/>
<path d="M69.5303 72.6098L70.9831 71.2598C91.5113 92.7887 80.0628 112.581 79.897 112.833L78.3732 111.783C78.8232 111.018 89.1426 92.9545 69.5303 72.6098Z" fill="#E2F2D9"/>
<path d="M23.7759 151.794L25.4655 150.531C29.8371 156.272 35.9009 160.497 42.8017 162.608C49.7025 164.72 57.0922 164.612 63.9285 162.3C70.7647 159.988 76.7027 155.588 80.9049 149.722C85.1071 143.855 87.3615 136.818 87.3501 129.602C87.2997 127.922 87.1574 126.245 86.9238 124.581L88.9924 124.328C89.2293 126.077 89.3717 127.838 89.4188 129.602C89.4117 137.247 87.0095 144.698 82.5496 150.907C78.0898 157.117 71.7964 161.774 64.5537 164.223C57.3109 166.673 49.4827 166.792 42.1687 164.564C34.8547 162.336 28.4226 157.873 23.7759 151.802V151.794Z" fill="#E2F2D9"/>
<path d="M123.48 90.6347L123.819 88.6531C130.95 89.6067 138.201 88.3029 144.553 84.9247C150.905 81.5466 156.039 76.2638 159.234 69.8183C162.429 63.3728 163.525 56.0885 162.367 48.9884C161.21 41.8883 157.857 35.3292 152.78 30.2321C151.526 29.0106 150.208 27.8563 148.832 26.7743L150.143 25.1953C151.574 26.2824 152.94 27.4528 154.233 28.7006C161.067 35.5527 164.905 44.8351 164.905 54.5124C164.905 64.1897 161.067 73.4721 154.233 80.3242C150.267 84.3235 145.42 87.339 140.08 89.1294C134.74 90.9198 129.055 91.4353 123.48 90.6347Z" fill="#E2F2D9"/>
<path d="M25.7971 149.437L26.8551 148.339C33.1616 153.938 41.3184 157.004 49.7519 156.944C58.7283 156.892 67.3608 153.486 73.9538 147.394C80.5468 141.303 84.6238 132.967 85.3842 124.023L86.8212 124.189C85.3842 143.231 69.0011 158.421 49.7125 158.342C40.9153 158.423 32.3983 155.252 25.7971 149.437Z" fill="#E2F2D9"/>
<path d="M123.14 86.0328C131.574 85.5689 139.527 81.9604 145.429 75.9196C151.782 69.554 155.509 61.032 155.868 52.0461C156.228 43.0602 153.195 34.2676 147.371 27.4145L148.469 26.625C154.503 33.7446 157.644 42.8701 157.27 52.195C156.895 61.52 153.033 70.3645 146.448 76.9775C140.334 83.2734 132.076 87.041 123.314 87.5328L123.14 86.0328Z" fill="#E2F2D9"/>
<path d="M25.7971 149.437L26.8551 148.339C33.1616 153.938 41.3184 157.004 49.7519 156.944C58.7283 156.892 67.3608 153.486 73.9538 147.394C80.5468 141.303 84.6238 132.967 85.3842 124.023L86.8212 124.189C85.3842 143.231 69.0011 158.421 49.7125 158.342C40.9153 158.423 32.3983 155.252 25.7971 149.437Z" fill="#E2F2D9"/>
<path d="M31.7979 153.398L33.0216 152.68C34.6007 155.174 36.1009 157.835 37.5379 160.488L37.9563 161.206L36.772 161.924L36.243 161.182C34.9166 158.593 33.3533 155.972 31.7979 153.398Z" fill="#E2F2D9"/>
<path d="M38.8879 156.272L40.1907 155.656C40.9803 157.298 42.0856 158.988 42.9304 160.504C43.3489 161.222 43.72 161.688 44.1147 162.367C44.2685 162.821 44.4952 163.248 44.7859 163.63L43.6095 164.475C43.3721 163.971 43.0893 163.49 42.7646 163.038C42.4674 162.45 42.1269 161.886 41.7461 161.348C40.8302 159.73 39.6854 158.025 38.8879 156.272Z" fill="#E2F2D9"/>
<path d="M44.7937 157.534L46.1912 156.941C46.3674 157.143 46.5089 157.372 46.6096 157.62C46.8164 157.822 46.9756 158.068 47.0755 158.339L48.3388 160.486C49.1836 161.844 49.9178 163.186 50.7942 164.544L49.5231 165.262C48.6783 163.952 48.0071 162.689 47.1544 161.315L45.7569 159.081C45.6679 158.839 45.5248 158.62 45.3385 158.441C45.1332 158.086 44.9674 157.786 44.7937 157.534Z" fill="#E2F2D9"/>
<path d="M50.3679 157.786L51.5917 156.996C52.097 157.88 52.6102 158.772 53.2419 159.696C54.0867 161.275 55.0104 162.988 56.0211 164.512L54.8446 165.23C53.7768 163.713 52.8038 162.131 51.9312 160.493C51.4259 159.601 50.8732 158.678 50.3679 157.786Z" fill="#E2F2D9"/>
<path d="M56.5342 156.941C57.9238 159.562 59.4002 162.01 60.5846 164.291L56.5342 156.941Z" fill="#E2F2D9"/>
<path d="M61.0032 155.805C62.3612 158.086 63.664 160.486 65.2273 162.855L61.0032 155.805Z" fill="#E2F2D9"/>
<path d="M64.5957 154.497L65.7327 153.652C67.2565 155.973 68.7724 158.255 69.9962 160.576L68.6856 161.365C67.4223 159.06 65.9853 156.779 64.5957 154.497Z" fill="#E2F2D9"/>
<path d="M69.5303 151.797C70.8409 154.078 72.3174 156.439 73.478 158.421L69.5303 151.797Z" fill="#E2F2D9"/>
<path d="M73.3521 148.883C74.4264 151.12 75.6806 153.267 77.1024 155.301L73.3521 148.883Z" fill="#E2F2D9"/>
<path d="M76.5098 145.551C77.7336 147.659 78.9968 149.601 80.268 151.795L76.5098 145.551Z" fill="#E2F2D9"/>
<path d="M79.8337 141.582C80.8444 143.65 82.155 145.719 83.3393 147.661L79.8337 141.582Z" fill="#E2F2D9"/>
<path d="M85.8266 142.763C84.8159 141.184 83.8053 139.258 82.6684 137.363C82.6684 137.363 82.7552 137.189 82.5815 137.189" fill="#E2F2D9"/>
<path d="M87.682 136.707C87.4002 136.127 87.0617 135.577 86.6713 135.065C86.0791 133.841 85.2343 132.783 84.5632 131.473" fill="#E2F2D9"/>
<path d="M86.0791 124.65C86.7429 126.012 87.4918 127.33 88.3214 128.598L86.0791 124.65Z" fill="#E2F2D9"/>
<path d="M123.14 86.0328C131.574 85.5689 139.527 81.9604 145.429 75.9196C151.782 69.554 155.509 61.032 155.868 52.0461C156.228 43.0602 153.195 34.2676 147.371 27.4145L148.469 26.625C154.503 33.7446 157.644 42.8701 157.27 52.195C156.895 61.52 153.033 70.3645 146.448 76.9775C140.334 83.2734 132.076 87.041 123.314 87.5328L123.14 86.0328Z" fill="#E2F2D9"/>
<path d="M130.238 86.182L130.657 84.832C133.357 85.3768 136.231 86.1821 139.184 86.9794L140.202 87.2794L139.863 88.7084L138.718 88.4163C135.978 87.6347 133.025 86.8768 130.238 86.182Z" fill="#E2F2D9"/>
<path d="M137.242 83.2439L137.795 81.7676C139.578 82.3635 141.395 82.8565 143.235 83.2439C143.863 83.4646 144.515 83.6078 145.177 83.6702C145.769 83.836 146.361 84.0492 146.867 84.215L146.527 85.6124C146.022 85.5255 145.43 85.3597 144.711 85.186C144.206 85.0202 143.535 84.8544 142.982 84.6807C141.04 84.2149 139.098 83.7571 137.242 83.2439Z" fill="#E2F2D9"/>
<path d="M142.476 79.7871L142.982 78.4766C143.068 78.4766 143.408 78.5634 143.771 78.6503C144.04 78.7163 144.304 78.8008 144.561 78.9029L147.222 79.5345C148.658 79.9529 150.135 80.3239 151.611 80.6318L151.272 82.0687C149.882 81.6897 148.319 81.3503 146.969 80.9713L144.221 80.2923C143.937 80.1919 143.638 80.136 143.337 80.1266C143.058 79.9944 142.77 79.881 142.476 79.7871Z" fill="#E2F2D9"/>
<path d="M146.527 76.1946L146.866 74.7656C147.885 75.0183 148.809 75.2314 149.954 75.5551C151.683 76.0209 153.538 76.6525 155.228 76.9919L154.975 78.342C153.285 78.0025 151.43 77.4972 149.448 76.9919C148.469 76.7472 147.459 76.4077 146.527 76.1946Z" fill="#E2F2D9"/>
<path d="M150.285 71.2598C153.12 72.0492 155.859 72.7834 158.346 73.6282L150.285 71.2598Z" fill="#E2F2D9"/>
<path d="M152.606 67.2324C155.227 67.7377 157.928 68.6693 160.549 69.3008L152.606 67.2324Z" fill="#E2F2D9"/>
<path d="M154.209 63.7454L154.462 62.3086C157.122 62.9875 159.87 63.4928 162.357 64.3375L162.026 65.6875C159.531 64.9296 156.791 64.3375 154.209 63.7454Z" fill="#E2F2D9"/>
<path d="M155.859 58.3457C158.346 59.1352 160.968 59.6562 163.376 60.2405L155.859 58.3457Z" fill="#E2F2D9"/>
<path d="M156.451 53.6152C158.819 54.4707 161.265 55.0921 163.754 55.4705L156.451 53.6152Z" fill="#E2F2D9"/>
<path d="M156.254 48.9766C158.575 49.6476 160.944 50.2002 163.36 50.7923L156.254 48.9766Z" fill="#E2F2D9"/>
<path d="M155.859 43.9062C158.094 44.5852 160.375 45.2168 162.61 45.6826L155.859 43.9062Z" fill="#E2F2D9"/>
<path d="M160.991 40.5309C159.049 40.0178 156.98 39.4336 154.999 38.8415C154.949 38.8061 154.89 38.7871 154.829 38.7871C154.768 38.7871 154.709 38.8061 154.659 38.8415" fill="#E2F2D9"/>
<path d="M158.094 34.8656C157.304 34.6999 156.87 34.5262 156.199 34.3604C154.85 34.0042 153.482 33.7222 152.101 33.5156" fill="#E2F2D9"/>
<path d="M148.359 27.4473C149.769 28.0253 151.242 28.436 152.749 28.671L148.359 27.4473Z" fill="#E2F2D9"/>
<path d="M64.0901 165.722C64.0901 162.564 65.3139 161.333 66.2376 161.04C66.5945 160.872 66.9841 160.785 67.3785 160.785C67.773 160.785 68.1626 160.872 68.5194 161.04C71.2671 162.098 74.4331 166.062 76.6676 171.304C78.232 174.46 79.1093 177.912 79.2415 181.433C79.2415 184.59 78.144 185.656 77.2597 186.169C74.0068 187.519 69.2774 181.946 66.664 175.788C65.1007 172.14 64.0901 168.509 64.0901 165.722ZM77.7255 181.425C77.5859 178.119 76.7803 174.875 75.3569 171.888C73.3356 167.246 70.3354 163.275 68.0141 162.414C67.5878 162.248 67.0824 162.122 66.8298 162.335C66.0402 162.675 65.6534 163.914 65.6534 165.706C65.8074 168.957 66.6129 172.144 68.022 175.077C70.9354 181.748 74.9463 185.467 76.707 184.701C77.4255 184.551 77.7255 183.201 77.7255 181.425Z" fill="#E2F2D9"/>
<path d="M159.783 68.2219C159.777 67.8937 159.865 67.5706 160.036 67.2904C160.163 66.9121 160.369 66.5656 160.642 66.2741C160.914 65.9827 161.246 65.7531 161.615 65.6009C164.323 64.5114 169.344 65.0167 174.666 67.1246C181.164 69.6982 185.68 73.4403 185.68 76.1956C185.676 76.5292 185.617 76.8599 185.506 77.1746C184.156 80.4667 176.9 79.7008 170.655 77.3403C164.347 74.8456 159.783 71.0956 159.783 68.2219ZM184.18 76.1956C184.18 74.3008 180.43 70.8351 174.05 68.4746C169.368 66.5798 164.512 65.9404 162.278 66.8956C161.874 67.0401 161.531 67.3187 161.307 67.6851C161.307 67.8509 161.22 68.0246 161.22 68.1904C161.22 70.1325 165.018 73.5903 171.184 75.9982C177.935 78.5324 183.509 78.4061 184.18 76.7167V76.1956Z" fill="#E2F2D9"/>
<path d="M156.033 32.1753L156.704 30.9121C187.773 48.47 185.617 76.7489 185.53 77.0015L184.18 76.8357V75.5646C184.18 69.991 182.498 47.2858 156.033 32.1753Z" fill="#E2F2D9"/>
<path d="M132.639 90.7211L133.026 89.2448C166.708 97.7711 184.18 76.7475 184.267 76.6133L185.365 77.4028C185.199 77.4975 167.213 99.3738 132.639 90.7211Z" fill="#E2F2D9"/>
<path d="M76.5098 184.803C76.6756 184.637 97.4012 166.905 88.1161 133.487L89.5057 133.061C99.0908 167.545 77.5598 185.821 77.4335 185.955L76.5098 184.803Z" fill="#E2F2D9"/>
<path d="M30.3608 158.341L31.6241 157.623C49.4363 187.426 76.5809 184.639 76.8335 184.639L77.0073 186.155C76.6678 186.155 48.5915 188.902 30.3608 158.341Z" fill="#E2F2D9"/>
<path d="M99.7617 0.0136719H65.906V1.82945H99.7617V0.0136719Z" fill="#E2F2D9"/>
<path d="M162.025 16.0512L162.87 14.3223L184.78 26.4802L183.848 28.0354L162.025 16.0512Z" fill="#E2F2D9"/>
<path d="M176.166 2.07893L176.253 -0.621094L199 -0.407921V2.33943L176.166 2.07893Z" fill="#E2F2D9"/>
<path d="M184.354 30.7375C183.422 30.723 182.533 30.3437 181.877 29.6809C181.222 29.0182 180.852 28.1248 180.848 27.1928C180.876 26.2719 181.254 25.3963 181.906 24.7449C182.557 24.0934 183.433 23.7152 184.354 23.6875C185.28 23.6998 186.164 24.073 186.819 24.7277C187.474 25.3825 187.847 26.2669 187.86 27.1928C187.866 27.6567 187.78 28.1172 187.606 28.5475C187.433 28.9778 187.175 29.3693 186.849 29.6992C186.523 30.0291 186.134 30.2908 185.706 30.4691C185.278 30.6473 184.818 30.7386 184.354 30.7375Z" fill="#E2F2D9"/>
<path d="M13.2197 164.292L14.8699 163.447L26.7762 184.976L25.1261 185.821L13.2197 164.292Z" fill="#E2F2D9"/>
<path d="M-1.46606 199.999L-1.2134 177.168L1.39999 177.334L1.23417 199.999H-1.46606Z" fill="#E2F2D9"/>
<path d="M22.4258 185.357C22.4247 184.904 22.5137 184.455 22.6875 184.037C22.8613 183.619 23.1165 183.239 23.4382 182.921C23.76 182.602 24.1419 182.35 24.5618 182.18C24.9816 182.01 25.4311 181.925 25.884 181.931C26.3425 181.92 26.7985 182.001 27.2256 182.168C27.6527 182.335 28.0424 182.585 28.3721 182.904C28.7018 183.222 28.965 183.603 29.1465 184.024C29.3279 184.445 29.424 184.898 29.4291 185.357C29.4333 185.824 29.3444 186.286 29.1678 186.718C28.9911 187.15 28.7302 187.543 28.4002 187.873C28.0701 188.203 27.6776 188.464 27.2456 188.64C26.8136 188.817 26.3507 188.906 25.884 188.902C24.9615 188.871 24.0866 188.485 23.4421 187.825C22.7976 187.164 22.4334 186.28 22.4258 185.357Z" fill="#E2F2D9"/>
<path d="M124.917 107.054L125.383 105.199L148.982 112.036L148.477 113.812L124.917 107.054Z" fill="#E2F2D9"/>
<path d="M103.899 126.215L105.589 125.631L112.592 149.599L110.902 150.191L103.899 126.215Z" fill="#E2F2D9"/>
<path d="M123.732 126.476L125.722 124.486L141.631 140.821L139.697 142.597L123.732 126.476Z" fill="#E2F2D9"/>
<path d="M146.361 115.391C146.012 115.081 145.733 114.701 145.542 114.275C145.351 113.849 145.252 113.387 145.252 112.92C145.252 112.454 145.351 111.992 145.542 111.566C145.733 111.14 146.012 110.76 146.361 110.449C147.009 109.808 147.88 109.441 148.793 109.426C149.705 109.412 150.587 109.75 151.256 110.37C151.906 111.044 152.27 111.944 152.27 112.881C152.27 113.817 151.906 114.717 151.256 115.391C150.94 115.722 150.56 115.985 150.139 116.165C149.719 116.344 149.266 116.437 148.808 116.437C148.351 116.437 147.898 116.344 147.478 116.165C147.057 115.985 146.677 115.722 146.361 115.391Z" fill="#E2F2D9"/>
<path d="M109.213 152.499C108.581 151.824 108.23 150.933 108.23 150.008C108.23 149.084 108.581 148.193 109.213 147.518C109.862 146.852 110.749 146.471 111.679 146.459C112.609 146.447 113.505 146.805 114.171 147.454C114.837 148.104 115.218 148.991 115.23 149.92C115.242 150.85 114.884 151.747 114.235 152.412C113.571 153.073 112.677 153.45 111.741 153.467C110.805 153.483 109.899 153.136 109.213 152.499Z" fill="#E2F2D9"/>
<path d="M99.2485 13.6831L100.433 12.4199C113.137 25.162 127.538 12.9252 128.122 12.4199L129.22 13.7699C129.054 13.8094 113.137 27.4436 99.2485 13.6831Z" fill="#E2F2D9"/>
<path d="M110.46 16.3445C110.46 11.1971 112.829 6.87084 114.597 3.89453L115.955 4.77876C114.052 7.93665 111.478 12.9261 112.323 18.5866C112.489 22.2971 114.218 25.8418 117.132 29.1813L115.868 30.2313C112.655 26.6471 110.886 22.7156 110.634 18.7524C110.563 17.9077 110.46 17.1024 110.46 16.3445Z" fill="#E2F2D9"/>
<path d="M61.1768 80.207H62.7559C62.7559 98.278 81.5786 99.628 82.384 99.707L82.305 101.396C82.155 101.318 61.1768 99.707 61.1768 80.207Z" fill="#E2F2D9"/>
<path d="M61.1768 103.677C61.5163 98.8615 62.9453 94.8115 65.7324 91.8352C69.3643 86.8536 75.0254 84.9984 78.9889 84.0273L79.2416 85.6773C75.6965 86.5142 70.4224 88.2431 67.0036 92.8457C64.3966 95.8846 62.9308 99.7373 62.8585 103.74L61.1768 103.677Z" fill="#E2F2D9"/>
<path d="M10.6064 128.07C11.1907 127.438 23.3497 113.07 10.6933 100.439L11.8697 99.2148C25.6315 113.062 12.0355 129.104 11.8697 129.215L10.6064 128.07Z" fill="#E2F2D9"/>
<path d="M1.90552 114.603C6.6428 111.643 18.5413 106.116 29.1764 116.537L28.0395 117.761C18.5649 108.351 8.15871 112.614 2.87664 116.032L1.90552 114.603Z" fill="#E2F2D9"/>
<path d="M77.8918 62.0645C97.3937 62.0645 99.0833 82.9144 99.0833 83.167L97.3937 83.246C97.3937 82.4013 95.8146 63.6671 77.8918 63.6671V62.0645Z" fill="#E2F2D9"/>
<path d="M81.6892 79.789C83.2683 73.118 87.8556 62.0654 102.375 61.9785V63.5575C89.0794 63.6443 84.729 74.1048 83.3394 80.1837L81.6892 79.789Z" fill="#E2F2D9"/>
<path d="M-48.7439 0.919155C-48.7563 -8.69868 -45.916 -18.1042 -40.582 -26.1077C-35.248 -34.1113 -27.66 -40.3533 -18.7778 -44.0444C-9.89554 -47.7354 -0.118069 -48.7096 9.31796 -46.8438C18.754 -44.978 27.4246 -40.356 34.2333 -33.5623C41.042 -26.7687 45.6828 -18.1086 47.5687 -8.6774C49.4546 0.753761 48.5009 10.5323 44.8282 19.4215C41.1556 28.3106 34.929 35.9111 26.936 41.2614C18.9429 46.6118 9.54257 49.4718 -0.0761795 49.4796C-12.9659 49.4796 -25.3292 44.3667 -34.4532 35.2628C-43.5772 26.1589 -48.7167 13.8076 -48.7439 0.919155ZM47.494 0.919155C47.5003 -8.48621 44.7173 -17.6822 39.497 -25.5062C34.2766 -33.3302 26.8534 -39.4307 18.1658 -43.0365C9.47829 -46.6422 -0.0834732 -47.5913 -9.31044 -45.7637C-18.5374 -43.936 -27.0152 -39.4138 -33.672 -32.7687C-40.3287 -26.1236 -44.8655 -17.6541 -46.7086 -8.4311C-48.5517 0.791943 -47.6184 10.3543 -44.0267 19.047C-40.435 27.7397 -34.3462 35.1724 -26.5302 40.4052C-18.7142 45.638 -9.5219 48.436 -0.115646 48.4454C12.4931 48.4308 24.5824 43.4214 33.5055 34.5139C42.4286 25.6064 47.4585 13.5266 47.494 0.919155Z" fill="#E2F2D9"/>
<path d="M-53.2837 0.916714C-53.2774 -9.59681 -50.1542 -19.8725 -44.3088 -28.6116C-38.4633 -37.3507 -30.158 -44.1608 -20.4427 -48.1813C-10.7273 -52.2017 -0.0380402 -53.252 10.2741 -51.1994C20.5863 -49.1468 30.0585 -44.0834 37.4934 -36.6492C44.9283 -29.215 49.9921 -19.7438 52.0449 -9.43258C54.0978 0.878628 53.0474 11.5669 49.0265 21.2813C45.0057 30.9958 38.1949 39.3003 29.455 45.1452C20.7151 50.9901 10.4384 54.113 -0.0761261 54.1192C-14.1832 54.1046 -27.7082 48.4947 -37.6834 38.5204C-47.6586 28.5462 -53.2691 15.0224 -53.2837 0.916714ZM51.9313 0.916714C51.9313 -9.39308 48.8725 -19.4711 43.142 -28.042C37.4115 -36.6129 29.267 -43.2912 19.7391 -47.2319C10.2113 -51.1726 -0.271603 -52.1984 -10.3828 -50.1796C-20.4939 -48.1608 -29.7788 -43.1881 -37.0625 -35.8908C-44.3461 -28.5935 -49.301 -19.2996 -51.3001 -9.18544C-53.2991 0.928722 -52.2525 11.4085 -48.2927 20.9277C-44.3329 30.4469 -37.6378 38.5775 -29.0549 44.2905C-20.4719 50.0035 -10.3869 53.0422 -0.0761261 53.0219C13.7265 52.9947 26.9546 47.4931 36.7049 37.7244C46.4553 27.9557 51.9313 14.7181 51.9313 0.916714Z" fill="#E2F2D9"/>
</svg>
