<svg width="86" height="107" viewBox="0 0 86 107" fill="none" xmlns="http://www.w3.org/2000/svg">
<path d="M20.4516 70.8562C20.6452 65.1278 22.8915 59.9995 25.7905 55.3046C29.9068 48.6428 30.0396 41.9754 27.3784 34.8857C25.6024 30.1574 23.5996 25.4736 23.0851 19.9341C17.9785 23.8512 13.9784 28.3461 10.764 33.5245C4.98798 42.8255 5.30891 52.0375 11.428 61.0829C11.8927 61.7719 12.291 62.522 12.8387 63.1387C18.6535 69.6505 18.6369 76.3679 14.161 83.6854C10.5925 89.5304 6.81931 95.2033 2.7252 100.676C2.00596 101.637 1.25353 102.576 0.584084 103.571C-0.173882 104.693 -0.306656 106.021 0.866257 106.771C2.07236 107.543 2.62561 106.177 3.14014 105.399C6.14434 100.854 9.06002 96.2478 12.0642 91.7084C13.3865 89.7082 14.8913 87.8303 16.2579 85.8578C18.0228 83.3131 20.3631 82.7575 23.2788 83.4242C27.6717 84.4299 32.0977 85.1855 36.6179 85.5467C45.6305 86.269 53.4978 83.7965 60.4412 78.0014C66.4938 72.9509 66.5492 73.0176 74.0846 72.3897C73.9905 71.2174 72.967 70.7618 72.2809 70.1172C70.0568 68.0281 67.5727 66.2724 65.0166 64.6167C55.8159 58.6549 46.4493 58.2326 36.8281 63.6221C33.3592 65.5668 30.106 67.8115 26.8694 70.095C26.709 70.1673 26.4876 70.3395 26.3991 70.2895C26.0672 70.1006 26.2221 69.845 26.4102 69.6227C28.7173 64.4611 31.5887 59.6272 34.8474 55.0101C36.6842 52.4154 39.1463 50.7985 42.0841 49.7095C50.1119 46.7425 58.3886 44.3978 66.0015 40.3585C74.1731 36.0192 81.2548 30.5742 84.4305 21.3787C86.6822 14.8558 86.4001 8.28287 84.2922 1.77106C83.9823 0.815407 83.8994 -0.690302 82.1677 0.354254C76.7955 3.6046 70.6654 4.74917 64.8009 6.60492C60.4965 7.97173 56.2309 9.4219 52.2197 11.5499C43.9873 15.9226 39.6995 23.2567 36.9885 31.802C35.5334 36.4025 34.8142 41.1586 33.9124 45.8758C32.0479 55.6101 26.6869 63.5277 20.7061 71.1007C20.5844 71.1285 20.4571 71.1618 20.3354 71.1951C20.3741 71.0896 20.4128 70.9729 20.4516 70.8562ZM43.5446 41.153C45.2542 37.186 47.6886 33.7689 50.3497 30.4964C54.8477 24.9624 60.4578 20.8453 66.693 17.5061C68.4137 16.5838 69.0001 16.9616 68.8009 18.9507C68.4468 22.4121 67.3735 25.6014 64.4412 27.5683C57.5642 32.1799 50.5323 36.547 43.5446 41.153ZM30.7533 75.3845C37.5639 70.9507 44.9444 69.0005 52.8283 68.9616C53.448 68.956 54.2723 68.7393 54.5711 69.4394C54.8588 70.1228 54.1617 70.5951 53.7412 71.0451C52.3193 72.5619 50.6264 73.7954 48.5516 73.9899C42.6262 74.5455 36.6842 74.9344 30.7533 75.3845ZM18.2995 60.8718C16.3631 55.449 13.8457 50.2763 12.1306 44.8146C11.4224 42.5532 12.4404 40.3141 14.3436 38.3305C18.9357 45.3757 19.323 52.971 18.2995 60.8718Z" fill="#E86851"/>
</svg>
