<svg width="139" height="280" viewBox="0 0 139 280" fill="none" xmlns="http://www.w3.org/2000/svg">
<path d="M68.627 140.075C68.627 101.029 100.423 69.2637 139.472 69.2637C178.522 69.2637 210.318 101.046 210.318 140.075C210.318 179.104 178.516 210.886 139.5 210.886C100.484 210.886 68.627 179.132 68.627 140.075ZM208.509 140.075C208.5 121.775 201.227 104.228 188.288 91.2868C175.349 78.3456 157.801 71.0693 139.5 71.0561C101.474 71.0561 70.3974 101.964 70.3974 140.091C70.3974 178.219 101.447 209.182 139.5 209.182C177.554 209.182 208.509 178.186 208.509 140.075Z" fill="#E2F2D9"/>
<path d="M92.6163 140.072C92.6141 130.8 95.362 121.735 100.512 114.024C105.663 106.314 112.984 100.303 121.551 96.7533C130.117 93.2034 139.544 92.2735 148.64 94.0811C157.735 95.8887 166.09 100.353 172.648 106.908C179.206 113.464 183.672 121.817 185.482 130.911C187.292 140.005 186.364 149.431 182.816 157.998C179.268 166.565 173.258 173.887 165.548 179.039C157.838 184.19 148.773 186.94 139.5 186.94C127.071 186.93 115.153 181.989 106.363 173.202C97.5736 164.415 92.6295 152.5 92.6163 140.072ZM185.011 140.072C185.003 131.071 182.325 122.274 177.317 114.794C172.309 107.314 165.196 101.487 156.876 98.049C148.557 94.611 139.405 93.7165 130.577 95.4787C121.749 97.2409 113.642 101.581 107.28 107.949C100.918 114.318 96.5881 122.43 94.8364 131.259C93.0848 140.088 93.9904 149.239 97.4389 157.553C100.887 165.868 106.724 172.973 114.211 177.972C121.697 182.97 130.498 185.637 139.5 185.634C151.569 185.605 163.135 180.793 171.663 172.253C180.19 163.712 184.985 152.14 184.995 140.072H185.011Z" fill="#E2F2D9"/>
<path d="M97.1864 140.072C97.1908 131.71 99.6743 123.537 104.323 116.587C108.972 109.636 115.577 104.219 123.304 101.021C131.031 97.8235 139.532 96.9879 147.734 98.6203C155.936 100.253 163.469 104.28 169.383 110.192C175.296 116.105 179.323 123.638 180.956 131.839C182.588 140.04 181.753 148.541 178.554 156.267C175.356 163.993 169.939 170.597 162.988 175.246C156.036 179.894 147.863 182.377 139.5 182.382C128.281 182.37 117.526 177.909 109.593 169.977C101.66 162.044 97.1981 151.29 97.1864 140.072ZM180.497 140.072C180.494 131.965 178.086 124.041 173.58 117.302C169.073 110.563 162.669 105.311 155.177 102.211C147.686 99.1112 139.443 98.3017 131.492 99.8853C123.54 101.469 116.237 105.374 110.505 111.108C104.773 116.842 100.87 124.146 99.2897 132.097C97.7092 140.049 98.522 148.29 101.625 155.78C104.729 163.269 109.984 169.671 116.725 174.174C123.467 178.678 131.392 181.082 139.5 181.082C150.37 181.061 160.788 176.733 168.472 169.047C176.157 161.36 180.481 150.941 180.497 140.072V140.072Z" fill="#E2F2D9"/>
<path d="M134.31 70.3447L135.627 70.2285L137.132 93.9502L135.821 94.0664L134.31 70.3447Z" fill="#E2F2D9"/>
<path d="M125.674 71.4664L126.93 71.2617L131.367 94.5962L130.111 94.8341L125.674 71.4664Z" fill="#E2F2D9"/>
<path d="M117.215 73.7743L118.41 73.3926L125.729 95.9581L124.534 96.4338L117.215 73.7743Z" fill="#E2F2D9"/>
<path d="M109.004 77.09L110.205 76.5312L120.335 98.0291L119.135 98.621L109.004 77.09Z" fill="#E2F2D9"/>
<path d="M101.386 81.3501L102.465 80.7305L115.228 100.751L114.094 101.493L101.386 81.3501Z" fill="#E2F2D9"/>
<path d="M94.359 86.6446L95.3217 85.7871L110.437 104.126L109.419 104.95L94.359 86.6446Z" fill="#E2F2D9"/>
<path d="M87.9413 92.7097L88.8431 91.7637L106.177 108.061L105.22 109.035L87.9413 92.7097Z" fill="#E2F2D9"/>
<path d="M82.3646 99.5404L83.2111 98.5059L102.465 112.463L101.624 113.531L82.3646 99.5404Z" fill="#E2F2D9"/>
<path d="M77.811 107.025L78.403 105.869L99.2279 117.348L98.6193 118.499L77.811 107.025Z" fill="#E2F2D9"/>
<path d="M74.0819 115.009L74.6297 113.77L96.7602 122.521L96.2236 123.766L74.0819 115.009Z" fill="#E2F2D9"/>
<path d="M71.454 123.403L71.8081 122.164L94.7741 128.05L94.42 129.35L71.454 123.403Z" fill="#E2F2D9"/>
<path d="M69.9436 132.044L70.1373 130.744L93.6399 133.759L93.4573 135.12L69.9436 132.044Z" fill="#E2F2D9"/>
<path d="M69.4679 140.829V139.496L93.2251 139.557V140.829H69.4679Z" fill="#E2F2D9"/>
<path d="M69.9436 148.254L93.4573 145.41L93.6952 146.655L70.1373 149.581L69.9436 148.254Z" fill="#E2F2D9"/>
<path d="M71.5094 156.89L94.5418 151.004L94.8516 152.392L71.8635 158.19L71.5094 156.89Z" fill="#E2F2D9"/>
<path d="M74.1428 165.288L96.2844 156.592L96.7603 157.864L74.6905 166.5L74.1428 165.288Z" fill="#E2F2D9"/>
<path d="M77.811 173.278L98.6193 161.859L99.2279 162.982L78.5247 174.462L77.811 173.278Z" fill="#E2F2D9"/>
<path d="M82.4255 180.729L101.685 166.766L102.465 167.894L83.272 181.796L82.4255 180.729Z" fill="#E2F2D9"/>
<path d="M88.0021 187.588L105.336 171.385L106.238 172.331L88.9039 188.479L88.0021 187.588Z" fill="#E2F2D9"/>
<path d="M94.359 193.625L109.535 175.408L110.498 176.232L95.3825 194.428L94.359 193.625Z" fill="#E2F2D9"/>
<path d="M101.447 198.89L114.149 178.836L115.306 179.577L102.586 199.598L101.447 198.89Z" fill="#E2F2D9"/>
<path d="M109.065 203.118L119.195 181.703L120.39 182.328L110.26 203.682L109.065 203.118Z" fill="#E2F2D9"/>
<path d="M117.215 206.458L124.59 183.926L125.79 184.341L118.542 206.845L117.215 206.458Z" fill="#E2F2D9"/>
<path d="M125.729 208.709L130.227 185.402L131.5 185.756L126.991 208.947L125.729 208.709Z" fill="#E2F2D9"/>
<path d="M134.371 209.921L135.937 186.199L137.254 186.321L135.682 209.982L134.371 209.921Z" fill="#E2F2D9"/>
<path d="M118.542 61.7098C118.542 44.787 135.268 30.1767 139.113 27.0123L139.174 26.9238L139.827 27.5158L139.705 27.6319C135.279 31.2997 113.618 50.2306 120.938 70.019L121.779 72.3536L120.938 72.7076L120.036 70.3675C119.055 67.5861 118.55 64.6592 118.542 61.7098V61.7098Z" fill="#E2F2D9"/>
<path d="M138.947 27.5158L139.362 27.0123V26.9238H139.66L140.214 27.3996C147.959 34.1377 165.415 51.9456 158.643 70.3454L157.664 72.7076L156.895 72.3536L157.785 70.019C164.425 52.1835 147.312 34.702 139.561 27.9749L139.329 27.7979H139.207L138.947 27.5158Z" fill="#E2F2D9"/>
<path d="M58.9669 67.446C58.9669 64.2484 59.144 61.7645 59.2657 60.4921V60.2874L60.1066 60.2266L60.1675 60.4921C59.5755 66.2012 57.711 94.8908 76.8484 103.676L79.0615 104.782L78.6299 105.551L76.4169 104.489C61.1855 97.4743 58.9669 78.3553 58.9669 67.446Z" fill="#E2F2D9"/>
<path d="M59.3375 60.1673L59.3984 60.0511H59.5146L59.5754 59.9902L60.1674 59.9349C70.4913 59.166 95.4989 59.343 103.72 77.267L104.744 79.5739L103.958 79.9003L102.879 77.5602C94.9069 60.2281 70.3696 60.0511 60.2781 60.8201H59.9849L59.8631 60.8809H59.4482L59.3375 60.1673Z" fill="#E2F2D9"/>
<path d="M26.3407 140.383L26.894 139.73L27.1485 139.968C32.233 146.12 50.2915 165.759 69.4344 158.661L71.8301 157.865L72.0624 158.661L69.7885 159.436C50.0591 166.771 31.641 146.778 26.479 140.51L26.3407 140.383Z" fill="#E2F2D9"/>
<path d="M26.2802 140.146L26.341 140.03V139.914L26.6951 139.499C33.4837 131.632 51.2324 114.117 69.7667 120.95L72.0406 121.868L71.7474 122.637L69.4126 121.779C51.4703 115.141 34.0037 132.34 27.4199 140.091L27.182 140.268V140.384L26.933 140.71L26.2802 140.146Z" fill="#E2F2D9"/>
<path d="M59.6306 219.476L59.8685 219.415L59.9902 219.476C67.9738 220.212 94.536 221.307 103.056 202.73L104.091 200.484L104.993 200.838L103.903 203.14C95.1446 222.126 68.0347 221.092 59.9294 220.356L59.6915 220.417L59.6306 219.476Z" fill="#E2F2D9"/>
<path d="M59.0887 213.289C59.0887 201.279 61.7333 182.796 76.6106 175.937L78.8901 174.83L79.305 175.688L77.0256 176.634C59.5756 184.677 59.5147 209.168 60.1676 219.286L60.2229 219.579L60.3446 219.701V220.083L59.5756 220.199L59.3986 220.144V220.022L59.3377 219.967V219.413C59.2049 217.698 59.0887 215.629 59.0887 213.289Z" fill="#E2F2D9"/>
<path d="M118.836 218.498C118.806 215.553 119.312 212.626 120.33 209.862L121.237 207.467L122.078 207.793L121.176 210.128C114.537 228.052 131.732 245.533 139.434 252.172L139.672 252.404H139.788L140.087 252.614L139.5 253.311L139.439 253.251H139.323L138.908 252.841C132.269 247.099 118.836 233.645 118.836 218.498Z" fill="#E2F2D9"/>
<path d="M110.852 63.1762C110.852 40.3119 133.171 20.6729 138.759 16.1144C138.826 15.9823 138.928 15.8712 139.054 15.7931C139.179 15.7151 139.324 15.6731 139.472 15.6719V17.1213C139.623 17.123 139.769 17.0664 139.879 16.9633C139.99 16.8603 140.056 16.7187 140.064 16.5681V16.9221L139.827 17.0992C133.774 22.0117 104.257 47.6309 114.459 74.7936L113.071 75.3468C111.599 71.4582 110.847 67.3341 110.852 63.1762V63.1762Z" fill="#E2F2D9"/>
<path d="M138.642 16.9286V16.5746C138.642 16.7213 138.701 16.862 138.804 16.9658C138.908 17.0695 139.049 17.1278 139.196 17.1278V15.6562C139.35 15.6606 139.502 15.7033 139.636 15.7805C139.77 15.8578 139.883 15.9671 139.965 16.0988C146.443 21.4262 176.082 47.5102 165.642 75.2925L164.281 74.7393C174.455 47.7038 144.916 21.9684 138.958 17.0614L138.642 16.9286Z" fill="#E2F2D9"/>
<path d="M50.8175 62.4719C50.8131 59.211 50.9979 55.9527 51.3707 52.7132L52.8092 52.6523V52.9511C52.8092 53.366 47.0553 98.6187 75.6148 111.63L75.0615 112.963C53.8659 103.349 50.8175 76.9051 50.8175 62.4719Z" fill="#E2F2D9"/>
<path d="M51.7799 53.5442V52.0616H52.0842C56.8201 51.5914 99.4159 47.8959 112.252 75.7556L110.924 76.3476C98.5031 49.4006 56.8699 53.0131 52.0842 53.5442H51.7799Z" fill="#E2F2D9"/>
<path d="M15.3087 140.626L16.3267 139.559L16.4429 139.68C16.8025 140.151 44.9913 176.192 74.1428 165.178L74.6961 166.506C44.5819 178.012 16.5702 142.225 15.4304 140.715L15.3087 140.626Z" fill="#E2F2D9"/>
<path d="M15.3087 139.848L15.4249 139.726C16.5646 138.249 44.6372 102.522 74.6905 113.935L74.1373 115.329C45.102 104.265 17.7043 139.256 16.4982 140.705L16.3212 140.882L15.3087 139.848Z" fill="#E2F2D9"/>
<path d="M52.0842 226.776H52.3221C52.7979 226.837 98.0217 232.546 111.057 203.912L112.429 204.565C98.9291 234.084 52.56 228.287 52.0842 228.226V226.776Z" fill="#E2F2D9"/>
<path d="M50.9779 218.201C50.9779 203.558 54.0429 176.998 75.0891 167.355L75.753 168.656C48.7039 181.081 52.3555 222.726 52.9585 227.456V227.81H51.4536V227.517C51.1328 224.422 50.974 221.313 50.9779 218.201Z" fill="#E2F2D9"/>
<path d="M138.947 263.633V263.306L139.185 263.074C145.16 258.222 174.743 232.609 164.508 205.396L165.808 204.893C176.431 232.725 146.759 258.781 140.308 264.02C140.1 264.272 139.807 264.44 139.484 264.49V263.013C139.406 263.015 139.33 263.033 139.261 263.066C139.191 263.098 139.128 263.146 139.078 263.204C139.027 263.262 138.99 263.331 138.967 263.404C138.944 263.478 138.938 263.556 138.947 263.633Z" fill="#E2F2D9"/>
<path d="M111.162 216.97C111.149 212.837 111.899 208.737 113.375 204.877L114.753 205.38C104.644 232.549 134.073 258.223 140.053 263.075L140.347 263.307V263.634C140.357 263.552 140.349 263.47 140.323 263.392C140.297 263.314 140.254 263.243 140.198 263.183C140.141 263.124 140.072 263.078 139.995 263.049C139.919 263.02 139.836 263.008 139.755 263.014V264.491C139.604 264.488 139.458 264.441 139.333 264.358C139.207 264.275 139.108 264.158 139.046 264.021C133.464 259.567 111.162 239.973 111.162 216.97Z" fill="#E2F2D9"/>
<path d="M51.7081 52.9516L52.3167 52.332L52.5491 52.5091L60.1067 60.171L59.3985 60.6745L59.3376 60.5528L51.7081 52.9516Z" fill="#E2F2D9"/>
<path d="M69.0583 108.291L77.7501 105.779L77.988 106.637L69.2354 109.148L69.0583 108.291Z" fill="#E2F2D9"/>
<path d="M102.824 63.8418H101.978V75.4371H102.824V63.8418Z" fill="#E2F2D9"/>
<path d="M105.098 78.3891L107.748 69.5488L108.633 69.842L105.944 78.6879L105.098 78.3891Z" fill="#E2F2D9"/>
<path d="M15.7847 140.504V139.619H16.1387H26.6397L26.8168 139.674L26.695 140.504H26.5788H16.1387H15.7847Z" fill="#E2F2D9"/>
<path d="M23.5745 148.37L30.2468 143.994L30.6618 144.73L24.0669 149.167L23.5745 148.37Z" fill="#E2F2D9"/>
<path d="M28.266 152.691L34.9218 148.486L35.3367 149.228L28.7363 153.399L28.266 152.691Z" fill="#E2F2D9"/>
<path d="M35.6467 158.189L41.633 153.691L42.1808 154.466L36.117 158.958L35.6467 158.189Z" fill="#E2F2D9"/>
<path d="M32.3326 155.97L38.2194 151.24L38.7505 151.921L32.8804 156.651L32.3326 155.97Z" fill="#E2F2D9"/>
<path d="M45.6 163.81L51.7799 158.842L52.3166 159.522L46.0703 164.49L45.6 163.81Z" fill="#E2F2D9"/>
<path d="M51.8408 165.41L59.0886 160.26L59.5755 160.973L52.2558 166.146L51.8408 165.41Z" fill="#E2F2D9"/>
<path d="M59.0278 167.417L67.2493 159.373L67.8413 160.026L59.6364 168.009L59.0278 167.417Z" fill="#E2F2D9"/>
<path d="M67.1329 167.418L71.5093 159.436L72.3557 159.939L67.9739 167.833L67.1329 167.418Z" fill="#E2F2D9"/>
<path d="M19.3752 143.934L28.3824 141.865L28.6203 142.784L19.5689 144.792L19.3752 143.934Z" fill="#E2F2D9"/>
<path d="M51.7081 227.225L51.9571 227.015L59.5147 219.475L60.0458 220.155L59.9296 220.271L52.3167 227.872L51.7081 227.225Z" fill="#E2F2D9"/>
<path d="M63.4041 227.931L65.0307 220.098L65.8163 220.269L64.2506 228.169L63.4041 227.931Z" fill="#E2F2D9"/>
<path d="M69.7666 227.578L71.4541 219.977L72.295 220.154L70.6076 227.816L69.7666 227.578Z" fill="#E2F2D9"/>
<path d="M78.8899 226.454L79.9135 218.881L80.8153 218.997L79.7917 226.543L78.8899 226.454Z" fill="#E2F2D9"/>
<path d="M74.9894 227.051L75.7695 219.594L76.6713 219.715L75.8912 227.106L74.9894 227.051Z" fill="#E2F2D9"/>
<path d="M89.8666 223.38L90.7684 215.336L91.6094 215.48L90.7684 223.441L89.8666 223.38Z" fill="#E2F2D9"/>
<path d="M95.4436 220.039L96.8157 211.254L97.7175 211.342L96.2845 220.155L95.4436 220.039Z" fill="#E2F2D9"/>
<path d="M101.861 216.251L102.099 204.838H102.94L102.824 216.251H101.861Z" fill="#E2F2D9"/>
<path d="M57.2352 227.696L62.2091 219.857L62.9339 220.394L58.0651 228.172L57.2352 227.696Z" fill="#E2F2D9"/>
<path d="M51.7081 215.567L59.6364 214.09L59.7526 214.975L51.9571 216.369L51.7081 215.567Z" fill="#E2F2D9"/>
<path d="M52.0734 209.063L59.6365 207.525L59.8689 208.355L52.1342 209.982L52.0734 209.063Z" fill="#E2F2D9"/>
<path d="M53.1575 199.897L60.7151 198.951L60.8921 199.836L53.2737 200.782L53.1575 199.897Z" fill="#E2F2D9"/>
<path d="M52.5491 203.917L60.1067 203.115L60.1675 204.034L52.6099 204.714L52.5491 203.917Z" fill="#E2F2D9"/>
<path d="M56.1564 188.836L64.1289 188.039L64.2506 188.957L56.2781 189.693L56.1564 188.836Z" fill="#E2F2D9"/>
<path d="M59.3984 183.246L68.2728 181.852L68.4498 182.742L59.5146 184.103L59.3984 183.246Z" fill="#E2F2D9"/>
<path d="M51.7081 221.928L59.6364 216.988L60.1067 217.757L52.195 222.67L51.7081 221.928Z" fill="#E2F2D9"/>
<path d="M130.836 255.5L135.389 248.934L136.114 249.409L131.561 256.031L130.836 255.5Z" fill="#E2F2D9"/>
<path d="M126.399 250.771L130.714 244.26L131.5 244.675L127.123 251.241L126.399 250.771Z" fill="#E2F2D9"/>
<path d="M120.761 243.371L125.436 237.336L126.1 237.928L121.414 244.024L120.761 243.371Z" fill="#E2F2D9"/>
<path d="M123.101 246.687L127.948 240.828L128.617 241.42L123.809 247.218L123.101 246.687Z" fill="#E2F2D9"/>
<path d="M114.996 233.465L120.158 227.225L120.877 227.817L115.721 233.968L114.996 233.465Z" fill="#E2F2D9"/>
<path d="M113.38 227.224L118.603 219.977L119.372 220.48L114.094 227.755L113.38 227.224Z" fill="#E2F2D9"/>
<path d="M111.46 219.918L119.682 211.697L120.274 212.317L112.063 220.543L111.46 219.918Z" fill="#E2F2D9"/>
<path d="M111.577 211.575L119.743 207.232L120.158 208.057L112.064 212.377L111.577 211.575Z" fill="#E2F2D9"/>
<path d="M135.328 260L137.431 250.949L138.288 251.187L136.114 260.177L135.328 260Z" fill="#E2F2D9"/>
<path d="M94.005 32.812L95.2056 32.3086C101.623 47.3947 113.497 47.0959 114.813 46.9798L114.935 48.313C113.497 48.4292 100.771 48.7556 94.005 32.812Z" fill="#E2F2D9"/>
<path d="M90.099 56.8247C93.5182 53.3672 98.5584 45.7052 93.7671 33.0366L95.0286 32.5664C100.246 46.4354 94.0051 54.8055 91.0617 57.7652L90.099 56.8247Z" fill="#E2F2D9"/>
<path d="M99.344 45.5552L100.19 45.2012C103.51 53.5436 109.181 55.6735 112.362 56.2045L112.185 57.0897C108.882 56.4978 102.818 54.224 99.344 45.5552Z" fill="#E2F2D9"/>
<path d="M98.3813 61.2941C100.191 58.2736 101.801 53.0678 99.167 45.5552L99.9969 45.2012C102.763 53.0678 101.015 58.5723 99.0951 61.7643L98.3813 61.2941Z" fill="#E2F2D9"/>
<path d="M31.5028 96.3703L31.9786 95.1587C47.21 101.344 55.3762 92.708 56.278 91.7012L57.2351 92.5863C56.278 93.654 47.5807 102.882 31.5028 96.3703Z" fill="#E2F2D9"/>
<path d="M31.5028 96.6686L31.9786 95.457C45.5391 101.581 47.0329 111.81 47.0329 116.07L45.7162 116.131V116.07C45.7162 112.136 44.2832 102.455 31.5028 96.6686Z" fill="#E2F2D9"/>
<path d="M44.2831 101.607L44.6372 100.81C52.8587 104.328 58.3747 101.811 60.9474 100.008L61.5007 100.688C58.7897 102.641 52.8587 105.302 44.2831 101.607Z" fill="#E2F2D9"/>
<path d="M44.0897 101.757L44.4604 100.988C52.018 104.534 54.5907 109.624 55.5257 113.231L54.6183 113.408C53.8659 110.006 51.2932 105.187 44.0897 101.757Z" fill="#E2F2D9"/>
<path d="M31.6799 184.331C46.856 177.941 46.5572 166.075 46.441 164.78L47.6969 164.664C47.874 166.141 48.2502 178.771 32.2055 185.515L31.6799 184.331Z" fill="#E2F2D9"/>
<path d="M31.9178 184.574C45.8933 179.307 54.2365 185.636 57.1024 188.446L56.1563 189.453C52.787 185.934 45.0911 180.939 32.4656 185.73L31.9178 184.574Z" fill="#E2F2D9"/>
<path d="M44.6373 179.351C52.8588 176.187 55.0774 170.334 55.6694 167.258L56.5104 167.374C55.8465 170.693 53.6279 176.751 44.9306 180.208L44.6373 179.351Z" fill="#E2F2D9"/>
<path d="M44.6373 179.571C52.4881 176.849 57.9489 178.536 61.1301 180.489L60.6543 181.17C57.6501 179.333 52.4328 177.74 44.8752 180.428L44.6373 179.571Z" fill="#E2F2D9"/>
<path d="M91.1226 223.375L91.9635 222.312C93.0424 223.319 102.348 231.955 95.7368 248.048L94.5362 247.572C100.661 232.309 92.0797 224.16 91.1226 223.375Z" fill="#E2F2D9"/>
<path d="M94.907 247.572C100.993 233.969 111.278 232.547 115.538 232.547V233.847C110.614 233.847 101.624 235.684 96.1076 248.103L94.907 247.572Z" fill="#E2F2D9"/>
<path d="M99.344 218.559L100.052 218.006C101.978 220.816 104.683 226.758 101.015 235.277L100.19 234.923C103.72 226.724 101.131 221.192 99.344 218.559Z" fill="#E2F2D9"/>
<path d="M100.368 235.121C103.958 227.581 109.004 224.947 112.595 224.057L112.777 224.914C109.419 225.772 104.622 228.233 101.131 235.503L100.368 235.121Z" fill="#E2F2D9"/>
<path d="M129.342 37.394L129.751 36.625C133.464 38.4561 139.766 43.3078 139.943 54.6929H139.113C138.947 44.3644 133.718 39.5791 129.342 37.394Z" fill="#E2F2D9"/>
<path d="M59.3984 73.8039C63.4041 72.4762 71.3323 71.4693 79.3657 79.3968L78.7737 80.0441C71.3932 72.7694 64.3059 73.1234 59.7525 74.6614L59.3984 73.8039Z" fill="#E2F2D9"/>
<path d="M72.4722 65.387C72.4375 63.6302 72.6975 61.88 73.2412 60.209L74.0213 60.5077C72.9148 64.1146 72.1015 71.4226 79.5982 79.3169L78.89 79.9088C73.7889 74.5427 72.4722 69.3646 72.4722 65.387Z" fill="#E2F2D9"/>
<path d="M36.0397 149.788C38.3191 145.296 43.304 139.792 54.0982 139.676V140.506C43.719 140.71 38.983 145.888 36.8253 150.203L36.0397 149.788Z" fill="#E2F2D9"/>
<path d="M36.1781 130.446L36.9582 130.092C38.7508 133.461 43.3207 139.259 54.1758 139.436L54.1149 140.382C42.8339 140.027 38.0426 134.025 36.1781 130.446Z" fill="#E2F2D9"/>
<path d="M72.2951 214.563C72.2951 210.48 73.728 205.396 78.7738 200.18L79.4211 200.827C72.2287 208.223 72.5883 215.21 74.0212 219.791L73.2411 220.145C72.6133 218.351 72.2934 216.464 72.2951 214.563V214.563Z" fill="#E2F2D9"/>
<path d="M59.6306 206.34L59.8685 205.511C63.5201 206.617 70.8453 207.463 78.6352 200.012L79.3655 200.659C71.1551 208.354 63.4647 207.563 59.6306 206.34Z" fill="#E2F2D9"/>
<path d="M129.458 242.607C132.872 240.831 138.642 236.278 138.936 225.391H139.766C139.5 236.748 133.414 241.539 129.873 243.376L129.458 242.607Z" fill="#E2F2D9"/>
<path d="M123.395 46.2958L123.688 45.0234C123.881 45.0843 139.705 49.167 140.181 70.0175L138.88 70.0729C138.394 50.2292 124.009 46.412 123.395 46.2958Z" fill="#E2F2D9"/>
<path d="M61.0692 84.0091C61.2463 83.8874 75.3379 75.639 90.3922 90.0944L89.5015 91.0404C75.1166 77.2599 61.9046 85.0049 61.7276 85.1266L61.0692 84.0091Z" fill="#E2F2D9"/>
<path d="M81.0477 71.5838C81.0477 65.67 83.388 61.7643 83.4434 61.709L84.5499 62.4171C84.1903 62.9703 76.9868 75.6057 90.669 89.8619L89.7063 90.8356C82.8956 83.7102 81.0477 76.9057 81.0477 71.5838Z" fill="#E2F2D9"/>
<path d="M44.3993 155.794C44.4602 155.705 48.5433 139.85 69.4124 139.436L69.4677 140.708C49.6221 141.211 45.7161 155.971 45.7161 156.148L44.3993 155.794Z" fill="#E2F2D9"/>
<path d="M44.3993 124.352L45.7161 123.998C45.8322 124.59 49.6221 138.73 69.4677 139.139L69.4124 140.506C48.5433 140.03 44.4602 124.474 44.3993 124.352Z" fill="#E2F2D9"/>
<path d="M81.0476 208.294C81.0476 202.939 82.7793 196.167 89.507 189.125L90.3978 190.104C76.6713 204.449 84.4668 217.638 84.5276 217.765L83.4211 218.501C81.8093 215.343 80.9945 211.839 81.0476 208.294Z" fill="#E2F2D9"/>
<path d="M61.0692 196.168L61.7331 195.062C62.2864 195.361 74.9838 202.696 89.3189 188.977L90.1599 189.895C75.1055 204.328 61.2463 196.257 61.0692 196.168Z" fill="#E2F2D9"/>
<path d="M138.88 210.125H140.181C140.535 229.941 154.881 233.731 155.561 233.847L155.268 235.18C154.992 235.119 139.235 231.009 138.88 210.125Z" fill="#E2F2D9"/>
<path d="M123.395 233.847C123.998 233.731 138.111 229.941 138.521 210.125H139.826C139.412 231.009 123.881 235.119 123.749 235.18L123.395 233.847Z" fill="#E2F2D9"/>
<path d="M76.7324 49.8974C76.7602 43.099 79.4795 36.5882 84.2956 31.7892C89.1116 26.9902 95.6324 24.2936 102.432 24.2893C106.361 24.2731 110.241 25.1768 113.759 26.928C117.277 28.6791 120.336 31.2293 122.692 34.3743L121.491 35.265C119.283 32.2952 116.407 29.8858 113.097 28.2311C109.786 26.5764 106.133 25.7226 102.432 25.7387C96.0191 25.7372 89.8683 28.2806 85.3298 32.8103C80.7914 37.34 78.2365 43.4856 78.2262 49.8974C78.2565 51.0767 78.3544 52.2533 78.5195 53.4214L77.0865 53.5929C76.8925 52.3695 76.7742 51.1354 76.7324 49.8974V49.8974Z" fill="#E2F2D9"/>
<path d="M23.9453 102.527C23.9371 99.1733 24.5901 95.8509 25.867 92.7497C27.1438 89.6485 29.0195 86.8294 31.3867 84.4536C34.1547 81.6398 37.5465 79.5174 41.2875 78.2584C45.0285 76.9993 49.0135 76.639 52.9197 77.2065L52.6652 78.6836C48.9865 78.1668 45.2379 78.5186 41.7197 79.7108C38.2014 80.9029 35.0112 82.9024 32.4047 85.5489C30.1645 87.7846 28.3874 90.4401 27.1748 93.3634C25.9622 96.2867 25.3381 99.4203 25.3381 102.585C25.3381 105.75 25.9622 108.883 27.1748 111.807C28.3874 114.73 30.1645 117.386 32.4047 119.621C33.2392 120.462 34.1403 121.233 35.0991 121.928L34.1917 123.084C33.2094 122.341 32.2727 121.539 31.3867 120.683C28.996 118.308 27.1058 115.477 25.8277 112.358C24.5496 109.24 23.9095 105.897 23.9453 102.527V102.527Z" fill="#E2F2D9"/>
<path d="M23.6963 177.177C23.6722 173.236 24.5767 169.346 26.3368 165.82C28.0968 162.295 30.6627 159.234 33.8265 156.885L34.673 158.102C28.7254 162.417 25.1901 169.603 25.1348 177.177C25.1551 183.588 27.7081 189.731 32.2377 194.268C36.7672 198.806 42.9064 201.37 49.3179 201.402L52.8644 201.048L53.0414 202.497C51.8095 202.689 50.5647 202.787 49.3179 202.79C45.9521 202.796 42.6182 202.138 39.5073 200.853C36.3965 199.567 33.5699 197.681 31.1896 195.302C28.8094 192.922 26.9222 190.096 25.6363 186.986C24.3505 183.876 23.6912 180.542 23.6963 177.177V177.177Z" fill="#E2F2D9"/>
<path d="M76.3007 230.243C76.3116 229.044 76.4152 227.847 76.6105 226.664L78.049 226.902C77.5191 230.578 77.8615 234.327 79.0484 237.846C80.2354 241.366 82.2337 244.556 84.8818 247.161C87.1184 249.41 89.7779 251.196 92.7071 252.414C95.6363 253.632 98.7775 254.259 101.95 254.259C105.122 254.259 108.264 253.632 111.193 252.414C114.122 251.196 116.782 249.41 119.018 247.161C119.879 246.328 120.661 245.416 121.353 244.439L122.493 245.324C121.749 246.351 120.928 247.32 120.036 248.223C116.456 251.783 111.904 254.208 106.952 255.192C101.999 256.177 96.8662 255.678 92.196 253.758C87.5258 251.838 83.5263 248.583 80.6986 244.4C77.871 240.217 76.3411 235.292 76.3007 230.243V230.243Z" fill="#E2F2D9"/>
<path d="M78.6409 53.7719C79.1652 47.2472 82.1217 41.1575 86.9246 36.7097C91.7274 32.2618 98.0261 29.7803 104.572 29.757C110.724 29.6988 116.673 31.9514 121.242 36.0691L120.573 36.8104C116.16 32.9086 110.463 30.7714 104.572 30.8081C98.2864 30.8245 92.2349 33.1966 87.6125 37.4561C82.99 41.7156 80.1323 47.553 79.6035 53.8161L78.6409 53.7719Z" fill="#E2F2D9"/>
<path d="M29.1682 105.221C29.1535 101.794 29.8248 98.3983 31.1427 95.2344C32.4606 92.0706 34.3984 89.2025 36.842 86.7991C41.1157 82.3783 46.897 79.7278 53.036 79.375L53.1577 80.3763C47.2378 80.7632 41.6642 83.3037 37.4893 87.5183C33.0589 91.9853 30.466 97.9518 30.2232 104.238C29.9804 110.525 32.1054 116.674 36.1781 121.469L35.3924 122.183C31.3674 117.448 29.1608 111.435 29.1682 105.221Z" fill="#E2F2D9"/>
<path d="M29.1681 175.019C29.1496 168.884 31.3617 162.953 35.3923 158.328L36.2333 158.981C32.3328 163.241 30.3023 168.977 30.247 175.024C30.2645 181.309 32.6402 187.358 36.9042 191.975C41.1682 196.592 47.01 199.44 53.2738 199.957L53.213 200.964C46.6874 200.426 40.5997 197.465 36.1492 192.662C31.6988 187.86 29.2082 181.565 29.1681 175.019V175.019Z" fill="#E2F2D9"/>
<path d="M78.7736 226.547L79.8524 226.453C80.1731 232.373 82.702 237.957 86.9397 242.103C91.4273 246.523 97.4058 249.104 103.7 249.34C109.994 249.575 116.149 247.448 120.954 243.376L121.546 244.145C116.546 248.393 110.134 250.611 103.577 250.359C97.0202 250.107 90.7968 247.404 86.1375 242.784C81.8009 238.44 79.1849 232.671 78.7736 226.547V226.547Z" fill="#E2F2D9"/>
<path d="M78.6409 53.7719C79.1652 47.2472 82.1217 41.1575 86.9246 36.7097C91.7274 32.2618 98.0261 29.7803 104.572 29.757C110.724 29.6988 116.673 31.9514 121.242 36.0691L120.573 36.8104C116.16 32.9086 110.463 30.7714 104.572 30.8081C98.2864 30.8245 92.2349 33.1966 87.6125 37.4561C82.99 41.7156 80.1323 47.553 79.6035 53.8161L78.6409 53.7719Z" fill="#E2F2D9"/>
<path d="M112.716 27.7707L113.618 27.2949C114.758 29.3086 115.953 31.35 117.154 33.2419L116.191 33.7952C115.051 31.8921 113.795 29.7622 112.716 27.7707Z" fill="#E2F2D9"/>
<path d="M108.335 25.7422C108.827 26.4503 109.181 27.2248 109.657 27.9882C110.41 29.1069 111.09 30.2729 111.693 31.479" fill="#E2F2D9"/>
<path d="M103.842 25.4477L104.744 24.8945C105.585 26.4048 106.476 27.821 107.317 29.3202C107.412 29.5184 107.531 29.7042 107.671 29.8734C107.671 30.0505 107.864 30.2275 107.864 30.4266L107.023 30.9024C106.963 30.7807 106.841 30.6037 106.725 30.4266C106.608 30.2496 106.476 30.0726 106.476 29.8734C105.585 28.3742 104.744 26.8972 103.842 25.4477Z" fill="#E2F2D9"/>
<path d="M100.218 25.4477L101.042 24.8945C101.767 26.0784 102.553 27.4117 103.2 28.6232C103.552 29.115 103.856 29.6393 104.108 30.1888L103.2 30.742C102.955 30.205 102.68 29.6823 102.376 29.1764C101.623 27.8708 100.899 26.5708 100.218 25.4477Z" fill="#E2F2D9"/>
<path d="M96.5225 25.8559L97.4187 25.3027C97.972 26.4092 98.6193 27.5156 99.2279 28.622L100.334 30.4255L99.4326 30.9289L98.4091 29.0978C97.7175 27.9858 97.0702 26.9236 96.5225 25.8559Z" fill="#E2F2D9"/>
<path d="M96.6386 31.6003C95.6206 30.0016 94.7132 28.2811 93.6952 26.6602Z" fill="#E2F2D9"/>
<path d="M90.3372 28.1948L91.239 27.6914C91.9637 29.08 92.9264 30.5294 93.7674 31.8903L94.1823 32.5099L93.2805 33.0133L92.9264 32.4214C92.0246 31.0881 91.1228 29.6442 90.3372 28.1948Z" fill="#E2F2D9"/>
<path d="M90.6469 34.3761C89.7451 32.7829 88.7271 31.1841 87.8806 29.707Z" fill="#E2F2D9"/>
<path d="M88.0023 36.4455C87.2693 34.8486 86.3876 33.3242 85.3688 31.8926Z" fill="#E2F2D9"/>
<path d="M85.8334 38.7509C84.8763 37.307 84.0464 35.8576 83.2054 34.375Z" fill="#E2F2D9"/>
<path d="M83.5042 41.5628C82.7186 40.1134 81.8942 38.6363 81.0477 37.3086Z" fill="#E2F2D9"/>
<path d="M79.244 40.7051C79.9688 41.8613 80.7378 43.1945 81.4073 44.4946C81.4073 44.4946 81.4073 44.6108 81.5843 44.6108" fill="#E2F2D9"/>
<path d="M77.9272 44.9629C78.1931 45.3117 78.43 45.6818 78.6354 46.0693C79.1278 46.9876 79.742 47.729 80.0905 48.5864" fill="#E2F2D9"/>
<path d="M79.1278 53.3676C78.6354 52.5101 78.1042 51.531 77.4403 50.6016Z" fill="#E2F2D9"/>
<path d="M29.1682 105.221C29.1535 101.794 29.8248 98.3983 31.1427 95.2344C32.4606 92.0706 34.3984 89.2025 36.842 86.7991C41.1157 82.3783 46.897 79.7278 53.036 79.375L53.1577 80.3763C47.2378 80.7632 41.6642 83.3037 37.4893 87.5183C33.0589 91.9853 30.466 97.9518 30.2232 104.238C29.9804 110.525 32.1054 116.674 36.1781 121.469L35.3924 122.183C31.3674 117.448 29.1608 111.435 29.1682 105.221Z" fill="#E2F2D9"/>
<path d="M41.1022 79.5749L41.3954 78.5957C43.6749 79.2153 45.9543 79.8404 48.112 80.3107L47.8741 81.3507C45.7164 80.7864 43.3816 80.1945 41.1022 79.5749Z" fill="#E2F2D9"/>
<path d="M36.4711 81.7591L36.7256 80.7578C37.1958 80.8463 37.5499 80.9902 37.9815 81.1119C38.3955 81.2138 38.8148 81.2932 39.2374 81.3498C40.5542 81.7038 41.9318 81.997 43.1988 82.4562L42.8336 83.4354C41.5791 83.0159 40.2982 82.6796 38.9995 82.4285L37.727 82.0745C37.3729 81.9362 36.9026 81.8808 36.4711 81.7591Z" fill="#E2F2D9"/>
<path d="M33.1736 84.2471L33.4115 83.2402C34.1916 83.4173 34.9772 83.6551 35.7629 83.8322C36.6481 84.0092 37.5499 84.2748 38.3964 84.4794L38.7505 84.568C39.017 84.6243 39.278 84.7039 39.5306 84.8058L39.2374 85.7795C39.0149 85.6594 38.7653 85.5985 38.5126 85.6025L38.1585 85.5471C37.2567 85.3093 36.3549 84.9939 35.5084 84.8058C34.6619 84.6177 33.9592 84.4518 33.1736 84.2471Z" fill="#E2F2D9"/>
<path d="M30.601 86.8486L30.778 85.8418C32.0948 86.1405 33.4115 86.4946 34.8002 86.8486C35.3922 87.0533 36.117 87.2027 36.7809 87.4019L36.4711 88.3478C35.8182 88.2317 35.1543 88.0546 34.4904 87.8776C33.2151 87.4592 31.9164 87.1156 30.601 86.8486V86.8486Z" fill="#E2F2D9"/>
<path d="M28.2939 89.7295L28.648 88.7227L32.1668 89.7295C32.8791 89.876 33.5799 90.0738 34.2637 90.3214L33.9704 91.2674C33.301 91.0627 32.5928 90.9134 31.868 90.7142C30.6564 90.3989 29.4613 90.0393 28.2939 89.7295Z" fill="#E2F2D9"/>
<path d="M32.521 93.6819C30.6565 93.2393 28.7975 92.6473 26.933 92.2324Z" fill="#E2F2D9"/>
<path d="M25.6163 95.6943L25.8542 94.6543C27.6734 95.2209 29.5199 95.6954 31.3869 96.0761L31.1324 97.0829C29.2845 96.668 27.42 96.1978 25.6163 95.6943Z" fill="#E2F2D9"/>
<path d="M30.2469 99.8944C28.4986 99.3412 26.6396 98.9152 24.9633 98.5059Z" fill="#E2F2D9"/>
<path d="M24.6534 102.345L24.7752 101.344C26.5267 101.671 28.252 102.126 29.9371 102.705L29.6383 103.651C28.007 103.107 26.3418 102.671 24.6534 102.345V102.345Z" fill="#E2F2D9"/>
<path d="M29.9536 106.371C28.2938 106.012 26.634 105.542 24.9742 105.188Z" fill="#E2F2D9"/>
<path d="M30.247 110.007C28.6757 109.503 26.9274 109.094 25.4391 108.768Z" fill="#E2F2D9"/>
<path d="M26.6343 112.371C27.9455 112.697 29.3397 113.112 30.8335 113.527C30.8335 113.527 30.8889 113.583 31.0106 113.527" fill="#E2F2D9"/>
<path d="M28.6758 116.287C29.1682 116.409 29.4614 116.525 29.9926 116.614C30.8944 116.94 31.8571 117.028 32.7589 117.322" fill="#E2F2D9"/>
<path d="M35.453 121.484C34.5623 121.186 33.4115 120.859 32.4045 120.627Z" fill="#E2F2D9"/>
<path d="M29.1681 175.019C29.1496 168.884 31.3617 162.953 35.3923 158.328L36.2333 158.981C32.3328 163.241 30.3023 168.977 30.247 175.024C30.2645 181.309 32.6402 187.358 36.9042 191.975C41.1682 196.592 47.01 199.44 53.2738 199.957L53.213 200.964C46.6874 200.426 40.5997 197.465 36.1492 192.662C31.6988 187.86 29.2082 181.565 29.1681 175.019V175.019Z" fill="#E2F2D9"/>
<path d="M26.6343 165.995C28.7311 164.784 30.7727 163.572 32.6372 162.416L33.1905 163.334C31.2651 164.485 29.3176 165.641 27.1986 166.764L26.6343 165.995Z" fill="#E2F2D9"/>
<path d="M25.1459 171.173C25.8541 170.786 26.6397 170.316 27.3589 169.84C28.4987 169.193 29.6992 168.479 30.8943 167.832" fill="#E2F2D9"/>
<path d="M24.5374 175.345C26.0478 174.454 27.4807 173.508 28.9635 172.711L29.9815 172.092" fill="#E2F2D9"/>
<path d="M29.8155 175.938C28.0119 176.944 26.2248 178.007 24.5374 178.953Z" fill="#E2F2D9"/>
<path d="M30.1695 179.75C28.3825 180.729 26.6397 181.736 25.0242 182.621Z" fill="#E2F2D9"/>
<path d="M31.0159 182.918C29.3561 183.919 27.6576 184.81 26.0365 185.872Z" fill="#E2F2D9"/>
<path d="M32.1666 185.873C30.551 186.819 28.9853 187.914 27.3698 188.711Z" fill="#E2F2D9"/>
<path d="M33.7767 188.887C32.1557 189.805 30.5401 190.784 29.0906 191.653Z" fill="#E2F2D9"/>
<path d="M35.8183 191.523C34.3687 192.292 32.7587 193.238 31.2483 194.245Z" fill="#E2F2D9"/>
<path d="M38.1585 193.734C36.7256 194.653 35.2152 195.449 33.8375 196.368Z" fill="#E2F2D9"/>
<path d="M40.9694 196.047C39.5057 196.8 38.0886 197.641 36.7258 198.564Z" fill="#E2F2D9"/>
<path d="M40.0232 200.307C41.2182 199.599 42.535 198.891 43.8518 198.061C43.8672 198.069 43.8843 198.074 43.9018 198.076C43.9194 198.077 43.937 198.075 43.9536 198.069C43.9703 198.064 43.9856 198.054 43.9985 198.042C44.0114 198.031 44.0218 198.016 44.0288 198" fill="#E2F2D9"/>
<path d="M44.2831 201.668C44.6344 201.388 45.0168 201.151 45.4228 200.959C46.2513 200.418 47.1103 199.925 47.9955 199.482" fill="#E2F2D9"/>
<path d="M52.787 200.484C51.8163 200.929 50.8901 201.464 50.0206 202.083Z" fill="#E2F2D9"/>
<path d="M78.7736 226.547L79.8524 226.453C80.1731 232.373 82.702 237.957 86.9397 242.103C91.4273 246.523 97.4058 249.104 103.7 249.34C109.994 249.575 116.149 247.448 120.954 243.376L121.546 244.145C116.546 248.393 110.134 250.611 103.577 250.359C97.0202 250.107 90.7968 247.404 86.1375 242.784C81.8009 238.44 79.1849 232.671 78.7736 226.547V226.547Z" fill="#E2F2D9"/>
<path d="M77.9882 238.167L78.1652 237.398C78.6355 235.473 79.2441 233.404 79.7918 231.451L80.7379 231.717C80.2676 233.642 79.7199 235.683 79.1279 237.631L78.9508 238.46L77.9882 238.167Z" fill="#E2F2D9"/>
<path d="M80.677 242.97C80.8706 242.112 81.0477 241.31 81.2856 240.425C81.5844 239.153 81.8942 237.764 82.3036 236.52" fill="#E2F2D9"/>
<path d="M83.1501 246.292C83.5042 244.632 83.9192 242.972 84.4061 241.313C84.5278 240.959 84.644 240.428 84.7048 240.162" fill="#E2F2D9"/>
<path d="M87.2164 242.969C86.7461 244.922 86.1375 246.991 85.7225 248.822Z" fill="#E2F2D9"/>
<path d="M90.1599 245.441C89.6066 247.394 89.1364 249.402 88.6052 251.123Z" fill="#E2F2D9"/>
<path d="M93.1034 247.041C92.6166 248.933 92.0246 250.764 91.6096 252.573Z" fill="#E2F2D9"/>
<path d="M95.9859 248.254C95.5599 250.207 95.1449 252.038 94.5972 253.786Z" fill="#E2F2D9"/>
<path d="M99.2279 249.404C98.7411 251.125 98.3261 252.956 97.9554 254.61Z" fill="#E2F2D9"/>
<path d="M102.581 249.762C102.028 251.424 101.59 253.123 101.27 254.846Z" fill="#E2F2D9"/>
<path d="M105.823 249.641C105.336 251.356 104.982 252.96 104.567 254.62Z" fill="#E2F2D9"/>
<path d="M109.419 249.404C108.882 250.929 108.46 252.491 108.158 254.079Z" fill="#E2F2D9"/>
<path d="M111.754 252.954C112.064 251.593 112.479 250.188 112.894 248.722C112.894 248.722 113.01 248.722 112.894 248.545" fill="#E2F2D9"/>
<path d="M115.71 250.888C115.838 250.46 115.938 250.024 116.009 249.582C116.302 248.609 116.435 247.69 116.733 246.816" fill="#E2F2D9"/>
<path d="M120.938 244.143C120.56 245.123 120.259 246.131 120.036 247.158Z" fill="#E2F2D9"/>
<path d="M83.8583 13.6106C83.8583 11.3978 84.7048 10.5956 85.3078 10.3577C87.5873 9.32324 90.8405 13.3451 92.7492 17.5495C93.7452 19.7799 94.3084 22.179 94.409 24.6195C94.409 26.8324 93.6843 27.6069 93.0314 27.9056C92.4889 28.0864 91.8994 28.0648 91.3716 27.8448C89.5182 27.1367 87.2277 24.3264 85.673 20.6862C84.5277 18.1359 83.8583 15.5303 83.8583 13.6106ZM93.4021 24.6417C93.2851 22.347 92.7371 20.095 91.7866 18.0031C89.745 13.5111 86.9234 10.7284 85.7007 11.2595C85.2248 11.4974 84.8597 12.3659 84.8597 13.6272C84.8597 15.4639 85.5236 17.9146 86.5195 20.31C88.0133 23.5629 90.1157 26.3456 91.6814 26.9486C91.9596 27.082 92.2784 27.1038 92.5722 27.0094C93.1642 26.7715 93.4021 25.9141 93.4021 24.6417Z" fill="#E2F2D9"/>
<path d="M9.30055 87.3238C9.27064 87.0802 9.33605 86.8344 9.48312 86.6379C10.3241 84.331 15.4252 84.8676 19.8015 86.5549C24.1778 88.2422 27.42 90.9308 27.42 92.9389C27.4429 93.1828 27.4029 93.4285 27.3038 93.6526C27.1894 93.909 27.024 94.1393 26.8176 94.3296C26.6111 94.5198 26.368 94.6659 26.1032 94.759C24.2387 95.5888 20.648 95.2016 16.9798 93.6913C12.4209 91.9929 9.30055 89.332 9.30055 87.3238ZM26.4517 92.9389C26.4517 91.578 23.8182 89.2158 19.3699 87.5009C14.8111 85.6642 10.8663 85.7804 10.3186 86.9974V87.3238C10.3186 88.6239 12.9521 91.0801 17.345 92.7619C20.6978 94.062 24.1778 94.5377 25.644 93.8296C25.7949 93.7934 25.9345 93.7204 26.0503 93.6171C26.1662 93.5138 26.2547 93.3834 26.3079 93.2377C26.3532 93.2019 26.3901 93.1566 26.4159 93.105C26.4417 93.0533 26.4558 92.9966 26.4573 92.9389H26.4517Z" fill="#E2F2D9"/>
<path d="M9.59899 193.508C9.59899 191.494 12.6032 188.772 16.9795 186.819C20.6477 185.309 24.2384 184.75 26.1029 185.458C26.6216 185.673 27.0471 186.065 27.3034 186.565C27.4308 186.78 27.4923 187.028 27.4805 187.279C27.4805 189.287 24.4154 192.008 20.1 193.845C16.4429 195.505 12.8356 196.03 10.9324 195.322C10.6643 195.243 10.4166 195.106 10.2064 194.922C9.99629 194.738 9.82868 194.51 9.71519 194.254C9.62662 194.016 9.58709 193.762 9.59899 193.508V193.508ZM26.457 187.295C26.4717 187.192 26.4522 187.087 26.4016 186.996C26.2799 186.703 26.0475 186.581 25.6768 186.404C24.2992 185.851 21.295 186.084 17.4056 187.799C13.1454 189.63 10.617 192.147 10.617 193.508C10.6079 193.629 10.6289 193.75 10.6779 193.862C10.8216 194.123 11.0587 194.321 11.3418 194.415C12.8964 195.035 16.3875 194.415 19.685 192.966C23.9451 191.14 26.457 188.595 26.457 187.295V187.295Z" fill="#E2F2D9"/>
<path d="M84.5276 266.557C84.5879 264.247 85.0522 261.964 85.8997 259.814C87.3492 256.091 89.507 253.175 91.3604 252.39C91.6047 252.231 91.885 252.138 92.1753 252.117C92.4656 252.097 92.7563 252.151 93.0202 252.273C93.9829 252.6 94.514 253.839 94.514 255.853C94.4479 258.143 93.9836 260.404 93.1419 262.535C91.6481 266.325 89.4848 269.312 87.6093 270.02C87.3609 270.154 87.0871 270.234 86.8057 270.254C86.5243 270.274 86.2419 270.234 85.9771 270.137C84.9979 269.755 84.5276 268.51 84.5276 266.557ZM93.579 255.853C93.579 254.431 93.2194 253.43 92.6882 253.247C92.391 253.15 92.0679 253.172 91.7864 253.308C90.3977 253.861 88.4281 256.268 86.9232 260.168C86.0759 262.195 85.6089 264.361 85.5456 266.557C85.5456 267.979 85.8388 268.925 86.4474 269.163C86.6853 269.312 86.9232 269.312 87.2884 269.041C88.843 268.449 90.8237 265.644 92.1405 262.181C92.9962 260.175 93.4835 258.031 93.579 255.853V255.853Z" fill="#E2F2D9"/>
<path d="M74.9839 35.5162C74.9839 19.0969 84.998 10.5221 85.1916 10.4004L85.839 11.2025C85.7228 11.2911 71.1553 23.7715 77.54 47.2L76.5939 47.4932C75.5145 43.5928 74.9728 39.5632 74.9839 35.5162V35.5162Z" fill="#E2F2D9"/>
<path d="M85.4849 10.3011C85.7228 10.2458 105.275 8.34823 118.172 29.8239L117.27 30.3771C104.805 9.46572 85.7836 11.33 85.6066 11.33L85.4849 10.3011Z" fill="#E2F2D9"/>
<path d="M9.36108 87.7331V86.8203L10.4676 86.848C10.4676 87.0859 8.9738 106.161 30.1417 118.143L29.5884 119.056C10.617 108.29 9.36108 91.8767 9.36108 87.7331Z" fill="#E2F2D9"/>
<path d="M9.48291 86.5208C9.5991 86.3714 22.1416 71.1139 46.4409 77.2047L46.1311 78.2116C22.6119 72.2645 10.4401 86.9966 10.263 87.1459L9.48291 86.5208Z" fill="#E2F2D9"/>
<path d="M9.79297 194.391L10.6173 193.738C10.6782 193.86 23.1598 208.354 46.6791 201.904L46.9114 202.938C22.8666 209.532 9.90915 194.54 9.79297 194.391Z" fill="#E2F2D9"/>
<path d="M9.65991 192.704C9.65991 187.913 11.0486 172.268 29.168 161.381L29.7213 162.327C12.1496 172.838 10.7001 188.09 10.7001 192.648V193.976L9.73736 194.092C9.73736 194.092 9.65991 193.506 9.65991 192.704Z" fill="#E2F2D9"/>
<path d="M86.1377 270.197L86.2705 269.163C86.4475 269.163 105.513 270.585 117.58 249.463L118.47 250.016C106.116 271.735 86.3867 270.197 86.1377 270.197Z" fill="#E2F2D9"/>
<path d="M75.1057 244.258C75.1514 240.513 75.6568 236.788 76.6106 233.166L77.5567 233.404C71.5704 257.065 86.4476 269.163 86.5638 269.313L85.8999 270.076C85.8335 269.96 75.1057 261.225 75.1057 244.258Z" fill="#E2F2D9"/>
<path d="M120.645 11.1899L121.784 10.5371L130.111 25.6232L129.032 26.276L120.645 11.1899Z" fill="#E2F2D9"/>
<path d="M138.41 16.5122L138.526 0.574219L140.418 0.601889L140.302 16.5731L138.41 16.5122Z" fill="#E2F2D9"/>
<path d="M123.632 10.8316C123.64 11.4748 123.392 12.0946 122.943 12.5551C122.493 13.0156 121.88 13.2791 121.237 13.2879C120.912 13.2955 120.589 13.2371 120.288 13.1163C119.986 12.9956 119.713 12.8149 119.483 12.5853C119.253 12.3557 119.073 12.0819 118.952 11.7805C118.831 11.4791 118.773 11.1563 118.78 10.8316C118.766 10.5062 118.82 10.1814 118.939 9.87824C119.058 9.57508 119.239 9.30034 119.472 9.07186C119.704 8.84338 119.981 8.66625 120.286 8.55198C120.591 8.4377 120.917 8.38884 121.242 8.40856C121.879 8.41728 122.487 8.67642 122.934 9.12989C123.382 9.58336 123.632 10.1947 123.632 10.8316Z" fill="#E2F2D9"/>
<path d="M34.9775 62.2392L35.3372 60.9668L51.9572 65.7023L51.5312 67.0023L34.9775 62.2392Z" fill="#E2F2D9"/>
<path d="M60.4773 35.8583L61.7332 35.4766L66.5853 52.3329L65.3294 52.7146L60.4773 35.8583Z" fill="#E2F2D9"/>
<path d="M40.2001 42.0696L41.5168 40.7695L52.6651 52.1823L51.3539 53.4823L40.2001 42.0696Z" fill="#E2F2D9"/>
<path d="M36.9028 59.8565C37.1321 60.0857 37.3139 60.3578 37.4379 60.6573C37.562 60.9567 37.6259 61.2777 37.6259 61.6018C37.6259 61.926 37.562 62.247 37.4379 62.5464C37.3139 62.8459 37.1321 63.118 36.9028 63.3472C36.6736 63.5764 36.4015 63.7582 36.102 63.8823C35.8025 64.0063 35.4815 64.0702 35.1573 64.0702C34.8331 64.0702 34.5121 64.0063 34.2126 63.8823C33.9131 63.7582 33.641 63.5764 33.4117 63.3472C32.9691 62.8738 32.7229 62.2499 32.7229 61.6018C32.7229 60.9538 32.9691 60.3299 33.4117 59.8565C33.8888 59.4211 34.5114 59.1797 35.1573 59.1797C35.8032 59.1797 36.4258 59.4211 36.9028 59.8565Z" fill="#E2F2D9"/>
<path d="M62.8729 33.9604C63.1014 34.1871 63.2828 34.4569 63.4066 34.7541C63.5303 35.0513 63.594 35.37 63.594 35.6919C63.594 36.0138 63.5303 36.3326 63.4066 36.6298C63.2828 36.9269 63.1014 37.1967 62.8729 37.4235C62.4033 37.8907 61.7677 38.153 61.1052 38.153C60.4428 38.153 59.8072 37.8907 59.3376 37.4235C59.106 37.1966 58.9232 36.9248 58.8003 36.6248C58.6773 36.3248 58.6169 36.003 58.6226 35.6788C58.6283 35.3547 58.7 35.0351 58.8334 34.7397C58.9668 34.4442 59.1591 34.179 59.3984 33.9604C59.8626 33.5062 60.4862 33.252 61.1357 33.252C61.7851 33.252 62.4087 33.5062 62.8729 33.9604Z" fill="#E2F2D9"/>
<path d="M9.90894 157.807L24.9632 149.465L25.5552 150.56L10.5618 158.897L9.90894 157.807Z" fill="#E2F2D9"/>
<path d="M9.90894 122.282L10.5618 121.131L25.854 129.589L25.3229 130.746L9.90894 122.282Z" fill="#E2F2D9"/>
<path d="M0 141.068V139.143L15.9617 139.259L15.9008 141.212L0 141.068Z" fill="#E2F2D9"/>
<path d="M10.2021 155.911C10.522 155.902 10.8404 155.958 11.1384 156.074C11.4365 156.191 11.7081 156.366 11.9372 156.589C12.1663 156.812 12.3482 157.08 12.4721 157.375C12.596 157.67 12.6594 157.987 12.6586 158.306C12.6651 158.787 12.5289 159.259 12.2673 159.662C12.0056 160.065 11.6303 160.381 11.1887 160.571C10.7471 160.761 10.2592 160.815 9.78668 160.727C9.31415 160.64 8.87827 160.414 8.5342 160.078C8.19013 159.743 7.95335 159.313 7.85382 158.843C7.75428 158.372 7.79646 157.883 7.97503 157.437C8.1536 156.991 8.46052 156.608 8.85696 156.336C9.2534 156.065 9.72152 155.917 10.2021 155.911V155.911Z" fill="#E2F2D9"/>
<path d="M10.2022 119.205C10.8537 119.205 11.4785 119.464 11.9392 119.924C12.3999 120.385 12.6587 121.01 12.6587 121.661C12.6587 122.313 12.3999 122.938 11.9392 123.398C11.4785 123.859 10.8537 124.118 10.2022 124.118C9.55072 124.118 8.9259 123.859 8.46522 123.398C8.00454 122.938 7.74573 122.313 7.74573 121.661C7.74573 121.01 8.00454 120.385 8.46522 119.924C8.9259 119.464 9.55072 119.205 10.2022 119.205Z" fill="#E2F2D9"/>
<path d="M60.4164 244.258L65.1523 227.695L66.4082 228.055L61.6778 244.618L60.4164 244.258Z" fill="#E2F2D9"/>
<path d="M34.922 217.876L51.708 212.969L52.0732 214.208L35.2761 219.12L34.922 217.876Z" fill="#E2F2D9"/>
<path d="M40.2001 238.105L51.5309 226.836L52.9196 228.23L41.5168 239.35L40.2001 238.105Z" fill="#E2F2D9"/>
<path d="M59.2766 242.657C59.7513 242.217 60.3748 241.973 61.0222 241.973C61.6696 241.973 62.293 242.217 62.7677 242.657C63.0128 242.878 63.2107 243.146 63.3495 243.445C63.4883 243.744 63.5652 244.068 63.5755 244.398C63.5859 244.727 63.5295 245.056 63.4097 245.363C63.2899 245.67 63.1091 245.95 62.8784 246.185C62.6477 246.421 62.3717 246.607 62.067 246.734C61.7623 246.86 61.4353 246.923 61.1055 246.919C60.7758 246.916 60.4502 246.846 60.1482 246.713C59.8463 246.581 59.5743 246.389 59.3486 246.148C59.1098 245.927 58.918 245.659 58.7846 245.362C58.6513 245.065 58.5791 244.744 58.5724 244.418C58.5657 244.092 58.6246 243.769 58.7456 243.466C58.8666 243.164 59.0472 242.889 59.2766 242.657V242.657Z" fill="#E2F2D9"/>
<path d="M33.2732 216.752C33.5033 216.514 33.7792 216.324 34.0844 216.194C34.3895 216.065 34.7176 215.998 35.0492 215.998C35.3807 215.998 35.7088 216.065 36.014 216.194C36.3191 216.324 36.595 216.514 36.8251 216.752C37.2705 217.218 37.5191 217.837 37.5191 218.481C37.5191 219.125 37.2705 219.745 36.8251 220.21C36.3656 220.677 35.7401 220.942 35.0853 220.949C34.4304 220.956 33.7994 220.704 33.3302 220.247C32.861 219.79 32.5916 219.166 32.5809 218.511C32.5702 217.857 32.8191 217.224 33.2732 216.752V216.752Z" fill="#E2F2D9"/>
<path d="M120.512 269.047L128.972 253.668L130.111 254.315L121.652 269.639L120.512 269.047Z" fill="#E2F2D9"/>
<path d="M138.526 279.575L138.703 263.576L140.534 263.692L140.418 279.575H138.526Z" fill="#E2F2D9"/>
<path d="M118.603 269.314C118.633 268.684 118.905 268.089 119.362 267.653C119.818 267.218 120.426 266.975 121.057 266.975C121.688 266.975 122.295 267.218 122.752 267.653C123.209 268.089 123.481 268.684 123.511 269.314C123.526 269.646 123.475 269.978 123.358 270.289C123.242 270.601 123.064 270.885 122.835 271.126C122.605 271.367 122.329 271.558 122.024 271.689C121.718 271.82 121.389 271.887 121.057 271.887C120.724 271.887 120.395 271.82 120.09 271.689C119.784 271.558 119.509 271.367 119.279 271.126C119.05 270.885 118.871 270.601 118.755 270.289C118.639 269.978 118.587 269.646 118.603 269.314V269.314Z" fill="#E2F2D9"/>
<path d="M81.6396 70.8769L81.7614 69.7207C81.8942 69.7207 96.5778 70.8769 96.5778 84.5412H95.3827C95.3827 72.0276 82.2482 70.8769 81.6396 70.8769Z" fill="#E2F2D9"/>
<path d="M83.7974 80.7226C86.3866 80.0753 90.0437 78.8638 92.5002 75.6385C94.243 73.6857 95.2057 71.1133 95.3827 67.9766L96.5224 68.0927C96.2845 71.4673 95.261 74.2777 93.3412 76.3909C90.7685 79.9149 86.8625 81.1264 84.1127 81.8345L83.7974 80.7226Z" fill="#E2F2D9"/>
<path d="M48.8364 131.095C49.0135 131.04 60.1673 121.486 69.8217 131.156L68.9974 131.986C60.1451 123.085 50.0923 131.632 49.6331 132.014L48.8364 131.095Z" fill="#E2F2D9"/>
<path d="M57.296 120.267L58.1812 119.498C60.4773 122.043 61.7332 124.825 61.8494 127.663C62.5188 131.984 60.5381 135.707 59.1439 138.103L58.1259 137.483C59.4538 135.237 61.3072 131.746 60.6543 127.78C60.5381 125.18 59.3984 122.635 57.296 120.267Z" fill="#E2F2D9"/>
<path d="M69.0529 197.886C69.0529 197.648 70.2534 182.949 83.9191 182.949V184.105C71.3932 184.105 70.2534 197.266 70.2534 197.936L69.0529 197.886Z" fill="#E2F2D9"/>
<path d="M67.371 184.129L67.4872 182.973C70.8455 183.238 73.6671 184.273 75.8304 186.198C79.244 188.831 80.5608 192.704 81.1694 195.453L80.0905 195.752C79.4819 193.207 78.2869 189.539 75.0447 187.116C73.0641 185.34 70.4914 184.394 67.371 184.129Z" fill="#E2F2D9"/>
<path d="M126.222 219.475C126.222 216.366 127.301 212.969 130.598 209.744L131.367 210.541C122.432 219.392 131.068 229.472 131.439 229.942L130.537 230.683C130.537 230.622 126.222 225.627 126.222 219.475Z" fill="#E2F2D9"/>
<path d="M118.957 221.43C121.469 219.123 124.18 217.879 126.985 217.702C131.854 217.049 136.053 219.594 137.431 220.423L136.839 221.43C134.543 220.036 131.129 218.321 127.118 218.885C124.534 219.002 122.078 220.158 119.737 222.255L118.957 221.43Z" fill="#E2F2D9"/>
<path d="M126.808 61.4385C126.808 55.2592 131.013 50.319 131.068 50.2305L131.915 50.9994C131.616 51.4143 122.98 61.4717 131.915 70.4006L131.068 71.1695C127.881 67.9498 126.808 64.4867 126.808 61.4385Z" fill="#E2F2D9"/>
<path d="M118.896 59.0782L119.737 58.2207C126.377 64.7265 133.718 61.7668 137.442 59.4599L138.062 60.4944C134.012 63.0115 126.161 66.2035 118.896 59.0782Z" fill="#E2F2D9"/>
<path d="M70.0046 82.5377L71.1554 82.4492C71.2163 82.9526 72.2952 96.1467 84.821 96.0859V97.2974C71.1554 97.2864 70.0766 82.6152 70.0046 82.5377Z" fill="#E2F2D9"/>
<path d="M67.6641 96.1972C76.9644 96.0755 80.0295 88.8561 81.0475 84.541L82.1264 84.8066C81.0475 89.448 77.8109 97.2594 67.6641 97.3755V96.1972Z" fill="#E2F2D9"/>
<path d="M49.6223 148.489L50.3914 147.57C50.8174 148.013 60.9034 156.477 69.7556 147.659L70.5966 148.428C60.8923 158.103 49.6776 148.605 49.6223 148.489Z" fill="#E2F2D9"/>
<path d="M57.65 159.876C64.1287 153.188 61.1854 145.885 58.9059 142.218L59.8686 141.504C62.386 145.526 65.5617 153.392 58.4357 160.612L57.65 159.876Z" fill="#E2F2D9"/>
<path d="M81.8168 208.351C82.37 208.351 95.5599 207.284 95.5599 194.77V194.715H96.7549V194.77C96.7549 208.351 82.0713 209.53 81.8942 209.557L81.8168 208.351Z" fill="#E2F2D9"/>
<path d="M83.9192 198.564L84.1681 197.408C88.8432 198.443 96.6387 201.729 96.7549 211.93H95.5599C95.499 202.553 88.2955 199.538 83.9192 198.564Z" fill="#E2F2D9"/>
<path d="M105.397 140.072C105.388 133.332 107.378 126.741 111.116 121.133C114.854 115.525 120.171 111.151 126.395 108.564C132.619 105.978 139.471 105.295 146.083 106.602C152.695 107.91 158.771 111.149 163.542 115.909C168.313 120.67 171.565 126.738 172.887 133.347C174.208 139.956 173.54 146.808 170.966 153.037C168.393 159.266 164.029 164.592 158.428 168.341C152.827 172.09 146.24 174.094 139.5 174.1C130.468 174.1 121.804 170.517 115.411 164.137C109.017 157.758 105.416 149.103 105.397 140.072ZM172.834 140.072C172.839 133.481 170.888 127.037 167.23 121.554C163.572 116.072 158.371 111.797 152.283 109.27C146.195 106.744 139.495 106.079 133.029 107.359C126.564 108.64 120.623 111.809 115.958 116.465C111.294 121.122 108.115 127.057 106.823 133.52C105.532 139.982 106.186 146.683 108.702 152.775C111.219 158.866 115.486 164.074 120.963 167.741C126.44 171.408 132.881 173.368 139.472 173.375C148.308 173.365 156.779 169.855 163.032 163.613C169.285 157.371 172.809 148.906 172.834 140.072V140.072Z" fill="#E2F2D9"/>
<path d="M102.216 140.073C102.22 132.705 104.409 125.505 108.505 119.381C112.601 113.257 118.421 108.485 125.229 105.668C132.036 102.851 139.527 102.115 146.753 103.553C153.979 104.991 160.617 108.539 165.826 113.749C171.036 118.958 174.585 125.595 176.023 132.82C177.462 140.046 176.726 147.536 173.908 154.343C171.091 161.15 166.318 166.969 160.194 171.065C154.069 175.161 146.868 177.349 139.5 177.354C129.615 177.343 120.137 173.412 113.147 166.423C106.157 159.434 102.226 149.957 102.216 140.073V140.073ZM175.944 140.073C175.944 132.848 173.8 125.786 169.785 119.78C165.769 113.774 160.062 109.095 153.385 106.333C146.709 103.572 139.363 102.853 132.278 104.268C125.193 105.682 118.686 109.167 113.582 114.28C108.479 119.394 105.007 125.906 103.606 132.994C102.205 140.081 102.938 147.425 105.713 154.095C108.488 160.765 113.179 166.463 119.194 170.466C125.208 174.47 132.275 176.599 139.5 176.585C149.172 176.566 158.442 172.71 165.274 165.865C172.106 159.02 175.944 149.744 175.944 140.073V140.073Z" fill="#E2F2D9"/>
</svg>
