<svg width="300" height="301" viewBox="0 0 300 301" fill="none" xmlns="http://www.w3.org/2000/svg">
<path d="M-152.53 301.073C-152.53 217.082 -84.134 148.752 -0.135513 148.752C83.863 148.752 152.259 217.118 152.259 301.073C152.259 385.027 83.851 453.393 -0.0760193 453.393C-84.0031 453.393 -152.53 385.087 -152.53 301.073ZM148.367 301.073C148.348 261.709 132.704 223.963 104.871 196.125C77.0371 168.288 39.2911 152.636 -0.0760193 152.608C-81.8728 152.608 -148.722 219.093 -148.722 301.108C-148.722 383.123 -81.9323 449.728 -0.0760193 449.728C81.7802 449.728 148.367 383.052 148.367 301.073Z" fill="#E2F2D9"/>
<path d="M-100.927 301.072C-100.932 281.126 -95.0209 261.627 -83.9422 245.041C-72.8635 228.455 -57.1144 215.526 -38.6868 207.89C-20.2592 200.254 0.0192642 198.254 19.5839 202.142C39.1486 206.03 57.1206 215.632 71.2272 229.734C85.3338 243.836 94.9412 261.804 98.8345 281.366C102.728 300.928 100.732 321.205 93.0995 339.633C85.4671 358.06 72.5409 373.811 55.9556 384.893C39.3703 395.974 19.8709 401.889 -0.0764771 401.889C-26.8128 401.867 -52.4481 391.239 -71.3558 372.337C-90.2635 353.436 -100.899 327.806 -100.927 301.072ZM97.8226 301.072C97.8037 281.709 92.044 262.787 81.2716 246.698C70.4993 230.608 55.1978 218.073 37.3017 210.677C19.4056 203.282 -0.28157 201.358 -19.2711 205.148C-38.2607 208.939 -55.6999 218.274 -69.3842 231.974C-83.0685 245.673 -92.3834 263.122 -96.1514 282.115C-99.9194 301.107 -97.9712 320.79 -90.5532 338.675C-83.1352 356.561 -70.5805 371.846 -54.4761 382.597C-38.3717 393.349 -19.4407 399.085 -0.0764771 399.081C25.8859 399.018 50.7647 388.667 69.1085 370.296C87.4522 351.925 97.7649 327.032 97.7868 301.072H97.8226Z" fill="#E2F2D9"/>
<path d="M-91.0964 301.069C-91.087 283.082 -85.7448 265.501 -75.7449 250.55C-65.7451 235.598 -51.5367 223.946 -34.9155 217.067C-18.2944 210.189 -0.00682831 208.391 17.6357 211.903C35.2782 215.414 51.4836 224.076 64.2035 236.795C76.9233 249.514 85.5867 265.718 89.0984 283.358C92.6101 300.999 90.8125 319.285 83.9329 335.905C77.0533 352.524 65.4005 366.731 50.4474 376.73C35.4944 386.729 17.9124 392.071 -0.0762482 392.08C-24.2086 392.055 -47.3452 382.458 -64.4094 365.396C-81.4735 348.333 -91.0712 325.199 -91.0964 301.069ZM88.1114 301.069C88.1044 283.63 82.9262 266.585 73.2318 252.089C63.5373 237.592 49.7618 226.296 33.647 219.627C17.5322 212.958 -0.198311 211.217 -17.3027 214.624C-34.4071 218.03 -50.1173 226.431 -62.447 238.765C-74.7767 251.098 -83.1722 266.81 -86.572 283.915C-89.9719 301.019 -88.2234 318.747 -81.5476 334.857C-74.8719 350.968 -63.5686 364.738 -49.067 374.425C-34.5654 384.113 -17.5166 389.284 -0.0762482 389.284C23.3052 389.24 45.716 379.93 62.2458 363.395C78.7757 346.86 88.0768 324.448 88.1114 301.069Z" fill="#E2F2D9"/>
<path d="M98.3584 287.243L148.879 280.877L149.391 283.673L98.6203 290.04L98.3584 287.243Z" fill="#E2F2D9"/>
<path d="M95.8118 274.964L145.321 262.303L145.951 265.099L96.5139 277.69L95.8118 274.964Z" fill="#E2F2D9"/>
<path d="M86.1477 251.924L131.063 227.303L132.336 229.849L87.6116 254.411L86.1477 251.924Z" fill="#E2F2D9"/>
<path d="M79.3401 241.486L120.756 211.521L122.291 213.747L80.923 243.711L79.3401 241.486Z" fill="#E2F2D9"/>
<path d="M71.3779 232.016L108.545 197.018L110.45 199.053L73.1631 234.051L71.3779 232.016Z" fill="#E2F2D9"/>
<path d="M61.9646 223.613L94.5499 184.295L96.7755 186.068L64.1305 225.398L61.9646 223.613Z" fill="#E2F2D9"/>
<path d="M51.5989 216.365L79.2096 173.287L81.566 174.751L54.0743 217.948L51.5989 216.365Z" fill="#E2F2D9"/>
<path d="M40.6497 210.57L62.4764 164.314L65.0232 165.588L43.256 211.653L40.6497 210.57Z" fill="#E2F2D9"/>
<path d="M29.1294 206.121L44.9104 157.568L47.5881 158.461L31.8666 207.073L29.1294 206.121Z" fill="#E2F2D9"/>
<path d="M17.0378 203.249L26.5944 153.055L29.2603 153.495L19.8465 203.761L17.0378 203.249Z" fill="#E2F2D9"/>
<path d="M4.50586 201.859L7.75486 150.832L10.5517 151.082L7.37401 202.109L4.50586 201.859Z" fill="#E2F2D9"/>
<path d="M139.334 244.342C204.362 219.531 266.344 299.082 266.855 299.832L267.105 299.951L264.88 302.26L264.499 302.01C263.737 300.986 203.22 223.362 140.358 247.353L139.334 244.342Z" fill="#E2F2D9"/>
<path d="M139.334 357.285L140.358 354.287C202.97 378.218 263.737 300.594 264.499 299.701L264.88 299.451L267.105 301.486L266.855 301.998C264.368 305.044 204.113 381.835 139.334 357.285Z" fill="#E2F2D9"/>
<path d="M144.94 261.202L149.879 259.417C193.913 243.137 235.329 290.726 243.029 300.269L243.279 300.519L242.018 301.793L241.625 301.543C233.866 291.928 193.402 245.422 150.51 261.083L145.547 263.046L144.94 261.202Z" fill="#E2F2D9"/>
<path d="M144.94 340.34L145.571 338.686L150.534 340.602C189.165 354.727 226.57 317.813 240.982 301.332L241.363 300.832V300.57L242.006 299.809L243.018 300.832H243.267V301.594L242.387 302.546C227.808 319.277 189.629 357.012 149.867 342.435L144.94 340.34Z" fill="#E2F2D9"/>
<path d="M74.1753 170.42L76.4722 165.589C96.002 122.951 158.805 127.152 171.301 128.52L171.42 128.389L171.551 130.305L171.17 130.424C158.757 129.151 97.2278 124.831 78.0193 166.315L75.7819 171.146L74.1753 170.42Z" fill="#E2F2D9"/>
<path d="M129.408 224.624L134.311 222.458C171.598 205.215 172.098 152.474 170.455 130.72V130.078L170.194 129.887V128.935H171.467L171.729 128.686L172.229 129.185V130.59C173.954 152.855 173.419 206.429 134.942 224.052L130.051 226.278L129.408 224.624Z" fill="#E2F2D9"/>
<path d="M-45.1575 132.505C-45.1575 96.103 -9.18024 64.675 -0.90892 57.8681L-0.777988 57.6777L0.626343 58.951L0.364513 59.2009C-9.15643 67.0907 -55.7495 107.813 -40.0042 150.379L-38.1953 155.401L-40.0042 156.163L-41.9441 151.129C-44.0546 145.146 -45.141 138.85 -45.1575 132.505Z" fill="#E2F2D9"/>
<path d="M-1.2666 58.951L-0.374014 57.8681V57.6777H0.26866L1.45878 58.7011C18.1204 73.1954 55.6686 111.502 41.1015 151.081L38.9951 156.163L37.3408 155.401L39.2569 150.379C53.5383 112.013 16.728 74.4092 0.0544112 59.9387L-0.445418 59.5579H-0.707245L-1.2666 58.951Z" fill="#E2F2D9"/>
<path d="M58.0134 162.401C87.2189 98.4617 186.808 111.23 187.82 111.504L187.95 114.562H187.439C186.427 114.432 89.1945 101.841 61.0006 163.674L58.0134 162.401Z" fill="#E2F2D9"/>
<path d="M137.049 239.644C198.316 211.905 186.165 114.3 186.046 113.218V112.396H189.152V113.051C189.402 113.824 201.684 213.773 138.18 242.464L137.049 239.644Z" fill="#E2F2D9"/>
<path d="M-61.7006 135.658C-61.7006 86.4755 -13.6913 44.2303 -1.6711 34.4246C-1.52708 34.1405 -1.30769 33.9014 -1.03693 33.7335C-0.766163 33.5656 -0.454437 33.4753 -0.135841 33.4727V36.5905C0.188774 36.594 0.502243 36.4724 0.739422 36.2507C0.976601 36.0291 1.1192 35.7245 1.13756 35.4005V36.1621L0.625816 36.5429C-12.3941 47.1101 -75.8868 102.219 -53.9411 160.648L-56.9282 161.838C-60.0949 153.474 -61.7121 144.602 -61.7006 135.658Z" fill="#E2F2D9"/>
<path d="M-1.9209 36.1745V35.4129C-1.9209 35.7285 -1.79553 36.0312 -1.57234 36.2544C-1.34915 36.4775 -1.04642 36.6029 -0.730781 36.6029V33.4375C-0.397761 33.4468 -0.0722748 33.5386 0.216468 33.7048C0.50521 33.871 0.748146 34.1062 0.923463 34.3895C14.8597 45.8492 78.6143 101.958 56.1568 161.72L53.2291 160.53C75.1153 102.374 11.575 47.0155 -1.24256 36.4601L-1.9209 36.1745Z" fill="#E2F2D9"/>
<path d="M265.963 300.094H242.291V301.998H265.963V300.094Z" fill="#E2F2D9"/>
<path d="M233.889 291.179L248.265 281.635L249.42 283.158L234.972 292.642L233.889 291.179Z" fill="#E2F2D9"/>
<path d="M223.845 281.386L238.09 272.342L239.114 273.996L224.856 282.969L223.845 281.386Z" fill="#E2F2D9"/>
<path d="M209.135 270.309L222.19 260.516L223.452 262.039L210.479 271.844L209.135 270.309Z" fill="#E2F2D9"/>
<path d="M216.525 275.65L229.188 265.416L230.331 266.999L217.799 277.054L216.525 275.65Z" fill="#E2F2D9"/>
<path d="M187.32 259.239L200.804 248.553L201.947 250.076L188.463 260.703L187.32 259.239Z" fill="#E2F2D9"/>
<path d="M171.729 256.184L187.439 245.117L188.462 246.652L172.812 257.719L171.729 256.184Z" fill="#E2F2D9"/>
<path d="M153.782 258.227L171.48 241.043L172.931 242.447L155.377 259.559L153.782 258.227Z" fill="#E2F2D9"/>
<path d="M144.368 258.475L153.782 241.422L155.496 242.314L146.082 259.367L144.368 258.475Z" fill="#E2F2D9"/>
<path d="M238.352 295.63L257.822 290.93L258.203 292.893L238.852 297.284L238.352 295.63Z" fill="#E2F2D9"/>
<path d="M170.706 128.933L170.968 128.683L187.189 112.332L188.772 113.665L188.2 114.046L171.979 130.337L170.706 128.933Z" fill="#E2F2D9"/>
<path d="M158.424 128.554L161.673 111.703L163.648 112.143L160.209 128.934L158.424 128.554Z" fill="#E2F2D9"/>
<path d="M144.368 128.819L147.998 112.396L149.902 112.777L146.213 129.199L144.368 128.819Z" fill="#E2F2D9"/>
<path d="M126.231 131.292L128.397 115.072L130.182 115.453L128.016 131.613L126.231 131.292Z" fill="#E2F2D9"/>
<path d="M134.943 129.9L136.799 113.799L138.573 113.93L137.049 130.09L134.943 129.9Z" fill="#E2F2D9"/>
<path d="M102.809 138.859L104.725 121.938L106.57 122.199L104.725 139.181L102.809 138.859Z" fill="#E2F2D9"/>
<path d="M89.7065 147.773L92.896 128.936L94.8002 129.197L91.4917 148.154L89.7065 147.773Z" fill="#E2F2D9"/>
<path d="M78.448 161.767L78.8288 137.217H80.6735L80.4236 161.767H78.448Z" fill="#E2F2D9"/>
<path d="M164.541 128.434L175.097 111.631L176.62 112.523L166.195 129.445L164.541 128.434Z" fill="#E2F2D9"/>
<path d="M171.348 140.012L188.331 136.822L188.771 138.607L171.598 141.916L171.348 140.012Z" fill="#E2F2D9"/>
<path d="M171.086 154.14L187.7 150.701L188.2 152.605L171.479 156.044L171.086 154.14Z" fill="#E2F2D9"/>
<path d="M168.861 172.645L185.404 170.551L185.653 172.395L169.111 174.49L168.861 172.645Z" fill="#E2F2D9"/>
<path d="M170.456 163.614L186.808 162.031L186.939 163.935L170.586 165.458L170.456 163.614Z" fill="#E2F2D9"/>
<path d="M161.672 196.065L178.917 194.352L179.048 196.315L161.922 197.91L161.672 196.065Z" fill="#E2F2D9"/>
<path d="M152.759 209.355L171.979 206.309L172.229 208.213L153.152 211.271L152.759 209.355Z" fill="#E2F2D9"/>
<path d="M170.706 134.028L187.701 123.461L188.772 125.127L171.598 135.623L170.706 134.028Z" fill="#E2F2D9"/>
<path d="M-0.897461 58.5695V58.1887V35.0312H0.875802V35.662V58.7005L-0.897461 58.5695Z" fill="#E2F2D9"/>
<path d="M7.24316 66.0208L17.0379 51.7051L18.4422 52.788L8.76655 67.0323L7.24316 66.0208Z" fill="#E2F2D9"/>
<path d="M17.1687 76.0737L26.4635 61.877L27.9868 63.0194L18.692 77.1447L17.1687 76.0737Z" fill="#E2F2D9"/>
<path d="M28.6179 90.6392L38.6744 77.6562L40.1977 78.6796L30.0222 91.7816L28.6179 90.6392Z" fill="#E2F2D9"/>
<path d="M23.2146 83.2651L33.5924 70.6035L35.1158 71.8054L24.8093 84.4671L23.2146 83.2651Z" fill="#E2F2D9"/>
<path d="M39.9473 112.394L51.0867 99.1016L52.4197 100.303L41.292 113.667L39.9473 112.394Z" fill="#E2F2D9"/>
<path d="M43.1367 128.173L54.4547 112.465L55.99 113.667L44.66 129.327L43.1367 128.173Z" fill="#E2F2D9"/>
<path d="M41.1614 145.675L58.787 128.051L60.1199 129.324L42.4348 147.008L41.1614 145.675Z" fill="#E2F2D9"/>
<path d="M41.2925 154.959L58.7872 145.605L59.6084 147.26L42.3041 156.673L41.2925 154.959Z" fill="#E2F2D9"/>
<path d="M2.41064 62.197L6.98073 42.7285L8.8968 43.1688L4.25531 62.5778L2.41064 62.197Z" fill="#E2F2D9"/>
<path d="M150.533 299.705C193.294 298.753 201.708 266.754 201.708 266.492L204.374 267.135C204.374 267.516 195.472 301.49 150.545 302.442L150.533 299.705Z" fill="#E2F2D9"/>
<path d="M150.533 303.202V300.334C195.46 301.226 204.362 334.701 204.362 334.844L201.696 335.606C201.435 334.392 193.163 303.904 150.533 303.202Z" fill="#E2F2D9"/>
<path d="M183.618 300.079C205.766 299.829 215.942 288.69 220.786 279.277L222.44 280.098C217.679 289.904 206.79 301.733 183.618 301.995V300.079Z" fill="#E2F2D9"/>
<path d="M183.618 302.438V300.463C207.861 301.105 218.132 313.958 222.059 321.716L220.524 322.609C216.644 315.35 206.79 302.95 183.618 302.438Z" fill="#E2F2D9"/>
<path d="M197.246 246.77C197.246 240.023 199.626 216.485 230.569 203.252L231.759 205.918C199.126 219.662 200.007 245.116 200.007 248.163L197.281 248.294L197.246 246.77Z" fill="#E2F2D9"/>
<path d="M176.883 196.882L179.037 194.906C186.427 202.225 202.97 213.042 230.212 202.867L231.235 205.473C202.458 216.35 184.892 204.676 176.883 196.882Z" fill="#E2F2D9"/>
<path d="M178.442 242.435C179.632 235.295 184.547 222.336 203.256 214.887L204.017 216.481C186.082 223.728 181.405 235.95 180.286 242.757L178.442 242.435Z" fill="#E2F2D9"/>
<path d="M168.48 214.259L169.373 212.664C175.99 216.615 187.058 220.042 203.22 214.378L203.862 216.222C186.927 222.077 175.347 218.388 168.48 214.259Z" fill="#E2F2D9"/>
<path d="M88.8731 92.2844C89.0497 84.1872 90.7705 76.1981 93.943 68.7461L96.5493 69.9361C83.2319 102.792 101.798 120.19 103.952 121.999L102.048 124.224C97.8047 120.069 94.4494 115.095 92.1848 109.605C89.9203 104.115 88.7936 98.2225 88.8731 92.2844Z" fill="#E2F2D9"/>
<path d="M51.3369 102.221V99.353C61.8337 99.353 81.185 95.4736 93.2647 68.7461L96.002 69.9361C82.7084 99.1031 60.3699 102.221 51.3369 102.221Z" fill="#E2F2D9"/>
<path d="M78.698 114.05C78.8622 107.958 80.225 101.957 82.7087 96.3906L84.363 97.0213C76.7224 114.871 82.3279 126.771 86.0173 132.4L84.7438 133.412C80.7428 127.754 78.6272 120.979 78.698 114.05Z" fill="#E2F2D9"/>
<path d="M57.1328 118.757C64.5115 116.841 75.0678 111.367 82.4585 95.9688L83.9819 96.7422C76.2223 112.903 65.2732 118.626 57.5137 120.542L57.1328 118.757Z" fill="#E2F2D9"/>
<path d="M129.159 170.55C144.809 154.509 143.976 139.431 140.608 129.447L142.452 128.936C145.439 137.468 147.605 154.318 130.432 171.942L129.159 170.55Z" fill="#E2F2D9"/>
<path d="M129.408 170.801C146.843 154.141 163.517 156.045 171.467 158.52L171.086 160.364C163.267 157.889 147.486 156.164 130.551 172.205L129.408 170.801Z" fill="#E2F2D9"/>
<path d="M-21.9268 80.2029L-21.0461 78.5488C-13.0604 82.4877 0.495022 92.9241 0.875858 117.414H-0.909317C-1.26635 95.197 -12.5129 84.9034 -21.9268 80.2029Z" fill="#E2F2D9"/>
<path d="M-0.778076 117.418C-0.135413 93.178 12.9082 82.9082 20.3465 78.9336L21.2391 80.5163C14.0984 84.3362 1.76876 94.2014 1.138 117.549L-0.778076 117.418Z" fill="#E2F2D9"/>
<path d="M105.416 193.574C134.943 162.717 118.341 134.145 118.21 134.074L120.507 132.551C120.757 132.92 138.573 163.217 107.415 195.621L105.416 193.574Z" fill="#E2F2D9"/>
<path d="M105.927 194.087C138.191 162.968 168.23 180.212 168.48 180.473L167.075 182.758C165.885 182.187 138.513 166.467 107.903 196.062L105.927 194.087Z" fill="#E2F2D9"/>
<path d="M-34.7202 99.3522L-34.0895 96.6152C-33.6729 96.7461 0.364437 105.528 1.38794 150.38L-1.40884 150.499C-2.45615 107.813 -33.3992 99.6021 -34.7202 99.3522Z" fill="#E2F2D9"/>
<path d="M-0.90918 150.38C-0.0165918 105.528 33.271 96.7461 33.7114 96.6152L34.4731 99.3522C33.0092 99.6021 2.7921 107.813 1.89952 150.522L-0.90918 150.38Z" fill="#E2F2D9"/>
<path d="M185.915 166.861L186.046 168.313L186.165 166.861C188.735 166.444 191.333 166.229 193.937 166.219C208.508 166.244 222.476 172.043 232.78 182.346C243.083 192.649 248.883 206.615 248.908 221.185C248.908 238.619 240.887 255.041 227.212 264.906L225.368 262.419C231.783 257.635 236.986 251.411 240.555 244.25C244.125 237.088 245.963 229.187 245.921 221.185C245.883 207.425 240.384 194.243 230.633 184.535C220.881 174.827 207.674 169.386 193.913 169.408C191.442 169.448 188.976 169.615 186.522 169.908L186.022 168.313L185.915 166.861Z" fill="#E2F2D9"/>
<path d="M36.3892 74.6611L36.889 73.84C38.2933 72.055 39.8166 70.3414 41.5423 68.4969C51.8905 58.186 65.9039 52.3965 80.5128 52.3965C95.1216 52.3965 109.135 58.186 119.483 68.4969C125.524 74.4557 130.073 81.7556 132.761 89.8033C135.45 97.8509 136.201 106.419 134.955 114.812L131.967 114.3C133.122 106.406 132.399 98.3514 129.855 90.7898C127.312 83.2282 123.02 76.3732 117.329 70.7817C112.518 65.9424 106.797 62.102 100.496 59.4813C94.1952 56.8607 87.4382 55.5116 80.6139 55.5116C73.7896 55.5116 67.0326 56.8607 60.7316 59.4813C54.4307 62.102 48.71 65.9424 43.8988 70.7817C42.2489 72.3268 40.7578 74.033 39.4478 75.875L38.817 76.6365L36.3892 74.6611Z" fill="#E2F2D9"/>
<path d="M38.4243 77.2812C49.1379 68.1355 62.9026 63.3585 76.9791 63.901C91.0555 64.4434 104.412 70.2655 114.39 80.2086C123.901 89.4038 129.585 101.854 130.301 115.064L128.266 115.195C127.374 102.563 121.947 90.6791 112.985 81.7318C103.37 72.2051 90.5309 66.632 77.0049 66.1142C63.4789 65.5964 50.2509 70.1715 39.9358 78.9353L38.4243 77.2812Z" fill="#E2F2D9"/>
<path d="M185.404 172.393L185.582 170.168C199.597 171.323 212.67 177.687 222.223 188.005C231.776 198.324 237.114 211.847 237.186 225.908C237.28 239.165 232.464 251.988 223.666 261.905L221.881 260.442C230.386 250.967 235.054 238.663 234.972 225.932C234.921 212.421 229.799 199.421 220.619 189.507C211.44 179.592 198.872 173.485 185.404 172.393Z" fill="#E2F2D9"/>
<path d="M228.676 251.087C232.616 248.707 237.007 246.125 241.53 243.59L242.541 245.494C238.09 248.04 233.758 250.456 229.819 253.003L228.676 251.087Z" fill="#E2F2D9"/>
<path d="M245.921 234.035C244.267 235.059 242.672 235.951 241.161 237.034C238.614 238.498 236.126 240.152 233.651 241.354" fill="#E2F2D9"/>
<path d="M246.992 225.268C243.945 227.231 240.768 229.147 237.709 230.991C237.007 231.241 236.114 232.003 235.483 232.182" fill="#E2F2D9"/>
<path d="M235.734 224.051C239.495 221.826 243.684 219.66 246.992 217.494L235.734 224.051Z" fill="#E2F2D9"/>
<path d="M235.234 215.974C238.983 213.677 242.672 211.523 246.171 209.607L235.234 215.974Z" fill="#E2F2D9"/>
<path d="M233.187 208.974C236.686 206.808 240.566 204.845 244.005 202.607L233.187 208.974Z" fill="#E2F2D9"/>
<path d="M230.807 202.609C234.103 200.514 237.674 198.289 241.113 196.373L230.807 202.609Z" fill="#E2F2D9"/>
<path d="M227.236 196.063C230.806 194.219 234.162 191.922 237.352 190.113L227.236 196.063Z" fill="#E2F2D9"/>
<path d="M222.952 190.398C226.315 188.74 229.545 186.826 232.615 184.674L222.952 190.398Z" fill="#E2F2D9"/>
<path d="M217.918 185.643C220.905 183.798 224.094 181.954 227.213 179.979L217.918 185.643Z" fill="#E2F2D9"/>
<path d="M211.872 180.591C215.006 179.028 218.025 177.243 220.905 175.248L211.872 180.591Z" fill="#E2F2D9"/>
<path d="M213.657 171.498C211.03 173.228 208.313 174.817 205.517 176.258C205.517 176.258 205.136 176.258 205.136 176.579" fill="#E2F2D9"/>
<path d="M204.624 168.633C203.731 169.406 202.97 169.656 202.244 170.287C200.364 171.246 198.54 172.311 196.781 173.476" fill="#E2F2D9"/>
<path d="M186.427 171.183C188.468 170.139 190.454 168.991 192.378 167.744L186.427 171.183Z" fill="#E2F2D9"/>
<path d="M38.4243 77.2812C49.1379 68.1355 62.9026 63.3585 76.9791 63.901C91.0555 64.4434 104.412 70.2655 114.39 80.2086C123.901 89.4038 129.585 101.854 130.301 115.064L128.266 115.195C127.374 102.563 121.947 90.6791 112.985 81.7318C103.37 72.2051 90.5309 66.632 77.0049 66.1142C63.4789 65.5964 50.2509 70.1715 39.9358 78.9353L38.4243 77.2812Z" fill="#E2F2D9"/>
<path d="M126.231 103.991C127.254 99.5408 128.516 94.9593 130.051 89.5566L132.205 90.1278C130.551 95.4709 129.408 100.052 128.397 104.634L126.231 103.991Z" fill="#E2F2D9"/>
<path d="M126.481 79.8867C125.91 81.6003 125.529 83.3853 125.017 85.1703C124.49 88.0427 123.746 90.8711 122.792 93.6313" fill="#E2F2D9"/>
<path d="M121.018 72.6992C120.245 76.1978 119.352 79.8392 118.471 83.4093C118.189 84.2394 117.974 85.0911 117.829 85.9559" fill="#E2F2D9"/>
<path d="M112.236 79.8119C113.247 75.623 114.616 71.1724 115.604 67.1621L112.236 79.8119Z" fill="#E2F2D9"/>
<path d="M105.927 74.4672C107.117 70.2784 108.307 66.0777 109.307 62.2578L105.927 74.4672Z" fill="#E2F2D9"/>
<path d="M99.7627 70.9663C100.655 66.8965 101.917 63.0171 102.809 58.9473L99.7627 70.9663Z" fill="#E2F2D9"/>
<path d="M93.3955 68.2338C94.2881 64.2949 95.3116 60.2251 96.3827 56.4766L93.3955 68.2338Z" fill="#E2F2D9"/>
<path d="M86.2666 66.0788C87.5995 62.2589 88.3731 58.1891 89.3252 54.75L86.2666 66.0788Z" fill="#E2F2D9"/>
<path d="M79.3401 65.1863C80.483 61.5894 81.4364 57.9351 82.1964 54.2383L79.3401 65.1863Z" fill="#E2F2D9"/>
<path d="M72.4016 65.4483C73.2823 61.7593 74.1709 58.1893 75.0675 54.7383L72.4016 65.4483Z" fill="#E2F2D9"/>
<path d="M64.5115 66.0799C65.6458 62.7333 66.5368 59.3091 67.1773 55.834L64.5115 66.0799Z" fill="#E2F2D9"/>
<path d="M59.3581 58.1914C58.7315 61.2971 57.9006 64.3582 56.8707 67.3545C56.8369 67.3867 56.81 67.4255 56.7916 67.4684C56.7732 67.5114 56.7637 67.5576 56.7637 67.6043C56.7637 67.6511 56.7732 67.6973 56.7916 67.7403C56.81 67.7832 56.8369 67.822 56.8707 67.8542" fill="#E2F2D9"/>
<path d="M51.0988 62.7715C50.837 63.783 50.5871 64.4256 50.3252 65.568C49.6707 67.5154 49.142 69.5028 48.7424 71.518" fill="#E2F2D9"/>
<path d="M39.8164 77.3469C40.6178 75.2067 41.1961 72.9895 41.542 70.7305L39.8164 77.3469Z" fill="#E2F2D9"/>
<path d="M240.887 199.564C240.887 195.363 247.385 189.377 256.799 185.177C265.962 181.297 276.9 179.714 278.935 184.546C280.851 188.878 274.043 195.803 263.463 200.516C254.18 204.586 243.231 206.109 241.137 201.218C240.913 200.697 240.827 200.127 240.887 199.564ZM277.221 186.129C277.254 185.91 277.208 185.686 277.09 185.498C275.817 182.761 267.676 182.951 257.62 187.342C247.563 191.734 241.97 197.779 243.243 200.254C244.326 202.872 252.526 202.741 262.452 198.409C271.687 194.34 277.221 189.127 277.221 186.129Z" fill="#E2F2D9"/>
<path d="M96.5137 52.1451C96.701 47.142 97.7562 42.2095 99.6318 37.5675C102.69 29.5588 107.332 23.2874 111.343 21.5381C112.451 21.0555 113.702 21.013 114.842 21.4191C116.365 22.0498 118.21 23.7991 118.21 29.1065C118.004 34.0842 116.949 38.9901 115.091 43.6127C111.521 52.9066 104.845 61.7484 99.7627 59.8444C97.6562 58.9519 96.5137 56.3458 96.5137 52.1451ZM115.984 29.1065C115.984 25.9887 115.353 23.8943 114.008 23.4421C113.694 23.3422 113.363 23.3085 113.035 23.3434C112.707 23.3782 112.39 23.4807 112.104 23.6444C108.915 25.1081 104.464 31.082 101.667 38.341C99.8499 42.7287 98.8148 47.4005 98.6083 52.1451C98.6083 55.132 99.3819 57.2978 100.774 57.7381C103.321 58.821 109.105 52.9067 112.997 42.8511C114.834 38.4937 115.847 33.8333 115.984 29.1065Z" fill="#E2F2D9"/>
<path d="M199.09 165.969C250.813 151.594 278.554 183.902 278.828 184.283L277.221 185.64C276.959 185.33 250.11 154.081 199.649 168.016L199.09 165.969Z" fill="#E2F2D9"/>
<path d="M235.983 253.385C280.851 226.526 276.9 185.495 276.9 185.174L278.935 184.924C279.197 185.174 283.326 227.764 237.138 255.229L235.983 253.385Z" fill="#E2F2D9"/>
<path d="M45.1484 64.6768C71.7476 17.981 114.175 21.2892 114.378 21.2892L114.259 23.4431C113.866 23.4431 72.8901 20.2658 46.9336 65.8192L45.1484 64.6768Z" fill="#E2F2D9"/>
<path d="M113.759 23.1912L115.091 21.5371C115.472 21.7989 148.415 48.6454 135.074 100.946L133.038 100.434C145.832 49.5379 114.175 23.4411 113.759 23.1912Z" fill="#E2F2D9"/>
<path d="M150.414 299.701H99.3818V302.438H150.414V299.701Z" fill="#E2F2D9"/>
<path d="M91.6226 262.552L137.168 242.762L138.192 245.38L92.765 265.098L91.6226 262.552Z" fill="#E2F2D9"/>
<path d="M244.778 278.517L277.161 260.572L278.566 263.059L246.171 281.005L244.778 278.517Z" fill="#E2F2D9"/>
<path d="M265.582 302.818L265.713 298.748L300 299.069V303.211L265.582 302.818Z" fill="#E2F2D9"/>
<path d="M277.923 267.131C276.544 267.092 275.231 266.532 274.25 265.562C273.269 264.592 272.693 263.285 272.639 261.907C272.633 260.492 273.184 259.132 274.173 258.121C275.162 257.11 276.509 256.529 277.923 256.504C279.289 256.569 280.578 257.157 281.521 258.146C282.465 259.135 282.992 260.45 282.992 261.817C282.992 263.185 282.465 264.499 281.521 265.489C280.578 266.478 279.289 267.066 277.923 267.131Z" fill="#E2F2D9"/>
<path d="M157.162 111.953L167.338 76.3242L170.075 77.1453L159.828 112.715L157.162 111.953Z" fill="#E2F2D9"/>
<path d="M187.701 141.537L224.094 131.172L224.856 133.897L188.772 144.333L187.701 141.537Z" fill="#E2F2D9"/>
<path d="M186.177 111.501L210.61 87.4629L213.526 90.3189L189.033 114.428L186.177 111.501Z" fill="#E2F2D9"/>
<path d="M172.229 80.4559C171.75 80.9392 171.18 81.3227 170.552 81.5845C169.924 81.8462 169.25 81.981 168.569 81.981C167.889 81.981 167.215 81.8462 166.587 81.5845C165.959 81.3227 165.389 80.9392 164.91 80.4559C163.964 79.4606 163.436 78.14 163.436 76.767C163.436 75.3939 163.964 74.0732 164.91 73.0779C165.901 72.1717 167.204 71.6838 168.546 71.7164C169.889 71.749 171.167 72.2996 172.112 73.2529C173.058 74.2062 173.598 75.4884 173.62 76.831C173.642 78.1735 173.143 79.4725 172.229 80.4559Z" fill="#E2F2D9"/>
<path d="M228.296 136.312C227.553 137.054 226.607 137.559 225.578 137.763C224.548 137.968 223.481 137.862 222.511 137.46C221.542 137.059 220.713 136.378 220.13 135.506C219.547 134.633 219.236 133.607 219.236 132.557C219.236 131.508 219.547 130.482 220.13 129.609C220.713 128.737 221.542 128.056 222.511 127.654C223.481 127.253 224.548 127.147 225.578 127.352C226.607 127.556 227.553 128.061 228.296 128.803C229.275 129.807 229.823 131.155 229.823 132.557C229.823 133.96 229.275 135.307 228.296 136.312Z" fill="#E2F2D9"/>
<path d="M19.9653 55.3928L38.1741 22.4297L40.6496 23.8339L22.4527 56.7851L19.9653 55.3928Z" fill="#E2F2D9"/>
<path d="M-2.42065 35.2821L-2.1707 0.998047L1.89948 1.05757L1.64953 35.413L-2.42065 35.2821Z" fill="#E2F2D9"/>
<path d="M44.7794 23.0627C44.781 23.7621 44.6435 24.4548 44.3748 25.1004C44.1061 25.7461 43.7116 26.3319 43.2143 26.8236C42.7169 27.3153 42.1267 27.7032 41.478 27.9646C40.8293 28.2261 40.1351 28.3558 39.4358 28.3464C38.7452 28.3464 38.0615 28.2093 37.4243 27.9429C36.7872 27.6765 36.2094 27.2862 35.7244 26.7946C35.2394 26.303 34.8569 25.7199 34.5992 25.0793C34.3415 24.4387 34.2136 23.7532 34.2231 23.0627C34.2101 22.3747 34.3361 21.6911 34.5935 21.0529C34.8509 20.4147 35.2344 19.835 35.721 19.3484C36.2077 18.8618 36.7875 18.4783 37.4258 18.2209C38.0641 17.9636 38.7477 17.8376 39.4358 17.8505C40.1296 17.8395 40.8187 17.9658 41.4634 18.2222C42.1082 18.4787 42.6958 18.8601 43.1925 19.3446C43.6891 19.8291 44.0851 20.407 44.3574 21.0451C44.6298 21.6833 44.7732 22.369 44.7794 23.0627Z" fill="#E2F2D9"/>
<path d="M147.986 283.101C168.861 262.288 192.913 282.839 193.211 282.97L191.687 284.945C190.604 284.112 168.909 265.786 149.95 284.874L147.986 283.101Z" fill="#E2F2D9"/>
<path d="M164.91 278.066C164.91 271.319 167.207 263.941 174.074 256.812L175.99 258.598C161.923 272.985 168.231 288.693 173.312 296.832L171.218 298.022C168.231 293.215 164.91 286.206 164.91 278.066Z" fill="#E2F2D9"/>
<path d="M119.352 208.782V206.176C146.332 206.176 148.629 177.926 148.76 176.783L151.14 176.902C151.176 177.307 148.688 208.782 119.352 208.782Z" fill="#E2F2D9"/>
<path d="M125.148 181.999L127.635 181.428C129.028 186.902 131.706 194.851 138.573 200.004C142.833 203.764 148.093 205.859 154.984 206.18L154.865 208.715C147.605 208.334 141.369 205.989 137.013 201.979C129.54 196.35 126.743 187.854 125.148 181.999Z" fill="#E2F2D9"/>
<path d="M17.2993 107.876L19.2035 106.162C19.3345 106.543 39.8164 130.533 19.0727 151.382L17.2993 149.597C36.3888 130.343 18.061 108.768 17.2993 107.876Z" fill="#E2F2D9"/>
<path d="M4.25586 128.175L5.52926 126.14C10.4206 129.068 17.9303 132.876 26.4634 131.615C32.4176 131.074 38.0074 128.513 42.3039 124.355L44.0176 126.2C38.4241 131.031 32.7592 133.768 26.7134 134.149C17.4186 135.423 9.52808 131.353 4.25586 128.175Z" fill="#E2F2D9"/>
<path d="M91.9912 183.522C91.9912 154.128 123.434 151.594 123.874 151.594L124.005 154.128C122.661 154.2 94.4191 156.508 94.4191 183.522V183.652H92.0389L91.9912 183.522Z" fill="#E2F2D9"/>
<path d="M91.7417 146.5H94.2885C94.5384 166.599 110.069 173.216 119.352 175.381L118.853 177.761C108.915 175.512 91.9916 168.313 91.7417 146.5Z" fill="#E2F2D9"/>
<path d="M-73.435 301.069C-73.4538 286.572 -69.1724 272.395 -61.1322 260.33C-53.0921 248.266 -41.6544 238.857 -28.2659 233.294C-14.8773 227.73 -0.139282 226.262 14.084 229.074C28.3073 231.886 41.377 238.853 51.64 249.094C61.903 259.334 68.8982 272.388 71.741 286.604C74.5837 300.82 73.1461 315.56 67.6102 328.959C62.0743 342.358 52.6886 353.814 40.6404 361.879C28.5922 369.944 14.4226 374.255 -0.0761414 374.266C-19.5053 374.266 -38.141 366.56 -51.894 352.837C-65.6471 339.114 -73.394 320.497 -73.435 301.069ZM71.6284 301.069C71.6378 286.892 67.4429 273.031 59.5741 261.237C51.7053 249.444 40.516 240.248 27.4208 234.813C14.3257 229.378 -0.0871429 227.947 -13.9953 230.702C-27.9035 233.457 -40.6825 240.274 -50.7165 250.29C-60.7505 260.306 -67.5889 273.073 -70.3671 286.975C-73.1453 300.877 -71.7386 315.291 -66.3247 328.394C-60.9108 341.497 -51.7329 352.701 -39.9514 360.588C-28.17 368.476 -14.3141 372.693 -0.135635 372.708C18.87 372.686 37.0927 365.135 50.5429 351.708C63.9931 338.281 71.5749 320.073 71.6284 301.069Z" fill="#E2F2D9"/>
<path d="M-80.2781 301.068C-80.2687 285.22 -75.5609 269.731 -66.7498 256.559C-57.9387 243.386 -45.4198 233.121 -30.7754 227.06C-16.1311 221 -0.0186462 219.417 15.5253 222.511C31.0693 225.605 45.3471 233.237 56.554 244.443C67.761 255.649 75.394 269.926 78.4882 285.468C81.5825 301.011 79.9992 317.121 73.9384 331.764C67.8776 346.407 57.6114 358.925 44.4374 367.735C31.2634 376.546 15.7729 381.253 -0.0760574 381.262C-21.3402 381.24 -41.7271 372.784 -56.7631 357.75C-71.7991 342.715 -80.256 322.33 -80.2781 301.068ZM78.317 301.068C78.3169 285.528 73.7063 270.336 65.0685 257.417C56.4307 244.498 44.154 234.431 29.7923 228.492C15.4306 222.552 -0.370712 221.005 -15.6117 224.048C-30.8527 227.091 -44.8482 234.587 -55.8271 245.587C-66.8061 256.586 -74.2748 270.595 -77.2881 285.841C-80.3014 301.086 -78.7238 316.883 -72.7549 331.231C-66.7861 345.58 -56.6944 357.836 -43.7569 366.447C-30.8195 375.059 -15.6179 379.639 -0.0760574 379.608C20.7293 379.567 40.6685 371.274 55.3656 356.55C70.0627 341.825 78.317 321.871 78.317 301.068Z" fill="#E2F2D9"/>
</svg>
