<svg width="120" height="120" viewBox="0 0 120 120" fill="none" xmlns="http://www.w3.org/2000/svg">
<path fill-rule="evenodd" clip-rule="evenodd" d="M55.1911 19.5287C50.492 22.3853 45.114 35.8527 49.2032 34.5232C49.7827 34.334 51.1466 32.3166 52.2338 30.0377C57.1631 19.7103 61.47 19.3697 66.325 28.9227C68.5122 33.2257 69.7606 34.0069 70.6707 31.6439C71.4711 29.5634 66.8101 21.3114 63.8022 19.4824C60.5295 17.4928 58.522 17.5037 55.1911 19.5287ZM26.6392 35.9696C23.261 37.7734 22 39.5789 22 42.6096C22 46.8655 27.1731 55.749 29.6504 55.749C31.5567 55.749 31.2286 53.1968 28.8786 49.7507C23.5225 41.8948 25.077 38.574 34.0365 38.7329C43.3823 38.8977 57.6777 44.4007 70.6319 52.8193C77.3131 57.1618 80.8346 58.1818 80.0148 55.538C79.5112 53.9141 68.8049 46.9816 60.3785 42.8249C46.3353 35.8956 32.1673 33.0171 26.6392 35.9696ZM75.5612 36.3783C67.2638 38.5698 65.0176 39.5469 65.0176 40.9622C65.0176 43.0712 66.3394 43.1696 71.3927 41.4365C82.1075 37.7616 92.7075 37.6817 92.9496 41.2759C93.271 46.0347 90.8232 50.3696 84.1613 56.8389C79.9414 60.9367 68.7458 69.2039 67.4157 69.2039C67.0243 69.2039 66.7046 68.1342 66.7046 66.8274C66.7046 63.8379 63.5728 60.7946 60.4966 60.7946C59.1445 60.7946 57.293 61.6919 56.0126 62.9684C53.9992 64.9757 53.8668 65.5593 54.2725 70.5981C54.6091 74.7868 54.4387 76.1592 53.5387 76.5031C52.0213 77.0834 52.0229 79.2168 53.5412 79.7979C56.8055 81.0466 78.4982 67.5506 87.4349 58.7108C104.239 42.089 98.0451 30.4388 75.5612 36.3783ZM44.9858 44.537C44.6374 45.3846 44.3523 52.7007 44.3523 60.7946C44.3523 77.2238 45.5475 84.4145 49.7506 93.2754C52.5586 99.1947 55.7048 102 59.535 102C63.3425 102 66.2027 99.4385 69.2216 93.3258C72.5128 86.6598 75.1361 74.7506 73.6406 73.2597C72.0287 71.6526 71.111 73.2403 69.6602 80.1477C68.9331 83.6098 67.2326 88.8067 65.8805 91.6961C61.6437 100.748 57.4094 100.701 53.1161 91.554C48.9619 82.7033 47.927 76.3862 47.8148 59.1809C47.7397 47.6644 47.4445 43.6019 46.666 43.3437C46.0899 43.152 45.3333 43.6893 44.9858 44.537ZM57.9535 52.8209C56.3407 54.4288 56.1602 57.5142 57.595 58.9446C59.1445 60.4893 62.0494 60.1479 63.8047 58.2146C65.2462 56.6261 65.2732 56.2788 64.1177 54.2202C62.6163 51.5436 59.8614 50.9188 57.9535 52.8209ZM36.5796 56.7691C18.2693 72.2682 17.0842 85.2092 33.9775 85.1689C39.8827 85.1546 41.9062 84.3456 41.1243 82.3131C40.6941 81.1963 39.7848 81.0525 35.9664 81.4999C31.0987 82.07 26.6999 80.9213 25.9121 78.8737C24.7481 75.8497 27.621 71.1077 35.257 63.4503C39.5655 59.1296 42.8779 55.2504 42.6173 54.8308C41.7443 53.4222 39.795 54.0479 36.5796 56.7691ZM87.2865 64.4922C86.9862 65.2725 87.833 67.1327 89.3699 69.0668C96.4661 77.9991 93.5392 83.1204 82.2972 81.4394C79.1941 80.9752 78.4029 81.1274 77.9626 82.271C77.1562 84.3649 79.1485 85.1546 85.2612 85.1655C97.4057 85.1874 100.509 77.6981 92.6181 67.4127C89.547 63.409 88.0245 62.5757 87.2865 64.4922Z" fill="#D87058"/>
</svg>
