<svg width="120" height="120" viewBox="0 0 120 120" fill="none" xmlns="http://www.w3.org/2000/svg">
<path fill-rule="evenodd" clip-rule="evenodd" d="M79.1832 19.0752C77.4587 20.4615 75.8178 20.9666 74.3015 20.5768C71.9492 19.9742 65.9474 21.609 65.9474 22.8531C65.9474 24.3348 54.6219 23.2359 52.0351 21.5036C50.1324 20.2298 48.4166 19.9235 45.7597 20.3799C41.3092 21.1466 40.298 21.1456 35.1 20.3759C29.174 19.4988 25.5838 23.1673 26.4421 29.2224C26.7682 31.5176 27.0047 34.1787 26.9687 35.1353C26.8694 37.7537 26.8889 45.5889 26.9998 47.5658C27.0533 48.5224 26.8061 50.7967 26.449 52.6185C26.0606 54.6034 26.2796 56.8459 26.9959 58.2122C27.8825 59.9067 27.9146 61.0205 27.1176 62.541C24.5006 67.538 26.5385 72.368 32.6143 75.5691C33.8192 76.2035 34.8041 77.3093 34.8041 78.0253C34.8041 79.6453 37.9272 82.6196 39.6274 82.6196C40.553 82.6196 40.769 81.3249 40.4371 77.7877C40.1423 74.6532 40.4401 72.3153 41.2858 71.1339C42.8507 68.9481 42.9695 65.3145 41.5651 62.6325C40.8284 61.2263 40.8838 59.7078 41.7607 57.2287C42.7155 54.5308 42.7291 53.069 41.8211 50.5043C40.9208 47.9596 40.9247 46.5157 41.8396 44.0405C42.7271 41.636 42.7476 40.1244 41.9194 37.884C40.8819 35.0747 40.9286 34.9733 42.7914 35.9916C43.8736 36.5832 46.1334 36.8338 47.8113 36.5474C49.819 36.2044 52.2161 36.7334 54.8243 38.0948C59.1309 40.3442 62.6948 40.0568 65.452 37.2396C66.7435 35.92 67.4928 35.8285 69.4695 36.7483C70.8047 37.3708 72.9682 37.6045 74.2752 37.2694C76.2509 36.7632 76.6528 37.0258 76.6528 38.8217C76.6528 40.0111 77.1317 41.8975 77.7166 43.0143C78.4854 44.483 78.4854 45.3452 77.7166 46.1308C76.2772 47.6016 76.3657 54.0843 77.845 55.5959C78.7862 56.5575 78.7862 57.2257 77.845 58.7641C76.4095 61.113 76.2655 67.3411 77.6261 68.2003C79.7905 69.5677 78.3326 70.3543 73.4899 70.4328C70.6792 70.4786 67.5045 70.5581 66.434 70.6098C65.3634 70.6606 62.6501 70.4308 60.4039 70.0977C56.8594 69.5726 55.9805 69.8411 53.7382 72.1333C51.4784 74.4414 51.2341 75.2956 51.7879 78.9442C52.1363 81.2394 52.3903 85.0838 52.3523 87.4874C52.3105 90.1316 52.9635 92.8812 54.0059 94.4484C54.9528 95.8735 55.9474 98.6052 56.2151 100.519C56.6472 103.613 57.0258 104 59.6214 104C62.2384 104 62.5741 103.645 62.8603 100.578C63.0355 98.6967 64.0204 96.0624 65.05 94.7259C67.1843 91.9534 67.4967 87.6296 65.704 85.6556C64.7026 84.5528 64.832 84.4564 66.434 85.1107C70.4816 86.7644 74.7317 86.8092 77.1015 85.2221C78.8066 84.0815 80.1312 83.8806 81.7662 84.516C87.7291 86.8321 93.8342 81.9156 92.751 75.6695C92.4181 73.7493 92.1777 71.1707 92.2177 69.9406C92.2585 68.7105 92.2906 65.9131 92.2906 63.7254C92.2906 61.5376 92.2906 58.6289 92.2906 57.2615C92.2906 55.8942 92.2906 52.9855 92.2906 50.7977C92.2906 48.6099 92.2906 45.7012 92.2906 44.3339C92.2906 42.9665 92.2906 40.0578 92.2906 37.87C92.2906 35.6823 92.2585 32.8859 92.2177 31.6548C92.1777 30.4237 92.4269 27.7646 92.7714 25.7449C93.2989 22.6512 93.006 21.6727 90.9087 19.5297C87.7836 16.3375 82.8289 16.1446 79.1832 19.0752ZM88.7491 21.5325C90.8629 23.6934 90.6605 26.8835 88.244 29.5128L86.2099 31.7244L88.244 33.8028C90.8113 36.4261 90.8386 39.6183 88.316 42.3619L86.3549 44.495L88.316 46.3088C89.3953 47.3062 90.278 49.2553 90.278 50.6396C90.278 52.0228 89.3953 54.1161 88.316 55.2896L86.3549 57.4226L88.316 59.2365C89.3953 60.2339 90.278 62.2536 90.278 63.7254C90.278 65.1971 89.3953 67.2168 88.316 68.2142L86.3549 70.0281L88.3909 72.2427C91.1744 75.2698 90.604 79.6065 87.1656 81.5705C84.7365 82.9567 84.3248 82.908 81.6912 80.9182L78.8436 78.7672L76.7813 81.1906C74.2266 84.1928 70.5478 84.3072 67.9561 81.4641L65.996 79.3151L63.3965 81.9713C60.9625 84.4583 60.8992 84.7437 62.399 86.4373C64.4427 88.7454 64.434 90.9848 62.3717 93.092C61.4754 94.0079 60.4428 96.3896 60.0768 98.3844L59.4121 102.011L58.6715 97.8464C58.2647 95.5552 57.3265 93.4441 56.5869 93.1537C54.7387 92.4287 54.8964 88.635 56.8671 86.4104C58.3941 84.6871 58.364 84.4524 56.3805 82.5639C55.2195 81.4581 54.2686 79.4842 54.2686 78.1765C54.2686 73.0034 60.3143 70.8495 63.8744 74.7546L65.7702 76.834L67.8052 74.7546C70.2276 72.2795 73.4538 72.0886 76.4631 74.2425C78.5137 75.7103 78.7745 75.6626 80.5409 73.4967C82.8328 70.6864 82.9486 69.328 81.0324 67.7031C80.2294 67.0219 79.5725 65.2319 79.5725 63.7254C79.5725 62.2188 80.2294 60.4288 81.0324 59.7476C81.8353 59.0664 82.4922 57.9477 82.4922 57.2615C82.4922 56.5754 81.8353 55.4566 81.0324 54.7754C80.2294 54.0943 79.5725 52.3043 79.5725 50.7977C79.5725 49.2911 80.2294 47.5012 81.0324 46.82C81.8353 46.1388 82.4922 45.1573 82.4922 44.6382C82.4922 44.1191 81.8353 43.0232 81.0324 42.2028C80.2294 41.3824 79.5725 39.4552 79.5725 37.9208C79.5725 36.3863 80.2294 34.5735 81.0324 33.8923C83.0294 32.1988 82.863 30.6296 80.5292 29.1399C78.792 28.0311 78.4572 28.1773 77.629 30.4048C77.1132 31.7891 75.5842 33.4378 74.2295 34.0683C72.1264 35.0478 71.4402 34.9007 69.5249 33.0619C67.0675 30.7031 64.9741 30.2487 64.9741 32.0735C64.9741 34.1141 61.8316 36.8756 59.5085 36.8756C57.2749 36.8756 56.3864 36.1765 53.8365 32.4136C52.5616 30.5321 52.4088 30.5202 50.6307 32.165C48.1266 34.48 44.9782 34.3438 42.5023 31.8139L40.4683 29.7356L38.1588 31.9532L35.8494 34.1697L37.7598 36.6509C40.2006 39.8221 40.1841 42.6523 37.7082 45.3452L35.7472 47.4783L37.7082 49.2921C40.2172 51.6121 40.2172 55.5441 37.7082 58.2729L35.7472 60.4059L37.7082 62.2198C40.1578 64.4841 40.223 68.1635 37.8678 71.2224C36.1024 73.5156 35.9992 73.5295 32.7584 71.8758C28.6202 69.7646 27.7949 65.6227 30.8518 62.2983L32.8878 60.0837L30.9268 58.2699C28.6183 56.1358 28.3477 51.5644 30.4246 49.8033C32.2834 48.2271 32.2834 46.4073 30.4246 44.8311C28.5424 43.235 28.5424 38.4717 30.4246 36.8756C32.2689 35.3124 32.2689 34.1429 30.4246 32.2584C28.7234 30.5202 28.5443 27.6025 29.972 24.8767C31.1954 22.5418 35.9603 22.2882 38.0712 24.4452C38.8741 25.2656 39.9466 25.9368 40.4547 25.9368C40.9627 25.9368 41.9233 25.2656 42.5899 24.4452C43.8571 22.8849 48.149 22.4603 49.9864 23.7143C50.5752 24.116 51.5962 25.4893 52.2541 26.7652C53.3557 28.9012 53.5854 28.9609 55.1523 27.511C57.1406 25.6723 61.3274 25.4555 63.8432 27.0615C65.2904 27.9844 66.0622 27.7179 68.1644 25.5699C71.12 22.5498 72.4621 22.3539 75.4645 24.5028C77.7214 26.1178 79.5725 25.7071 79.5725 23.5909C79.5725 20.0657 85.9199 18.6426 88.7491 21.5325Z" fill="#828285"/>
</svg>
