<svg width="120" height="120" viewBox="0 0 120 120" fill="none" xmlns="http://www.w3.org/2000/svg">
<path fill-rule="evenodd" clip-rule="evenodd" d="M62.8219 17.2808C62.0437 18.2074 61.9799 19.5069 62.6019 21.7366C63.5169 25.0135 63.0724 29.6795 61.845 29.6795C60.8801 29.6795 60.0242 26.2518 60.0095 22.3233C59.9937 18.3308 58.6397 16.886 54.9132 16.886C51.4853 16.886 49.83 18.3061 49.83 21.2477V23.4153L47.3946 21.5218C44.2966 19.1112 41.1117 19.1094 38.6773 21.5164C37.2235 22.9538 37.0137 23.6986 37.7974 24.6325C38.6135 25.6048 38.1948 25.9941 35.7798 26.5049C31.3657 27.4379 30.5718 28.3609 31.2668 31.7493C31.825 34.4661 32.1938 34.7284 35.8353 34.9897C38.8741 35.2081 39.5738 35.5389 38.8399 36.4125C38.3141 37.0394 37.2641 39.9051 36.5063 42.7809C35.7493 45.6567 34.1735 49.3339 33.0062 50.9532C31.1503 53.5256 30.9017 54.8863 31.0274 61.771C31.1642 69.2415 31.7252 71.2674 35.0497 76.2843C35.5497 77.0382 36.8565 80.1223 37.9545 83.138C40.5045 90.1387 52.1877 102.494 57.2756 103.571C62.7526 104.73 65.6565 103.627 68.7397 99.2157C70.285 97.0042 73.2528 93.5098 75.3351 91.451C77.4164 89.3921 79.6392 86.7366 80.2741 85.5495C82.4941 81.4008 84.9507 70.7776 84.9507 65.3303C84.9507 61.3479 85.2918 59.8356 86.1883 59.8356C89.5026 59.8356 90.0849 47.9449 86.8676 45.9583C85.814 45.3076 85.4535 44.0968 85.6985 42.0225C86.2327 37.5027 84.5653 35.1624 80.812 35.1624C79.08 35.1624 76.189 34.3025 74.3877 33.2516C70.8331 31.1782 70.8877 30.3548 74.9219 25.2155C75.8628 24.0166 76.6327 22.475 76.6327 21.7887C76.6327 19.6741 73.0032 16.7416 71.1178 17.3338C70.1695 17.6308 69.127 17.4462 68.7998 16.9235C67.931 15.5327 64.0964 15.762 62.8219 17.2808ZM56.2996 23.7936C56.2996 27.4681 54.8569 27.9049 53.3716 24.6809C52.5768 22.9574 52.6064 22.0948 53.4955 21.0357C55.1665 19.0445 56.2996 20.1593 56.2996 23.7936ZM71.6363 23.5112C70.7971 24.6425 69.493 26.9033 68.7379 28.5372C67.3802 31.4752 64.8228 32.8514 65.9051 30.0615C66.2138 29.2665 66.4661 27.2232 66.4661 25.5216C66.4661 23.2453 66.8081 22.5563 67.7591 22.9172C68.4699 23.1868 69.3266 22.9684 69.6621 22.4311C69.9976 21.8947 70.9218 21.4551 71.7167 21.4551C73.0023 21.4551 72.994 21.6808 71.6363 23.5112ZM45.3669 24.7951C47.0979 26.3441 47.6016 27.8747 46.3641 27.8235C45.4639 27.7861 42.1404 23.2828 43.0138 23.2828C43.3779 23.2828 44.4371 23.9636 45.3669 24.7951ZM41.5119 30.5933C42.5276 31.2421 41.8465 31.4825 38.9703 31.4934C36.8103 31.5007 35.0423 31.0959 35.0423 30.5933C35.0423 29.4273 39.6875 29.4273 41.5119 30.5933ZM50.2061 33.5632C50.1322 35.6988 49.3521 39.0727 48.4732 41.0593C47.1978 43.9433 47.0027 46.0177 47.5065 51.3352C48.0564 57.1297 47.8909 58.3935 46.243 61.0299C45.2005 62.6976 43.2263 64.6532 41.8548 65.376C40.4841 66.098 38.644 67.8543 37.766 69.278C35.6495 72.7131 34.973 71.4072 34.3713 62.726C33.9092 56.0606 34.0173 55.5251 36.388 52.7397C37.7651 51.1214 40.2096 49.4591 41.8197 49.047C45.438 48.1195 45.6839 45.7783 42.2051 45.3826C40.8067 45.2236 39.6634 44.5839 39.6634 43.9625C39.6634 41.2951 44.6192 33.3037 47.3429 31.5784C48.9649 30.5504 50.3032 29.7033 50.3161 29.695C50.33 29.6868 50.2801 31.4276 50.2061 33.5632ZM54.5546 34.5118C53.8005 35.2575 53.5269 35.1551 53.5269 34.1271C53.5269 32.3104 54.77 31.0813 55.2293 32.4438C55.4243 33.0213 55.1203 33.9525 54.5546 34.5118ZM71.7315 35.7436C71.408 36.0634 69.1695 37.6051 66.7563 39.1704C62.2941 42.0654 60.5002 44.5483 59.5418 49.1585C59.1601 50.9916 58.0852 52.1119 55.8042 53.0541C52.342 54.4851 51.8272 56.2378 53.6849 60.2714C54.9391 62.9928 57.7756 63.9349 62.2276 63.1089C65.2887 62.5414 65.3866 62.6172 65.968 66.0194C67.1519 72.9489 62.8626 78.0909 57.453 76.2267C53.2857 74.7902 48.5314 75.4491 48.1349 77.518C47.8567 78.9673 48.2172 79.1199 50.6682 78.5871C54.0241 77.8588 54.3023 78.5689 51.5315 80.7876C50.4085 81.6868 49.8263 82.8492 50.1997 83.4468C50.9825 84.6988 53.5269 84.8779 53.5269 83.6808C53.5269 83.2257 55.3929 82.2241 57.673 81.4556L61.8191 80.0593L60.4254 83.4258C59.6592 85.2781 58.209 87.3571 57.2035 88.047C54.6415 89.8043 54.8051 92.1409 57.4549 91.6374C59.3662 91.2746 59.5344 91.5807 59.5344 95.4151C59.5344 98.5139 59.8911 99.5867 60.9207 99.5867C61.7387 99.5867 62.3764 98.65 62.4753 97.3022C63.003 90.1278 64.0049 84.5553 65.321 81.4675L66.8118 77.9694L68.4671 80.0968C69.3775 81.2664 70.1316 83.5263 70.1427 85.1182C70.1538 86.7092 70.6279 88.1649 71.1954 88.3522C72.3535 88.7333 65.3534 99.1069 63.0927 100.358C60.1324 101.996 56.2349 100.067 49.7505 93.7565C42.8807 87.0719 39.6634 81.0846 39.6634 74.9885C39.6634 72.3732 40.4093 71.2683 44.4121 67.9539C50.7403 62.7159 51.8753 59.8246 51.1193 50.8646C50.561 44.2421 50.6692 43.5924 52.7163 41.3197C55.5168 38.2109 62.9753 35.2766 68.2379 35.2127C70.4828 35.1853 72.055 35.4238 71.7315 35.7436ZM77.7944 41.3965C77.4728 43.4864 76.6586 44.6835 75.1798 45.2391C72.6982 46.1721 70.8174 48.8405 69.2971 53.5869C68.7074 55.4264 67.7259 57.137 67.1149 57.3874C66.504 57.6369 64.4689 58.4913 62.5936 59.2854C59.5039 60.5922 59.0473 60.594 57.7414 59.3028C55.9188 57.5007 55.8948 56.1803 57.6859 56.1803C60.0418 56.1803 62.4596 52.9819 63.101 49.0141C63.614 45.8404 64.3496 44.8252 67.6316 42.7627C70.9505 40.6764 77.7445 37.7357 78.1401 38.2146C78.2076 38.295 78.0514 39.7269 77.7944 41.3965ZM82.2908 42.176C81.4858 43.5458 81.3047 43.5851 81.2816 42.3971C81.252 40.8583 82.2243 39.472 82.8786 40.1199C83.0949 40.3337 82.8306 41.2585 82.2908 42.176ZM79.5625 53.447C80.4377 55.7042 81.1762 58.887 81.2039 60.5209C81.2492 63.2121 80.9978 63.4908 78.5273 63.4908C76.9709 63.4908 75.4395 62.853 74.9598 62.0059C74.4977 61.1889 73.0041 60.5209 71.64 60.5209C69.3617 60.5209 69.2767 60.3948 70.59 58.9601C71.3756 58.102 72.6871 55.4593 73.5041 53.087C75.3729 47.6644 77.3684 47.7832 79.5625 53.447ZM78.4303 67.1461C82.5376 67.1461 82.5108 66.4224 78.8517 78.6995C77.6161 82.8446 76.019 86.3738 75.2472 86.6662C73.3091 87.4018 73.4505 84.5498 75.4219 83.1233C76.8305 82.1062 76.7066 81.8522 74.1687 80.5546C72.0651 79.479 71.0975 78.1202 70.3451 75.1868C68.2055 66.8427 69.6982 61.6723 73.1788 65.366C74.2824 66.5375 76.0781 67.1461 78.4303 67.1461Z" fill="#D87058"/>
</svg>
