<svg width="131" height="90" viewBox="0 0 131 90" fill="none" xmlns="http://www.w3.org/2000/svg">
<path d="M87.4763 14.7336C88.0674 14.6434 88.4654 15.0395 88.8713 15.3414C95.2396 20.0944 101.178 25.2866 106.329 31.3729C112.48 38.6397 114.017 47.1927 113.659 56.2986C113.552 58.9653 113.245 61.6359 112.859 64.2791C112.689 65.4281 113.328 65.9693 113.966 66.5967C118.774 71.334 123.294 76.3262 127.4 81.6792C128.472 83.0792 129.437 84.5616 130.418 86.0243C130.907 86.7498 131.175 87.5381 130.872 88.4361C130.635 89.142 130.344 89.793 129.524 89.9655C128.661 90.1459 128.192 89.5891 127.782 88.9695C126.56 87.1145 125.386 85.2243 124.113 83.4047C121.307 79.3772 118.155 75.6164 114.908 71.934C113.954 70.8556 112.981 70.6007 111.617 70.9066C105.009 72.3968 98.8374 74.9301 93.3835 78.9184C86.6763 83.8243 79.3151 84.0439 71.5952 82.491C70.2632 82.2243 70.3459 81.7263 71.1893 80.8674C75.6541 76.2988 80.5209 72.2674 86.2192 69.2869C93.2849 65.5928 100.623 65.9654 108.071 67.7811C109.083 68.0281 110.057 68.4752 111.133 68.4281C111.223 68.4987 111.259 68.7732 111.436 68.5026C111.341 68.4713 111.243 68.4399 111.148 68.4124C110.368 66.6869 108.796 65.6477 107.499 64.3928C105.241 62.2085 102.798 60.2202 100.5 58.0751C99.4561 57.0986 98.4394 56.9771 97.1035 57.4006C88.9698 59.9732 81.5061 63.8869 75.4137 69.7771C67.9264 77.0086 59.0124 78.8557 49.1409 78.1537C48.4197 78.1027 46.7843 78.3184 47.9626 76.7223C53.5545 69.1223 59.8676 62.2673 68.3598 57.7614C74.1251 54.7025 80.3593 54.2202 86.7354 54.5496C90.1875 54.73 93.5963 55.2555 97.0326 55.8633C97.0286 55.1064 96.5518 54.9182 96.205 54.6476C92.2801 51.577 88.2053 48.7142 84.0203 46.0083C82.9248 45.2985 81.9238 45.1887 80.6864 45.5221C72.1902 47.7927 64.494 51.6437 57.6883 57.1614C50.0945 63.3183 41.2831 64.1928 32.0184 63.3653C30.9623 63.2712 30.9505 62.8594 31.5337 62.1536C42.1737 49.2515 54.8313 40.6828 72.6434 43.1103C75.0945 43.4436 77.5536 43.726 80.0717 44.0397C79.8589 43.1691 79.1141 43.0515 78.586 42.7456C73.5261 39.8279 68.2928 37.2553 62.9374 34.9181C61.8182 34.4279 60.904 34.4043 59.7966 34.9808C53.6924 38.1612 47.5173 41.2122 41.4289 44.4201C34.4893 48.075 26.9822 49.424 19.2899 50.0986C19.1204 50.1143 18.9391 49.9966 18.6121 49.8946C19.7628 47.9613 21.4139 46.5809 22.8759 45.0475C25.863 41.9103 29.1417 39.1102 32.6174 36.5141C38.6034 32.0435 45.3854 31.0357 52.5969 31.7023C53.1447 31.7533 53.6964 32.071 54.3387 31.7023C47.7498 28.6592 41.1452 27.1494 33.7878 28.4906C27.3053 29.671 20.7204 30.7965 14.0408 30.3808C9.26466 30.0827 4.59883 29.1768 0 27.9062C0.0945775 27.0553 0.705389 26.9847 1.13099 26.7572C5.52884 24.3925 10.1001 22.4474 14.8408 20.8474C21.8671 18.4787 28.8698 18.6199 35.2538 22.2278C41.9018 25.9847 49.0384 28.1376 56.2342 30.3063C57.7238 30.7572 59.1819 31.3141 60.904 31.5063C60.1671 30.8435 59.4301 30.1847 58.6972 29.518C53.3732 24.667 47.5055 20.416 42.5126 15.212C38.493 11.0238 35.6124 6.01979 32.9603 0.890342C32.8499 0.678576 32.846 0.407986 32.7948 0.176611C32.98 0.0942579 33.1139 -0.023388 33.2006 0.00406316C40.4043 2.36487 47.2966 5.37273 53.3772 9.97276C58.9848 14.2159 61.369 20.3219 63.0359 26.816C63.296 27.8278 63.6585 28.8592 63.6507 29.8788C63.631 32.5847 65.0772 33.8043 67.485 34.7494C73.4749 37.0985 79.0156 40.3848 84.706 43.3573C84.8006 43.4279 84.9582 43.577 84.9818 43.5573C85.2301 43.3691 85.0015 43.2632 84.8833 43.1416C80.7968 37.6985 76.3477 32.5455 71.9695 27.3415C66.8111 21.2081 64.0408 13.9414 61.4084 6.24333C61.9995 6.39235 62.2556 6.40803 62.4566 6.51784C69.0692 10.1963 75.4019 14.2551 80.6195 19.8199C85.1513 24.6513 86.7394 30.667 87.4487 36.9926C87.7088 39.322 87.7364 41.6828 87.8152 44.0319C87.8428 44.8632 87.9807 45.5221 88.7649 46.0162C95.2198 50.075 101.162 54.8006 106.865 59.8398C107.101 60.0477 107.385 60.2006 107.696 60.4085C107.98 59.6398 107.46 59.2163 107.176 58.7575C103.551 52.926 99.8541 47.1378 96.2681 41.2828C91.2633 33.1141 88.7649 24.1062 87.4999 14.7061L87.4763 14.7336Z" fill="#E86851"/>
</svg>
