<svg width="120" height="120" viewBox="0 0 120 120" fill="none" xmlns="http://www.w3.org/2000/svg">
<path fill-rule="evenodd" clip-rule="evenodd" d="M55.8329 22.0316C47.0841 24.4027 40.251 30.075 37.4075 37.3266C33.1528 48.1773 27 65.6209 27 66.8327C27 67.9439 27.5634 68.2079 29.9383 68.2079H32.8766V73.2037C32.8766 75.9511 33.1984 79.327 33.5914 80.7066C35.408 87.0835 41.5204 91.8671 47.851 91.8671H51.2411V95.9336C51.2411 99.4706 51.4276 100 52.672 100C53.8797 100 54.1375 99.396 54.3248 96.1184L54.5467 92.2368L60.7906 91.8671C65.688 91.5773 67.0345 91.2579 67.0345 90.3884C67.0345 89.4665 65.1165 89.2173 55.6485 88.9097C43.6903 88.5216 42.6876 88.2613 39.2858 84.6621C37.0365 82.2822 35.8267 76.9921 35.8193 69.5017L35.8149 65.2505H33.2439C31.8298 65.2505 30.6729 65.1351 30.6729 64.9946C30.6729 64.8542 31.633 62.1089 32.8054 58.895C33.9785 55.681 36.1235 49.8017 37.5713 45.8306C41.0943 36.1695 42.5855 33.3799 45.6987 30.6296C49.1938 27.5405 51.767 26.2689 57.0178 25.0364C75.1618 20.7762 91.8764 35.3962 89.8336 53.7402C89.5588 56.2074 88.6964 59.6831 87.9178 61.4628C86.6477 64.364 86.5008 66.5288 86.5008 82.3494C86.5008 99.5069 86.5419 100 87.9699 100C89.3972 100 89.4391 99.5069 89.4391 82.7191C89.4391 66.7624 89.5573 65.1691 90.9839 61.9226C93.1773 56.9327 93.6563 48.2905 92.0483 42.7239C87.4969 26.9661 71.4522 17.7981 55.8329 22.0316ZM58.5868 26.7509C54.0104 27.2818 51.6282 28.3908 50.4969 30.5194C50.0687 31.3238 48.6296 32.4402 47.2978 32.9999C43.9217 34.4202 41.9215 37.283 40.9232 42.1257C39.4393 49.3196 40.9166 53.2515 45.9007 55.3749C47.206 55.9309 48.7927 57.1826 49.4259 58.1556C50.4631 59.7489 52.8439 61.1374 55.5251 61.7134C57.6899 62.1777 62.9693 68.4896 64.127 71.9978C64.9997 74.6424 65.6909 75.6014 66.7259 75.6014C67.5017 75.6014 68.1363 75.1467 68.1363 74.5907C68.1363 72.0909 64.664 65.3784 62.1194 62.9614C60.5805 61.499 59.3214 59.9182 59.3214 59.4495C59.3214 58.9756 58.232 58.5963 56.8709 58.5963C54.9411 58.5963 53.8598 57.9678 51.7824 55.6389C50.3316 54.0123 48.4835 52.6815 47.6754 52.6815C45.3799 52.6815 42.9616 49.0756 43.467 46.4081C43.6999 45.1822 44.1017 42.9198 44.3603 41.3805C44.8642 38.3787 47.4918 35.6764 49.9049 35.6764C50.6938 35.6764 51.8581 34.71 52.5611 33.4738C53.9377 31.051 56.3104 29.8488 59.6887 29.8628C60.9007 29.868 62.8841 29.6558 64.0962 29.3911C65.7783 29.0237 66.9595 29.3601 69.0869 30.8144C70.6199 31.8621 72.3771 32.719 72.9919 32.719C75.0898 32.719 77.0747 34.3145 78.1251 36.8445C78.7025 38.2353 79.4922 39.3731 79.8808 39.3731C80.9422 39.3731 83.002 43.7982 82.6215 45.2621C82.4393 45.9659 82.7295 47.3411 83.2672 48.3178C85.2344 51.8904 84.5776 54.7842 80.9914 58.3427C79.1734 60.1467 77.6858 61.9396 77.6858 62.3278C77.6858 63.9514 74.644 65.9898 72.2198 65.9898C70.8293 65.9898 69.5071 66.2915 69.2801 66.6604C69.0538 67.0293 69.582 69.206 70.4532 71.498C71.5778 74.4554 72.3778 75.5962 73.2086 75.4254C74.3891 75.1837 74.5492 73.56 73.667 70.7749C73.2806 69.5542 73.6648 69.104 75.7363 68.3498C77.1356 67.8404 78.8487 66.5184 79.5429 65.4131C80.2363 64.307 82.0514 62.225 83.5749 60.7862C86.9129 57.6344 88.1279 53.9095 87.1105 49.9451C86.7145 48.4006 86.1482 45.8055 85.8521 44.1789C85.2924 41.0995 83.1335 37.1551 82.0088 37.1551C81.6511 37.1551 81.3587 36.6819 81.3587 36.103C81.3587 34.3263 77.7725 30.6443 75.2147 29.7948C73.8815 29.352 71.5088 28.3316 69.9412 27.5272C67.0235 26.03 65.6248 25.9347 58.5868 26.7509ZM63.3373 34.9762C63.0744 35.405 63.0876 37.734 63.366 40.1517C63.8471 44.3231 64.5435 45.4735 65.5727 43.7974C65.8268 43.3841 66.3565 43.2459 66.7495 43.4906C67.6941 44.0784 72.5438 40.3276 72.5438 39.0094C72.5438 36.6819 70.722 37.0006 68.3699 39.7391L65.9326 42.5767V38.3876C65.9326 35.232 65.6711 34.1977 64.8741 34.1977C64.2916 34.1977 63.6003 34.5481 63.3373 34.9762ZM56.3831 38.5961C56.3831 39.8581 60.4725 43.8092 61.7778 43.8092C62.8679 43.8092 62.1385 41.5594 60.3579 39.4301C58.1975 36.8453 56.3831 36.4645 56.3831 38.5961ZM52.8461 45.8425C53.0312 46.8228 54.0398 47.2258 57.0134 47.506L60.936 47.8757L58.6596 49.5614C56.3706 51.256 55.755 52.9432 57.1162 53.7898C58.2761 54.5114 63.0655 48.8531 62.1914 47.7929C61.6985 47.1955 61.7529 46.8132 62.3589 46.6099C62.8518 46.445 63.0112 45.9134 62.7137 45.4292C62.3853 44.8939 60.2969 44.5486 57.388 44.5486C53.2274 44.5486 52.6345 44.7172 52.8461 45.8425ZM66.2492 45.3708C65.9715 45.8225 66.1522 46.4465 66.6518 46.757C67.8469 47.5001 66.4446 48.3969 64.9747 47.8291C64.1153 47.4971 63.7759 48.3503 63.3719 51.8534C62.829 56.5586 63.1544 57.8569 64.8741 57.8569C65.6814 57.8569 65.9355 56.7612 65.9436 53.236L65.9546 48.615L68.3876 51.5103C69.8516 53.2508 71.165 54.1912 71.6829 53.8696C73.1675 52.9454 72.6312 51.3787 70.1564 49.4165L67.769 47.5223L71.9929 47.5141C75.7245 47.5067 76.2167 47.3337 76.2167 46.0273C76.2167 44.7016 75.7267 44.5486 71.4853 44.5486C68.8063 44.5486 66.535 44.905 66.2492 45.3708Z" fill="#828285"/>
</svg>
