<svg width="120" height="120" viewBox="0 0 120 120" fill="none" xmlns="http://www.w3.org/2000/svg">
<path fill-rule="evenodd" clip-rule="evenodd" d="M53.0423 19.34C41.704 21.1247 35.5938 28.8059 36.2038 40.5068C36.3412 43.1365 35.9888 46.1235 35.4214 47.1485C33.778 50.1176 34.2072 52.4822 36.8737 55.1469C39.2458 57.5166 40.9583 62.8554 40.471 66.3575C40.2142 68.2002 41.8337 71.2938 43.0556 71.2938C44.9098 71.2938 51.3946 76.022 51.4245 77.3958C51.4484 78.4429 50.3972 78.9537 47.3604 79.3715C38.8712 80.538 32.5254 86.3151 30.8231 94.4269C29.1149 102.564 26.9066 101.991 59.9623 101.991H89V97.8949C89 88.6958 81.958 80.6548 72.7998 79.3962C70.5173 79.0824 68.4515 78.3107 68.2092 77.6806C67.9583 77.0257 69.1179 75.519 70.9192 74.1623C72.6505 72.8576 74.5686 71.1983 75.1813 70.476C77.288 67.9895 79.5765 62.3352 79.5952 59.569C79.6055 58.0444 79.998 56.7977 80.4673 56.7977C82.3769 56.7977 84.7336 53.2923 84.7336 50.4527C84.7336 48.8386 84.4231 47.3267 84.0434 47.0922C83.6636 46.8577 83.4042 43.805 83.4665 40.3089C83.551 35.6122 83.9538 33.5794 85.0101 32.5237C86.6919 30.843 86.895 26.1693 85.3736 24.1766C82.9938 21.0608 72.8612 18.5333 70.205 20.3922C68.6529 21.4786 67.9353 21.511 65.6681 20.5952C61.8233 19.0415 57.6039 18.622 53.0423 19.34ZM60.3523 22.6673C59.8949 23.1243 57.9947 24.0214 56.1286 24.6609C52.0516 26.0585 50.1736 29.124 51.4066 32.3651C52.6984 35.7606 55.1601 36.5877 62.0204 35.9311C65.3618 35.6105 70.7827 35.2831 74.0678 35.2012L80.0407 35.0537L80.2983 39.5304C80.4553 42.2582 80.2053 44.0071 79.6584 44.0071C79.1652 44.0071 78.7607 43.684 78.7607 43.2891C78.7607 42.8943 77.3153 42.1388 75.549 41.6102C73.7819 41.0806 71.0659 39.7112 69.513 38.566L66.6887 36.4845L63.1254 38.0467C59.2029 39.7666 47.7972 42.3017 43.9831 42.3017C42.6495 42.3017 41.1366 42.7229 40.6204 43.2388C39.0563 44.8019 38.3839 39.3189 39.5461 34.4781C40.8217 29.1649 45.4516 24.1646 50.2785 22.8881C54.6917 21.7216 61.447 21.5732 60.3523 22.6673ZM75.8246 23.0885C76.7351 23.7775 78.2189 24.3531 79.12 24.3676C81.0441 24.4 83.8804 26.7449 83.8804 28.3037C83.8804 30.8166 81.2216 32.0692 75.927 32.0505C70.8262 32.0325 70.6129 31.943 69.3748 29.2792C68.1298 26.6017 68.1648 26.4627 70.6547 24.2064C73.6676 21.476 73.6855 21.4718 75.8246 23.0885ZM65.1084 23.5421C65.8124 23.9966 66.0043 24.3684 65.535 24.3684C65.0657 24.3684 64.1058 23.9966 63.4019 23.5421C62.6979 23.0876 62.5059 22.7159 62.9752 22.7159C63.4445 22.7159 64.4045 23.0876 65.1084 23.5421ZM63.0614 27.2949C63.3131 27.9523 64.2944 28.6925 65.2415 28.9406C66.3431 29.228 66.8559 29.9494 66.6639 30.9428C66.4088 32.2679 65.4907 32.4956 60.4035 32.4956C54.614 32.4956 54.4425 32.4342 54.4425 30.3638C54.4425 28.7343 54.9451 28.1647 56.5757 27.9464C57.7489 27.7895 59.0741 27.3103 59.5195 26.8805C60.7226 25.7225 62.5384 25.9348 63.0614 27.2949ZM71.1274 42.9412C76.0431 45.2794 76.0576 45.299 76.6643 49.8473C79.0364 67.6476 66.7322 79.4678 52.5346 73.0273C49.1932 71.5121 48.9594 71.1923 49.4364 68.8064C49.7529 67.2281 49.3869 64.8064 48.4952 62.5765C46.4695 57.5089 45.56 56.5257 44.0514 57.7758C43.0283 58.6251 42.8841 57.7613 43.0983 52.0311L43.35 45.2862L48.9125 44.6722C51.9714 44.3346 56.7711 43.3173 59.5784 42.4126C66.2014 40.2765 65.4557 40.2424 71.1274 42.9412ZM39.6732 50.3956C39.4821 52.0337 38.9829 53.1618 38.5648 52.9034C37.6783 52.356 37.5401 48.8181 38.3729 47.9867C39.5905 46.769 40.0069 47.5399 39.6732 50.3956ZM81.2873 49.062C82.2148 50.793 81.6678 53.3869 80.376 53.3869C79.957 53.3869 79.614 52.0439 79.614 50.4024C79.614 47.0189 80.0193 46.694 81.2873 49.062ZM48.2316 49.8985C48.6104 51.8631 55.1652 51.8094 55.5449 49.8396C55.7685 48.6791 55.1089 48.4344 51.8938 48.483C48.7845 48.5299 48.0242 48.8232 48.2316 49.8985ZM63.4019 49.0509C63.4019 50.341 65.5751 51.6815 67.6682 51.6815C69.7613 51.6815 71.9346 50.341 71.9346 49.0509C71.9346 48.7303 70.0147 48.4676 67.6682 48.4676C65.3217 48.4676 63.4019 48.7303 63.4019 49.0509ZM46.5796 67.6271C46.3458 68.2368 45.6188 68.7357 44.9652 68.7357C43.7092 68.7357 43.402 66.441 44.333 64.0151C44.8176 62.7539 45.0258 62.8221 45.9473 64.542C46.5293 65.6292 46.8134 67.0166 46.5796 67.6271ZM54.8691 64.733C53.2266 65.2933 51.9783 66.1161 52.0952 66.563C52.4245 67.8216 67.6682 67.6962 67.6682 66.435C67.6682 65.3581 62.5025 63.5972 59.5621 63.6723C58.6235 63.6962 56.5117 64.1737 54.8691 64.733ZM65.1084 80.457C65.1084 84.3991 63.0665 86.6425 59.4785 86.6425C56.1158 86.6425 54.0159 84.1475 54.0159 80.1534V77.4546L59.5621 77.4222L65.1084 77.3906V80.457Z" fill="#828285"/>
</svg>
