<svg width="120" height="120" viewBox="0 0 120 120" fill="none" xmlns="http://www.w3.org/2000/svg">
<path fill-rule="evenodd" clip-rule="evenodd" d="M20.284 22.6362C20.2919 23.5736 20.9874 26.8953 21.8314 30.0186C25.5516 43.797 25.5241 59.8612 21.7567 73.3125C20.7343 76.9651 20.3524 79.6167 20.7885 80.0369C21.2247 80.4572 23.4487 80.4011 26.4302 79.8953C29.1375 79.4357 31.455 79.1844 31.5792 79.3365C31.7041 79.4887 31.646 81.094 31.4495 82.9036C31.1124 86.0148 30.9811 86.1678 29.022 85.7279C23.8251 84.5603 21.165 84.4263 19.5657 85.2508C17.9964 86.0603 17.8683 86.6319 18.0773 91.9004C18.2219 95.5515 18.6534 97.7753 19.253 97.9661C19.9202 98.1789 20.2683 96.6335 20.4318 92.7264L20.6636 87.1854L24.3681 87.3058C26.4059 87.3717 29.1076 87.9237 30.3721 88.5309C32.4688 89.5387 32.7831 89.5115 33.9289 88.222C35.3309 86.6448 38.1592 86.4237 42.2802 87.5708C44.1977 88.1046 46.2559 88.0713 49.1054 87.4603C52.2732 86.7811 53.9746 86.7985 56.7125 87.5368C59.5479 88.3015 60.9994 88.3008 64.1153 87.5315C67.1338 86.7856 68.7967 86.7697 71.636 87.4588C74.37 88.1221 76.161 88.1296 78.8038 87.4883C82.9791 86.4752 87.8545 87.1461 87.8545 88.7339C87.8545 90.1187 88.2545 90.1142 90.4872 88.7043C91.4726 88.0827 93.919 87.3566 95.9245 87.0923L99.5693 86.6107L99.8027 92.1374C99.9536 95.7173 100.381 97.7753 101.018 97.9775C101.752 98.2114 102 96.6562 102 91.8057C102 85.4379 101.963 85.3122 99.9371 84.8223C98.8023 84.5482 96.2389 84.6837 94.2404 85.1244C92.242 85.5651 90.5673 85.8687 90.5194 85.7983C90.4707 85.7286 90.1956 84.1938 89.9088 82.3887L89.3862 79.1064L91.9606 79.6167C93.376 79.8976 95.3265 80.3035 96.2954 80.5185C99.0546 81.1318 99.2456 79.1117 97.1905 71.05C95.6015 64.8169 95.321 61.8329 95.3273 51.2196C95.3336 40.1103 95.5732 37.8168 97.4907 30.5176C98.6766 26.0026 99.4483 21.9994 99.2055 21.6208C98.5359 20.5774 96.7057 20.7629 87.1512 22.8406C71.1464 26.3214 49.6429 26.1669 30.8177 22.4348C21.0377 20.4956 20.2675 20.5108 20.284 22.6362ZM35.5949 25.418C53.261 28.4422 73.871 28.1689 88.8314 24.7139C92.3999 23.8893 95.7013 23.2124 96.1666 23.2094C96.6978 23.2063 96.2829 26.0919 95.0522 30.9651C93.3721 37.6184 93.0899 40.5093 93.0781 51.2196C93.0679 60.5957 93.4129 65.1296 94.462 69.3918C95.2298 72.5151 96.0377 75.8043 96.2562 76.7001C96.653 78.3295 96.6499 78.3295 90.8785 77.2399C87.7029 76.6402 83.4687 75.9497 81.4702 75.7051C78.4847 75.3402 77.9016 75.0206 78.2026 73.9137C78.4399 73.0376 78.0179 72.3985 76.9971 72.0858C74.6042 71.3544 74.4423 69.943 76.1091 64.3278C79.1126 54.2074 77.5849 45.8277 71.7012 40.1587C60.2732 29.1479 43.0606 38.0568 43.0606 54.9835C43.0606 58.0122 43.7034 61.078 45.8834 68.4453C46.2606 69.7196 46.061 70.149 45.092 70.149C43.3553 70.149 42.7399 71.9427 43.8134 73.8758C44.6158 75.3197 44.4751 75.45 42.1058 75.4613C40.6857 75.4689 35.8118 76.1223 31.2743 76.9143C26.7375 77.7071 22.9717 78.2977 22.9072 78.2273C22.8428 78.1569 23.5076 75.5439 24.3838 72.4205C25.5862 68.1372 26.0656 63.5782 26.3351 53.8697C26.6927 41.0166 26.3241 37.8698 22.9787 25.1773C22.4239 23.0716 22.4907 23.0042 24.6754 23.4615C25.9265 23.7235 30.8405 24.6041 35.5949 25.418ZM66.4713 39.0245C70.1955 40.8553 71.6871 42.4734 73.7083 46.8764C75.7044 51.2256 75.9032 58.5278 74.1539 63.2405C72.7645 66.9817 72.5264 72.0949 73.7091 72.7991C75.3507 73.7766 74.3888 74.692 71.7201 74.692C68.2544 74.692 67.5322 73.1905 69.6312 70.3496C73.9118 64.558 74.7943 55.1645 71.6132 49.2585C69.6988 45.7043 68.1373 45.4703 67.2925 48.6111C66.3196 52.2296 63.3515 54.4111 58.8296 54.8298L54.9011 55.1932L56.5648 51.399C58.098 47.9039 58.1318 45.1281 56.641 45.1864C56.3039 45.1993 54.2826 47.6457 52.1506 50.6229C48.9922 55.0327 48.2111 56.775 47.9313 60.0255C47.6296 63.5328 47.9376 64.6276 50.483 69.0897C52.7329 73.0346 53.1479 74.3044 52.3447 74.795C50.8366 75.7165 49.059 75.5878 47.4292 74.4399C46.0932 73.4987 46.0822 73.3034 47.2681 71.5603C48.4492 69.8226 48.4288 69.3191 46.9789 64.4323C44.2158 55.1228 45.1675 47.3769 49.6744 42.503C54.2952 37.5048 60.689 36.1805 66.4713 39.0245ZM71.1652 55.6755C71.6965 61.0061 70.9539 63.9386 67.7861 69.0071L65.0277 73.4207L66.755 75.1918C68.076 76.5471 69.3279 76.9643 72.0776 76.9681C82.2584 76.9802 87.8545 79.2245 87.8545 83.2943C87.8545 84.767 87.3744 84.9336 82.55 85.1342C79.6321 85.2554 75.8309 85.3167 74.102 85.2698C72.3731 85.2236 69.456 85.1986 67.6187 85.2145C65.7821 85.2312 62.5106 85.244 60.3495 85.244C58.1884 85.244 54.8288 85.244 52.8838 85.244C33.3914 85.244 33.6303 85.272 33.6303 82.9543C33.6303 79.251 36.0452 78.1576 45.169 77.7291C52.6614 77.3777 53.5573 77.1763 54.9333 75.5378C56.4383 73.7463 56.4359 73.7183 54.586 71.3733C51.4378 67.383 50.1325 64.3081 50.1451 60.9114C50.1584 57.3497 51.1439 55.032 52.0461 56.4388C52.7227 57.4935 58.2418 57.517 62.1122 56.4812C63.885 56.0072 65.9079 54.6632 67.2029 53.0996C69.7908 49.9748 70.6529 50.5358 71.1652 55.6755ZM50.9192 60.8183C50.9192 62.0676 54.7463 63.0096 56.2096 62.1206C58.061 60.9955 56.9939 59.9915 53.8661 59.9157C51.951 59.8695 50.9192 60.1853 50.9192 60.8183ZM63.7648 60.495C62.4469 62.5477 68.0658 63.4313 69.7798 61.4414C70.3181 60.8168 70.4493 60.2656 70.0721 60.2163C67.4277 59.8718 64.0689 60.0202 63.7648 60.495ZM56.4202 69.5538C56.4202 70.9501 60.296 71.9298 62.3141 71.044C65.3688 69.703 64.6473 68.9261 60.3495 68.9261C58.1884 68.9261 56.4202 69.2086 56.4202 69.5538Z" fill="#D87058"/>
</svg>
