<svg width="88" height="88" viewBox="0 0 88 88" fill="none" xmlns="http://www.w3.org/2000/svg">
<path fill-rule="evenodd" clip-rule="evenodd" d="M27.758 17.101C25.7017 17.5066 23.953 19.1701 23.4774 21.1732L23.3482 21.7166L21.6536 21.7564C20.0669 21.7935 19.9178 21.8148 19.3138 22.0906C18.4982 22.4632 17.6854 23.2769 17.2957 24.1108L17 24.7438V44.7864V64.829L17.3037 65.4853C17.6687 66.2741 18.4948 67.0965 19.2961 67.4689C19.6026 67.6113 19.9127 67.7283 19.9853 67.7288C20.0842 67.7297 20.1174 68.076 20.1174 69.106C20.1174 70.4265 20.1279 70.4926 20.3768 70.741L20.6362 71H44H67.3638L67.6231 70.741C67.8721 70.4926 67.8826 70.4265 67.8826 69.106C67.8826 68.0755 67.9158 67.7299 68.0147 67.7298C68.0874 67.7298 68.4321 67.5928 68.7808 67.4255C69.5751 67.0442 70.32 66.2838 70.7041 65.4619L71 64.829V44.7864V24.7438L70.7019 24.0998C70.3241 23.2839 69.506 22.4715 68.6751 22.0873C68.0809 21.8126 67.9345 21.7917 66.3464 21.7554L64.6518 21.7166L64.524 21.1732C64.0581 19.1906 62.2394 17.4679 60.2281 17.1039C59.473 16.9672 28.4503 16.9645 27.758 17.101ZM60.7495 18.9209C61.5728 19.3043 62.3346 20.0479 62.7165 20.8407C62.8842 21.1888 63.0214 21.533 63.0214 21.6055C63.0215 21.7105 59.3467 21.7374 44.9992 21.7374H26.9767L26.7174 21.9963C26.4061 22.3069 26.3852 22.6793 26.66 23.0179L26.8619 23.2669L47.3632 23.3197L67.8644 23.3724L68.3197 23.6918C68.5701 23.8675 68.9189 24.2157 69.0949 24.4657L69.4149 24.9201L69.4449 44.5054C69.4683 59.782 69.4463 64.1949 69.3446 64.5649C69.1773 65.1737 68.4221 65.9449 67.8175 66.1242C67.2349 66.2968 20.8105 66.3122 20.189 66.1399C19.634 65.9861 18.7974 65.1593 18.6491 64.618C18.4844 64.0169 18.4857 25.5488 18.6504 24.9547C18.8058 24.3949 19.6094 23.5927 20.1703 23.4376C20.4059 23.3725 21.4253 23.3206 22.4734 23.3203C24.2921 23.3197 24.362 23.3118 24.596 23.0781C24.7753 22.8992 24.8563 22.6622 24.9084 22.1642C25.0803 20.5223 26.3441 19.0583 27.9105 18.6865C28.1357 18.633 35.1823 18.5994 44.2113 18.6088L60.1155 18.6255L60.7495 18.9209ZM23.5471 28.3256L23.2877 28.5845V41.6218V54.659L23.5471 54.9179L23.8064 55.1769H44H64.1936L64.4529 54.9179L64.7123 54.659V41.6218V28.5845L64.4529 28.3256L64.1936 28.0666H44H23.8064L23.5471 28.3256ZM63.1272 35.6617V41.6745H58.5835H54.0399L52.5489 38.6945C51.729 37.0555 50.9843 35.6314 50.8942 35.5299C50.7941 35.4169 50.579 35.3453 50.3405 35.3453C50.1021 35.3453 49.8868 35.417 49.7865 35.5299C49.6962 35.6314 48.3695 38.2185 46.8381 41.2789C45.3067 44.3393 44.0296 46.8434 44 46.8434C43.9704 46.8434 42.6933 44.3393 41.1619 41.2789C39.6305 38.2185 38.3038 35.6314 38.2135 35.5299C37.9955 35.2846 37.3233 35.2846 37.1058 35.5299C37.0157 35.6314 36.271 37.0555 35.4511 38.6945L33.9601 41.6745H29.4165H24.8728V35.6617V29.6489H44H63.1272V35.6617ZM40.4976 43.5469C42.0289 46.6073 43.3557 49.1944 43.4459 49.296C43.664 49.5412 44.336 49.5412 44.5541 49.296C44.6443 49.1945 45.9711 46.6073 47.5024 43.5469C49.0338 40.4865 50.3116 37.9824 50.3419 37.9824C50.3722 37.9824 50.9431 39.0772 51.6104 40.4152C52.2779 41.7531 52.912 42.928 53.0198 43.026C53.1968 43.1869 53.6947 43.207 58.1715 43.2343L63.1272 43.2647V48.4296V53.5946H44H24.8728V48.4296V43.2647L29.8285 43.2343C34.3053 43.207 34.8032 43.1869 34.9802 43.026C35.088 42.928 35.7221 41.7531 36.3896 40.4152C37.0569 39.0772 37.6278 37.9824 37.6581 37.9824C37.6884 37.9824 38.9662 40.4865 40.4976 43.5469ZM62.9947 56.867C61.8778 57.1487 60.8116 58.0475 60.3073 59.1327C60.0539 59.6778 60.0133 59.8972 60.014 60.715C60.0149 61.5294 60.057 61.7558 60.3105 62.3084C60.6847 63.1236 61.5008 63.9351 62.3346 64.3212C62.879 64.5732 63.1033 64.6148 63.9198 64.6158C64.7669 64.6168 64.946 64.5812 65.5577 64.2896C66.4273 63.8752 67.0784 63.2246 67.499 62.35C67.7929 61.7389 67.8287 61.5612 67.8287 60.715C67.8287 59.8688 67.7929 59.691 67.499 59.0799C66.845 57.72 65.6197 56.8857 64.1622 56.808C63.7382 56.7855 63.2129 56.812 62.9947 56.867ZM65.1749 58.7315C66.4892 59.6537 66.6615 61.261 65.5631 62.3526C64.5761 63.3335 63.2871 63.34 62.2847 62.3693C61.588 61.6947 61.391 60.946 61.6578 59.9868C61.8045 59.4594 62.5305 58.6942 63.0744 58.4937C63.7232 58.2546 64.6435 58.3588 65.1749 58.7315ZM23.5471 60.1828C23.2914 60.4381 23.2877 60.4678 23.2877 62.2973C23.2877 64.1268 23.2914 64.1565 23.5471 64.4118L23.8064 64.6708H40.8297H57.8531L58.1124 64.4118C58.3681 64.1565 58.3718 64.1268 58.3718 62.2973C58.3718 60.4678 58.3681 60.4381 58.1124 60.1828L57.8531 59.9238H40.8297H23.8064L23.5471 60.1828ZM34.4892 62.2973V63.0884H29.681H24.8728V62.2973V61.5061H29.681H34.4892V62.2973ZM45.5851 62.2973V63.0884H40.8297H36.0744V62.2973V61.5061H40.8297H45.5851V62.2973ZM56.7867 62.2973V63.0884H51.9785H47.1703V62.2973V61.5061H51.9785H56.7867V62.2973ZM66.2975 68.6265V69.4177H44H21.7025V68.6265V67.8354H44H66.2975V68.6265Z" fill="#E86851"/>
</svg>
