<svg width="88" height="88" viewBox="0 0 88 88" fill="none" xmlns="http://www.w3.org/2000/svg">
<path fill-rule="evenodd" clip-rule="evenodd" d="M19.2693 16.2685C19.1212 16.4162 19 16.6357 19 16.7563C19 16.8771 20.3054 27.9183 21.9007 41.2925C25.0536 67.7222 24.8856 66.5603 25.7697 68.0484C26.6238 69.4858 28.0628 70.7415 29.584 71.3767C31.125 72.0203 30.553 71.9999 47.0225 71.9999C63.6585 71.9999 62.9484 72.0275 64.5387 71.3183C65.4244 70.9235 65.6799 70.5843 65.4936 70.0512C65.4245 69.8536 65.2529 69.6715 65.0609 69.5922C64.7822 69.4771 64.6434 69.5015 63.9439 69.7888C62.7422 70.2823 62.1831 70.3592 59.7945 70.3592H57.6063V64.453V58.5468H59.9413C62.5257 58.5468 63.0449 58.6281 64.2138 59.2166C65.1976 59.7118 66.2471 60.7981 66.7368 61.828C67.6114 63.667 67.5845 65.4151 66.6541 67.2201C66.4433 67.629 66.2708 68.0751 66.2708 68.2111C66.2708 68.5879 66.6595 68.9374 67.0785 68.9374C67.545 68.9374 67.7974 68.664 68.2935 67.621C70.0285 63.9742 68.4541 59.4768 64.8157 57.6861C63.6348 57.1049 62.7553 56.9098 61.3079 56.9078C60.1515 56.9061 60.1289 56.9013 60.1289 56.6548C60.1289 56.5164 61.19 47.507 62.4869 36.6336C63.7838 25.7603 64.845 16.7903 64.845 16.7004C64.845 16.6105 64.7238 16.4162 64.5757 16.2685L64.3066 16H41.9225H19.5384L19.2693 16.2685ZM63.0262 18.2695C62.9822 18.6155 61.9279 27.4379 60.6831 37.8749L58.4198 56.8515H57.6017C56.8494 56.8515 56.7855 56.8338 56.806 56.6327C56.8183 56.5124 57.5068 50.6949 58.3362 43.7048C59.8372 31.0539 59.8432 30.9946 59.63 30.7571C59.3448 30.4391 58.6264 30.1397 57.5175 29.8767C56.3876 29.6087 54.1848 29.5822 53.0282 29.8227C52.284 29.9774 51.883 30.1296 49.8659 31.0225C48.5342 31.6121 47.8689 31.7502 46.3688 31.7483C44.714 31.7464 43.9797 31.5777 42.3592 30.8278C41.6645 30.5063 40.7515 30.1357 40.3302 30.0043C38.8585 29.5452 36.1812 29.5388 34.6885 29.991C33.6036 30.3197 31.6507 31.2564 31.5121 31.5146C31.2239 32.0515 31.5901 32.7343 32.1663 32.7343C32.3289 32.7343 32.9743 32.4903 33.6003 32.1922C35.0501 31.5017 35.918 31.3017 37.4742 31.2999C39.0432 31.298 39.888 31.4948 41.4858 32.2344C43.5263 33.179 44.0202 33.303 45.9805 33.3623C48.1147 33.4267 48.9844 33.2431 51.0415 32.2937C51.8299 31.9297 52.7986 31.5571 53.1939 31.4657C54.5756 31.1462 57.5527 31.3256 57.9834 31.7542C58.0677 31.8382 55.3546 55.4255 55.1248 56.6054C55.0926 56.7708 55.0031 56.9061 54.9258 56.9061C54.8232 56.9061 54.7702 56.5739 54.729 55.6757C54.6861 54.7358 54.6029 54.2388 54.3766 53.5713C52.8741 49.1375 47.8938 47.1064 43.6939 49.2145C42.7459 49.6903 41.4753 50.8248 40.8651 51.7405C40.4163 52.4138 36.6706 61.4967 36.3679 62.6455C36.1222 63.5782 36.1466 65.3912 36.4176 66.3397L36.6285 67.078H34.399C32.4264 67.078 32.1008 67.0524 31.5739 66.8557C30.855 66.5876 30.0878 65.8207 29.8235 65.1062C29.7074 64.7924 28.9734 58.9907 27.7758 48.9218C26.749 40.2894 25.9091 33.198 25.9093 33.163C25.9095 33.1281 26.2182 33.164 26.5951 33.2428C26.9722 33.3216 27.7583 33.3871 28.342 33.3883C29.3592 33.3905 29.4128 33.3785 29.6307 33.1024C29.9251 32.7292 29.9177 32.4876 29.6004 32.1198C29.356 31.8365 29.276 31.8169 28.0375 31.7391C27.0654 31.678 26.5329 31.5852 25.9512 31.3755C24.6317 30.8995 24.1548 31.0486 24.1548 31.9373C24.1548 32.9835 28.0011 64.7306 28.2152 65.4515C28.6064 66.7688 29.6376 67.8544 31.0645 68.4513C31.4929 68.6305 31.949 68.6653 34.5193 68.7155L37.4806 68.7733L38.2389 69.5663L38.9972 70.3592H35.4871C31.5548 70.3592 30.9465 70.2775 29.6042 69.569C28.1558 68.8044 26.8705 67.1035 26.5103 65.4746C26.4193 65.0631 25.1114 54.3659 23.6038 41.7031C22.0963 29.0402 20.8322 18.4459 20.7946 18.1602L20.7265 17.6406H41.9162H63.1059L63.0262 18.2695ZM46.8606 36.6284C46.0278 36.8516 45.446 37.2174 44.7965 37.926C44.0264 38.7662 43.7489 39.5144 43.7402 40.7734C43.7339 41.6594 43.7679 41.8309 44.0808 42.4907C45.1973 44.8446 48.0985 45.6957 50.2823 44.3097C50.9754 43.8699 51.4271 43.3365 51.837 42.4738C52.1435 41.8288 52.1773 41.6543 52.1773 40.7163C52.1773 39.766 52.1466 39.6128 51.8271 38.9663C51.2274 37.7528 50.2586 36.9494 49.001 36.6228C48.2037 36.4158 47.6486 36.4172 46.8606 36.6284ZM49.1354 38.4087C50.9459 39.3298 51.0562 41.8952 49.3308 42.958C48.8546 43.2514 48.699 43.2887 47.9628 43.2857C47.0171 43.2821 46.674 43.1421 46.0562 42.5077C44.4226 40.8305 45.7853 37.9653 48.1326 38.142C48.4417 38.1653 48.8929 38.2853 49.1354 38.4087ZM35.0677 43.4898C34.3938 43.7128 34.0101 43.9401 33.5444 44.3919C32.2265 45.6702 32.2266 47.8697 33.5446 49.1823C35.0767 50.7082 37.6124 50.4596 38.795 48.6674C40.2536 46.4571 38.8357 43.5877 36.1894 43.3945C35.7795 43.3646 35.331 43.4026 35.0677 43.4898ZM36.9777 45.348C38.0883 46.0809 37.9347 47.7851 36.7045 48.379C35.3828 49.0169 33.8803 47.7746 34.2568 46.355C34.5788 45.1408 35.9147 44.6464 36.9777 45.348ZM48.6518 50.1888C51.6739 50.9658 53.662 54.1416 52.9939 57.1249C52.9093 57.5032 51.4156 61.4256 51.2945 61.5879C51.265 61.6274 40.4072 57.2793 40.3058 57.1875C40.2376 57.1255 41.8553 53.2917 42.1693 52.7712C42.8638 51.6197 44.2112 50.6167 45.5967 50.2197C46.4343 49.9797 47.7853 49.966 48.6518 50.1888ZM55.9611 64.453V70.3592H53.8373C52.6694 70.3592 51.4708 70.3133 51.1741 70.2572C50.4517 70.1206 49.3805 69.7143 49.3805 69.5768C49.3805 69.5161 49.5483 69.2612 49.7534 69.0104C50.312 68.3275 50.6294 67.6325 52.5093 62.9764C53.4564 60.6304 54.2534 58.674 54.2801 58.6288C54.307 58.5836 54.6961 58.5468 55.145 58.5468H55.9611V64.453ZM43.8418 60.4004C45.9531 61.2539 48.3541 62.2226 49.1773 62.5532L50.674 63.1542L49.8578 65.1415C48.9111 67.4465 48.6196 67.9393 47.701 68.7874C44.2106 72.01 38.4661 69.8966 37.865 65.1686C37.7118 63.963 37.8824 63.1253 38.6998 61.0705C39.0965 60.0734 39.4666 59.1414 39.5221 58.9994C39.5899 58.8263 39.6858 58.7588 39.8132 58.7949C39.9177 58.8246 41.7305 59.547 43.8418 60.4004Z" fill="#E86851"/>
</svg>
