<svg width="88" height="88" viewBox="0 0 88 88" fill="none" xmlns="http://www.w3.org/2000/svg">
<path fill-rule="evenodd" clip-rule="evenodd" d="M18.3195 12.1817C16.6261 12.5102 15.1187 13.017 15.0146 13.293C14.8514 13.7257 14.9124 14.2048 15.3015 15.5466C15.7955 17.2501 17.0195 19.7463 17.8769 20.7987C19.294 22.5382 21.2657 23.8243 23.4336 24.4234C25.0534 24.871 28.4607 24.8769 30.3185 24.4351L31.5794 24.1352L32.3564 24.6675C34.9487 26.4433 37.4211 29.8133 38.9044 33.5928C40.382 37.3574 41.5123 43.7949 41.5123 48.4464V49.6271L41.0719 49.0085C40.0458 47.5679 37.8729 45.7689 36.4046 45.1449C35.9756 44.9626 35.8391 44.7808 35.6231 44.1041C34.4528 40.4404 31.8641 37.7698 28.8684 37.1357C26.9724 36.7343 22.8227 37.296 22.2931 38.0257C22.0388 38.3761 22.1299 38.9594 22.7079 40.6822C23.2752 42.3734 23.9601 43.5213 25.1058 44.7001C26.1387 45.7632 27.6882 46.6246 29.1031 46.9226C30.2711 47.1685 32.7358 47.1321 34.0811 46.8492L35.2407 46.6053L36.1251 47.0847C38.3382 48.2847 40.3386 50.5838 40.9679 52.6507L41.0745 53.0005H27.8792C13.3421 53.0005 14.0046 52.9561 14.0046 53.9333C14.0046 54.9105 13.3432 54.866 27.8689 54.866C38.7122 54.866 41.0538 54.9026 41.0538 55.072C41.0538 55.4624 40.3143 57.4883 39.9256 58.1633C38.674 60.3358 36.5368 60.8904 33.3971 59.8572C32.5899 59.5917 31.8268 59.3743 31.7015 59.3743C31.3215 59.3743 30.9406 59.9321 30.9944 60.41C31.0336 60.7577 31.192 60.9258 31.7423 61.2039C32.8512 61.764 34.4495 62.178 35.8961 62.28C37.0667 62.3624 37.2095 62.4034 37.0423 62.6096C36.7509 62.9687 35.7372 63.3774 34.2419 63.7387C32.0839 64.2601 30.9504 64.9865 29.6854 66.6588C29.0518 67.4964 28.9517 67.5645 28.1161 67.7245C25.7476 68.1779 24.2803 69.2217 23.3873 71.0883C22.6006 72.7327 22.7351 73.4427 23.8134 73.3373C24.2668 73.293 24.3762 73.1789 24.8569 72.2489C25.1521 71.6775 25.5591 71.0309 25.7609 70.8122C26.1124 70.4316 27.0099 69.9276 27.703 69.7218C28.0296 69.6248 28.0296 69.6249 27.6535 70.6789C27.0627 72.3344 26.6854 74.1136 26.8382 74.5227C27.0595 75.1145 27.8454 75.2703 28.2563 74.8036C28.3881 74.6539 28.6396 73.9131 28.8152 73.1573C29.5834 69.8519 31.1954 67.0616 32.8336 66.2013C33.1455 66.0376 33.4206 65.9034 33.4449 65.9033C33.4694 65.9031 33.4672 66.3054 33.4402 66.7971C33.3392 68.6399 34.2327 71.3452 35.3356 72.5348C35.8899 73.1327 36.1915 73.1817 36.622 72.7437C37.0455 72.313 37.0038 71.8513 36.4674 71.0337C35.5187 69.5876 35.007 67.2419 35.351 65.9162C35.4699 65.4576 35.5946 65.3481 36.2594 65.1182C37.8559 64.5662 39.362 63.1838 39.7047 61.9559C39.8027 61.6048 39.9306 61.2607 39.989 61.1912C40.0472 61.1217 40.1831 61.7412 40.2906 62.5677C40.4811 64.0312 40.5054 64.093 41.2192 64.9228C41.6223 65.3915 41.9963 65.9787 42.0499 66.2274C42.2793 67.2896 41.5218 68.3001 39.8537 69.1567C39.369 69.4056 38.8856 69.7156 38.7796 69.8457C38.468 70.2276 38.633 70.9165 39.0996 71.1817C39.4912 71.4045 39.5704 71.3878 40.5514 70.8789C41.1218 70.5827 41.6402 70.3156 41.7033 70.2855C41.8795 70.2009 41.8392 71.0797 41.6397 71.6712C41.5418 71.9618 41.1979 72.627 40.8756 73.1492C40.5533 73.6714 40.2897 74.2085 40.2897 74.3426C40.2897 74.4769 40.4725 74.7328 40.6958 74.9116C41.4313 75.5002 42.0291 75.0315 42.9649 73.1324C43.6261 71.7905 43.7928 70.5051 43.4362 69.5015C43.2048 68.8506 43.2084 68.8058 43.533 68.3423C43.7675 68.0072 43.8888 67.5679 43.9305 66.9032C44.0022 65.7582 43.6724 64.8727 42.8149 63.9072C42.2665 63.2895 42.2397 63.2033 41.9381 61.0775C41.724 59.5693 41.6761 58.8346 41.7846 58.7242C41.8931 58.6138 42.0012 58.678 42.1303 58.9302C42.2336 59.1317 42.5668 59.6447 42.8704 60.07C43.366 60.7641 43.4172 60.9267 43.3706 61.6586C43.2784 63.101 43.671 63.9342 45.1474 65.4307C45.861 66.1539 46.5384 66.9736 46.6529 67.2523C46.9504 67.9766 46.9104 68.8853 46.536 69.9105C46.0281 71.3012 46.0052 71.728 46.422 72.0251C46.6168 72.1639 46.8864 72.2774 47.0212 72.2774C47.6752 72.2774 48.4785 70.5428 48.645 68.7705C48.7253 67.9164 48.5541 66.9658 48.1328 65.9261C48.0663 65.7621 48.1617 65.7386 48.5622 65.8202C49.6987 66.0522 51.0124 66.5688 51.0886 66.8138C51.3538 67.6668 52.2942 69.3776 52.8529 70.0232C53.4787 70.7466 53.5046 70.8159 53.4572 71.6513C53.3851 72.9258 54.193 75.1991 54.9368 75.814C55.2748 76.0937 55.7902 76.0533 56.083 75.724C56.4416 75.3208 56.4034 75.0497 55.821 73.8669C54.9386 72.0751 54.9267 72.0944 56.4503 72.854C58.1168 73.6846 58.6875 73.8106 59.0928 73.4377C59.6932 72.8849 59.375 72.0055 58.4754 71.7314C57.7829 71.5204 56.2721 70.6967 55.5235 70.1219C54.9125 69.6529 53.5828 68.135 53.586 67.9102C53.5865 67.8753 53.9843 67.8429 54.4699 67.8383C55.4472 67.8289 56.8073 67.2669 57.9787 66.3886C58.7205 65.8325 58.8256 65.3271 58.3092 64.8018C57.9442 64.4305 57.4612 64.4878 56.7766 64.9837C55.315 66.0424 54.2005 66.1445 52.6694 65.3601C50.7005 64.3515 49.4076 63.993 47.6771 63.9757C46.1906 63.961 46.1111 63.9429 45.8081 63.5512C45.6342 63.3261 45.4204 62.9508 45.333 62.7173C45.1924 62.3409 45.2052 62.3053 45.4445 62.4048C46.5682 62.8718 47.9055 62.8866 48.3476 62.437C48.6291 62.1507 48.6511 61.4831 48.3897 61.1626C48.2691 61.0149 47.9329 60.9289 47.4764 60.9289C46.7507 60.9289 45.7879 60.6754 45.7951 60.4862C45.7972 60.4304 46.3474 59.6179 47.0177 58.6807C48.3576 56.8071 48.5099 56.2992 47.8618 55.8672C47.6328 55.7145 47.3604 55.6586 47.1607 55.7229C46.9811 55.7809 46.3196 56.5388 45.6907 57.407C45.0619 58.2752 44.4691 58.9857 44.3732 58.9857C44.2776 58.9857 43.8607 58.3152 43.4468 57.4958C42.7306 56.0777 42.7032 55.9785 42.8793 55.4359L43.0642 54.866H57.6891C73.8008 54.866 72.9933 54.9153 72.9933 53.9333C72.9933 52.952 73.7776 53.0005 57.9176 53.0005H43.521L43.8934 51.5849C45.0455 47.2055 47.3591 43.6446 50.7121 41.0899C51.1221 40.7775 51.1877 40.772 52.0205 40.9799C52.5088 41.1017 53.7101 41.2036 54.7313 41.2096C56.2184 41.2183 56.7673 41.1555 57.6348 40.8773C60.3763 39.9978 62.1246 38.2766 63.3219 35.2783C63.8899 33.8558 64.1889 32.6035 64.0593 32.1882C63.775 31.2774 59.4045 30.6133 57.1921 31.1448C55.0617 31.6566 53.2064 33.0361 51.8859 35.0903C51.2179 36.1297 50.2231 38.4042 50.2231 38.8924C50.2231 39.0046 49.6058 39.6117 48.8513 40.2413C46.8147 41.9411 45.2598 43.8566 44.0598 46.1439L43.3752 47.4486L43.2856 46.4548C42.9514 42.7448 42.8218 41.6612 42.4977 39.8643C42.2972 38.7528 41.9301 37.1105 41.6822 36.2148L41.2313 34.5863L41.7499 33.8675C42.3007 33.1043 43.3387 32.0741 44.0031 31.6312C44.3462 31.4025 44.5175 31.3882 45.1818 31.5331C45.6094 31.6264 46.6029 31.7027 47.3898 31.7027C49.7484 31.7027 51.3163 31.0525 52.7961 29.4609C54.0408 28.1221 55.292 25.0497 54.9571 24.1541C54.7959 23.7227 53.8159 23.3814 52.0225 23.1318C48.2752 22.6106 44.9478 24.9249 43.7235 28.9045C43.498 29.6368 43.3396 29.8487 42.6193 30.3813C42.1567 30.7233 41.4857 31.3341 41.128 31.7385L40.4777 32.4738L39.8383 31.1167C38.3974 28.0583 35.7983 24.8198 33.438 23.1413C32.487 22.4651 32.4621 22.429 32.0275 21.0944C30.5705 16.6206 27.9195 13.6596 24.32 12.4856C22.7939 11.9878 20.0389 11.8482 18.3195 12.1817ZM22.6637 14.0562C25.4544 14.5947 27.8729 16.5278 29.3405 19.3931C29.7483 20.1892 30.0466 20.8768 30.0032 20.9208C29.96 20.9648 28.6 20.2257 26.9812 19.2783C25.3622 18.3311 23.8826 17.556 23.6931 17.556C23.5036 17.556 23.2405 17.6659 23.1083 17.8002C22.821 18.0927 22.7918 18.8533 23.0592 19.0763C23.1644 19.1639 24.5225 19.9818 26.0774 20.8939C27.6324 21.8058 28.9601 22.6072 29.0279 22.6746C29.0958 22.742 28.636 22.8446 28.006 22.9027C26.7188 23.0213 24.5821 22.7975 23.5061 22.4314C21.2442 21.6615 19.2733 19.9418 18.1858 17.7892C17.4921 16.416 16.8575 14.6561 16.982 14.4512C17.026 14.3788 17.5604 14.2368 18.1694 14.1359C18.7786 14.035 19.3801 13.932 19.5062 13.9068C20.1382 13.7809 21.5937 13.8497 22.6637 14.0562ZM52.63 25.116C53.0817 25.2391 53.0657 25.4033 52.4875 26.5802C51.5414 28.5062 49.9269 29.6504 47.952 29.7943L46.9374 29.8682L48.3128 29.0578C49.0693 28.6119 49.7742 28.1766 49.8792 28.0905C50.1468 27.8708 50.1175 27.1093 49.8302 26.8168C49.4295 26.4092 48.8886 26.5359 47.5209 27.3577C46.8022 27.7895 46.1784 28.1064 46.1343 28.0617C46.0905 28.017 46.283 27.6812 46.5622 27.3154C47.7889 25.7086 49.1292 25.0263 51.0636 25.0238C51.736 25.023 52.4408 25.0645 52.63 25.116ZM61.7312 33.0904C62.1244 33.2424 62.1288 33.2593 61.9265 33.8428C60.6784 37.441 58.2414 39.3224 54.8323 39.3188L53.5087 39.3176L55.4619 38.1726C57.6686 36.8792 58.0169 36.6048 58.0169 36.1603C58.0169 35.7092 57.5751 35.2781 57.1145 35.2797C56.8964 35.2803 55.8276 35.8028 54.7392 36.4408C53.651 37.0786 52.733 37.5724 52.6992 37.5382C52.5485 37.3847 53.5778 35.7823 54.3451 34.9756C55.2492 34.0253 56.6733 33.2059 57.8641 32.9511C58.6739 32.7779 61.154 32.8671 61.7312 33.0904ZM28.599 39.0651C29.7393 39.3751 30.6219 39.8857 31.5353 40.7644C32.2858 41.4867 33.5316 43.2931 33.3832 43.4442C33.3486 43.4792 32.43 42.9861 31.3418 42.3482C30.2534 41.7102 29.2133 41.1877 29.0301 41.1871C28.5644 41.1852 28.2169 41.5908 28.2169 42.1363C28.2169 42.6375 28.4104 42.7847 31.2733 44.4606L32.5723 45.2209L31.42 45.2242C28.0942 45.234 25.6995 43.5053 24.4824 40.2164L24.0981 39.1775L24.6675 39.0806C24.9806 39.0273 25.3057 38.9602 25.3897 38.9311C25.7932 38.7919 27.9204 38.8807 28.599 39.0651Z" fill="#E86851"/>
</svg>
