<svg width="88" height="88" viewBox="0 0 88 88" fill="none" xmlns="http://www.w3.org/2000/svg">
<path fill-rule="evenodd" clip-rule="evenodd" d="M42.1999 11.1978C37.9983 12.127 35.0677 16.3486 35.8296 20.3745C36.7004 24.9752 40.9928 27.8816 45.644 27.0197C49.6002 26.2865 52.6238 22.3811 52.2531 18.4831C51.7837 13.5479 47.0583 10.1235 42.1999 11.1978ZM46.3552 14.159C48.2803 15.1231 49.3576 16.6834 49.5083 18.7246C49.6378 20.48 49.2036 21.6014 47.9026 22.8711C46.306 24.4295 44.2061 24.9001 42.0477 24.1829C40.8084 23.7711 39.1865 22.1863 38.765 20.9753C37.7145 17.9569 39.3599 14.8156 42.5222 13.8025C43.3558 13.5352 45.5102 13.7356 46.3552 14.159ZM25.4586 18.9106C23.3703 19.3621 21.9978 21.0369 22 23.1306C22.0019 24.7776 22.4039 25.239 29.4541 31.6904L36.0443 37.7207L36.0939 55.722L36.1436 73.7236L36.5464 74.4586C37.1481 75.5572 38.2802 76.4645 39.4714 76.8029C40.7435 77.1643 41.6986 77.039 43.0494 76.3338L44.0376 75.8178L44.9911 76.3349C46.2866 77.0378 47.2564 77.1657 48.534 76.8029C49.7252 76.4645 50.8573 75.5572 51.459 74.4586L51.8618 73.7236L51.9115 55.7276L51.9611 37.7317L58.5505 31.6996C64.0092 26.7026 65.2143 25.5117 65.5723 24.7604C66.3175 23.1967 66.0793 21.5317 64.9325 20.2889C64.0373 19.3186 63.0481 18.8932 61.6747 18.8883C60.1007 18.8826 59.4366 19.2752 56.5617 21.9115C55.1802 23.1783 52.1669 25.9426 49.8654 28.0544L45.681 31.894H44.0119H42.3428L35.6839 25.7957C31.945 22.3717 28.68 19.5265 28.2386 19.3075C27.2874 18.8358 26.3943 18.7082 25.4586 18.9106ZM27.2887 21.8162C27.5822 22.0376 30.4449 24.6191 33.6505 27.5531C36.8561 30.4872 39.8708 33.2333 40.3498 33.6557L41.2206 34.4237H43.9981H46.7754L47.5539 33.7461C47.9822 33.3735 51.1132 30.5211 54.5122 27.4077C57.9111 24.2944 60.8833 21.6617 61.1174 21.5575C62.0964 21.1217 63.2344 21.8966 63.2344 22.9988C63.2344 23.798 62.9215 24.1159 55.3753 30.981C52.8326 33.2942 50.3985 35.5389 49.9664 35.9693L49.1804 36.7517V44.6221V52.4926H44.0027H38.8249L38.812 44.7681C38.8048 40.5197 38.7393 36.8957 38.6663 36.7146C38.5932 36.5337 35.4577 33.5645 31.6985 30.1164C24.5648 23.5733 24.5515 23.5583 24.8515 22.3905C24.9704 21.9274 25.7424 21.4328 26.3641 21.4212C26.5792 21.4173 26.9952 21.5951 27.2887 21.8162ZM42.7083 63.8818C42.7083 73.1992 42.687 73.4283 41.762 74.0613C40.9123 74.6429 39.4686 74.274 39.0459 73.3673C38.8841 73.0205 38.8249 70.5212 38.8249 64.0482V55.2029H40.7666H42.7083V63.8818ZM49.1804 64.0482C49.1804 70.5212 49.1213 73.0205 48.9595 73.3673C48.5412 74.2644 47.094 74.6435 46.2619 74.0739C45.2969 73.4135 45.2971 73.4159 45.2971 63.9754V55.2029H47.2388H49.1804V64.0482Z" fill="#E86851"/>
</svg>
