<svg width="88" height="88" viewBox="0 0 88 88" fill="none" xmlns="http://www.w3.org/2000/svg">
<path fill-rule="evenodd" clip-rule="evenodd" d="M52.0131 17.1321C49.6628 17.5162 47.2006 18.5394 45.3737 19.8912C44.0775 20.8503 21.8206 43.3196 20.8752 44.6236C19.6294 46.3417 18.6661 48.5526 18.207 50.7473C17.9316 52.0628 17.9309 55.1312 18.2055 56.5213C18.6246 58.6433 19.4612 60.6681 20.7011 62.5608C21.4919 63.7678 23.6182 65.9461 24.7503 66.709C29.1495 69.6729 34.5838 70.2284 39.4373 68.21C41.4074 67.3908 43.005 66.2803 44.9995 64.3439L46.2703 63.11V67.5149C46.2703 70.5935 46.3065 71.9198 46.3907 71.9198C46.457 71.9198 48.4819 70.906 50.8906 69.667L55.2701 67.4141L59.6632 69.7071L64.0563 72L64.085 64.1733L64.1136 56.3465L64.8409 55.4474C66.7022 53.1462 67.5391 50.8851 67.6437 47.8755C67.6938 46.4341 67.6676 46.0158 67.4649 45.0251C67.3343 44.3865 67.1037 43.5321 66.9525 43.1263L66.6776 42.3885L67.0057 41.9703C67.1861 41.7402 67.5638 41.159 67.8449 40.6785C71.2356 34.8865 70.5729 27.4128 66.2264 22.4254C63.9113 19.7691 60.972 18.0061 57.6716 17.2945C56.2249 16.9826 53.4206 16.9021 52.0131 17.1321ZM56.3752 19.6125C60.9807 20.3031 64.8369 23.3559 66.6301 27.731C68.1781 31.5076 67.8932 35.9648 65.8856 39.3775L65.4289 40.154L65.0085 39.6226C63.055 37.1533 60.1586 35.4584 57.0629 34.9731C55.7363 34.7652 53.4844 34.8916 52.1246 35.2504C50.7972 35.6005 48.8581 36.5395 47.8258 37.3321C46.4864 38.3605 45.2485 39.8058 44.2073 41.5572C44.114 41.7142 43.3974 41.038 39.8026 37.4006L35.5095 33.0565L40.7505 27.825C43.633 24.9477 46.3177 22.3374 46.7163 22.0243C47.115 21.7112 47.9931 21.1804 48.6678 20.8448C51.1778 19.5961 53.6404 19.2024 56.3752 19.6125ZM38.5585 39.5239L43.1676 44.1799L42.9754 45.3411C42.5591 47.8551 42.9442 50.5862 44.032 52.8356C44.5431 53.8922 45.6527 55.5572 46.0834 55.9134C46.2437 56.0461 46.2703 56.3187 46.2703 57.8365V59.6051L44.1237 61.7443C41.856 64.0041 40.8991 64.7686 39.3566 65.5527C37.3821 66.5564 35.5962 66.9742 33.2792 66.9748C31.199 66.9752 29.2025 66.5204 27.5271 65.6642C24.5199 64.1275 22.0299 61.1665 20.9642 57.8597C20.5154 56.4673 20.3583 55.3965 20.3672 53.788C20.3824 50.9955 21.1442 48.5539 22.7214 46.2425C23.2286 45.4992 33.6156 34.8679 33.8346 34.8679C33.8977 34.8679 36.0234 36.9631 38.5585 39.5239ZM56.9753 37.3918C58.1131 37.5972 59.2721 38.0197 60.299 38.6033C61.4876 39.2788 63.3165 41.1285 63.9894 42.3359C66.8639 47.4939 64.9048 54.0266 59.7074 56.6143C58.1166 57.4064 57.1388 57.6394 55.3584 57.6507C54.2195 57.6579 53.6985 57.6072 52.9274 57.4139C48.5657 56.3213 45.4691 52.5247 45.1934 47.9318C44.9297 43.5368 47.8138 39.2177 51.9653 37.7908C53.5341 37.2516 55.3833 37.1043 56.9753 37.3918ZM49.9501 58.7704C53.2798 60.4137 57.4331 60.3811 60.7819 58.6854L61.7703 58.1848V63.0815C61.7703 65.7746 61.7449 67.9781 61.7138 67.9781C61.6828 67.9781 60.2142 67.249 58.4503 66.3579L55.2432 64.7377L52.067 66.3536C50.3201 67.2423 48.8532 67.9714 48.8072 67.9737C48.7611 67.9761 48.7235 65.7693 48.7235 63.0698C48.7235 60.3702 48.7611 58.1808 48.8072 58.2045C48.8532 58.2282 49.3675 58.4828 49.9501 58.7704Z" fill="#E86851"/>
</svg>
