<svg width="88" height="88" viewBox="0 0 88 88" fill="none" xmlns="http://www.w3.org/2000/svg">
<path fill-rule="evenodd" clip-rule="evenodd" d="M41.1714 12.1811C38.7766 12.5162 35.891 13.4712 33.9469 14.5722C32.3933 15.452 31.0013 16.479 30.8792 16.8355C30.6714 17.4418 31.0823 18.1034 31.672 18.1122C31.8198 18.1144 32.4716 17.7501 33.1204 17.3027C36.2058 15.1747 39.4705 14.077 43.1988 13.9137C47.6356 13.7195 51.8864 15.0562 55.4998 17.782C56.586 18.6014 58.5107 20.5593 59.3163 21.6641C64.6161 28.9333 64.3949 38.6524 58.7681 45.7492C57.8849 46.8633 56.8077 47.9105 55.3018 49.1188C53.9673 50.1895 53.257 50.9816 52.4814 52.2635C51.9103 53.2074 51.2267 55.076 51.0623 56.1425L50.9899 56.6112H43.9974H37.0049L36.9326 56.1425C36.7682 55.076 36.0845 53.2074 35.5134 52.2635C34.7281 50.9656 34.0052 50.1645 32.5783 49.0117C29.8246 46.7869 28.24 44.8467 26.8518 41.9998C24.2572 36.679 24.1731 30.4643 26.6237 25.1302C26.9209 24.4832 27.1641 23.8471 27.1641 23.7165C27.1641 23.3824 26.6179 22.8656 26.2646 22.8656C25.7099 22.8656 25.3668 23.3111 24.7172 24.8758C21.938 31.5697 22.5564 38.9724 26.3973 44.9877C27.7264 47.0693 29.3336 48.815 31.5965 50.6352C32.256 51.1657 33.0335 51.9314 33.366 52.3778C33.9953 53.2228 34.6781 54.5956 34.8809 55.4239C35.1834 56.6602 35.2028 56.5682 34.6074 56.7207C33.4366 57.0205 32.4742 58.197 32.3534 59.4757C32.2905 60.1419 32.5485 61.0994 32.9252 61.5979C33.1486 61.8934 33.1468 61.9061 32.7927 62.4854C32.1626 63.5166 32.2205 65.0399 32.9252 65.9724C33.1486 66.2678 33.1468 66.2806 32.7927 66.8599C31.8677 68.3736 32.4426 70.4755 33.9901 71.2376C34.298 71.3892 34.8273 71.5489 35.1663 71.5925C35.7773 71.671 35.7846 71.6773 35.9909 72.2983C36.5847 74.0858 37.8767 75.3252 39.6306 75.7897C40.6744 76.0662 47.3002 76.0716 48.3372 75.7968C50.1366 75.3202 51.4008 74.1138 52.004 72.2983C52.2103 71.6773 52.2175 71.671 52.8285 71.5925C54.4906 71.3788 55.6702 70.06 55.6702 68.4152C55.6702 67.925 55.3872 67.0833 55.0701 66.6303C54.837 66.2973 54.837 66.2873 55.0685 65.9641C55.3974 65.5049 55.6702 64.6643 55.6702 64.1102C55.6702 63.5579 55.4025 62.7307 55.0701 62.2558C54.837 61.9229 54.837 61.9129 55.0685 61.5897C56.2773 59.9017 55.5085 57.443 53.5703 56.7986C53.2047 56.6769 52.8917 56.5662 52.8747 56.5525C52.8577 56.5388 52.9507 56.1024 53.0813 55.5828C53.5938 53.5447 54.6029 52.084 56.6444 50.4254C60.9873 46.8968 63.5494 42.7323 64.5884 37.5123C66.4603 28.109 61.8198 18.5581 53.263 14.2028C49.6717 12.3748 45.1681 11.6219 41.1714 12.1811ZM28.0474 19.4959C27.4752 20.0381 27.8685 21.1158 28.6385 21.1158C29.1092 21.1158 29.4986 20.6915 29.4986 20.1784C29.4986 19.6654 29.1092 19.2411 28.6385 19.2411C28.4612 19.2411 28.1952 19.3558 28.0474 19.4959ZM38.927 20.8688C38.3253 21.0234 37.5377 21.4329 36.9737 21.8842C36.4713 22.2864 35.7007 23.3976 35.5772 23.8981C35.5105 24.1683 35.3918 24.2475 34.8895 24.3571C32.6447 24.8468 31.0893 26.8204 31.1 29.1656C31.1023 29.6777 31.1955 30.3215 31.3207 30.6897L31.5373 31.3272L31.0531 31.877C30.7868 32.1795 30.3973 32.7924 30.1874 33.2392C29.8429 33.9726 29.8059 34.167 29.807 35.239C29.8081 36.2725 29.8524 36.5223 30.1482 37.1675C30.3352 37.5752 30.6763 38.1421 30.9061 38.4273C31.2746 38.8849 31.3158 39.0074 31.2553 39.4666C31.1649 40.1516 31.4122 41.3916 31.7909 42.1515C32.4559 43.4864 33.7337 44.4437 35.2529 44.745C35.9527 44.8837 36.0932 44.9665 36.6524 45.5678C38.4773 47.5305 41.52 47.5725 43.4258 45.6613L44.0039 45.0815L44.5844 45.6647C46.4838 47.574 49.5175 47.5305 51.3424 45.5678C51.9016 44.9665 52.0422 44.8837 52.7419 44.745C54.2598 44.4439 55.5407 43.4852 56.2011 42.1556C56.5904 41.3718 56.8226 40.2108 56.729 39.516C56.662 39.0194 56.6962 38.9147 57.0808 38.4373C57.3149 38.1466 57.6596 37.5752 57.8466 37.1675C58.1425 36.5223 58.1867 36.2725 58.1878 35.239C58.1889 34.167 58.1519 33.9726 57.8074 33.2392C57.5976 32.7924 57.208 32.1795 56.9418 31.877L56.4576 31.3272L56.6742 30.6897C56.794 30.3374 56.8926 29.6798 56.8949 29.2196C56.9064 26.8434 55.3633 24.8543 53.1247 24.3596C52.5655 24.236 52.5225 24.1959 52.2394 23.5339C51.8343 22.5869 50.9522 21.6974 49.929 21.2044C49.1728 20.8401 48.9892 20.8033 47.9229 20.8033C46.8146 20.8033 46.6974 20.8295 45.8183 21.2714C45.2766 21.5436 44.7012 21.949 44.4423 22.2404L43.9974 22.7413L43.5525 22.2404C43.2999 21.9559 42.7229 21.546 42.2175 21.2919C41.4751 20.9187 41.1667 20.8367 40.3586 20.7972C39.8257 20.7712 39.1816 20.8035 38.927 20.8688ZM41.035 22.7982C41.799 23.0724 42.3524 23.5629 42.7013 24.2751C42.9945 24.8737 43.0145 25.0322 43.0145 26.7646V28.6148H41.618C40.3913 28.6148 40.1821 28.6463 39.8978 28.8739C39.4796 29.2085 39.4532 29.8653 39.843 30.2348C40.0821 30.4613 40.2725 30.4896 41.5632 30.4896H43.0145V32.6768V34.864H41.618C40.3913 34.864 40.1821 34.8955 39.8978 35.1231C39.663 35.311 39.5741 35.4973 39.5741 35.8014C39.5741 36.1055 39.663 36.2918 39.8978 36.4797C40.1821 36.7073 40.3913 36.7388 41.618 36.7388H43.0145V39.8049C43.0145 43.1922 42.9705 43.4427 42.2402 44.2176C41.0527 45.4778 39.201 45.516 38.0105 44.305C37.4071 43.6913 37.3517 43.3477 37.7284 42.556C38.0099 41.9644 38.4291 41.6815 39.2022 41.5615C39.9212 41.45 40.1884 41.193 40.1884 40.6133C40.1884 39.9515 39.8864 39.7205 39.0209 39.7205C38.1492 39.7205 37.1579 40.1828 36.6285 40.8361C36.1865 41.3816 35.765 42.2562 35.765 42.628C35.765 42.8647 35.7147 42.8874 35.33 42.8239C33.8695 42.5828 32.8042 40.8126 33.1645 39.2255C33.3729 38.3072 33.3639 38.2756 32.7079 37.6048C32.3781 37.2675 32.0094 36.78 31.8886 36.5214C31.3595 35.3892 31.595 34.0108 32.4695 33.1213C32.9297 32.6532 33.0191 32.6143 33.6348 32.6143C34.1791 32.6143 34.3572 32.6707 34.6033 32.9212C34.7692 33.0899 34.9049 33.3121 34.9049 33.4151C34.9049 34.0888 35.5789 34.6024 36.165 34.3757C36.7781 34.1386 36.9242 33.3296 36.5171 32.4268C36.048 31.3866 35.0721 30.7471 33.9464 30.7423C33.3203 30.7397 33.2882 30.7228 33.1171 30.3061C33.0191 30.0678 32.939 29.5445 32.939 29.1433C32.939 27.4337 34.2202 26.1365 35.9242 26.1207C36.5932 26.1144 37.1145 25.7192 37.1193 25.2147C37.1241 24.6987 37.5618 23.9282 38.1481 23.4033C38.9869 22.6522 40.023 22.435 41.035 22.7982ZM48.9411 22.8111C49.6185 23.0459 50.3336 23.7201 50.6451 24.4178C50.8995 24.9876 50.9468 26.0467 50.7499 26.7675C50.5006 27.6807 49.6602 28.3649 48.7878 28.3649C48.3177 28.3649 47.8064 28.8532 47.8064 29.3022C47.8064 29.484 47.946 29.7681 48.1244 29.9495C48.4171 30.2472 48.5002 30.2667 49.1693 30.1956C50.6865 30.0344 52.0164 28.9104 52.4743 27.4022C52.6101 26.9548 52.7213 26.5104 52.7213 26.4145C52.7213 26.1197 53.1571 26.2199 53.7829 26.6586C54.9584 27.4826 55.4273 29.2278 54.7965 30.432C54.6538 30.7042 54.4548 31.0846 54.3542 31.2774C54.1028 31.7587 54.3062 32.2211 54.9439 32.6184C55.8137 33.1606 56.4074 34.2211 56.4074 35.2325C56.4074 35.8324 56.087 36.7808 55.7926 37.0517C55.5728 37.254 55.5274 37.2458 54.909 36.892C53.8191 36.2683 53.0664 36.0771 51.939 36.1376C50.8357 36.1969 49.7794 36.5953 49.2217 37.1626C48.6318 37.7626 48.9651 38.7385 49.7598 38.7385C49.9558 38.7385 50.4313 38.5698 50.8168 38.3636C51.8446 37.8136 52.6425 37.8384 53.841 38.4573C54.6534 38.8769 54.7605 38.9746 54.8613 39.3901C55.0223 40.0524 54.759 41.1231 54.2773 41.7654C53.7383 42.4843 52.9329 42.881 51.8528 42.9596L50.9835 43.0228L50.5073 43.6785C49.8853 44.535 49.5073 44.8251 48.7041 45.0627C47.6254 45.3817 46.5653 45.0778 45.7546 44.2176C44.9959 43.4124 44.9804 43.3014 44.9804 38.68V34.4891H46.3768C47.6036 34.4891 47.8127 34.4576 48.097 34.23C48.5027 33.9054 48.541 33.2365 48.175 32.8643C47.9566 32.6421 47.7655 32.6143 46.4548 32.6143H44.9804L44.9815 28.7086L44.9827 24.8028L45.3463 24.1579C46.0902 22.8386 47.4983 22.311 48.9411 22.8111ZM53.1548 58.6353C53.7529 58.9125 53.981 59.6956 53.652 60.3426C53.3288 60.9784 53.2554 60.9856 47.1192 60.9856H41.4059L41.1044 61.2925C40.9385 61.4612 40.8028 61.7449 40.8028 61.923C40.8028 62.1011 40.9385 62.3848 41.1044 62.5536L41.4059 62.8604H47.1192C53.2554 62.8604 53.3288 62.8676 53.652 63.5034C53.981 64.1505 53.7529 64.9335 53.1548 65.2107C52.9674 65.2976 52.2673 65.3601 51.4811 65.3601C50.2103 65.3601 50.1119 65.3783 49.8283 65.6669C49.4438 66.0579 49.4438 66.537 49.8283 66.928C50.1119 67.2166 50.2103 67.2348 51.4811 67.2348C52.9781 67.2348 53.3866 67.3558 53.652 67.8779C53.981 68.5249 53.7529 69.3079 53.1548 69.5851C52.9146 69.6965 50.5857 69.7345 43.9974 69.7345C37.4092 69.7345 35.0803 69.6965 34.8401 69.5851C34.4879 69.4219 34.1677 68.8979 34.1677 68.4847C34.1677 68.0715 34.4879 67.5474 34.8401 67.3842C35.075 67.2753 36.6938 67.2348 40.8142 67.2348H46.466L46.7676 66.928C46.9334 66.7593 47.0692 66.4756 47.0692 66.2975C47.0692 66.1193 46.9334 65.8356 46.7676 65.6669L46.466 65.3601H40.8142C34.7437 65.3601 34.6658 65.3523 34.3428 64.717C34.1293 64.2968 34.1214 63.9753 34.3146 63.5443C34.5572 63.0024 34.9987 62.8604 36.4403 62.8604C37.6587 62.8604 37.7615 62.8408 38.0437 62.5536C38.4282 62.1626 38.4282 61.6834 38.0437 61.2925C37.7618 61.0056 37.658 60.9856 36.4523 60.9856C35.0196 60.9856 34.6055 60.8594 34.3428 60.3426C34.0204 59.7083 34.2142 58.9881 34.7956 58.6604C35.2032 58.4306 52.6617 58.4067 53.1548 58.6353ZM50.2639 71.7722C50.2639 71.862 50.0987 72.2002 49.8968 72.5239C49.5075 73.1484 48.659 73.7799 47.9336 73.9848C47.368 74.1447 40.6268 74.1447 40.0612 73.9848C39.3358 73.7799 38.4874 73.1484 38.098 72.5239C37.8961 72.2002 37.731 71.862 37.731 71.7722C37.731 71.6404 38.9273 71.6093 43.9974 71.6093C49.0676 71.6093 50.2639 71.6404 50.2639 71.7722Z" fill="#E86851"/>
</svg>
