<svg width="88" height="88" viewBox="0 0 88 88" fill="none" xmlns="http://www.w3.org/2000/svg">
<path fill-rule="evenodd" clip-rule="evenodd" d="M21.0625 21.0625C14.5967 27.5285 14 28.1577 14 28.5093C14 29.0234 14.444 29.4688 14.9566 29.4688C15.2991 29.4688 15.6624 29.145 18.537 26.2773L21.7364 23.0858L24.6651 26.0128L27.594 28.9399L23.7267 32.8085C20.053 36.4835 19.8594 36.6986 19.8594 37.1074C19.8594 37.4327 19.9347 37.597 20.1682 37.7805C20.7373 38.2283 20.9643 38.1239 22.3149 36.793C23.0018 36.1162 23.6134 35.5625 23.6742 35.5625C23.735 35.5625 30.15 41.9275 37.9297 49.707C51.4475 63.2245 52.0932 63.8516 52.4945 63.8516C52.8744 63.8516 53.0477 63.7186 54.3144 62.4553L55.7143 61.0589L57.1197 62.4471C58.4615 63.7722 58.5426 63.8318 58.9091 63.7591C59.1668 63.7079 59.543 63.4332 60.0534 62.9237L60.8138 62.1645L66.7358 68.0823C72.1399 73.4825 72.6912 74 73.0412 74C73.5557 74 74 73.5557 74 73.0412C74 72.6912 73.4825 72.1399 68.0823 66.7358L62.1645 60.8138L62.9237 60.0534C63.4332 59.543 63.7079 59.1668 63.7591 58.9091C63.8318 58.5426 63.7722 58.4615 62.4471 57.1197L61.0589 55.7143L62.4553 54.3144C63.7186 53.0477 63.8516 52.8744 63.8516 52.4945C63.8516 52.0932 63.2245 51.4475 49.707 37.9297C41.9275 30.15 35.5625 23.7313 35.5625 23.6657C35.5625 23.6002 36.1162 22.9947 36.793 22.3203C38.1296 20.9882 38.2387 20.7506 37.7805 20.1682C37.597 19.9347 37.4327 19.8594 37.1074 19.8594C36.6986 19.8594 36.4835 20.053 32.8085 23.7267L28.9399 27.594L26.0128 24.6651L23.0858 21.7364L26.2773 18.537C29.145 15.6624 29.4688 15.2991 29.4688 14.9566C29.4688 14.444 29.0234 14 28.5093 14C28.1577 14 27.5285 14.5967 21.0625 21.0625ZM52.959 16.3914C52.4879 16.5966 51.995 17.1951 51.9096 17.6655C51.8718 17.8732 51.8566 20.8209 51.8756 24.2161C51.9096 30.2813 51.9145 30.395 52.1568 30.72C52.5342 31.2261 53.0735 31.4825 53.9002 31.5489L54.6491 31.6091L54.6859 33.5962L54.7227 35.5834L55.064 35.8767C55.6517 36.3818 55.8596 36.2531 58.361 33.8353L60.6357 31.6367L65.8237 31.5781C70.7737 31.5222 71.0303 31.5086 71.4178 31.2811C71.641 31.1498 71.9311 30.8598 72.0623 30.6365C72.2943 30.2415 72.3008 30.0564 72.3008 23.8346V17.4388L71.963 16.996C71.3502 16.1925 71.7845 16.2261 62.0799 16.2311C55.059 16.2349 53.2454 16.2666 52.959 16.3914ZM70.4561 23.873L70.4258 29.6445L65.1246 29.7031L59.8234 29.7617L58.2676 31.3145C57.4119 32.1684 56.6729 32.8672 56.6254 32.8672C56.5779 32.8672 56.5391 32.2607 56.5391 31.5195C56.5391 29.7308 56.5141 29.7031 54.8984 29.7031H53.7266V23.9023V18.1016H62.1065H70.4866L70.4561 23.873ZM62.0469 19.1221C61.4792 19.331 61.4609 19.4143 61.4609 21.8026V24.0611L61.7697 24.3039C62.1614 24.612 62.6335 24.6141 62.9608 24.3092C63.3279 23.9674 63.3563 23.7464 63.3147 21.5664L63.2773 19.6041L62.9485 19.3216C62.6258 19.0442 62.3967 18.9936 62.0469 19.1221ZM36.6171 27.535L39.0171 29.9373L37.0859 31.8711L35.1547 33.805L32.722 31.3743L30.2893 28.9437L32.1922 27.0383C33.2387 25.9903 34.1224 25.1328 34.156 25.1328C34.1895 25.1328 35.2971 26.2139 36.6171 27.535ZM61.7697 25.6101C61.4832 25.8355 61.4609 25.9189 61.4609 26.769C61.4609 27.8916 61.66 28.2266 62.3273 28.2266C62.9374 28.2266 63.2159 27.9027 63.2991 27.0964C63.3362 26.7369 63.332 26.3048 63.2896 26.1363C63.1061 25.4052 62.3591 25.1465 61.7697 25.6101ZM31.8713 37.0848L29.9374 39.0187L27.5067 36.588L25.0759 34.1572L27.0075 32.223L28.9391 30.2887L31.3722 32.7198L33.8053 35.1508L31.8713 37.0848ZM51.0165 41.9345L61.6068 52.5253L57.067 57.0651L52.5271 61.6048L51.3691 60.4511L50.2111 59.2975L51.1941 58.2991C51.7348 57.7501 52.2349 57.1873 52.3053 57.0487C52.6017 56.4654 51.8572 55.5916 51.2305 55.7871C51.0887 55.8312 50.4959 56.3339 49.9133 56.9039L48.8539 57.9402L47.636 56.718L46.418 55.496L46.962 54.9144C47.7622 54.0589 47.8507 53.3149 47.1917 52.9838C46.7286 52.7512 46.2832 52.9179 45.6189 53.5722L45.0523 54.1302L43.8277 52.9096L42.603 51.6891L43.6531 50.6037C44.7178 49.5031 44.8565 49.2236 44.6304 48.6342C44.5474 48.4181 43.9924 48.1016 43.6965 48.1016C43.5875 48.1016 42.9896 48.6015 42.3677 49.2124L41.2371 50.3233L40.0218 49.1039L38.8065 47.8844L39.3538 47.2757C40.1831 46.3535 40.235 45.6801 39.504 45.3316C39.1562 45.1657 39.0802 45.1648 38.7746 45.3232C38.5871 45.4203 38.192 45.7128 37.8968 45.973L37.3599 46.4461L36.1412 45.2231L34.9224 44.0002L36.0042 42.9139C37.0912 41.8223 37.2254 41.5701 37.0132 41.017C36.9302 40.8009 36.3752 40.4844 36.0793 40.4844C35.9703 40.4844 35.3724 40.9843 34.7505 41.5953L33.6198 42.7063L32.4539 41.5359L31.288 40.3655L35.7977 35.8546C38.2781 33.3737 40.3341 31.3438 40.3668 31.3438C40.3995 31.3438 45.1919 36.1095 51.0165 41.9345ZM60.7005 57.9466L61.5158 58.7682L60.142 60.142L58.7682 61.5158L57.9466 60.7005C57.4947 60.252 57.125 59.8319 57.125 59.7668C57.125 59.6095 59.6059 57.125 59.7629 57.125C59.8302 57.125 60.252 57.4947 60.7005 57.9466Z" fill="#E86851"/>
</svg>
