<svg width="88" height="88" viewBox="0 0 88 88" fill="none" xmlns="http://www.w3.org/2000/svg">
<path fill-rule="evenodd" clip-rule="evenodd" d="M49.6436 13.2172C47.3649 13.8299 45.5322 15.8504 44.9841 18.3543C44.8855 18.8052 44.8373 19.687 44.8719 20.4096L44.9323 21.6753L43.6595 21.7558C40.7417 21.9401 37.774 23.6431 36.0773 26.1064C35.6171 26.775 29.2979 39.9669 28.4626 42.0032C27.6281 44.0377 27.2636 46.6868 27.5363 48.7357C27.8411 51.0255 28.2605 52.2419 29.5887 54.6869L30.5038 56.3715V59.6518V62.932L28.537 65.7016C27.4552 67.2249 26.4427 68.8057 26.287 69.2147C25.6683 70.8394 26.0322 72.2109 27.5519 73.9815C28.8062 75.4429 29.671 75.9168 31.0566 75.902C32.5988 75.8856 33.7335 75.1583 34.6098 73.6245C34.8592 73.1878 35.7177 71.7864 36.5178 70.5102C38.2834 67.6933 38.8838 66.4636 39.2779 64.8565L39.579 63.6295L39.9984 64.2917L40.4179 64.9539L40.4882 68.2672L40.5585 71.5805L41.0881 72.6515C41.902 74.2978 43.1596 75.3197 44.9432 75.7843C46.9279 76.3013 48.5519 75.7244 49.46 74.1796L49.8397 73.5336V66.9946V60.4555L49.4724 59.6821C49.2703 59.2567 47.8691 57.3004 46.3586 55.3348L43.6121 51.7611L44.3797 50.6238C44.8018 49.9985 45.4891 48.8054 45.9069 47.9728C46.3247 47.14 46.7055 46.4537 46.753 46.4476C46.8007 46.4415 47.7045 47.1892 48.7616 48.109C51.2082 50.2382 51.5575 50.497 52.3517 50.7676L53.0038 50.9897V63.1469V75.3042L53.349 75.6493C53.8056 76.1061 54.4519 76.1061 54.9086 75.6493L55.2538 75.3042V63.2619V51.2197L56.7908 51.2673C58.0771 51.3071 58.3913 51.3621 58.7157 51.6048C59.3391 52.0707 59.6118 52.5351 59.7404 53.349C59.9366 54.5893 60.895 55.0381 61.6771 54.2559C62.006 53.927 62.0337 53.8157 61.9677 53.087C61.8321 51.5923 60.7559 50.0544 59.4468 49.4848C59.113 49.3394 58.8231 49.211 58.8027 49.1994C58.7824 49.1879 58.8615 48.9491 58.9785 48.6691C59.2617 47.9911 59.2498 46.7026 58.9541 46.0627C58.8176 45.7675 57.1753 43.9932 55.0902 41.8885L51.4638 38.2277L51.4533 33.2401L51.4429 28.2524L52.3513 28.2309C56.089 28.1425 58.8399 24.8632 58.5852 20.7992C58.4423 18.5177 57.6648 16.7975 56.0364 15.1589C54.1836 13.2946 51.9161 12.606 49.6436 13.2172ZM53.2722 15.8116C55.2747 16.8789 56.5367 19.3286 56.3335 21.7541C56.096 24.5908 53.8779 26.4197 51.3163 25.8911C50.9332 25.8121 50.7489 25.6578 50.4846 25.1952C50.0235 24.388 48.8486 23.1686 48.1209 22.7421C47.6212 22.4493 47.4881 22.2741 47.3103 21.6755C47.0399 20.7648 47.0376 19.2941 47.3054 18.3926C48.1155 15.6643 50.8096 14.499 53.2722 15.8116ZM46.5595 24.4164C48.0103 25.0806 48.823 26.1983 49.0632 27.8595C49.1391 28.385 49.2026 31.1567 49.2041 34.019L49.2069 39.2231L53.0741 43.0883C56.5287 46.5412 56.9413 47.0016 56.9413 47.4044C56.9413 47.7533 56.8315 47.939 56.4554 48.2258C55.4462 48.9955 53.9913 49.1535 52.9353 48.6077C52.7023 48.4873 50.5973 46.743 48.2577 44.7316L44.0038 41.0746V36.9423V32.8099L43.6586 32.4648C43.441 32.2471 43.1527 32.1196 42.8788 32.1196C42.6049 32.1196 42.3166 32.2471 42.099 32.4648L41.7538 32.8099V37.3553C41.7538 41.0792 41.7904 41.9529 41.9559 42.1891C42.067 42.3479 42.7631 42.9755 43.5027 43.5841C44.2424 44.1928 44.8475 44.7297 44.8475 44.7773C44.8475 45.0378 42.7891 48.8856 42.1069 49.9002C41.6674 50.5541 40.5697 51.89 39.6675 52.8693C38.7654 53.8485 37.8533 54.9056 37.6405 55.2182L37.2538 55.7869L37.2504 59.7383C37.2484 61.9117 37.1828 63.9746 37.1043 64.3227C36.8786 65.3246 35.7267 67.5382 33.8481 70.5805C32.236 73.1909 32.0722 73.4059 31.5666 73.5724C30.795 73.8265 30.2321 73.6006 29.4326 72.7156C28.5454 71.7336 28.2549 71.2314 28.2544 70.6789C28.2536 70.0356 28.4522 69.6961 30.5679 66.7246C31.5911 65.2875 32.5042 63.9683 32.5971 63.7931C32.7202 63.5611 32.7549 62.3946 32.7248 59.504L32.6835 55.5336L31.793 53.9867C30.1242 51.088 29.7478 49.8256 29.7588 47.1664C29.7642 45.8343 29.8384 45.1388 30.0652 44.2939C30.3764 43.1347 36.8979 29.0438 37.7544 27.68C38.8933 25.8668 40.3804 24.7664 42.4983 24.1702C43.6286 23.8519 45.5855 23.9705 46.5595 24.4164ZM44.6535 56.7992C45.9569 58.5008 47.1666 60.1727 47.3417 60.5144C47.6575 61.1309 47.66 61.1838 47.66 67.0291V72.9225L47.2301 73.3524C46.8309 73.7516 46.747 73.7768 46.0528 73.705C44.7104 73.5665 43.6001 72.7544 43.0305 71.4946C42.7705 70.9197 42.7441 70.5744 42.7413 67.7258C42.7377 64.1146 42.9222 64.7394 40.8956 61.4801L39.5038 59.2418V57.8694V56.4969L40.8027 55.0009C41.5171 54.178 42.1426 53.55 42.1927 53.6052C42.2427 53.6604 43.3502 55.0977 44.6535 56.7992Z" fill="#E86851"/>
</svg>
