<svg width="264" height="406" viewBox="0 0 264 406" fill="none" xmlns="http://www.w3.org/2000/svg">
<path d="M-129.602 260.994C-129.602 187.941 -70.1126 128.51 2.94681 128.51C76.0063 128.51 135.495 187.972 135.495 260.994C135.495 334.015 75.9959 393.478 2.99855 393.478C-69.9988 393.478 -129.602 334.067 -129.602 260.994ZM132.11 260.994C132.094 226.757 118.487 193.926 94.278 169.714C70.0694 145.502 37.2389 131.888 2.99855 131.863C-68.1459 131.863 -126.289 189.69 -126.289 261.025C-126.289 332.359 -68.1977 390.29 2.99855 390.29C74.1948 390.29 132.11 332.297 132.11 260.994Z" fill="#E2F2D9"/>
<path d="M-84.7187 260.995C-84.7228 243.647 -79.5818 226.687 -69.9458 212.261C-60.3099 197.835 -46.6118 186.59 -30.584 179.948C-14.5562 173.306 3.08142 171.567 20.0982 174.948C37.115 178.33 52.7465 186.682 65.016 198.948C77.2855 211.213 85.6418 226.841 89.0281 243.856C92.4144 260.87 90.6784 278.506 84.04 294.534C77.4015 310.562 66.1586 324.261 51.7332 333.9C37.3078 343.538 20.3478 348.683 2.99815 348.683C-20.2564 348.664 -42.5532 339.42 -58.9986 322.98C-75.4439 306.54 -84.6941 284.247 -84.7187 260.995ZM88.1479 260.995C88.1316 244.154 83.1219 227.696 73.7524 213.702C64.3829 199.707 51.0742 188.805 35.5086 182.372C19.9431 175.94 2.81976 174.266 -13.6968 177.563C-30.2134 180.86 -45.3815 188.98 -57.2837 200.895C-69.1859 212.811 -77.2878 227.988 -80.5651 244.507C-83.8423 261.026 -82.1479 278.145 -75.6959 293.701C-69.244 309.258 -58.3242 322.552 -44.3171 331.904C-30.3099 341.255 -13.8443 346.244 2.99815 346.24C25.5795 346.185 47.2184 337.182 63.1732 321.204C79.1281 305.225 88.0977 283.574 88.1169 260.995H88.1479Z" fill="#E2F2D9"/>
<path d="M-76.1699 260.991C-76.1617 245.346 -71.5152 230.055 -62.8176 217.051C-54.1201 204.046 -41.762 193.912 -27.3054 187.929C-12.8488 181.946 3.05719 180.382 18.4021 183.436C33.7471 186.49 47.8421 194.025 58.9054 205.087C69.9688 216.15 77.5039 230.243 80.5583 245.587C83.6127 260.93 82.0493 276.835 76.0656 291.29C70.0819 305.745 59.9466 318.102 46.9409 326.799C33.9351 335.495 18.6428 340.142 2.99682 340.15C-17.9928 340.128 -38.1164 331.781 -52.9583 316.94C-67.8002 302.1 -76.148 281.978 -76.1699 260.991ZM79.6999 260.991C79.6938 245.823 75.19 230.998 66.758 218.389C58.326 205.781 46.3445 195.955 32.3283 190.155C18.3121 184.355 2.89065 182.84 -11.9863 185.803C-26.8632 188.766 -40.5274 196.073 -51.2514 206.8C-61.9755 217.528 -69.2776 231.194 -72.2347 246.07C-75.1918 260.947 -73.671 276.366 -67.8647 290.379C-62.0583 304.391 -52.227 316.368 -39.6139 324.794C-27.0008 333.22 -12.1723 337.717 2.99682 337.717C23.3334 337.679 42.8255 329.582 57.2028 315.2C71.58 300.819 79.6698 281.325 79.6999 260.991Z" fill="#E2F2D9"/>
<path d="M88.6133 248.967L132.555 243.43L133 245.862L88.841 251.399L88.6133 248.967Z" fill="#E2F2D9"/>
<path d="M86.3984 238.29L129.46 227.277L130.008 229.71L87.0091 240.66L86.3984 238.29Z" fill="#E2F2D9"/>
<path d="M77.9922 218.249L117.058 196.834L118.166 199.049L79.2654 220.412L77.9922 218.249Z" fill="#E2F2D9"/>
<path d="M72.0703 209.171L108.093 183.109L109.428 185.045L73.4471 211.107L72.0703 209.171Z" fill="#E2F2D9"/>
<path d="M65.1465 200.931L97.4736 170.49L99.1298 172.26L66.6992 202.7L65.1465 200.931Z" fill="#E2F2D9"/>
<path d="M56.959 193.627L85.3008 159.43L87.2365 160.972L58.8429 195.18L56.959 193.627Z" fill="#E2F2D9"/>
<path d="M47.9434 187.32L71.9584 149.852L74.0079 151.125L50.0964 188.696L47.9434 187.32Z" fill="#E2F2D9"/>
<path d="M38.4197 182.281L57.404 142.049L59.6192 143.156L40.6867 183.222L38.4197 182.281Z" fill="#E2F2D9"/>
<path d="M28.4004 178.409L42.1262 136.18L44.4553 136.956L30.7812 179.237L28.4004 178.409Z" fill="#E2F2D9"/>
<path d="M17.8828 175.913L26.1949 132.256L28.5136 132.639L20.3257 176.359L17.8828 175.913Z" fill="#E2F2D9"/>
<path d="M6.98242 174.706L9.80831 130.324L12.2409 130.542L9.47706 174.924L6.98242 174.706Z" fill="#E2F2D9"/>
<path d="M7.20117 347.523L9.69581 347.295L12.3561 391.677L9.91321 391.791L7.20117 347.523Z" fill="#E2F2D9"/>
<path d="M17.9961 346.463L20.3251 345.801L28.6268 389.407L26.2978 389.852L17.9961 346.463Z" fill="#E2F2D9"/>
<path d="M28.5137 343.7L30.8945 343.037L44.4547 385.194L42.1257 385.918L28.5137 343.7Z" fill="#E2F2D9"/>
<path d="M38.6367 339.939L40.914 338.779L59.6188 378.949L57.4036 380.005L38.6367 339.939Z" fill="#E2F2D9"/>
<path d="M48.1602 334.791L50.3132 333.404L74.1212 371.038L72.0716 372.363L48.1602 334.791Z" fill="#E2F2D9"/>
<path d="M57.0742 328.537L59.0617 326.984L87.2379 361.182L85.3022 362.683L57.0742 328.537Z" fill="#E2F2D9"/>
<path d="M65.1465 321.238L66.813 319.303L99.1298 349.795L97.4736 351.565L65.1465 321.238Z" fill="#E2F2D9"/>
<path d="M72.2891 312.939L73.6761 310.838L109.43 337.066L108.094 338.949L72.2891 312.939Z" fill="#E2F2D9"/>
<path d="M78.0957 303.746L79.4827 301.645L118.166 323.111L117.058 325.326L78.0957 303.746Z" fill="#E2F2D9"/>
<path d="M82.8574 294.064L83.8615 291.684L125.029 308.172L124.263 310.438L82.8574 294.064Z" fill="#E2F2D9"/>
<path d="M86.5625 283.826L87.0076 281.332L129.903 292.459L129.458 294.891L86.5625 283.826Z" fill="#E2F2D9"/>
<path d="M88.7266 273.145L88.9439 270.547L132.896 276.302L132.554 278.786L88.7266 273.145Z" fill="#E2F2D9"/>
<path d="M124.254 211.657C180.813 190.077 234.723 259.269 235.168 259.921L235.385 260.024L233.45 262.032L233.118 261.815C232.456 260.925 179.82 193.41 125.144 214.276L124.254 211.657Z" fill="#E2F2D9"/>
<path d="M124.254 309.887L125.144 307.278C179.602 328.093 232.456 260.578 233.118 259.801L233.45 259.584L235.385 261.354L235.168 261.799C233.005 264.449 180.596 331.239 124.254 309.887Z" fill="#E2F2D9"/>
<path d="M129.129 226.318L133.425 224.766C171.725 210.606 207.747 251.997 214.444 260.298L214.662 260.516L213.564 261.623L213.223 261.406C206.474 253.043 171.279 212.594 133.973 226.215L129.657 227.922L129.129 226.318Z" fill="#E2F2D9"/>
<path d="M129.129 295.146L129.678 293.707L133.994 295.373C167.594 307.659 200.128 275.553 212.664 261.217L212.995 260.783V260.555L213.554 259.893L214.434 260.783H214.651V261.445L213.885 262.273C201.205 276.826 167.998 309.647 133.414 296.967L129.129 295.146Z" fill="#E2F2D9"/>
<path d="M67.5781 147.357L69.5759 143.155C86.5624 106.069 141.186 109.723 152.055 110.913L152.159 110.799L152.272 112.466L151.941 112.569C141.145 111.462 87.6286 107.705 70.9216 143.786L68.9755 147.988L67.5781 147.357Z" fill="#E2F2D9"/>
<path d="M115.619 194.503L119.884 192.619C152.314 177.621 152.749 131.749 151.321 112.828V112.27L151.093 112.104V111.276H152.201L152.428 111.059L152.863 111.493V112.715C154.364 132.08 153.898 178.677 120.433 194.006L116.178 195.942L115.619 194.503Z" fill="#E2F2D9"/>
<path d="M-36.2129 114.382C-36.2129 82.72 -4.92093 55.3848 2.27323 49.4644L2.38711 49.2988L3.60855 50.4063L3.38083 50.6237C-4.90022 57.4859 -45.4255 92.9047 -31.7308 129.928L-30.1574 134.296L-31.7308 134.958L-33.418 130.58C-35.2537 125.376 -36.1986 119.9 -36.2129 114.382Z" fill="#E2F2D9"/>
<path d="M1.96094 50.4063L2.73728 49.4644V49.2988H3.29626L4.33139 50.1889C18.8232 62.7956 51.4815 96.1133 38.8115 130.538L36.9794 134.958L35.5406 134.296L37.2071 129.928C49.6287 96.5584 17.6121 63.8514 3.10992 51.2654L2.67518 50.9342H2.44745L1.96094 50.4063Z" fill="#E2F2D9"/>
<path d="M2.38672 471.631L2.83182 471.134C14.4046 461.56 50.8722 427.477 37.695 392.058L36.0388 387.69L37.5915 387.193L39.227 391.406C52.7872 427.984 15.6467 462.626 3.97047 472.314L3.52537 472.811L2.38672 471.631Z" fill="#E2F2D9"/>
<path d="M-35.6637 407.721C-35.7192 402.21 -34.7722 396.735 -32.8688 391.564L-31.1713 387.082L-29.5978 387.693L-31.2851 392.061C-43.7067 425.596 -11.5348 458.303 2.87419 470.723L3.31929 471.158H3.53666L4.09563 471.551L2.9984 472.855L2.88455 472.741H2.66715L1.8908 471.975C-10.5308 461.232 -35.6637 436.06 -35.6637 407.721Z" fill="#E2F2D9"/>
<path d="M115.951 327.24L116.614 325.75L120.827 327.686C156.466 343.956 154.582 394.807 153.143 409.919V410.302L151.425 410.416V409.805C152.864 394.807 154.81 344.95 120.216 329.072L115.951 327.24Z" fill="#E2F2D9"/>
<path d="M68.0234 374.349L69.4623 373.572L71.398 377.888C86.397 410.492 132.108 410.709 151.206 409.322H151.755L151.869 409.105H152.645L152.863 410.595H152.749V410.823H152.645L152.428 410.927L151.393 411.04C131.974 412.427 85.2583 412.075 69.9901 378.613L68.0234 374.349Z" fill="#E2F2D9"/>
<path d="M53.5234 140.384C78.9255 84.7715 165.545 95.8774 166.425 96.1154L166.539 98.7754H166.094C165.214 98.6616 80.6438 87.711 56.1216 141.491L53.5234 140.384Z" fill="#E2F2D9"/>
<path d="M122.266 207.567C175.554 183.44 164.985 98.5467 164.882 97.6048V96.8906H167.584V97.4599C167.801 98.1327 178.484 185.065 123.249 210.02L122.266 207.567Z" fill="#E2F2D9"/>
<path d="M-50.6014 117.12C-50.6014 74.3425 -8.84425 37.5989 1.61056 29.0702C1.73582 28.823 1.92664 28.6151 2.16215 28.469C2.39765 28.323 2.66878 28.2445 2.94588 28.2422V30.954C3.22823 30.9571 3.50087 30.8512 3.70716 30.6585C3.91346 30.4657 4.03749 30.2008 4.05345 29.9189V30.5814L3.60835 30.9126C-7.71597 40.1036 -62.9401 88.036 -43.8524 138.856L-46.4505 139.891C-49.2048 132.616 -50.6113 124.9 -50.6014 117.12Z" fill="#E2F2D9"/>
<path d="M1.39453 30.5954V29.933C1.39453 30.2075 1.50357 30.4708 1.6977 30.6649C1.89182 30.859 2.15513 30.968 2.42966 30.968V28.2148C2.71931 28.2229 3.00241 28.3028 3.25355 28.4473C3.50469 28.5918 3.71599 28.7965 3.86847 29.0429C15.9898 39.0102 71.4417 87.812 51.9089 139.791L49.3624 138.756C68.3984 88.1742 13.1329 40.0246 1.98453 30.8438L1.39453 30.5954Z" fill="#E2F2D9"/>
<path d="M1.96259 492.171V491.561L2.40769 491.126C13.5871 482.049 68.9355 434.127 49.7856 383.213L52.2181 382.271C72.0926 434.344 16.5786 483.094 4.509 492.896C4.1202 493.368 3.57129 493.681 2.96667 493.776V491.012C2.82225 491.015 2.68011 491.049 2.5494 491.11C2.41869 491.172 2.3023 491.26 2.20773 491.369C2.11315 491.478 2.0425 491.606 2.00028 491.744C1.95806 491.882 1.94522 492.028 1.96259 492.171Z" fill="#E2F2D9"/>
<path d="M-50.0212 404.864C-50.0457 397.132 -48.642 389.461 -45.8806 382.238L-43.3032 383.18C-62.215 434.011 -7.15643 482.046 4.03332 491.124L4.58194 491.558V492.169C4.60082 492.017 4.58559 491.862 4.53737 491.716C4.48915 491.571 4.40914 491.438 4.30313 491.327C4.19712 491.216 4.06777 491.13 3.92443 491.075C3.78109 491.02 3.62735 490.998 3.47434 491.01V493.773C3.19295 493.767 2.91917 493.681 2.6847 493.525C2.45022 493.369 2.26463 493.15 2.14938 492.894C-8.29508 484.561 -50.0212 447.901 -50.0212 404.864Z" fill="#E2F2D9"/>
<path d="M122.596 314.374L123.631 311.828C179.31 337.062 168.069 423.549 167.965 424.491L165.253 424.605V424.057C165.316 423.218 176.329 338.553 122.596 314.374Z" fill="#E2F2D9"/>
<path d="M53.9668 381.326L56.5132 380.219C80.6318 433.678 165.512 422.997 166.32 422.997H166.982V425.708H166.547C165.761 425.822 79.0376 436.669 53.9668 381.326Z" fill="#E2F2D9"/>
<path d="M234.39 260.145H213.801V261.801H234.39V260.145Z" fill="#E2F2D9"/>
<path d="M206.492 252.391L218.997 244.09L220.001 245.415L207.434 253.664L206.492 252.391Z" fill="#E2F2D9"/>
<path d="M197.758 243.872L210.148 236.006L211.039 237.445L198.638 245.249L197.758 243.872Z" fill="#E2F2D9"/>
<path d="M184.963 234.237L196.318 225.719L197.416 227.044L186.133 235.572L184.963 234.237Z" fill="#E2F2D9"/>
<path d="M191.391 238.888L202.404 229.986L203.398 231.363L192.498 240.109L191.391 238.888Z" fill="#E2F2D9"/>
<path d="M165.988 224.611L177.716 215.316L178.71 216.641L166.982 225.884L165.988 224.611Z" fill="#E2F2D9"/>
<path d="M152.43 221.954L166.093 212.328L166.984 213.663L153.372 223.289L152.43 221.954Z" fill="#E2F2D9"/>
<path d="M136.82 223.727L152.213 208.781L153.476 210.003L138.207 224.886L136.82 223.727Z" fill="#E2F2D9"/>
<path d="M128.631 223.943L136.819 209.111L138.309 209.888L130.121 224.72L128.631 223.943Z" fill="#E2F2D9"/>
<path d="M210.375 256.262L227.31 252.174L227.641 253.882L210.81 257.701L210.375 256.262Z" fill="#E2F2D9"/>
<path d="M151.539 111.273L151.767 111.055L165.876 96.834L167.252 97.9932L166.755 98.3245L152.647 112.494L151.539 111.273Z" fill="#E2F2D9"/>
<path d="M140.855 110.949L143.681 96.293L145.4 96.676L142.408 111.28L140.855 110.949Z" fill="#E2F2D9"/>
<path d="M128.631 111.174L131.788 96.8906L133.444 97.2218L130.235 111.505L128.631 111.174Z" fill="#E2F2D9"/>
<path d="M112.856 113.328L114.74 99.2207L116.292 99.5519L114.408 113.608L112.856 113.328Z" fill="#E2F2D9"/>
<path d="M120.434 112.113L122.048 98.1094L123.591 98.2232L122.266 112.279L120.434 112.113Z" fill="#E2F2D9"/>
<path d="M92.4844 119.91L94.151 105.191L95.7554 105.419L94.151 120.189L92.4844 119.91Z" fill="#E2F2D9"/>
<path d="M81.0879 127.658L83.862 111.273L85.5182 111.501L82.6406 127.989L81.0879 127.658Z" fill="#E2F2D9"/>
<path d="M71.2969 139.835L71.6281 118.482H73.2326L73.0152 139.835H71.2969Z" fill="#E2F2D9"/>
<path d="M146.176 110.837L155.357 96.2227L156.682 96.9989L147.615 111.717L146.176 110.837Z" fill="#E2F2D9"/>
<path d="M152.098 120.913L166.869 118.139L167.252 119.691L152.315 122.569L152.098 120.913Z" fill="#E2F2D9"/>
<path d="M151.869 133.198L166.32 130.207L166.754 131.863L152.211 134.854L151.869 133.198Z" fill="#E2F2D9"/>
<path d="M149.934 149.296L164.322 147.475L164.539 149.079L150.151 150.901L149.934 149.296Z" fill="#E2F2D9"/>
<path d="M151.322 141.437L165.545 140.061L165.659 141.717L151.436 143.041L151.322 141.437Z" fill="#E2F2D9"/>
<path d="M143.682 169.662L158.681 168.172L158.795 169.88L143.899 171.267L143.682 169.662Z" fill="#E2F2D9"/>
<path d="M135.93 181.226L152.647 178.576L152.864 180.232L136.271 182.892L135.93 181.226Z" fill="#E2F2D9"/>
<path d="M151.539 115.703L166.321 106.512L167.252 107.961L152.315 117.09L151.539 115.703Z" fill="#E2F2D9"/>
<path d="M2.2832 50.0725V49.7413V29.5996H3.82554V30.1482V50.1864L2.2832 50.0725Z" fill="#E2F2D9"/>
<path d="M9.36328 56.5549L17.8824 44.1035L19.1039 45.0454L10.6883 57.4347L9.36328 56.5549Z" fill="#E2F2D9"/>
<path d="M17.9961 65.2952L26.0805 52.9473L27.4054 53.9409L19.321 66.2267L17.9961 65.2952Z" fill="#E2F2D9"/>
<path d="M27.9551 77.968L36.7019 66.6758L38.0269 67.5659L29.1765 78.9616L27.9551 77.968Z" fill="#E2F2D9"/>
<path d="M23.2559 71.5518L32.2822 60.5391L33.6072 61.5844L24.6429 72.5972L23.2559 71.5518Z" fill="#E2F2D9"/>
<path d="M37.8086 96.8894L47.4974 85.3281L48.6567 86.3735L38.9782 97.9969L37.8086 96.8894Z" fill="#E2F2D9"/>
<path d="M40.582 110.614L50.4261 96.9512L51.7614 97.9966L41.907 111.618L40.582 110.614Z" fill="#E2F2D9"/>
<path d="M38.8652 125.835L54.1955 110.506L55.3548 111.613L39.9728 126.994L38.8652 125.835Z" fill="#E2F2D9"/>
<path d="M38.9786 133.915L54.1951 125.779L54.9093 127.218L39.8585 135.405L38.9786 133.915Z" fill="#E2F2D9"/>
<path d="M5.16016 53.23L9.13508 36.2969L10.8016 36.6798L6.76459 53.5612L5.16016 53.23Z" fill="#E2F2D9"/>
<path d="M118.062 323.561L134.221 318.852L134.77 320.57L118.394 325.331L118.062 323.561Z" fill="#E2F2D9"/>
<path d="M73.1168 381.936H71.3984V403.744H73.1168V381.936Z" fill="#E2F2D9"/>
<path d="M60.7266 392.512L65.8091 376.014L67.3618 376.345L62.2689 392.947L60.7266 392.512Z" fill="#E2F2D9"/>
<path d="M133.992 259.806C171.184 258.978 178.503 231.146 178.503 230.918L180.821 231.477C180.821 231.808 173.079 261.358 134.003 262.186L133.992 259.806Z" fill="#E2F2D9"/>
<path d="M133.992 262.846V260.352C173.068 261.128 180.811 290.243 180.811 290.367L178.492 291.03C178.265 289.974 171.071 263.457 133.992 262.846Z" fill="#E2F2D9"/>
<path d="M162.77 260.131C182.033 259.914 190.884 250.226 195.097 242.039L196.535 242.753C192.395 251.282 182.924 261.57 162.77 261.798V260.131Z" fill="#E2F2D9"/>
<path d="M162.77 262.185V260.467C183.855 261.026 192.788 272.204 196.204 278.952L194.869 279.729C191.494 273.415 182.924 262.63 162.77 262.185Z" fill="#E2F2D9"/>
<path d="M156.797 349.893C158.567 348.009 174.839 330.527 204.941 342.699L204.175 345.028C175.553 333.404 160.285 349.675 158.629 351.549L156.797 349.893Z" fill="#E2F2D9"/>
<path d="M175.998 305.846H178.493C178.493 314.923 181.815 331.856 205.054 342.206L204.019 344.587C179.6 333.45 175.998 315.585 175.998 305.846Z" fill="#E2F2D9"/>
<path d="M148.826 334.678C154.002 331.139 164.985 326.15 181.143 332.96L180.48 334.451C165.212 328.096 154.695 332.743 149.82 336.055L148.826 334.678Z" fill="#E2F2D9"/>
<path d="M159.955 311.273L161.673 310.838C163.216 317.359 168.029 326.363 181.341 332.749L180.678 334.302C166.549 327.44 161.673 318.031 159.955 311.273Z" fill="#E2F2D9"/>
<path d="M174.623 213.763C174.623 207.895 176.693 187.422 203.607 175.912L204.642 178.231C176.259 190.185 177.025 212.325 177.025 214.974L174.654 215.088L174.623 213.763Z" fill="#E2F2D9"/>
<path d="M156.912 170.376L158.786 168.658C165.214 175.024 179.602 184.432 203.296 175.583L204.186 177.849C179.157 187.309 163.879 177.156 156.912 170.376Z" fill="#E2F2D9"/>
<path d="M158.268 209.996C159.303 203.786 163.578 192.514 179.85 186.035L180.513 187.422C164.913 193.725 160.845 204.355 159.872 210.276L158.268 209.996Z" fill="#E2F2D9"/>
<path d="M149.604 185.49L150.38 184.104C156.135 187.54 165.762 190.521 179.819 185.594L180.378 187.198C165.648 192.291 155.576 189.082 149.604 185.49Z" fill="#E2F2D9"/>
<path d="M80.3628 79.3968C80.5165 72.3541 82.0131 65.4054 84.7725 58.9238L87.0394 59.9589C75.4563 88.5361 91.6043 103.668 93.4779 105.241L91.8217 107.177C88.1313 103.563 85.2129 99.2369 83.2433 94.4618C81.2736 89.6867 80.2937 84.5616 80.3628 79.3968Z" fill="#E2F2D9"/>
<path d="M47.7148 88.0393V85.5448C56.8447 85.5448 73.6759 82.1706 84.1824 58.9238L86.5632 59.9589C75.0008 85.3275 55.5715 88.0393 47.7148 88.0393Z" fill="#E2F2D9"/>
<path d="M71.5131 98.3286C71.6559 93.0293 72.8413 87.81 75.0015 82.9688L76.4403 83.5173C69.7948 99.0428 74.6703 109.393 77.8792 114.289L76.7716 115.169C73.2916 110.248 71.4515 104.355 71.5131 98.3286Z" fill="#E2F2D9"/>
<path d="M52.7559 102.424C59.1737 100.758 68.3552 95.9968 74.7834 82.6035L76.1084 83.2763C69.3593 97.332 59.8362 102.311 53.0871 103.977L52.7559 102.424Z" fill="#E2F2D9"/>
<path d="M115.402 147.469C129.014 133.516 128.29 120.402 125.36 111.718L126.965 111.273C129.563 118.695 131.447 133.351 116.51 148.679L115.402 147.469Z" fill="#E2F2D9"/>
<path d="M115.619 147.69C130.784 133.199 145.286 134.855 152.201 137.008L151.869 138.612C145.069 136.46 131.343 134.959 116.613 148.911L115.619 147.69Z" fill="#E2F2D9"/>
<path d="M-16.0078 68.8859L-15.2418 67.4473C-8.2961 70.8732 3.49401 79.9505 3.82525 101.251H2.27255C1.96202 81.9274 -7.81993 72.9743 -16.0078 68.8859Z" fill="#E2F2D9"/>
<path d="M2.38672 101.26C2.94569 80.1765 14.2907 71.2441 20.7602 67.7871L21.5366 69.1637C15.3258 72.4862 4.60188 81.0666 4.05326 101.374L2.38672 101.26Z" fill="#E2F2D9"/>
<path d="M115.402 374.686L116.51 373.361C130.319 386.868 143.568 386.237 152.201 383.432L152.646 384.985C145.39 387.531 130.567 389.404 115.402 374.686Z" fill="#E2F2D9"/>
<path d="M115.07 374.68L116.178 373.572C130.784 388.746 129.231 403.35 126.964 410.378L125.246 410.036C127.409 403.133 129.127 389.398 115.07 374.68Z" fill="#E2F2D9"/>
<path d="M94.752 167.498C120.434 140.66 105.993 115.809 105.88 115.747L107.877 114.422C108.095 114.743 123.591 141.095 96.491 169.279L94.752 167.498Z" fill="#E2F2D9"/>
<path d="M95.1953 167.942C123.258 140.876 149.384 155.874 149.602 156.102L148.38 158.089C147.345 157.592 123.537 143.919 96.9136 169.661L95.1953 167.942Z" fill="#E2F2D9"/>
<path d="M-27.1348 85.5446L-26.5861 83.1641C-26.2239 83.2779 3.38086 90.9164 4.27107 129.927L1.83851 130.03C0.927595 92.9037 -25.9858 85.762 -27.1348 85.5446Z" fill="#E2F2D9"/>
<path d="M2.27344 129.927C3.04978 90.9164 32.0024 83.2779 32.3854 83.1641L33.0479 85.5446C31.7747 85.762 5.49271 92.9037 4.71636 130.051L2.27344 129.927Z" fill="#E2F2D9"/>
<path d="M1.83789 392.059H4.27045C4.93293 429.133 31.7739 436.223 33.0471 436.441L32.4984 438.935C31.9809 438.821 2.50037 431.131 1.83789 392.059Z" fill="#E2F2D9"/>
<path d="M-27.1348 436.441C-26.0065 436.223 0.399693 429.133 1.16569 392.059H3.60858C2.83223 431.131 -26.2239 438.821 -26.4723 438.935L-27.1348 436.441Z" fill="#E2F2D9"/>
<path d="M94.752 354.602L96.5323 352.77C123.259 378.5 148.165 363.948 148.382 363.834L149.603 365.904C149.386 366.111 122.928 381.543 94.752 354.602Z" fill="#E2F2D9"/>
<path d="M94.2559 354.983L96.1605 353.213C123.074 381.438 108.064 407.386 107.847 407.718L105.849 406.341C106.439 405.337 119.968 381.656 94.2559 354.983Z" fill="#E2F2D9"/>
<path d="M164.768 144.262L164.881 145.525L164.985 144.262C167.22 143.899 169.48 143.712 171.744 143.703C184.418 143.725 196.567 148.769 205.529 157.73C214.491 166.691 219.535 178.838 219.557 191.511C219.557 206.674 212.58 220.958 200.687 229.538L199.082 227.375C204.662 223.214 209.187 217.801 212.292 211.572C215.397 205.343 216.996 198.471 216.959 191.511C216.926 179.543 212.143 168.078 203.661 159.634C195.18 151.19 183.693 146.458 171.724 146.477C169.575 146.512 167.429 146.657 165.295 146.912L164.861 145.525L164.768 144.262Z" fill="#E2F2D9"/>
<path d="M34.7148 64.0702L35.1496 63.3561C36.371 61.8035 37.696 60.3131 39.1969 58.7088C48.1974 49.7407 60.3859 44.7051 73.0923 44.7051C85.7987 44.7051 97.9871 49.7407 106.988 58.7088C112.242 63.8916 116.198 70.2408 118.537 77.2404C120.875 84.24 121.528 91.6925 120.444 98.9922L117.846 98.5471C118.851 91.6813 118.221 84.6753 116.009 78.0985C113.797 71.5216 110.064 65.5593 105.114 60.696C100.929 56.4869 95.9537 53.1466 90.4733 50.8673C84.9929 48.5879 79.1158 47.4145 73.1802 47.4145C67.2446 47.4145 61.3676 48.5879 55.8872 50.8673C50.4068 53.1466 45.4312 56.4869 41.2465 60.696C39.8115 62.0399 38.5146 63.5239 37.3751 65.126L36.8265 65.7884L34.7148 64.0702Z" fill="#E2F2D9"/>
<path d="M164.984 378.614L165.429 376.016C174.779 377.266 184.284 375.557 192.612 371.128C200.94 366.699 207.671 359.773 211.86 351.323C216.049 342.873 217.485 333.323 215.968 324.014C214.45 314.706 210.054 306.106 203.398 299.424C201.754 297.822 200.026 296.309 198.222 294.89L199.941 292.82C201.817 294.246 203.607 295.78 205.303 297.416C214.263 306.399 219.295 318.569 219.295 331.256C219.295 343.944 214.263 356.113 205.303 365.097C200.104 370.34 193.749 374.293 186.748 376.641C179.747 378.988 172.294 379.664 164.984 378.614Z" fill="#E2F2D9"/>
<path d="M36.4844 66.3478C45.8028 58.3931 57.7749 54.2382 70.0182 54.71C82.2615 55.1818 93.8783 60.2457 102.557 68.8939C110.83 76.8917 115.773 87.7207 116.396 99.21L114.626 99.3239C113.85 88.3372 109.13 78.0008 101.335 70.2188C92.9726 61.9327 81.8052 57.0854 70.0407 56.635C58.2762 56.1846 46.7708 60.164 37.799 67.7864L36.4844 66.3478Z" fill="#E2F2D9"/>
<path d="M164.539 372.579C175.596 371.971 186.022 367.24 193.761 359.321C202.09 350.975 206.976 339.802 207.447 328.022C207.919 316.241 203.942 304.713 196.307 295.728L197.746 294.693C205.657 304.027 209.775 315.991 209.284 328.217C208.794 340.442 203.73 352.038 195.096 360.708C187.081 368.962 176.255 373.901 164.767 374.546L164.539 372.579Z" fill="#E2F2D9"/>
<path d="M164.322 149.07L164.478 147.135C176.667 148.139 188.038 153.675 196.346 162.649C204.655 171.624 209.299 183.386 209.361 195.616C209.443 207.146 205.254 218.299 197.602 226.925L196.049 225.652C203.447 217.412 207.507 206.71 207.435 195.636C207.391 183.885 202.936 172.579 194.952 163.955C186.967 155.332 176.036 150.019 164.322 149.07Z" fill="#E2F2D9"/>
<path d="M201.961 217.519C205.387 215.449 209.207 213.203 213.14 210.998L214.02 212.654C210.149 214.869 206.381 216.97 202.955 219.185L201.961 217.519Z" fill="#E2F2D9"/>
<path d="M216.959 202.688C215.52 203.578 214.133 204.354 212.819 205.296C210.604 206.569 208.44 208.008 206.287 209.053" fill="#E2F2D9"/>
<path d="M217.891 195.064C215.241 196.772 212.477 198.439 209.817 200.043C209.206 200.26 208.429 200.923 207.881 201.078" fill="#E2F2D9"/>
<path d="M208.098 194.004C211.369 192.068 215.012 190.185 217.89 188.301L208.098 194.004Z" fill="#E2F2D9"/>
<path d="M207.664 186.981C210.925 184.983 214.134 183.11 217.177 181.443L207.664 186.981Z" fill="#E2F2D9"/>
<path d="M205.883 180.889C208.926 179.005 212.301 177.297 215.292 175.352L205.883 180.889Z" fill="#E2F2D9"/>
<path d="M203.812 175.355C206.68 173.534 209.785 171.598 212.777 169.932L203.812 175.355Z" fill="#E2F2D9"/>
<path d="M200.707 169.66C203.812 168.055 206.731 166.058 209.506 164.484L200.707 169.66Z" fill="#E2F2D9"/>
<path d="M196.98 164.734C199.905 163.292 202.715 161.628 205.386 159.756L196.98 164.734Z" fill="#E2F2D9"/>
<path d="M192.602 160.599C195.2 158.994 197.974 157.39 200.686 155.672L192.602 160.599Z" fill="#E2F2D9"/>
<path d="M187.344 156.206C190.07 154.847 192.696 153.293 195.2 151.559L187.344 156.206Z" fill="#E2F2D9"/>
<path d="M188.898 148.295C186.613 149.8 184.25 151.182 181.818 152.435C181.818 152.435 181.486 152.435 181.486 152.715" fill="#E2F2D9"/>
<path d="M181.04 145.803C180.264 146.476 179.601 146.693 178.97 147.241C177.335 148.076 175.749 149.002 174.219 150.015" fill="#E2F2D9"/>
<path d="M165.213 148.023C166.988 147.114 168.715 146.116 170.389 145.031L165.213 148.023Z" fill="#E2F2D9"/>
<path d="M36.4844 66.3478C45.8028 58.3931 57.7749 54.2382 70.0182 54.71C82.2615 55.1818 93.8783 60.2457 102.557 68.8939C110.83 76.8917 115.773 87.7207 116.396 99.21L114.626 99.3239C113.85 88.3372 109.13 78.0008 101.335 70.2188C92.9726 61.9327 81.8052 57.0854 70.0407 56.635C58.2762 56.1846 46.7708 60.164 37.799 67.7864L36.4844 66.3478Z" fill="#E2F2D9"/>
<path d="M112.856 89.5823C113.746 85.7113 114.843 81.7264 116.178 77.0273L118.052 77.5241C116.613 82.1714 115.619 86.1563 114.74 90.1412L112.856 89.5823Z" fill="#E2F2D9"/>
<path d="M113.074 68.6152C112.577 70.1057 112.246 71.6582 111.801 73.2108C111.342 75.7091 110.695 78.1691 109.865 80.5698" fill="#E2F2D9"/>
<path d="M108.321 62.3672C107.648 65.4102 106.872 68.5774 106.106 71.6825C105.86 72.4045 105.673 73.1453 105.547 73.8975" fill="#E2F2D9"/>
<path d="M100.684 68.5473C101.563 64.904 102.754 61.033 103.613 57.5449L100.684 68.5473Z" fill="#E2F2D9"/>
<path d="M95.1973 63.9026C96.2324 60.2593 97.2675 56.6057 98.137 53.2832L95.1973 63.9026Z" fill="#E2F2D9"/>
<path d="M89.834 60.8581C90.6103 57.3183 91.7076 53.9441 92.4839 50.4043L89.834 60.8581Z" fill="#E2F2D9"/>
<path d="M84.2969 58.482C85.0732 55.056 85.9634 51.5162 86.8951 48.2559L84.2969 58.482Z" fill="#E2F2D9"/>
<path d="M78.0957 56.6035C79.255 53.281 79.9279 49.7412 80.756 46.75L78.0957 56.6035Z" fill="#E2F2D9"/>
<path d="M72.0703 55.827C73.0644 52.6985 73.8936 49.52 74.5546 46.3047L72.0703 55.827Z" fill="#E2F2D9"/>
<path d="M66.0371 56.0594C66.8031 52.8508 67.576 49.7457 68.3558 46.7441L66.0371 56.0594Z" fill="#E2F2D9"/>
<path d="M59.1738 56.6089C60.1605 53.6981 60.9354 50.7198 61.4925 47.6973L59.1738 56.6089Z" fill="#E2F2D9"/>
<path d="M54.6921 49.748C54.1471 52.4493 53.4244 55.1117 52.5287 57.7178C52.4992 57.7458 52.4758 57.7796 52.4598 57.8169C52.4438 57.8543 52.4355 57.8945 52.4355 57.9352C52.4355 57.9758 52.4438 58.016 52.4598 58.0534C52.4758 58.0907 52.4992 58.1245 52.5287 58.1525" fill="#E2F2D9"/>
<path d="M47.5085 53.7305C47.2808 54.6102 47.0634 55.1692 46.8357 56.1628C46.2664 57.8566 45.8066 59.5852 45.459 61.338" fill="#E2F2D9"/>
<path d="M37.6953 66.4091C38.3924 64.5476 38.8953 62.6191 39.1962 60.6543L37.6953 66.4091Z" fill="#E2F2D9"/>
<path d="M164.539 372.579C175.596 371.971 186.022 367.24 193.761 359.321C202.09 350.975 206.976 339.802 207.447 328.022C207.919 316.241 203.942 304.713 196.307 295.728L197.746 294.693C205.657 304.027 209.775 315.991 209.284 328.217C208.794 340.442 203.73 352.038 195.096 360.708C187.081 368.962 176.255 373.901 164.767 374.546L164.539 372.579Z" fill="#E2F2D9"/>
<path d="M173.846 372.776L174.394 371.006C177.934 371.72 181.702 372.776 185.574 373.821L186.909 374.214L186.464 376.088L184.963 375.705C181.371 374.68 177.5 373.687 173.846 372.776Z" fill="#E2F2D9"/>
<path d="M183.027 368.926L183.752 366.99C186.09 367.772 188.472 368.418 190.884 368.926C191.707 369.215 192.562 369.403 193.43 369.485C194.207 369.702 194.983 369.982 195.646 370.199L195.2 372.031C194.538 371.917 193.762 371.7 192.82 371.472C192.157 371.255 191.277 371.037 190.553 370.81C188.006 370.199 185.46 369.599 183.027 368.926Z" fill="#E2F2D9"/>
<path d="M189.891 364.392L190.553 362.674C190.667 362.674 191.112 362.788 191.588 362.902C191.94 362.988 192.286 363.099 192.623 363.233L196.112 364.061C197.996 364.609 199.931 365.096 201.867 365.499L201.422 367.383C199.6 366.886 197.551 366.441 195.781 365.945L192.178 365.054C191.805 364.923 191.414 364.849 191.019 364.837C190.653 364.664 190.276 364.515 189.891 364.392Z" fill="#E2F2D9"/>
<path d="M195.201 359.686L195.646 357.812C196.982 358.144 198.193 358.423 199.694 358.848C201.961 359.458 204.393 360.286 206.608 360.731L206.277 362.501C204.062 362.056 201.629 361.394 199.031 360.731C197.748 360.41 196.423 359.965 195.201 359.686Z" fill="#E2F2D9"/>
<path d="M200.127 353.213C203.843 354.248 207.435 355.211 210.696 356.318L200.127 353.213Z" fill="#E2F2D9"/>
<path d="M203.172 347.934C206.609 348.596 210.149 349.817 213.585 350.645L203.172 347.934Z" fill="#E2F2D9"/>
<path d="M205.273 343.362L205.605 341.479C209.093 342.369 212.695 343.031 215.956 344.139L215.521 345.908C212.25 344.915 208.658 344.139 205.273 343.362Z" fill="#E2F2D9"/>
<path d="M207.436 336.283C210.696 337.318 214.133 338.001 217.29 338.767L207.436 336.283Z" fill="#E2F2D9"/>
<path d="M208.211 330.08C211.315 331.202 214.522 332.016 217.786 332.512L208.211 330.08Z" fill="#E2F2D9"/>
<path d="M207.953 324C210.996 324.88 214.102 325.604 217.269 326.381L207.953 324Z" fill="#E2F2D9"/>
<path d="M207.436 317.354C210.365 318.244 213.356 319.072 216.286 319.682L207.436 317.354Z" fill="#E2F2D9"/>
<path d="M214.165 312.927C211.619 312.254 208.907 311.488 206.308 310.712C206.243 310.666 206.166 310.641 206.086 310.641C206.006 310.641 205.928 310.666 205.863 310.712" fill="#E2F2D9"/>
<path d="M210.366 305.5C209.331 305.283 208.762 305.055 207.882 304.838C206.113 304.371 204.319 304.001 202.51 303.73" fill="#E2F2D9"/>
<path d="M197.602 295.775C199.451 296.533 201.382 297.072 203.357 297.38L197.602 295.775Z" fill="#E2F2D9"/>
<path d="M212.581 172.709C212.581 169.055 218.232 163.849 226.42 160.196C234.391 156.821 243.904 155.445 245.674 159.647C247.34 163.415 241.419 169.438 232.217 173.537C224.143 177.077 214.62 178.402 212.798 174.148C212.603 173.695 212.528 173.199 212.581 172.709ZM244.183 161.024C244.212 160.833 244.171 160.638 244.069 160.475C242.962 158.094 235.881 158.26 227.134 162.079C218.388 165.899 213.523 171.157 214.63 173.309C215.572 175.587 222.704 175.473 231.337 171.705C239.37 168.165 244.183 163.632 244.183 161.024Z" fill="#E2F2D9"/>
<path d="M87.0078 44.4846C87.1708 40.1331 88.0885 35.8429 89.7199 31.8055C92.3802 24.8397 96.4172 19.3851 99.9056 17.8636C100.87 17.4438 101.958 17.4068 102.949 17.7601C104.274 18.3086 105.878 19.8301 105.878 24.4464C105.699 28.7758 104.782 33.0428 103.166 37.0634C100.061 45.147 94.2538 52.8373 89.8338 51.1813C88.0016 50.405 87.0078 48.1383 87.0078 44.4846ZM103.943 24.4464C103.943 21.7346 103.394 19.9129 102.224 19.5196C101.951 19.4327 101.663 19.4034 101.378 19.4337C101.093 19.464 100.817 19.5532 100.568 19.6956C97.7939 20.9687 93.9225 26.1645 91.4899 32.4782C89.9096 36.2946 89.0093 40.358 88.8297 44.4846C88.8297 47.0825 89.5025 48.9663 90.7136 49.3492C92.9288 50.2911 97.9595 45.147 101.344 36.401C102.942 32.6111 103.823 28.5576 103.943 24.4464Z" fill="#E2F2D9"/>
<path d="M212.58 349.23C212.573 348.8 212.688 348.376 212.912 348.009C213.078 347.513 213.349 347.059 213.706 346.677C214.063 346.294 214.498 345.993 214.982 345.794C218.532 344.366 225.116 345.028 232.093 347.792C240.612 351.166 246.533 356.072 246.533 359.684C246.527 360.121 246.45 360.555 246.305 360.968C244.535 365.284 235.022 364.28 226.834 361.185C218.564 357.914 212.58 352.998 212.58 349.23ZM244.566 359.684C244.566 357.2 239.649 352.656 231.285 349.561C225.147 347.077 218.781 346.239 215.851 347.491C215.321 347.681 214.872 348.046 214.578 348.526C214.578 348.744 214.464 348.972 214.464 349.189C214.464 351.735 219.443 356.268 227.528 359.425C236.378 362.748 243.686 362.582 244.566 360.367V359.684Z" fill="#E2F2D9"/>
<path d="M207.664 301.974L208.544 300.318C249.276 323.337 246.45 360.412 246.337 360.744L244.566 360.526V358.86C244.566 351.552 242.362 321.785 207.664 301.974Z" fill="#E2F2D9"/>
<path d="M176.992 378.728L177.499 376.793C221.658 387.971 244.565 360.408 244.679 360.232L246.118 361.267C245.901 361.392 222.321 390.072 176.992 378.728Z" fill="#E2F2D9"/>
<path d="M176.226 143.487C221.213 130.984 245.342 159.085 245.58 159.416L244.183 160.596C243.955 160.327 220.603 133.147 176.713 145.267L176.226 143.487Z" fill="#E2F2D9"/>
<path d="M208.316 219.516C247.341 196.155 243.904 160.468 243.904 160.188L245.674 159.971C245.902 160.188 249.494 197.232 209.321 221.12L208.316 219.516Z" fill="#E2F2D9"/>
<path d="M42.332 55.387C65.4672 14.7724 102.37 17.6498 102.546 17.6498L102.442 19.5232C102.1 19.5232 66.4609 16.7596 43.8847 56.3807L42.332 55.387Z" fill="#E2F2D9"/>
<path d="M102.008 19.3039L103.167 17.8652C103.498 18.0929 132.151 41.4432 120.547 86.9329L118.777 86.4878C129.905 42.2195 102.37 19.5213 102.008 19.3039Z" fill="#E2F2D9"/>
<path d="M133.89 259.807H89.5039V262.187H133.89V259.807Z" fill="#E2F2D9"/>
<path d="M82.7539 227.494L122.368 210.281L123.259 212.558L83.7476 229.709L82.7539 227.494Z" fill="#E2F2D9"/>
<path d="M215.965 241.378L244.131 225.77L245.352 227.933L217.176 243.541L215.965 241.378Z" fill="#E2F2D9"/>
<path d="M215.52 280.831L216.627 278.564L245.352 294.504L244.13 296.543L215.52 280.831Z" fill="#E2F2D9"/>
<path d="M234.059 262.516L234.172 258.977L263.995 259.256V262.858L234.059 262.516Z" fill="#E2F2D9"/>
<path d="M244.793 231.475C243.594 231.442 242.452 230.954 241.598 230.111C240.745 229.267 240.244 228.13 240.197 226.931C240.192 225.701 240.671 224.518 241.531 223.639C242.391 222.76 243.563 222.254 244.793 222.232C245.981 222.289 247.102 222.8 247.923 223.661C248.744 224.521 249.202 225.665 249.202 226.854C249.202 228.043 248.744 229.187 247.923 230.047C247.102 230.908 245.981 231.419 244.793 231.475Z" fill="#E2F2D9"/>
<path d="M244.793 300.089C243.571 300.07 242.405 299.572 241.546 298.703C240.687 297.834 240.203 296.663 240.197 295.441C240.234 294.234 240.73 293.086 241.584 292.232C242.438 291.378 243.586 290.882 244.793 290.846C246.007 290.862 247.167 291.351 248.025 292.209C248.884 293.068 249.373 294.227 249.389 295.441C249.397 296.049 249.285 296.653 249.057 297.217C248.83 297.782 248.492 298.295 248.065 298.727C247.637 299.16 247.127 299.503 246.566 299.737C246.004 299.97 245.402 300.09 244.793 300.089Z" fill="#E2F2D9"/>
<path d="M139.76 96.5064L148.61 65.5176L150.991 66.2318L142.078 97.1688L139.76 96.5064Z" fill="#E2F2D9"/>
<path d="M166.32 122.238L197.975 113.223L198.637 115.593L167.252 124.67L166.32 122.238Z" fill="#E2F2D9"/>
<path d="M164.996 96.1127L186.247 75.2051L188.783 77.6891L167.48 98.6589L164.996 96.1127Z" fill="#E2F2D9"/>
<path d="M152.864 69.1125C152.448 69.5328 151.952 69.8664 151.406 70.0941C150.859 70.3217 150.273 70.4389 149.681 70.4389C149.09 70.4389 148.504 70.3217 147.957 70.0941C147.411 69.8664 146.915 69.5328 146.498 69.1125C145.676 68.2468 145.217 67.0982 145.217 65.904C145.217 64.7097 145.676 63.561 146.498 62.6953C147.36 61.9071 148.494 61.4827 149.661 61.5111C150.829 61.5395 151.94 62.0183 152.763 62.8475C153.586 63.6767 154.055 64.7919 154.074 65.9596C154.093 67.1274 153.66 68.2572 152.864 69.1125Z" fill="#E2F2D9"/>
<path d="M201.63 117.69C200.984 118.336 200.161 118.775 199.266 118.953C198.371 119.13 197.442 119.039 196.599 118.689C195.756 118.34 195.035 117.748 194.528 116.989C194.021 116.23 193.75 115.338 193.75 114.425C193.75 113.512 194.021 112.62 194.528 111.861C195.035 111.102 195.756 110.51 196.599 110.16C197.442 109.811 198.371 109.719 199.266 109.897C200.161 110.075 200.984 110.514 201.63 111.159C202.482 112.033 202.958 113.205 202.958 114.425C202.958 115.645 202.482 116.817 201.63 117.69Z" fill="#E2F2D9"/>
<path d="M20.4297 47.311L36.2672 18.6406L38.4202 19.862L22.5931 48.522L20.4297 47.311Z" fill="#E2F2D9"/>
<path d="M0.958984 29.8193L1.17638 0L4.71651 0.0517705L4.49911 29.9331L0.958984 29.8193Z" fill="#E2F2D9"/>
<path d="M42.0125 19.1905C42.0139 19.7987 41.8943 20.4012 41.6606 20.9628C41.4268 21.5244 41.0837 22.0339 40.6511 22.4616C40.2186 22.8893 39.7052 23.2266 39.141 23.454C38.5768 23.6814 37.973 23.7943 37.3647 23.786C36.7641 23.7861 36.1694 23.6668 35.6152 23.4351C35.0611 23.2034 34.5585 22.8639 34.1367 22.4363C33.7148 22.0088 33.3822 21.5016 33.158 20.9444C32.9338 20.3872 32.8226 19.791 32.8309 19.1905C32.8196 18.592 32.9292 17.9975 33.1531 17.4424C33.3769 16.8873 33.7105 16.3831 34.1337 15.9598C34.557 15.5366 35.0613 15.2031 35.6165 14.9792C36.1717 14.7554 36.7662 14.6458 37.3647 14.657C37.9682 14.6475 38.5675 14.7573 39.1283 14.9804C39.6891 15.2034 40.2002 15.5352 40.6322 15.9565C41.0642 16.3779 41.4086 16.8806 41.6455 17.4356C41.8823 17.9906 42.0071 18.587 42.0125 19.1905Z" fill="#E2F2D9"/>
<path d="M166.869 400.141L167.48 397.709L198.42 406.672L197.757 409.001L166.869 400.141Z" fill="#E2F2D9"/>
<path d="M194.983 411.073C194.526 410.666 194.16 410.167 193.909 409.609C193.659 409.051 193.529 408.446 193.529 407.834C193.529 407.222 193.659 406.617 193.909 406.058C194.16 405.5 194.526 405.001 194.983 404.594C195.833 403.752 196.975 403.272 198.171 403.253C199.367 403.233 200.524 403.677 201.401 404.49C202.253 405.374 202.73 406.554 202.73 407.782C202.73 409.01 202.253 410.19 201.401 411.073C200.986 411.507 200.488 411.851 199.937 412.087C199.385 412.323 198.792 412.444 198.192 412.444C197.592 412.444 196.999 412.323 196.447 412.087C195.896 411.851 195.398 411.507 194.983 411.073Z" fill="#E2F2D9"/>
<path d="M131.777 245.364C149.934 227.262 170.854 245.137 171.112 245.251L169.787 246.969C168.845 246.244 149.975 230.305 133.485 246.907L131.777 245.364Z" fill="#E2F2D9"/>
<path d="M146.498 240.984C146.498 235.115 148.496 228.698 154.469 222.498L156.135 224.051C143.9 236.564 149.386 250.227 153.806 257.306L151.984 258.341C149.386 254.16 146.498 248.063 146.498 240.984Z" fill="#E2F2D9"/>
<path d="M133.217 277.726L134.77 276.07C151.425 292.776 170.306 276.733 171.072 276.07L172.511 277.84C172.293 277.892 151.425 295.767 133.217 277.726Z" fill="#E2F2D9"/>
<path d="M147.916 281.217C147.916 274.469 151.021 268.797 153.34 264.895L155.12 266.054C152.626 270.194 149.251 276.735 150.359 284.156C150.576 289.021 152.843 293.668 156.663 298.047L155.006 299.423C150.793 294.724 148.475 289.57 148.144 284.374C148.05 283.266 147.916 282.211 147.916 281.217Z" fill="#E2F2D9"/>
<path d="M106.873 180.725V178.458C130.339 178.458 132.337 153.886 132.451 152.893L134.521 152.996C134.552 153.348 132.389 180.725 106.873 180.725Z" fill="#E2F2D9"/>
<path d="M111.914 157.43L114.077 156.934C115.289 161.695 117.618 168.609 123.59 173.09C127.296 176.361 131.871 178.183 137.865 178.462L137.761 180.667C131.447 180.336 126.023 178.297 122.234 174.809C115.734 169.913 113.301 162.523 111.914 157.43Z" fill="#E2F2D9"/>
<path d="M18.1094 92.9612L19.7656 91.4707C19.8795 91.8019 37.6941 112.668 19.6518 130.802L18.1094 129.249C34.7129 112.503 18.7719 93.7374 18.1094 92.9612Z" fill="#E2F2D9"/>
<path d="M6.76562 110.615L7.87319 108.846C12.1276 111.392 18.6592 114.704 26.0811 113.607C31.2599 113.137 36.1218 110.909 39.8587 107.293L41.3493 108.897C36.4842 113.099 31.557 115.48 26.2985 115.811C18.2142 116.919 11.3512 113.379 6.76562 110.615Z" fill="#E2F2D9"/>
<path d="M83.3027 364.943H85.373C85.373 388.635 110.05 390.405 111.106 390.509L111.003 392.724C110.806 392.62 83.3027 390.509 83.3027 364.943Z" fill="#E2F2D9"/>
<path d="M83.3027 395.713C83.7478 389.399 85.6214 384.09 89.2754 380.188C94.037 373.657 101.459 371.224 106.655 369.951L106.987 372.114C102.339 373.211 95.4241 375.478 90.942 381.512C87.5241 385.497 85.6023 390.548 85.5076 395.796L83.3027 395.713Z" fill="#E2F2D9"/>
<path d="M83.0742 158.752C83.0742 133.187 110.422 130.982 110.805 130.982L110.919 133.187C109.75 133.249 85.1859 135.257 85.1859 158.752V158.866H83.1157L83.0742 158.752Z" fill="#E2F2D9"/>
<path d="M82.8594 126.553H85.0745C85.2919 144.034 98.8003 149.789 106.874 151.673L106.44 153.743C97.7963 151.787 83.0768 145.525 82.8594 126.553Z" fill="#E2F2D9"/>
<path d="M-35.5508 109.458L-33.9774 107.854C-21.5558 120.025 -7.81966 114.488 -0.853233 110.172L0.306107 112.107C-7.27105 116.817 -21.9595 122.789 -35.5508 109.458Z" fill="#E2F2D9"/>
<path d="M17.0039 427.692C17.7699 426.864 33.7109 408.026 17.1178 391.466L18.6601 389.861C36.7024 408.016 18.8775 429.048 18.6601 429.193L17.0039 427.692Z" fill="#E2F2D9"/>
<path d="M5.5957 410.038C11.8065 406.157 27.4059 398.912 41.3491 412.574L39.8585 414.178C27.4369 401.841 13.7939 407.43 6.86889 411.912L5.5957 410.038Z" fill="#E2F2D9"/>
<path d="M105.217 341.156C130.785 341.156 133 368.491 133 368.823L130.785 368.926C130.785 367.819 128.714 343.257 105.217 343.257V341.156Z" fill="#E2F2D9"/>
<path d="M110.195 364.395C112.266 355.649 118.28 341.159 137.316 341.045V343.115C119.884 343.229 114.181 356.943 112.359 364.913L110.195 364.395Z" fill="#E2F2D9"/>
<path d="M-60.8085 260.994C-60.8249 248.385 -57.101 236.054 -50.108 225.561C-43.1149 215.068 -33.1667 206.884 -21.5217 202.045C-9.87673 197.206 2.94197 195.929 15.313 198.375C27.684 200.821 39.0516 206.881 47.9781 215.788C56.9045 224.695 62.9888 236.048 65.4613 248.413C67.9338 260.778 66.6835 273.598 61.8685 285.252C57.0535 296.906 48.8902 306.87 38.411 313.885C27.9318 320.899 15.6075 324.649 2.99688 324.659C-13.9021 324.659 -30.1109 317.956 -42.0728 306.02C-54.0348 294.085 -60.7729 277.892 -60.8085 260.994ZM65.3635 260.994C65.3716 248.664 61.723 236.607 54.879 226.35C48.0349 216.092 38.3027 208.094 26.913 203.367C15.5232 198.639 2.98732 197.395 -9.10963 199.791C-21.2066 202.187 -32.3214 208.116 -41.0486 216.828C-49.7759 225.54 -55.7238 236.644 -58.1402 248.736C-60.5566 260.828 -59.333 273.364 -54.6242 284.761C-49.9153 296.157 -41.9326 305.902 -31.6855 312.762C-21.4384 319.623 -9.38687 323.291 2.94514 323.303C19.4757 323.284 35.3253 316.717 47.0239 305.039C58.7225 293.361 65.3169 277.523 65.3635 260.994Z" fill="#E2F2D9"/>
<path d="M-66.7598 260.99C-66.7516 247.207 -62.6569 233.735 -54.9932 222.277C-47.3296 210.82 -36.441 201.892 -23.7038 196.621C-10.9665 191.35 3.04758 189.973 16.5673 192.664C30.087 195.355 42.5054 201.993 52.2529 211.74C62.0004 221.486 68.6393 233.903 71.3306 247.422C74.022 260.94 72.6448 274.953 67.3733 287.689C62.1018 300.425 53.1726 311.313 41.7142 318.976C30.2558 326.639 16.7826 330.733 2.99765 330.741C-15.4973 330.722 -33.2292 323.367 -46.3071 310.29C-59.385 297.214 -66.7406 279.483 -66.7598 260.99ZM71.1817 260.99C71.1816 247.474 67.1714 234.261 59.6585 223.024C52.1456 211.787 41.4677 203.032 28.9763 197.865C16.4849 192.699 2.74137 191.354 -10.5148 194.001C-23.771 196.648 -35.9439 203.167 -45.493 212.734C-55.0422 222.301 -61.5383 234.486 -64.1591 247.746C-66.78 261.006 -65.4079 274.745 -60.2163 287.226C-55.0248 299.706 -46.2473 310.365 -34.9947 317.855C-23.7421 325.345 -10.5202 329.329 2.99765 329.302C21.0935 329.267 38.4361 322.054 51.2192 309.247C64.0023 296.44 71.1817 279.084 71.1817 260.99Z" fill="#E2F2D9"/>
</svg>
