<svg width="181" height="362" viewBox="0 0 181 362" fill="none" xmlns="http://www.w3.org/2000/svg">
<path d="M89.0429 180.998C89.0429 130.336 130.298 89.1211 180.964 89.1211C231.63 89.1211 272.886 130.358 272.886 180.998C272.886 231.638 231.623 272.875 181 272.875C130.377 272.875 89.0429 231.674 89.0429 180.998ZM270.538 180.998C270.527 157.255 261.09 134.487 244.302 117.696C227.513 100.905 204.746 91.4638 181 91.4467C131.662 91.4467 91.3401 131.549 91.3401 181.019C91.3401 230.489 131.626 270.664 181 270.664C230.374 270.664 270.538 230.446 270.538 180.998Z" fill="#E2F2D9"/>
<path d="M120.169 180.998C120.166 168.967 123.731 157.206 130.414 147.201C137.096 137.197 146.596 129.398 157.711 124.792C168.826 120.186 181.058 118.98 192.859 121.325C204.66 123.671 215.5 129.462 224.009 137.968C232.518 146.474 238.313 157.312 240.661 169.112C243.01 180.911 241.806 193.142 237.202 204.257C232.598 215.372 224.801 224.873 214.797 231.557C204.794 238.241 193.032 241.809 181 241.809C164.873 241.795 149.411 235.385 138.006 223.984C126.601 212.583 120.186 197.123 120.169 180.998ZM240.051 180.998C240.039 169.319 236.565 157.905 230.068 148.2C223.57 138.495 214.34 130.934 203.546 126.474C192.751 122.013 180.876 120.852 169.422 123.139C157.968 125.425 147.449 131.056 139.195 139.319C130.941 147.583 125.322 158.107 123.05 169.563C120.777 181.019 121.952 192.891 126.426 203.68C130.901 214.468 138.473 223.687 148.187 230.172C157.901 236.658 169.32 240.118 181 240.115C196.66 240.077 211.666 233.833 222.731 222.752C233.796 211.671 240.016 196.656 240.029 180.998H240.051Z" fill="#E2F2D9"/>
<path d="M126.099 180.995C126.104 170.146 129.327 159.542 135.358 150.523C141.39 141.505 149.96 134.477 159.986 130.327C170.011 126.178 181.042 125.094 191.684 127.212C202.325 129.33 212.1 134.555 219.772 142.227C227.445 149.898 232.67 159.672 234.789 170.313C236.907 180.953 235.823 191.983 231.673 202.008C227.523 212.032 220.494 220.602 211.475 226.633C202.456 232.664 191.851 235.886 181 235.892C166.444 235.876 152.488 230.088 142.196 219.796C131.903 209.504 126.114 195.55 126.099 180.995ZM234.193 180.995C234.189 170.477 231.066 160.195 225.218 151.451C219.371 142.707 211.062 135.894 201.341 131.871C191.621 127.849 180.927 126.799 170.61 128.853C160.293 130.908 150.816 135.975 143.379 143.415C135.942 150.854 130.878 160.331 128.828 170.648C126.777 180.965 127.832 191.658 131.858 201.376C135.885 211.093 142.703 219.399 151.45 225.242C160.197 231.086 170.481 234.205 181 234.205C195.103 234.178 208.621 228.563 218.592 218.589C228.562 208.616 234.172 195.097 234.193 180.995Z" fill="#E2F2D9"/>
<path d="M174.267 90.5297L175.975 90.3789L177.928 121.158L176.226 121.308L174.267 90.5297Z" fill="#E2F2D9"/>
<path d="M163.061 91.9843L164.69 91.7188L170.447 121.995L168.818 122.304L163.061 91.9843Z" fill="#E2F2D9"/>
<path d="M152.085 94.9777L153.636 94.4824L163.133 123.761L161.582 124.378L152.085 94.9777Z" fill="#E2F2D9"/>
<path d="M141.432 99.2816L142.989 98.5566L156.133 126.45L154.576 127.218L141.432 99.2816Z" fill="#E2F2D9"/>
<path d="M131.547 104.804L132.947 104L149.508 129.977L148.036 130.939L131.547 104.804Z" fill="#E2F2D9"/>
<path d="M122.43 111.675L123.679 110.562L143.291 134.357L141.97 135.427L122.43 111.675Z" fill="#E2F2D9"/>
<path d="M114.103 119.54L115.273 118.312L137.763 139.459L136.521 140.722L114.103 119.54Z" fill="#E2F2D9"/>
<path d="M106.867 128.405L107.965 127.062L132.947 145.172L131.856 146.558L106.867 128.405Z" fill="#E2F2D9"/>
<path d="M100.959 138.117L101.727 136.617L128.747 151.511L127.958 153.004L100.959 138.117Z" fill="#E2F2D9"/>
<path d="M96.1211 148.473L96.8318 146.865L125.546 158.221L124.85 159.836L96.1211 148.473Z" fill="#E2F2D9"/>
<path d="M92.7109 159.37L93.1704 157.762L122.969 165.399L122.509 167.086L92.7109 159.37Z" fill="#E2F2D9"/>
<path d="M90.751 170.585L91.0023 168.898L121.497 172.81L121.26 174.576L90.751 170.585Z" fill="#E2F2D9"/>
<path d="M90.1338 181.978V180.248L120.958 180.327V181.978H90.1338Z" fill="#E2F2D9"/>
<path d="M90.751 191.613L121.26 187.924L121.569 189.539L91.0023 193.336L90.751 191.613Z" fill="#E2F2D9"/>
<path d="M92.7832 202.817L122.668 195.18L123.07 196.981L93.2426 204.504L92.7832 202.817Z" fill="#E2F2D9"/>
<path d="M96.2002 213.713L124.929 202.43L125.546 204.081L96.9109 215.285L96.2002 213.713Z" fill="#E2F2D9"/>
<path d="M100.959 224.079L127.958 209.264L128.747 210.721L101.885 225.615L100.959 224.079Z" fill="#E2F2D9"/>
<path d="M106.946 233.746L131.935 215.629L132.947 217.093L108.045 235.131L106.946 233.746Z" fill="#E2F2D9"/>
<path d="M114.182 242.649L136.672 221.625L137.842 222.852L115.352 243.805L114.182 242.649Z" fill="#E2F2D9"/>
<path d="M122.43 250.479L142.12 226.842L143.37 227.911L123.758 251.519L122.43 250.479Z" fill="#E2F2D9"/>
<path d="M131.626 257.313L148.108 231.293L149.608 232.255L133.105 258.232L131.626 257.313Z" fill="#E2F2D9"/>
<path d="M141.511 262.799L154.655 235.014L156.205 235.825L143.061 263.531L141.511 262.799Z" fill="#E2F2D9"/>
<path d="M152.085 267.13L161.654 237.895L163.212 238.433L153.808 267.632L152.085 267.13Z" fill="#E2F2D9"/>
<path d="M163.133 270.051L168.969 239.811L170.62 240.27L164.769 270.36L163.133 270.051Z" fill="#E2F2D9"/>
<path d="M174.346 271.624L176.377 240.846L178.086 241.004L176.047 271.703L174.346 271.624Z" fill="#E2F2D9"/>
<path d="M153.808 79.3239C153.808 57.3668 175.508 38.41 180.497 34.3043L180.576 34.1895L181.424 34.9575L181.266 35.1082C175.523 39.8671 147.419 64.4298 156.916 90.1051L158.007 93.1341L156.916 93.5935L155.746 90.5573C154.473 86.9484 153.818 83.1507 153.808 79.3239Z" fill="#E2F2D9"/>
<path d="M180.282 34.9575L180.821 34.3043V34.1895H181.208L181.926 34.8067C191.976 43.5494 214.624 66.655 205.838 90.5286L204.567 93.5935L203.569 93.1341L204.725 90.1051C213.339 66.9636 191.136 44.2815 181.079 35.5532L180.778 35.3235H180.62L180.282 34.9575Z" fill="#E2F2D9"/>
<path d="M76.5098 86.7636C76.5098 82.6148 76.7395 79.3919 76.8974 77.741V77.4754L77.9885 77.3965L78.0675 77.741C77.2994 85.1486 74.8802 122.373 99.7109 133.771L102.582 135.207L102.022 136.205L99.1509 134.827C79.3884 125.725 76.5098 100.918 76.5098 86.7636Z" fill="#E2F2D9"/>
<path d="M76.9902 77.3218L77.0692 77.171H77.22L77.2989 77.0921L78.067 77.0203C91.4622 76.0226 123.909 76.2523 134.577 99.5086L135.905 102.502L134.885 102.925L133.485 99.889C123.141 77.4007 91.3043 77.171 78.2106 78.1688H77.8301L77.6722 78.2477H77.1338L76.9902 77.3218Z" fill="#E2F2D9"/>
<path d="M34.1768 181.4L34.8946 180.553L35.2248 180.861C41.8219 188.843 65.2527 214.325 90.0905 205.115L93.1988 204.082L93.5003 205.115L90.5499 206.12C64.9512 215.638 41.0538 189.697 34.3562 181.565L34.1768 181.4Z" fill="#E2F2D9"/>
<path d="M34.0986 181.093L34.1776 180.942V180.792L34.637 180.253C43.4451 170.046 66.4739 147.321 90.5221 156.186L93.4725 157.377L93.092 158.375L90.0626 157.262C66.7826 148.649 44.1199 170.965 35.5774 181.021L35.2687 181.251V181.402L34.9457 181.825L34.0986 181.093Z" fill="#E2F2D9"/>
<path d="M77.3701 284.021L77.6788 283.942L77.8367 284.021C88.1954 284.975 122.66 286.396 133.715 262.293L135.057 259.379L136.227 259.838L134.813 262.824C123.449 287.459 88.2743 286.116 77.7577 285.162L77.4491 285.241L77.3701 284.021Z" fill="#E2F2D9"/>
<path d="M76.667 275.996C76.667 260.413 80.0983 236.432 99.4015 227.531L102.359 226.096L102.897 227.208L99.9398 228.436C77.2987 238.872 77.2197 270.649 78.0668 283.777L78.1386 284.157L78.2965 284.315V284.811L77.2987 284.961L77.069 284.89V284.732L76.99 284.66V283.942C76.8177 281.717 76.667 279.032 76.667 275.996Z" fill="#E2F2D9"/>
<path d="M180.577 327.073L180.886 326.728C188.911 320.089 214.201 296.452 205.063 271.889L203.915 268.86L204.991 268.516L206.126 271.437C215.53 296.804 189.773 320.828 181.675 327.546L181.367 327.891L180.577 327.073Z" fill="#E2F2D9"/>
<path d="M154.188 282.752C154.15 278.931 154.807 275.134 156.127 271.547L157.304 268.439L158.395 268.863L157.225 271.892C148.611 295.148 170.922 317.83 180.914 326.444L181.223 326.745H181.374L181.761 327.018L181 327.922L180.921 327.844H180.771L180.232 327.312C171.618 319.862 154.188 302.405 154.188 282.752Z" fill="#E2F2D9"/>
<path d="M143.829 81.2223C143.829 51.5562 172.787 26.0747 180.038 20.1602C180.125 19.9888 180.257 19.8445 180.42 19.7433C180.584 19.642 180.772 19.5876 180.964 19.5859V21.4665C181.16 21.4687 181.349 21.3953 181.492 21.2616C181.635 21.1279 181.721 20.9442 181.732 20.7487V21.2081L181.423 21.4378C173.57 27.8118 135.272 61.0525 148.51 96.2959L146.708 97.0136C144.798 91.9682 143.822 86.6172 143.829 81.2223Z" fill="#E2F2D9"/>
<path d="M179.888 21.2173V20.7579C179.888 20.9483 179.963 21.1309 180.098 21.2655C180.233 21.4001 180.415 21.4757 180.606 21.4757V19.5664C180.806 19.572 181.003 19.6274 181.177 19.7276C181.351 19.8279 181.498 19.9698 181.603 20.1406C190.009 27.0529 228.465 60.8966 214.919 96.9439L213.153 96.2261C226.354 61.1478 188.028 27.7564 180.297 21.3896L179.888 21.2173Z" fill="#E2F2D9"/>
<path d="M65.9347 80.311C65.9291 76.0801 66.1688 71.8524 66.6525 67.6493L68.5189 67.5703V67.9579C68.5189 68.4962 61.0533 127.211 98.1089 144.094L97.3911 145.823C69.8901 133.348 65.9347 99.0381 65.9347 80.311Z" fill="#E2F2D9"/>
<path d="M67.1836 68.7279V66.8042H67.5784C73.7232 66.1941 128.991 61.3993 145.645 97.5471L143.922 98.3151C127.806 63.3517 73.7879 68.0388 67.5784 68.7279H67.1836Z" fill="#E2F2D9"/>
<path d="M19.8633 181.717L21.1841 180.332L21.3349 180.49C21.8015 181.1 58.3762 227.864 96.2 213.573L96.9179 215.295C57.845 230.225 21.5 183.792 20.0212 181.832L19.8633 181.717Z" fill="#E2F2D9"/>
<path d="M19.8633 180.709L20.014 180.551C21.4928 178.634 57.9168 132.28 96.9107 147.088L96.1928 148.896C58.5198 134.541 22.9716 179.941 21.4067 181.821L21.1769 182.051L19.8633 180.709Z" fill="#E2F2D9"/>
<path d="M67.5781 293.498H67.8868C68.5042 293.577 127.182 300.985 144.094 263.832L145.875 264.679C128.359 302.98 68.1955 295.458 67.5781 295.379V293.498Z" fill="#E2F2D9"/>
<path d="M66.1436 282.37C66.1436 263.37 70.1206 228.909 97.4278 216.398L98.2892 218.085C63.1933 234.207 67.9311 288.242 68.7136 294.379V294.838H66.761V294.458C66.3447 290.442 66.1387 286.407 66.1436 282.37Z" fill="#E2F2D9"/>
<path d="M180.283 341.318V340.895L180.591 340.593C188.344 334.298 226.728 301.065 213.447 265.757L215.134 265.104C228.917 301.215 190.419 335.023 182.048 341.821C181.779 342.148 181.398 342.365 180.979 342.431V340.514C180.879 340.517 180.78 340.54 180.69 340.582C180.599 340.625 180.518 340.686 180.453 340.762C180.387 340.838 180.338 340.926 180.309 341.022C180.279 341.118 180.271 341.219 180.283 341.318Z" fill="#E2F2D9"/>
<path d="M144.232 280.771C144.215 275.408 145.188 270.089 147.103 265.08L148.891 265.733C135.775 300.984 173.958 334.296 181.718 340.591L182.099 340.893V341.316C182.112 341.211 182.101 341.103 182.068 341.002C182.034 340.901 181.979 340.809 181.905 340.732C181.832 340.655 181.742 340.596 181.643 340.558C181.543 340.52 181.437 340.504 181.33 340.512V342.429C181.135 342.424 180.945 342.365 180.783 342.257C180.62 342.149 180.491 341.997 180.412 341.819C173.168 336.041 144.232 310.616 144.232 280.771Z" fill="#E2F2D9"/>
<path d="M180.505 34.7252V34.4955V20.5273H181.574V20.9078V34.8041L180.505 34.7252Z" fill="#E2F2D9"/>
<path d="M67.0908 67.9582L67.8805 67.1543L68.182 67.384L77.9879 77.3254L77.069 77.9785L76.9901 77.8206L67.0908 67.9582Z" fill="#E2F2D9"/>
<path d="M89.6025 139.761L100.88 136.502L101.189 137.615L89.8323 140.873L89.6025 139.761Z" fill="#E2F2D9"/>
<path d="M133.414 82.0879H132.315V97.1327H133.414V82.0879Z" fill="#E2F2D9"/>
<path d="M136.363 100.964L139.802 89.4941L140.95 89.8745L137.462 101.352L136.363 100.964Z" fill="#E2F2D9"/>
<path d="M20.4805 181.557V180.408H20.9399H34.5648L34.7945 180.48L34.6366 181.557H34.4858H20.9399H20.4805Z" fill="#E2F2D9"/>
<path d="M30.5878 191.764L39.2452 186.086L39.7836 187.041L31.2267 192.797L30.5878 191.764Z" fill="#E2F2D9"/>
<path d="M36.6747 197.369L45.3105 191.914L45.8489 192.876L37.2849 198.288L36.6747 197.369Z" fill="#E2F2D9"/>
<path d="M46.251 204.504L54.0182 198.668L54.7288 199.673L46.8612 205.501L46.251 204.504Z" fill="#E2F2D9"/>
<path d="M41.9512 201.625L49.5891 195.488L50.2783 196.371L42.6618 202.508L41.9512 201.625Z" fill="#E2F2D9"/>
<path d="M59.166 211.795L67.1845 205.35L67.8808 206.233L59.7762 212.678L59.166 211.795Z" fill="#E2F2D9"/>
<path d="M67.2627 213.874L76.6666 207.191L77.2983 208.117L67.8011 214.829L67.2627 213.874Z" fill="#E2F2D9"/>
<path d="M76.5879 216.478L87.2552 206.041L88.0233 206.888L77.3775 217.246L76.5879 216.478Z" fill="#E2F2D9"/>
<path d="M87.1045 216.479L92.7828 206.121L93.881 206.774L88.1956 217.017L87.1045 216.479Z" fill="#E2F2D9"/>
<path d="M25.1396 186.009L36.8263 183.324L37.135 184.516L25.3909 187.121L25.1396 186.009Z" fill="#E2F2D9"/>
<path d="M67.0908 294.078L67.4139 293.805L77.2198 284.021L77.9089 284.904L77.7582 285.055L67.8805 294.917L67.0908 294.078Z" fill="#E2F2D9"/>
<path d="M82.2656 294.996L84.3761 284.832L85.3955 285.055L83.364 295.305L82.2656 294.996Z" fill="#E2F2D9"/>
<path d="M90.5215 294.536L92.7109 284.674L93.8021 284.904L91.6126 294.845L90.5215 294.536Z" fill="#E2F2D9"/>
<path d="M102.359 293.078L103.687 283.252L104.858 283.403L103.529 293.193L102.359 293.078Z" fill="#E2F2D9"/>
<path d="M97.2979 293.85L98.3101 284.174L99.4802 284.332L98.468 293.921L97.2979 293.85Z" fill="#E2F2D9"/>
<path d="M116.602 289.091L117.772 278.654L118.863 278.841L117.772 289.17L116.602 289.091Z" fill="#E2F2D9"/>
<path d="M123.838 284.754L125.618 273.355L126.788 273.47L124.929 284.905L123.838 284.754Z" fill="#E2F2D9"/>
<path d="M132.164 279.833L132.473 265.025H133.564L133.413 279.833H132.164Z" fill="#E2F2D9"/>
<path d="M74.2617 294.691L80.7153 284.52L81.6556 285.216L75.3385 295.308L74.2617 294.691Z" fill="#E2F2D9"/>
<path d="M67.0908 278.956L77.3777 277.039L77.5284 278.188L67.4139 279.996L67.0908 278.956Z" fill="#E2F2D9"/>
<path d="M67.5646 270.511L77.3777 268.516L77.6792 269.592L67.6436 271.703L67.5646 270.511Z" fill="#E2F2D9"/>
<path d="M68.9717 258.62L78.7776 257.393L79.0073 258.541L69.1224 259.768L68.9717 258.62Z" fill="#E2F2D9"/>
<path d="M68.1816 263.838L77.9875 262.797L78.0665 263.988L68.2606 264.871L68.1816 263.838Z" fill="#E2F2D9"/>
<path d="M72.8623 244.266L83.2066 243.232L83.3645 244.424L73.0202 245.379L72.8623 244.266Z" fill="#E2F2D9"/>
<path d="M77.0693 237.012L88.5837 235.203L88.8134 236.359L77.2201 238.125L77.0693 237.012Z" fill="#E2F2D9"/>
<path d="M67.0908 287.205L77.3777 280.795L77.9879 281.793L67.7225 288.167L67.0908 287.205Z" fill="#E2F2D9"/>
<path d="M169.758 330.764L175.666 322.244L176.606 322.861L170.698 331.453L169.758 330.764Z" fill="#E2F2D9"/>
<path d="M164.001 324.63L169.6 316.182L170.62 316.72L164.941 325.24L164.001 324.63Z" fill="#E2F2D9"/>
<path d="M156.686 315.028L162.752 307.197L163.614 307.965L157.533 315.875L156.686 315.028Z" fill="#E2F2D9"/>
<path d="M159.723 319.328L166.011 311.727L166.88 312.495L160.641 320.017L159.723 319.328Z" fill="#E2F2D9"/>
<path d="M149.206 302.173L155.904 294.076L156.837 294.844L150.147 302.826L149.206 302.173Z" fill="#E2F2D9"/>
<path d="M147.109 294.077L153.886 284.674L154.884 285.327L148.035 294.766L147.109 294.077Z" fill="#E2F2D9"/>
<path d="M144.619 284.596L155.286 273.93L156.055 274.734L145.402 285.407L144.619 284.596Z" fill="#E2F2D9"/>
<path d="M144.77 273.771L155.365 268.137L155.903 269.206L145.401 274.812L144.77 273.771Z" fill="#E2F2D9"/>
<path d="M175.587 336.6L178.315 324.857L179.427 325.166L176.606 336.83L175.587 336.6Z" fill="#E2F2D9"/>
<path d="M121.971 41.827L123.528 41.1738C131.856 60.7479 147.261 60.3603 148.969 60.2095L149.127 61.9394C147.261 62.0901 130.75 62.5136 121.971 41.827Z" fill="#E2F2D9"/>
<path d="M116.902 72.9847C121.339 68.4985 127.878 58.5572 121.662 42.1199L123.298 41.5098C130.068 59.5047 121.97 70.3648 118.151 74.205L116.902 72.9847Z" fill="#E2F2D9"/>
<path d="M128.898 58.3598L129.997 57.9004C134.304 68.7246 141.662 71.4881 145.79 72.1772L145.56 73.3256C141.274 72.5576 133.407 69.6075 128.898 58.3598Z" fill="#E2F2D9"/>
<path d="M127.648 78.7808C129.996 74.8617 132.085 68.1073 128.668 58.3598L129.745 57.9004C133.334 68.1073 131.065 75.2493 128.574 79.3909L127.648 78.7808Z" fill="#E2F2D9"/>
<path d="M40.875 124.293L41.4924 122.721C61.2549 130.745 71.8505 119.541 73.0206 118.234L74.2625 119.383C73.0206 120.768 61.7359 132.741 40.875 124.293Z" fill="#E2F2D9"/>
<path d="M40.875 124.677L41.4924 123.105C59.087 131.051 61.0252 144.323 61.0252 149.85L59.3167 149.929V149.85C59.3167 144.747 57.4575 132.185 40.875 124.677Z" fill="#E2F2D9"/>
<path d="M57.457 131.088L57.9165 130.054C68.5838 134.62 75.7408 131.354 79.0788 129.014L79.7967 129.897C76.2792 132.43 68.5838 135.883 57.457 131.088Z" fill="#E2F2D9"/>
<path d="M57.2051 131.283L57.6861 130.285C67.492 134.886 70.83 141.49 72.0432 146.17L70.8659 146.399C69.8896 141.985 66.5516 135.733 57.2051 131.283Z" fill="#E2F2D9"/>
<path d="M41.1045 238.42C60.7953 230.129 60.4076 214.733 60.2569 213.053L61.8864 212.902C62.1161 214.819 62.6043 231.206 41.7865 239.956L41.1045 238.42Z" fill="#E2F2D9"/>
<path d="M41.4131 238.738C59.5461 231.904 70.3714 240.116 74.0899 243.762L72.8623 245.069C68.4906 240.503 58.5052 234.022 42.1238 240.238L41.4131 238.738Z" fill="#E2F2D9"/>
<path d="M57.916 231.96C68.5833 227.855 71.4619 220.26 72.2301 216.27L73.3212 216.42C72.4598 220.727 69.5812 228.587 58.2965 233.073L57.916 231.96Z" fill="#E2F2D9"/>
<path d="M57.916 232.247C68.1024 228.716 75.1876 230.905 79.3153 233.439L78.6979 234.322C74.8 231.939 68.0306 229.871 58.2247 233.36L57.916 232.247Z" fill="#E2F2D9"/>
<path d="M118.23 289.081L119.322 287.703C120.721 289.009 132.796 300.214 124.217 321.095L122.66 320.477C130.606 300.674 119.472 290.101 118.23 289.081Z" fill="#E2F2D9"/>
<path d="M123.141 320.48C131.037 302.829 144.382 300.984 149.909 300.984V302.671C143.521 302.671 131.855 305.054 124.698 321.169L123.141 320.48Z" fill="#E2F2D9"/>
<path d="M128.898 282.831L129.817 282.113C132.315 285.76 135.826 293.469 131.066 304.523L129.997 304.063C134.577 293.426 131.217 286.248 128.898 282.831Z" fill="#E2F2D9"/>
<path d="M130.226 304.321C134.884 294.537 141.431 291.12 146.09 289.965L146.327 291.077C141.97 292.19 135.746 295.384 131.216 304.816L130.226 304.321Z" fill="#E2F2D9"/>
<path d="M167.82 47.7731L168.352 46.7754C173.168 49.1513 181.345 55.4463 181.574 70.2183H180.498C180.282 56.8172 173.499 50.6084 167.82 47.7731Z" fill="#E2F2D9"/>
<path d="M180.577 70.223C180.965 55.6017 188.832 49.4072 193.319 47.0098L193.857 47.9644C189.55 50.2685 182.113 56.219 181.733 70.302L180.577 70.223Z" fill="#E2F2D9"/>
<path d="M77.0693 95.0113C82.2666 93.2886 92.5535 91.9823 102.977 102.268L102.209 103.108C92.6324 93.669 83.4367 94.1284 77.5288 96.1239L77.0693 95.0113Z" fill="#E2F2D9"/>
<path d="M94.0323 84.0954C93.9873 81.8159 94.3246 79.545 95.0301 77.377L96.0423 77.7645C94.6066 82.4445 93.5513 91.9265 103.278 102.169L102.359 102.937C95.7408 95.9748 94.0323 89.2563 94.0323 84.0954Z" fill="#E2F2D9"/>
<path d="M46.7617 193.604C49.7193 187.775 56.1872 180.633 70.1925 180.482V181.559C56.7256 181.825 50.5807 188.543 47.7811 194.142L46.7617 193.604Z" fill="#E2F2D9"/>
<path d="M46.9404 168.506L47.9526 168.047C50.2785 172.418 56.2079 179.941 70.2923 180.17L70.2133 181.398C55.5762 180.938 49.3596 173.15 46.9404 168.506Z" fill="#E2F2D9"/>
<path d="M93.8018 277.647C93.8018 272.35 95.661 265.753 102.208 258.984L103.048 259.824C93.7156 269.421 94.1822 278.487 96.0415 284.43L95.0293 284.889C94.2147 282.562 93.7997 280.113 93.8018 277.647Z" fill="#E2F2D9"/>
<path d="M77.3701 266.979L77.6788 265.902C82.4166 267.338 91.921 268.436 102.028 258.768L102.976 259.607C92.323 269.592 82.3449 268.565 77.3701 266.979Z" fill="#E2F2D9"/>
<path d="M180.498 291.846H181.575C181.733 305.204 188.409 311.42 194.166 314.262L193.549 315.217C188.832 312.762 180.577 306.51 180.498 291.846Z" fill="#E2F2D9"/>
<path d="M167.971 314.035C172.4 311.731 179.887 305.823 180.268 291.697H181.344C181 306.433 173.103 312.649 168.509 315.033L167.971 314.035Z" fill="#E2F2D9"/>
<path d="M160.103 59.3247L160.484 57.6738C160.735 57.7528 181.266 63.0501 181.883 90.1035L180.196 90.1752C179.564 64.4282 160.9 59.4755 160.103 59.3247Z" fill="#E2F2D9"/>
<path d="M180.498 90.1035C181.036 63.0501 201.115 57.7528 201.38 57.6738L201.84 59.3247C200.957 59.4755 182.731 64.4282 182.192 90.1896L180.498 90.1035Z" fill="#E2F2D9"/>
<path d="M79.2363 108.254C79.466 108.096 97.7498 97.3942 117.283 116.15L116.127 117.377C97.4627 99.4973 80.3203 109.546 80.0906 109.704L79.2363 108.254Z" fill="#E2F2D9"/>
<path d="M105.158 92.1367C105.158 84.4636 108.195 79.396 108.267 79.3242L109.702 80.243C109.236 80.9608 99.8891 97.355 117.642 115.852L116.393 117.116C107.556 107.871 105.158 99.0418 105.158 92.1367Z" fill="#E2F2D9"/>
<path d="M57.6084 201.399C57.6874 201.284 62.9852 180.712 90.0627 180.174L90.1344 181.825C64.385 182.478 59.3169 201.628 59.3169 201.858L57.6084 201.399Z" fill="#E2F2D9"/>
<path d="M57.6084 160.6L59.3169 160.141C59.4676 160.909 64.385 179.255 90.1344 179.786L90.0627 181.559C62.9852 180.942 57.6874 160.758 57.6084 160.6Z" fill="#E2F2D9"/>
<path d="M105.159 269.514C105.159 262.566 107.406 253.78 116.135 244.643L117.291 245.913C99.4812 264.525 109.596 281.637 109.675 281.802L108.239 282.757C106.148 278.66 105.09 274.113 105.159 269.514Z" fill="#E2F2D9"/>
<path d="M79.2363 253.78L80.0978 252.345C80.8156 252.732 97.2904 262.25 115.89 244.449L116.981 245.641C97.4483 264.368 79.466 253.895 79.2363 253.78Z" fill="#E2F2D9"/>
<path d="M180.196 271.891H181.883C182.343 297.602 200.957 302.519 201.84 302.669L201.459 304.399C201.1 304.32 180.656 298.987 180.196 271.891Z" fill="#E2F2D9"/>
<path d="M160.104 302.669C160.886 302.519 179.198 297.602 179.73 271.891H181.424C180.885 298.987 160.735 304.32 160.563 304.399L160.104 302.669Z" fill="#E2F2D9"/>
<path d="M99.5596 63.9942C99.5956 55.1733 103.124 46.7256 109.373 40.4989C115.621 34.2723 124.082 30.7735 132.904 30.7679C138.003 30.7469 143.036 31.9194 147.601 34.1915C152.165 36.4637 156.135 39.7724 159.192 43.8531L157.634 45.0088C154.768 41.1554 151.037 38.0293 146.742 35.8823C142.446 33.7354 137.706 32.6276 132.904 32.6485C124.584 32.6465 116.603 35.9466 110.715 41.8238C104.826 47.7011 101.511 55.675 101.498 63.9942C101.537 65.5244 101.664 67.051 101.878 68.5665L100.019 68.789C99.7673 67.2018 99.6138 65.6004 99.5596 63.9942Z" fill="#E2F2D9"/>
<path d="M31.0682 132.28C31.0577 127.929 31.9049 123.618 33.5616 119.594C35.2183 115.57 37.652 111.912 40.7234 108.83C44.3148 105.179 48.7158 102.425 53.5697 100.792C58.4236 99.158 63.5941 98.6904 68.6623 99.4268L68.3321 101.343C63.5591 100.673 58.6953 101.129 54.1304 102.676C49.5655 104.223 45.4262 106.817 42.0442 110.251C39.1377 113.152 36.8318 116.597 35.2585 120.39C33.6852 124.183 32.8754 128.249 32.8754 132.355C32.8754 136.461 33.6852 140.527 35.2585 144.32C36.8318 148.113 39.1377 151.559 42.0442 154.46C43.127 155.55 44.2962 156.551 45.5402 157.453L44.3629 158.953C43.0884 157.988 41.8731 156.948 40.7234 155.838C37.6215 152.755 35.169 149.082 33.5107 145.036C31.8523 140.99 31.0218 136.652 31.0682 132.28Z" fill="#E2F2D9"/>
<path d="M30.7457 229.139C30.7144 224.027 31.8881 218.979 34.1717 214.404C36.4553 209.83 39.7846 205.858 43.8897 202.811L44.988 204.39C37.271 209.988 32.6839 219.312 32.6122 229.139C32.6386 237.457 35.9511 245.428 41.8281 251.315C47.7052 257.203 55.6707 260.529 63.9896 260.571L68.5911 260.111L68.8208 261.992C67.2224 262.242 65.6073 262.369 63.9896 262.373C59.6224 262.38 55.2967 261.526 51.2604 259.858C47.2242 258.191 43.5567 255.743 40.4683 252.656C37.3799 249.569 34.9313 245.902 33.2629 241.866C31.5945 237.831 30.7391 233.506 30.7457 229.139Z" fill="#E2F2D9"/>
<path d="M98.999 297.998C99.0132 296.442 99.1476 294.889 99.401 293.354L101.267 293.662C100.58 298.432 101.024 303.296 102.564 307.862C104.104 312.429 106.697 316.568 110.133 319.948C113.035 322.867 116.486 325.183 120.286 326.764C124.087 328.344 128.163 329.158 132.279 329.158C136.395 329.158 140.471 328.344 144.271 326.764C148.072 325.183 151.523 322.867 154.425 319.948C155.542 318.867 156.556 317.685 157.454 316.416L158.933 317.564C157.968 318.898 156.902 320.155 155.745 321.326C151.1 325.945 145.194 329.091 138.769 330.369C132.343 331.646 125.683 330.999 119.623 328.508C113.564 326.017 108.374 321.793 104.705 316.366C101.037 310.938 99.0515 304.548 98.999 297.998Z" fill="#E2F2D9"/>
<path d="M102.036 69.0219C102.716 60.5562 106.553 52.6549 112.784 46.8838C119.016 41.1128 127.188 37.8931 135.682 37.8628C143.663 37.7873 151.382 40.71 157.311 46.0527L156.442 47.0145C150.717 41.9519 143.325 39.1789 135.682 39.2265C127.526 39.2479 119.674 42.3257 113.677 47.8523C107.679 53.379 103.971 60.9529 103.285 69.0793L102.036 69.0219Z" fill="#E2F2D9"/>
<path d="M37.845 135.779C37.8259 131.332 38.697 126.927 40.407 122.822C42.1169 118.717 44.6312 114.995 47.8017 111.877C53.3468 106.141 60.848 102.702 68.8133 102.244L68.9713 103.543C61.2901 104.045 54.0585 107.342 48.6416 112.81C42.8932 118.606 39.5289 126.347 39.2138 134.504C38.8988 142.661 41.656 150.639 46.9403 156.861L45.9209 157.787C40.6985 151.644 37.8354 143.842 37.845 135.779Z" fill="#E2F2D9"/>
<path d="M37.8459 226.341C37.8218 218.382 40.692 210.686 45.9217 204.686L47.0129 205.533C41.952 211.059 39.3175 218.503 39.2457 226.348C39.2684 234.502 42.3509 242.351 47.8834 248.342C53.416 254.332 60.9955 258.028 69.1228 258.699L69.0439 260.005C60.5769 259.308 52.6783 255.465 46.9038 249.234C41.1294 243.003 37.8979 234.836 37.8459 226.341Z" fill="#E2F2D9"/>
<path d="M102.208 293.194L103.608 293.072C104.024 300.753 107.305 307.999 112.804 313.378C118.626 319.113 126.383 322.462 134.55 322.767C142.717 323.073 150.703 320.313 156.937 315.029L157.705 316.027C151.218 321.539 142.897 324.416 134.39 324.089C125.883 323.763 117.808 320.255 111.763 314.261C106.136 308.624 102.742 301.141 102.208 293.194Z" fill="#E2F2D9"/>
<path d="M102.036 69.0219C102.716 60.5562 106.553 52.6549 112.784 46.8838C119.016 41.1128 127.188 37.8931 135.682 37.8628C143.663 37.7873 151.382 40.71 157.311 46.0527L156.442 47.0145C150.717 41.9519 143.325 39.1789 135.682 39.2265C127.526 39.2479 119.674 42.3257 113.677 47.8523C107.679 53.379 103.971 60.9529 103.285 69.0793L102.036 69.0219Z" fill="#E2F2D9"/>
<path d="M146.248 35.2872L147.418 34.6699C148.897 37.2827 150.447 39.9313 152.005 42.3861L150.756 43.1039C149.277 40.6347 147.648 37.8712 146.248 35.2872Z" fill="#E2F2D9"/>
<path d="M140.563 32.6523C141.202 33.5711 141.662 34.576 142.279 35.5666C143.256 37.018 144.139 38.5309 144.921 40.0958" fill="#E2F2D9"/>
<path d="M134.734 32.2725L135.904 31.5547C136.996 33.5142 138.151 35.3518 139.243 37.297C139.366 37.5541 139.52 37.7952 139.702 38.0148C139.702 38.2445 139.953 38.4742 139.953 38.7326L138.862 39.3499C138.783 39.192 138.625 38.9623 138.474 38.7326C138.324 38.5029 138.151 38.2732 138.151 38.0148C136.996 36.0696 135.904 34.1531 134.734 32.2725Z" fill="#E2F2D9"/>
<path d="M130.032 32.2725L131.102 31.5547C132.042 33.0908 133.062 34.8206 133.901 36.3926C134.358 37.0308 134.752 37.7109 135.079 38.4239L133.901 39.1417C133.584 38.445 133.226 37.7668 132.832 37.1104C131.856 35.4164 130.915 33.7296 130.032 32.2725Z" fill="#E2F2D9"/>
<path d="M125.237 32.8018L126.4 32.084C127.118 33.5196 127.958 34.9551 128.748 36.3907L130.183 38.7307L129.013 39.3839L127.685 37.008C126.788 35.5652 125.948 34.1871 125.237 32.8018Z" fill="#E2F2D9"/>
<path d="M125.387 40.2536C124.067 38.1792 122.889 35.9469 121.568 33.8438L125.387 40.2536Z" fill="#E2F2D9"/>
<path d="M117.212 35.8368L118.382 35.1836C119.322 36.9852 120.571 38.8659 121.662 40.6316L122.201 41.4355L121.031 42.0887L120.571 41.3207C119.401 39.5908 118.231 37.7174 117.212 35.8368Z" fill="#E2F2D9"/>
<path d="M117.614 43.857C116.444 41.7897 115.123 39.7153 114.024 37.7988L117.614 43.857Z" fill="#E2F2D9"/>
<path d="M114.182 46.5421C113.231 44.4702 112.087 42.4923 110.765 40.6348L114.182 46.5421Z" fill="#E2F2D9"/>
<path d="M111.369 49.5351C110.127 47.6617 109.05 45.7811 107.959 43.8574L111.369 49.5351Z" fill="#E2F2D9"/>
<path d="M108.345 53.1838C107.326 51.3032 106.257 49.3868 105.158 47.6641L108.345 53.1838Z" fill="#E2F2D9"/>
<path d="M102.818 52.0684C103.759 53.5685 104.757 55.2984 105.625 56.9852C105.625 56.9852 105.625 57.1359 105.855 57.1359" fill="#E2F2D9"/>
<path d="M101.11 57.5957C101.455 58.0483 101.763 58.5285 102.029 59.0313C102.668 60.2228 103.465 61.1847 103.917 62.2972" fill="#E2F2D9"/>
<path d="M102.668 68.4971C102.029 67.3846 101.34 66.1141 100.478 64.9082L102.668 68.4971Z" fill="#E2F2D9"/>
<path d="M37.845 135.779C37.8259 131.332 38.697 126.927 40.407 122.822C42.1169 118.717 44.6312 114.995 47.8017 111.877C53.3468 106.141 60.848 102.702 68.8133 102.244L68.9713 103.543C61.2901 104.045 54.0585 107.342 48.6416 112.81C42.8932 118.606 39.5289 126.347 39.2138 134.504C38.8988 142.661 41.656 150.639 46.9403 156.861L45.9209 157.787C40.6985 151.644 37.8354 143.842 37.845 135.779Z" fill="#E2F2D9"/>
<path d="M53.3301 102.501L53.7105 101.23C56.6681 102.034 59.6257 102.845 62.4253 103.456L62.1166 104.805C59.317 104.073 56.2876 103.305 53.3301 102.501Z" fill="#E2F2D9"/>
<path d="M47.3213 105.334L47.6515 104.035C48.2617 104.15 48.7211 104.337 49.281 104.495C49.8182 104.627 50.3622 104.73 50.9106 104.803C52.6191 105.263 54.4065 105.643 56.0504 106.239L55.5766 107.509C53.9489 106.965 52.287 106.529 50.6019 106.203L48.9508 105.743C48.4914 105.564 47.8812 105.492 47.3213 105.334Z" fill="#E2F2D9"/>
<path d="M43.043 108.566L43.3516 107.26C44.3638 107.489 45.3832 107.798 46.4025 108.028C47.5511 108.257 48.7212 108.602 49.8195 108.868L50.2789 108.982C50.6247 109.056 50.9634 109.159 51.2911 109.291L50.9107 110.554C50.622 110.399 50.2982 110.32 49.9703 110.325L49.5108 110.253C48.3407 109.944 47.1706 109.535 46.0723 109.291C44.974 109.047 44.0623 108.832 43.043 108.566Z" fill="#E2F2D9"/>
<path d="M39.7051 111.939L39.9348 110.633C41.6433 111.02 43.3518 111.48 45.1536 111.939C45.9217 112.205 46.8621 112.399 47.7235 112.657L47.3215 113.884C46.4744 113.734 45.613 113.504 44.7516 113.274C43.0969 112.731 41.4118 112.286 39.7051 111.939Z" fill="#E2F2D9"/>
<path d="M36.7109 115.679L37.1704 114.373L41.7359 115.679C42.6602 115.869 43.5694 116.126 44.4566 116.447L44.0761 117.675C43.2075 117.409 42.2887 117.215 41.3483 116.957C39.7762 116.548 38.2256 116.081 36.7109 115.679Z" fill="#E2F2D9"/>
<path d="M42.1955 120.804C39.7763 120.23 37.3643 119.462 34.9451 118.924L42.1955 120.804Z" fill="#E2F2D9"/>
<path d="M33.2373 123.416L33.546 122.066C35.9063 122.802 38.3022 123.417 40.7245 123.911L40.3943 125.218C37.9967 124.679 35.5775 124.069 33.2373 123.416Z" fill="#E2F2D9"/>
<path d="M39.245 128.864C36.9766 128.146 34.5646 127.594 32.3895 127.062L39.245 128.864Z" fill="#E2F2D9"/>
<path d="M31.9883 132.043L32.1462 130.744C34.4188 131.169 36.6573 131.759 38.8438 132.51L38.4561 133.737C36.3395 133.032 34.1789 132.466 31.9883 132.043Z" fill="#E2F2D9"/>
<path d="M38.865 137.27C36.7114 136.804 34.5579 136.194 32.4043 135.734L38.865 137.27Z" fill="#E2F2D9"/>
<path d="M39.245 141.987C37.2063 141.334 34.9379 140.802 33.0068 140.379L39.245 141.987Z" fill="#E2F2D9"/>
<path d="M34.5576 145.061C36.2589 145.484 38.0679 146.022 40.0061 146.561C40.0061 146.561 40.0779 146.632 40.2359 146.561" fill="#E2F2D9"/>
<path d="M37.207 150.133C37.8459 150.291 38.2264 150.441 38.9155 150.556C40.0856 150.98 41.3347 151.095 42.5048 151.475" fill="#E2F2D9"/>
<path d="M46.0003 156.88C44.8446 156.493 43.3514 156.069 42.0449 155.768L46.0003 156.88Z" fill="#E2F2D9"/>
<path d="M37.8459 226.341C37.8218 218.382 40.692 210.686 45.9217 204.686L47.0129 205.533C41.952 211.059 39.3175 218.503 39.2457 226.348C39.2684 234.502 42.3509 242.351 47.8834 248.342C53.416 254.332 60.9955 258.028 69.1228 258.699L69.0439 260.005C60.5769 259.308 52.6783 255.465 46.9038 249.234C41.1294 243.003 37.8979 234.836 37.8459 226.341Z" fill="#E2F2D9"/>
<path d="M34.5576 214.63C37.2783 213.058 39.9272 211.487 42.3464 209.986L43.0642 211.178C40.5661 212.671 38.0392 214.171 35.2898 215.628L34.5576 214.63Z" fill="#E2F2D9"/>
<path d="M32.627 221.349C33.5458 220.847 34.5652 220.237 35.4984 219.619C36.9772 218.779 38.5349 217.853 40.0855 217.014" fill="#E2F2D9"/>
<path d="M31.8369 226.764C33.7967 225.608 35.6559 224.381 37.5798 223.347L38.9006 222.543" fill="#E2F2D9"/>
<path d="M38.6853 227.533C36.3451 228.84 34.0264 230.218 31.8369 231.445L38.6853 227.533Z" fill="#E2F2D9"/>
<path d="M39.1448 232.479C36.8261 233.749 34.5649 235.055 32.4688 236.204L39.1448 232.479Z" fill="#E2F2D9"/>
<path d="M40.2429 236.59C38.0894 237.889 35.8855 239.045 33.7822 240.423L40.2429 236.59Z" fill="#E2F2D9"/>
<path d="M41.7355 240.422C39.6394 241.649 37.6079 243.071 35.5117 244.104L41.7355 240.422Z" fill="#E2F2D9"/>
<path d="M43.8254 244.336C41.722 245.527 39.6259 246.798 37.7451 247.925L43.8254 244.336Z" fill="#E2F2D9"/>
<path d="M46.4744 247.754C44.5936 248.752 42.5047 249.979 40.5449 251.285L46.4744 247.754Z" fill="#E2F2D9"/>
<path d="M49.5098 250.623C47.6505 251.815 45.6908 252.848 43.9033 254.04L49.5098 250.623Z" fill="#E2F2D9"/>
<path d="M53.1573 253.623C51.2583 254.6 49.4196 255.691 47.6514 256.889L53.1573 253.623Z" fill="#E2F2D9"/>
<path d="M51.9298 259.151C53.4804 258.233 55.1889 257.314 56.8974 256.237C56.9174 256.248 56.9396 256.255 56.9623 256.256C56.9851 256.258 57.0079 256.255 57.0295 256.248C57.0511 256.241 57.0709 256.229 57.0877 256.213C57.1045 256.198 57.1179 256.179 57.1271 256.158" fill="#E2F2D9"/>
<path d="M57.457 260.917C57.9128 260.555 58.4091 260.247 58.9358 259.999C60.0108 259.296 61.1253 258.656 62.2738 258.082" fill="#E2F2D9"/>
<path d="M68.4906 259.379C67.2313 259.955 66.0295 260.65 64.9014 261.453L68.4906 259.379Z" fill="#E2F2D9"/>
<path d="M102.208 293.194L103.608 293.072C104.024 300.753 107.305 307.999 112.804 313.378C118.626 319.113 126.383 322.462 134.55 322.767C142.717 323.073 150.703 320.313 156.937 315.029L157.705 316.027C151.218 321.539 142.897 324.416 134.39 324.089C125.883 323.763 117.808 320.255 111.763 314.261C106.136 308.624 102.742 301.141 102.208 293.194Z" fill="#E2F2D9"/>
<path d="M101.188 308.274L101.418 307.277C102.028 304.779 102.818 302.094 103.529 299.561L104.756 299.905C104.146 302.403 103.435 305.052 102.667 307.578L102.438 308.655L101.188 308.274Z" fill="#E2F2D9"/>
<path d="M104.678 314.508C104.929 313.395 105.159 312.355 105.467 311.206C105.855 309.555 106.257 307.754 106.788 306.139" fill="#E2F2D9"/>
<path d="M107.887 318.814C108.346 316.661 108.885 314.508 109.516 312.354C109.674 311.895 109.825 311.206 109.904 310.861" fill="#E2F2D9"/>
<path d="M113.163 314.504C112.553 317.038 111.763 319.722 111.225 322.098L113.163 314.504Z" fill="#E2F2D9"/>
<path d="M116.982 317.715C116.264 320.249 115.654 322.854 114.965 325.087L116.982 317.715Z" fill="#E2F2D9"/>
<path d="M120.801 319.787C120.169 322.242 119.401 324.618 118.862 326.965L120.801 319.787Z" fill="#E2F2D9"/>
<path d="M124.541 321.363C123.988 323.897 123.45 326.273 122.739 328.541L124.541 321.363Z" fill="#E2F2D9"/>
<path d="M128.748 322.854C128.116 325.086 127.578 327.462 127.097 329.608L128.748 322.854Z" fill="#E2F2D9"/>
<path d="M133.098 323.32C132.381 325.478 131.812 327.682 131.396 329.917L133.098 323.32Z" fill="#E2F2D9"/>
<path d="M137.304 323.162C136.673 325.387 136.213 327.469 135.675 329.622L137.304 323.162Z" fill="#E2F2D9"/>
<path d="M141.971 322.854C141.273 324.831 140.726 326.859 140.334 328.919L141.971 322.854Z" fill="#E2F2D9"/>
<path d="M145 327.461C145.402 325.695 145.94 323.872 146.479 321.97C146.479 321.97 146.63 321.97 146.479 321.74" fill="#E2F2D9"/>
<path d="M150.133 324.779C150.299 324.224 150.429 323.658 150.52 323.085C150.901 321.822 151.073 320.63 151.461 319.496" fill="#E2F2D9"/>
<path d="M156.916 316.029C156.426 317.301 156.035 318.609 155.746 319.941L156.916 316.029Z" fill="#E2F2D9"/>
<path d="M108.806 16.9183C108.806 14.0471 109.904 13.0063 110.686 12.6977C113.644 11.3554 117.865 16.5737 120.342 22.0289C121.634 24.9228 122.365 28.0357 122.495 31.2022C122.495 34.0734 121.555 35.0783 120.708 35.4659C120.004 35.7004 119.239 35.6724 118.554 35.3869C116.149 34.4682 113.177 30.8218 111.16 26.0988C109.674 22.7898 108.806 19.409 108.806 16.9183ZM121.189 31.2309C121.037 28.2537 120.326 25.3316 119.093 22.6175C116.444 16.7891 112.783 13.1786 111.196 13.8677C110.579 14.1763 110.105 15.3032 110.105 16.9398C110.105 19.3228 110.966 22.5026 112.259 25.6107C114.197 29.8312 116.925 33.4417 118.956 34.2241C119.317 34.3973 119.731 34.4256 120.112 34.3031C120.88 33.9944 121.189 32.8819 121.189 31.2309Z" fill="#E2F2D9"/>
<path d="M12.0678 112.558C12.029 112.241 12.1139 111.923 12.3047 111.668C13.3958 108.674 20.0144 109.371 25.6927 111.56C31.3709 113.749 35.5776 117.238 35.5776 119.843C35.6073 120.16 35.5554 120.478 35.4268 120.769C35.2785 121.102 35.0638 121.401 34.796 121.647C34.5281 121.894 34.2127 122.084 33.8691 122.205C31.4499 123.281 26.791 122.779 22.0316 120.819C16.1165 118.616 12.0678 115.163 12.0678 112.558ZM34.3213 119.843C34.3213 118.077 30.9043 115.012 25.1328 112.787C19.2176 110.404 14.0993 110.555 13.3886 112.134V112.558C13.3886 114.244 16.8056 117.431 22.5054 119.613C26.8556 121.3 31.3709 121.918 33.2732 120.999C33.469 120.952 33.6502 120.857 33.8005 120.723C33.9508 120.589 34.0656 120.42 34.1347 120.231C34.1935 120.184 34.2413 120.126 34.2748 120.059C34.3083 119.992 34.3266 119.918 34.3285 119.843H34.3213Z" fill="#E2F2D9"/>
<path d="M12.4548 250.325C12.4548 247.712 16.3528 244.18 22.031 241.647C26.7904 239.687 31.4493 238.962 33.8685 239.881C34.5415 240.16 35.0936 240.668 35.4262 241.316C35.5914 241.596 35.6713 241.918 35.6559 242.242C35.6559 244.848 31.679 248.38 26.0797 250.763C21.3347 252.916 16.6543 253.598 14.1849 252.679C13.837 252.576 13.5157 252.399 13.243 252.16C12.9703 251.921 12.7529 251.625 12.6056 251.294C12.4907 250.984 12.4394 250.655 12.4548 250.325ZM34.3279 242.264C34.347 242.13 34.3217 241.994 34.2561 241.876C34.0982 241.496 33.7967 241.338 33.3157 241.108C31.5282 240.391 27.6303 240.692 22.5838 242.917C17.0563 245.293 13.7757 248.559 13.7757 250.325C13.7639 250.482 13.7911 250.64 13.8547 250.784C14.0411 251.123 14.3487 251.38 14.7161 251.502C16.7332 252.306 21.2629 251.502 25.5413 249.621C31.0688 247.253 34.3279 243.951 34.3279 242.264Z" fill="#E2F2D9"/>
<path d="M109.674 345.112C109.752 342.114 110.355 339.153 111.454 336.362C113.335 331.532 116.135 327.749 118.539 326.73C118.856 326.524 119.22 326.403 119.597 326.377C119.973 326.35 120.35 326.42 120.693 326.579C121.942 327.002 122.631 328.61 122.631 331.223C122.545 334.195 121.943 337.129 120.851 339.894C118.913 344.811 116.106 348.687 113.672 349.605C113.35 349.779 112.995 349.882 112.63 349.908C112.265 349.934 111.898 349.882 111.555 349.756C110.284 349.261 109.674 347.646 109.674 345.112ZM121.418 331.223C121.418 329.378 120.951 328.079 120.262 327.842C119.877 327.717 119.457 327.745 119.092 327.921C117.29 328.639 114.735 331.761 112.782 336.822C111.683 339.452 111.077 342.262 110.995 345.112C110.995 346.957 111.375 348.184 112.165 348.493C112.473 348.687 112.782 348.687 113.256 348.335C115.273 347.567 117.843 343.928 119.552 339.434C120.662 336.831 121.294 334.05 121.418 331.223Z" fill="#E2F2D9"/>
<path d="M97.2912 45.3356C97.2912 24.0317 110.284 12.906 110.536 12.748L111.376 13.7888C111.225 13.9037 92.3237 30.097 100.608 60.4953L99.3802 60.8757C97.9796 55.8149 97.2768 50.5866 97.2912 45.3356Z" fill="#E2F2D9"/>
<path d="M110.916 12.6211C111.225 12.5493 136.594 10.0873 153.327 37.9518L152.157 38.6696C135.983 11.5373 111.304 13.9562 111.074 13.9562L110.916 12.6211Z" fill="#E2F2D9"/>
<path d="M12.1455 113.087V111.902L13.5812 111.938C13.5812 112.247 11.643 136.996 39.1082 152.543L38.3903 153.728C13.775 139.76 12.1455 118.463 12.1455 113.087Z" fill="#E2F2D9"/>
<path d="M12.3037 111.516C12.4545 111.322 28.7282 91.5257 60.2564 99.4285L59.8544 100.735C29.3384 93.0187 13.5456 112.133 13.3159 112.327L12.3037 111.516Z" fill="#E2F2D9"/>
<path d="M12.7061 251.478L13.7757 250.631C13.8546 250.789 30.0494 269.595 60.5655 261.225L60.867 262.568C29.669 271.124 12.8568 251.672 12.7061 251.478Z" fill="#E2F2D9"/>
<path d="M12.5332 249.288C12.5332 243.072 14.335 222.773 37.8448 208.646L38.5626 209.874C15.7635 223.512 13.8828 243.301 13.8828 249.216V250.938L12.6337 251.089C12.6337 251.089 12.5332 250.328 12.5332 249.288Z" fill="#E2F2D9"/>
<path d="M111.763 349.834L111.935 348.492C112.165 348.492 136.902 350.337 152.558 322.932L153.714 323.649C137.684 351.83 112.086 349.834 111.763 349.834Z" fill="#E2F2D9"/>
<path d="M97.4492 316.177C97.5085 311.318 98.1643 306.484 99.4018 301.785L100.629 302.094C92.8621 332.794 112.165 348.492 112.316 348.685L111.455 349.676C111.368 349.525 97.4492 338.191 97.4492 316.177Z" fill="#E2F2D9"/>
<path d="M156.536 13.7747L158.015 12.9277L168.819 32.5018L167.419 33.3488L156.536 13.7747Z" fill="#E2F2D9"/>
<path d="M179.586 20.6795L179.737 0L182.192 0.0359025L182.041 20.7584L179.586 20.6795Z" fill="#E2F2D9"/>
<path d="M160.412 13.3096C160.421 14.1441 160.1 14.9483 159.517 15.5458C158.934 16.1433 158.138 16.4852 157.304 16.4966C156.882 16.5064 156.463 16.4307 156.072 16.274C155.681 16.1173 155.326 15.8829 155.028 15.585C154.73 15.2871 154.496 14.9318 154.339 14.5407C154.182 14.1496 154.106 13.7308 154.116 13.3096C154.097 12.8874 154.168 12.4659 154.322 12.0726C154.477 11.6792 154.712 11.3228 155.013 11.0263C155.315 10.7299 155.675 10.5 156.071 10.3518C156.466 10.2035 156.889 10.1401 157.311 10.1657C158.137 10.177 158.926 10.5132 159.506 11.1016C160.087 11.69 160.412 12.4832 160.412 13.3096Z" fill="#E2F2D9"/>
<path d="M45.3828 80.0122L45.8494 78.3613L67.4138 84.5056L66.861 86.1924L45.3828 80.0122Z" fill="#E2F2D9"/>
<path d="M78.4688 45.7785L80.0983 45.2832L86.3939 67.1542L84.7644 67.6495L78.4688 45.7785Z" fill="#E2F2D9"/>
<path d="M52.1592 53.8411L53.8677 52.1543L68.3325 66.9623L66.6311 68.649L52.1592 53.8411Z" fill="#E2F2D9"/>
<path d="M47.8814 76.9152C48.1788 77.2126 48.4148 77.5657 48.5757 77.9542C48.7367 78.3428 48.8196 78.7593 48.8196 79.1798C48.8196 79.6004 48.7367 80.0169 48.5757 80.4055C48.4148 80.794 48.1788 81.1471 47.8814 81.4445C47.584 81.7419 47.2309 81.9777 46.8423 82.1387C46.4537 82.2996 46.0372 82.3825 45.6166 82.3825C45.196 82.3825 44.7795 82.2996 44.3909 82.1387C44.0023 81.9777 43.6492 81.7419 43.3518 81.4445C42.7775 80.8302 42.458 80.0207 42.458 79.1798C42.458 78.339 42.7775 77.5295 43.3518 76.9152C43.9707 76.3503 44.7785 76.0371 45.6166 76.0371C46.4546 76.0371 47.2624 76.3503 47.8814 76.9152Z" fill="#E2F2D9"/>
<path d="M81.5768 43.3196C81.8733 43.6138 82.1086 43.9638 82.2692 44.3494C82.4298 44.735 82.5124 45.1485 82.5124 45.5662C82.5124 45.9839 82.4298 46.3975 82.2692 46.7831C82.1086 47.1687 81.8733 47.5187 81.5768 47.8129C80.9674 48.4191 80.1428 48.7594 79.2833 48.7594C78.4237 48.7594 77.5991 48.4191 76.9897 47.8129C76.6893 47.5185 76.4521 47.1659 76.2926 46.7766C76.1331 46.3874 76.0546 45.9698 76.062 45.5492C76.0694 45.1287 76.1625 44.714 76.3356 44.3307C76.5087 43.9473 76.7581 43.6033 77.0687 43.3196C77.671 42.7303 78.4801 42.4004 79.3227 42.4004C80.1654 42.4004 80.9745 42.7303 81.5768 43.3196Z" fill="#E2F2D9"/>
<path d="M12.8564 204.008L32.3893 193.184L33.1574 194.605L13.7035 205.422L12.8564 204.008Z" fill="#E2F2D9"/>
<path d="M12.8574 157.913L13.7045 156.42L33.546 167.395L32.8569 168.895L12.8574 157.913Z" fill="#E2F2D9"/>
<path d="M0 182.291V179.793L20.7101 179.944L20.6312 182.477L0 182.291Z" fill="#E2F2D9"/>
<path d="M13.2373 201.548C13.6523 201.537 14.0654 201.608 14.4522 201.76C14.8389 201.911 15.1913 202.138 15.4886 202.428C15.7858 202.718 16.0218 203.064 16.1826 203.447C16.3434 203.83 16.4257 204.241 16.4245 204.656C16.433 205.28 16.2563 205.892 15.9168 206.415C15.5773 206.938 15.0903 207.348 14.5174 207.594C13.9445 207.84 13.3114 207.911 12.6983 207.797C12.0852 207.683 11.5196 207.39 11.0732 206.955C10.6268 206.52 10.3196 205.962 10.1904 205.352C10.0613 204.742 10.116 204.107 10.3477 203.528C10.5794 202.949 10.9776 202.452 11.492 202.1C12.0064 201.747 12.6137 201.555 13.2373 201.548Z" fill="#E2F2D9"/>
<path d="M13.2371 153.922C14.0824 153.922 14.8931 154.258 15.4908 154.855C16.0886 155.453 16.4244 156.264 16.4244 157.109C16.4244 157.954 16.0886 158.765 15.4908 159.362C14.8931 159.96 14.0824 160.296 13.2371 160.296C12.3918 160.296 11.5811 159.96 10.9833 159.362C10.3856 158.765 10.0498 157.954 10.0498 157.109C10.0498 156.264 10.3856 155.453 10.9833 154.855C11.5811 154.258 12.3918 153.922 13.2371 153.922Z" fill="#E2F2D9"/>
<path d="M78.3898 316.176L84.5346 294.686L86.1641 295.152L80.0265 316.643L78.3898 316.176Z" fill="#E2F2D9"/>
<path d="M45.3105 281.945L67.0903 275.578L67.5641 277.186L45.77 283.56L45.3105 281.945Z" fill="#E2F2D9"/>
<path d="M52.1592 308.194L66.8608 293.572L68.6627 295.381L53.8677 309.809L52.1592 308.194Z" fill="#E2F2D9"/>
<path d="M76.9105 314.101C77.5264 313.53 78.3354 313.213 79.1753 313.213C80.0153 313.213 80.8242 313.53 81.4402 314.101C81.7581 314.388 82.0149 314.735 82.195 315.123C82.3751 315.511 82.4749 315.932 82.4883 316.359C82.5017 316.787 82.4285 317.213 82.273 317.612C82.1176 318.01 81.8831 318.373 81.5838 318.679C81.2844 318.984 80.9263 319.226 80.531 319.39C80.1357 319.554 79.7113 319.636 79.2835 319.631C78.8556 319.627 78.4331 319.536 78.0414 319.364C77.6496 319.192 77.2967 318.942 77.0038 318.631C76.694 318.343 76.4451 317.996 76.2721 317.61C76.0991 317.225 76.0055 316.808 75.9968 316.386C75.9881 315.963 76.0645 315.543 76.2214 315.151C76.3784 314.758 76.6127 314.401 76.9105 314.101Z" fill="#E2F2D9"/>
<path d="M43.1721 280.492C43.4707 280.183 43.8287 279.937 44.2246 279.768C44.6205 279.6 45.0463 279.514 45.4764 279.514C45.9066 279.514 46.3323 279.6 46.7282 279.768C47.1241 279.937 47.4821 280.183 47.7807 280.492C48.3586 281.096 48.6812 281.9 48.6812 282.736C48.6812 283.571 48.3586 284.375 47.7807 284.979C47.1845 285.584 46.3729 285.929 45.5233 285.938C44.6736 285.947 43.8549 285.619 43.2461 285.026C42.6372 284.434 42.2877 283.624 42.2739 282.775C42.26 281.925 42.5829 281.105 43.1721 280.492Z" fill="#E2F2D9"/>
<path d="M156.363 348.341L167.339 328.387L168.818 329.227L157.842 349.109L156.363 348.341Z" fill="#E2F2D9"/>
<path d="M179.736 362.001L179.966 341.242L182.342 341.393L182.191 362.001H179.736Z" fill="#E2F2D9"/>
<path d="M153.886 348.686C153.925 347.868 154.277 347.096 154.87 346.531C155.463 345.966 156.251 345.65 157.07 345.65C157.889 345.65 158.677 345.966 159.27 346.531C159.862 347.096 160.215 347.868 160.254 348.686C160.274 349.117 160.207 349.547 160.056 349.951C159.905 350.355 159.674 350.725 159.376 351.037C159.079 351.349 158.721 351.597 158.324 351.767C157.928 351.937 157.501 352.024 157.07 352.024C156.639 352.024 156.212 351.937 155.815 351.767C155.419 351.597 155.061 351.349 154.763 351.037C154.466 350.725 154.234 350.355 154.084 349.951C153.933 349.547 153.866 349.117 153.886 348.686Z" fill="#E2F2D9"/>
<path d="M105.927 91.217L106.085 89.7168C106.257 89.7168 125.309 91.217 125.309 108.946H123.758C123.758 92.71 106.716 91.217 105.927 91.217Z" fill="#E2F2D9"/>
<path d="M108.727 103.993C112.086 103.153 116.831 101.581 120.018 97.3964C122.28 94.8626 123.529 91.5249 123.758 87.4551L125.237 87.6058C124.929 91.9843 123.601 95.6307 121.11 98.3726C117.772 102.945 112.703 104.517 109.136 105.436L108.727 103.993Z" fill="#E2F2D9"/>
<path d="M63.3652 169.349C63.5949 169.277 78.0669 156.881 90.5935 169.427L89.5239 170.504C78.0382 158.955 64.9948 170.045 64.3989 170.54L63.3652 169.349Z" fill="#E2F2D9"/>
<path d="M74.3418 155.299L75.4903 154.301C78.4694 157.603 80.099 161.213 80.2497 164.895C81.1183 170.501 78.5484 175.332 76.7394 178.44L75.4186 177.636C77.1414 174.722 79.5462 170.193 78.6992 165.046C78.5484 161.672 77.0696 158.371 74.3418 155.299Z" fill="#E2F2D9"/>
<path d="M89.5957 256.009C89.5957 255.701 91.1534 236.629 108.884 236.629V238.129C92.6322 238.129 91.1534 255.205 91.1534 256.074L89.5957 256.009Z" fill="#E2F2D9"/>
<path d="M87.4132 238.16L87.564 236.66C91.9213 237.005 95.5824 238.347 98.3892 240.845C102.818 244.262 104.527 249.286 105.317 252.853L103.917 253.241C103.127 249.939 101.576 245.18 97.3699 242.036C94.7999 239.732 91.4619 238.505 87.4132 238.16Z" fill="#E2F2D9"/>
<path d="M163.771 284.022C163.771 279.988 165.171 275.581 169.45 271.396L170.448 272.43C158.854 283.915 170.06 296.993 170.541 297.603L169.371 298.565C169.371 298.486 163.771 292.004 163.771 284.022Z" fill="#E2F2D9"/>
<path d="M154.346 286.559C157.605 283.566 161.122 281.951 164.762 281.721C171.079 280.874 176.527 284.176 178.315 285.253L177.547 286.559C174.568 284.75 170.139 282.525 164.934 283.257C161.582 283.408 158.394 284.908 155.358 287.629L154.346 286.559Z" fill="#E2F2D9"/>
<path d="M164.532 78.972C164.532 70.9544 169.988 64.5445 170.06 64.4297L171.158 65.4274C170.77 65.9657 159.565 79.0151 171.158 90.6002L170.06 91.5979C165.925 87.4204 164.532 82.927 164.532 78.972Z" fill="#E2F2D9"/>
<path d="M154.268 75.9075L155.359 74.7949C163.973 83.2361 173.499 79.3959 178.33 76.4028L179.134 77.745C173.879 81.011 163.693 85.1526 154.268 75.9075Z" fill="#E2F2D9"/>
<path d="M90.8303 106.345L92.3234 106.23C92.4024 106.884 93.8022 124.003 110.054 123.924V125.496C92.3234 125.482 90.9236 106.446 90.8303 106.345Z" fill="#E2F2D9"/>
<path d="M87.793 124.071C99.8601 123.913 103.837 114.546 105.158 108.947L106.558 109.292C105.158 115.314 100.958 125.449 87.793 125.6V124.071Z" fill="#E2F2D9"/>
<path d="M64.3848 191.916L65.3826 190.725C65.9353 191.299 79.0218 202.281 90.5075 190.839L91.5987 191.837C79.0075 204.391 64.4566 192.067 64.3848 191.916Z" fill="#E2F2D9"/>
<path d="M74.8008 206.695C83.2069 198.017 79.3879 188.542 76.4303 183.783L77.6794 182.857C80.9456 188.076 85.0661 198.283 75.8201 207.65L74.8008 206.695Z" fill="#E2F2D9"/>
<path d="M106.156 269.594C106.874 269.594 123.988 268.209 123.988 251.972V251.9H125.538V251.972C125.538 269.594 106.486 271.123 106.257 271.159L106.156 269.594Z" fill="#E2F2D9"/>
<path d="M108.885 256.893L109.208 255.393C115.274 256.735 125.388 260.998 125.539 274.234H123.988C123.909 262.068 114.563 258.156 108.885 256.893Z" fill="#E2F2D9"/>
<path d="M136.752 180.998C136.741 172.254 139.323 163.702 144.173 156.426C149.022 149.149 155.921 143.473 163.997 140.118C172.073 136.762 180.963 135.876 189.542 137.572C198.121 139.269 206.004 143.471 212.195 149.648C218.385 155.825 222.605 163.698 224.319 172.273C226.034 180.848 225.167 189.739 221.828 197.821C218.489 205.903 212.827 212.813 205.56 217.678C198.293 222.542 189.746 225.142 181.001 225.149C169.281 225.149 158.041 220.501 149.745 212.224C141.45 203.946 136.777 192.717 136.752 180.998ZM224.251 180.998C224.257 172.447 221.727 164.086 216.98 156.972C212.234 149.859 205.485 144.312 197.586 141.034C189.688 137.756 180.994 136.893 172.605 138.554C164.216 140.216 156.508 144.328 150.455 150.369C144.403 156.411 140.278 164.112 138.602 172.497C136.927 180.883 137.775 189.577 141.041 197.48C144.306 205.384 149.842 212.141 156.949 216.899C164.055 221.657 172.413 224.201 180.965 224.209C192.429 224.196 203.42 219.641 211.533 211.543C219.646 203.444 224.219 192.461 224.251 180.998Z" fill="#E2F2D9"/>
<path d="M132.624 180.996C132.63 171.437 135.469 162.094 140.784 154.149C146.099 146.203 153.65 140.011 162.483 136.356C171.316 132.701 181.035 131.746 190.411 133.612C199.787 135.478 208.399 140.082 215.158 146.841C221.918 153.6 226.522 162.211 228.389 171.586C230.255 180.961 229.3 190.679 225.644 199.511C221.989 208.344 215.796 215.894 207.85 221.208C199.904 226.523 190.56 229.362 181 229.368C168.174 229.354 155.877 224.254 146.808 215.185C137.738 206.117 132.637 193.821 132.624 180.996ZM228.285 180.996C228.285 171.622 225.504 162.459 220.294 154.667C215.084 146.874 207.679 140.802 199.016 137.219C190.354 133.636 180.823 132.704 171.63 134.539C162.436 136.375 153.995 140.896 147.372 147.531C140.75 154.165 136.245 162.615 134.428 171.811C132.61 181.007 133.562 190.535 137.162 199.19C140.762 207.845 146.849 215.237 154.653 220.431C162.456 225.626 171.626 228.388 181 228.37C193.55 228.345 205.577 223.343 214.442 214.461C223.307 205.58 228.285 193.544 228.285 180.996Z" fill="#E2F2D9"/>
</svg>
