<svg width="237" height="218" viewBox="0 0 237 218" fill="none" xmlns="http://www.w3.org/2000/svg">
<path d="M101.832 9.99828C101.832 -47.9404 149.013 -95.0762 206.957 -95.0762C264.902 -95.0762 312.083 -47.9158 312.083 9.99828C312.083 67.9124 264.893 115.073 206.999 115.073C149.104 115.073 101.832 67.9534 101.832 9.99828ZM309.398 9.99828C309.385 -17.1555 298.593 -43.1938 279.393 -62.3968C260.193 -81.5997 234.155 -92.3969 206.999 -92.4165C150.573 -92.4165 104.459 -46.5531 104.459 10.0229C104.459 66.5989 150.532 112.544 206.999 112.544C263.465 112.544 309.398 66.5497 309.398 9.99828Z" fill="#E2F2D9"/>
<path d="M137.431 9.99701C137.427 -3.76187 141.505 -17.2127 149.147 -28.6544C156.79 -40.096 167.654 -49.0146 180.365 -54.2821C193.077 -59.5497 207.066 -60.9296 220.562 -58.2474C234.058 -55.5651 246.456 -48.9412 256.187 -39.2134C265.918 -29.4855 272.545 -17.0907 275.231 -3.59645C277.917 9.89782 276.54 23.8854 271.275 36.5973C266.01 49.3091 257.093 60.1742 245.652 67.8186C234.211 75.463 220.76 79.5432 207 79.5432C188.556 79.5279 170.873 72.1964 157.83 59.1578C144.787 46.1191 137.45 28.4386 137.431 9.99701ZM274.533 9.99701C274.52 -3.35967 270.547 -16.4126 263.116 -27.5118C255.685 -38.6109 245.129 -47.2578 232.784 -52.3595C220.439 -57.4611 206.858 -58.7884 193.759 -56.1735C180.659 -53.5586 168.629 -47.1189 159.19 -37.6686C149.75 -28.2182 143.324 -16.1815 140.725 -3.08014C138.126 10.0212 139.47 23.5991 144.587 35.9369C149.704 48.2746 158.364 58.8185 169.474 66.2353C180.583 73.6522 193.642 77.6091 207 77.6059C224.909 77.5624 242.071 70.422 254.725 57.7493C267.379 45.0765 274.493 27.9049 274.508 9.99701H274.533Z" fill="#E2F2D9"/>
<path d="M144.213 9.99367C144.219 -2.41414 147.905 -14.5415 154.803 -24.8555C161.701 -35.1695 171.502 -43.2072 182.968 -47.9524C194.433 -52.6977 207.049 -53.9376 219.219 -51.5153C231.389 -49.0931 242.568 -43.1175 251.343 -34.3438C260.117 -25.5702 266.093 -14.3924 268.516 -2.22329C270.938 9.9458 269.698 22.5599 264.952 34.0244C260.207 45.489 252.168 55.2894 241.853 62.1868C231.538 69.0843 219.41 72.7692 207.001 72.7757C190.354 72.7583 174.394 66.1382 162.622 54.3681C150.851 42.5979 144.23 26.6392 144.213 9.99367ZM267.835 9.99367C267.83 -2.03597 264.258 -13.7941 257.57 -23.794C250.883 -33.7939 241.38 -41.5866 230.264 -46.1867C219.148 -50.7869 206.917 -51.988 195.118 -49.6381C183.319 -47.2883 172.481 -41.493 163.976 -32.9851C155.471 -24.4771 149.679 -13.6385 147.334 -1.83965C144.989 9.95921 146.195 22.1885 150.8 33.3019C155.405 44.4154 163.202 53.9141 173.206 60.5969C183.209 67.2797 194.97 70.8466 207.001 70.8466C223.13 70.8162 238.589 64.3944 249.992 52.9881C261.395 41.5819 267.811 26.1213 267.835 9.99367Z" fill="#E2F2D9"/>
<path d="M103.788 -1.91272L104.075 -3.8418L138.95 0.632087L138.679 2.65145L103.788 -1.91272Z" fill="#E2F2D9"/>
<path d="M103.081 11.1209V9.14258L138.334 9.23286V11.1209H103.081Z" fill="#E2F2D9"/>
<path d="M103.788 22.1373L138.679 17.918L139.032 19.765L104.075 24.1075L103.788 22.1373Z" fill="#E2F2D9"/>
<path d="M106.11 34.9492L140.287 26.2148L140.747 28.2753L106.636 36.8783L106.11 34.9492Z" fill="#E2F2D9"/>
<path d="M110.02 47.4143L142.875 34.5098L143.581 36.3979L110.832 49.212L110.02 47.4143Z" fill="#E2F2D9"/>
<path d="M115.462 59.2655L146.339 42.3223L147.242 43.9887L116.521 61.0223L115.462 59.2655Z" fill="#E2F2D9"/>
<path d="M122.31 70.3229L150.888 49.6035L152.045 51.2781L123.566 71.9072L122.31 70.3229Z" fill="#E2F2D9"/>
<path d="M130.583 80.503L156.304 56.459L157.642 57.8627L131.921 81.8246L130.583 80.503Z" fill="#E2F2D9"/>
<path d="M140.019 89.4598L162.538 62.4277L163.966 63.6509L141.537 90.6501L140.019 89.4598Z" fill="#E2F2D9"/>
<path d="M150.535 97.275L169.385 67.5176L171.101 68.6176L152.226 98.3258L150.535 97.275Z" fill="#E2F2D9"/>
<path d="M161.838 103.55L176.87 71.7734L178.643 72.7011L163.611 104.388L161.838 103.55Z" fill="#E2F2D9"/>
<path d="M173.931 108.501L184.874 75.0664L186.656 75.6821L175.901 109.076L173.931 108.501Z" fill="#E2F2D9"/>
<path d="M186.565 111.842L193.24 77.2578L195.128 77.7832L188.437 112.195L186.565 111.842Z" fill="#E2F2D9"/>
<path d="M199.389 113.645L201.712 78.4453L203.666 78.6259L201.334 113.736L199.389 113.645Z" fill="#E2F2D9"/>
<path d="M210.333 78.6259L212.312 78.4453L214.421 113.645L212.484 113.736L210.333 78.6259Z" fill="#E2F2D9"/>
<path d="M218.896 77.7832L220.744 77.2578L227.328 111.842L225.481 112.195L218.896 77.7832Z" fill="#E2F2D9"/>
<path d="M227.237 75.5918L229.126 75.0664L239.88 108.501L238.033 109.076L227.237 75.5918Z" fill="#E2F2D9"/>
<path d="M235.266 72.6069L237.072 71.6875L251.907 103.546L250.15 104.384L235.266 72.6069Z" fill="#E2F2D9"/>
<path d="M39.0859 10.455L39.9069 9.48633L40.2845 9.83931C47.8293 18.9677 74.6258 48.1094 103.031 37.5773L106.586 36.3952L106.931 37.5773L103.557 38.7266C74.281 49.6116 46.9508 19.9445 39.2912 10.6438L39.0859 10.455Z" fill="#E2F2D9"/>
<path d="M38.9971 10.1041L39.0874 9.93172V9.75931L39.6128 9.14364C49.6861 -2.52948 76.0229 -28.519 103.525 -18.3809L106.9 -17.0183L106.465 -15.8772L103 -17.1496C76.3759 -27.0003 50.4579 -1.47873 40.6883 10.022L40.3353 10.2847V10.4571L39.9658 10.9414L38.9971 10.1041Z" fill="#E2F2D9"/>
<path d="M88.4834 127.818L88.8364 127.728L89.017 127.818C100.864 128.91 140.279 130.535 152.921 102.97L154.457 99.6367L155.795 100.162L154.178 103.577C141.182 131.75 100.954 130.215 88.9267 129.123L88.5737 129.214L88.4834 127.818Z" fill="#E2F2D9"/>
<path d="M87.6797 118.645C87.6797 100.823 91.6039 73.397 113.68 63.218L117.062 61.5762L117.678 62.8485L114.296 64.2523C88.4021 76.1881 88.3118 112.529 89.2806 127.543L89.3627 127.978L89.5433 128.159V128.725L88.4021 128.898L88.1394 128.816V128.635L88.0491 128.553V127.732C87.8521 125.187 87.6797 122.117 87.6797 118.645Z" fill="#E2F2D9"/>
<path d="M206.515 177.055L206.868 176.661C216.046 169.067 244.969 142.035 234.518 113.944L233.205 110.48L234.436 110.086L235.733 113.427C246.488 142.437 217.031 169.913 207.771 177.596L207.418 177.99L206.515 177.055Z" fill="#E2F2D9"/>
<path d="M176.336 126.369C176.292 121.998 177.043 117.656 178.553 113.554L179.899 110L181.147 110.484L179.809 113.948C169.957 140.545 195.473 166.486 206.901 176.336L207.254 176.681H207.426L207.869 176.993L206.999 178.027L206.909 177.937H206.737L206.121 177.33C196.269 168.809 176.336 148.845 176.336 126.369Z" fill="#E2F2D9"/>
<path d="M22.7168 10.8187L24.2274 9.23438L24.3998 9.41497C24.9334 10.1127 66.7619 63.594 110.019 47.25L110.84 49.2202C66.1544 66.2948 24.5886 13.1911 22.8974 10.95L22.7168 10.8187Z" fill="#E2F2D9"/>
<path d="M22.7168 9.66578L22.8892 9.48518C24.5804 7.2934 66.2365 -45.72 110.832 -28.7849L110.011 -26.7163C66.9261 -43.1341 26.2716 8.78741 24.4819 10.9382L24.2192 11.2009L22.7168 9.66578Z" fill="#E2F2D9"/>
<path d="M77.2861 138.658H77.6391C78.3452 138.748 145.451 147.22 164.794 104.73L166.83 105.699C146.798 149.502 77.9922 140.899 77.2861 140.809V138.658Z" fill="#E2F2D9"/>
<path d="M75.6437 125.933C75.6437 104.204 80.1918 64.7926 111.422 50.4844L112.407 52.4135C72.2695 70.8507 77.6879 132.648 78.5827 139.666V140.192H76.3497V139.757C75.8736 135.164 75.638 130.55 75.6437 125.933Z" fill="#E2F2D9"/>
<path d="M206.18 193.344V192.86L206.533 192.515C215.399 185.316 259.297 147.308 244.109 106.929L246.038 106.182C261.801 147.481 217.772 186.145 208.199 193.919C207.891 194.294 207.456 194.542 206.976 194.617V192.425C206.861 192.427 206.749 192.454 206.645 192.503C206.541 192.552 206.449 192.621 206.374 192.708C206.299 192.795 206.243 192.896 206.21 193.006C206.176 193.115 206.166 193.23 206.18 193.344Z" fill="#E2F2D9"/>
<path d="M164.95 124.101C164.931 117.968 166.044 111.885 168.234 106.156L170.279 106.903C155.279 147.217 198.947 185.315 207.822 192.514L208.257 192.859V193.343C208.272 193.223 208.26 193.1 208.221 192.985C208.183 192.869 208.12 192.763 208.036 192.675C207.952 192.587 207.849 192.519 207.735 192.476C207.622 192.432 207.5 192.415 207.378 192.424V194.616C207.155 194.611 206.938 194.542 206.752 194.419C206.566 194.295 206.419 194.122 206.327 193.918C198.044 187.31 164.95 158.234 164.95 124.101Z" fill="#E2F2D9"/>
<path d="M23.4219 10.6357V9.32227H23.9473H39.5293L39.7921 9.40439L39.6114 10.6357H39.439H23.9473H23.4219Z" fill="#E2F2D9"/>
<path d="M34.9814 22.3116L44.8824 15.8184L45.4981 16.9101L35.7121 23.4937L34.9814 22.3116Z" fill="#E2F2D9"/>
<path d="M41.9434 28.7192L51.8197 22.4805L52.4354 23.5804L42.6412 29.77L41.9434 28.7192Z" fill="#E2F2D9"/>
<path d="M52.8945 36.879L61.7775 30.2051L62.5902 31.3544L53.5924 38.02L52.8945 36.879Z" fill="#E2F2D9"/>
<path d="M47.9775 33.587L56.7127 26.5684L57.5008 27.578L48.7903 34.5967L47.9775 33.587Z" fill="#E2F2D9"/>
<path d="M67.6641 45.2232L76.8343 37.8516L77.6307 38.8613L68.3619 46.2329L67.6641 45.2232Z" fill="#E2F2D9"/>
<path d="M76.9248 47.5976L87.6795 39.9551L88.402 41.0141L77.5405 48.6894L76.9248 47.5976Z" fill="#E2F2D9"/>
<path d="M87.591 50.5725L99.7906 38.6367L100.669 39.6054L88.4941 51.4509L87.591 50.5725Z" fill="#E2F2D9"/>
<path d="M99.6162 50.576L106.11 38.7305L107.366 39.4775L100.864 51.1916L99.6162 50.576Z" fill="#E2F2D9"/>
<path d="M28.751 15.7283L42.1164 12.6582L42.4694 14.0209L29.0383 17.0008L28.751 15.7283Z" fill="#E2F2D9"/>
<path d="M76.7285 139.319L77.098 139.007L88.3124 127.818L89.1006 128.828L88.9282 129L77.6316 140.28L76.7285 139.319Z" fill="#E2F2D9"/>
<path d="M94.082 140.37L96.4957 128.746L97.6615 129.001L95.3381 140.723L94.082 140.37Z" fill="#E2F2D9"/>
<path d="M103.525 139.845L106.029 128.566L107.277 128.829L104.773 140.198L103.525 139.845Z" fill="#E2F2D9"/>
<path d="M117.062 138.176L118.581 126.938L119.919 127.11L118.4 138.307L117.062 138.176Z" fill="#E2F2D9"/>
<path d="M111.275 139.06L112.433 127.994L113.771 128.175L112.614 139.142L111.275 139.06Z" fill="#E2F2D9"/>
<path d="M133.35 133.616L134.688 121.68L135.936 121.893L134.688 133.706L133.35 133.616Z" fill="#E2F2D9"/>
<path d="M141.625 128.653L143.661 115.617L144.999 115.749L142.873 128.825L141.625 128.653Z" fill="#E2F2D9"/>
<path d="M151.149 123.033L151.502 106.098H152.75L152.578 123.033H151.149Z" fill="#E2F2D9"/>
<path d="M84.9307 140.021L92.3112 128.389L93.3867 129.185L86.1621 140.727L84.9307 140.021Z" fill="#E2F2D9"/>
<path d="M76.7285 122.026L88.493 119.834L88.6655 121.147L77.098 123.216L76.7285 122.026Z" fill="#E2F2D9"/>
<path d="M77.2713 112.368L88.494 110.086L88.8388 111.317L77.3616 113.731L77.2713 112.368Z" fill="#E2F2D9"/>
<path d="M78.8779 98.769L90.0924 97.3652L90.3551 98.6787L79.0503 100.082L78.8779 98.769Z" fill="#E2F2D9"/>
<path d="M77.9766 104.739L89.191 103.549L89.2814 104.911L78.0669 105.921L77.9766 104.739Z" fill="#E2F2D9"/>
<path d="M83.3281 82.354L95.1583 81.1719L95.339 82.5345L83.5087 83.6263L83.3281 82.354Z" fill="#E2F2D9"/>
<path d="M88.1396 74.0589L101.308 71.9902L101.571 73.3119L88.3121 75.3313L88.1396 74.0589Z" fill="#E2F2D9"/>
<path d="M76.7285 131.463L88.493 124.133L89.1909 125.274L77.451 132.563L76.7285 131.463Z" fill="#E2F2D9"/>
<path d="M194.143 181.275L200.9 171.531L201.975 172.237L195.219 182.063L194.143 181.275Z" fill="#E2F2D9"/>
<path d="M187.559 174.262L193.962 164.6L195.128 165.215L188.634 174.959L187.559 174.262Z" fill="#E2F2D9"/>
<path d="M179.194 163.282L186.132 154.326L187.117 155.205L180.163 164.251L179.194 163.282Z" fill="#E2F2D9"/>
<path d="M182.666 168.199L189.858 159.506L190.851 160.384L183.717 168.987L182.666 168.199Z" fill="#E2F2D9"/>
<path d="M170.639 148.582L178.298 139.322L179.366 140.201L171.714 149.329L170.639 148.582Z" fill="#E2F2D9"/>
<path d="M168.243 139.32L175.993 128.566L177.134 129.313L169.302 140.108L168.243 139.32Z" fill="#E2F2D9"/>
<path d="M165.393 128.476L177.592 116.277L178.471 117.197L166.287 129.403L165.393 128.476Z" fill="#E2F2D9"/>
<path d="M165.564 116.098L177.682 109.654L178.298 110.877L166.287 117.289L165.564 116.098Z" fill="#E2F2D9"/>
<path d="M200.81 187.953L203.929 174.523L205.202 174.876L201.975 188.216L200.81 187.953Z" fill="#E2F2D9"/>
<path d="M47.0098 75.6672C69.529 66.1858 69.0857 48.5776 68.9133 46.6567L70.7769 46.4844C71.0396 48.6762 71.5979 67.4172 47.7897 77.4239L47.0098 75.6672Z" fill="#E2F2D9"/>
<path d="M47.3633 76.0318C68.101 68.2168 80.4813 77.6079 84.7339 81.778L83.3301 83.272C78.3303 78.0512 66.9106 70.6385 48.1761 77.7474L47.3633 76.0318Z" fill="#E2F2D9"/>
<path d="M66.2363 68.2787C78.436 63.5832 81.7281 54.8982 82.6065 50.334L83.8544 50.5063C82.8692 55.4317 79.5771 64.4205 66.6714 69.5511L66.2363 68.2787Z" fill="#E2F2D9"/>
<path d="M66.2363 68.6058C77.8859 64.567 85.9889 67.0707 90.7095 69.9685L90.0035 70.9782C85.5456 68.2528 77.8038 65.8886 66.5893 69.8782L66.2363 68.6058Z" fill="#E2F2D9"/>
<path d="M135.215 133.607L136.463 132.031C138.064 133.525 151.872 146.339 142.062 170.219L140.28 169.513C149.368 146.865 136.635 134.773 135.215 133.607Z" fill="#E2F2D9"/>
<path d="M140.829 169.516C149.86 149.33 165.122 147.221 171.443 147.221V149.15C164.137 149.15 150.796 151.875 142.611 170.304L140.829 169.516Z" fill="#E2F2D9"/>
<path d="M147.414 126.46L148.465 125.639C151.322 129.809 155.337 138.625 149.894 151.267L148.67 150.742C153.908 138.576 150.066 130.367 147.414 126.46Z" fill="#E2F2D9"/>
<path d="M148.933 151.037C154.261 139.848 161.748 135.941 167.076 134.619L167.347 135.892C162.364 137.164 155.246 140.817 150.066 151.603L148.933 151.037Z" fill="#E2F2D9"/>
<path d="M53.4785 24.4141C56.8609 17.7485 64.2578 9.58059 80.275 9.4082V10.6395C64.8736 10.9433 57.846 18.6268 54.6442 25.0298L53.4785 24.4141Z" fill="#E2F2D9"/>
<path d="M53.6836 -4.28907L54.8412 -4.81445C57.5011 0.184794 64.2823 8.78778 80.3898 9.05047L80.2995 10.4542C63.5599 9.92882 56.4503 1.02212 53.6836 -4.28907Z" fill="#E2F2D9"/>
<path d="M107.277 120.531C107.277 114.473 109.404 106.929 116.891 99.1875L117.851 100.148C107.179 111.123 107.712 121.491 109.839 128.288L108.681 128.814C107.75 126.151 107.275 123.351 107.277 120.531Z" fill="#E2F2D9"/>
<path d="M88.4854 108.334L88.8384 107.103C94.2568 108.745 105.126 110.001 116.686 98.9434L117.769 99.9038C105.586 111.322 94.1747 110.149 88.4854 108.334Z" fill="#E2F2D9"/>
<path d="M206.427 136.768H207.658C207.839 152.044 215.474 159.153 222.058 162.404L221.352 163.496C215.958 160.688 206.517 153.538 206.427 136.768Z" fill="#E2F2D9"/>
<path d="M192.1 162.144C197.165 159.509 205.728 152.753 206.163 136.598H207.394C207 153.451 197.97 160.56 192.715 163.285L192.1 162.144Z" fill="#E2F2D9"/>
<path d="M65.8828 33.3285C65.9731 33.1972 72.0319 9.67036 102.999 9.05469L103.081 10.9427C73.6328 11.6897 67.8367 33.5912 67.8367 33.8539L65.8828 33.3285Z" fill="#E2F2D9"/>
<path d="M65.8828 -13.3301L67.8367 -13.8555C68.0091 -12.9771 73.6328 8.00494 103.081 8.6124L102.999 10.64C72.0319 9.93405 65.9731 -13.1495 65.8828 -13.3301Z" fill="#E2F2D9"/>
<path d="M120.264 111.229C120.264 103.283 122.834 93.2351 132.817 82.7852L134.139 84.2382C113.77 105.524 125.338 125.094 125.428 125.283L123.786 126.375C121.395 121.689 120.185 116.489 120.264 111.229Z" fill="#E2F2D9"/>
<path d="M90.6182 93.2341L91.6033 91.5923C92.4243 92.0356 111.266 102.921 132.537 82.5625L133.785 83.9252C111.446 105.342 90.8809 93.3655 90.6182 93.2341Z" fill="#E2F2D9"/>
<path d="M206.08 113.945H208.009C208.535 143.35 229.823 148.973 230.832 149.145L230.397 151.124C229.987 151.033 206.606 144.934 206.08 113.945Z" fill="#E2F2D9"/>
<path d="M183.101 149.145C183.995 148.973 204.938 143.35 205.546 113.945H207.483C206.868 144.934 183.823 151.033 183.626 151.124L183.101 149.145Z" fill="#E2F2D9"/>
<path d="M35.1618 65.0557C35.126 59.2089 36.4683 53.436 39.08 48.2047C41.6916 42.9734 45.4991 38.4309 50.1938 34.9453L51.4499 36.7513C42.6245 43.1543 37.3785 53.8177 37.2964 65.0557C37.3266 74.5688 41.1149 83.6846 47.8362 90.4175C54.5574 97.1504 63.6671 100.955 73.181 101.003L78.4435 100.477L78.7062 102.628C76.8782 102.914 75.0312 103.059 73.181 103.063C68.1866 103.072 63.2395 102.095 58.6234 100.188C54.0073 98.2808 49.813 95.4817 46.281 91.9508C42.749 88.4198 39.9487 84.2266 38.0406 79.6113C36.1326 74.9961 35.1543 70.0497 35.1618 65.0557Z" fill="#E2F2D9"/>
<path d="M113.221 143.803C113.237 142.024 113.391 140.248 113.68 138.492L115.815 138.845C115.029 144.3 115.537 149.863 117.298 155.085C119.059 160.307 122.025 165.042 125.954 168.906C129.273 172.245 133.219 174.894 137.566 176.702C141.912 178.509 146.573 179.44 151.281 179.44C155.989 179.44 160.65 178.509 164.996 176.702C169.343 174.894 173.289 172.245 176.608 168.906C177.886 167.67 179.046 166.318 180.072 164.867L181.764 166.181C180.66 167.706 179.441 169.144 178.119 170.482C172.806 175.766 166.052 179.363 158.703 180.824C151.354 182.286 143.737 181.545 136.807 178.697C129.877 175.848 123.943 171.017 119.747 164.81C115.551 158.603 113.281 151.295 113.221 143.803Z" fill="#E2F2D9"/>
<path d="M231.801 166.877L233.558 165.564C238.103 171.534 244.408 175.926 251.584 178.122C258.759 180.318 266.443 180.205 273.552 177.801C280.66 175.397 286.834 170.823 291.204 164.723C295.573 158.623 297.917 151.305 297.905 143.802C297.853 142.055 297.705 140.312 297.462 138.581L299.613 138.318C299.859 140.137 300.007 141.967 300.056 143.802C300.049 151.751 297.551 159.499 292.914 165.956C288.277 172.413 281.733 177.255 274.202 179.802C266.671 182.348 258.531 182.472 250.926 180.156C243.321 177.839 236.632 173.198 231.801 166.885V166.877Z" fill="#E2F2D9"/>
<path d="M43.2824 61.8543C43.2549 52.7519 46.5374 43.95 52.5183 37.0879L53.7662 38.0565C47.9784 44.3774 44.9654 52.8901 44.8833 61.8625C44.9093 71.1879 48.4346 80.1639 54.7618 87.015C61.0891 93.8661 69.7574 98.0932 79.0522 98.8602L78.9619 100.354C69.2787 99.5563 60.2454 95.1614 53.6415 88.0355C47.0376 80.9095 43.3419 71.5691 43.2824 61.8543Z" fill="#E2F2D9"/>
<path d="M116.89 138.311L118.491 138.172C118.967 146.956 122.719 155.243 129.007 161.395C135.666 167.953 144.538 171.783 153.878 172.132C163.218 172.482 172.35 169.325 179.481 163.283L180.359 164.424C172.94 170.728 163.424 174.019 153.695 173.645C143.966 173.271 134.731 169.26 127.817 162.405C121.382 155.958 117.5 147.399 116.89 138.311Z" fill="#E2F2D9"/>
<path d="M233.903 164.425L235.003 163.284C241.561 169.105 250.042 172.293 258.812 172.231C268.145 172.177 277.121 168.635 283.977 162.301C290.832 155.967 295.071 147.299 295.862 138L297.356 138.172C295.862 157.972 278.827 173.766 258.771 173.684C249.623 173.769 240.767 170.471 233.903 164.425Z" fill="#E2F2D9"/>
<path d="M43.2824 61.8543C43.2549 52.7519 46.5374 43.95 52.5183 37.0879L53.7662 38.0565C47.9784 44.3774 44.9654 52.8901 44.8833 61.8625C44.9093 71.1879 48.4346 80.1639 54.7618 87.015C61.0891 93.8661 69.7574 98.0932 79.0522 98.8602L78.9619 100.354C69.2787 99.5563 60.2454 95.1614 53.6415 88.0355C47.0376 80.9095 43.3419 71.5691 43.2824 61.8543Z" fill="#E2F2D9"/>
<path d="M39.5225 48.4616C42.6339 46.6638 45.6633 44.8661 48.43 43.1504L49.251 44.5131C46.394 46.2205 43.5042 47.9362 40.3598 49.6026L39.5225 48.4616Z" fill="#E2F2D9"/>
<path d="M37.3145 56.1476C38.3653 55.573 39.5311 54.8753 40.5983 54.1693C42.2895 53.2089 44.0711 52.1499 45.8444 51.1895" fill="#E2F2D9"/>
<path d="M36.4092 62.3366C38.6504 61.015 40.7768 59.6113 42.977 58.4292L44.4875 57.5098" fill="#E2F2D9"/>
<path d="M44.2442 63.2168C41.5678 64.7108 38.9161 66.287 36.4121 67.6907L44.2442 63.2168Z" fill="#E2F2D9"/>
<path d="M44.7669 68.8711C42.1152 70.3241 39.5291 71.8181 37.1318 73.1315L44.7669 68.8711Z" fill="#E2F2D9"/>
<path d="M46.0245 73.5762C43.5616 75.062 41.0412 76.3836 38.6357 77.9597L46.0245 73.5762Z" fill="#E2F2D9"/>
<path d="M47.7321 77.9629C45.3349 79.3666 43.0115 80.992 40.6143 82.1741L47.7321 77.9629Z" fill="#E2F2D9"/>
<path d="M50.1196 82.4336C47.7142 83.7963 45.317 85.2493 43.166 86.5381L50.1196 82.4336Z" fill="#E2F2D9"/>
<path d="M53.1494 86.3438C50.9985 87.4848 48.6094 88.8885 46.3682 90.3825L53.1494 86.3438Z" fill="#E2F2D9"/>
<path d="M56.6227 89.623C54.4964 90.9857 52.2552 92.1678 50.2109 93.5305L56.6227 89.623Z" fill="#E2F2D9"/>
<path d="M60.7939 93.0547C58.6221 94.1725 56.5193 95.4197 54.4971 96.7897L60.7939 93.0547Z" fill="#E2F2D9"/>
<path d="M59.3888 99.3762C61.1621 98.3255 63.116 97.2748 65.0699 96.0434C65.0929 96.0558 65.1182 96.0633 65.1442 96.0655C65.1702 96.0676 65.1964 96.0643 65.2211 96.0558C65.2457 96.0474 65.2684 96.0338 65.2876 96.0162C65.3068 95.9985 65.3221 95.977 65.3326 95.9531" fill="#E2F2D9"/>
<path d="M65.7109 101.399C66.2322 100.984 66.7997 100.632 67.4021 100.348C68.6315 99.5448 69.9061 98.813 71.2197 98.1562" fill="#E2F2D9"/>
<path d="M78.3285 99.6367C76.8882 100.296 75.5138 101.09 74.2236 102.009L78.3285 99.6367Z" fill="#E2F2D9"/>
<path d="M116.89 138.311L118.491 138.172C118.967 146.956 122.719 155.243 129.007 161.395C135.666 167.953 144.538 171.783 153.878 172.132C163.218 172.482 172.35 169.325 179.481 163.283L180.359 164.424C172.94 170.728 163.424 174.019 153.695 173.645C143.966 173.271 134.731 169.26 127.817 162.405C121.382 155.958 117.5 147.399 116.89 138.311Z" fill="#E2F2D9"/>
<path d="M115.725 155.556L115.987 154.414C116.685 151.558 117.588 148.488 118.401 145.59L119.805 145.984C119.107 148.841 118.294 151.87 117.416 154.759L117.153 155.991L115.725 155.556Z" fill="#E2F2D9"/>
<path d="M119.715 162.685C120.002 161.412 120.265 160.222 120.618 158.909C121.061 157.021 121.521 154.96 122.129 153.113" fill="#E2F2D9"/>
<path d="M123.384 167.611C123.909 165.148 124.525 162.686 125.247 160.223C125.428 159.698 125.6 158.91 125.691 158.516" fill="#E2F2D9"/>
<path d="M129.419 162.682C128.721 165.579 127.818 168.65 127.202 171.367L129.419 162.682Z" fill="#E2F2D9"/>
<path d="M133.784 166.355C132.963 169.253 132.266 172.233 131.478 174.786L133.784 166.355Z" fill="#E2F2D9"/>
<path d="M138.154 168.725C137.432 171.532 136.553 174.249 135.938 176.934L138.154 168.725Z" fill="#E2F2D9"/>
<path d="M142.43 170.525C141.798 173.423 141.182 176.14 140.369 178.734L142.43 170.525Z" fill="#E2F2D9"/>
<path d="M147.243 172.229C146.52 174.781 145.905 177.499 145.354 179.953L147.243 172.229Z" fill="#E2F2D9"/>
<path d="M152.218 172.764C151.398 175.231 150.748 177.751 150.272 180.308L152.218 172.764Z" fill="#E2F2D9"/>
<path d="M157.028 172.582C156.305 175.127 155.78 177.507 155.164 179.97L157.028 172.582Z" fill="#E2F2D9"/>
<path d="M162.362 172.229C161.564 174.49 160.939 176.809 160.49 179.165L162.362 172.229Z" fill="#E2F2D9"/>
<path d="M165.827 177.5C166.287 175.48 166.903 173.395 167.518 171.22C167.518 171.22 167.691 171.22 167.518 170.957" fill="#E2F2D9"/>
<path d="M171.7 174.434C171.891 173.799 172.039 173.152 172.144 172.497C172.579 171.052 172.776 169.69 173.219 168.393" fill="#E2F2D9"/>
<path d="M179.456 164.424C178.896 165.878 178.448 167.374 178.118 168.898L179.456 164.424Z" fill="#E2F2D9"/>
<path d="M233.903 164.425L235.003 163.284C241.561 169.105 250.042 172.293 258.812 172.231C268.145 172.177 277.121 168.635 283.977 162.301C290.832 155.967 295.071 147.299 295.862 138L297.356 138.172C295.862 157.972 278.827 173.766 258.771 173.684C249.623 173.769 240.767 170.471 233.903 164.425Z" fill="#E2F2D9"/>
<path d="M14.2443 89.284C14.2443 86.2959 18.7022 82.2571 25.196 79.3594C30.6391 77.1183 35.9672 76.2892 38.7339 77.3399C39.5036 77.6587 40.135 78.2406 40.5154 78.9817C40.7044 79.3015 40.7957 79.6697 40.7781 80.0407C40.7781 83.0206 36.2299 87.0594 29.8263 89.7847C24.3997 92.2474 19.047 93.0272 16.2228 91.9765C15.825 91.8589 15.4575 91.6563 15.1457 91.3828C14.8338 91.1092 14.5851 90.7713 14.4167 90.3922C14.2853 90.0381 14.2266 89.6612 14.2443 89.284ZM39.2593 80.0653C39.2811 79.9126 39.2523 79.7569 39.1772 79.6221C38.9966 79.187 38.6518 79.0064 38.1017 78.7437C36.0575 77.9228 31.5996 78.2676 25.8282 80.8124C19.5067 83.5295 15.7549 87.2646 15.7549 89.284C15.7414 89.4639 15.7725 89.6443 15.8452 89.8093C16.0584 90.1973 16.4102 90.4905 16.8303 90.6302C19.1373 91.5496 24.3176 90.6302 29.2106 88.4795C35.5321 85.7705 39.2593 81.9944 39.2593 80.0653Z" fill="#E2F2D9"/>
<path d="M125.428 197.685C125.517 194.256 126.206 190.869 127.464 187.678C129.615 182.154 132.816 177.828 135.567 176.662C135.929 176.427 136.345 176.288 136.776 176.258C137.207 176.228 137.638 176.308 138.03 176.489C139.458 176.974 140.246 178.813 140.246 181.801C140.148 185.199 139.459 188.555 138.21 191.717C135.994 197.34 132.784 201.773 130.001 202.824C129.632 203.022 129.226 203.14 128.808 203.17C128.391 203.2 127.972 203.141 127.579 202.996C126.126 202.43 125.428 200.583 125.428 197.685ZM138.859 181.801C138.859 179.691 138.325 178.205 137.537 177.934C137.096 177.791 136.617 177.823 136.199 178.025C134.138 178.845 131.216 182.416 128.983 188.204C127.725 191.212 127.032 194.426 126.938 197.685C126.938 199.795 127.373 201.198 128.276 201.551C128.63 201.773 128.983 201.773 129.524 201.371C131.831 200.492 134.77 196.33 136.724 191.192C137.994 188.215 138.717 185.034 138.859 181.801Z" fill="#E2F2D9"/>
<path d="M14.5321 90.5995L15.7553 89.6309C15.8457 89.8115 34.3668 111.319 69.2663 101.747L69.6111 103.282C33.9317 113.067 14.7045 90.8212 14.5321 90.5995Z" fill="#E2F2D9"/>
<path d="M14.335 88.0982C14.335 80.9892 16.3956 57.7743 43.2824 41.6191L44.1034 43.0228C18.0293 58.6198 15.8784 81.2519 15.8784 88.016V89.9862L14.4499 90.1586C14.4499 90.1586 14.335 89.2885 14.335 88.0982Z" fill="#E2F2D9"/>
<path d="M127.818 203.089L128.016 201.554C128.278 201.554 156.569 203.664 174.474 172.322L175.796 173.143C157.464 205.371 128.188 203.089 127.818 203.089Z" fill="#E2F2D9"/>
<path d="M111.447 164.596C111.515 159.039 112.265 153.511 113.68 148.137L115.084 148.49C106.201 183.599 128.277 201.552 128.45 201.774L127.464 202.907C127.366 202.734 111.447 189.772 111.447 164.596Z" fill="#E2F2D9"/>
<path d="M14.7041 36.3146L37.0427 23.9355L37.9212 25.561L15.6728 37.9318L14.7041 36.3146Z" fill="#E2F2D9"/>
<path d="M0 11.4758V8.61914L23.6851 8.79155L23.5947 11.6893L0 11.4758Z" fill="#E2F2D9"/>
<path d="M15.1379 33.4975C15.6125 33.4843 16.085 33.5665 16.5273 33.7394C16.9696 33.9122 17.3726 34.172 17.7126 34.5035C18.0525 34.835 18.3224 35.2314 18.5063 35.6691C18.6902 36.1069 18.7843 36.5771 18.783 37.0519C18.7927 37.765 18.5906 38.4648 18.2024 39.0629C17.8141 39.6611 17.2571 40.1306 16.6019 40.412C15.9466 40.6935 15.2226 40.7743 14.5215 40.6442C13.8203 40.514 13.1735 40.1788 12.663 39.6809C12.1524 39.1831 11.8011 38.545 11.6533 37.8473C11.5056 37.1497 11.5682 36.424 11.8332 35.7619C12.0982 35.0999 12.5536 34.5314 13.1419 34.1283C13.7301 33.7252 14.4248 33.5056 15.1379 33.4975Z" fill="#E2F2D9"/>
<path d="M89.6504 164.593L96.6779 140.016L98.5415 140.549L91.5222 165.127L89.6504 164.593Z" fill="#E2F2D9"/>
<path d="M51.8213 125.445L76.7296 118.164L77.2714 120.003L52.3467 127.292L51.8213 125.445Z" fill="#E2F2D9"/>
<path d="M59.6516 155.462L76.4651 138.74L78.5258 140.809L61.6055 157.309L59.6516 155.462Z" fill="#E2F2D9"/>
<path d="M87.9598 162.223C88.6642 161.57 89.5893 161.207 90.55 161.207C91.5106 161.207 92.4358 161.57 93.1401 162.223C93.5038 162.55 93.7974 162.948 94.0034 163.392C94.2094 163.836 94.3235 164.317 94.3388 164.806C94.3542 165.295 94.2704 165.782 94.0927 166.238C93.9149 166.693 93.6468 167.109 93.3044 167.458C92.962 167.808 92.5524 168.084 92.1003 168.272C91.6483 168.459 91.163 168.553 90.6737 168.547C90.1844 168.542 89.7012 168.438 89.2531 168.242C88.8051 168.045 88.4015 167.76 88.0665 167.403C87.7122 167.074 87.4276 166.677 87.2297 166.236C87.0319 165.795 86.9248 165.319 86.9148 164.836C86.9049 164.352 86.9923 163.872 87.1718 163.423C87.3513 162.974 87.6193 162.566 87.9598 162.223Z" fill="#E2F2D9"/>
<path d="M49.3744 123.783C49.716 123.429 50.1254 123.148 50.5781 122.955C51.0309 122.763 51.5178 122.664 52.0098 122.664C52.5017 122.664 52.9886 122.763 53.4414 122.955C53.8942 123.148 54.3036 123.429 54.6451 123.783C55.306 124.474 55.6748 125.393 55.6748 126.349C55.6748 127.305 55.306 128.223 54.6451 128.914C53.9632 129.606 53.035 130.001 52.0633 130.011C51.0916 130.021 50.1553 129.646 49.459 128.969C48.7628 128.291 48.363 127.365 48.3472 126.393C48.3313 125.422 48.7006 124.484 49.3744 123.783Z" fill="#E2F2D9"/>
<path d="M220.824 179.871L222.54 178.992L234.92 201.378L233.204 202.256L220.824 179.871Z" fill="#E2F2D9"/>
<path d="M178.825 201.377L191.378 178.557L193.069 179.517L180.516 202.256L178.825 201.377Z" fill="#E2F2D9"/>
<path d="M205.555 217.002L205.817 193.262L208.535 193.434L208.362 217.002H205.555Z" fill="#E2F2D9"/>
<path d="M230.398 201.776C230.397 201.306 230.49 200.839 230.671 200.404C230.851 199.969 231.117 199.575 231.451 199.243C231.786 198.912 232.183 198.65 232.619 198.473C233.056 198.297 233.523 198.208 233.994 198.214C234.471 198.203 234.945 198.287 235.389 198.46C235.833 198.634 236.239 198.894 236.581 199.225C236.924 199.557 237.198 199.953 237.387 200.391C237.575 200.829 237.675 201.3 237.68 201.776C237.685 202.262 237.592 202.743 237.409 203.192C237.225 203.641 236.954 204.049 236.611 204.393C236.267 204.736 235.859 205.007 235.41 205.191C234.961 205.374 234.48 205.467 233.994 205.462C233.035 205.431 232.125 205.029 231.455 204.342C230.785 203.655 230.406 202.736 230.398 201.776Z" fill="#E2F2D9"/>
<path d="M175.992 201.775C176.037 200.839 176.44 199.956 177.118 199.31C177.796 198.663 178.697 198.303 179.633 198.303C180.57 198.303 181.471 198.663 182.149 199.31C182.827 199.956 183.23 200.839 183.274 201.775C183.298 202.267 183.221 202.76 183.049 203.222C182.876 203.684 182.612 204.106 182.271 204.463C181.931 204.82 181.522 205.104 181.068 205.298C180.615 205.492 180.127 205.592 179.633 205.592C179.14 205.592 178.652 205.492 178.199 205.298C177.745 205.104 177.336 204.82 176.995 204.463C176.655 204.106 176.391 203.684 176.218 203.222C176.046 202.76 175.969 202.267 175.992 201.775Z" fill="#E2F2D9"/>
<path d="M85.0215 -19.3941L86.335 -20.5352C89.7421 -16.759 91.6057 -12.6299 91.7781 -8.41875C92.7714 -2.00757 89.8324 3.51705 87.7635 7.07152L86.2529 6.15212C88.2233 2.81929 90.9735 -2.36056 90.0048 -8.24637C89.8324 -12.1046 88.1412 -15.8807 85.0215 -19.3941Z" fill="#E2F2D9"/>
<path d="M102.467 95.7852C102.467 95.4323 104.248 73.6211 124.526 73.6211V75.3368C105.94 75.3368 104.248 94.8659 104.248 95.8591L102.467 95.7852Z" fill="#E2F2D9"/>
<path d="M99.9697 75.3719L100.142 73.6562C105.125 74.0503 109.312 75.5854 112.522 78.4421C117.588 82.3495 119.542 88.0958 120.445 92.1756L118.844 92.6189C117.941 88.8428 116.167 83.4003 111.357 79.8047C108.418 77.1697 104.6 75.766 99.9697 75.3719Z" fill="#E2F2D9"/>
<path d="M187.296 127.82C187.296 123.207 188.897 118.167 193.79 113.381L194.931 114.563C181.672 127.697 194.488 142.654 195.038 143.352L193.699 144.452C193.699 144.361 187.296 136.949 187.296 127.82Z" fill="#E2F2D9"/>
<path d="M176.516 130.719C180.243 127.296 184.266 125.449 188.428 125.186C195.652 124.218 201.884 127.994 203.928 129.225L203.049 130.719C199.642 128.651 194.577 126.106 188.625 126.943C184.791 127.116 181.146 128.831 177.673 131.942L176.516 130.719Z" fill="#E2F2D9"/>
<path d="M73.6328 22.4838L74.774 21.1211C75.4061 21.7778 90.3724 34.3375 103.508 21.2525L104.756 22.3935C90.356 36.7509 73.7149 22.6562 73.6328 22.4838Z" fill="#E2F2D9"/>
<path d="M85.5439 39.3849C95.1575 29.4603 90.7899 18.6245 87.4075 13.182L88.8361 12.123C92.5715 18.0909 97.2839 29.7641 86.7097 40.4767L85.5439 39.3849Z" fill="#E2F2D9"/>
<path d="M121.405 111.319C122.226 111.319 141.798 109.735 141.798 91.1661V91.084H143.572V91.1661C143.572 111.319 121.783 113.067 121.52 113.109L121.405 111.319Z" fill="#E2F2D9"/>
<path d="M124.523 96.7918L124.893 95.0762C131.83 96.6112 143.398 101.487 143.57 116.625H141.797C141.706 102.71 131.017 98.2366 124.523 96.7918Z" fill="#E2F2D9"/>
<path d="M218.108 142.209C218.716 141.552 231.359 126.612 218.199 113.477L219.422 112.205C233.731 126.604 219.594 143.284 219.422 143.399L218.108 142.209Z" fill="#E2F2D9"/>
<path d="M209.062 128.205C213.987 125.127 226.359 119.381 237.418 130.217L236.236 131.489C226.384 121.704 215.564 126.137 210.071 129.691L209.062 128.205Z" fill="#E2F2D9"/>
<path d="M156.395 9.99564C156.382 -0.00499725 159.335 -9.78485 164.881 -18.107C170.428 -26.4291 178.318 -32.9196 187.553 -36.7575C196.789 -40.5955 206.956 -41.6085 216.767 -39.6684C226.579 -37.7283 235.595 -32.9223 242.674 -25.8583C249.754 -18.7942 254.58 -9.78942 256.54 0.0171242C258.501 9.82367 257.51 19.9914 253.691 29.2344C249.872 38.4774 243.398 46.3803 235.087 51.9436C226.775 57.5069 217.001 60.4807 206.999 60.4889C193.597 60.4889 180.741 55.1725 171.254 45.7062C161.767 36.24 156.423 23.3971 156.395 9.99564ZM256.463 9.99564C256.469 0.215927 253.576 -9.34612 248.148 -17.4815C242.719 -25.6169 235.001 -31.9602 225.967 -35.7095C216.934 -39.4588 206.992 -40.4456 197.397 -38.5452C187.803 -36.6449 178.988 -31.9426 172.066 -25.0331C165.145 -18.1235 160.427 -9.31691 158.511 0.273228C156.594 9.86337 157.565 19.8063 161.299 28.845C165.034 37.8837 171.365 45.6123 179.492 51.0533C187.619 56.4944 197.178 59.4037 206.958 59.4135C220.069 59.3983 232.639 54.1895 241.918 44.9275C251.196 35.6655 256.426 23.1049 256.463 9.99564Z" fill="#E2F2D9"/>
<path d="M151.675 9.99464C151.681 -0.937344 154.929 -11.622 161.007 -20.7089C167.085 -29.7958 175.721 -36.877 185.823 -41.0575C195.925 -45.238 207.04 -46.3301 217.762 -44.1958C228.485 -42.0615 238.334 -36.7966 246.065 -29.0665C253.796 -21.3364 259.061 -11.4882 261.196 -0.766579C263.33 9.95503 262.238 21.0687 258.057 31.1698C253.876 41.2709 246.794 49.9059 237.707 55.9835C228.619 62.061 217.933 65.3082 207 65.3147C192.332 65.2995 178.268 59.4663 167.896 49.095C157.524 38.7238 151.69 24.6618 151.675 9.99464ZM261.078 9.99464C261.078 -0.725502 257.897 -11.2047 251.938 -20.1167C245.98 -29.0287 237.511 -35.9728 227.604 -40.0704C217.697 -44.1679 206.797 -45.2346 196.283 -43.1354C185.77 -41.0362 176.115 -35.8656 168.542 -28.2778C160.968 -20.6901 155.816 -11.0263 153.737 -0.509598C151.659 10.0071 152.747 20.904 156.864 30.8021C160.982 40.7001 167.943 49.1544 176.868 55.0948C185.793 61.0352 196.279 64.1948 207 64.1737C221.352 64.1454 235.107 58.4248 245.245 48.2673C255.384 38.1099 261.078 24.3453 261.078 9.99464Z" fill="#E2F2D9"/>
</svg>
