<svg width="181" height="362" viewBox="0 0 181 362" fill="none" xmlns="http://www.w3.org/2000/svg">
<path d="M-91.9571 180.998C-91.9571 130.336 -50.7019 89.1211 -0.0357285 89.1211C50.6305 89.1211 91.8856 130.358 91.8856 180.998C91.8856 231.638 50.6233 272.875 0.000160217 272.875C-50.623 272.875 -91.9571 231.674 -91.9571 180.998ZM89.5382 180.998C89.5268 157.255 80.0904 134.487 63.3018 117.696C46.5133 100.905 23.7456 91.4638 0.000160217 91.4467C-49.338 91.4467 -89.6599 131.549 -89.6599 181.019C-89.6599 230.489 -49.3739 270.664 0.000160217 270.664C49.3742 270.664 89.5382 230.446 89.5382 180.998Z" fill="#E2F2D9"/>
<path d="M-60.831 180.998C-60.8338 168.967 -57.2686 157.206 -50.5861 147.201C-43.9036 137.197 -34.4041 129.398 -23.2889 124.792C-12.1737 120.186 0.0578079 118.98 11.8588 121.325C23.6598 123.671 34.5002 129.462 43.009 137.968C51.5178 146.474 57.3129 157.312 59.6612 169.112C62.0096 180.911 60.8057 193.142 56.202 204.257C51.5983 215.372 43.8014 224.873 33.7975 231.557C23.7936 238.241 12.0319 241.809 6.10352e-05 241.809C-16.1268 241.795 -31.5895 235.385 -42.9942 223.984C-54.399 212.583 -60.8139 197.123 -60.831 180.998ZM59.0508 180.998C59.0395 169.319 55.5653 157.905 49.0676 148.2C42.57 138.495 33.3404 130.934 22.5459 126.474C11.7513 122.013 -0.123646 120.852 -11.5778 123.139C-23.0319 125.425 -33.5509 131.056 -41.805 139.319C-50.0591 147.583 -55.6777 158.107 -57.9504 169.563C-60.2232 181.019 -59.0481 192.891 -54.5737 203.68C-50.0993 214.468 -42.5266 223.687 -32.8127 230.172C-23.0989 236.658 -11.6801 240.118 6.10352e-05 240.115C15.6601 240.077 30.6665 233.833 41.7311 222.752C52.7956 211.671 59.016 196.656 59.0293 180.998H59.0508Z" fill="#E2F2D9"/>
<path d="M-54.9014 180.995C-54.8957 170.146 -51.6733 159.542 -45.6417 150.523C-39.61 141.505 -31.0397 134.477 -21.0142 130.327C-10.9886 126.178 0.0420837 125.094 10.6837 127.212C21.3253 129.33 31.1001 134.555 38.7725 142.227C46.4448 149.898 51.6704 159.672 53.7886 170.313C55.9068 180.953 54.8225 191.983 50.6729 202.008C46.5233 212.032 39.4945 220.602 30.4751 226.633C21.4557 232.664 10.8506 235.886 0.000213623 235.892C-14.5559 235.876 -28.5115 230.088 -38.8043 219.796C-49.097 209.504 -54.8862 195.55 -54.9014 180.995ZM53.1933 180.995C53.189 170.477 50.0657 160.195 44.2182 151.451C38.3706 142.707 30.0615 135.894 20.3414 131.871C10.6213 127.849 -0.0734138 126.799 -10.3904 128.853C-20.7075 130.908 -30.1835 135.975 -37.6206 143.415C-45.0576 150.854 -50.1216 160.331 -52.1723 170.648C-54.2231 180.965 -53.1684 191.658 -49.1417 201.376C-45.115 211.093 -38.2971 219.399 -29.55 225.242C-20.803 231.086 -10.5195 234.205 0.000213623 234.205C14.1035 234.178 27.6212 228.563 37.5917 218.589C47.5622 208.616 53.1724 195.097 53.1933 180.995Z" fill="#E2F2D9"/>
<path d="M59.374 172.657L89.847 168.816L90.1557 170.503L59.532 174.343L59.374 172.657Z" fill="#E2F2D9"/>
<path d="M57.8379 165.253L87.7007 157.615L88.0811 159.302L58.2614 166.896L57.8379 165.253Z" fill="#E2F2D9"/>
<path d="M52.0088 151.353L79.1007 136.502L79.8687 138.038L52.8918 152.853L52.0088 151.353Z" fill="#E2F2D9"/>
<path d="M47.9025 145.058L72.8838 126.984L73.8099 128.327L48.8572 146.401L47.9025 145.058Z" fill="#E2F2D9"/>
<path d="M43.0996 139.345L65.5182 118.234L66.6668 119.462L44.1764 140.572L43.0996 139.345Z" fill="#E2F2D9"/>
<path d="M37.4219 134.278L57.0767 110.562L58.4191 111.632L38.7283 135.355L37.4219 134.278Z" fill="#E2F2D9"/>
<path d="M31.1689 129.906L47.8232 103.922L49.2445 104.805L32.6621 130.86L31.1689 129.906Z" fill="#E2F2D9"/>
<path d="M24.5645 126.41L37.7299 98.5098L39.2661 99.2778L26.1366 127.063L24.5645 126.41Z" fill="#E2F2D9"/>
<path d="M17.6163 123.725L27.1351 94.4395L28.7503 94.9778L19.2674 124.299L17.6163 123.725Z" fill="#E2F2D9"/>
<path d="M10.3232 121.995L16.0876 91.7188L17.6956 91.9843L12.0174 122.304L10.3232 121.995Z" fill="#E2F2D9"/>
<path d="M2.76367 121.158L4.7234 90.3789L6.41039 90.5297L4.49368 121.308L2.76367 121.158Z" fill="#E2F2D9"/>
<path d="M2.91504 241.004L4.64505 240.846L6.48994 271.624L4.79582 271.703L2.91504 241.004Z" fill="#E2F2D9"/>
<path d="M10.4014 240.27L12.0165 239.811L17.7737 270.051L16.1585 270.36L10.4014 240.27Z" fill="#E2F2D9"/>
<path d="M17.6953 238.354L19.3464 237.895L28.7503 267.13L27.1351 267.632L17.6953 238.354Z" fill="#E2F2D9"/>
<path d="M24.7158 235.745L26.2951 234.941L39.2667 262.799L37.7305 263.531L24.7158 235.745Z" fill="#E2F2D9"/>
<path d="M31.3203 232.175L32.8134 231.213L49.3241 257.312L47.9028 258.23L31.3203 232.175Z" fill="#E2F2D9"/>
<path d="M37.501 227.838L38.8792 226.762L58.4193 250.477L57.0769 251.518L37.501 227.838Z" fill="#E2F2D9"/>
<path d="M43.0996 222.776L44.2553 221.434L66.6668 242.58L65.5182 243.807L43.0996 222.776Z" fill="#E2F2D9"/>
<path d="M48.0527 217.02L49.0146 215.562L73.8094 233.751L72.8833 235.058L48.0527 217.02Z" fill="#E2F2D9"/>
<path d="M52.0801 210.647L53.042 209.189L79.8682 224.076L79.1002 225.612L52.0801 210.647Z" fill="#E2F2D9"/>
<path d="M55.3828 203.932L56.0792 202.281L84.6282 213.716L84.097 215.288L55.3828 203.932Z" fill="#E2F2D9"/>
<path d="M57.9521 196.831L58.2608 195.102L88.0087 202.818L87.7001 204.505L57.9521 196.831Z" fill="#E2F2D9"/>
<path d="M59.4531 189.425L59.6038 187.623L90.084 191.614L89.8471 193.337L59.4531 189.425Z" fill="#E2F2D9"/>
<path d="M84.0898 146.782C123.313 131.816 160.699 179.8 161.008 180.252L161.159 180.324L159.816 181.717L159.587 181.566C159.127 180.949 122.624 134.127 84.7072 148.598L84.0898 146.782Z" fill="#E2F2D9"/>
<path d="M84.0897 214.904L84.7071 213.095C122.473 227.53 159.127 180.709 159.587 180.17L159.816 180.02L161.159 181.247L161.008 181.556C159.508 183.393 123.163 229.712 84.0897 214.904Z" fill="#E2F2D9"/>
<path d="M87.4707 156.949L90.4498 155.873C117.01 146.053 141.992 174.758 146.636 180.514L146.787 180.665L146.026 181.433L145.789 181.282C141.109 175.483 116.702 147.432 90.8303 156.878L87.8368 158.062L87.4707 156.949Z" fill="#E2F2D9"/>
<path d="M87.4708 204.682L87.8513 203.684L90.8448 204.84C114.146 213.36 136.709 191.094 145.402 181.153L145.631 180.852V180.694L146.019 180.234L146.629 180.852H146.78V181.311L146.249 181.885C137.455 191.977 114.426 214.738 90.4428 205.946L87.4708 204.682Z" fill="#E2F2D9"/>
<path d="M44.7871 102.191L46.1726 99.2767C57.9526 73.5584 95.8338 76.0922 103.371 76.9177L103.443 76.8387L103.522 77.9943L103.292 78.0661C95.8051 77.2981 58.692 74.6925 47.1058 99.7146L45.7562 102.629L44.7871 102.191Z" fill="#E2F2D9"/>
<path d="M78.1025 134.888L81.0601 133.581C103.55 123.18 103.852 91.3681 102.861 78.2469V77.8593L102.703 77.7445V77.1703H103.472L103.629 77.0195L103.931 77.321V78.168C104.972 91.5978 104.649 123.913 81.4406 134.543L78.4902 135.885L78.1025 134.888Z" fill="#E2F2D9"/>
<path d="M-27.1924 79.3239C-27.1924 57.3668 -5.49162 38.41 -0.502531 34.3043L-0.423555 34.1895L0.423508 34.9575L0.265579 35.1082C-5.47726 39.8671 -33.5813 64.4298 -24.0841 90.1051L-22.9929 93.1341L-24.0841 93.5935L-25.2542 90.5573C-26.5272 86.9484 -27.1824 83.1507 -27.1924 79.3239Z" fill="#E2F2D9"/>
<path d="M-0.717773 34.9575L-0.179382 34.3043V34.1895H0.208266L0.926121 34.8067C10.9761 43.5494 33.6244 66.655 24.8379 90.5286L23.5673 93.5935L22.5695 93.1341L23.7252 90.1051C32.3395 66.9636 10.1362 44.2815 0.0790354 35.5532L-0.222452 35.3235H-0.380381L-0.717773 34.9575Z" fill="#E2F2D9"/>
<path d="M-0.422852 327.073L-0.114179 326.728C7.91144 320.089 33.2015 296.452 24.0632 271.889L22.9146 268.86L23.9914 268.516L25.1256 271.437C34.5295 296.804 8.77287 320.828 0.675466 327.546L0.366794 327.891L-0.422852 327.073Z" fill="#E2F2D9"/>
<path d="M-26.8116 282.752C-26.8501 278.931 -26.1934 275.134 -24.8734 271.547L-23.6961 268.439L-22.605 268.863L-23.7751 271.892C-32.3894 295.148 -10.0784 317.83 -0.0858727 326.444L0.222799 326.745H0.373543L0.76119 327.018L0.000265121 327.922L-0.0786877 327.844H-0.229454L-0.767845 327.312C-9.38211 319.862 -26.8116 302.405 -26.8116 282.752Z" fill="#E2F2D9"/>
<path d="M78.332 226.938L78.7915 225.904L81.7131 227.247C106.429 238.53 105.122 273.795 104.125 284.275V284.54L102.933 284.619V284.196C103.931 273.795 105.28 239.219 81.2896 228.208L78.332 226.938Z" fill="#E2F2D9"/>
<path d="M45.0958 259.607L46.0937 259.068L47.436 262.062C57.8378 284.672 89.5382 284.823 102.783 283.861H103.163L103.242 283.71H103.78L103.931 284.744H103.852V284.902H103.78L103.63 284.973L102.912 285.052C89.4449 286.014 57.0481 285.77 46.4597 262.564L45.0958 259.607Z" fill="#E2F2D9"/>
<path d="M35.0391 97.3545C52.6552 58.7878 112.725 66.4897 113.336 66.6548L113.414 68.4995H113.106C112.496 68.4205 53.8469 60.8263 36.8409 98.1226L35.0391 97.3545Z" fill="#E2F2D9"/>
<path d="M82.7109 143.946C119.666 127.215 112.337 68.3418 112.265 67.6886V67.1934H114.139V67.5881C114.289 68.0547 121.698 128.342 83.3929 145.647L82.7109 143.946Z" fill="#E2F2D9"/>
<path d="M-37.1709 81.2223C-37.1709 51.5562 -8.21258 26.0747 -0.962246 20.1602C-0.875378 19.9888 -0.743042 19.8445 -0.579723 19.7433C-0.416401 19.642 -0.228374 19.5876 -0.0362053 19.5859V21.4665C0.159595 21.4687 0.348675 21.3953 0.491737 21.2616C0.6348 21.1279 0.720814 20.9442 0.731884 20.7487V21.2081L0.42321 21.4378C-7.43012 27.8118 -45.7277 61.0525 -32.4905 96.2959L-34.2923 97.0136C-36.2023 91.9682 -37.1778 86.6172 -37.1709 81.2223Z" fill="#E2F2D9"/>
<path d="M-1.1123 21.2173V20.7579C-1.1123 20.9483 -1.03669 21.1309 -0.902061 21.2655C-0.767437 21.4001 -0.584837 21.4757 -0.39445 21.4757V19.5664C-0.193578 19.572 0.00274849 19.6274 0.176912 19.7276C0.351076 19.8279 0.49761 19.9698 0.603358 20.1406C9.00944 27.0529 47.4649 60.8966 33.919 96.9439L32.1531 96.2261C45.3544 61.1478 7.02816 27.7564 -0.703144 21.3896L-1.1123 21.2173Z" fill="#E2F2D9"/>
<path d="M-0.717447 341.318V340.895L-0.408774 340.593C7.34406 334.298 45.7278 301.065 32.4475 265.757L34.1344 265.104C47.9172 301.215 9.41866 335.023 1.04847 341.821C0.778839 342.148 0.398178 342.365 -0.021126 342.431V340.514C-0.121282 340.517 -0.219855 340.54 -0.310498 340.582C-0.401142 340.625 -0.481861 340.686 -0.547447 340.762C-0.613033 340.838 -0.662031 340.926 -0.691311 341.022C-0.720591 341.118 -0.729494 341.219 -0.717447 341.318Z" fill="#E2F2D9"/>
<path d="M-36.7683 280.771C-36.7854 275.408 -35.8119 270.089 -33.8969 265.08L-32.1095 265.733C-45.2247 300.984 -7.04195 334.296 0.718071 340.591L1.09853 340.893V341.316C1.11163 341.211 1.10106 341.103 1.06762 341.002C1.03418 340.901 0.978699 340.809 0.905182 340.732C0.831661 340.655 0.741962 340.596 0.642555 340.558C0.543152 340.52 0.436527 340.504 0.330421 340.512V342.429C0.135281 342.424 -0.0545845 342.365 -0.21719 342.257C-0.379799 342.149 -0.508507 341.997 -0.588432 341.819C-7.83159 336.041 -36.7683 310.616 -36.7683 280.771Z" fill="#E2F2D9"/>
<path d="M82.9414 218.016L83.6593 216.25C122.273 233.75 114.477 293.728 114.405 294.381L112.524 294.46V294.08C112.567 293.498 120.205 234.783 82.9414 218.016Z" fill="#E2F2D9"/>
<path d="M35.3477 264.446L37.1136 263.678C53.8396 300.751 112.704 293.344 113.264 293.344H113.723V295.224H113.422C112.876 295.303 52.7341 302.826 35.3477 264.446Z" fill="#E2F2D9"/>
<path d="M160.47 180.408H146.191V181.557H160.47V180.408Z" fill="#E2F2D9"/>
<path d="M141.123 175.032L149.795 169.275L150.491 170.194L141.776 175.915L141.123 175.032Z" fill="#E2F2D9"/>
<path d="M135.064 169.123L143.657 163.668L144.275 164.666L135.675 170.078L135.064 169.123Z" fill="#E2F2D9"/>
<path d="M126.191 162.443L134.066 156.535L134.827 157.454L127.003 163.369L126.191 162.443Z" fill="#E2F2D9"/>
<path d="M130.649 165.667L138.287 159.494L138.977 160.449L131.418 166.514L130.649 165.667Z" fill="#E2F2D9"/>
<path d="M113.033 155.766L121.167 149.32L121.856 150.239L113.722 156.649L113.033 155.766Z" fill="#E2F2D9"/>
<path d="M103.63 153.924L113.106 147.248L113.723 148.174L104.283 154.849L103.63 153.924Z" fill="#E2F2D9"/>
<path d="M92.8047 155.154L103.479 144.789L104.355 145.636L93.7666 155.958L92.8047 155.154Z" fill="#E2F2D9"/>
<path d="M87.126 155.303L92.8042 145.018L93.8379 145.556L88.1597 155.842L87.126 155.303Z" fill="#E2F2D9"/>
<path d="M143.814 177.716L155.559 174.881L155.788 176.065L144.116 178.714L143.814 177.716Z" fill="#E2F2D9"/>
<path d="M103.012 77.1675L103.17 77.0167L112.954 67.1543L113.909 67.9582L113.564 68.1879L103.78 78.0144L103.012 77.1675Z" fill="#E2F2D9"/>
<path d="M95.6035 76.9412L97.5632 66.7773L98.7549 67.0429L96.6803 77.1709L95.6035 76.9412Z" fill="#E2F2D9"/>
<path d="M87.126 77.0988L89.3154 67.1934L90.464 67.4231L88.2386 77.3285L87.126 77.0988Z" fill="#E2F2D9"/>
<path d="M76.1855 78.592L77.492 68.8086L78.5688 69.0383L77.2623 78.7859L76.1855 78.592Z" fill="#E2F2D9"/>
<path d="M81.4404 77.7507L82.5603 68.0391L83.6299 68.118L82.711 77.8656L81.4404 77.7507Z" fill="#E2F2D9"/>
<path d="M62.0585 83.1561L63.2143 72.9492L64.327 73.1071L63.2143 83.35L62.0585 83.1561Z" fill="#E2F2D9"/>
<path d="M54.1553 88.5305L56.0791 77.168L57.2277 77.3259L55.2321 88.7602L54.1553 88.5305Z" fill="#E2F2D9"/>
<path d="M47.3643 96.974L47.594 82.166H48.7066L48.5559 96.974H47.3643Z" fill="#E2F2D9"/>
<path d="M99.2939 76.8656L105.661 66.7305L106.58 67.2688L100.292 77.4758L99.2939 76.8656Z" fill="#E2F2D9"/>
<path d="M103.4 83.8514L113.644 81.9277L113.91 83.0044L103.551 84.9999L103.4 83.8514Z" fill="#E2F2D9"/>
<path d="M103.242 92.3713L113.263 90.2969L113.565 91.4453L103.479 93.5197L103.242 92.3713Z" fill="#E2F2D9"/>
<path d="M101.899 103.535L111.878 102.271L112.028 103.384L102.05 104.647L101.899 103.535Z" fill="#E2F2D9"/>
<path d="M102.861 98.0855L112.725 97.1309L112.804 98.2793L102.94 99.198L102.861 98.0855Z" fill="#E2F2D9"/>
<path d="M97.5635 117.661L107.965 116.627L108.044 117.811L97.7142 118.773L97.5635 117.661Z" fill="#E2F2D9"/>
<path d="M92.1875 125.679L103.781 123.842L103.932 124.99L92.4244 126.835L92.1875 125.679Z" fill="#E2F2D9"/>
<path d="M103.012 80.2392L113.263 73.8652L113.909 74.8702L103.55 81.201L103.012 80.2392Z" fill="#E2F2D9"/>
<path d="M-0.495117 34.7252V34.4955V20.5273H0.57448V20.9078V34.8041L-0.495117 34.7252Z" fill="#E2F2D9"/>
<path d="M4.41492 39.2209L10.3229 30.5859L11.17 31.2391L5.33379 39.831L4.41492 39.2209Z" fill="#E2F2D9"/>
<path d="M10.4014 45.2819L16.0078 36.7188L16.9266 37.4078L11.3202 45.928L10.4014 45.2819Z" fill="#E2F2D9"/>
<path d="M17.3076 54.0693L23.3735 46.2383L24.2923 46.8556L18.1547 54.7584L17.3076 54.0693Z" fill="#E2F2D9"/>
<path d="M14.0488 49.6216L20.3085 41.9844L21.2274 42.7093L15.0107 50.3466L14.0488 49.6216Z" fill="#E2F2D9"/>
<path d="M24.1416 67.1915L30.8607 59.1738L31.6647 59.8988L24.9527 67.9596L24.1416 67.1915Z" fill="#E2F2D9"/>
<path d="M26.0652 76.7092L32.8921 67.2344L33.8181 67.9593L26.9841 77.4054L26.0652 76.7092Z" fill="#E2F2D9"/>
<path d="M24.874 87.2652L35.5055 76.6348L36.3095 77.4028L25.6421 88.0691L24.874 87.2652Z" fill="#E2F2D9"/>
<path d="M24.9531 92.8684L35.5056 87.2266L36.0009 88.2243L25.5633 93.902L24.9531 92.8684Z" fill="#E2F2D9"/>
<path d="M1.5 36.9149L4.25658 25.1719L5.41232 25.4375L2.61267 37.1446L1.5 36.9149Z" fill="#E2F2D9"/>
<path d="M102.94 284.753L103.859 284.1L103.931 284.25L113.909 294.077L112.955 294.917L112.725 294.615L102.94 284.753Z" fill="#E2F2D9"/>
<path d="M79.7969 224.387L91.0026 221.121L91.3831 222.313L80.0266 225.614L79.7969 224.387Z" fill="#E2F2D9"/>
<path d="M48.6272 264.869H47.4355V279.993H48.6272V264.869Z" fill="#E2F2D9"/>
<path d="M40.0352 272.203L43.5599 260.762L44.6366 260.991L41.1048 272.505L40.0352 272.203Z" fill="#E2F2D9"/>
<path d="M90.8447 180.174C116.637 179.6 121.713 160.299 121.713 160.141L123.32 160.528C123.32 160.758 117.951 181.251 90.8519 181.825L90.8447 180.174Z" fill="#E2F2D9"/>
<path d="M90.8447 182.283V180.553C117.944 181.091 123.313 201.282 123.313 201.369L121.705 201.828C121.547 201.096 116.558 182.706 90.8447 182.283Z" fill="#E2F2D9"/>
<path d="M110.801 180.398C124.16 180.248 130.298 173.529 133.219 167.852L134.217 168.347C131.346 174.261 124.777 181.396 110.801 181.554V180.398Z" fill="#E2F2D9"/>
<path d="M110.801 181.824V180.633C125.423 181.02 131.619 188.773 133.988 193.452L133.061 193.991C130.721 189.612 124.777 182.133 110.801 181.824Z" fill="#E2F2D9"/>
<path d="M106.659 242.648C107.887 241.342 119.171 229.218 140.047 237.66L139.515 239.275C119.667 231.214 109.078 242.497 107.93 243.797L106.659 242.648Z" fill="#E2F2D9"/>
<path d="M119.975 212.102H121.705C121.705 218.397 124.009 230.14 140.125 237.317L139.407 238.968C122.473 231.245 119.975 218.856 119.975 212.102Z" fill="#E2F2D9"/>
<path d="M101.131 232.096C104.72 229.641 112.337 226.182 123.542 230.905L123.083 231.938C112.495 227.531 105.201 230.754 101.82 233.051L101.131 232.096Z" fill="#E2F2D9"/>
<path d="M108.849 215.864L110.04 215.562C111.11 220.085 114.448 226.329 123.68 230.758L123.22 231.835C113.421 227.076 110.04 220.551 108.849 215.864Z" fill="#E2F2D9"/>
<path d="M119.021 148.244C119.021 144.174 120.456 129.976 139.121 121.994L139.838 123.602C120.155 131.892 120.686 147.246 120.686 149.083L119.042 149.162L119.021 148.244Z" fill="#E2F2D9"/>
<path d="M106.738 118.154L108.038 116.963C112.495 121.377 122.474 127.902 138.905 121.765L139.523 123.337C122.165 129.897 111.569 122.856 106.738 118.154Z" fill="#E2F2D9"/>
<path d="M107.678 145.63C108.396 141.324 111.36 133.507 122.645 129.014L123.104 129.976C112.286 134.347 109.465 141.719 108.79 145.824L107.678 145.63Z" fill="#E2F2D9"/>
<path d="M101.67 128.636L102.208 127.674C106.2 130.057 112.876 132.124 122.624 128.707L123.012 129.82C112.797 133.352 105.812 131.126 101.67 128.636Z" fill="#E2F2D9"/>
<path d="M53.6528 55.0611C53.7593 50.177 54.7973 45.3582 56.7108 40.8633L58.2829 41.5811C50.2501 61.3992 61.4487 71.8932 62.748 72.9843L61.5994 74.3265C59.0402 71.82 57.0163 68.8201 55.6503 65.5086C54.2844 62.1971 53.6048 58.6429 53.6528 55.0611Z" fill="#E2F2D9"/>
<path d="M31.0117 61.0546V59.3248C37.3432 59.3248 49.0155 56.9848 56.3017 40.8633L57.9528 41.5811C49.9344 59.174 36.4602 61.0546 31.0117 61.0546Z" fill="#E2F2D9"/>
<path d="M47.5147 68.191C47.6138 64.516 48.4358 60.8964 49.9339 57.5391L50.9317 57.9195C46.3231 68.6863 49.7042 75.8642 51.9295 79.2593L51.1614 79.8694C48.7481 76.4568 47.472 72.3704 47.5147 68.191Z" fill="#E2F2D9"/>
<path d="M34.5078 71.0308C38.9585 69.8751 45.3259 66.5733 49.7838 57.2852L50.7026 57.7517C46.0222 67.4993 39.4179 70.9518 34.7375 72.1075L34.5078 71.0308Z" fill="#E2F2D9"/>
<path d="M31.8154 300.057C33.6603 299.907 50.1638 299.411 58.9503 320.155L57.2993 320.873C49.0152 301.148 33.6603 301.687 31.9733 301.802L31.8154 300.057Z" fill="#E2F2D9"/>
<path d="M54.9954 307.002C54.9629 299.848 57.748 292.969 62.7482 287.852L64.0188 289.079C59.604 293.493 53.0428 303.514 59.2595 319.858L57.6874 320.576C55.9605 316.256 55.0478 311.654 54.9954 307.002Z" fill="#E2F2D9"/>
<path d="M35.0391 289.781L35.3477 288.783C39.5687 289.501 47.5944 292.465 51.9302 303.67L51.0042 304.094C46.8262 293.348 39.1093 290.549 35.0391 289.781Z" fill="#E2F2D9"/>
<path d="M49.3954 293.807C49.3316 289.894 50.3554 286.039 52.353 282.674L53.2718 283.255C51.0034 287.088 48.857 293.922 52.2381 303.748L51.2403 304.093C50.0669 300.788 49.4437 297.313 49.3954 293.807Z" fill="#E2F2D9"/>
<path d="M77.9521 102.269C87.3919 92.5932 86.8894 83.4988 84.8579 77.4766L85.9706 77.168C87.7724 82.3145 89.0789 92.4784 78.7202 103.109L77.9521 102.269Z" fill="#E2F2D9"/>
<path d="M78.1025 102.421C88.6191 92.3725 98.6763 93.5209 103.472 95.0139L103.242 96.1265C98.5255 94.6335 89.0068 93.5927 78.7917 103.268L78.1025 102.421Z" fill="#E2F2D9"/>
<path d="M-13.1797 47.7731L-12.6485 46.7754C-7.83167 49.1513 0.344687 55.4463 0.574402 70.2183H-0.502381C-0.717738 56.8172 -7.50145 50.6084 -13.1797 47.7731Z" fill="#E2F2D9"/>
<path d="M-0.422852 70.223C-0.0352097 55.6017 7.83246 49.4072 12.3191 47.0098L12.8574 47.9644C8.55032 50.2685 1.11335 56.219 0.732885 70.302L-0.422852 70.223Z" fill="#E2F2D9"/>
<path d="M-0.501953 291.846H0.57483C0.732758 305.204 7.40884 311.42 13.166 314.262L12.5487 315.217C7.83234 312.762 -0.422989 306.51 -0.501953 291.846Z" fill="#E2F2D9"/>
<path d="M-13.0293 314.035C-8.60013 311.731 -1.1129 305.823 -0.732434 291.697H0.344348C-0.000222206 306.433 -7.89663 312.649 -12.4909 315.033L-13.0293 314.035Z" fill="#E2F2D9"/>
<path d="M77.9521 259.841L78.7202 258.922C88.2964 268.289 97.485 267.851 103.472 265.906L103.781 266.983C98.7484 268.748 88.4687 270.048 77.9521 259.841Z" fill="#E2F2D9"/>
<path d="M77.7227 259.836L78.4908 259.068C88.6197 269.591 87.5429 279.719 85.9708 284.593L84.7791 284.356C86.2795 279.568 87.4711 270.043 77.7227 259.836Z" fill="#E2F2D9"/>
<path d="M63.6309 116.16C81.4408 97.5475 71.4268 80.3134 71.3478 80.2703L72.7333 79.3516C72.884 79.5741 83.6303 97.8489 64.8369 117.394L63.6309 116.16Z" fill="#E2F2D9"/>
<path d="M63.9395 116.467C83.4005 97.6967 101.519 108.097 101.67 108.255L100.823 109.634C100.105 109.289 83.5943 99.807 65.1311 117.658L63.9395 116.467Z" fill="#E2F2D9"/>
<path d="M-20.8966 59.3247L-20.5161 57.6738C-20.2649 57.7528 0.265766 63.0501 0.883121 90.1035L-0.803843 90.1752C-1.43555 64.4282 -20.0998 59.4755 -20.8966 59.3247Z" fill="#E2F2D9"/>
<path d="M-0.501953 90.1035C0.0364383 63.0501 20.1149 57.7528 20.3805 57.6738L20.8399 59.3247C19.957 59.4755 1.73059 64.4282 1.1922 90.1896L-0.501953 90.1035Z" fill="#E2F2D9"/>
<path d="M-0.803711 271.891H0.883253C1.34268 297.602 19.9567 302.519 20.8396 302.669L20.4592 304.399C20.1002 304.32 -0.344284 298.987 -0.803711 271.891Z" fill="#E2F2D9"/>
<path d="M-20.8965 302.669C-20.114 302.519 -1.80153 297.602 -1.27032 271.891H0.423809C-0.114582 298.987 -20.2648 304.32 -20.4371 304.399L-20.8965 302.669Z" fill="#E2F2D9"/>
<path d="M63.6309 245.913L64.8655 244.643C83.4006 262.487 100.672 252.395 100.823 252.316L101.67 253.751C101.519 253.895 83.1709 264.597 63.6309 245.913Z" fill="#E2F2D9"/>
<path d="M63.2861 246.179L64.607 244.951C83.2712 264.525 72.8623 282.52 72.7116 282.75L71.3261 281.795C71.7353 281.099 81.1177 264.676 63.2861 246.179Z" fill="#E2F2D9"/>
<path d="M112.186 100.044L112.265 100.92L112.336 100.044C113.886 99.7922 115.454 99.6626 117.024 99.6562C125.813 99.6714 134.238 103.169 140.453 109.384C146.668 115.598 150.166 124.022 150.182 132.811C150.182 143.326 145.343 153.232 137.095 159.182L135.982 157.682C139.852 154.797 142.99 151.043 145.143 146.723C147.297 142.403 148.405 137.638 148.38 132.811C148.357 124.511 145.04 116.56 139.158 110.704C133.276 104.848 125.31 101.567 117.01 101.58C115.519 101.604 114.031 101.705 112.552 101.881L112.25 100.92L112.186 100.044Z" fill="#E2F2D9"/>
<path d="M21.9951 44.4316L22.2966 43.9363C23.1437 42.8596 24.0625 41.826 25.1034 40.7134C31.3452 34.4941 39.7978 31.002 48.6096 31.002C57.4214 31.002 65.874 34.4941 72.1158 40.7134C75.7594 44.3077 78.5035 48.7108 80.125 53.565C81.7465 58.4192 82.1998 63.5874 81.4479 68.6497L79.6461 68.341C80.3427 63.5796 79.9062 58.7211 78.372 54.16C76.8378 49.599 74.2492 45.4642 70.8165 42.0916C67.9144 39.1726 64.4638 36.8561 60.6632 35.2754C56.8626 33.6947 52.7869 32.8809 48.6706 32.8809C44.5543 32.8809 40.4786 33.6947 36.678 35.2754C32.8774 36.8561 29.4268 39.1726 26.5248 42.0916C25.5296 43.0235 24.6302 44.0527 23.84 45.1637L23.4595 45.6231L21.9951 44.4316Z" fill="#E2F2D9"/>
<path d="M21.6865 318.173L23.2227 317.025C27.1973 322.245 32.7106 326.085 38.9848 328.005C45.259 329.925 51.9777 329.827 58.1932 327.725C64.4088 325.623 69.8076 321.623 73.6282 316.289C77.4488 310.955 79.4985 304.557 79.4882 297.996C79.4423 296.468 79.313 294.944 79.1006 293.431L80.9813 293.201C81.1968 294.791 81.3262 296.392 81.369 297.996C81.3625 304.947 79.1785 311.721 75.1236 317.367C71.0687 323.013 65.3468 327.247 58.7617 329.474C52.1765 331.701 45.0591 331.809 38.4093 329.784C31.7594 327.758 25.9113 323.7 21.6865 318.18V318.173Z" fill="#E2F2D9"/>
<path d="M112.338 262.566L112.647 260.764C119.13 261.631 125.722 260.446 131.497 257.374C137.273 254.303 141.941 249.5 144.846 243.64C147.751 237.779 148.747 231.156 147.694 224.701C146.642 218.246 143.594 212.282 138.977 207.648C137.837 206.537 136.639 205.488 135.388 204.504L136.58 203.068C137.881 204.057 139.123 205.121 140.298 206.255C146.512 212.485 150.002 220.925 150.002 229.723C150.002 238.522 146.512 246.962 140.298 253.191C136.693 256.828 132.286 259.569 127.431 261.197C122.576 262.825 117.407 263.294 112.338 262.566Z" fill="#E2F2D9"/>
<path d="M23.2227 46.0118C29.6849 40.4953 37.9875 37.6139 46.4781 37.9411C54.9688 38.2683 63.0249 41.7801 69.0434 47.7776C74.7806 53.3239 78.2089 60.8338 78.6411 68.8015L77.4136 68.8805C76.8754 61.2613 73.602 54.0931 68.1963 48.6963C62.3968 42.95 54.6523 39.5884 46.4937 39.2761C38.3351 38.9637 30.3562 41.7234 24.1343 47.0095L23.2227 46.0118Z" fill="#E2F2D9"/>
<path d="M23.5244 316.029L24.4863 315.032C30.2202 320.122 37.6364 322.91 45.3041 322.856C53.4655 322.808 61.3141 319.711 67.3084 314.173C73.3027 308.634 77.0096 301.055 77.7009 292.924L79.0074 293.075C77.7009 310.388 62.8054 324.198 45.2682 324.126C37.2699 324.2 29.5262 321.316 23.5244 316.029Z" fill="#E2F2D9"/>
<path d="M112.028 258.383C119.696 257.961 126.927 254.68 132.293 249.188C138.07 243.4 141.458 235.652 141.785 227.482C142.112 219.312 139.354 211.318 134.059 205.087L135.057 204.369C140.543 210.842 143.399 219.139 143.059 227.617C142.719 236.096 139.207 244.137 133.219 250.15C127.661 255.874 120.153 259.299 112.186 259.746L112.028 258.383Z" fill="#E2F2D9"/>
<path d="M111.878 103.379L111.986 102.037C120.439 102.734 128.324 106.572 134.086 112.796C139.848 119.02 143.069 127.177 143.112 135.658C143.169 143.655 140.264 151.389 134.957 157.371L133.88 156.488C139.011 150.774 141.826 143.352 141.777 135.673C141.746 127.523 138.656 119.682 133.119 113.702C127.582 107.721 120.002 104.038 111.878 103.379Z" fill="#E2F2D9"/>
<path d="M137.979 150.848C140.356 149.413 143.004 147.855 145.732 146.326L146.342 147.475C143.658 149.011 141.045 150.468 138.669 152.004L137.979 150.848Z" fill="#E2F2D9"/>
<path d="M148.381 140.562C147.383 141.18 146.421 141.718 145.509 142.371C143.973 143.254 142.473 144.252 140.979 144.977" fill="#E2F2D9"/>
<path d="M149.027 135.275C147.189 136.46 145.272 137.615 143.427 138.728C143.004 138.879 142.465 139.338 142.085 139.446" fill="#E2F2D9"/>
<path d="M142.236 134.541C144.505 133.199 147.032 131.892 149.027 130.586L142.236 134.541Z" fill="#E2F2D9"/>
<path d="M141.935 129.67C144.196 128.285 146.421 126.986 148.532 125.83L141.935 129.67Z" fill="#E2F2D9"/>
<path d="M140.7 125.446C142.811 124.139 145.151 122.955 147.226 121.605L140.7 125.446Z" fill="#E2F2D9"/>
<path d="M139.264 121.607C141.252 120.344 143.406 119.001 145.48 117.846L139.264 121.607Z" fill="#E2F2D9"/>
<path d="M137.11 117.657C139.264 116.545 141.288 115.159 143.212 114.068L137.11 117.657Z" fill="#E2F2D9"/>
<path d="M134.526 114.242C136.555 113.241 138.503 112.087 140.355 110.789L134.526 114.242Z" fill="#E2F2D9"/>
<path d="M131.49 111.374C133.292 110.261 135.216 109.149 137.097 107.957L131.49 111.374Z" fill="#E2F2D9"/>
<path d="M127.843 108.328C129.734 107.386 131.554 106.309 133.291 105.105L127.843 108.328Z" fill="#E2F2D9"/>
<path d="M128.92 102.842C127.336 103.885 125.697 104.844 124.01 105.713C124.01 105.713 123.78 105.713 123.78 105.907" fill="#E2F2D9"/>
<path d="M123.471 101.113C122.933 101.58 122.473 101.731 122.035 102.111C120.901 102.689 119.801 103.332 118.74 104.035" fill="#E2F2D9"/>
<path d="M112.495 102.653C113.726 102.023 114.924 101.33 116.084 100.578L112.495 102.653Z" fill="#E2F2D9"/>
<path d="M23.2227 46.0118C29.6849 40.4953 37.9875 37.6139 46.4781 37.9411C54.9688 38.2683 63.0249 41.7801 69.0434 47.7776C74.7806 53.3239 78.2089 60.8338 78.6411 68.8015L77.4136 68.8805C76.8754 61.2613 73.602 54.0931 68.1963 48.6963C62.3968 42.95 54.6523 39.5884 46.4937 39.2761C38.3351 38.9637 30.3562 41.7234 24.1343 47.0095L23.2227 46.0118Z" fill="#E2F2D9"/>
<path d="M76.1855 62.1247C76.8029 59.4402 77.5638 56.6767 78.4899 53.418L79.7892 53.7625C78.7914 56.9854 78.1022 59.7488 77.492 62.5123L76.1855 62.1247Z" fill="#E2F2D9"/>
<path d="M76.3367 47.584C75.9921 48.6176 75.7624 49.6943 75.4537 50.771C75.1355 52.5035 74.6868 54.2095 74.1113 55.8744" fill="#E2F2D9"/>
<path d="M73.042 43.25C72.5754 45.3603 72.037 47.5567 71.5058 49.7101C71.3354 50.2108 71.2058 50.7245 71.1182 51.2462" fill="#E2F2D9"/>
<path d="M67.7441 47.5363C68.3543 45.0097 69.1799 42.3252 69.7757 39.9062L67.7441 47.5363Z" fill="#E2F2D9"/>
<path d="M63.9395 44.3157C64.6573 41.789 65.3751 39.2553 65.9781 36.9512L63.9395 44.3157Z" fill="#E2F2D9"/>
<path d="M60.2207 42.2047C60.7591 39.7499 61.52 37.4099 62.0584 34.9551L60.2207 42.2047Z" fill="#E2F2D9"/>
<path d="M56.3809 40.5566C56.9193 38.1807 57.5366 35.7259 58.1827 33.4648L56.3809 40.5566Z" fill="#E2F2D9"/>
<path d="M52.0801 39.2552C52.8841 36.9511 53.3507 34.4963 53.925 32.4219L52.0801 39.2552Z" fill="#E2F2D9"/>
<path d="M47.9025 38.715C48.5918 36.5454 49.1669 34.3412 49.6253 32.1113L47.9025 38.715Z" fill="#E2F2D9"/>
<path d="M43.7168 38.8761C44.248 36.651 44.784 34.4976 45.3248 32.416L43.7168 38.8761Z" fill="#E2F2D9"/>
<path d="M38.958 39.2583C39.6422 37.2396 40.1796 35.1742 40.566 33.0781L38.958 39.2583Z" fill="#E2F2D9"/>
<path d="M35.8501 34.5C35.4721 36.3733 34.9709 38.2197 34.3497 40.027C34.3293 40.0464 34.3131 40.0698 34.302 40.0957C34.2909 40.1216 34.2852 40.1495 34.2852 40.1777C34.2852 40.2059 34.2909 40.2338 34.302 40.2597C34.3131 40.2856 34.3293 40.309 34.3497 40.3284" fill="#E2F2D9"/>
<path d="M30.8676 37.2617C30.7097 37.8718 30.5589 38.2594 30.401 38.9485C30.0062 40.1232 29.6873 41.3219 29.4463 42.5375" fill="#E2F2D9"/>
<path d="M24.0625 46.0534C24.5459 44.7625 24.8947 43.4251 25.1034 42.0625L24.0625 46.0534Z" fill="#E2F2D9"/>
<path d="M23.5244 316.029L24.4863 315.032C30.2202 320.122 37.6364 322.91 45.3041 322.856C53.4655 322.808 61.3141 319.711 67.3084 314.173C73.3027 308.634 77.0096 301.055 77.7009 292.924L79.0074 293.075C77.7009 310.388 62.8054 324.198 45.2682 324.126C37.2699 324.2 29.5262 321.316 23.5244 316.029Z" fill="#E2F2D9"/>
<path d="M28.9805 319.632L30.0931 318.979C31.5288 321.247 32.8928 323.666 34.1993 326.077L34.5797 326.731L33.5029 327.384L33.022 326.709C31.816 324.355 30.3946 321.972 28.9805 319.632Z" fill="#E2F2D9"/>
<path d="M35.4258 322.243L36.6103 321.684C37.3281 323.177 38.3331 324.713 39.1012 326.091C39.4817 326.744 39.8191 327.167 40.178 327.785C40.3178 328.198 40.5239 328.586 40.7882 328.933L39.7186 329.701C39.5028 329.243 39.2457 328.806 38.9505 328.395C38.6802 327.861 38.3706 327.347 38.0244 326.859C37.1917 325.387 36.1508 323.837 35.4258 322.243Z" fill="#E2F2D9"/>
<path d="M40.7959 323.392L42.0665 322.854C42.2267 323.037 42.3553 323.245 42.447 323.471C42.635 323.654 42.7796 323.877 42.8705 324.124L44.0191 326.076C44.7872 327.311 45.4548 328.531 46.2516 329.766L45.0958 330.419C44.3277 329.227 43.7176 328.079 42.9423 326.83L41.6717 324.799C41.5907 324.579 41.4606 324.38 41.2912 324.217C41.1046 323.894 40.9538 323.622 40.7959 323.392Z" fill="#E2F2D9"/>
<path d="M45.8643 323.62L46.9769 322.902C47.4364 323.706 47.903 324.517 48.4773 325.357C49.2454 326.793 50.0852 328.35 51.0041 329.736L49.9345 330.389C48.9636 329.009 48.0789 327.571 47.2856 326.082C46.8262 325.271 46.3237 324.431 45.8643 323.62Z" fill="#E2F2D9"/>
<path d="M51.4707 322.854C52.7341 325.237 54.0765 327.462 55.1533 329.536L51.4707 322.854Z" fill="#E2F2D9"/>
<path d="M55.5332 321.818C56.7679 323.893 57.9524 326.075 59.3738 328.228L55.5332 321.818Z" fill="#E2F2D9"/>
<path d="M58.7998 320.631L59.8335 319.863C61.219 321.974 62.5973 324.048 63.71 326.158L62.5183 326.876C61.3698 324.78 60.0632 322.706 58.7998 320.631Z" fill="#E2F2D9"/>
<path d="M63.2861 318.176C64.4778 320.25 65.8202 322.396 66.8754 324.198L63.2861 318.176Z" fill="#E2F2D9"/>
<path d="M66.7607 315.525C67.7375 317.56 68.8779 319.511 70.1706 321.361L66.7607 315.525Z" fill="#E2F2D9"/>
<path d="M69.6318 312.496C70.7445 314.413 71.8931 316.178 73.0488 318.174L69.6318 312.496Z" fill="#E2F2D9"/>
<path d="M72.6543 308.889C73.5732 310.769 74.7648 312.65 75.8416 314.416L72.6543 308.889Z" fill="#E2F2D9"/>
<path d="M78.1027 309.962C77.1839 308.527 76.265 306.775 75.2313 305.052C75.2313 305.052 75.3103 304.895 75.1523 304.895" fill="#E2F2D9"/>
<path d="M79.7896 304.456C79.5335 303.929 79.2257 303.429 78.8708 302.963C78.3324 301.851 77.5643 300.889 76.9541 299.697" fill="#E2F2D9"/>
<path d="M78.332 293.494C78.9355 294.732 79.6165 295.931 80.3708 297.083L78.332 293.494Z" fill="#E2F2D9"/>
<path d="M112.028 258.383C119.696 257.961 126.927 254.68 132.293 249.188C138.07 243.4 141.458 235.652 141.785 227.482C142.112 219.312 139.354 211.318 134.059 205.087L135.057 204.369C140.543 210.842 143.399 219.139 143.059 227.617C142.719 236.096 139.207 244.137 133.219 250.15C127.661 255.874 120.153 259.299 112.186 259.746L112.028 258.383Z" fill="#E2F2D9"/>
<path d="M118.482 258.518L118.863 257.291C121.318 257.786 123.931 258.518 126.616 259.243L127.542 259.516L127.233 260.815L126.192 260.55C123.701 259.839 121.016 259.15 118.482 258.518Z" fill="#E2F2D9"/>
<path d="M124.85 255.846L125.352 254.504C126.974 255.046 128.625 255.494 130.298 255.846C130.869 256.047 131.462 256.177 132.064 256.234C132.602 256.385 133.141 256.578 133.6 256.729L133.292 258C132.832 257.921 132.294 257.77 131.641 257.612C131.181 257.461 130.571 257.31 130.068 257.153C128.303 256.729 126.537 256.313 124.85 255.846Z" fill="#E2F2D9"/>
<path d="M129.608 252.703L130.068 251.512C130.147 251.512 130.455 251.591 130.786 251.67C131.03 251.73 131.27 251.806 131.504 251.899L133.923 252.474C135.229 252.854 136.572 253.191 137.914 253.471L137.605 254.778C136.342 254.433 134.921 254.124 133.693 253.78L131.195 253.163C130.936 253.071 130.665 253.02 130.391 253.012C130.137 252.892 129.876 252.789 129.608 252.703Z" fill="#E2F2D9"/>
<path d="M133.291 249.438L133.6 248.139C134.526 248.368 135.366 248.562 136.407 248.856C137.979 249.28 139.666 249.854 141.202 250.163L140.972 251.39C139.436 251.082 137.749 250.622 135.947 250.163C135.057 249.94 134.138 249.632 133.291 249.438Z" fill="#E2F2D9"/>
<path d="M136.709 244.951C139.286 245.669 141.777 246.337 144.038 247.105L136.709 244.951Z" fill="#E2F2D9"/>
<path d="M138.818 241.289C141.202 241.748 143.657 242.595 146.04 243.17L138.818 241.289Z" fill="#E2F2D9"/>
<path d="M140.276 238.119L140.506 236.812C142.925 237.43 145.423 237.889 147.685 238.657L147.383 239.885C145.115 239.196 142.624 238.657 140.276 238.119Z" fill="#E2F2D9"/>
<path d="M141.776 233.209C144.038 233.927 146.421 234.401 148.61 234.932L141.776 233.209Z" fill="#E2F2D9"/>
<path d="M142.314 228.908C144.467 229.686 146.691 230.251 148.955 230.595L142.314 228.908Z" fill="#E2F2D9"/>
<path d="M142.136 224.691C144.246 225.302 146.4 225.804 148.596 226.342L142.136 224.691Z" fill="#E2F2D9"/>
<path d="M141.776 220.082C143.808 220.699 145.882 221.274 147.914 221.697L141.776 220.082Z" fill="#E2F2D9"/>
<path d="M146.443 217.013C144.677 216.547 142.796 216.015 140.994 215.477C140.949 215.445 140.895 215.428 140.84 215.428C140.785 215.428 140.731 215.445 140.686 215.477" fill="#E2F2D9"/>
<path d="M143.808 211.862C143.09 211.711 142.695 211.554 142.085 211.403C140.858 211.079 139.614 210.823 138.359 210.635" fill="#E2F2D9"/>
<path d="M134.957 205.117C136.239 205.643 137.579 206.016 138.948 206.23L134.957 205.117Z" fill="#E2F2D9"/>
<path d="M145.344 119.772C145.344 117.238 149.264 113.628 154.942 111.094C160.469 108.754 167.066 107.799 168.294 110.714C169.45 113.326 165.344 117.504 158.962 120.346C153.363 122.801 146.758 123.72 145.495 120.77C145.36 120.456 145.308 120.112 145.344 119.772ZM167.26 111.668C167.28 111.536 167.252 111.401 167.181 111.288C166.413 109.637 161.503 109.752 155.437 112.4C149.371 115.049 145.997 118.695 146.766 120.188C147.419 121.768 152.365 121.689 158.352 119.076C163.922 116.621 167.26 113.477 167.26 111.668Z" fill="#E2F2D9"/>
<path d="M58.2607 30.8505C58.3738 27.8327 59.0102 24.8575 60.1416 22.0576C61.9865 17.2269 64.7861 13.4441 67.2052 12.389C67.8741 12.0979 68.6287 12.0722 69.3157 12.3172C70.2346 12.6976 71.3473 13.7528 71.3473 16.9541C71.2232 19.9565 70.5871 22.9157 69.4665 25.7039C67.3129 31.3098 63.2858 36.643 60.2205 35.4946C58.9499 34.9562 58.2607 33.3843 58.2607 30.8505ZM70.0049 16.9541C70.0049 15.0735 69.6244 13.8102 68.8132 13.5374C68.6238 13.4772 68.4239 13.4569 68.2262 13.4779C68.0284 13.4989 67.8372 13.5607 67.6647 13.6595C65.7408 14.5423 63.056 18.1456 61.3691 22.5241C60.2731 25.1707 59.6487 27.9887 59.5242 30.8505C59.5242 32.6521 59.9908 33.9585 60.8307 34.2241C62.3669 34.8772 65.8557 31.3099 68.2031 25.2446C69.3112 22.6163 69.9222 19.8052 70.0049 16.9541Z" fill="#E2F2D9"/>
<path d="M58.34 330.836C58.34 327.965 59.4527 326.845 60.2926 326.58C60.617 326.427 60.9712 326.348 61.3299 326.348C61.6885 326.348 62.0427 326.427 62.3672 326.58C64.8653 327.542 67.7439 331.145 69.7755 335.911C71.1979 338.781 71.9955 341.92 72.1157 345.12C72.1157 347.991 71.1178 348.96 70.3138 349.427C67.3563 350.654 63.0563 345.587 60.6802 339.988C59.2589 336.672 58.34 333.37 58.34 330.836ZM70.7374 345.113C70.6104 342.107 69.8779 339.158 68.5838 336.442C66.7461 332.222 64.0182 328.611 61.9077 327.829C61.5201 327.678 61.0607 327.563 60.831 327.757C60.1131 328.066 59.7614 329.193 59.7614 330.822C59.9014 333.777 60.6337 336.675 61.9149 339.342C64.5638 345.407 68.2105 348.788 69.8113 348.092C70.4646 347.955 70.7374 346.728 70.7374 345.113Z" fill="#E2F2D9"/>
<path d="M145.344 242.189C145.339 241.891 145.418 241.597 145.574 241.342C145.689 240.998 145.877 240.683 146.125 240.418C146.372 240.153 146.674 239.944 147.009 239.806C149.472 238.816 154.037 239.275 158.876 241.191C164.783 243.531 168.89 246.934 168.89 249.439C168.886 249.742 168.832 250.043 168.732 250.329C167.504 253.322 160.907 252.626 155.229 250.48C149.493 248.211 145.344 244.802 145.344 242.189ZM167.526 249.439C167.526 247.716 164.116 244.565 158.316 242.419C154.059 240.696 149.644 240.115 147.612 240.983C147.245 241.115 146.933 241.368 146.729 241.701C146.729 241.852 146.65 242.01 146.65 242.16C146.65 243.926 150.103 247.07 155.71 249.259C161.847 251.563 166.916 251.449 167.526 249.913V249.439Z" fill="#E2F2D9"/>
<path d="M141.934 209.416L142.544 208.268C170.791 224.231 168.832 249.942 168.753 250.172L167.525 250.021V248.866C167.525 243.798 165.996 223.155 141.934 209.416Z" fill="#E2F2D9"/>
<path d="M120.664 262.645L121.016 261.303C151.64 269.055 167.526 249.94 167.605 249.818L168.602 250.536C168.452 250.622 152.099 270.512 120.664 262.645Z" fill="#E2F2D9"/>
<path d="M120.133 99.5071C151.331 90.8362 168.064 110.324 168.229 110.554L167.26 111.372C167.102 111.186 150.907 92.3364 120.47 100.742L120.133 99.5071Z" fill="#E2F2D9"/>
<path d="M142.387 152.234C169.45 136.033 167.067 111.284 167.067 111.09L168.294 110.939C168.452 111.09 170.943 136.78 143.083 153.346L142.387 152.234Z" fill="#E2F2D9"/>
<path d="M27.2783 38.4102C43.3224 10.2443 68.9139 12.2397 69.0359 12.2397L68.9642 13.5389C68.7273 13.5389 44.0115 11.6224 28.3551 39.0993L27.2783 38.4102Z" fill="#E2F2D9"/>
<path d="M68.6631 13.3864L69.4671 12.3887C69.6968 12.5466 89.567 28.7399 81.5199 60.2866L80.2923 59.978C88.0092 29.2782 68.9143 13.5371 68.6631 13.3864Z" fill="#E2F2D9"/>
<path d="M69.6318 348.184C69.7826 348.034 88.6263 331.912 80.1843 301.528L81.4477 301.141C90.1625 332.494 70.5866 349.11 70.4717 349.232L69.6318 348.184Z" fill="#E2F2D9"/>
<path d="M27.6738 324.126L28.8224 323.473C45.0172 350.569 69.6971 348.035 69.9268 348.035L70.0847 349.413C69.7761 349.413 44.2491 351.911 27.6738 324.126Z" fill="#E2F2D9"/>
<path d="M90.7728 180.174H59.9912V181.825H90.7728V180.174Z" fill="#E2F2D9"/>
<path d="M55.3105 157.765L82.7829 145.828L83.4002 147.407L55.9997 159.301L55.3105 157.765Z" fill="#E2F2D9"/>
<path d="M147.691 167.395L167.224 156.57L168.071 158.07L148.531 168.895L147.691 167.395Z" fill="#E2F2D9"/>
<path d="M147.383 194.756L148.151 193.184L168.071 204.238L167.224 205.652L147.383 194.756Z" fill="#E2F2D9"/>
<path d="M160.239 182.053L160.318 179.598L181 179.791V182.289L160.239 182.053Z" fill="#E2F2D9"/>
<path d="M167.683 160.527C166.852 160.504 166.059 160.166 165.468 159.581C164.876 158.996 164.529 158.207 164.496 157.376C164.492 156.523 164.824 155.703 165.421 155.093C166.018 154.483 166.83 154.132 167.683 154.117C168.507 154.156 169.284 154.511 169.854 155.108C170.423 155.704 170.74 156.497 170.74 157.322C170.74 158.147 170.423 158.94 169.854 159.537C169.284 160.133 168.507 160.488 167.683 160.527Z" fill="#E2F2D9"/>
<path d="M167.683 208.109C166.836 208.096 166.027 207.751 165.432 207.148C164.836 206.546 164.5 205.734 164.496 204.886C164.521 204.049 164.865 203.253 165.458 202.661C166.05 202.068 166.846 201.724 167.683 201.699C168.525 201.71 169.329 202.05 169.925 202.645C170.52 203.24 170.86 204.044 170.871 204.886C170.876 205.308 170.798 205.727 170.64 206.118C170.483 206.509 170.249 206.865 169.952 207.165C169.655 207.465 169.302 207.703 168.913 207.865C168.523 208.027 168.105 208.11 167.683 208.109Z" fill="#E2F2D9"/>
<path d="M94.8438 66.9261L100.981 45.4355L102.632 45.9308L96.4517 67.3855L94.8438 66.9261Z" fill="#E2F2D9"/>
<path d="M113.263 84.7715L135.215 78.5195L135.674 80.1633L113.909 86.4583L113.263 84.7715Z" fill="#E2F2D9"/>
<path d="M112.344 66.6536L127.081 52.1543L128.84 53.877L114.067 68.4194L112.344 66.6536Z" fill="#E2F2D9"/>
<path d="M103.932 47.9287C103.643 48.2202 103.299 48.4515 102.92 48.6094C102.541 48.7673 102.135 48.8486 101.724 48.8486C101.314 48.8486 100.907 48.7673 100.528 48.6094C100.15 48.4515 99.8057 48.2202 99.5167 47.9287C98.9461 47.3284 98.6279 46.5318 98.6279 45.7036C98.6279 44.8754 98.9461 44.0788 99.5167 43.4784C100.114 42.9318 100.9 42.6375 101.71 42.6572C102.52 42.6768 103.291 43.0089 103.861 43.584C104.432 44.159 104.757 44.9324 104.771 45.7422C104.784 46.552 104.483 47.3355 103.932 47.9287Z" fill="#E2F2D9"/>
<path d="M137.749 81.6183C137.301 82.0657 136.73 82.3704 136.109 82.4937C135.489 82.617 134.845 82.5534 134.26 82.3111C133.675 82.0687 133.175 81.6584 132.824 81.132C132.472 80.6056 132.284 79.9867 132.284 79.3537C132.284 78.7206 132.472 78.1018 132.824 77.5754C133.175 77.049 133.675 76.6387 134.26 76.3963C134.845 76.1539 135.489 76.0904 136.109 76.2137C136.73 76.337 137.301 76.6416 137.749 77.0891C138.339 77.6949 138.67 78.5076 138.67 79.3537C138.67 80.1998 138.339 81.0124 137.749 81.6183Z" fill="#E2F2D9"/>
<path d="M12.0887 32.8105L23.0719 12.9277L24.5651 13.7747L13.5891 33.6503L12.0887 32.8105Z" fill="#E2F2D9"/>
<path d="M-1.41406 20.6795L-1.2633 0L1.19176 0.0359025L1.04099 20.7584L-1.41406 20.6795Z" fill="#E2F2D9"/>
<path d="M27.0564 13.3085C27.0574 13.7303 26.9744 14.1482 26.8123 14.5376C26.6503 14.9271 26.4123 15.2804 26.1123 15.577C25.8124 15.8736 25.4564 16.1076 25.0651 16.2652C24.6738 16.4229 24.2551 16.5012 23.8332 16.4955C23.4167 16.4955 23.0043 16.4128 22.62 16.2521C22.2357 16.0914 21.8871 15.856 21.5946 15.5595C21.302 15.263 21.0713 14.9113 20.9159 14.5249C20.7604 14.1384 20.6833 13.725 20.689 13.3085C20.6812 12.8935 20.7572 12.4812 20.9125 12.0962C21.0677 11.7113 21.299 11.3616 21.5926 11.0681C21.8861 10.7746 22.2358 10.5433 22.6208 10.388C23.0058 10.2328 23.4182 10.1568 23.8332 10.1646C24.2517 10.158 24.6674 10.2342 25.0563 10.3888C25.4452 10.5435 25.7996 10.7736 26.0992 11.0658C26.3988 11.358 26.6376 11.7066 26.8019 12.0915C26.9662 12.4764 27.0527 12.89 27.0564 13.3085Z" fill="#E2F2D9"/>
<path d="M12.0889 329.536L13.5892 328.768L24.4144 348.342L22.9141 349.11L12.0889 329.536Z" fill="#E2F2D9"/>
<path d="M-1.26367 362.001L-1.03395 341.242L1.34215 341.393L1.19138 362.001H-1.26367Z" fill="#E2F2D9"/>
<path d="M20.4589 348.688C20.4579 348.276 20.5388 347.869 20.6968 347.488C20.8548 347.108 21.0868 346.763 21.3794 346.473C21.6719 346.183 22.0192 345.954 22.4009 345.8C22.7826 345.645 23.1913 345.568 23.6031 345.573C24.0199 345.564 24.4345 345.637 24.8228 345.789C25.2111 345.941 25.5655 346.168 25.8653 346.458C26.1651 346.747 26.4044 347.094 26.5693 347.477C26.7343 347.86 26.8216 348.271 26.8262 348.688C26.8301 349.113 26.7493 349.533 26.5887 349.926C26.4281 350.319 26.1908 350.676 25.8908 350.976C25.5907 351.276 25.2338 351.513 24.8411 351.674C24.4483 351.834 24.0274 351.915 23.6031 351.911C22.7644 351.883 21.9689 351.533 21.3829 350.932C20.7969 350.331 20.4658 349.527 20.4589 348.688Z" fill="#E2F2D9"/>
<path d="M113.644 277.495L114.067 275.809L135.524 282.025L135.064 283.64L113.644 277.495Z" fill="#E2F2D9"/>
<path d="M94.5342 294.916L96.0704 294.385L102.438 316.177L100.902 316.715L94.5342 294.916Z" fill="#E2F2D9"/>
<path d="M112.566 295.153L114.375 293.344L128.84 308.195L127.081 309.81L112.566 295.153Z" fill="#E2F2D9"/>
<path d="M133.141 285.076C132.824 284.794 132.57 284.448 132.396 284.061C132.223 283.674 132.133 283.254 132.133 282.83C132.133 282.405 132.223 281.986 132.396 281.598C132.57 281.211 132.824 280.865 133.141 280.583C133.73 279.999 134.523 279.666 135.352 279.653C136.181 279.639 136.984 279.947 137.592 280.511C138.183 281.124 138.513 281.942 138.513 282.794C138.513 283.645 138.183 284.464 137.592 285.076C137.304 285.377 136.959 285.616 136.576 285.779C136.194 285.943 135.782 286.027 135.366 286.027C134.95 286.027 134.539 285.943 134.156 285.779C133.774 285.616 133.428 285.377 133.141 285.076Z" fill="#E2F2D9"/>
<path d="M99.3655 318.814C98.7912 318.2 98.4718 317.39 98.4718 316.549C98.4718 315.709 98.7912 314.899 99.3655 314.285C99.9557 313.679 100.762 313.333 101.608 313.323C102.453 313.312 103.268 313.637 103.874 314.227C104.479 314.818 104.825 315.624 104.836 316.469C104.847 317.315 104.521 318.13 103.931 318.735C103.328 319.335 102.515 319.679 101.664 319.694C100.813 319.708 99.9893 319.393 99.3655 318.814Z" fill="#E2F2D9"/>
<path d="M89.3086 170.159C101.9 157.605 116.408 170.001 116.587 170.08L115.668 171.271C115.015 170.769 101.929 159.715 90.4931 171.228L89.3086 170.159Z" fill="#E2F2D9"/>
<path d="M99.5166 167.12C99.5166 163.051 100.902 158.6 105.044 154.301L106.2 155.377C97.7148 164.056 101.519 173.53 104.585 178.44L103.321 179.158C101.519 176.258 99.5166 172.03 99.5166 167.12Z" fill="#E2F2D9"/>
<path d="M90.3066 192.602L91.3834 191.453C102.934 203.038 116.027 191.913 116.559 191.453L117.556 192.681C117.406 192.716 102.934 205.113 90.3066 192.602Z" fill="#E2F2D9"/>
<path d="M100.5 195.023C100.5 190.343 102.654 186.409 104.262 183.703L105.496 184.507C103.766 187.378 101.426 191.915 102.194 197.061C102.345 200.435 103.917 203.658 106.566 206.694L105.417 207.649C102.496 204.39 100.888 200.815 100.658 197.212C100.593 196.444 100.5 195.712 100.5 195.023Z" fill="#E2F2D9"/>
<path d="M72.0371 125.331V123.759C88.3109 123.759 89.6964 106.718 89.7753 106.029L91.211 106.101C91.2326 106.345 89.7322 125.331 72.0371 125.331Z" fill="#E2F2D9"/>
<path d="M75.5322 109.177L77.0326 108.832C77.8725 112.134 79.4876 116.929 83.6297 120.037C86.1996 122.305 89.3725 123.568 93.5289 123.762L93.4571 125.291C89.0782 125.061 85.3166 123.647 82.6893 121.228C78.1811 117.833 76.4942 112.708 75.5322 109.177Z" fill="#E2F2D9"/>
<path d="M10.4805 64.4672L11.6291 63.4336C11.708 63.6633 24.0623 78.1339 11.5501 90.7095L10.4805 89.6328C21.9949 78.019 10.9399 65.0055 10.4805 64.4672Z" fill="#E2F2D9"/>
<path d="M2.61328 76.7103L3.38137 75.4829C6.33175 77.2487 10.8614 79.5456 16.0084 78.7848C19.5999 78.4588 22.9716 76.9137 25.5631 74.4062L26.5968 75.5188C23.2229 78.433 19.8059 80.084 16.1592 80.3136C10.5528 81.0817 5.79338 78.6268 2.61328 76.7103Z" fill="#E2F2D9"/>
<path d="M55.6912 253.086H57.1269C57.1269 269.516 74.2406 270.744 74.9728 270.815L74.901 272.351C74.7646 272.28 55.6912 270.815 55.6912 253.086Z" fill="#E2F2D9"/>
<path d="M55.6914 274.424C56.0001 270.046 57.2994 266.364 59.8334 263.657C63.1355 259.128 68.2826 257.441 71.8862 256.559L72.1159 258.059C68.8928 258.82 64.0975 260.392 60.9892 264.576C58.6189 267.339 57.2862 270.842 57.2204 274.482L55.6914 274.424Z" fill="#E2F2D9"/>
<path d="M55.5332 110.094C55.5332 92.3648 74.499 90.8359 74.7646 90.8359L74.8435 92.3648C74.0324 92.4079 56.9977 93.8004 56.9977 110.094V110.173H55.5619L55.5332 110.094Z" fill="#E2F2D9"/>
<path d="M55.3828 87.7637H56.919C57.0697 99.8871 66.4377 103.878 72.037 105.184L71.7355 106.62C65.7414 105.263 55.5336 100.921 55.3828 87.7637Z" fill="#E2F2D9"/>
<path d="M9.71289 296.602C10.2441 296.028 21.2991 282.964 9.79184 271.48L10.8614 270.367C23.3737 282.957 11.0122 297.543 10.8614 297.643L9.71289 296.602Z" fill="#E2F2D9"/>
<path d="M1.80176 284.359C6.10889 281.667 16.927 276.642 26.5965 286.117L25.5628 287.23C16.9485 278.674 7.48716 282.55 2.68471 285.658L1.80176 284.359Z" fill="#E2F2D9"/>
<path d="M70.8887 236.59C88.6197 236.59 90.1559 255.547 90.1559 255.776L88.6197 255.848C88.6197 255.08 87.184 238.047 70.8887 238.047V236.59Z" fill="#E2F2D9"/>
<path d="M74.3408 252.705C75.7765 246.64 79.9473 236.591 93.1486 236.512V237.947C81.06 238.026 77.1046 247.537 75.8412 253.064L74.3408 252.705Z" fill="#E2F2D9"/>
<path d="M-44.248 180.998C-44.2594 172.254 -41.6769 163.702 -36.8272 156.426C-31.9776 149.149 -25.0786 143.473 -17.0029 140.118C-8.92715 136.762 -0.0374794 135.876 8.54174 137.572C17.121 139.269 25.0043 143.471 31.1948 149.648C37.3852 155.825 41.6046 163.698 43.3193 172.273C45.0339 180.848 44.1668 189.739 40.8277 197.821C37.4885 205.903 31.8273 212.813 24.56 217.678C17.2928 222.542 8.74596 225.142 0.000606537 225.149C-11.7187 225.149 -22.9594 220.501 -31.2549 212.224C-39.5505 203.946 -44.2233 192.717 -44.248 180.998ZM43.2514 180.998C43.2571 172.447 40.7268 164.086 35.9805 156.972C31.2342 149.859 24.485 144.312 16.5862 141.034C8.68752 137.756 -0.00602722 136.893 -8.39518 138.554C-16.7843 140.216 -24.4923 144.328 -30.5447 150.369C-36.597 156.411 -40.7218 164.112 -42.3975 172.497C-44.0733 180.883 -43.2247 189.577 -39.9592 197.48C-36.6936 205.384 -31.1577 212.141 -24.0514 216.899C-16.9451 221.657 -8.58744 224.201 -0.0352783 224.209C11.4286 224.196 22.4201 219.641 30.533 211.543C38.6459 203.444 43.2191 192.461 43.2514 180.998Z" fill="#E2F2D9"/>
<path d="M-48.376 180.996C-48.3703 171.437 -45.5307 162.094 -40.216 154.149C-34.9013 146.203 -27.3501 140.011 -18.517 136.356C-9.68377 132.701 0.034935 131.746 9.41076 133.612C18.7866 135.478 27.3987 140.082 34.1585 146.841C40.9183 153.6 45.5223 162.211 47.3887 171.586C49.2552 180.961 48.3001 190.679 44.6444 199.511C40.9886 208.344 34.7963 215.894 26.85 221.208C18.9036 226.523 9.5601 229.362 0.000305176 229.368C-12.8258 229.354 -25.1228 224.254 -34.1922 215.185C-43.2616 206.117 -48.3627 193.821 -48.376 180.996ZM47.2854 180.996C47.2854 171.622 44.5044 162.459 39.2942 154.667C34.0841 146.874 26.679 140.802 18.0163 137.219C9.35359 133.636 -0.177422 132.704 -9.37048 134.539C-18.5635 136.375 -27.0054 140.896 -33.6277 147.531C-40.2499 154.165 -44.7549 162.615 -46.5725 171.811C-48.39 181.007 -47.4384 190.535 -43.8382 199.19C-40.2379 207.845 -34.1508 215.237 -26.3471 220.431C-18.5435 225.626 -9.37422 228.388 0.000305176 228.37C12.5497 228.345 24.5766 223.343 33.4416 214.461C42.3066 205.58 47.2855 193.544 47.2854 180.996Z" fill="#E2F2D9"/>
</svg>
