<svg width="80" height="71" viewBox="0 0 80 71" fill="none" xmlns="http://www.w3.org/2000/svg">
<path fill-rule="evenodd" clip-rule="evenodd" d="M59.653 4.49021C64.2483 4.31718 69.5634 4.24799 72.9737 3.23271C72.9559 3.25056 72.9416 3.26484 72.9216 3.27871C72.2343 3.85007 71.5471 4.42142 70.8237 4.94236C70.1187 5.49595 69.3719 5.97385 68.6367 6.47578C67.1445 7.42404 65.6064 8.29776 64.0125 9.02474C62.4105 9.74555 60.7728 10.3495 59.1139 10.8315C57.4483 11.3135 55.7661 11.6575 54.0712 11.9354C47.2782 12.8475 40.3582 13.5558 33.536 15.3206C30.1276 16.2057 26.7469 17.4185 23.5314 19.0409C20.3198 20.6888 17.2808 22.677 14.3045 24.7494C17.3214 22.7462 20.4014 20.8328 23.6227 19.2787C26.8494 17.7441 30.2113 16.6304 33.599 15.8371C36.987 15.0512 40.4035 14.5241 43.8156 14.1051C44.6683 13.9848 45.5239 13.9049 46.3787 13.801C47.233 13.7038 48.0837 13.6119 48.9394 13.5303C50.64 13.3564 52.3541 13.2246 54.086 12.9714C55.8212 12.7336 57.5554 12.3867 59.278 11.9328C61.004 11.4615 62.7104 10.8637 64.3824 10.1444C66.0526 9.41524 67.6703 8.53 69.2412 7.56944C70.0094 7.05768 70.7958 6.57113 71.5337 6.00937C72.2939 5.48246 73.014 4.90293 73.7351 4.32252C74.4614 3.74917 75.1432 3.11525 75.8417 2.5141L76.1973 2.17703C78.3128 1.41825 79.587 0.82696 79.587 0.82696C79.587 0.82696 51.3847 28.2598 42.3056 35.2622C27.7372 46.496 9.75064 48.3524 9.19236 48.41C9.72916 48.2827 27.0733 44.2164 37.0589 36.3014C47.0164 28.4082 58.3622 15.9746 58.3622 15.9746C58.3622 15.9746 51.6929 21.6735 36.2675 27.3997C19.4653 33.636 0.47306 29.8165 0.47306 29.8165C0.47306 29.8165 16.9479 10.2884 36.5108 5.44345C45.0546 3.3276 49.6916 4.86364 59.653 4.49021ZM23.4793 52.7781C23.9374 53.232 24.1683 53.8772 24.1212 54.572C24.0741 55.2667 23.7528 55.9541 23.228 56.4829C22.9662 56.7427 22.6627 56.9553 22.3348 57.1085C22.007 57.2617 21.6612 57.3525 21.3173 57.3758C20.9734 57.399 20.638 57.3542 20.3303 57.244C20.0226 57.1338 19.7487 56.9603 19.5241 56.7333C18.57 55.7792 18.6821 54.1203 19.7737 53.0287C20.0357 52.7687 20.3393 52.5561 20.6673 52.4028C20.9953 52.2496 21.3412 52.1587 21.6853 52.1354C22.0294 52.1122 22.3649 52.157 22.6727 52.2672C22.9806 52.3775 23.2546 52.5511 23.4793 52.7781ZM19.4281 61.3058C19.6787 61.554 19.8051 61.9069 19.7794 62.287C19.7537 62.667 19.5781 63.0431 19.2911 63.3325C18.694 63.9297 17.7859 63.991 17.2644 63.4695C16.7429 62.948 16.8042 62.0399 17.4014 61.4427C17.9985 60.8456 18.9066 60.7843 19.4281 61.3058ZM30.4301 46.7127C32.8107 44.3321 36.4264 44.0881 38.5062 46.1679C40.5853 48.247 40.3412 51.8626 37.9606 54.2432C35.58 56.6238 31.9643 56.8679 29.8853 54.7888C27.8054 52.709 28.0495 49.0934 30.4301 46.7127ZM44.5517 49.5141C44.602 49.1949 46.2366 38.8933 54.769 28.1559C59.3116 22.4405 70.5883 10.6447 76.3467 4.69006C76.0639 5.05586 75.7899 5.42776 75.525 5.80535C74.9631 6.54492 74.4774 7.33034 73.9688 8.10169C73.0051 9.66951 72.1199 11.2872 71.3938 12.9605C70.6752 14.6312 70.0785 16.3364 69.6089 18.0613C69.1399 19.7881 68.817 21.5218 68.5673 23.2502C68.3136 24.9888 68.1779 26.6991 68.004 28.3996C67.9237 29.2528 67.8335 30.1064 67.7333 30.9603C67.6302 31.8159 67.5539 32.6679 67.4336 33.5206C67.011 36.9363 66.4832 40.352 65.7004 43.7431C64.9078 47.1316 63.7911 50.4904 62.2595 53.7201C60.7015 56.9377 58.7889 60.0184 56.7888 63.0384C58.8612 60.0621 60.853 57.0195 62.4973 53.8115C64.1194 50.5885 65.3317 47.2145 66.2212 43.8033C67.9793 36.9816 68.6912 30.058 69.6064 23.2681C69.8807 21.5768 70.2252 19.888 70.706 18.2282C71.1887 16.5696 71.7929 14.9323 72.5135 13.3303C73.2374 11.7334 74.1134 10.1976 75.0621 8.69876C75.5648 7.96429 76.0458 7.22061 76.5951 6.5184C77.1168 5.7958 77.6881 5.10856 78.2564 4.41823C78.2993 4.36295 78.3444 4.31166 78.3904 4.25947C77.126 7.28853 75.7703 12.7668 76.3106 17.3024C77.2631 25.3012 78.3615 32.9872 76.2899 41.3075C71.9904 58.5434 54.1812 70.4639 54.1812 70.4639C54.1812 70.4639 50.4355 56.9189 56.2882 39.2671C60.309 27.1387 66.2426 20.0168 66.2426 20.0168C66.2426 20.0168 60.6345 23.9454 53.5268 32.4514C48.1336 38.9015 44.6612 49.1898 44.5517 49.5141Z" fill="#E86851" fill-opacity="0.2"/>
</svg>
