<svg width="64" height="64" viewBox="0 0 64 64" fill="none" xmlns="http://www.w3.org/2000/svg">
<path fill-rule="evenodd" clip-rule="evenodd" d="M31.5977 8.12714C31.5055 8.197 31.3895 8.39587 31.3398 8.56886C31.288 8.74973 31.2496 10.6953 31.2496 13.1444C31.2496 17.8564 31.2482 17.8704 30.6202 19.4298C29.9513 21.091 28.8083 22.8096 27.4134 24.2514C26.4888 25.2073 25.5743 25.9173 24.3233 26.6506C23.2471 27.2814 22.4888 28.0594 22.0178 29.0161C21.5122 30.0429 21.3754 30.8437 21.4283 32.4662C21.4527 33.214 21.4884 33.8891 21.5077 33.9664C21.5357 34.0782 21.4081 34.1169 20.8864 34.1552C20.186 34.2066 19.9756 34.2887 19.6482 34.6389C19.2014 35.1167 19.1514 35.4156 19.1514 37.6074V39.6603L18.4373 39.7755C17.8298 39.8734 17.3776 40.0626 15.4111 41.0418C12.1173 42.682 12.0662 42.6983 10.0224 42.7691C8.41113 42.8249 8.34286 42.8352 8.1702 43.0484C7.93593 43.3378 7.94343 43.632 8.19318 43.9496L8.39547 44.2066L10.0923 44.1604C11.2529 44.1289 11.9672 44.0653 12.352 43.9594C12.6615 43.8741 14.0753 43.2345 15.4938 42.5378C18.4016 41.1097 18.8535 40.9696 19.9181 41.1664C20.4771 41.2698 21.5973 41.7525 22.0118 42.0686C22.1855 42.201 22.1497 42.2119 21.5298 42.2146C20.6942 42.2184 20.4268 42.3896 20.4268 42.9208C20.4268 43.1759 20.4867 43.3217 20.6436 43.4486C20.8438 43.6107 21.0603 43.6241 23.4852 43.6241C25.6762 43.6241 26.1613 43.6483 26.4203 43.7713C27.0581 44.0738 27.0581 44.862 26.4203 45.1646C26.1613 45.2875 25.6762 45.3118 23.4852 45.3118C21.0603 45.3118 20.8438 45.3252 20.6436 45.4872C20.3758 45.704 20.3462 46.2651 20.5895 46.5086C20.7368 46.656 21.1053 46.6758 24.4983 46.7183L28.2445 46.7651L28.4965 47.0173C28.833 47.3539 28.833 47.7704 28.4965 48.107L28.2445 48.3591L24.4983 48.406C21.1053 48.4485 20.7368 48.4682 20.5895 48.6156C20.3462 48.8591 20.3758 49.4202 20.6436 49.637C20.8414 49.7972 21.05 49.8124 23.04 49.8124C25.1563 49.8124 25.2289 49.8187 25.5383 50.0272C25.8202 50.2171 25.857 50.2896 25.857 50.6563C25.857 51.023 25.8202 51.0955 25.5383 51.2855C25.2289 51.4939 25.1563 51.5002 23.04 51.5002C21.05 51.5002 20.8414 51.5155 20.6436 51.6756C20.3424 51.9194 20.3424 52.4874 20.6436 52.7312C20.8348 52.886 21.0339 52.9066 22.3366 52.9066C23.7198 52.9066 23.8329 52.9201 24.1315 53.1213C24.4134 53.3113 24.4502 53.3838 24.4502 53.7505C24.4502 54.1193 24.414 54.1895 24.122 54.3875L23.7937 54.61L20.5112 54.5688C18.6006 54.5448 16.8103 54.4751 16.2275 54.4021C15.4589 54.3058 15.1708 54.3019 14.9875 54.3855C14.5682 54.5765 14.5432 55.3244 14.9487 55.5415C15.4309 55.7995 16.9083 55.9169 20.3359 55.9697C23.488 56.0183 23.8648 56.0079 24.311 55.8597C24.8895 55.6676 25.4651 55.1803 25.7324 54.6564C25.9445 54.2409 25.9923 53.3408 25.8195 53.0179C25.6795 52.7564 25.6829 52.7478 25.9531 52.68C26.2846 52.5968 26.9131 52.0054 27.1377 51.5653C27.3271 51.1941 27.396 50.4166 27.2737 50.0312C27.2167 49.8517 27.2577 49.8347 27.8477 49.7924C28.6326 49.736 29.1333 49.4923 29.6354 48.9221C30.7401 47.6673 30.0984 45.9263 28.3273 45.3728C28.194 45.3312 28.1855 45.2692 28.2678 44.9448C28.5742 43.7381 27.6029 42.4346 26.263 42.2544L25.8249 42.1954L25.794 41.026C25.7651 39.9286 25.7496 39.8455 25.5418 39.6775C25.2418 39.435 24.8561 39.4507 24.6072 39.7154C24.4242 39.9103 24.4033 40.0348 24.4033 40.9316V41.9308L23.4848 41.3348C22.5044 40.6987 21.2405 40.0347 20.8143 39.9318L20.5547 39.8691L20.5798 37.7382L20.605 35.6073H22.4807H24.3564L24.3828 36.7045C24.4082 37.7604 24.4184 37.809 24.6533 37.9938C24.9586 38.2338 25.2556 38.2381 25.5418 38.0067C25.7467 37.841 25.7656 37.7489 25.7955 36.7677C25.8313 35.5903 25.7416 35.1538 25.3744 34.7174C24.9951 34.2668 24.6885 34.154 23.8429 34.154C23.1044 34.154 23.0831 34.1476 22.9826 33.8961C22.8242 33.5003 22.7673 31.3834 22.8981 30.7538C23.1667 29.4611 23.9462 28.4291 25.131 27.7977C27.6517 26.4544 30.445 23.3507 31.6764 20.5249C31.8257 20.1823 31.9713 19.9019 31.9999 19.9019C32.0285 19.9019 32.174 20.1823 32.3233 20.5249C33.5595 23.3616 36.3404 26.4504 38.8739 27.8005C40.0535 28.429 40.8336 29.4633 41.1017 30.7538C41.2324 31.3834 41.1756 33.5003 41.0172 33.8961C40.9167 34.1476 40.8954 34.154 40.1568 34.154C39.3536 34.154 39.0437 34.2561 38.6865 34.6386C38.2087 35.1502 38.1897 35.3124 38.1897 38.8739V42.1934L37.7442 42.2533C36.397 42.4346 35.4247 43.7349 35.732 44.9448C35.8143 45.2692 35.8058 45.3312 35.6725 45.3728C35.1206 45.5453 34.7492 45.7776 34.3939 46.1726C33.6263 47.0263 33.615 48.071 34.3644 48.9221C34.8665 49.4923 35.3671 49.736 36.1521 49.7924C36.7421 49.8347 36.7831 49.8517 36.7261 50.0312C36.6038 50.4166 36.6727 51.1941 36.8621 51.5653C37.0867 52.0054 37.7151 52.5968 38.0467 52.68C38.3168 52.7478 38.3202 52.7564 38.1803 53.0179C38.0212 53.3151 38.0546 54.2415 38.2375 54.6043C38.5019 55.1288 39.0368 55.6135 39.5727 55.8139C40.0309 55.9853 40.3039 56.0007 42.859 56C44.3916 55.9996 46.1191 55.9573 46.6977 55.9061C48.5032 55.7463 55.4757 54.6896 55.7025 54.5414C56.1211 54.2678 56.0651 53.5763 55.6073 53.3678C55.4406 53.2918 54.5051 53.3994 51.5498 53.8342C46.6549 54.5544 46.2032 54.5942 42.9162 54.5943C40.227 54.5944 40.1822 54.5912 39.8682 54.3797C39.5863 54.1897 39.5496 54.1172 39.5496 53.7505C39.5496 53.3838 39.5863 53.3113 39.8682 53.1213C40.1668 52.9201 40.2799 52.9066 41.6632 52.9066C42.9659 52.9066 43.165 52.886 43.3562 52.7312C43.6573 52.4874 43.6573 51.9194 43.3562 51.6756C43.1584 51.5155 42.9497 51.5002 40.9598 51.5002C38.8434 51.5002 38.7709 51.4939 38.4615 51.2855C38.1795 51.0955 38.1428 51.023 38.1428 50.6563C38.1428 50.2896 38.1795 50.2171 38.4615 50.0272C38.7709 49.8187 38.8434 49.8124 40.9598 49.8124C42.9497 49.8124 43.1584 49.7972 43.3562 49.637C43.6239 49.4202 43.6536 48.8591 43.4103 48.6156C43.263 48.4682 42.8945 48.4485 39.5014 48.406L35.7553 48.3591L35.5032 48.107C35.1667 47.7704 35.1667 47.3539 35.5032 47.0173L35.7553 46.7651L39.5014 46.7183C42.8945 46.6758 43.263 46.656 43.4103 46.5086C43.6536 46.2651 43.6239 45.704 43.3562 45.4872C43.156 45.3252 42.9395 45.3118 40.5146 45.3118C37.6201 45.3118 37.374 45.2705 37.1581 44.7496C37.0221 44.4212 37.0876 44.1918 37.4015 43.8967C37.6417 43.6709 37.642 43.6709 40.4447 43.6241C43.5848 43.5716 43.5729 43.5743 43.5729 42.9101C43.5729 42.3906 43.2997 42.2184 42.4699 42.2146C41.8491 42.2119 41.814 42.2012 41.988 42.0679C42.3975 41.754 43.5799 41.2555 44.1441 41.1589C45.0234 41.0083 45.7032 41.166 47.0826 41.8402C48.5045 42.5353 48.7485 42.5583 49.025 42.024C49.1976 41.6903 49.0914 41.3756 48.7158 41.1083C48.0917 40.664 46.3829 39.9379 45.6221 39.7936L44.8484 39.647V37.6007C44.8484 35.4161 44.7981 35.1164 44.3515 34.6389C44.0241 34.2887 43.8138 34.2066 43.1134 34.1552C42.5917 34.1169 42.4641 34.0782 42.4921 33.9664C42.5114 33.8891 42.5471 33.214 42.5715 32.4662C42.6048 31.4439 42.579 30.9323 42.4673 30.4034C42.1467 28.8855 41.2262 27.5912 39.892 26.7822C38.427 25.8941 37.8398 25.4614 36.981 24.6376C35.4422 23.1615 34.1385 21.284 33.4063 19.4896C32.7498 17.8804 32.7502 17.8843 32.7502 13.1444C32.7502 10.6953 32.7118 8.74973 32.6599 8.56886C32.5533 8.19737 32.3243 8 31.9999 8C31.8709 8 31.69 8.0572 31.5977 8.12714ZM43.42 37.7355L43.4451 39.8638L43.1147 39.955C42.6755 40.0762 41.3755 40.7727 40.3913 41.4142L39.5964 41.9321V38.8088C39.5964 37.0909 39.6254 35.6564 39.6609 35.621C39.6963 35.5855 40.551 35.568 41.56 35.5819L43.3947 35.6073L43.42 37.7355ZM50.9444 42.3779C50.5374 42.5275 50.3659 42.9482 50.5337 43.3854C50.7121 43.8501 52.2253 44.1851 54.1497 44.186L55.62 44.1866L55.8144 43.9396C56.0567 43.6317 56.0618 43.3352 55.8296 43.0484C55.6574 42.8357 55.5867 42.8248 54.0242 42.7699C52.7314 42.7244 52.2731 42.6718 51.7885 42.5132C51.131 42.2982 51.1521 42.3015 50.9444 42.3779ZM8.22122 53.5119C7.93255 53.8004 7.92683 54.1637 8.20649 54.4432C8.4313 54.6681 8.73188 54.7293 11.5314 55.1203C12.8013 55.2977 13.0663 55.2538 13.2575 54.8344C13.4007 54.5201 13.2139 54.0793 12.8832 53.9508C12.6641 53.8656 8.89225 53.2796 8.57291 53.2811C8.50604 53.2814 8.34783 53.3853 8.22122 53.5119Z" fill="#E86851"/>
</svg>
