<svg width="64" height="64" viewBox="0 0 64 64" fill="none" xmlns="http://www.w3.org/2000/svg">
<path fill-rule="evenodd" clip-rule="evenodd" d="M26.6294 8.17057C26.248 8.27316 25.6953 8.49251 25.401 8.65784C24.2608 9.29889 23.1989 10.7069 22.926 11.9396C22.7635 12.6735 22.8551 14.1483 23.1132 14.9537C23.3559 15.7113 23.6959 15.9991 24.252 15.9181C24.9453 15.817 25.1663 15.1982 24.8574 14.2225C24.6186 13.4681 24.653 12.4231 24.9364 11.8196C25.2708 11.1078 25.7487 10.6032 26.4416 10.2304C27.004 9.92776 27.0925 9.90882 27.937 9.91022C28.9614 9.91182 29.3491 10.0524 30.1567 10.7147C30.8963 11.3213 31.2972 11.4898 32 11.4898C32.7028 11.4898 33.1037 11.3213 33.8433 10.7147C34.5396 10.1436 35.0547 9.9332 35.874 9.88509C37.0484 9.81617 38.0977 10.3289 38.7699 11.3001C39.5419 12.4157 39.4924 13.7318 38.6111 15.5353C37.5417 17.7233 34.9306 20.3877 32.6378 21.6305L32 21.9763L31.3653 21.63C31.0163 21.4396 30.4991 21.1192 30.2161 20.9181C29.4681 20.3865 28.853 20.4502 28.5466 21.0909C28.2986 21.6096 28.4989 21.9935 29.3105 22.555C30.2361 23.1953 31.5788 23.8346 31.9981 23.8346C32.9491 23.8346 35.3951 22.2392 37.2458 20.4117C40.8329 16.8699 42.0527 13.1964 40.5155 10.5652C39.3932 8.64443 37.1466 7.64392 35.0151 8.11581C34.0933 8.31986 33.5015 8.60251 32.764 9.19077C32.4307 9.45672 32.0825 9.67428 31.9903 9.67428C31.898 9.67428 31.627 9.50633 31.388 9.30105C30.0582 8.15876 28.2603 7.7316 26.6294 8.17057ZM25.8687 17.7715C25.024 18.2535 25.3951 19.5208 26.3809 19.5208C26.5076 19.5208 26.7491 19.3986 26.9176 19.2491C27.5138 18.7205 27.2202 17.7993 26.4201 17.688C26.2339 17.662 25.9978 17.6978 25.8687 17.7715ZM19.4586 25.9057C18.227 26.293 17.0692 27.3753 16.5904 28.5868C16.4024 29.0625 16.3694 29.3444 16.335 30.7739C16.2944 32.4588 16.3698 33.1142 16.6784 33.7565C16.8225 34.0562 16.8207 34.0772 16.6433 34.1744C16.283 34.3722 15.2495 35.4217 14.8667 35.9787C14.4054 36.6498 13.8854 37.8003 13.8057 38.326C13.7524 38.6778 13.7068 38.7255 13.1443 39.0149C12.0723 39.5666 11.1078 40.7927 10.8404 41.944C10.7878 42.1703 10.7449 43.0729 10.7449 43.9497C10.7451 45.391 10.7669 45.6068 10.9732 46.2003L11.2013 46.8568L10.9471 47.0367C10.3964 47.4265 9.4331 48.4844 9.05855 49.1108C8.25975 50.4464 8 51.6202 8 53.894V55.3623L8.32126 55.6812L8.64252 56H32H55.3575L55.6787 55.6812L56 55.3623V53.894C56 51.6306 55.7393 50.4443 54.9536 49.1316C54.5848 48.5156 53.5785 47.4058 53.0529 47.0358L52.7987 46.8568L53.0268 46.2003C53.2331 45.6068 53.2549 45.391 53.2551 43.9497C53.2551 43.0729 53.2122 42.1703 53.1596 41.944C52.8922 40.7927 51.9277 39.5666 50.8557 39.0149C50.2932 38.7255 50.2476 38.6778 50.1943 38.326C50.1144 37.7992 49.5948 36.6505 49.1278 35.9684C48.912 35.6533 48.3898 35.0768 47.9673 34.6873C47.1997 33.9795 47.1992 33.9788 47.3366 33.7128C47.6258 33.1526 47.7053 32.442 47.665 30.7739C47.6192 28.8703 47.5014 28.4427 46.7543 27.4664C45.4011 25.6979 42.8686 25.1828 40.9208 26.2797C39.8621 26.876 38.9594 28.1217 38.7052 29.3374C38.6333 29.6811 38.6084 30.428 38.6358 31.4251C38.6721 32.7496 38.7098 33.0582 38.8923 33.5249L39.1061 34.0719L38.8837 34.2238C38.7615 34.3074 38.417 34.6057 38.1181 34.8867L37.5748 35.3976L37.0315 34.8867C36.7326 34.6057 36.3881 34.3074 36.2659 34.2238L36.0435 34.0719L36.2591 33.5249C36.4441 33.0559 36.4805 32.7586 36.5151 31.4421C36.5407 30.465 36.5141 29.6976 36.442 29.3321C36.022 27.205 34.1887 25.7101 32 25.7101C29.8203 25.7101 27.9695 27.2189 27.5568 29.3321C27.4861 29.694 27.4596 30.4747 27.4849 31.4421C27.5195 32.7586 27.5559 33.0559 27.7408 33.5249L27.9565 34.0719L27.7341 34.2238C27.6119 34.3074 27.2675 34.6056 26.9689 34.8863L26.426 35.397L25.9295 34.9356C25.6564 34.6817 25.3125 34.3817 25.1651 34.2687L24.8971 34.0635L25.1094 33.5206C25.2899 33.0589 25.328 32.7459 25.3642 31.4251C25.4133 29.6337 25.3305 29.0951 24.8632 28.1681C24.3047 27.0599 23.354 26.2522 22.1869 25.8943C21.3938 25.651 20.2534 25.6558 19.4586 25.9057ZM22.0012 27.807C22.4624 28.031 22.9763 28.5364 23.2357 29.021C23.4223 29.3696 23.45 29.5819 23.4793 30.8893C23.5208 32.7303 23.4183 33.1141 22.6924 33.8345C21.9505 34.5708 20.9557 34.8029 19.9701 34.4696C19.3641 34.2646 18.657 33.6115 18.4004 33.0193C18.2089 32.5775 18.1948 32.4166 18.2222 30.977C18.2556 29.228 18.33 28.9617 18.9616 28.3349C19.5504 27.7505 20.0267 27.5715 20.8976 27.6072C21.3776 27.6269 21.7804 27.6999 22.0012 27.807ZM32.915 27.71C33.5439 27.9401 34.0428 28.3875 34.3494 28.9963C34.6424 29.5783 34.6457 29.6008 34.6457 31.0068C34.6457 32.764 34.5385 33.1432 33.8487 33.8279C32.5763 35.0907 30.5961 34.8069 29.6608 33.2278C29.4104 32.8051 29.4005 32.7367 29.3698 31.2097L29.3381 29.6292L29.6403 29.0201C30.1149 28.0632 30.8846 27.5999 32 27.5999C32.3378 27.5999 32.7496 27.6494 32.915 27.71ZM44.2514 27.7669C44.7372 27.9858 45.3156 28.5485 45.5622 29.0423C45.72 29.358 45.7526 29.6505 45.7778 30.977C45.8052 32.4166 45.7911 32.5775 45.5996 33.0193C45.343 33.6115 44.6359 34.2646 44.0299 34.4696C43.0455 34.8025 42.0493 34.5707 41.3097 33.8367C40.6198 33.1519 40.5038 32.7591 40.5045 31.109C40.5048 30.3832 40.5477 29.6369 40.5998 29.4506C40.8015 28.73 41.5376 27.95 42.252 27.6998C42.7317 27.5317 43.8099 27.5679 44.2514 27.7669ZM18.6031 35.8806C19.2483 36.2324 20.1884 36.4909 20.8318 36.493C21.5036 36.4954 22.4999 36.2222 23.0764 35.8776C23.4378 35.6617 23.6825 35.573 23.8081 35.6126C24.2073 35.7383 25.2567 36.9144 25.6191 37.6423C25.8141 38.0339 25.9488 38.3944 25.9183 38.4432C25.8878 38.4922 25.6919 38.555 25.4829 38.5828C24.368 38.7312 22.9871 39.7816 22.4151 40.9162C21.9457 41.8474 21.8657 42.371 21.9102 44.2192C21.9437 45.6152 21.9765 45.8918 22.1609 46.3344L22.3729 46.8437L22.0605 47.0826C21.8886 47.214 21.5348 47.5196 21.2742 47.7617L20.8003 48.2021L20.471 47.8531C20.2899 47.6612 19.9555 47.3544 19.728 47.1714L19.3142 46.8386L19.5302 46.285C19.7139 45.8142 19.7527 45.5047 19.7896 44.214C19.8418 42.3849 19.7063 41.6201 19.1706 40.7197C18.5453 39.6688 17.2336 38.718 16.2234 38.5835C16.0049 38.5544 15.805 38.4758 15.7791 38.4088C15.6776 38.1465 16.4428 36.9208 17.1351 36.2365C17.5134 35.8626 17.8649 35.5567 17.9162 35.5567C17.9674 35.5567 18.2764 35.7024 18.6031 35.8806ZM29.4386 35.6851C29.6283 35.912 30.6207 36.2979 31.3205 36.417C32.2729 36.579 33.1326 36.4272 34.1423 35.9185L34.9145 35.5295L35.2762 35.8161C35.6824 36.1381 36.1532 36.624 36.3636 36.9383C36.49 37.1271 36.4823 37.2098 36.2858 37.7823C36.1659 38.1313 36.0668 38.4819 36.0654 38.5615C36.064 38.6427 35.8301 38.8193 35.5311 38.9649C34.7685 39.3362 33.9536 40.1447 33.5647 40.9162C33.0975 41.8432 33.0149 42.3755 33.0594 44.1731C33.0918 45.4809 33.1313 45.8215 33.3052 46.2916L33.5123 46.8516L33.205 47.0836C33.036 47.2111 32.6923 47.5155 32.4414 47.76L31.9852 48.2044L31.5911 47.8064C31.3742 47.5875 31.0328 47.2779 30.8322 47.1183L30.4677 46.8284L30.6842 46.2798C30.8708 45.8069 30.906 45.517 30.9398 44.1731C30.9852 42.3755 30.9029 41.8439 30.4353 40.9162C30.0464 40.1447 29.2315 39.3362 28.4689 38.9649C28.1699 38.8193 27.936 38.6427 27.9346 38.5615C27.9332 38.4819 27.8334 38.1294 27.7128 37.7781L27.4935 37.1393L27.7496 36.7884C28.0861 36.3275 28.9786 35.5567 29.1757 35.5567C29.2613 35.5567 29.3796 35.6144 29.4386 35.6851ZM40.772 35.7921C42.0888 36.6569 43.898 36.6862 45.4255 35.8673L46.0608 35.5268L46.4443 35.8282C46.6552 35.994 46.9941 36.3173 47.1975 36.5465C47.6325 37.0369 48.2888 38.2331 48.2202 38.4105C48.194 38.4784 47.9855 38.5618 47.7569 38.5959C46.2205 38.8245 44.696 40.3371 44.3225 42.0036C44.0865 43.0565 44.1712 45.5199 44.4698 46.285L44.6858 46.8386L44.272 47.1714C44.0445 47.3544 43.7101 47.6612 43.529 47.8531L43.1997 48.2021L42.7258 47.7617C42.4652 47.5196 42.1114 47.214 41.9395 47.0826L41.6271 46.8437L41.8392 46.3344C42.0235 45.8918 42.0563 45.6152 42.0898 44.2192C42.1343 42.371 42.0543 41.8474 41.5849 40.9162C41.0129 39.7816 39.632 38.7312 38.5171 38.5828C38.3081 38.555 38.114 38.4952 38.0858 38.4499C38.0056 38.321 38.4888 37.3492 38.9053 36.8016C39.2688 36.3239 40.1439 35.5567 40.3254 35.5567C40.3739 35.5567 40.5748 35.6626 40.772 35.7921ZM16.1792 40.4965C16.8037 40.7076 17.5501 41.4485 17.7629 42.0682C17.882 42.4151 17.9213 42.8618 17.9213 43.8691C17.9213 45.5207 17.7757 46.0057 17.0888 46.6434C16.4815 47.2072 15.9337 47.4049 15.1151 47.3555C14.3684 47.3104 13.8633 47.0962 13.3858 46.6223C12.7574 45.9986 12.6808 45.7271 12.6469 44.0037C12.6121 42.222 12.6938 41.8843 13.3248 41.205C14.0847 40.3868 15.1056 40.1334 16.1792 40.4965ZM27.3288 40.4965C27.9725 40.7142 28.7054 41.4525 28.923 42.1026C29.0583 42.507 29.0815 42.8548 29.0541 44.0689C29.0249 45.3699 28.9965 45.5897 28.8134 45.9316C28.3233 46.8468 27.4433 47.3748 26.4252 47.3645C25.302 47.3531 24.5383 46.8915 24.0654 45.938L23.7633 45.329L23.7959 43.7484C23.8248 42.345 23.8513 42.1259 24.0322 41.7928C24.6758 40.6078 26.0546 40.0655 27.3288 40.4965ZM38.4503 40.487C38.9898 40.6694 39.6873 41.2657 39.9637 41.7808C40.1493 42.1266 40.175 42.3366 40.2041 43.7484L40.2367 45.329L39.9346 45.938C39.4617 46.8915 38.698 47.3531 37.5748 47.3645C36.5567 47.3748 35.6767 46.8468 35.1866 45.9316C35.0035 45.5897 34.9751 45.3699 34.9459 44.0689C34.9045 42.2323 35.0077 41.8433 35.7257 41.1308C36.4759 40.3862 37.4627 40.153 38.4503 40.487ZM49.9098 40.5979C50.419 40.8569 51.0191 41.5175 51.2202 42.0399C51.4641 42.6739 51.4061 45.3773 51.137 45.9159C50.898 46.3943 50.3781 46.9082 49.9024 47.1367C49.3645 47.3949 48.3579 47.4382 47.8009 47.227C47.1618 46.9848 46.5037 46.3356 46.2707 45.7178C46.0124 45.0328 45.9917 42.7829 46.2371 42.0682C46.4386 41.4812 47.1977 40.709 47.7821 40.4965C48.3566 40.2875 49.3973 40.3371 49.9098 40.5979ZM12.8865 48.5956C14.2926 49.4827 16.3264 49.457 17.7312 48.5343L18.1083 48.2866L18.4449 48.5414C18.8925 48.8803 19.6116 49.6302 19.673 49.8224C19.7001 49.9069 19.6117 50.3503 19.4767 50.8078C19.2909 51.4374 19.2178 51.9412 19.1763 52.8819L19.1213 54.1245H14.5055H9.88976L9.89118 53.1633C9.89335 51.6394 10.2048 50.6586 11.0375 49.5523C11.3409 49.1492 12.2605 48.3103 12.3989 48.3103C12.4185 48.3103 12.6379 48.4387 12.8865 48.5956ZM24.0361 48.595C25.4172 49.4647 27.3689 49.4669 28.7881 48.6002L29.2731 48.3039L29.7431 48.6464C30.0016 48.8347 30.373 49.197 30.5686 49.4515L30.9241 49.9142L30.7132 50.5423C30.4564 51.3068 30.2992 52.3854 30.2992 53.381V54.1245H25.6567H21.0143L21.064 52.9288C21.1283 51.3851 21.381 50.6257 22.1877 49.5523C22.4905 49.1493 23.4099 48.3103 23.5485 48.3103C23.5681 48.3103 23.7875 48.4384 24.0361 48.595ZM35.2171 48.6033C36.6341 49.4685 38.5848 49.4635 39.9706 48.5907C40.418 48.3091 40.4358 48.3059 40.6793 48.4628C41.1611 48.7733 41.9714 49.6807 42.278 50.2527C42.7274 51.0918 42.9606 52.0992 42.9606 53.2017V54.1245H37.5748H32.189L32.1906 53.257C32.1944 51.2705 32.8972 49.6815 34.2167 48.6762C34.4786 48.4767 34.7029 48.3126 34.7151 48.3118C34.7273 48.311 34.9532 48.4422 35.2171 48.6033ZM46.286 48.5433C46.9153 48.9679 47.5858 49.1741 48.5015 49.2247C49.5093 49.2805 50.3505 49.0769 51.1215 48.5905L51.5815 48.3003L51.9582 48.5593C52.8339 49.1616 53.6957 50.4684 53.965 51.6022C54.0433 51.9321 54.1081 52.6346 54.1088 53.1633L54.1102 54.1245H49.4945H44.8787L44.8237 52.8819C44.7824 51.9457 44.7089 51.4367 44.5261 50.8174C44.3927 50.3653 44.2835 49.9597 44.2835 49.916C44.2835 49.698 45.6726 48.3103 45.8908 48.3103C45.9181 48.3103 46.0958 48.4151 46.286 48.5433Z" fill="#8BC1AC"/>
</svg>
