<svg width="64" height="64" viewBox="0 0 64 64" fill="none" xmlns="http://www.w3.org/2000/svg">
<path fill-rule="evenodd" clip-rule="evenodd" d="M30.1822 8.02792C30.0016 8.04893 29.4528 8.11189 28.9626 8.1679C21.5388 9.01565 14.6797 13.6689 10.9156 20.4113C9.54099 22.8735 8.54434 25.9329 8.12131 28.9888C7.95956 30.1572 7.95956 33.8249 8.12131 34.9933C8.885 40.51 11.2226 45.2227 15.0892 49.041C19.1918 53.0922 24.2104 55.4093 29.9946 55.9228C33.7148 56.2529 38.2289 55.5075 41.5345 54.0171C43.5086 53.1269 43.6923 53.0045 43.6923 52.5791C43.6923 52.2236 43.3575 51.7871 43.0848 51.7871C43.0041 51.7871 42.5695 51.9718 42.119 52.1975C39.5036 53.5082 36.6088 54.2956 33.4425 54.5576L32.7154 54.6177V51.191V47.7644L33.1141 47.7152C35.8556 47.3775 37.1047 47.0273 39.0317 46.0559C40.0597 45.5377 40.9903 44.9331 41.9629 44.1515L42.6134 43.6288L45.0323 46.0427L47.4511 48.4565L47.0911 48.7848C46.8931 48.9654 46.5329 49.2869 46.2907 49.4992C45.7704 49.955 45.7065 50.3059 46.0799 50.6566C46.5343 51.0836 46.7919 50.9649 48.1834 49.6875C57.5304 41.1059 58.6138 26.7945 50.6631 16.9329C46.8248 12.1722 41.521 9.15179 35.3423 8.20805C34.407 8.06516 30.9121 7.9432 30.1822 8.02792ZM31.2143 12.7991V16.2177L30.8155 16.2669C28.5517 16.5457 27.5578 16.7821 26.0473 17.4007C24.5357 18.0198 23.0608 18.9042 21.8329 19.9278L21.3176 20.3574L18.896 17.9415L16.4744 15.5256L16.9251 15.1189C19.463 12.8285 22.9002 10.9772 26.1723 10.1384C27.6966 9.74764 29.6007 9.44807 30.9093 9.39319L31.2143 9.38043V12.7991ZM35.1849 9.62492C39.4782 10.2446 43.3093 11.9766 46.6524 14.8095L47.4681 15.5008L45.8213 17.155C44.9155 18.0649 44.1666 18.8727 44.1568 18.9501C44.0942 19.4489 44.3741 19.7944 44.8407 19.7944C45.1093 19.7944 45.3369 19.6024 46.7975 18.1435L48.4503 16.4926L49.1439 17.3064C52.33 21.0447 54.3231 25.9525 54.4979 30.4899L54.5285 31.2874L51.1345 31.312L47.7404 31.3367L47.6831 30.796C47.5658 29.6888 47.3443 28.4836 47.1042 27.6465C45.9001 23.4478 42.9277 19.8726 39.0141 17.916C37.0789 16.9484 35.8432 16.603 33.1141 16.2669L32.7154 16.2177V12.7927V9.36757L33.4894 9.42968C33.9152 9.46393 34.6781 9.55174 35.1849 9.62492ZM20.2113 21.4785C20.1498 21.5585 19.9258 21.835 19.7134 22.093C18.2433 23.8792 16.9868 26.5183 16.5423 28.7543C16.4216 29.3615 16.2072 30.9516 16.2038 31.2651C16.2034 31.3045 14.6727 31.3256 12.8021 31.312L9.40111 31.2874L9.42456 30.5837C9.47767 28.9887 9.90802 26.6851 10.4758 24.9561C11.3904 22.1709 12.8543 19.5726 14.7859 17.3063L15.4796 16.4924L17.9013 18.9126C19.9443 20.9545 20.3055 21.3558 20.2113 21.4785ZM34.7105 17.9137C40.5314 19.0625 45.0007 23.6118 46.0977 29.5048C46.3387 30.7992 46.3387 33.1829 46.0977 34.4773C44.9839 40.4606 40.4343 45.0102 34.4511 46.1239C33.0585 46.3832 30.6785 46.363 29.2595 46.0799C24.1994 45.0703 20.0959 41.5188 18.4173 36.6963C17.852 35.0725 17.662 33.8841 17.6646 31.991C17.6672 30.0702 17.8143 29.1133 18.3587 27.4772C19.7695 23.2362 23.0471 19.9098 27.2596 18.4435C28.1002 18.1509 29.5637 17.8187 30.5575 17.6949C31.3563 17.5953 33.7315 17.7205 34.7105 17.9137ZM29.8974 24.0432C28.1975 24.859 27.8717 25.0482 27.7961 25.2631C27.6767 25.6029 27.8204 25.9908 28.1304 26.1648C28.4183 26.3264 28.5636 26.273 30.6651 25.2324L31.9604 24.5911L34.9143 26.0159C36.5389 26.7996 37.8698 27.4619 37.8717 27.4877C37.8737 27.5135 36.5466 28.1752 34.9227 28.9581L31.9701 30.3818L28.3009 28.6063C26.1082 27.5454 24.5214 26.8309 24.3578 26.8309C24.2071 26.8309 23.9995 26.9154 23.8963 27.0186C23.7135 27.2014 23.7087 27.3313 23.7087 32.0234C23.7087 36.4925 23.7205 36.8513 23.8728 36.988C24.1518 37.2383 31.7158 40.8347 31.9648 40.8354C32.2161 40.836 39.7749 37.2443 40.0542 36.9916C40.2099 36.8506 40.221 36.5193 40.221 31.991C40.221 27.489 40.2093 27.1314 40.0568 26.9997C39.8913 26.8568 32.4582 23.248 32.1012 23.1372C31.9675 23.0958 31.2978 23.3711 29.8974 24.0432ZM28.3198 30.1881L31.2109 31.5689L31.2126 35.2915L31.2143 39.0142L28.1981 37.5667C26.5393 36.7705 25.1672 36.1191 25.149 36.1191C25.1308 36.1191 25.116 34.447 25.116 32.4032C25.116 28.9737 25.128 28.6919 25.2724 28.7473C25.3583 28.7802 26.7297 29.4286 28.3198 30.1881ZM38.8137 32.3989V36.0904L37.4298 36.7541C36.6687 37.1192 35.2966 37.7781 34.3807 38.2184L32.7154 39.0189L32.7186 35.2939L32.7219 31.5689L35.6974 30.1434C37.334 29.3593 38.7046 28.7154 38.7433 28.7126C38.7821 28.7097 38.8137 30.3685 38.8137 32.3989ZM16.2407 33.1403C16.4208 34.6033 16.5271 35.2303 16.7212 35.9766C17.2844 38.1418 18.2926 40.108 19.8043 41.9892L20.3271 42.6396L17.9132 45.0606L15.4994 47.4815L15.0927 47.0308C11.7739 43.3534 9.83381 38.7327 9.39829 33.4687L9.33815 32.7416H12.7648H16.1915L16.2407 33.1403ZM54.5328 33.4218C54.1383 37.7648 53.0316 41.0805 50.8766 44.3753C50.3052 45.2488 48.9561 46.9857 48.6017 47.304C48.4289 47.4592 48.3365 47.3788 46.0125 45.0523L43.6025 42.6396L44.1253 41.9892C45.2235 40.6226 46.0526 39.1998 46.6902 37.5875C47.1892 36.3258 47.4271 35.2665 47.689 33.1403L47.7381 32.7416H51.1663H54.5945L54.5328 33.4218ZM22.0442 44.2181C23.2368 45.1761 24.5433 45.9566 25.9134 46.5297C27.379 47.1426 28.6656 47.4555 30.7686 47.7103L31.2143 47.7644V51.1869V54.6095L30.4872 54.5525C25.3199 54.1475 20.8699 52.3021 17.0649 48.9862L16.4724 48.4699L18.8896 46.0514C20.3685 44.5717 21.3451 43.6622 21.4054 43.7085C21.4595 43.7501 21.747 43.9795 22.0442 44.2181Z" fill="#B4C02A"/>
</svg>
