<svg width="80" height="80" viewBox="0 0 80 80" fill="none" xmlns="http://www.w3.org/2000/svg">
<path fill-rule="evenodd" clip-rule="evenodd" d="M22.4589 14.077C20.6513 14.3217 18.6964 15.2892 17.3028 16.6289C16.0465 17.8368 15.2544 19.1511 14.7196 20.9147L14.433 21.8605L14.4 25.9009L14.367 29.9413L13.8661 30.4709C13.3304 31.0373 12.9998 31.8287 13.0004 32.5433C13.0006 32.7582 13.1633 33.8188 13.362 34.9003C13.6296 36.3571 13.7943 36.99 13.9974 37.3433C14.3484 37.9537 15.0515 38.3857 15.7967 38.4486L16.3475 38.4951L16.4043 39.6926C16.4869 41.4318 16.8674 42.5546 17.9395 44.2228C18.5107 45.1115 22.0943 48.8616 23.1801 49.7069C25.1529 51.2426 27.1144 51.9121 29.2307 51.7724C30.4618 51.6911 31.3196 51.4561 32.4635 50.8868C33.7929 50.2251 34.6142 49.556 36.7498 47.395C40.0162 44.0896 40.9203 42.4614 41.1233 39.5192L41.1955 38.4709H41.5117C42.3682 38.4709 43.2108 37.934 43.5785 37.154C43.8495 36.5792 44.4372 33.4033 44.4358 32.521C44.4346 31.7094 44.1125 30.9415 43.5325 30.3675L43.1294 29.9686L43.157 26.9896C43.1887 23.5422 43.0688 21.9544 42.6819 20.7036C41.6869 17.4864 39.24 15.1349 35.9783 14.2612C35.1315 14.0345 34.8926 14.0255 29.1405 14.0028C25.8623 13.9899 22.8555 14.0232 22.4589 14.077ZM34.7918 15.6865C37.294 16.0412 39.5522 17.6817 40.6695 19.9566C41.4666 21.5793 41.5338 22.0591 41.5349 26.13C41.5357 29.1147 41.5119 29.6709 41.3776 29.8058C41.2906 29.8931 40.9108 30.0817 40.5337 30.2247C40.1565 30.368 39.7649 30.5212 39.6634 30.5653C39.4916 30.6401 39.4787 30.5157 39.4783 28.7796C39.4779 26.7021 39.4034 26.4264 38.7294 26.0086C38.422 25.8181 38.0796 25.8013 33.5856 25.7555C28.3323 25.702 28.2129 25.6894 26.6935 25.0305C25.6243 24.5668 24.6418 23.8657 23.4505 22.7165C22.6758 21.9692 22.3149 21.6948 22.0367 21.6416C21.1494 21.472 19.6212 22.4122 18.8308 23.6139C18.0918 24.7376 18.0311 25.0529 17.9836 28.0155C17.9606 29.4495 17.9265 30.6226 17.9077 30.6226C17.8891 30.6226 17.6197 30.5021 17.3094 30.3549C16.999 30.2077 16.6769 30.0867 16.5936 30.0862C16.5104 30.0855 16.3323 29.9799 16.198 29.8514L15.9539 29.6175V26.1915C15.9539 22.4742 16.0315 21.7334 16.5539 20.4687C17.6072 17.9183 19.9424 16.083 22.6503 15.6774C23.5111 15.5483 33.8726 15.5562 34.7918 15.6865ZM24.0924 25.3859C24.9158 25.9841 26.4981 26.7574 27.4115 27.008C28.4932 27.305 29.9741 27.3916 34.0137 27.3945L37.8848 27.3973L37.9169 29.707L37.9491 32.0166L38.2941 32.3679C38.5881 32.6673 38.7102 32.7176 39.1215 32.7086L39.6041 32.698L39.5577 36.5252C39.5068 40.7141 39.4767 40.9534 38.8356 42.2614C38.6546 42.6306 38.2413 43.2955 37.9172 43.739C37.1824 44.7444 34.1912 47.7951 33.2019 48.5482C30.2351 50.8069 26.9453 50.7269 24.0241 48.3251C23.0193 47.4989 20.0742 44.4683 19.463 43.6314C19.2254 43.3062 18.8616 42.6946 18.6544 42.2723C18.0054 40.9497 17.9615 40.5789 17.9598 36.3993L17.9583 32.6613L18.207 32.7249C18.5404 32.8102 19.1737 32.5284 19.3476 32.2176C19.4519 32.0308 19.5014 31.1541 19.5407 28.7922L19.5934 25.6178L19.9399 24.901C20.2815 24.1945 20.7098 23.7472 21.386 23.391L21.7017 23.2248L22.5464 24.0506C23.011 24.5049 23.7068 25.1057 24.0924 25.3859ZM64.0754 23.7256C62.8533 24.1217 62.5329 24.5591 63.0113 25.1788C63.2812 25.5287 63.6234 25.5431 64.6387 25.2471C65.0444 25.1288 65.3886 25.0321 65.4032 25.0321C65.4179 25.0321 65.4299 25.7799 65.4299 26.694V28.3558L64.7178 28.5704C64.3262 28.6884 61.2287 29.6108 57.8344 30.6202C54.4402 31.6296 51.5788 32.4822 51.4758 32.5147C51.301 32.5701 51.2904 32.4611 51.3175 30.8862L51.3467 29.1983L56.0411 27.8094C58.623 27.0454 60.8542 26.3331 60.9992 26.2263C61.394 25.9356 61.4161 25.3432 61.0434 25.0445C60.8874 24.9194 60.6851 24.8171 60.5937 24.8171C60.2139 24.8171 50.5839 27.7621 50.3062 27.9632C49.7012 28.4012 49.7115 28.2613 49.7115 36.0485C49.7115 39.9826 49.6962 43.2014 49.6776 43.2014C49.6589 43.2014 49.4177 43.1229 49.1417 43.0271C48.7815 42.9021 48.3963 42.8659 47.7778 42.899C47.0517 42.9378 46.8107 43.0023 46.2478 43.3081C45.1809 43.8875 44.5516 44.8191 44.4625 45.9502C44.3643 47.1965 44.9244 48.2277 46.0342 48.8439C46.8211 49.2809 48.1062 49.3527 48.9991 49.0097C49.7951 48.7039 50.6604 47.8975 50.9899 47.1546L51.2412 46.588L51.2939 40.412L51.3467 34.2361L58.0982 32.2203C61.8115 31.1115 64.9803 30.1737 65.1398 30.1362L65.4299 30.068V34.2695C65.4299 36.5802 65.4146 38.4709 65.3959 38.4709C65.3773 38.4709 65.1361 38.3924 64.86 38.2967C64.1002 38.0327 62.8008 38.1324 62.0769 38.51C61.3729 38.8773 60.7915 39.4667 60.4636 40.1456C60.262 40.5631 60.208 40.8453 60.208 41.4812C60.208 42.1748 60.252 42.3684 60.5223 42.8659C61.1302 43.9845 62.2686 44.561 63.6866 44.4682C65.0106 44.3817 66.1472 43.6281 66.7187 42.4581L66.9596 41.965L66.9871 33.3104C67.0178 23.6479 67.0572 24.1895 66.2846 23.6635C65.812 23.3417 65.2076 23.3587 64.0754 23.7256ZM16.3759 34.3059V36.8713L15.9907 36.8378C15.3877 36.7856 15.2573 36.5023 14.8905 34.4477C14.5288 32.421 14.5433 32.0437 15.0001 31.5781L15.2968 31.2758L15.8363 31.5081L16.3759 31.7404V34.3059ZM42.5271 31.6478C42.9415 32.1288 42.9486 32.4788 42.586 34.5318C42.2123 36.6477 42.1083 36.8583 41.4373 36.8583H41.1666V34.2747C41.1666 31.9072 41.182 31.6863 41.3512 31.6348C41.4527 31.6038 41.6545 31.5129 41.7996 31.433C42.1704 31.2283 42.1641 31.2264 42.5271 31.6478ZM64.5 39.8559C64.8878 40.0066 65.3136 40.5063 65.3851 40.895C65.5141 41.5962 65.094 42.2978 64.3011 42.7053C63.912 42.9053 62.9912 42.9349 62.6538 42.7582C61.9802 42.4055 61.6256 41.7356 61.7803 41.1076C61.8704 40.7421 62.4559 40.0829 62.8433 39.9109C63.2105 39.7478 64.1423 39.717 64.5 39.8559ZM48.9838 44.7368C49.7618 45.269 49.9045 46.1563 49.3248 46.8583C48.5179 47.8357 46.7985 47.8693 46.2119 46.9191C45.9423 46.4822 45.9989 45.7313 46.3368 45.2656C46.8884 44.5053 48.2483 44.2336 48.9838 44.7368ZM22.7545 50.938C22.4221 51.0738 22.312 51.2684 22.1921 51.9321C22.0523 52.7061 21.7575 53.2987 21.274 53.7772C20.5589 54.4851 20.1765 54.5917 17.14 54.931C15.4729 55.1174 14.2437 55.3044 14.0636 55.3994C13.6492 55.6177 13.2401 56.1401 13.1102 56.6167C12.9589 57.1722 12.9653 63.9803 13.1177 64.5398C13.2671 65.0879 13.8889 65.7216 14.4267 65.8738C15.0215 66.0421 54.2307 66.0421 54.8255 65.8738C55.3773 65.7176 55.989 65.085 56.1397 64.5143C56.2764 63.9969 56.1479 62.6404 55.8715 61.6824C55.6337 60.8581 54.9613 59.5806 54.3749 58.8387C53.3531 57.5462 51.5484 56.3969 50.0082 56.0582C49.584 55.9648 47.4329 55.694 45.2281 55.4564C38.0678 54.6849 37.6238 54.6273 37.135 54.407C36.1921 53.9819 35.4753 53.0609 35.3124 52.0651C35.1993 51.3737 35.0472 51.0754 34.7419 50.9466C34.3919 50.7988 33.9528 50.9396 33.7886 51.2524C33.4425 51.9116 33.9676 53.6621 34.7897 54.5895L35.1552 55.0018L34.8986 55.173C34.474 55.4567 32.9369 56.0719 32.0851 56.2993C29.6942 56.9375 27.0549 56.8639 24.7118 56.0936C24.0199 55.8661 22.389 55.1417 22.389 55.0618C22.389 55.0379 22.5755 54.7664 22.8035 54.4585C23.0315 54.1506 23.3162 53.6651 23.4363 53.3794C23.7024 52.7463 23.8713 51.7235 23.7593 51.4231C23.605 51.0094 23.1351 50.7825 22.7545 50.938ZM21.6103 56.4732C23.924 57.8035 26.6223 58.4499 29.3515 58.3276C31.619 58.2259 33.3412 57.7604 35.4495 56.6793C36.611 56.0837 36.7831 56.0244 37.0846 56.1162C37.2699 56.1727 40.0326 56.5067 43.2237 56.8586C46.4149 57.2105 49.1682 57.5263 49.3423 57.5606C52.1315 58.1095 54.262 60.4512 54.5653 63.3014C54.6065 63.6882 54.5976 64.0895 54.5457 64.1929C54.4563 64.371 53.4035 64.381 34.6826 64.381C16.8519 64.381 14.8978 64.3645 14.7482 64.2121C14.6044 64.0655 14.5825 63.5835 14.5825 60.5644C14.5825 57.7524 14.6104 57.0573 14.7279 56.9375C14.8258 56.8377 15.6612 56.7067 17.2861 56.5361C18.6132 56.3967 19.9125 56.2241 20.1736 56.1524C20.4347 56.0805 20.6778 56.0158 20.7136 56.0085C20.7496 56.0012 21.1531 56.2103 21.6103 56.4732Z" fill="#E86851"/>
<path fill-rule="evenodd" clip-rule="evenodd" d="M23.3583 33.3994C23.0253 33.752 23 33.8625 23 34.96C23 36.3185 23.1712 36.7105 23.8661 36.9432C24.3992 37.1217 25.158 36.861 25.3911 36.4191C25.8291 35.5887 25.7105 33.9131 25.1755 33.3701C24.678 32.8653 23.8499 32.8787 23.3583 33.3994ZM32.7231 33.4154C32.3531 33.7909 32.3333 33.8693 32.3333 34.9691C32.3333 36.0442 32.3599 36.1575 32.7036 36.5479C33.142 37.0456 33.8296 37.1321 34.3897 36.7596C34.8575 36.4487 35 36.0297 35 34.9661C35 33.5845 34.5935 33.0199 33.5985 33.0199C33.2395 33.0199 33.0112 33.123 32.7231 33.4154Z" fill="#E86851"/>
<path fill-rule="evenodd" clip-rule="evenodd" d="M26.7313 44.8511C24.6209 44.5809 24 44.3343 24 43.7663C24 43.545 24.1178 43.3964 24.4039 43.2567C25.0176 42.957 25.5555 42.9266 26.6429 43.1297C28.2051 43.4217 29.3785 43.4357 30.9279 43.1811C32.3867 42.9414 32.9564 42.9547 33.5035 43.2409C34.4281 43.7246 34.0311 44.3121 32.5645 44.6308C30.7162 45.0323 28.7328 45.1073 26.7313 44.8511Z" fill="#E86851"/>
</svg>
