<svg width="80" height="80" viewBox="0 0 80 80" fill="none" xmlns="http://www.w3.org/2000/svg">
<path fill-rule="evenodd" clip-rule="evenodd" d="M22.2414 14.2793C21.8726 14.4622 21.5706 14.7105 21.3662 14.999L21.0542 15.4393L21.0271 29.0069L21 42.5744L21.2268 42.8106C21.5272 43.1235 21.9772 43.118 22.3046 42.7975L22.5594 42.5483V29.2389C22.5594 16.0651 22.5615 15.9277 22.767 15.7266C22.973 15.5251 23.113 15.5234 39.9994 15.5234C56.8858 15.5234 57.0259 15.5251 57.2318 15.7266C57.4361 15.9264 57.4394 16.0651 57.4394 24.3132V32.6967L57.6943 32.946C58.022 33.2667 58.4716 33.2719 58.7726 32.9585L59 32.7216L58.9724 24.0805L58.9447 15.4393L58.6326 14.999C58.4282 14.7105 58.1262 14.4622 57.7575 14.2793L57.1945 14H39.9994H22.8043L22.2414 14.2793ZM45.4494 18.1042C44.1515 18.4194 43.0743 19.2743 42.4753 20.4648C42.1833 21.0451 42.1299 21.271 42.0938 22.0788C42.0341 23.4147 42.3755 24.3271 43.3952 25.5561C43.8083 26.054 43.8043 26.0811 43.1889 26.9108L42.7504 27.5019L41.3411 27.5049C40.0142 27.5076 39.9193 27.5211 39.7179 27.7363C39.5698 27.8947 39.3845 28.4798 39.1149 29.6406C38.9009 30.5623 38.6941 31.4013 38.6554 31.5051C38.6105 31.6257 38.2502 30.5077 37.6573 28.4075C36.6882 24.9749 36.5532 24.6641 36.0306 24.6641C35.8979 24.6641 35.6962 24.7279 35.5822 24.806C35.4682 24.8841 34.655 26.439 33.7748 28.2613C32.8947 30.0835 32.1397 31.5621 32.0969 31.5471C32.0542 31.5319 31.6308 30.9939 31.1562 30.3516L30.2932 29.1836L30.2413 25.442L30.1894 21.7006L29.9443 21.5065C29.6125 21.2437 29.1854 21.2607 28.9099 21.5475L28.6842 21.7826V29.8249V37.8672H27.5376C26.4586 37.8672 26.3759 37.8819 26.1362 38.1165C25.8114 38.4342 25.8114 38.8236 26.1362 39.1413C26.3759 39.3759 26.4586 39.3906 27.5376 39.3906H28.6842V40.2934C28.6842 41.2927 28.8092 41.5611 29.3304 41.6818C29.5571 41.7343 29.6756 41.6863 29.9273 41.4401C30.2279 41.1458 30.2413 41.0958 30.2413 40.2617V39.3906H41.7689H53.2965L53.5512 39.1413C53.6914 39.0042 53.8061 38.7736 53.8061 38.6289C53.8061 38.4842 53.6914 38.2536 53.5512 38.1165L53.2965 37.8672H41.7689H30.2413L30.2467 34.7949C30.2519 31.8744 30.261 31.7349 30.4284 31.9713C30.5254 32.108 30.885 32.5879 31.2275 33.0377C31.7806 33.764 31.8916 33.8588 32.219 33.8858C32.4773 33.9071 32.6408 33.8586 32.7652 33.7241C32.9168 33.5602 35.3598 28.6498 35.6557 27.9141C35.7372 27.7114 35.7745 27.6909 35.8402 27.8125C35.8855 27.8963 36.3784 29.5873 36.9357 31.5703C38.0001 35.3575 38.1166 35.6328 38.6565 35.6328C39.284 35.6328 39.3423 35.4961 40.1101 32.2272C40.5032 30.5533 40.8261 29.1493 40.8274 29.1074C40.8288 29.0656 41.4021 29.0298 42.1016 29.028C42.9387 29.0259 43.4286 28.9825 43.5352 28.901C43.6241 28.833 43.9685 28.4231 44.3004 27.9902C44.6321 27.5574 44.9274 27.2031 44.9563 27.2031C44.9853 27.2031 45.1782 27.3526 45.385 27.5353C46.4452 28.4725 48.5778 29.7422 49.0915 29.7422C49.7381 29.7422 52.6628 27.8156 53.8179 26.6288C55.5578 24.8411 56.3 23.1392 56.0086 21.6059C55.8378 20.7074 55.4174 19.9306 54.747 19.2748C53.3631 17.9208 51.4593 17.6165 49.6936 18.4669L49.0587 18.7727L48.4479 18.4678C47.4677 17.9786 46.4667 17.8572 45.4494 18.1042ZM47.6566 19.7776C47.8701 19.8845 48.2262 20.1137 48.4483 20.2868C49.0114 20.7261 49.1348 20.7071 50.0218 20.0446C52.0592 18.5232 55.0337 20.4711 54.4304 22.9317C54.1313 24.1514 52.4498 26.0476 50.6037 27.2471C49.0564 28.2524 49.1765 28.2312 48.2211 27.6661C46.458 26.6234 44.5791 24.8408 43.9424 23.6068C43.3128 22.3864 43.6212 20.9638 44.7032 20.0981C45.4688 19.4855 46.7882 19.3423 47.6566 19.7776ZM57.8925 34.8376C57.7705 34.8953 57.6187 35.0543 57.5551 35.1909C57.4718 35.3697 57.4394 39.4501 57.4394 49.7548C57.4394 63.9349 57.4375 64.0722 57.2318 64.2734C57.0259 64.4749 56.8858 64.4766 39.9994 64.4766C23.113 64.4766 22.973 64.4749 22.767 64.2734C22.5624 64.0733 22.5594 63.9349 22.5594 54.6707C22.5594 44.3193 22.5869 44.7608 21.9342 44.6206C21.553 44.5386 21.1369 44.7672 21.0527 45.1048C21.0216 45.2298 21.0091 49.6585 21.0251 54.9463L21.0542 64.5607L21.3662 65.001C21.5706 65.2895 21.8726 65.5378 22.2414 65.7207L22.8043 66H39.9994H57.1945L57.7575 65.7207C58.1262 65.5378 58.4282 65.2895 58.6326 65.001L58.9447 64.5607L58.9717 49.8901L58.9986 35.2194L58.7428 34.9691C58.4703 34.7024 58.2498 34.6683 57.8925 34.8376ZM27.0585 45.1711C25.695 45.5068 25.0318 46.8707 25.6468 48.0742C25.8722 48.5152 26.0872 48.7279 26.5561 48.9737C26.9461 49.1782 27.1164 49.1914 29.359 49.1914C31.4929 49.1914 31.7852 49.1712 32.1099 49.0014C32.628 48.7305 32.8297 48.5359 33.07 48.0752C33.4583 47.3311 33.2661 46.1897 32.6659 45.6744C32.0808 45.172 31.8586 45.1315 29.5666 45.1104C28.3676 45.0993 27.239 45.1267 27.0585 45.1711ZM35.0638 46.6478C34.9237 46.7849 34.809 47.0154 34.809 47.1602C34.809 47.3049 34.9237 47.5354 35.0638 47.6725L35.3186 47.9219H44.3075H53.2965L53.5512 47.6725C53.8761 47.3549 53.8761 46.9655 53.5512 46.6478L53.2965 46.3984H44.3075H35.3186L35.0638 46.6478ZM31.5988 46.7717C31.7559 46.9255 31.7559 47.3947 31.599 47.5486C31.4644 47.6806 28.0624 47.7797 27.4605 47.6692C26.9181 47.5697 26.7868 46.8963 27.2711 46.698C27.6058 46.561 31.4507 46.6264 31.5988 46.7717ZM27.0585 51.1632C25.695 51.499 25.0318 52.8629 25.6468 54.0664C25.8722 54.5074 26.0872 54.7201 26.5561 54.9658C26.9461 55.1704 27.1164 55.1836 29.359 55.1836C31.4929 55.1836 31.7852 55.1634 32.1099 54.9936C32.628 54.7227 32.8297 54.5281 33.07 54.0674C33.4583 53.3233 33.2661 52.1819 32.6659 51.6666C32.0808 51.1642 31.8586 51.1237 29.5666 51.1026C28.3676 51.0915 27.239 51.1189 27.0585 51.1632ZM35.0638 52.64C34.9237 52.7771 34.809 53.0076 34.809 53.1523C34.809 53.2971 34.9237 53.5276 35.0638 53.6647L35.3186 53.9141H44.3075H53.2965L53.5512 53.6647C53.8761 53.347 53.8761 52.9576 53.5512 52.64L53.2965 52.3906H44.3075H35.3186L35.0638 52.64ZM31.5988 52.7639C31.7559 52.9177 31.7559 53.3869 31.599 53.5408C31.4644 53.6728 28.0624 53.7719 27.4605 53.6614C26.9181 53.5618 26.7868 52.8885 27.2711 52.6902C27.6058 52.5532 31.4507 52.6186 31.5988 52.7639ZM26.7118 57.5798C26.3864 57.7094 25.8022 58.251 25.6268 58.5859C25.0919 59.6074 25.6116 60.9156 26.7344 61.3737C27.0425 61.4995 27.5718 61.5312 29.359 61.5312C31.8341 61.5312 32.0877 61.483 32.7096 60.8941C32.9101 60.7043 33.1122 60.3665 33.2016 60.0721C33.47 59.1878 33.2144 58.4864 32.386 57.8337L31.9873 57.5195L29.4794 57.498C27.9644 57.485 26.8686 57.5173 26.7118 57.5798ZM35.2761 58.8048C34.7748 59.073 34.6504 59.6496 35.0166 60.0078C35.2211 60.2079 35.3626 60.2109 44.3075 60.2109C53.2525 60.2109 53.394 60.2079 53.5985 60.0078C53.8058 59.805 53.8634 59.4596 53.7416 59.1491C53.5591 58.6839 53.6281 58.6873 44.2868 58.6905C38.1155 58.6928 35.4216 58.7269 35.2761 58.8048ZM31.6523 59.2461C31.8098 59.4813 31.8098 59.5187 31.6523 59.7539L31.4823 60.0078H29.359H27.2356L27.0656 59.7539C26.9081 59.5187 26.9081 59.4813 27.0656 59.2461L27.2356 58.9922H29.359H31.4823L31.6523 59.2461Z" fill="#7C9ABF"/>
</svg>
