<svg width="80" height="80" viewBox="0 0 80 80" fill="none" xmlns="http://www.w3.org/2000/svg">
<path fill-rule="evenodd" clip-rule="evenodd" d="M42.5402 14.1518C36.1624 14.9377 30.6726 18.2187 27.0167 23.4294C25.7371 25.2531 25.509 25.9397 26.0436 26.3576C26.3147 26.5696 26.4299 26.575 30.7225 26.575H35.1235L35.5349 26.2598C35.7612 26.0864 36.255 25.6876 36.6322 25.3737C40.6112 22.0618 46.6464 21.4602 51.2924 23.9126C54.3689 25.5366 56.7745 28.3193 57.8338 31.4797C58.3687 33.0754 58.5176 34.017 58.5176 35.8021C58.5176 37.5943 58.3694 38.5255 57.8247 40.1535C56.555 43.9485 53.2616 47.2139 49.4213 48.4854C47.8261 49.0137 46.8679 49.1637 45.0722 49.1667C42.8361 49.1703 41.3785 48.8593 39.4024 47.9571C38.5515 47.5686 37.1035 46.6684 36.4739 46.1365L36.1574 45.8691L41.0696 45.8686C45.8581 45.8681 45.9877 45.8627 46.2115 45.6554C46.636 45.2624 46.6032 44.681 46.1364 44.3248C46.0065 44.2257 42.3358 44.1963 29.7626 44.1938L13.5563 44.1904L13.2781 44.4668C12.9176 44.8251 12.9176 45.2334 13.2781 45.5917L13.5563 45.8681L19.5818 45.8702L25.6073 45.8724L26.2081 46.9064C26.5384 47.4752 27.1616 48.406 27.5929 48.9751L28.377 50.0098L29.5565 57.6558C30.2053 61.8612 30.7886 65.4 30.8528 65.5198C31.1169 66.0128 30.5323 65.9932 45.0495 65.9966C60.6057 66.0004 59.2184 66.0845 59.4141 65.1266C59.5279 64.5691 61.7413 50.2571 61.7413 50.0785C61.7413 50.0236 61.9943 49.6555 62.3036 49.2603C64.7067 46.1895 66.1692 42.83 66.7515 39.042C68.2239 29.4659 63.0437 20.0174 54.0925 15.9522C50.4999 14.3207 46.38 13.6786 42.5402 14.1518ZM48.4482 15.9736C52.675 16.7087 56.3492 18.6019 59.3639 21.5981C62.4453 24.6606 64.343 28.3641 65.0839 32.7613C65.3387 34.2739 65.3387 37.3303 65.0839 38.8429C64.343 43.2401 62.4453 46.9436 59.3639 50.0061C56.2835 53.0676 52.5739 54.9458 48.1317 55.693C46.5206 55.964 43.2458 55.9375 41.5907 55.6401C35.9557 54.6276 31.1162 51.4378 28.0873 46.7399L27.5591 45.9205L30.6405 45.8927L33.7219 45.8648L34.3595 46.478C35.8787 47.9392 37.7152 49.1438 39.4279 49.8021C47.6265 52.9535 56.6253 48.8297 59.4523 40.6254C60.0074 39.0143 60.195 37.7961 60.195 35.8021C60.195 34.3009 60.1522 33.7669 59.9591 32.8662C59.5376 30.8986 58.7779 29.0612 57.7482 27.5187C52.6715 19.9134 42.0844 18.4494 35.1469 24.3932L34.5585 24.8973H31.3104H28.0623L28.2457 24.609C28.7529 23.8116 29.7241 22.6435 30.6714 21.6915C32.4483 19.906 33.9984 18.8036 36.2629 17.7156C38.5188 16.6315 40.5275 16.0641 43.2787 15.7336C44.1713 15.6265 47.2822 15.7708 48.4482 15.9736ZM38.9797 28.4146C37.3087 28.8618 36.1938 30.08 35.8695 31.8128C35.554 33.4987 36.5843 35.4648 38.1585 36.181C39.4152 36.7528 40.6012 36.7528 41.8578 36.181C43.4321 35.4648 44.4623 33.4987 44.1469 31.8128C43.9753 30.8963 43.5769 30.1119 42.9834 29.5219C42.3888 28.931 41.8552 28.633 40.9914 28.4094C40.2532 28.2182 39.7081 28.2197 38.9797 28.4146ZM30.3021 29.4805C27.5709 29.7827 13.6449 31.6502 13.4829 31.736C13.0329 31.9741 13.0069 32.1046 13.0034 34.1364L13 36.088L13.2781 36.3645L13.5563 36.6409H24.3082C36.1045 36.6409 35.5902 36.6685 35.7318 36.028C35.8116 35.6673 34.9599 32.5897 34.5444 31.7373C34.2089 31.049 33.3283 30.2092 32.5893 29.873C32.068 29.6358 31.0608 29.384 30.7889 29.4228C30.7242 29.432 30.5052 29.4579 30.3021 29.4805ZM40.9577 30.1485C41.5952 30.4353 41.9891 30.8206 42.2888 31.4507C42.7175 32.3522 42.5364 33.4047 41.8218 34.1639C41.4206 34.5901 40.5765 34.9612 40.0082 34.9612C39.7282 34.9612 39.317 34.8596 39.0059 34.7134C36.9901 33.7663 36.9901 31.1273 39.0059 30.1802C39.6582 29.8737 40.3229 29.8629 40.9577 30.1485ZM31.9639 31.4148C32.6424 31.7355 33.0096 32.2547 33.3611 33.3905C33.5306 33.9383 33.7002 34.5164 33.738 34.6749L33.8065 34.9633H24.2472H14.688V34.072C14.688 33.5818 14.7236 33.1788 14.7671 33.1762C14.8107 33.1738 18.3832 32.7049 22.7061 32.1343C27.5541 31.4943 30.7477 31.117 31.0406 31.1498C31.3017 31.179 31.7172 31.2982 31.9639 31.4148ZM13.2781 37.7562L13 38.0327V39.9962V41.9598L13.2781 42.2363L13.5563 42.5127L29.8681 42.5094C42.5243 42.5069 46.2175 42.4774 46.3474 42.3783C46.7088 42.1024 46.7602 41.8062 46.7602 39.9962C46.7602 38.1863 46.7088 37.8901 46.3474 37.6142C46.2175 37.5151 42.5243 37.4856 29.8681 37.4831L13.5563 37.4798L13.2781 37.7562ZM45.0722 39.9962V40.8351H29.8801H14.688V39.9962V39.1574H29.8801H45.0722V39.9962ZM32.8341 53.907C35.6564 55.7734 38.6879 56.9124 42.1709 57.4152C43.5429 57.6131 46.8567 57.5857 48.2987 57.3644C52.1482 56.7736 56.0282 55.0694 58.8703 52.7209C59.3108 52.3569 59.6854 52.0733 59.7028 52.0906C59.7325 52.1201 57.9966 63.578 57.8854 64.0864L57.8338 64.3223H45.0722H32.3106L32.2588 64.0864C32.2303 63.9566 31.8251 61.3497 31.3583 58.2932C30.8914 55.2367 30.48 52.5759 30.4439 52.3802L30.3785 52.0244L31.2107 52.7041C31.6683 53.0779 32.3989 53.6192 32.8341 53.907ZM41.3081 61.0917C40.7254 61.3716 40.7764 62.2915 41.3888 62.5436C42.3282 62.9303 42.9782 61.5043 42.0533 61.0855C41.7413 60.9441 41.6128 60.9452 41.3081 61.0917ZM44.6841 61.0917C44.1014 61.3716 44.1525 62.2915 44.7648 62.5436C45.7043 62.9303 46.3543 61.5043 45.4293 61.0855C45.1174 60.9441 44.9889 60.9452 44.6841 61.0917ZM48.0601 61.0917C47.4774 61.3716 47.5285 62.2915 48.1408 62.5436C49.0803 62.9303 49.7303 61.5043 48.8054 61.0855C48.4934 60.9441 48.3649 60.9452 48.0601 61.0917Z" fill="#7C9ABF"/>
</svg>
