<svg width="80" height="80" viewBox="0 0 80 80" fill="none" xmlns="http://www.w3.org/2000/svg">
<path fill-rule="evenodd" clip-rule="evenodd" d="M42.147 12.0333C41.9302 12.0584 41.018 12.1557 40.1198 12.2496C39.2217 12.3434 37.6234 12.5611 36.5681 12.7332C28.4905 14.0506 24.9724 15.8372 22.0443 20.1094C20.7066 22.0612 19.8949 23.9518 19.2208 26.6866C19.0516 27.3727 18.6116 28.6069 18.1975 29.5567C17.5857 30.9595 17.4703 31.3246 17.4677 31.8646C17.4633 32.7583 17.7907 33.3692 18.7922 34.3361C19.2488 34.7769 19.6224 35.1942 19.6224 35.2637C19.6224 35.4667 18.4126 37.7535 17.6759 38.9428C16.925 40.155 16.3301 40.9987 15.2453 42.3898C14.0124 43.9708 13.7536 44.7911 14.2121 45.6644C14.5489 46.306 15.0224 46.7029 16.2482 47.3713C16.8642 47.7074 17.4227 48.0809 17.4892 48.2018C17.6575 48.5075 17.5275 48.9854 17.023 49.913C16.2655 51.3064 16.3144 51.8241 17.2699 52.5321C17.5726 52.7566 17.8198 52.9423 17.8192 52.9449C17.8185 52.9476 17.742 53.1931 17.6492 53.4905C17.4618 54.0906 17.5132 54.5841 17.7998 54.937C17.9041 55.0654 18.3625 55.4004 18.8185 55.6814L19.6477 56.1924L19.5771 56.9238C19.3466 59.3134 19.355 59.6313 19.6753 60.6293C19.9517 61.4909 20.0452 61.6424 20.6742 62.2488C21.8608 63.3925 22.7973 63.5304 25.1972 62.9145C27.0427 62.4409 30.2276 61.5043 31.1907 61.1522C31.5947 61.0044 31.9657 60.8835 32.0152 60.8835C32.0649 60.8835 32.3843 61.1312 32.7252 61.434C33.8429 62.4265 34.9631 64.392 35.6744 66.6083C36.1658 68.1401 35.3462 67.9965 43.5982 67.9964C47.4767 67.9963 53.0555 67.9634 55.9954 67.9235L61.3407 67.8507L61.5984 67.6002C62.0631 67.1487 61.9002 66.4757 60.9977 65.1195C59.76 63.2593 58.9202 60.9434 58.3704 57.8742C57.7182 54.2334 57.8119 51.8498 58.7155 49.0914C59.3294 47.2172 60.0973 45.9298 62.5153 42.7204C65.6126 38.6094 66.4474 35.2899 65.7907 29.6959C65.1223 24.0014 63.0605 20.3584 58.705 17.1761C54.8823 14.3829 51.6004 12.9221 47.6093 12.2372C46.6378 12.0705 43.0002 11.9347 42.147 12.0333ZM46.1777 13.9453C50.232 14.3781 53.9091 15.9393 57.9339 18.9369C60.3767 20.7563 62.1014 23.05 62.9709 25.6357C63.2854 26.5712 63.7213 28.6216 63.892 29.9695C64.1169 31.7441 64.0713 34.5886 63.7983 35.824C63.2903 38.1227 62.5938 39.4809 60.508 42.2408C58.4372 44.9809 57.6329 46.362 56.9578 48.3372C56.0647 50.9503 55.8297 53.2682 56.1683 56.124C56.6097 59.8461 57.6159 63.2734 58.8829 65.3702L59.2465 65.972L56.7504 66.04C55.3774 66.0773 50.4951 66.1143 45.901 66.1221L37.5478 66.1362L37.2962 65.3975C36.7505 63.7952 35.6879 61.9318 34.5926 60.6563L34.1626 60.1556L35.7616 59.6251C38.9011 58.5834 40.3262 57.8567 41.3374 56.7816C42.0968 55.9743 42.4119 55.3111 42.4659 54.4068C42.5058 53.7385 42.4845 53.6507 42.2208 53.3946C41.5955 52.787 40.7259 53.1743 40.6017 54.1155C40.4616 55.177 39.718 55.967 38.1489 56.7213C36.9792 57.2836 29.7441 59.712 26.4924 60.6336C22.8644 61.662 22.2983 61.633 21.6496 60.3854C21.3413 59.7926 21.3113 59.2207 21.4715 56.9987C21.5499 55.9122 21.548 55.9004 21.2027 55.3284C20.8968 54.8217 20.5138 54.4725 19.7755 54.0272C19.5734 53.905 19.5748 53.8853 19.8195 53.4584C20.1857 52.8188 20.1484 52.5036 19.6505 52.0295C19.4183 51.8084 19.0782 51.5242 18.8949 51.3979L18.5617 51.1683L18.9723 50.3082C19.4708 49.264 19.5822 48.6109 19.3928 47.844C19.2084 47.0968 18.5356 46.441 17.2924 45.7964C16.7853 45.5334 16.2615 45.2057 16.1283 45.0681C15.8299 44.7594 15.8549 44.7064 16.9809 43.2599C18.5954 41.186 20.5898 37.9872 21.276 36.3711C21.785 35.1728 21.507 34.2902 20.2393 33.0787C19.5346 32.4052 19.3971 32.2158 19.3971 31.9185C19.3971 31.7232 19.6811 30.934 20.028 30.1646C20.4023 29.3346 20.8158 28.165 21.0448 27.2884C21.8299 24.2837 22.5552 22.614 23.8585 20.8118C25.5467 18.4771 27.6257 16.9937 30.6373 15.9752C33.0997 15.1423 38.0465 14.2648 42.316 13.9035C43.3442 13.8164 45.1543 13.836 46.1777 13.9453ZM41.415 15.8643C36.0628 16.4165 31.5314 17.4167 29.3224 18.5334C26.1043 20.1602 23.8628 23.4397 22.8895 27.945C22.7151 28.752 22.6419 29.4687 22.6435 30.3525C22.6472 32.5187 23.2302 34.0686 24.475 35.2224C25.9921 36.6284 27.9789 36.984 31.5056 36.4804C37.6881 35.5976 40.2448 35.5935 42.0001 36.4635C42.665 36.7932 43.6984 37.5886 44.5434 38.4211L45.3068 39.1733L45.0649 40.1523C44.7623 41.3776 44.7332 43.1215 44.9991 44.1117C45.3925 45.5767 45.9834 46.3474 47.7782 47.7361C50.0142 49.4663 50.4599 50.0793 50.5897 51.603C50.6882 52.7569 50.8674 53.0045 51.604 53.0045C51.9359 53.0045 52.1353 52.9113 52.536 52.5686C53.6921 51.5798 54.2678 50.1638 54.422 47.9305C54.5323 46.3307 54.7796 45.4843 55.4505 44.4076C56.0207 43.4924 57.2851 42.1197 58.3984 41.2071C59.6398 40.1894 60.3357 39.3584 60.9353 38.1776C61.9318 36.2152 62.2602 34.3015 62.0787 31.5166C61.8457 27.9456 61.1714 25.5838 59.8018 23.5422C58.9427 22.2615 57.9511 21.2773 56.365 20.1307C51.289 16.4613 47.1302 15.2745 41.415 15.8643ZM44.85 19.582V21.6149L45.1792 21.9348C45.5037 22.2501 45.5263 22.2546 46.7646 22.2546C48.0029 22.2546 48.0255 22.2501 48.35 21.9348C48.7701 21.5266 48.7902 21.0394 48.4027 20.663C48.1703 20.437 48.0182 20.3943 47.4454 20.3943H46.7646V19.0945V17.7947L47.5137 17.9473C48.534 18.1551 50.1071 18.6767 50.9286 19.0796L51.6074 19.4126V20.9831C51.6074 22.4061 51.6293 22.5805 51.8409 22.8417C52.2794 23.3836 53.3011 23.1327 53.4641 22.4431C53.4958 22.3094 53.5344 21.8157 53.5499 21.3462L53.5783 20.4923L54.5055 21.1273L55.4328 21.7622L55.4347 22.9988C55.4369 24.4809 55.3099 24.8137 54.6762 24.9847C54.444 25.0473 54.1944 25.0989 54.1215 25.0992C53.8995 25.1003 53.522 25.6574 53.522 25.9839C53.522 26.153 53.6391 26.4236 53.7823 26.5854C54.4435 27.3323 56.4019 26.6006 57.0104 25.3792C57.1424 25.1144 57.2869 24.5862 57.3316 24.2054L57.4129 23.5131L57.9473 24.2118C58.9351 25.5035 59.5895 27.228 59.9323 29.4433C60.1392 30.7796 60.2153 30.6808 58.9792 30.6808C57.9879 30.6808 57.8826 30.7017 57.6277 30.9494C57.2697 31.2972 57.2679 31.778 57.6228 32.1793C57.8819 32.4722 57.9472 32.4881 59.0306 32.524L60.1668 32.5616V33.4815V34.4014H59.0355C57.9844 34.4014 57.8845 34.4204 57.6277 34.6701C57.2698 35.0177 57.2679 35.4987 57.6226 35.8999C57.8686 36.1782 57.9801 36.2121 58.8098 36.2617L59.7254 36.3164L59.2115 37.3414C58.3419 39.0751 56.9334 40.2263 55.2295 40.5955C54.2105 40.8164 52.0795 40.7572 51.1851 40.4832L50.5938 40.3022V39.5319C50.5938 38.8267 50.6215 38.7348 50.923 38.4419L51.2522 38.122H53.0002C54.6526 38.122 54.764 38.1086 55.0362 37.8758C55.1947 37.7403 55.3554 37.4716 55.3936 37.2783C55.4518 36.9835 55.4068 36.8724 55.1135 36.5875L54.7639 36.2478L52.7634 36.2822C51.1133 36.3104 50.6916 36.3509 50.3564 36.513C49.4678 36.943 48.831 37.8225 48.7141 38.7817L48.6489 39.3169L47.7513 38.6423C47.2577 38.2712 46.3142 37.4713 45.6548 36.8647C44.0031 35.3455 43.1082 34.7786 41.6684 34.3399C41.0261 34.1441 41.0208 34.1391 41.0208 33.7177C41.0208 32.9852 40.6604 32.5506 40.0479 32.5446C39.5282 32.5394 39.1946 32.8552 39.1161 33.4264L39.0499 33.909L38.1489 33.9328C36.4967 33.9767 34.1146 34.1978 32.3496 34.471C31.389 34.6197 30.1344 34.7706 29.5614 34.8063L28.5196 34.8713V34.4783C28.5196 33.9936 28.1486 33.551 27.6673 33.4614C27.3971 33.4112 27.2436 33.4611 26.9634 33.6901C26.7663 33.8513 26.605 34.0773 26.605 34.1923C26.605 34.5281 26.4042 34.4395 25.7704 33.8235C25.3622 33.427 25.0994 33.0479 24.933 32.6156C24.542 31.6004 24.5503 31.5863 25.5633 31.5365C26.5356 31.4888 27.0542 31.2931 27.6117 30.7636C28.0937 30.3057 28.405 29.6902 28.4845 29.0379C28.5441 28.5487 28.5209 28.4766 28.2054 28.17C27.8399 27.8149 27.533 27.7557 27.1326 27.9629C26.7779 28.1465 26.6127 28.3936 26.6086 28.7468C26.6064 28.9395 26.4809 29.1768 26.2758 29.376C25.9842 29.6594 25.8685 29.6959 25.2622 29.6959C24.5816 29.6959 24.5778 29.6942 24.5778 29.3776C24.5778 29.2025 24.7548 28.3777 24.9712 27.5446C25.1877 26.7116 25.365 26.0176 25.3654 26.0026C25.3658 25.9876 26.154 25.9753 27.1169 25.9753C28.8256 25.9753 28.8744 25.9688 29.1441 25.7066C29.4845 25.376 29.5123 24.7966 29.2057 24.428C29.0067 24.1888 28.89 24.1656 27.6279 24.115L26.2648 24.0602L26.8914 23.1516C27.6891 21.9948 28.6174 21.0935 29.6022 20.5197L30.3779 20.0677L30.4385 21.0792C30.5046 22.1814 30.6682 22.6068 31.2633 23.2218C31.7263 23.7003 32.3468 24.0027 33.026 24.0808C33.5294 24.1387 33.6037 24.1162 33.9192 23.8097C34.3482 23.3928 34.3721 22.9478 33.9873 22.5442C33.8021 22.3501 33.595 22.2546 33.3592 22.2546C33.1204 22.2546 32.9015 22.1518 32.678 21.9348C32.3565 21.6224 32.3488 21.5884 32.3488 20.4803V19.3458L33.0962 19.1523C33.6955 18.9971 37.0003 18.3152 37.1529 18.3152C37.1742 18.3152 37.1916 18.4405 37.1916 18.5937C37.1916 19.0026 37.6616 19.4095 38.1338 19.4095C38.6348 19.4095 39.1062 18.9074 39.1062 18.3739C39.1062 18.0246 39.1252 18.0092 39.6412 17.9417C39.9355 17.9032 40.3662 17.844 40.5985 17.8101L41.0208 17.7488V18.3106C41.0208 19.0076 41.3614 19.4114 41.9449 19.406C42.5921 19.3999 42.9354 18.9738 42.9354 18.1764C42.9354 17.9117 42.9692 17.6622 43.0105 17.6221C43.0517 17.582 43.4825 17.5491 43.9678 17.5491H44.85V19.582ZM38.2977 21.4172C36.931 21.7885 36.178 22.9114 36.178 24.5785C36.178 25.2693 36.2068 25.3636 36.5072 25.6554C36.8741 26.0119 37.1614 26.0526 37.634 25.8152C38.0316 25.6155 38.0926 25.4616 38.0926 24.6603C38.0926 23.3469 38.4611 23.0877 40.2437 23.1478C41.2083 23.1803 41.3748 23.2157 41.6199 23.4396C41.8627 23.6615 41.904 23.8077 41.9397 24.5718C41.9772 25.3728 42.0082 25.4722 42.2955 25.7123C42.707 26.0563 43.2024 26.0541 43.5599 25.7066C43.8142 25.4595 43.8362 25.3566 43.8339 24.4208C43.8303 22.9171 43.3405 22.0847 42.1483 21.5563C41.5103 21.2735 39.1416 21.1878 38.2977 21.4172ZM48.7229 24.2601C46.7215 24.9936 46.134 27.4345 47.613 28.8716C48.2025 29.4443 48.7295 29.6321 49.8717 29.6762C50.8268 29.7132 50.9168 29.6979 51.2175 29.4465C51.6645 29.0729 51.6699 28.4631 51.2294 28.0949C50.9667 27.8753 50.7979 27.8356 50.1283 27.8356C49.4045 27.8356 49.3098 27.8086 49.0084 27.5157C48.81 27.3229 48.6792 27.0805 48.6792 26.9054C48.6792 26.7303 48.81 26.488 49.0084 26.2951C49.3098 26.0023 49.4045 25.9753 50.1283 25.9753C50.7979 25.9753 50.9667 25.9356 51.2294 25.7159C51.4658 25.5183 51.5398 25.3584 51.5398 25.0451C51.5398 24.7318 51.4658 24.5719 51.2294 24.3743C50.9552 24.1452 50.8117 24.1159 49.9962 24.1233C49.4886 24.1279 48.9156 24.1894 48.7229 24.2601ZM39.8124 25.0754C39.6742 25.0969 39.4588 25.2409 39.3337 25.3955C39.1385 25.6366 39.1062 25.8385 39.1062 26.8162C39.1062 28.5202 38.8506 28.8205 37.4001 28.8205C36.8941 28.8205 36.6895 28.8706 36.5187 29.0366C36.2095 29.337 36.1306 29.7343 36.3087 30.095C36.5473 30.5786 36.9017 30.6991 37.9281 30.6457C39.4541 30.5661 40.4854 29.8678 40.8551 28.6638C41.0789 27.935 41.079 25.9643 40.8553 25.544C40.6797 25.214 40.2277 25.0109 39.8124 25.0754ZM32.4297 26.1325C31.5216 26.4474 30.8393 27.1193 30.5501 27.9839C30.3305 28.6403 30.4445 30.4058 30.7425 30.9618C31.086 31.6028 31.7857 32.1719 32.4752 32.3708C33.2192 32.5854 34.2899 32.59 34.7073 32.3802C35.0808 32.1926 35.312 31.6592 35.173 31.306C34.988 30.8363 34.704 30.7057 33.7726 30.6621C32.9703 30.6245 32.8624 30.5921 32.6182 30.3163C32.3895 30.0579 32.3488 29.8962 32.3488 29.2436C32.3488 28.5403 32.3766 28.4483 32.678 28.1555C32.9794 27.8626 33.0741 27.8356 33.7979 27.8356C34.4677 27.8356 34.6363 27.7959 34.8993 27.576C35.3238 27.2213 35.318 26.5848 34.887 26.2246C34.631 26.0106 34.4658 25.9759 33.7221 25.9801C33.2455 25.9827 32.6639 26.0513 32.4297 26.1325ZM43.2119 29.0891C42.9655 29.3284 42.9355 29.4505 42.9361 30.2108C42.9364 30.6799 42.9891 31.2472 43.0532 31.4714C43.2315 32.0952 43.8259 32.7694 44.4988 33.1109C45.0255 33.3782 45.2257 33.4165 46.0954 33.4165C46.9682 33.4165 47.1244 33.3864 47.3715 33.1703C47.6832 32.8978 47.752 32.6368 47.6304 32.1874C47.5167 31.7665 47.0279 31.5562 46.1632 31.5562C45.0805 31.5562 44.9265 31.396 44.8437 30.1833C44.7875 29.3609 44.7421 29.1982 44.5201 29.0236C44.148 28.7308 43.5498 28.7607 43.2119 29.0891ZM53.8442 29.0294C53.5967 29.2237 53.5744 29.3334 53.522 30.6131C53.4499 32.3738 53.3794 32.4662 52.0643 32.5242C51.3802 32.5544 51.1209 32.6122 50.9419 32.7742C50.4406 33.2279 50.5483 33.9605 51.1603 34.2614C51.547 34.4515 52.6888 34.435 53.4027 34.2291C54.2238 33.9921 55.0154 33.2229 55.2592 32.4252C55.4939 31.6572 55.5018 29.698 55.2718 29.2661C55.0071 28.7685 54.321 28.6548 53.8442 29.0294ZM47.4839 40.8493C49.1889 41.9891 51.2145 42.6087 53.2357 42.6087C53.8268 42.6087 54.3104 42.6366 54.3104 42.6707C54.3104 42.7048 54.1869 42.8899 54.0361 43.0821C53.6431 43.5827 52.9953 44.9605 52.7922 45.7274C52.6966 46.0886 52.5909 46.8026 52.5575 47.3142C52.4869 48.3937 52.2898 49.6122 52.1857 49.6122C52.1462 49.6122 51.993 49.391 51.8455 49.1208C51.4895 48.4686 50.3374 47.3253 49.0007 46.2977C48.4034 45.8383 47.7561 45.2759 47.5625 45.0479C47.0121 44.3995 46.7415 43.5763 46.7246 42.4992C46.7105 41.5972 46.8317 40.5295 46.9483 40.5295C46.9798 40.5295 47.2208 40.6734 47.4839 40.8493Z" fill="#A39E60"/>
</svg>
