<svg width="80" height="80" viewBox="0 0 80 80" fill="none" xmlns="http://www.w3.org/2000/svg">
<path fill-rule="evenodd" clip-rule="evenodd" d="M36.656 12.1513C34.9795 12.5079 33.4311 13.5428 32.5191 14.9165L31.9451 15.7809L31.0047 15.846C29.8571 15.9255 28.4647 16.3733 27.5855 16.9457C26.6314 17.5669 25.5655 18.739 25.1102 19.6676C24.7071 20.4897 24.3782 21.632 24.3753 22.2198L24.3736 22.5525L23.2298 22.5628C22.3182 22.5711 21.9001 22.632 21.1694 22.8631C17.758 23.942 15.6504 27.4438 16.3876 30.8079C16.4733 31.1992 16.5767 31.6013 16.617 31.7014C16.6721 31.8375 16.5264 31.9939 16.0408 32.3211C15.2293 32.8675 14.1634 33.9427 13.5799 34.8031C10.705 39.0431 11.8651 44.8842 16.154 47.7635C16.5942 48.059 16.681 48.1692 16.6239 48.3603C16.4116 49.0713 16.2315 50.0871 16.2297 50.5826C16.2227 52.6424 17.5939 55.4389 18.6085 55.4341C19.0242 55.4321 19.162 55.3559 19.3355 55.0325C19.5382 54.6547 19.4916 54.46 19.056 53.8651C17.1672 51.2862 17.7366 47.9353 20.3565 46.2127C20.6327 46.0311 20.9215 45.806 20.9981 45.7127C21.2084 45.4567 21.1685 44.8797 20.9257 44.6642C20.3884 44.1873 19.438 44.6215 18.1984 45.9105L17.4782 46.6595L16.9259 46.2945C16.2156 45.8253 15.2792 44.8081 14.7453 43.9258C13.7467 42.2752 13.4055 40.0577 13.8718 38.2488C14.5237 35.72 16.1044 33.8715 18.5012 32.8352C19.1902 32.5372 20.5154 32.2309 21.1151 32.2309C21.6864 32.2309 22.2311 32.0385 22.3674 31.7888C22.5527 31.4491 22.4892 31.0765 22.2007 30.8108C21.9406 30.5709 21.8658 30.5602 20.8896 30.6215C19.9889 30.6782 19.5712 30.7561 18.389 31.0882C18.1718 31.1493 18.1402 31.094 18.0264 30.4526C17.8596 29.5133 17.8692 29.0059 18.0678 28.2579C18.843 25.3386 21.6413 23.6823 24.6873 24.3401C25.3506 24.4834 25.4089 24.4794 25.6915 24.273C25.9783 24.0634 25.9945 23.9988 26.0575 22.8063C26.105 21.9077 26.1914 21.3872 26.3664 20.9453C27.0237 19.2848 28.3619 18.1042 30.0915 17.6588C31.9956 17.1685 33.8701 17.6669 35.2667 19.0352C36.2211 19.9701 36.8712 21.3546 36.8712 22.4523C36.8712 22.9383 37.0661 23.3171 37.3908 23.4623C37.7934 23.6421 37.9673 23.6131 38.271 23.315C38.4934 23.097 38.545 22.9365 38.545 22.4625C38.545 20.1623 36.8818 17.6641 34.6521 16.615C34.1615 16.3842 33.7573 16.1287 33.7536 16.0473C33.7498 15.9658 34.0857 15.5681 34.5 15.1637C35.7406 13.9522 37.1159 13.4722 38.7036 13.6966C40.2074 13.9091 41.5661 14.7405 42.3379 15.9202C42.761 16.567 43.12 17.6272 43.12 18.2301V18.6582L42.1994 18.6617C41.6216 18.6639 41.2077 18.7182 41.0879 18.8074C40.6485 19.1349 40.6478 19.8229 41.0865 20.1498C41.208 20.2403 41.6183 20.2944 42.1994 20.2965L43.12 20.3V23.0365V25.7729H39.5691C35.6563 25.7729 35.3861 25.7364 34.6021 25.1025C34.085 24.6843 33.762 24.0762 33.6302 23.2727C33.5168 22.5806 33.2441 22.2703 32.7497 22.2703C32.305 22.2703 31.9614 22.6822 31.9614 23.2152C31.9614 24.6481 32.9915 26.2165 34.3844 26.9048C35.2993 27.3568 35.8931 27.4148 39.6105 27.4148H43.12V34.3105V41.2063H36.3185C31.5012 41.2063 29.4363 41.2425 29.2404 41.33C28.6742 41.583 28.6239 42.4511 29.159 42.7321C29.3081 42.8103 31.6211 42.8482 36.2501 42.8482H43.12V48.4852V54.1223H41.8015C39.7137 54.1223 38.835 54.3529 37.8062 55.1711C36.5843 56.1426 35.9037 58.2183 36.5872 58.8886C36.8909 59.1866 37.0648 59.2156 37.4674 59.0358C37.7799 58.896 37.987 58.5148 37.987 58.079C37.987 57.6289 38.5167 56.6721 38.942 56.3539C39.5385 55.9075 40.2197 55.7641 41.7429 55.7641H43.12V58.7742V61.7842L42.311 61.7859C41.417 61.7876 41.0149 61.9314 40.8174 62.32C40.6569 62.6357 40.8136 63.1603 41.1158 63.3189C41.228 63.3778 41.6245 63.4261 41.9967 63.4261C42.369 63.4261 42.6736 63.4669 42.6736 63.5168C42.6736 63.7216 41.9508 64.6568 41.4552 65.0931C39.8122 66.5399 37.4057 66.7842 35.5484 65.6927C34.9844 65.3612 33.7468 64.1814 33.7468 63.9751C33.7468 63.9228 34.0214 63.7567 34.3569 63.6059C35.0858 63.2787 35.8301 62.7886 36.3029 62.3249C36.7096 61.9259 36.7525 61.4977 36.4205 61.1482C36.0688 60.7778 35.5925 60.8371 34.9287 61.3339C33.0209 62.762 30.8906 62.9489 28.8135 61.8703C27.2927 61.0806 26.0465 59.1217 26.0478 57.5229L26.0482 57.0229L26.7759 56.6538C27.7333 56.1681 28.1675 55.7649 28.1675 55.3614C28.1675 54.4912 27.4284 54.3125 26.4541 54.947C25.5449 55.5392 24.7859 55.7812 23.5675 55.8673C22.3159 55.9558 22.0303 56.1126 22.0303 56.7115C22.0303 57.3434 22.3255 57.5154 23.4097 57.5154H24.3429L24.4133 58.1039C24.7272 60.7236 26.71 63.0741 29.2834 63.8772C29.6823 64.0016 30.4441 64.1301 30.9762 64.1626L31.9438 64.2216L32.5184 65.0871C33.9868 67.2985 36.7951 68.4144 39.4934 67.8587C40.795 67.5906 41.8193 67.0248 42.841 66.0096C44.3065 64.5535 44.7892 63.2983 44.7921 60.936L44.7938 59.5951H47.0984H49.4031L50.5072 60.6637L51.6112 61.7325L51.4228 62.1688C51.3192 62.4088 51.2361 62.8774 51.2382 63.21C51.2534 65.7129 54.4785 66.8925 56.1623 65.0112C56.6713 64.4426 56.8562 63.964 56.8598 63.2052C56.8688 61.377 55.2487 60.138 53.3291 60.505L52.8816 60.5905L51.6251 59.4247C50.0282 57.9431 50.0597 57.9533 47.0635 57.9533H44.7938V55.7641V53.575H48.464H52.1342L52.198 53.8242C52.308 54.2543 53.07 55.0165 53.6586 55.2854C55.3212 56.0448 57.2763 55.053 57.5959 53.2881C57.9648 51.2505 56.0431 49.5396 54.0305 50.1136C53.3063 50.3201 52.6063 50.885 52.33 51.486L52.1245 51.9331H48.4591H44.7938V49.1967V46.4603H49.1893H53.5848L53.649 46.7065C53.7502 47.0954 54.359 47.7465 54.9284 48.0749C55.3639 48.326 55.5794 48.3757 56.2313 48.375C56.8836 48.3745 57.109 48.3219 57.5987 48.0564C58.9664 47.3148 59.4748 45.7546 58.7889 44.4044C57.7533 42.3659 54.7804 42.3679 53.7086 44.408L53.4929 44.8184H49.1416H44.7902L44.8199 41.8357L44.8495 38.853L45.8665 38.8217L46.8835 38.7905L47.0328 39.1442C47.435 40.0964 48.5029 40.7655 49.6234 40.7674C50.7108 40.7693 51.5773 40.273 52.0851 39.3577C52.6697 38.3041 52.5516 37.0992 51.7768 36.2113C51.0475 35.3753 49.5828 35.0221 48.5691 35.4375C48.0322 35.6576 47.3151 36.3053 47.0875 36.7758L46.9034 37.1564H45.8486H44.7938V34.8031V32.4498H49.4346H54.0754L55.109 33.4288C55.6773 33.9672 56.2797 34.4415 56.4476 34.4828C56.9022 34.5947 57.3373 34.2387 57.3822 33.7181C57.415 33.338 57.3538 33.248 56.4413 32.3332C55.8539 31.7445 55.2425 31.246 54.9058 31.0814L54.3463 30.8079H49.5701H44.7938V29.1113V27.4148L48.4482 27.4137C52.9735 27.4123 52.548 27.5537 54.8334 25.2934L56.4485 23.6963L57.1881 23.7637C58.1377 23.8503 58.9029 23.6141 59.4929 23.0525C60.1402 22.4363 60.3607 21.9145 60.3556 21.0115C60.3505 20.1052 60.1045 19.559 59.4341 18.9649C58.3933 18.0425 56.745 18.0458 55.697 18.9724C54.7879 19.7763 54.5072 20.9397 54.9478 22.0773L55.1708 22.6528L53.6085 24.1855L52.0462 25.7182L48.4179 25.7498L44.7898 25.7815L44.8196 23.0681L44.8495 20.3548L45.8072 20.3235L46.7647 20.2921L46.9696 20.7378C47.4157 21.7081 48.5337 22.3335 49.6718 22.2495C51.235 22.1339 52.3067 21.0079 52.3103 19.4775C52.316 17.0254 49.2076 15.831 47.4474 17.6089C47.2277 17.8308 46.9866 18.1576 46.9115 18.3353L46.7752 18.6582H45.7845H44.7938L44.7921 18.193C44.7896 17.4987 44.5073 16.4532 44.0978 15.6213C43.5729 14.5554 42.2254 13.2406 41.1114 12.7074C39.6758 12.0203 38.1609 11.8311 36.656 12.1513ZM49.8648 18.4393C50.0936 18.4393 50.566 18.965 50.6293 19.2902C50.754 19.9299 50.1956 20.6284 49.5598 20.6284C48.6205 20.6284 48.0292 19.6143 48.5462 18.8902C48.751 18.6034 49.3481 18.3116 49.5732 18.3885C49.6549 18.4164 49.7861 18.4393 49.8648 18.4393ZM30.5887 19.1446C29.6816 19.4619 29.0061 20.0563 28.5613 20.9279C27.9373 22.151 28.1178 23.0803 28.9796 23.0803C29.4844 23.0803 29.7054 22.8955 29.7977 22.3961C29.9067 21.8058 30.2383 21.2251 30.6174 20.9603C30.8015 20.8317 31.267 20.6773 31.652 20.6173C32.472 20.4892 32.7813 20.2484 32.7668 19.7493C32.7503 19.1778 32.4783 18.9858 31.693 18.9914C31.319 18.994 30.822 19.063 30.5887 19.1446ZM58.0129 20.0178C58.8017 20.3411 58.9457 21.3338 58.2832 21.8806C57.7834 22.2931 57.2598 22.2612 56.778 21.7887C56.1806 21.2026 56.311 20.4272 57.0697 20.054C57.5392 19.8229 57.5376 19.823 58.0129 20.0178ZM61.9047 26.4443C60.8596 26.6243 60.0281 27.3133 59.6936 28.2764C58.8791 30.6211 61.3927 32.7289 63.6589 31.6015C66.0428 30.4155 65.5364 26.9164 62.9146 26.4596C62.6142 26.4073 62.1598 26.4004 61.9047 26.4443ZM22.5588 26.5665C22.2985 26.7603 22.1544 27.2086 22.2617 27.4905C22.3936 27.8368 22.7822 28.0364 23.468 28.1098C24.5903 28.23 25.6998 29.039 26.1776 30.0856C26.5429 30.886 26.5333 32.0829 26.1557 32.8195C25.5842 33.9343 24.6951 34.5474 23.3393 34.7616C22.9585 34.8217 22.5583 34.9496 22.4501 35.0455C22.1746 35.2901 22.1961 35.8961 22.4905 36.1849C22.7001 36.3906 22.8207 36.4115 23.5398 36.3661C24.6521 36.2961 25.785 35.7672 26.6592 34.9097C29.4127 32.2087 28.1026 27.5655 24.3139 26.5974C23.5183 26.3942 22.8069 26.3816 22.5588 26.5665ZM63.1288 28.3358C63.9191 29.0543 63.4456 30.2606 62.3733 30.2606C61.3237 30.2606 60.8423 29.032 61.6163 28.3285C62.0105 27.97 62.7303 27.9735 63.1288 28.3358ZM33.0775 31.5519C32.8936 31.698 32.7909 31.9679 32.6788 32.6002C32.5958 33.0685 32.4086 33.7064 32.2629 34.018C31.6864 35.2501 30.274 36.2086 28.7644 36.3923C27.9103 36.4962 27.5724 36.7417 27.5724 37.2584C27.5724 37.4416 27.6638 37.6906 27.7756 37.8117C28.1887 38.2594 29.9207 38.0247 31.2229 37.3446C32.0419 36.9167 33.2444 35.7612 33.6655 34.9974C34.0209 34.3527 34.4163 32.9416 34.4163 32.3179C34.4163 31.537 33.6489 31.0981 33.0775 31.5519ZM37.2182 31.8904C36.9219 32.1811 36.913 32.7097 37.1997 32.9909C37.3191 33.108 37.6078 33.2329 37.8413 33.2685C39.5663 33.5315 40.3648 35.2677 39.3053 36.4515C38.8772 36.9297 38.6997 37.0239 37.9699 37.1596C37.6503 37.219 37.2974 37.3488 37.1859 37.4479C36.9039 37.6982 36.9218 38.3007 37.2201 38.5933C37.4254 38.7947 37.5496 38.8187 38.1428 38.772C39.3968 38.6733 40.5352 37.8825 41.0988 36.7186C41.5165 35.8561 41.5147 34.6255 41.0946 33.7463C40.53 32.5649 39.3977 31.7822 38.1388 31.7028C37.5553 31.6661 37.4186 31.6939 37.2182 31.8904ZM59.2999 36.2808C59.1689 36.4093 59.0767 36.6456 59.0767 36.8531C59.0767 37.1488 59.2233 37.3511 59.9727 38.0901L60.8688 38.9737L60.6948 39.64C60.3482 40.9671 60.9936 42.3005 62.2544 42.8623C62.8858 43.1436 63.9983 43.134 64.6137 42.8418C65.1619 42.5814 65.8353 41.8932 66.0616 41.362C66.2994 40.8036 66.2622 39.7225 65.9856 39.1624C65.6981 38.5797 64.8741 37.8526 64.335 37.7056C63.7983 37.5594 62.8785 37.5648 62.4342 37.7167C62.0818 37.8372 62.0613 37.825 61.148 36.9505C60.1328 35.9784 59.7496 35.8397 59.2999 36.2808ZM50.3395 37.1286C50.6421 37.32 50.8541 37.9131 50.7563 38.295C50.5782 38.991 49.5134 39.3698 48.9634 38.9327C47.7522 37.9702 49.0271 36.2989 50.3395 37.1286ZM18.2701 37.868C17.9518 38.0866 17.8719 38.5072 18.0115 39.2281C18.2553 40.4876 18.9289 41.49 19.9712 42.1445C20.8894 42.7211 21.5157 42.8482 23.4373 42.8482H25.1385L25.3697 42.5598C25.6581 42.2003 25.6641 41.8543 25.3879 41.5195C25.1834 41.2715 25.1009 41.2589 23.3422 41.2063C21.5414 41.1526 21.5003 41.1459 20.9644 40.8206C20.2293 40.3744 19.8331 39.7881 19.635 38.853C19.4115 37.7977 18.9047 37.432 18.2701 37.868ZM64.2182 39.5561C64.474 39.807 64.5444 39.9741 64.5444 40.3307C64.5444 41.3224 63.4039 41.7917 62.634 41.117C61.8594 40.4381 62.3738 39.2361 63.4389 39.2361C63.791 39.2361 63.9648 39.3075 64.2182 39.5561ZM56.6597 44.5928C57.42 44.8764 57.6445 45.724 57.121 46.3344C56.7641 46.7503 56.3199 46.8507 55.7925 46.6346C54.9607 46.2937 54.8815 45.1647 55.6569 44.7009C56.0505 44.4654 56.2582 44.4431 56.6597 44.5928ZM24.2515 47.4962C22.7947 48.0223 21.8086 48.9831 21.413 50.2623C21.0358 51.4815 21.2917 52.2615 22.0688 52.2615C22.5619 52.2615 22.7661 52.016 22.9089 51.2517C23.0475 50.51 23.2359 50.1237 23.6635 49.7041C24.3544 49.0265 24.2768 49.0374 28.7976 48.9778C32.6732 48.9267 32.9579 48.9095 33.1774 48.7145C33.4837 48.4424 33.4895 47.8497 33.1889 47.5548C32.9734 47.3435 32.8224 47.3361 28.8091 47.3436C25.6539 47.3495 24.5559 47.3863 24.2515 47.4962ZM35.4206 47.5548C35.1198 47.8498 35.1258 48.4424 35.4323 48.7145C35.6453 48.9037 35.8579 48.923 37.7167 48.923C39.6744 48.923 39.7771 48.9123 40.0096 48.6842C40.3303 48.3697 40.3204 47.7908 39.9899 47.5284C39.7784 47.3603 39.4872 47.3359 37.6957 47.3359C35.7925 47.3359 35.6276 47.3518 35.4206 47.5548ZM64.6944 47.4558C63.641 47.6469 62.817 48.3313 62.4832 49.2921C61.865 51.0719 63.2258 52.9202 65.1521 52.9171C66.7631 52.9146 67.9965 51.7299 68 50.1818C68.0039 48.464 66.4049 47.1453 64.6944 47.4558ZM66.0244 49.428C66.6727 50.2002 66.1678 51.2764 65.157 51.2764C63.8011 51.2764 63.6114 49.3475 64.9396 49.0657C65.2796 48.9935 65.8077 49.1699 66.0244 49.428ZM28.6646 51.2167C28.0683 51.8016 28.4524 52.4934 29.4475 52.6272C30.8169 52.8113 31.6763 53.7537 31.6698 55.0644C31.6638 56.3018 30.8837 57.1687 29.5329 57.4389C28.7703 57.5915 28.3907 57.8614 28.3907 58.2511C28.3907 58.9641 28.8733 59.2197 29.8828 59.0411C30.7641 58.8853 31.7564 58.3646 32.2765 57.785C34.3798 55.4411 33.2866 51.8972 30.2184 51.1134C29.3098 50.8812 28.9845 50.9028 28.6646 51.2167ZM55.2397 51.7127C55.308 51.7135 55.4964 51.844 55.6582 52.0027C56.3315 52.6633 55.7965 53.9033 54.8382 53.9033C54.5022 53.9033 53.9718 53.6119 53.8278 53.3481C53.6578 53.0364 53.659 52.5242 53.8305 52.2098C54.0064 51.8875 54.5886 51.5846 54.8923 51.6575C55.015 51.6871 55.1713 51.7119 55.2397 51.7127ZM60.36 56.2443C58.8657 56.9385 58.2943 58.5311 59.0185 59.983C60.0534 62.0581 63.1631 61.9676 64.1251 59.8343C64.3809 59.267 64.4041 58.2504 64.1737 57.7093C63.5622 56.2737 61.7747 55.5871 60.36 56.2443ZM62.3213 57.9448C63.0505 58.6602 62.5583 59.8439 61.5316 59.8439C60.5049 59.8439 60.0127 58.6602 60.7419 57.9448C60.9978 57.694 61.1681 57.6249 61.5316 57.6249C61.8951 57.6249 62.0654 57.694 62.3213 57.9448ZM54.8644 62.4209C55.1096 62.6447 55.1712 62.7978 55.1712 63.1838C55.1712 64.4663 53.2881 64.737 52.9617 63.5013C52.836 63.0252 52.9138 62.7149 53.2396 62.3955C53.707 61.9368 54.3449 61.9468 54.8644 62.4209Z" fill="#E86851"/>
</svg>
