<svg width="80" height="80" viewBox="0 0 80 80" fill="none" xmlns="http://www.w3.org/2000/svg">
<path fill-rule="evenodd" clip-rule="evenodd" d="M22.2503 16.2304C22.0349 16.4501 22.0245 16.5142 22.0245 17.6216C22.0245 18.7138 22.0371 18.7946 22.2373 18.9866C22.5385 19.2753 22.9724 19.2561 23.2134 18.9433C23.3643 18.7478 23.4041 18.5615 23.4041 18.0518V17.4076H29.7045H36.0049L36.0036 24.61L36.0023 31.8123L35.4976 31.9758C35.2201 32.0657 34.3203 32.4509 33.4984 32.8318C32.6764 33.2126 31.796 33.5932 31.5421 33.6775C30.2497 34.1063 28.3645 34.2798 26.8145 34.1124C25.6265 33.9841 25.0308 33.8465 24.0709 33.4789L23.4041 33.2235V27.4783C23.4041 23.4083 23.3738 21.6653 23.3002 21.5005C23.0876 21.0244 22.3582 20.9821 22.122 21.4321C22.0565 21.5571 22.0245 23.4087 22.0245 27.0772C22.0245 31.4093 22.0007 32.5256 21.9095 32.4848C20.386 31.8031 19.1861 31.5036 17.6528 31.4222C16.5607 31.3642 16.5428 31.3666 16.2732 31.6032L16 31.843V47.568V63.2931L16.3465 63.6465L16.6929 64H39.5H62.3071L62.6535 63.6465L63 63.2931V47.568V31.843L62.7419 31.6165C62.5196 31.4214 62.39 31.39 61.8059 31.39C60.5634 31.39 58.8874 31.7143 57.9082 32.144C57.5667 32.2939 57.4229 32.4179 57.353 32.6225C57.1385 33.25 57.6138 33.6756 58.2921 33.4636C59.4008 33.1171 60.3146 32.9041 60.9535 32.8434L61.6663 32.7756V47.7075V62.6393H39.5H17.3337V47.7064V32.7734L18.0005 32.8386C19.2523 32.9609 20.5501 33.3478 21.6776 33.9347L22.0504 34.1288L21.9877 35.3166C21.7941 38.9862 21.2121 41.7978 19.9046 45.3807C19.2306 47.2277 19.0634 48.0293 19.0646 49.4076C19.0662 51.2175 19.5088 52.7263 20.4668 54.1876C21.6094 55.9303 23.2958 57.16 25.3816 57.7713L26.1174 57.9869L39.1108 58.0165L52.1043 58.046L52.3325 57.8132C52.6246 57.5152 52.631 57.1089 52.3478 56.8374L52.1349 56.6334L39.5401 56.6301C29.4125 56.6275 26.8101 56.6022 26.2554 56.5008C24.4631 56.1733 22.7973 55.1215 21.8013 53.6885C20.8435 52.3103 20.4495 51.0813 20.444 49.4545C20.44 48.252 20.5954 47.4687 21.1007 46.1439C22.362 42.8377 23.0517 39.7489 23.3161 36.2229C23.3741 35.4487 23.4316 34.8046 23.4438 34.7915C23.4559 34.7785 23.7107 34.8537 24.0098 34.9587C25.2225 35.3845 26.3075 35.5451 28.0029 35.5499C30.4704 35.5571 31.5604 35.3027 33.9907 34.1526C34.7191 33.808 35.4644 33.4716 35.6469 33.4053L35.9788 33.2846L36.0328 35.3638C36.1068 38.214 36.3528 39.3441 37.3219 41.285C37.8952 42.4333 38.6131 43.4152 39.5599 44.3462C40.903 45.6667 41.2022 45.8414 46.2603 48.2579C50.8406 50.4461 50.8071 50.4366 54.2643 50.5204L56.7496 50.5806L57.3661 50.8903C58.2811 51.35 58.8278 52.0989 58.9824 53.1047C59.1947 54.4863 58.5277 55.7496 57.264 56.3593C56.938 56.5166 56.592 56.5786 55.7947 56.6227C54.8316 56.6759 54.7378 56.698 54.5684 56.9115C54.3448 57.1932 54.3986 57.6329 54.6866 57.8768C54.9357 58.0879 56.2124 58.1002 57.0463 57.8995C59.0546 57.4164 60.3922 55.6869 60.3908 53.5749C60.3896 51.6669 59.2659 50.054 57.4813 49.3986C56.9909 49.2185 56.6535 49.1882 54.4462 49.1263C51.1685 49.0343 51.0377 49.0004 47.5939 47.341C46.6075 46.8655 45.5521 46.3593 45.2485 46.2158C42.2756 44.81 41.7025 44.4672 40.6272 43.4515C39.1168 42.0248 38.1208 40.251 37.6484 38.1466C37.4082 37.0766 37.2833 33.0608 37.4863 32.9313C37.5568 32.8863 38.2974 32.8335 39.1321 32.8139C41.5125 32.7581 42.5599 32.9973 45.0198 34.1589C47.4172 35.291 48.5216 35.5502 50.9511 35.5511C52.0505 35.5514 52.7535 35.504 53.3193 35.3915C54.4975 35.1572 55.3439 34.876 55.5269 34.6579C55.7379 34.4064 55.7342 33.9018 55.52 33.704C55.2793 33.4818 55.0178 33.4935 54.0323 33.7709C52.3981 34.2309 50.3676 34.303 48.6076 33.9634C47.634 33.7757 47.1909 33.6145 45.5245 32.8424C42.8342 31.5961 42.1392 31.4369 39.385 31.4369H37.3844L37.3845 23.913V16.389L37.1422 16.1945C36.9017 16.0015 36.8447 16 29.6879 16H22.476L22.2503 16.2304ZM43.92 18.3408C43.8216 18.4412 43.7154 18.684 43.6838 18.8804C43.6524 19.0768 43.6075 19.3438 43.5842 19.4736C43.5609 19.6035 43.3364 20.0179 43.0853 20.3946C42.4949 21.2805 42.3118 21.9147 42.3776 22.8457C42.4358 23.6702 42.5818 24.0616 43.1421 24.8965C43.6284 25.6211 43.6714 25.7699 43.6224 26.5557C43.5888 27.0942 43.5361 27.2318 43.1335 27.833C42.347 29.0074 42.1208 30.1311 42.5771 30.5966C43.0694 31.099 43.6255 30.7844 43.7378 29.9396C43.7856 29.5805 43.9119 29.2313 44.1086 28.9145C44.8735 27.6825 44.9617 27.4521 45.0027 26.5797C45.0523 25.5208 44.9296 25.0853 44.3166 24.1456C43.7859 23.332 43.6849 22.9966 43.7529 22.2744C43.7862 21.9207 43.8892 21.6697 44.1647 21.2709C44.7788 20.3816 44.9516 19.9578 44.9985 19.2257C45.0363 18.6356 45.0183 18.5334 44.846 18.3577C44.6006 18.1072 44.1569 18.0991 43.92 18.3408ZM50.0773 18.346C49.9715 18.454 49.8916 18.6633 49.8893 18.8387C49.8832 19.2952 49.6887 19.7699 49.2175 20.4777C48.691 21.2687 48.4681 22.0798 48.5452 22.9232C48.6082 23.6108 48.81 24.1166 49.3385 24.9105C50.0299 25.9493 50.0396 26.7468 49.3729 27.7469C48.8738 28.496 48.6127 29.1363 48.5476 29.7711C48.4936 30.299 48.5068 30.3593 48.7272 30.5841C48.8607 30.7204 49.0698 30.827 49.2035 30.827C49.5411 30.827 49.8924 30.4372 49.8974 30.057C49.9032 29.6098 50.0846 29.166 50.5164 28.5422C51.0445 27.7794 51.2276 27.189 51.2192 26.2757C51.2114 25.4242 51.0627 24.9982 50.4553 24.0855C49.7294 22.995 49.7206 22.2233 50.4218 21.1816C50.9192 20.4427 51.1573 19.8536 51.2354 19.1688C51.283 18.75 51.2611 18.6351 51.0917 18.4164C50.8433 18.0959 50.3557 18.062 50.0773 18.346ZM56.2861 18.3456C56.1947 18.4486 56.0828 18.7753 56.0372 19.0716C55.9746 19.4796 55.8325 19.8024 55.453 20.4002C54.8548 21.3423 54.7334 21.73 54.7439 22.6628C54.7534 23.4996 54.9038 23.9638 55.4139 24.7302C55.9099 25.4755 56.0558 25.8479 56.0558 26.3695C56.0558 26.8943 55.9193 27.2392 55.4302 27.9505C54.4894 29.3186 54.4773 30.827 55.4071 30.827C55.7592 30.827 56.0311 30.48 56.0963 29.9475C56.1378 29.6087 56.2632 29.2722 56.4728 28.9368C56.6457 28.6603 56.9227 28.1595 57.0883 27.824C57.3619 27.2698 57.3894 27.1368 57.3894 26.3695C57.3894 25.3862 57.2881 25.0778 56.6237 24.0395C55.904 22.9145 55.9041 22.2183 56.6242 21.1364C57.1278 20.3797 57.3345 19.8697 57.3997 19.2228C57.4474 18.7502 57.4273 18.6388 57.2546 18.4164C57.0067 18.0973 56.5368 18.0629 56.2861 18.3456ZM26.3699 39.8509C25.6096 39.94 24.7465 40.3818 24.15 40.9872C23.2328 41.9183 22.9001 42.815 22.9619 44.1895C22.9947 44.9193 23.0454 45.1395 23.3086 45.6982C24.2789 47.7574 26.6562 48.6348 28.6904 47.6848C29.3165 47.3923 30.1877 46.5647 30.5147 45.9518C30.7987 45.4194 31.0382 44.5424 31.0382 44.0346C31.0382 43.603 30.7113 43.2141 30.3483 43.2141C30.0021 43.2141 29.6585 43.6039 29.6585 43.9967C29.6585 45.7029 27.8713 47.0424 26.2404 46.5587C24.2459 45.9671 23.6412 43.3665 25.1661 41.9384C25.6092 41.5235 26.1357 41.2893 26.8369 41.1954C27.0874 41.1619 27.3575 41.0573 27.4577 40.9551C27.7941 40.6119 27.6043 39.9017 27.1548 39.821C27.0395 39.8004 26.6863 39.8138 26.3699 39.8509Z" fill="#8BC1AC"/>
</svg>
