<svg width="80" height="80" viewBox="0 0 80 80" fill="none" xmlns="http://www.w3.org/2000/svg">
<path fill-rule="evenodd" clip-rule="evenodd" d="M27.366 16.1288C24.5801 16.5071 21.5284 18.0195 19.2206 20.1657C17.1851 22.0587 15.3901 25.4838 14.7313 28.7324C14.5088 29.8291 14.5113 33.5547 14.7354 35.1102C14.9469 36.577 15.2183 37.0278 15.89 37.0278C16.5948 37.0278 16.9248 36.5973 16.8375 35.7917C16.4044 31.7929 16.3984 30.6748 16.8002 28.6985C17.8053 23.754 21.6146 19.6701 26.3218 18.4902C30.871 17.35 35.4134 18.7926 38.7795 22.4466C39.9009 23.6638 40.0847 23.6638 41.2061 22.4466C45.7193 17.5473 52.4756 16.6954 57.7285 20.3634C60.435 22.2532 62.3333 25.101 63.1349 28.4736C63.3727 29.4738 63.4282 30.1054 63.4274 31.7996C63.4263 34.3129 63.1 36.4785 62.3611 38.8769L62.1565 39.5409L57.551 39.5043L52.9458 39.4676L51.7101 35.8427C51.0306 33.849 50.3613 32.0977 50.223 31.9506C49.9109 31.6192 49.2237 31.603 48.9206 31.92C48.775 32.0726 48.0978 34.649 47.0178 39.1582C46.0957 43.0091 45.3054 46.0656 45.2614 45.9506C45.2176 45.8355 44.2218 41.6948 43.0486 36.7489C41.16 28.7866 40.8772 27.7205 40.5797 27.4428C40.1678 27.0583 39.863 27.0465 39.4363 27.3987C39.1586 27.6279 38.7729 28.8706 36.8636 35.6899C35.6282 40.1017 34.5755 43.6662 34.5241 43.6111C34.4728 43.5559 33.7322 41.4717 32.8785 38.9796C32.0246 36.4875 31.2169 34.3282 31.0834 34.1813C30.9459 34.0299 30.6619 33.9142 30.4275 33.9142C30.1953 33.9142 29.9053 34.0311 29.7655 34.1813C29.6288 34.3282 29.1147 35.5151 28.6231 36.8187C28.1316 38.1222 27.6715 39.2673 27.6008 39.363C27.5005 39.4988 25.7767 39.5373 19.7799 39.5373H12.0874L11.9668 39.2042C11.7617 38.6379 10.9925 37.8306 10.3928 37.5523C7.94314 36.415 5.36795 38.8148 6.13915 41.5161C6.35105 42.2582 7.18535 43.2184 7.86701 43.5046C8.58255 43.805 9.62729 43.805 10.3428 43.5046C10.9085 43.2672 11.9612 42.1701 11.9612 41.8181C11.9612 41.6658 12.4015 41.6286 14.1996 41.6286H16.438L17.2486 43.3365C18.9768 46.9779 21.2382 50.1504 24.6318 53.6941C27.0397 56.2087 29.3691 58.2496 32.0511 60.1944C35.7515 62.8776 39.6057 65.148 40.1962 64.9924C40.6564 64.8713 43.209 63.3954 45.174 62.1144C51.9583 57.6917 57.8427 51.8638 61.2282 46.2143C61.8533 45.1713 61.8958 44.8874 61.505 44.3661C61.2301 43.9993 60.5797 43.8651 60.241 44.1054C60.1616 44.1617 59.6583 44.8979 59.1227 45.7414C56.5754 49.7524 52.9147 53.699 48.5617 57.1274C46.3063 58.9038 43.4093 60.8664 40.891 62.3241L39.9957 62.8425L38.3004 61.841C36.1673 60.5813 32.5315 58.042 30.6394 56.491C26.4836 53.0839 23.4461 49.7537 20.9783 45.899C20.109 44.5409 18.7366 41.9749 18.7366 41.7074C18.7366 41.6711 20.9693 41.6227 23.6983 41.6001C27.5334 41.5682 28.7074 41.5176 28.8684 41.3772C29.042 41.2258 29.5079 40.1314 30.1856 38.2825C30.2913 37.9941 30.3332 37.9714 30.4287 38.1502C30.4921 38.2692 31.2687 40.465 32.1546 43.0299C33.0403 45.5948 33.8777 47.8136 34.0153 47.9605C34.1556 48.1103 34.4471 48.2277 34.6787 48.2277C34.9115 48.2277 35.2002 48.111 35.3394 47.9605C35.4967 47.7906 36.3416 44.9788 37.6609 40.2344C38.8015 36.132 39.7781 32.6641 39.8307 32.5279C39.8909 32.3727 40.7613 35.7867 42.1658 41.6864C43.8328 48.6894 44.4697 51.1539 44.6584 51.3331C44.9945 51.6523 45.6589 51.639 45.9714 51.3066C46.149 51.1177 46.6939 49.0571 47.8303 44.2775C49.7617 36.1535 49.6937 36.4265 49.7685 36.5051C49.8016 36.5398 50.1811 37.5894 50.6118 38.8374C51.0425 40.0855 51.492 41.2084 51.6105 41.3327C51.8036 41.5355 52.6633 41.5629 59.9251 41.5979C66.5557 41.6298 68.0244 41.6704 68.0244 41.8222C68.0244 42.1708 69.0803 43.2684 69.6427 43.5046C70.759 43.9733 72.1632 43.7242 72.9898 42.9108C73.5302 42.3792 74 41.264 74 40.5132C74 39.7625 73.5302 38.6473 72.9898 38.1157C72.1443 37.2838 70.6905 37.0427 69.5928 37.5523C68.9931 37.8306 68.2239 38.6379 68.0188 39.2042C67.8997 39.5327 67.8733 39.5373 66.1013 39.5373C65.1131 39.5373 64.3045 39.5115 64.3045 39.48C64.3045 39.4485 64.4521 38.8369 64.6324 38.1207C65.361 35.228 65.6459 32.0712 65.3817 29.8228C64.639 23.5028 60.4573 18.3401 54.6728 16.6017C49.7146 15.1116 44.2744 16.4995 40.5662 20.201L40.0103 20.7558L39.1712 19.9588C36.0134 16.9592 31.6584 15.5463 27.366 16.1288ZM9.97151 39.7821C10.7197 40.7804 9.70315 42.082 8.61988 41.5124C7.78398 41.073 7.77614 39.9578 8.6058 39.5213C9.14464 39.2378 9.6334 39.3311 9.97151 39.7821ZM71.8127 39.8616C72.5898 41.0259 70.9588 42.3243 70.0503 41.2646C69.6794 40.8319 69.6675 40.2447 70.0198 39.7746C70.4583 39.1895 71.3945 39.2349 71.8127 39.8616Z" fill="#E86851"/>
</svg>
