<svg width="80" height="80" viewBox="0 0 80 80" fill="none" xmlns="http://www.w3.org/2000/svg">
<path fill-rule="evenodd" clip-rule="evenodd" d="M43.0104 14.0687C40.6724 14.3841 38.2609 15.3753 36.3675 16.799C35.6239 17.3582 34.3849 18.5618 33.8594 19.2353L33.5798 19.5939L33.1157 19.2666C32.4074 18.7674 31.2671 18.238 30.3404 17.9783C29.2466 17.6718 27.1275 17.6493 26.0763 17.9332C23.5432 18.6174 21.5471 20.256 20.4372 22.5627C19.8211 23.8433 19.6918 24.4803 19.7143 26.1265C19.7252 26.924 19.7486 27.7097 19.7663 27.8727C19.7968 28.1529 19.7605 28.1815 19.0917 28.404C14.4636 29.9435 11.8962 35.0054 13.4583 39.51C14.5112 42.5463 16.8521 44.6201 20.115 45.4074C20.7523 45.5612 21.4648 45.5864 25.3087 45.5914L29.7637 45.5972L30.0513 45.3152C30.4219 44.9519 30.4415 44.4155 30.0973 44.0559L29.8558 43.8036L25.4074 43.7567C21.8127 43.7188 20.8376 43.6785 20.326 43.5467C16.9678 42.6811 14.7133 39.6942 14.9231 36.3885C15.0408 34.535 15.6911 33.1381 17.0564 31.8069C18.1201 30.7696 19.2079 30.205 20.714 29.9085C22.1927 29.6173 22.2545 29.4818 21.7516 27.6326C21.1645 25.4745 21.8371 23.097 23.495 21.4696C26.0063 19.0045 29.9918 18.9352 32.6616 21.3103C33.267 21.8488 33.4162 21.932 33.776 21.932C34.2328 21.932 34.1464 22.0149 35.3537 20.4177C39.5891 14.814 48.0316 14.2803 53.1374 19.2931C54.5739 20.7035 55.6825 22.6105 56.2202 24.5961C56.4543 25.4603 56.4991 25.8662 56.526 27.3662C56.5456 28.4642 56.6044 29.2098 56.6825 29.3531C56.8609 29.6801 57.2161 29.78 58.4147 29.8396C60.1333 29.9253 61.5572 30.5104 62.8103 31.6459C66.9423 35.3901 65.1838 42.1212 59.7015 43.5453C59.1412 43.6909 58.1642 43.7212 52.8605 43.7572L46.6733 43.7994L46.4298 44.0538C46.0838 44.4154 46.1023 44.9508 46.4734 45.3152L46.7606 45.5972L52.0601 45.6277C58.1819 45.6628 59.3968 45.5938 60.8092 45.1314C67.1791 43.0456 69.0971 35.1789 64.3675 30.5364C62.97 29.1646 61.2801 28.3258 59.321 28.0313L58.4954 27.9074L58.4395 26.758C58.1404 20.6119 53.6 15.483 47.3363 14.2156C46.3171 14.0094 44.0266 13.9316 43.0104 14.0687ZM26.0024 29.0578C24.9489 29.4269 24.2034 30.1008 23.7266 31.1154C23.5357 31.5215 23.4915 31.8007 23.4915 32.5995C23.4915 33.4837 23.5231 33.6446 23.8032 34.1879C24.367 35.2817 25.4786 36.0588 26.7837 36.2721C27.2659 36.3508 28.2741 36.1858 28.7375 35.9524L29.0249 35.8076L30.9796 38.1074L32.9343 40.4073V45.3066V50.206H30.0822C27.0525 50.206 26.6447 50.2616 26.4012 50.7083C26.2047 51.0688 26.2666 51.5415 26.5463 51.8159L26.8052 52.0702H30.497H34.1886L34.4847 51.8203L34.7807 51.5704L34.8129 45.9946C34.8305 42.928 34.8171 40.2324 34.7831 40.0046C34.7308 39.6555 34.3833 39.1925 32.575 37.0626L30.4288 34.5351L30.6987 33.9564C31.0555 33.1914 31.0662 32.0989 30.7255 31.2275C30.4187 30.443 29.6446 29.619 28.8551 29.2366C28.0455 28.8446 26.8288 28.7683 26.0024 29.0578ZM48.6267 29.1155C48.2919 29.254 47.8498 29.4933 47.6443 29.6472C47.1604 30.0095 46.5792 30.7863 46.4234 31.279L46.3005 31.6674H41.7756H37.2506L36.9917 31.9216L36.7327 32.1758V44.4533V56.7307H27.2369H17.7411V55.2948V53.859L18.2217 53.6788C19.3586 53.2526 20.3927 51.8875 20.5456 50.6108C20.6779 49.5053 20.0949 48.0887 19.2338 47.4237C18.366 46.7535 17.9927 46.6328 16.7915 46.6337C15.8288 46.6344 15.6145 46.6679 15.1561 46.8893C14.4432 47.2337 13.6733 48.0108 13.3312 48.7316C13.0906 49.2385 13.0495 49.4623 13.0511 50.2577C13.0528 51.0637 13.0928 51.2703 13.3466 51.7841C13.7275 52.5548 14.4348 53.241 15.2161 53.5978L15.8397 53.8826L15.8409 55.8831C15.8419 57.9031 15.8872 58.1851 16.2548 58.4621C16.4814 58.6329 37.7961 58.6532 38.1201 58.4831C38.6445 58.2076 38.6318 58.5251 38.6318 45.6005V33.5316H42.4635H46.2951L46.5296 34.0868C47.3211 35.9615 49.7801 36.8297 51.6481 35.8943C52.2892 35.5732 53.0542 34.8075 53.3748 34.166C53.6304 33.6544 53.666 33.4633 53.6664 32.5995C53.6667 31.7491 53.6286 31.5355 53.3851 31.0257C52.7706 29.7389 51.5635 28.9624 50.0795 28.8993C49.3699 28.8692 49.1385 28.9036 48.6267 29.1155ZM28.0851 30.9445C28.5415 31.173 28.9721 31.7398 29.0801 32.2542C29.1849 32.7536 28.969 33.3832 28.6058 33.637C28.4332 33.7577 28.292 33.9175 28.292 33.9922C28.292 34.1958 27.6708 34.4128 27.1123 34.4045C26.1681 34.3904 25.3377 33.5509 25.3377 32.6104C25.3377 31.1937 26.8054 30.3037 28.0851 30.9445ZM50.6896 30.8779C52.3634 31.5808 52.084 34.0748 50.2947 34.4044C49.0484 34.6339 47.8357 33.4091 48.1124 32.2003C48.3742 31.0566 49.6079 30.4235 50.6896 30.8779ZM42.1219 35.56C41.0566 35.9397 40.1631 36.7775 39.7959 37.7406C39.5002 38.5165 39.5059 39.643 39.8095 40.4408C40.1004 41.205 41.0919 42.2134 41.8192 42.485L42.3162 42.6705L42.3468 47.1205L42.3774 51.5705L42.6734 51.8203L42.9695 52.0702H53.7583C64.4505 52.0702 64.5492 52.0683 64.7768 51.8601C65.2824 51.3978 65.1899 50.6844 64.5858 50.3874C64.2431 50.2188 63.5274 50.2063 54.2207 50.2062L44.2238 50.206V46.4828V42.7597L44.8926 42.4464C45.6692 42.0825 46.4478 41.3234 46.7899 40.5967C46.9776 40.1978 47.0198 39.918 47.0198 39.0724C47.0198 38.0894 47.0014 38.0035 46.6582 37.3821C46.2516 36.6461 45.6182 36.0465 44.8796 35.6989C44.2214 35.3891 42.802 35.3175 42.1219 35.56ZM44.2938 37.5234C45.3901 38.154 45.488 39.7804 44.4753 40.5386C43.0563 41.6009 41.1283 40.3869 41.5056 38.6685C41.7728 37.4513 43.1706 36.8772 44.2938 37.5234ZM17.6494 48.6117C18.3028 48.9338 18.7805 49.8587 18.649 50.5469C18.4889 51.3844 17.8193 51.9778 16.9547 52.0482C16.233 52.1069 15.8506 51.9605 15.3742 51.4429C14.0038 49.9539 15.8108 47.7053 17.6494 48.6117ZM43.0104 54.9627C42.3676 55.2261 42.2033 55.9996 42.6892 56.4765L42.9481 56.7307H47.1127H51.2774L53.086 59.8368C54.0807 61.5451 54.9969 63.0132 55.1219 63.0992C55.3151 63.2319 55.9648 63.2555 59.4486 63.2555H63.5481L63.8566 62.9527C64.2431 62.5733 64.2624 62.1355 63.9105 61.7336L63.6559 61.443L59.9118 61.4134L56.1677 61.3838L54.4424 58.4119C53.4936 56.7774 52.6146 55.3226 52.489 55.1792L52.2609 54.9183L47.7411 54.8973C45.2553 54.8858 43.1265 54.9152 43.0104 54.9627ZM43.4584 58.7015C42.3452 58.9755 41.3476 59.778 40.8702 60.7834L40.5837 61.3868L28.9422 61.415L17.3008 61.443L17.0461 61.7336C16.694 62.1355 16.7133 62.5733 17.0999 62.9527L17.4083 63.2555L28.996 63.2572L40.5837 63.259L40.8341 63.8267C41.1962 64.6477 41.793 65.2608 42.6182 65.6596C43.2567 65.9682 43.4116 66 44.2743 66C45.0882 66 45.3143 65.9594 45.8349 65.72C46.615 65.3611 47.3997 64.5716 47.7125 63.8308L47.9554 63.2555H49.6098C51.2566 63.2555 51.2653 63.2542 51.5423 62.9825C51.9041 62.6273 51.9135 62.1305 51.566 61.7336L51.3117 61.443L49.6201 61.4101L47.9285 61.3772L47.7439 60.9023C47.475 60.2115 46.5752 59.3044 45.8353 58.9785C45.1476 58.6755 44.0728 58.5503 43.4584 58.7015ZM44.7744 60.5673C45.6087 60.7947 46.1229 61.4849 46.1229 62.377C46.1229 62.9523 45.9379 63.3279 45.4447 63.7528C44.2632 64.7712 42.4058 63.8966 42.4058 62.322C42.4058 61.553 42.8273 60.9494 43.5915 60.6241C44.0327 60.4364 44.2549 60.4257 44.7744 60.5673Z" fill="#9BBA52"/>
</svg>
