<svg width="80" height="80" viewBox="0 0 80 80" fill="none" xmlns="http://www.w3.org/2000/svg">
<path fill-rule="evenodd" clip-rule="evenodd" d="M30.8138 14.1539C25.7086 14.9881 21.6008 18.3891 19.8943 23.1945C19.7157 23.6974 19.4738 24.5432 19.3568 25.074C19.1507 26.0088 19.1429 26.343 19.1066 35.7048L19.0691 45.3704L18.1963 46.0168C16.0766 47.5868 14.5614 49.921 14.1573 52.239C14.0271 52.9855 14 54.1839 14 59.1781C14 65.7659 13.9909 65.6601 14.5793 65.9028C14.791 65.9902 19.4856 66.0132 33.0279 65.9934L51.1924 65.9666L51.4375 65.6816L51.6826 65.3965L51.6819 59.027C51.6812 53.006 51.67 52.6111 51.4778 51.8087C51.3658 51.3418 51.1319 50.6353 50.9579 50.2388L50.6415 49.5178L50.6898 47.5825C50.7337 45.8197 50.7623 45.5759 51.0112 44.8457C51.5361 43.3061 52.2999 42.3621 53.8207 41.3732C56.4155 39.6858 57.679 37.5146 57.8464 34.4548L57.9086 33.3205L58.5643 33.1557C60.9448 32.5576 62.8339 30.7808 63.6438 28.378L63.9185 27.5631L63.9509 21.7975L63.9834 16.0319H64.5925C65.2968 16.0319 65.7107 15.8535 65.8827 15.476C66.0892 15.0227 66.0282 14.715 65.6587 14.3454L65.3134 14H56.9303C51.8485 14 48.4467 14.0382 48.2919 14.097C47.9467 14.2284 47.6808 14.6616 47.6808 15.0928C47.6808 15.3646 47.7576 15.5167 48.0074 15.74C48.2952 15.9972 48.4115 16.0319 48.9857 16.0319H49.6375L49.6761 21.6959C49.7138 27.2243 49.7202 27.3781 49.9439 28.1203C50.7177 30.6885 52.6416 32.5444 55.1757 33.1675L55.8756 33.3396L55.813 34.3628C55.6631 36.8133 54.7723 38.3093 52.6156 39.7329C50.2342 41.3047 48.9714 43.3952 48.6874 46.2357L48.6185 46.9255L48.2371 46.5808C48.0272 46.3912 47.574 46.0375 47.2299 45.7947L46.6041 45.3533L46.6037 35.9502C46.6034 28.1798 46.5775 26.3879 46.4545 25.6298C45.7518 21.2963 43.1381 17.6657 39.1895 15.5386C38.3295 15.0753 36.5934 14.467 35.5014 14.2463C34.4007 14.0239 31.9101 13.9748 30.8138 14.1539ZM34.6496 16.1832C39.6262 16.9336 43.6194 20.8764 44.4233 25.8337C44.5455 26.5877 44.572 28.3136 44.5723 35.5584L44.5727 44.3664L44.0049 44.171C42.7986 43.7559 42.0236 43.6516 39.7227 43.5945L37.4628 43.5384V41.9344V40.3304L38.2499 39.7774C40.4265 38.2484 41.9449 35.8849 42.3898 33.3333C42.6059 32.0931 42.607 26.4498 42.3912 25.7228C42.0791 24.6714 41.2281 23.7631 40.2052 23.3896C39.8758 23.2693 39.1806 23.2002 37.7167 23.1423C34.7979 23.027 32.6759 22.5589 30.3773 21.5237C29.8742 21.2972 29.3773 21.112 29.2729 21.1123C28.9103 21.1133 28.5067 21.4708 28.1865 22.0746C27.7746 22.8511 27.4114 23.0949 26.5466 23.1757C24.8495 23.3343 23.5551 24.4979 23.2522 26.1372C23.111 26.9013 23.1079 31.432 23.2477 32.7945C23.483 35.0886 24.4281 37.0564 26.0781 38.688C26.5019 39.1071 27.1571 39.6496 27.5343 39.8936L28.2199 40.3374V41.9378V43.5384L25.9599 43.5946C23.6761 43.6514 22.7394 43.7825 21.5416 44.2132L21.1099 44.3683L21.1102 35.8134C21.1105 26.7841 21.1384 26.1178 21.5807 24.566C22.7892 20.3264 26.5379 16.9255 30.7591 16.2391C31.1781 16.1709 31.5895 16.1018 31.6733 16.0854C32.1212 15.9976 33.78 16.0521 34.6496 16.1832ZM61.9412 17.5559V19.0798H56.8119H51.6826V17.5559V16.0319H56.8119H61.9412V17.5559ZM61.9397 23.9311C61.9386 26.0862 61.9021 26.9037 61.7848 27.4013C61.0942 30.3322 58.0078 32.0391 55.1668 31.0613C54.4008 30.7977 53.7417 30.3616 53.1382 29.7192C52.5137 29.0544 52.2684 28.652 51.9784 27.8171C51.7665 27.2071 51.7456 26.9377 51.7045 24.2879C51.68 22.7101 51.6865 21.3499 51.7189 21.2654C51.7704 21.1311 52.4177 21.1118 56.8596 21.1118H61.9412L61.9397 23.9311ZM56.596 23.2212C56.1479 23.2936 55.9017 23.713 55.847 24.4977L55.7962 25.2264L55.0854 25.257C54.4788 25.2832 54.3335 25.327 54.095 25.5554C53.8775 25.7639 53.8156 25.9172 53.8156 26.2476C53.8156 26.9732 54.3179 27.3092 55.4027 27.3092H55.847V27.9617C55.847 28.5088 55.8879 28.6629 56.0998 28.9149C56.4034 29.2758 56.7987 29.3705 57.2368 29.1875C57.6627 29.0095 57.8784 28.5674 57.8784 27.873V27.3092L58.3609 27.3035C59.1042 27.2946 59.5249 27.1095 59.7478 26.6935C59.9787 26.2625 59.9163 25.8841 59.5549 25.5225C59.3421 25.3096 59.2151 25.2772 58.594 25.2772H57.8784L57.878 24.6422C57.8778 24.1886 57.8202 23.913 57.6764 23.6771C57.5657 23.4955 57.4627 23.3469 57.4476 23.3469C57.4324 23.3469 57.2832 23.3108 57.1159 23.2666C56.9488 23.2225 56.7147 23.2021 56.596 23.2212ZM30.8096 23.903C32.9383 24.7005 34.9538 25.0754 37.5823 25.1631C39.6846 25.2332 39.7905 25.2659 40.2885 25.9977L40.524 26.344L40.4829 29.6967C40.4369 33.4449 40.4119 33.6144 39.6889 35.0897C38.9377 36.6226 37.6379 37.9221 36.0916 38.6862C34.9876 39.2318 34.0957 39.4314 32.7905 39.4252C29.3196 39.4083 26.3848 37.1274 25.4543 33.7236C25.2665 33.0366 25.2372 32.5889 25.1975 29.8135C25.1581 27.0478 25.1731 26.6264 25.3243 26.2305C25.5779 25.5661 25.9953 25.2967 26.9606 25.1744C27.9751 25.0459 28.6736 24.7078 29.2474 24.0676C29.4922 23.7943 29.732 23.5661 29.7802 23.5604C29.8283 23.5548 30.2916 23.7089 30.8096 23.903ZM28.5944 28.6101C28.3407 28.8749 28.3214 28.9579 28.3214 29.782C28.3214 30.8021 28.4519 31.0966 28.9812 31.2713C29.3873 31.4053 29.9654 31.2095 30.1429 30.8777C30.4766 30.2541 30.3863 28.9959 29.9787 28.588C29.5997 28.209 28.9688 28.219 28.5944 28.6101ZM35.7283 28.6221C35.4464 28.9041 35.4314 28.9629 35.4314 29.7888C35.4314 30.5962 35.4516 30.6812 35.7134 30.9744C36.0474 31.3482 36.5712 31.4131 36.9979 31.1334C37.3542 30.9 37.4628 30.5853 37.4628 29.7866C37.4628 28.7491 37.1531 28.3251 36.3952 28.3251C36.1216 28.3251 35.9478 28.4025 35.7283 28.6221ZM31.503 34.1152C30.2219 34.4511 29.845 34.7578 29.845 35.4641C29.845 35.7392 29.9165 35.924 30.0902 36.0978C30.4627 36.4704 30.7893 36.5083 31.4494 36.2557C32.3978 35.8926 33.1101 35.8752 34.0506 36.1917C34.9362 36.4898 35.2821 36.4734 35.6142 36.1174C36.1755 35.5159 35.9344 34.7853 35.0442 34.3891C33.9221 33.8898 32.7181 33.7966 31.503 34.1152ZM34.8839 44.7481C34.1855 45.4037 33.5349 45.6434 32.6466 45.5721C31.8729 45.5099 31.2876 45.2197 30.7011 44.6075L30.2513 44.1378V42.6694V41.2012L30.683 41.2659C32.5771 41.5501 33.6615 41.5454 35.0251 41.2465L35.3806 41.1685L35.4109 42.6968L35.4412 44.225L34.8839 44.7481ZM29.3906 46.186C30.1493 46.8815 30.8047 47.2588 31.626 47.4727C33.2937 47.9072 35.0069 47.4354 36.3114 46.1824L36.9435 45.5752L39.3615 45.6213C41.5495 45.663 41.8713 45.692 42.7444 45.9268C45.5822 46.69 47.9277 48.5328 49.0056 50.8458C49.6418 52.2111 49.6481 52.2846 49.6497 58.4231L49.6512 63.9855H47.6198H45.5884V60.2186V56.4517L45.2915 56.1548C44.9745 55.8377 44.4463 55.7553 44.0593 55.9624C43.5808 56.2186 43.557 56.4245 43.557 60.323V63.9855H32.8413H22.1256V60.2186V56.4517L21.8288 56.1548C21.3083 55.6342 20.4391 55.8131 20.2034 56.4892C20.1335 56.6898 20.0942 58.0949 20.0942 60.394V63.9855H18.0628H16.0314V58.5966C16.0314 52.5403 16.0556 52.2729 16.7351 50.8288C17.7458 48.6807 19.977 46.8454 22.5319 46.0605C23.7486 45.6868 24.3347 45.6229 26.6808 45.6089L28.7473 45.5965L29.3906 46.186ZM29.2356 49.7759C27.9146 49.9874 26.6754 50.9612 26.0641 52.2679C25.426 53.6319 25.6046 55.3004 26.5178 56.5055C26.9844 57.1212 32.2321 61.79 32.5827 61.9013C32.6995 61.9383 32.9221 61.9408 33.0773 61.9067C33.4362 61.8279 38.8588 57.0457 39.2702 56.4451C39.8241 55.6366 40.0319 54.8689 39.9852 53.8041C39.9333 52.6217 39.5662 51.7547 38.7881 50.9763C38.0315 50.2196 37.142 49.8335 36.0326 49.7805C34.9894 49.7306 34.3339 49.8935 33.4627 50.4189L32.8653 50.7793L32.4069 50.4756C31.4679 49.8534 30.3252 49.6014 29.2356 49.7759ZM30.4452 51.8014C30.8492 51.8881 31.1006 52.0422 31.6683 52.5514C32.7096 53.4854 33.0326 53.4916 33.9791 52.5962C34.6325 51.9782 35.048 51.7939 35.7887 51.7939C37.0327 51.7939 37.9706 52.7392 37.9706 53.9929C37.9706 54.9903 37.8057 55.2009 35.2717 57.4393C34.0108 58.5531 32.9433 59.4775 32.8994 59.4934C32.8251 59.5205 29.6899 56.8103 28.5891 55.7673C28.3173 55.5097 28.0097 55.1161 27.9057 54.8926C27.3228 53.6406 28.0948 52.127 29.4895 51.7873C29.9214 51.6822 29.8867 51.6817 30.4452 51.8014Z" fill="#8BC1AC"/>
</svg>
