<svg width="80" height="80" viewBox="0 0 80 80" fill="none" xmlns="http://www.w3.org/2000/svg">
<path fill-rule="evenodd" clip-rule="evenodd" d="M37.3125 14.1404C33.9535 14.5056 30.2334 15.7816 27.3107 17.5712C22.3895 20.5846 18.5994 25.3026 16.5782 30.9307C16.0249 32.4721 15.9984 32.9923 16.4544 33.3655C17.2363 34.0055 17.8159 33.5702 18.3665 31.9294C22.8944 18.4388 37.9538 12.1963 50.3302 18.68C57.6012 22.4891 62.2984 29.8504 62.9432 38.447L63.0261 39.5525L61.7188 38.2194C60.6125 37.0915 60.3499 36.8864 60.0125 36.8864C59.4746 36.8864 59 37.3847 59 37.9496C59 38.3269 59.2546 38.6391 61.285 40.7516C63.3626 42.9132 63.609 43.1289 64 43.1289C64.391 43.1289 64.6374 42.9132 66.715 40.7516C68.7454 38.6391 69 38.3269 69 37.9496C69 37.3847 68.5254 36.8864 67.9875 36.8864C67.6502 36.8864 67.3918 37.0881 66.3121 38.1935L65.0354 39.5006L64.9497 38.3561C64.4785 32.0532 62.1423 26.543 58.0397 22.0577C52.7253 16.2474 45.0166 13.3028 37.3125 14.1404ZM29.6998 23.6535C29.2859 24.039 25 31.826 25 32.1924C25 32.3484 25.93 34.1681 27.0667 36.2361L29.1335 39.996L27.0667 43.7559C25.93 45.8239 25 47.6425 25 47.7973C25 48.1681 29.2855 55.9838 29.6961 56.3618C30.0131 56.6537 30.0252 56.6544 34.5011 56.6544C37.4524 56.6544 39.0899 56.6063 39.285 56.5137C39.4897 56.4167 40.2184 55.2168 41.6346 52.6446L43.6875 48.9163L47.903 48.8513C51.9086 48.7895 52.1306 48.7734 52.3643 48.5261C52.7545 48.1135 57 40.3022 57 39.997C57 39.6338 52.7094 31.8341 52.302 31.4567C51.988 31.1659 51.9598 31.1641 47.8368 31.1594L43.6875 31.1548L41.6413 27.4016C40.1936 24.7465 39.5062 23.6064 39.2916 23.5047C39.088 23.4082 37.5128 23.3609 34.5011 23.3609C30.0241 23.3609 30.0133 23.3615 29.6998 23.6535ZM40.1434 28.8517L41.9881 32.1965L40.1452 35.5494L38.3024 38.9022H34.5714H30.8405L28.9985 35.5487L27.1566 32.1952L28.7125 29.3711C29.5681 27.8179 30.4076 26.2976 30.578 25.9925L30.8878 25.4378L34.5931 25.4723L38.2985 25.5067L40.1434 28.8517ZM32.0252 27.7502C31.6062 28.1278 29.625 31.8337 29.625 32.2396C29.625 33.0446 30.6998 33.5573 31.2301 33.0055C31.3568 32.8737 31.849 32.0549 32.3239 31.1858L33.1875 29.6056L35.0369 29.6046C36.8331 29.6034 36.8951 29.5942 37.1931 29.2841C37.3866 29.0829 37.5 28.8163 37.5 28.563C37.5 28.3096 37.3866 28.043 37.1931 27.8418C36.8896 27.5259 36.862 27.5226 34.582 27.5226C32.5669 27.5226 32.246 27.5512 32.0252 27.7502ZM53.007 36.6516L54.8461 39.9934L53.0029 43.3494L51.1595 46.7054H47.4286H43.6976L41.8579 43.3583L40.0182 40.0113L41.8529 36.6298L43.6875 33.2483L47.4277 33.2791L51.1679 33.3099L53.007 36.6516ZM44.8924 35.6834C44.4795 36.1199 42.5 39.7403 42.5 40.059C42.5 40.3986 43.1823 41.0481 43.539 41.0481C44.0281 41.0481 44.3236 40.6972 45.2361 39.0323L46.0914 37.4716L47.827 37.44C48.7815 37.4226 49.688 37.3779 49.8415 37.3405C50.1968 37.2543 50.5448 36.5693 50.4445 36.1538C50.4027 35.9808 50.2576 35.7238 50.1219 35.5826C49.8937 35.3453 49.6984 35.3257 47.5529 35.3257H45.2308L44.8924 35.6834ZM13.285 39.2638C11.2546 41.3762 11 41.6885 11 42.0657C11 42.6306 11.4746 43.1289 12.0125 43.1289C12.3497 43.1289 12.6082 42.9272 13.6879 41.8218L14.9646 40.5147L15.0503 41.6592C15.4466 46.96 17.1324 51.621 20.1679 55.8091C21.1448 57.1568 23.5302 59.6351 24.8475 60.6705C31.927 66.2352 41.1001 67.5356 49.257 64.1305C56.0611 61.2903 61.4017 55.4275 63.6916 48.2846C64.0897 47.0426 64.126 46.8267 63.9925 46.4915C63.815 46.0455 63.5322 45.86 63.03 45.86C62.4934 45.86 62.2188 46.2753 61.6964 47.8759C61.1086 49.6768 59.8678 52.1909 58.7775 53.7895C57.7598 55.282 55.5522 57.6924 54.1826 58.8068C45.8014 65.6261 34.2005 65.6222 25.8125 58.7971C24.6669 57.8648 22.7826 55.9127 21.9241 54.7687C19.0811 50.9798 17.4261 46.4913 17.0568 41.5683L16.9739 40.4628L18.2812 41.7959C19.3523 42.8878 19.6565 43.1289 19.9636 43.1289C20.4928 43.1289 21 42.6087 21 42.0661C21 41.6883 20.746 41.3769 18.715 39.2638C16.6374 37.1021 16.391 36.8864 16 36.8864C15.609 36.8864 15.3626 37.1021 13.285 39.2638ZM40.1555 44.4582L42.0035 47.8034L40.1499 51.1559L38.2964 54.5086H34.5693H30.8423L29.0494 51.2572C28.0634 49.469 27.2551 47.9207 27.2533 47.8166C27.2505 47.6552 28.2284 45.8231 30.3985 41.924L30.8883 41.0442L34.5979 41.0786L38.3075 41.1131L40.1555 44.4582ZM32.0256 43.3565C31.6146 43.7276 29.625 47.4548 29.625 47.8536C29.625 48.654 30.7033 49.16 31.2334 48.6084C31.3617 48.4749 31.8501 47.6556 32.3186 46.7877L33.1704 45.2098H35.0284C36.8344 45.2098 36.895 45.2008 37.1931 44.8905C37.6232 44.443 37.613 43.7605 37.1706 43.3985C36.8647 43.1482 36.6786 43.1289 34.5595 43.1289C32.5658 43.1289 32.2459 43.1577 32.0256 43.3565Z" fill="#9BBA52"/>
</svg>
