<svg width="80" height="80" viewBox="0 0 80 80" fill="none" xmlns="http://www.w3.org/2000/svg">
<path fill-rule="evenodd" clip-rule="evenodd" d="M39.9205 15.1529C39.56 15.3278 39.367 15.631 39.266 16.1807C39.1913 16.588 39.3801 16.5343 37.2728 16.7475C33.2805 17.1516 29.1647 18.7552 25.7887 21.2223C24.0119 22.5208 23.7419 22.9175 24.2769 23.4443C24.662 23.8238 24.9182 23.7524 25.883 22.9967C28.9647 20.5831 32.3669 19.0368 35.9803 18.4076C37.1576 18.2027 38.9463 18.0181 39.7579 18.018C40.3928 18.0179 40.5743 17.8842 40.7239 17.3065L40.844 16.8431L41.8848 17.8776L42.9256 18.9121L41.8843 19.8788L40.843 20.8456L40.7438 20.4602C40.5778 19.8148 40.4513 19.7524 39.3405 19.767C36.8171 19.8005 34.094 20.4162 31.5704 21.5243C25.5514 24.167 21.0776 29.717 19.8084 36.1157L19.6388 36.9705H19.1214C18.8366 36.9705 18.459 36.942 18.282 36.9071L17.9602 36.8437L18.0223 36.3225C18.1297 35.4221 18.7643 33.1628 19.239 31.9907C20.0521 29.9832 20.901 28.4865 22.1632 26.8348C23.1783 25.5066 23.1857 25.4921 23.0364 25.137C22.7885 24.5474 22.2449 24.5017 21.7348 25.0275C20.442 26.3602 18.6225 29.4111 17.7523 31.7055C17.0338 33.6 16.3972 36.2806 16.3972 37.4121C16.3972 38.1985 16.4561 38.225 18.6152 38.4053C20.3116 38.5471 20.4778 38.5467 20.704 38.4007C20.8649 38.2969 20.9708 38.1151 21.0106 37.875C21.2723 36.2938 21.5228 35.2098 21.8607 34.196C24.0081 27.7528 29.4542 22.9601 36.1922 21.5837C36.8201 21.4554 37.7537 21.3201 38.2669 21.2831L39.2 21.2156L39.267 21.6285C39.4019 22.4593 40.2002 22.9739 40.8973 22.6794C41.2981 22.5101 44.1049 19.8815 44.3176 19.4764C44.4821 19.1628 44.5049 18.724 44.3738 18.3906C44.2573 18.0949 41.4791 15.3819 41.0659 15.1604C40.6712 14.9489 40.3451 14.9467 39.9205 15.1529ZM50.0614 16.2062C49.8465 16.4178 49.818 16.5313 49.818 17.1728V17.8995L49.0149 17.9355C48.3157 17.9667 48.1874 18.0011 48.0232 18.2009C47.7673 18.5121 47.7843 18.9143 48.064 19.1733C48.2586 19.3533 48.4097 19.3857 49.0557 19.3857H49.818V20.1129C49.818 20.7294 49.8519 20.8774 50.0411 21.0848C50.3634 21.4382 50.7849 21.4616 51.1072 21.1441C51.2725 20.9813 51.3055 20.8185 51.3055 20.1672V19.3857H52.0989C53.0279 19.3857 53.289 19.2265 53.289 18.6601C53.289 18.1271 52.9386 17.9202 52.0359 17.9202H51.3055V17.1831C51.3055 16.5307 51.2776 16.4184 51.0621 16.2062C50.7519 15.9005 50.3716 15.9005 50.0614 16.2062ZM56.2713 21.4016C56.0867 21.6328 56.0658 21.7917 56.0658 22.9647V24.2703H54.7225C53.4284 24.2703 53.3702 24.2791 53.1357 24.5102C52.8945 24.7478 52.8923 24.7664 52.8923 26.5935C52.8923 28.9813 52.7968 28.8619 54.7085 28.8619H56.0658V30.1883V31.5147L56.3618 31.8063L56.6578 32.0979L58.4915 32.0675C60.8822 32.0277 60.7631 32.1223 60.8107 30.2271L60.845 28.8619H62.2167C64.0814 28.8619 63.9995 28.9682 63.9995 26.5486C63.9995 24.7692 63.9969 24.7474 63.756 24.5102C63.5218 24.2793 63.4628 24.2703 62.1788 24.2703H60.845L60.8107 22.8939C60.7645 21.0381 60.911 21.1441 58.3925 21.1441H56.4768L56.2713 21.4016ZM59.3384 23.9701C59.3384 25.3237 59.3398 25.3319 59.5997 25.5332C59.8345 25.7151 59.9957 25.7357 61.1865 25.7357H62.5119V26.5661V27.3965H61.1865C60.0002 27.3965 59.8339 27.4175 59.6024 27.5969C59.348 27.794 59.3434 27.8203 59.3163 29.1844L59.2888 30.5716H58.4459H57.6029L57.5533 29.1826C57.4886 27.3683 57.5764 27.4552 55.765 27.4135L54.3798 27.3818V26.5587V25.7357H55.7053C56.896 25.7357 57.0573 25.7151 57.292 25.5332C57.5519 25.3319 57.5533 25.3237 57.5533 23.9701V22.6095H58.4459H59.3384V23.9701ZM35.6003 24.6682L35.3389 24.8707V30.1391V35.4074H29.9909H24.6428L24.4373 35.6648C24.2368 35.9159 24.2318 36.0226 24.2318 39.999C24.2318 43.9755 24.2368 44.0821 24.4373 44.3332L24.6428 44.5906H29.9909H35.3389V49.859V55.1274L35.6003 55.3298C35.8551 55.5273 35.9634 55.5323 40 55.5323C44.0366 55.5323 44.1449 55.5273 44.3997 55.3298L44.6611 55.1274V49.859V44.5906H50.0091H55.3572L55.5627 44.3332C55.7632 44.0821 55.7682 43.9755 55.7682 39.999C55.7682 36.0226 55.7632 35.9159 55.5627 35.6648L55.3572 35.4074H53.6784C52.1319 35.4074 51.9841 35.4229 51.8014 35.6028C51.5061 35.8937 51.5369 36.4166 51.8644 36.6703C52.0923 36.8469 52.2632 36.8728 53.2032 36.8728H54.2807V39.999V43.1252H49.0788C45.4777 43.1252 43.8026 43.1586 43.6353 43.2337C43.5024 43.2934 43.3442 43.4493 43.2836 43.5802C43.2074 43.745 43.1735 45.3951 43.1735 48.9426V54.0669H40H36.8265V48.9426C36.8265 45.3951 36.7926 43.745 36.7164 43.5802C36.6558 43.4493 36.4976 43.2934 36.3647 43.2337C36.1974 43.1586 34.5223 43.1252 30.9212 43.1252H25.7193V39.999V36.8728H30.9212C34.5223 36.8728 36.1974 36.8394 36.3647 36.7644C36.4976 36.7047 36.6558 36.5488 36.7164 36.4179C36.7926 36.2531 36.8265 34.6029 36.8265 31.0555V25.9311H40H43.1735V31.0555C43.1735 34.6029 43.2074 36.2531 43.2836 36.4179C43.4778 36.8379 43.7222 36.8728 46.4584 36.8728H49.0399L49.3399 36.5773C49.5803 36.3404 49.6272 36.2289 49.5759 36.0156C49.4362 35.4337 49.3197 35.4074 46.8814 35.4074H44.6611V30.1391V24.8707L44.3997 24.6682C44.1449 24.4707 44.0366 24.4657 40 24.4657C35.9634 24.4657 35.8551 24.4707 35.6003 24.6682ZM59.2481 41.6354C59.0816 41.7699 58.9954 42.046 58.8438 42.9298C58.5039 44.9123 57.9452 46.6538 57.1442 48.2276C56.703 49.0943 56.6824 49.2541 56.9655 49.6087C57.2319 49.9424 57.7289 49.9601 58.0207 49.6463C58.6489 48.9709 59.7758 45.979 60.1916 43.8823L60.3612 43.0275H60.8786C61.1634 43.0275 61.5357 43.055 61.7061 43.0886C62.0962 43.1655 62.0994 43.2705 61.759 44.7743C61.0131 48.0675 59.4828 51.1911 57.3258 53.8227C56.9735 54.2525 56.1467 55.1191 55.4885 55.7483C51.4803 59.5801 46.6761 61.6219 40.9158 61.942C40.2468 61.9791 39.6312 62.0588 39.5478 62.1188C39.4644 62.1789 39.3421 62.4366 39.276 62.6915L39.1561 63.155L38.1152 62.1208L37.0744 61.0866L38.1157 60.1231L39.157 59.1597L39.2562 59.5415C39.4229 60.1832 39.55 60.2457 40.6595 60.231C44.8925 60.175 49.3543 58.5673 52.8349 55.8439C54.3177 54.6837 56.3633 52.4971 56.3633 52.0723C56.3633 51.6957 55.9995 51.3315 55.6235 51.3315C55.3336 51.3315 55.1914 51.444 54.4198 52.2839C52.4447 54.4341 50.8036 55.6885 48.4564 56.8423C46.4133 57.8466 43.839 58.5625 41.7141 58.7172L40.8002 58.7838L40.7331 58.3701C40.5981 57.5388 39.8 57.024 39.1027 57.3187C38.7019 57.488 35.8951 60.1165 35.6824 60.5216C35.5179 60.8352 35.4951 61.2741 35.6262 61.6074C35.7427 61.9031 38.5209 64.6162 38.9341 64.8377C39.3317 65.0507 39.6257 65.0536 40.0638 64.8489C40.4369 64.6745 40.6316 64.3747 40.734 63.8173C40.8088 63.41 40.623 63.4628 42.7272 63.2513C50.5233 62.4679 57.7478 57.4857 61.2848 50.4538C62.5235 47.991 63.4203 45.0214 63.5718 42.881C63.6495 41.7836 63.6558 41.7876 61.6077 41.6087C59.5521 41.4292 59.5024 41.4297 59.2481 41.6354ZM19.716 48.0052C19.2809 48.1789 19.2252 48.367 19.1893 49.7832L19.155 51.1361H17.7833C15.9186 51.1361 16.0005 51.0298 16.0005 53.4495C16.0005 55.2289 16.0031 55.2507 16.244 55.4879C16.4782 55.7187 16.5372 55.7277 17.8212 55.7277H19.155L19.1893 57.1041C19.2355 58.9599 19.089 58.8539 21.6075 58.8539H23.5232L23.7287 58.5965C23.9133 58.3652 23.9342 58.2064 23.9342 57.0334V55.7277H25.2775C26.5716 55.7277 26.6298 55.7189 26.8643 55.4879C27.1055 55.2503 27.1077 55.2316 27.1077 53.4046C27.1077 51.0167 27.2032 51.1361 25.2915 51.1361H23.9342V49.8097V48.4833L23.6444 48.1978L23.3545 47.9122L21.6361 47.9184C20.691 47.9218 19.827 47.9609 19.716 48.0052ZM22.4467 50.8155C22.5114 52.6297 22.4236 52.5429 24.235 52.5845L25.6202 52.6163V53.4393V54.2623H24.2947C23.104 54.2623 22.9427 54.2829 22.708 54.4648C22.4481 54.6662 22.4467 54.6744 22.4467 56.0279V57.3885H21.5541H20.6616V56.0279C20.6616 54.6744 20.6602 54.6662 20.4003 54.4648C20.1655 54.2829 20.0043 54.2623 18.8135 54.2623H17.4881V53.4319V52.6015H18.8135C20.0043 52.6015 20.1655 52.5809 20.4003 52.399C20.66 52.1978 20.6616 52.1882 20.6616 50.8522C20.6616 50.1129 20.693 49.477 20.7314 49.4392C20.7698 49.4013 21.1602 49.383 21.5992 49.3984L22.3971 49.4265L22.4467 50.8155ZM29.12 58.7092C28.7432 58.8654 28.6945 59.0002 28.6945 59.8877V60.6124H27.9011C26.9721 60.6124 26.711 60.7715 26.711 61.338C26.711 61.871 27.0614 62.0778 27.9641 62.0778H28.6945V62.8149C28.6945 63.4673 28.7224 63.5797 28.9379 63.7918C29.0718 63.9237 29.2969 64.0317 29.4383 64.0317C29.5796 64.0317 29.8047 63.9237 29.9386 63.7918C30.1535 63.5802 30.182 63.4667 30.182 62.8253V62.0985L30.9851 62.0626C31.6843 62.0313 31.8126 61.9969 31.9768 61.7971C32.2327 61.486 32.2157 61.0838 31.936 60.8248C31.7414 60.6447 31.5903 60.6124 30.9443 60.6124H30.182V59.8929C30.182 58.8535 29.7999 58.4277 29.12 58.7092Z" fill="#B4C02A"/>
</svg>
