<svg width="80" height="80" viewBox="0 0 80 80" fill="none" xmlns="http://www.w3.org/2000/svg">
<path fill-rule="evenodd" clip-rule="evenodd" d="M39.1862 12.0966C41.3781 12.293 44.5544 12.8675 47.31 13.5657C51.1664 14.5429 53.4505 15.7472 55.4703 17.868C57.5733 20.0762 58.9048 22.5621 59.7525 25.8626C60.2694 27.8748 60.5226 28.6482 60.9408 29.4922C61.7009 31.0261 61.8388 32.1753 61.3736 33.1003C61.2252 33.3956 60.7549 33.9833 60.3284 34.4063C59.773 34.9573 59.5702 35.2308 59.6134 35.3707C59.6465 35.4781 59.7691 35.8368 59.8857 36.1679C60.0024 36.4989 60.1538 37.016 60.2221 37.317C60.4571 38.3516 60.948 39.1572 62.1992 40.5615C64.9877 43.691 65.4122 44.5953 64.6891 45.866C64.3543 46.4543 63.8357 46.8595 62.528 47.5542C61.3749 48.1667 61.3198 48.4655 62.0881 49.9438C62.8161 51.3448 62.77 51.8411 61.8462 52.5511C61.553 52.7765 61.3358 53.0208 61.3637 53.094C61.8374 54.3381 61.6481 54.8781 60.4811 55.6111C59.6144 56.1556 59.5139 56.3299 59.6246 57.0973C59.6616 57.3537 59.7213 58.0439 59.7574 58.631C59.8157 59.582 59.7923 59.7972 59.5434 60.601C59.2126 61.6691 58.7879 62.2927 58.0852 62.7421C57.4666 63.1377 56.8878 63.3079 56.1599 63.3082C55.3738 63.3086 51.8754 62.3511 48.9444 61.3333L47.7014 60.9017L47.2908 61.1885C46.4056 61.8068 45.2931 63.5342 44.5733 65.408C44.0599 66.7446 43.7226 67.223 42.9856 67.6596L42.4778 67.9604L32.5497 67.9901C23.8794 68.0159 22.5582 67.9984 22.1218 67.8524C20.9976 67.476 20.2434 66.4211 20.2458 65.2284C20.2469 64.7151 20.3379 64.3482 20.6544 63.5828C21.7861 60.8458 22.3737 58.4473 22.6653 55.3747C22.9446 52.4324 22.3423 49.2998 21.0138 46.7836C20.4858 45.7839 20.0503 45.1264 18.2582 42.6249C15.6041 38.92 14.7534 35.9084 15.0593 31.3008C15.5075 24.5491 17.4546 20.6076 22.0634 17.1223C26.1393 14.04 29.6034 12.5654 33.868 12.0972C35.046 11.9679 37.7474 11.9675 39.1862 12.0966ZM34.0467 13.957C30.0274 14.3683 26.8759 15.744 22.865 18.8379C20.9169 20.3406 19.4125 22.1541 18.5283 24.0656C17.444 26.4097 16.8803 29.4456 16.8806 32.9394C16.8809 36.7199 17.5514 38.5196 20.4397 42.4922C21.7147 44.2461 22.2557 45.0989 22.8527 46.2958C24.1889 48.9747 24.7898 52.2873 24.5163 55.4647C24.2625 58.4126 23.6479 61.0561 22.5998 63.7086C22.043 65.118 22.0048 65.5036 22.3842 65.886L22.6507 66.1546H32.3139H41.977L42.2402 65.9084C42.385 65.7729 42.6132 65.342 42.7476 64.9508C43.1429 63.7989 43.991 62.2323 44.8004 61.1587L45.5553 60.1573L43.7498 59.5341C39.7355 58.1487 38.0595 56.8417 37.6259 54.7582C37.416 53.75 37.7352 53.1312 38.465 53.1312C38.9722 53.1312 39.3822 53.5312 39.3855 54.0291C39.3916 54.9554 40.3001 55.9978 41.7321 56.7211C42.503 57.1107 47.8997 59.0596 50.7848 59.9905C52.6698 60.5987 55.8281 61.4487 56.2031 61.4487C57.3367 61.4487 58.0422 60.2695 57.9049 58.6045C57.6936 56.0454 57.6972 55.9705 58.0586 55.3458C58.3518 54.8392 58.72 54.4904 59.4327 54.0445C59.6276 53.9223 59.6262 53.9026 59.3904 53.4756C59.0372 52.836 59.0732 52.5207 59.5532 52.0466C59.7771 51.8254 60.1051 51.5412 60.2818 51.4149L60.6031 51.1853L60.2017 50.3233C59.7193 49.2871 59.6146 48.6467 59.8001 47.8673C59.9797 47.1129 60.6239 46.4599 61.8268 45.8129C62.3158 45.5499 62.8225 45.2205 62.9527 45.0807L63.1895 44.8267L62.9344 44.4098C62.6355 43.9212 61.8831 43.0108 60.4774 41.4366C59.3333 40.1553 58.6401 38.8851 58.3437 37.5269C58.2506 37.1005 58.0764 36.5342 57.9568 36.2683C57.4853 35.2209 57.809 34.2233 58.9942 33.0713C59.6089 32.4738 59.7976 32.22 59.7976 31.9906C59.7976 31.6847 59.5721 31.0366 58.8904 29.3825C58.6795 28.8709 58.3131 27.6889 58.076 26.7559C57.5917 24.8497 57.2986 24.0087 56.7032 22.8161C55.2935 19.9925 53.1255 17.7791 50.6606 16.647C48.4366 15.6255 43.4349 14.4313 39.8717 14.071C39.2148 14.0046 38.5307 13.9332 38.3515 13.9124C37.5928 13.8246 35.0869 13.8506 34.0467 13.957ZM34.6052 15.7985C35.625 16.1357 36.495 16.9307 36.9543 17.9451C37.5861 19.3401 37.24 21.0434 36.1081 22.1105L35.5758 22.6123L35.742 23.7405C35.9196 24.9452 35.9427 26.0173 35.8112 26.9475C35.7544 27.3498 35.7668 27.522 35.8527 27.522C35.9202 27.522 36.6321 27.3527 37.4349 27.1459C38.2377 26.939 39.3245 26.6856 39.8501 26.5826C40.7804 26.4005 40.8188 26.3806 41.2935 25.837C41.7338 25.3327 42.5188 23.9548 42.4124 23.8731C42.3887 23.8549 42.1438 23.71 41.8683 23.5511C41.2317 23.1839 40.7295 22.6073 40.3744 21.8361C40.149 21.3463 40.0944 21.0599 40.092 20.3514C40.0892 19.5764 40.1308 19.3877 40.4464 18.7417C41.5859 16.409 44.5613 15.9043 46.3784 17.7357C47.832 19.2007 47.8245 21.5373 46.3616 23.0116C45.8966 23.4803 44.9401 24.0168 44.5659 24.0188C44.4589 24.0195 44.3186 24.1536 44.2501 24.3209C44.1822 24.4865 44.0115 24.8879 43.8708 25.213C43.7301 25.5383 43.6373 25.8269 43.6648 25.8546C43.6923 25.8823 44.6092 25.7993 45.7023 25.6703C48.7351 25.3123 48.4537 25.3908 48.6054 24.8611C48.7665 24.2986 49.3728 23.3762 49.782 23.0713C50.6231 22.4445 51.0049 22.3236 52.1421 22.3236C53.2794 22.3236 53.6612 22.4445 54.5023 23.0713C55.3384 23.6943 55.9756 25.2693 55.8387 26.3743C55.6827 27.6318 54.7705 28.8877 53.6272 29.4191C52.9044 29.755 51.3799 29.755 50.6571 29.4191C49.9758 29.1025 49.1951 28.3585 48.8741 27.7201C48.6135 27.2019 48.6083 27.1985 48.1508 27.2515C46.0515 27.4949 43.8709 27.7834 42.6556 27.9784L41.2045 28.2112L41.9205 28.879C42.3142 29.2462 42.8504 29.8126 43.1119 30.1377L43.5873 30.7285L44.6614 30.7396C45.6024 30.7492 45.8114 30.7881 46.3481 31.0537C47.0628 31.4075 47.7746 32.1408 48.1068 32.8654C48.4493 33.6125 48.444 35.247 48.0967 35.9573C47.7203 36.727 47.1764 37.2956 46.4224 37.7077C45.7848 38.0561 45.6653 38.0831 44.7582 38.0831C43.9324 38.0831 43.6876 38.039 43.1787 37.7984C42.3474 37.4054 41.8688 36.9501 41.4457 36.1503C40.7928 34.9156 40.8817 33.4279 41.6782 32.261C41.8638 31.9893 41.967 31.7306 41.9213 31.6525C41.4801 30.8995 39.9341 29.505 39.018 29.034C38.6044 28.8212 38.517 28.8137 37.9179 28.9383C36.9536 29.139 34.7948 29.875 33.9125 30.304C33.0532 30.7216 32.2861 31.3323 32.0661 31.7738C31.5098 32.89 31.9107 34.2994 34.0011 38.5756C34.516 39.6289 35.0934 40.9586 35.2842 41.5305C35.5965 42.4667 35.6314 42.7007 35.634 43.8834C35.6366 45.0945 35.6139 45.2436 35.3419 45.7986C35.1534 46.1833 34.7157 46.7282 34.1286 47.3087C33.405 48.0241 33.1074 48.4189 32.7256 49.1692C31.3868 51.8002 30.7936 55.2617 30.7542 60.6729L30.7316 63.7822L30.4362 64.0382C30.0422 64.3798 29.6876 64.3608 29.259 63.9748L28.9044 63.6554L28.9096 60.6095C28.916 56.8673 29.1443 54.504 29.7322 52.0915C30.4394 49.1898 31.2992 47.4756 32.8024 45.9705C33.3083 45.4639 33.6519 45.0173 33.7378 44.7548C33.9318 44.1627 33.8114 42.9482 33.4617 41.9682C33.0641 40.854 30.9302 36.3655 30.7172 36.1952C30.623 36.12 30.4176 36.0584 30.2607 36.0584C29.7989 36.0584 28.8758 36.3749 28.574 36.6367L28.2942 36.8792L28.5994 37.5359C28.86 38.0969 28.904 38.328 28.9012 39.1228C28.8986 39.8938 28.849 40.1597 28.6113 40.6764C27.6916 42.6756 25.3045 43.4834 23.4014 42.4396C20.744 40.9818 20.8389 37.0575 23.5635 35.7405C24.4483 35.3128 25.1707 35.2269 26.0256 35.4476C26.8752 35.6669 26.7956 35.6768 27.273 35.2944C27.8449 34.8363 28.6796 34.4605 29.4731 34.3038C30.1289 34.1743 30.148 34.1609 30.0769 33.8829C29.9561 33.4107 29.9908 32.2081 30.1408 31.6695C30.2753 31.1863 30.2668 31.1374 29.9328 30.4657C29.5112 29.6179 28.7902 28.5837 28.2725 28.084L27.8911 27.7157L27.529 27.9895C26.6504 28.6537 26.2612 28.7806 25.1038 28.7806C24.1378 28.7806 23.9505 28.7472 23.4071 28.4783C22.6812 28.1189 21.8653 27.2776 21.5479 26.5608C21.2022 25.7803 21.162 24.4696 21.4594 23.6749C21.9364 22.4005 22.8691 21.5593 24.1805 21.2206C25.9565 20.7621 27.7997 21.6906 28.6133 23.4536C28.8516 23.97 28.9019 24.2407 28.9116 25.0596L28.9233 26.0446L29.5954 26.7559C30.257 27.456 31.0962 28.6186 31.3577 29.197C31.431 29.3592 31.5248 29.492 31.5661 29.492C31.6074 29.492 32.0725 29.2296 32.5998 28.9091C33.5167 28.3517 33.5673 28.3005 33.7573 27.7371C34.0306 26.9265 34.1147 25.5749 33.9632 24.4278C33.8934 23.8996 33.8111 23.4015 33.7804 23.3206C33.7465 23.2317 33.4795 23.1513 33.1047 23.117C31.8617 23.0034 30.8105 22.2599 30.2391 21.0901C29.9195 20.4356 29.8817 20.2594 29.8817 19.4234C29.8817 18.5874 29.9195 18.4112 30.2391 17.7567C30.8834 16.4378 31.9075 15.7857 33.4093 15.7381C33.9178 15.722 34.4559 15.7492 34.6052 15.7985ZM32.7936 17.7756C31.4217 18.4033 31.4142 20.4134 32.781 21.1301C32.9423 21.2147 33.2989 21.2839 33.5737 21.2839C35.5382 21.2839 36.1281 18.5879 34.3424 17.7704C33.7793 17.5128 33.3651 17.5141 32.7936 17.7756ZM42.974 18.7081C41.9332 19.2506 41.6204 20.6427 42.334 21.557C42.6141 21.9159 43.3265 22.2641 43.7809 22.2641C44.2686 22.2641 44.9646 21.9022 45.2477 21.5016C45.5103 21.1299 45.6507 20.2989 45.5315 19.8208C45.4366 19.4397 44.9385 18.874 44.5464 18.7019C44.1039 18.5076 43.3529 18.5106 42.974 18.7081ZM24.8086 23.2587C23.9695 23.4935 23.4207 24.2064 23.4207 25.0614C23.4207 25.6051 23.5328 25.8974 23.8958 26.3012C24.7544 27.2562 26.3771 27.0104 26.9017 25.8458C27.1607 25.2708 27.1625 24.8511 26.9084 24.2935C26.664 23.757 26.3851 23.4975 25.844 23.303C25.3347 23.1199 25.3084 23.1188 24.8086 23.2587ZM51.404 24.2772C50.1704 24.7967 49.8944 26.4352 50.8879 27.3399C51.7842 28.156 53.1642 27.9264 53.7394 26.8654C54.0219 26.3444 53.9646 25.4001 53.621 24.9137C53.1354 24.2264 52.1776 23.9514 51.404 24.2772ZM43.6356 32.872C42.9828 33.3405 42.6927 34.2893 42.9731 35.039C43.1378 35.4793 43.7035 36.0338 44.1341 36.1769C45.266 36.5535 46.5499 35.6031 46.5499 34.3888C46.5499 33.8191 46.1245 33.0863 45.6269 32.7985C45.0573 32.4691 44.1504 32.5026 43.6356 32.872ZM24.8086 37.2671C23.9695 37.5019 23.4207 38.2148 23.4207 39.0698C23.4207 39.6135 23.5328 39.9058 23.8958 40.3096C24.7544 41.2646 26.3771 41.0188 26.9017 39.8543C27.1607 39.2793 27.1625 38.8596 26.9084 38.302C26.664 37.7655 26.3851 37.5059 25.844 37.3114C25.3347 37.1283 25.3084 37.1272 24.8086 37.2671Z" fill="#A39E60"/>
</svg>
