<svg width="80" height="80" viewBox="0 0 80 80" fill="none" xmlns="http://www.w3.org/2000/svg">
<path d="M34.8148 43.6479C34.4694 43.6479 34.1885 43.367 34.1885 43.0215H33.0557C33.0557 43.9915 33.8449 44.7807 34.8148 44.7807C35.7848 44.7807 36.5741 43.9915 36.5741 43.0215H35.4413C35.4414 43.3669 35.1603 43.6479 34.8148 43.6479Z" fill="#8BC1AC"/>
<path d="M43.5019 43.0215H42.3691C42.3691 43.367 42.0881 43.6479 41.7427 43.6479C41.3973 43.6479 41.1162 43.367 41.1162 43.0215H39.9834C39.9834 43.9915 40.7726 44.7807 41.7427 44.7807C42.7127 44.7807 43.5019 43.9915 43.5019 43.0215Z" fill="#8BC1AC"/>
<path d="M57.1187 36.5957C57.1187 39.8382 55.8322 42.889 53.4961 45.1862L54.2905 45.9939C56.8448 43.482 58.2517 40.1444 58.2517 36.5957H57.1187Z" fill="#8BC1AC"/>
<path d="M52.4214 46.127C51.9204 46.517 51.3847 46.8717 50.8289 47.181L51.3798 48.1708C51.9861 47.8333 52.5707 47.4463 53.1173 47.0209L52.4214 46.127Z" fill="#8BC1AC"/>
<path d="M60.365 36.9585C60.365 35.9013 60.2527 34.8456 60.0309 33.8209L58.9238 34.0604C59.1285 35.0066 59.2323 35.9816 59.2323 36.9585C59.2323 40.6602 57.7652 44.1414 55.1015 46.7607C53.3538 48.4786 51.1831 49.7121 48.8102 50.3425C48.8091 50.3416 48.808 50.3407 48.807 50.3399C48.2649 49.9079 47.9541 49.2668 47.9541 48.5812V36.9711C47.9541 33.9084 46.7472 31.024 44.5553 28.8492C42.4051 26.7155 39.584 25.5511 36.6004 25.574C36.6001 25.574 36.5998 25.574 36.5993 25.574C36.5974 25.574 36.5956 25.574 36.5937 25.574C33.6165 25.5975 30.818 26.77 28.7136 28.8752C26.5846 31.0032 25.4121 33.8334 25.4121 36.8446V48.5276C25.4121 49.2226 25.0948 49.8686 24.5415 50.3C24.5275 50.311 24.5144 50.3228 24.5004 50.3339C18.3796 48.6838 14.1327 43.26 14.1327 37.0348C14.1327 33.3527 15.6032 29.8896 18.2734 27.2832C20.9479 24.6735 24.505 23.2363 28.289 23.2363H44.8852V22.1035H28.289C24.2076 22.1035 20.3696 23.655 17.4822 26.4723C14.5917 29.2937 13 33.0449 13 37.0347C13 43.5523 17.2929 49.2566 23.5588 51.2381C22.6896 52.2451 22.1213 53.4863 21.9355 54.8102C20.7285 55.3784 19.6341 56.1888 18.7298 57.2084C17.1153 59.0283 16.2261 61.3709 16.2261 63.8046V66.2344H57.1377V63.8046C57.1377 61.3573 56.2405 59.0055 54.6114 57.1821C53.6939 56.1551 52.5825 55.342 51.3573 54.7772C51.1668 53.4727 50.6039 52.2474 49.7491 51.2512C52.0586 50.5275 54.168 49.2668 55.8958 47.5687C58.7777 44.7345 60.365 40.9664 60.365 36.9585ZM47.8152 65.1015H40.0123L37.5465 62.6362L44.2985 55.884L50.733 62.1831L47.8152 65.1015ZM51.5426 62.9756L53.7141 65.1015H49.4171L51.5426 62.9756ZM38.4101 65.1015H35.0812L36.7454 63.4372L38.4101 65.1015ZM43.3902 54.9945L43.4891 55.0915L36.7454 61.8351L35.6342 60.724L34.8333 61.5252L35.9444 62.6361L33.4792 65.1013H25.6763L22.7584 62.183L29.1928 55.884L33.9042 60.5964L34.7053 59.7955L30.0023 55.0916L30.1014 54.9946H43.3902V54.9945ZM24.0743 65.1015H19.7773L21.9488 62.9756L24.0743 65.1015ZM29.9449 51.3625V50.1898C30.9553 51.2066 32.1659 51.9709 33.4942 52.4407V53.8617H30.37C30.088 53.0646 29.9449 52.2257 29.9449 51.3625ZM38.7376 53.8615H34.627V52.7626C35.2937 52.9084 35.9819 52.9846 36.6827 52.9846C37.3825 52.9846 38.07 52.9068 38.7376 52.7606V53.8615ZM36.6828 51.8517C34.1383 51.8517 31.7789 50.7261 30.1784 48.7573V43.0149C30.1784 39.6426 32.922 36.8991 36.2942 36.8991H37.3857C38.6095 36.8991 39.7015 36.327 40.4107 35.4371C40.7738 36.0519 41.4419 36.4664 42.2062 36.4664C43.7843 36.4664 45.0681 37.7503 45.0681 39.3284V43.4655C45.0681 45.706 44.1961 47.8119 42.6126 49.3953C41.0286 50.9794 38.9227 51.8517 36.6828 51.8517ZM29.9725 39.4743C30.2497 36.6893 32.606 34.507 35.4628 34.507H37.2568C38.3715 34.507 39.3806 34.0477 40.1061 33.3091C39.9667 34.6871 38.7999 35.7661 37.3856 35.7661H36.2941C33.5826 35.7663 31.2155 37.2638 29.9725 39.4743ZM25.2385 51.1931C26.0687 50.5455 26.5449 49.574 26.5449 48.5275V36.8445C26.5449 34.136 27.5996 31.5904 29.5146 29.6763C31.4071 27.7828 33.9238 26.7283 36.6011 26.7068C38.5416 26.7078 40.12 28.2869 40.12 30.2277V30.324V30.5111C40.12 32.0899 38.8356 33.3743 37.2568 33.3743H35.4628C31.7956 33.3743 28.8121 36.3577 28.8121 40.025V51.3625C28.8121 52.2201 28.9352 53.0575 29.178 53.8618H26.1699C25.1477 53.8618 24.1425 54.0204 23.1861 54.3216C23.5047 53.0932 24.2219 51.9865 25.2385 51.1931ZM26.17 54.9945H28.3034L28.3918 55.0829L21.9573 61.3819L19.1104 58.5345C19.2577 58.3374 19.4125 58.1452 19.577 57.96C21.2487 56.0754 23.6517 54.9945 26.17 54.9945ZM17.3589 63.8045C17.3589 62.2871 17.7506 60.8105 18.4801 59.5065L21.1478 62.1746L18.1579 65.1016H17.3588V63.8045H17.3589ZM56.0048 65.1015H55.3334L52.3436 62.1745L54.9306 59.587C55.6309 60.8706 56.0047 62.3176 56.0047 63.8044V65.1015H56.0048ZM53.7665 57.9366C53.959 58.152 54.139 58.3764 54.308 58.6075L51.5341 61.382L45.0997 55.083L45.188 54.9946H47.195C49.7011 54.9945 52.0963 56.0668 53.7665 57.9366ZM50.1049 54.2987C49.1706 54.0124 48.1907 53.8618 47.195 53.8618H39.8704V52.4396C41.188 51.9725 42.3958 51.2142 43.4135 50.1964C45.2108 48.399 46.2007 46.0087 46.2007 43.4655V39.3284C46.2007 37.1257 44.4087 35.3336 42.2059 35.3336C41.6803 35.3336 41.2527 34.9061 41.2527 34.3805V33.032V32.6779V30.5111V30.324V30.2277C41.2527 29.157 40.8883 28.1704 40.2782 27.3832C41.559 27.8818 42.7416 28.6458 43.757 29.6534C45.7327 31.6139 46.8209 34.2127 46.8209 36.9712V48.5813C46.8209 49.6139 47.2874 50.5779 48.1011 51.2262C49.0874 52.0108 49.7869 53.0968 50.1049 54.2987Z" fill="#8BC1AC"/>
<path d="M24.0345 27.5098H18.8213V28.6426H22.9017V28.6644L18.2549 31.448V33.138H23.4681V32.0052H19.5291L24.0345 29.3064V27.5098Z" fill="#8BC1AC"/>
<path d="M21.3587 21.1498H18.6162L21.9251 19.1677V17.5527H17.6406V18.6855H20.5254L17.0742 20.7529V22.2826H21.3587V21.1498Z" fill="#8BC1AC"/>
<path d="M29.9727 18.1563H27.8509L30.5391 16.5461V15.0254H26.7363V16.1582H28.9819L26.1699 17.8426V19.2891H29.9727V18.1563Z" fill="#8BC1AC"/>
<path d="M56.6118 15.082C52.2208 15.082 48.6484 18.6542 48.6484 23.0453H49.7812C49.7812 19.279 52.8454 16.2148 56.6118 16.2148C60.3781 16.2148 63.4423 19.279 63.4423 23.0453C63.4423 26.8116 60.3781 29.8758 56.6118 29.8758V31.0086C61.0028 31.0086 64.5751 27.4363 64.5751 23.0453C64.5751 18.6542 61.0028 15.082 56.6118 15.082Z" fill="#8BC1AC"/>
<path d="M56.6117 13C51.0722 13 46.5654 17.5067 46.5654 23.0461C46.5654 25.8623 47.759 28.5671 49.8399 30.4672C51.6942 32.1599 54.0991 33.0922 56.6116 33.0922C62.151 33.0922 66.6577 28.5857 66.6577 23.0461C66.6578 17.5067 62.1512 13 56.6117 13ZM56.6117 31.9593C54.3824 31.9593 52.2488 31.1322 50.6038 29.6305C48.7574 27.9445 47.6984 25.5447 47.6984 23.046C47.6984 18.1312 51.6968 14.1327 56.6118 14.1327C61.5266 14.1327 65.5251 18.1312 65.5251 23.046C65.5251 27.9608 61.5265 31.9593 56.6117 31.9593Z" fill="#8BC1AC"/>
<path d="M58.47 23.0415C58.47 22.2229 57.9243 21.5302 57.178 21.306V16.6895H56.0452V21.3376C55.5213 21.5266 55.1086 21.9489 54.9351 22.4801H51.3984V23.6129H54.9387C55.1789 24.3328 55.8579 24.8539 56.6575 24.8539C57.6569 24.854 58.47 24.0408 58.47 23.0415ZM55.9778 23.0415C55.9778 22.6666 56.2827 22.3618 56.6575 22.3618C57.0324 22.3618 57.3372 22.6666 57.3372 23.0415C57.3372 23.4163 57.0324 23.7212 56.6575 23.7212C56.2827 23.7212 55.9778 23.4162 55.9778 23.0415Z" fill="#8BC1AC"/>
</svg>
