<svg width="80" height="80" viewBox="0 0 80 80" fill="none" xmlns="http://www.w3.org/2000/svg">
<path fill-rule="evenodd" clip-rule="evenodd" d="M14.773 14.1247C13.6922 14.4978 13 15.4655 13 16.6031C13 17.3569 13.2408 17.9459 13.7485 18.4336C14.5085 19.1637 14.4196 19.1511 19.2614 19.2099L23.642 19.2631L22.9663 20.3272C17.9121 28.2863 14.492 40.018 13.847 51.609C13.6194 55.698 13.861 58.7093 14.5231 60.0375C15.8928 62.7852 20.4516 64.9994 24.7392 64.9994C29.034 64.9994 33.5855 62.7855 34.9603 60.0278C36.4071 57.1254 35.6732 46.5548 33.4005 37.5641C32.6158 34.4597 31.5102 31.0346 30.3782 28.2008C29.3547 25.6389 27.2125 21.4967 25.8797 19.5025L25.6841 19.2099H39.2288H52.7735L52.5435 19.5557C51.8115 20.6561 50.777 22.463 49.9939 24.0088C46.5978 30.7135 44.0304 39.8059 43.1166 48.3638C42.4832 54.2969 42.6568 58.629 43.5925 60.2443C44.8253 62.3721 48.0784 64.2322 51.6749 64.8657C52.7973 65.0634 54.8615 65.0396 56.025 64.8155C60.0792 64.0346 63.3288 61.9062 64.1749 59.4775C65.0858 56.8628 64.7733 49.1551 63.4676 42.0329C62.0271 34.1753 59.1309 26.2187 55.6831 20.6464L54.8272 19.2631L59.4733 19.2099C64.6004 19.1512 64.5299 19.1605 65.2431 18.4561C65.7603 17.9454 66 17.3585 66 16.6031C66 15.8284 65.7518 15.2413 65.2007 14.7127C64.3916 13.9367 66.5233 13.9953 39.4539 14.0047C22.7605 14.0105 14.9945 14.0482 14.773 14.1247ZM21.2798 15.4552C20.9964 16.0044 21.0021 17.1066 21.2915 17.6671C21.41 17.8967 21.5069 18.0984 21.5069 18.1152C21.5069 18.1321 20.1236 18.1459 18.4328 18.1459C15.1073 18.1459 14.9116 18.1178 14.3959 17.5658C14.1676 17.3215 14.1266 17.1747 14.1266 16.6031C14.1266 16.0314 14.1676 15.8847 14.3959 15.6405C14.9082 15.0924 15.0712 15.0689 18.3977 15.0645L21.4837 15.0603L21.2798 15.4552ZM24.9431 15.4552C24.6596 16.0044 24.6653 17.1066 24.9547 17.6671C25.0732 17.8967 25.1702 18.0984 25.1702 18.1152C25.1702 18.1321 24.7702 18.1458 24.2813 18.1457C23.6502 18.1456 23.2837 18.0917 23.0175 17.9595C22.4919 17.6988 22.1534 17.1592 22.1534 16.5821C22.1534 15.5203 22.7853 15.0666 24.2697 15.0627L25.1469 15.0603L24.9431 15.4552ZM51.8594 15.284C52.403 15.5439 52.6446 15.9334 52.6446 16.5499C52.6446 17.1003 52.4228 17.5281 51.9729 17.8449L51.6211 18.0927L39.3384 18.1202C27.8024 18.1458 27.0329 18.1361 26.6808 17.9606C26.1548 17.6982 25.8167 17.1589 25.8167 16.5821C25.8167 15.9268 26.0677 15.5079 26.6049 15.267C27.0391 15.0724 27.5032 15.0649 39.2235 15.0627C51.3712 15.0603 51.3922 15.0606 51.8594 15.284ZM55.5227 15.284C56.0662 15.5439 56.3079 15.9334 56.3079 16.5499C56.3079 17.0986 56.0862 17.5281 55.6412 17.841C55.3548 18.0424 55.1202 18.0923 54.2928 18.1281C53.7419 18.1519 53.2911 18.1518 53.2911 18.128C53.2911 18.104 53.3881 17.8967 53.5066 17.6671C53.7946 17.1094 53.7992 16.059 53.5164 15.4808L53.3106 15.0603H54.1827C54.8486 15.0603 55.1653 15.1132 55.5227 15.284ZM63.988 15.2062C64.1787 15.2864 64.4559 15.4818 64.6041 15.6404C64.8324 15.8847 64.8734 16.0315 64.8734 16.6031C64.8734 17.1747 64.8324 17.3215 64.6041 17.5658C64.0834 18.1232 63.9141 18.1459 60.2978 18.1459C58.4589 18.1459 56.9543 18.1321 56.9543 18.1152C56.9543 18.0984 57.0513 17.8967 57.1698 17.6671C57.4578 17.1094 57.4625 16.059 57.1796 15.4808L56.9738 15.0603H60.3076C62.8912 15.0603 63.7193 15.0932 63.988 15.2062ZM24.2005 29.198V37.8029L22.5574 37.8746C20.4474 37.9667 18.8073 38.1266 18.0592 38.3132C16.8266 38.6205 16.7591 39.5346 17.9457 39.8502C18.3142 39.9482 18.3844 40.0114 18.3951 40.2549C18.4185 40.7832 18.3732 40.8582 17.5796 41.6073C17.0499 42.1072 16.7424 42.4921 16.6445 42.7777C16.4882 43.2337 16.4487 45.6591 16.5864 46.3536L16.6625 46.7374L16.014 46.8938L15.3656 47.0503V46.7552C15.3656 45.8601 16.259 40.8651 16.8833 38.2703C18.0441 33.4452 19.6623 28.922 21.6658 24.9024C22.7634 22.7001 23.9619 20.5961 24.1197 20.5941C24.1641 20.5936 24.2005 24.4653 24.2005 29.198ZM27.3716 24.2108C30.2431 29.7897 32.5512 37.1694 33.7281 44.5334C33.8824 45.499 34.0355 46.4631 34.0681 46.6757L34.1276 47.0624L33.5169 46.9223C33.181 46.8451 32.8919 46.7668 32.8744 46.7483C32.8568 46.7298 32.8892 46.2358 32.9464 45.6506C33.0547 44.5418 32.9963 43.3732 32.7994 42.7079C32.7251 42.4572 32.4212 42.0614 31.944 41.5936C31.2571 40.9205 31.2038 40.8352 31.2038 40.4098C31.2038 40.0661 31.251 39.9371 31.3924 39.8939C31.4961 39.8621 31.7372 39.7693 31.9283 39.6874C32.6165 39.3926 32.4558 38.5907 31.6627 38.3626C31.0266 38.1796 28.9426 37.9631 27.0288 37.881L25.2779 37.8058L25.28 29.1729L25.2819 20.54L25.9845 21.7104C26.3709 22.3541 26.9952 23.4793 27.3716 24.2108ZM53.1833 29.1988V37.8044L51.4864 37.8768C48.0857 38.0222 46.4472 38.3047 46.1447 38.7978C45.8844 39.2223 46.236 39.6392 47.0689 39.8939C47.2103 39.9371 47.2575 40.0661 47.2575 40.4098C47.2575 40.8361 47.2046 40.9201 46.5011 41.6095C46.0146 42.0862 45.7074 42.4838 45.6399 42.7238C45.4574 43.3735 45.403 44.6582 45.5137 45.7038C45.5725 46.2597 45.6059 46.7298 45.5879 46.7483C45.5698 46.7668 45.2815 46.8448 44.9472 46.9216L44.3392 47.0611L44.4078 46.5687C45.5773 38.1818 47.9675 30.2295 51.1758 24.0512C51.9532 22.5539 53.0757 20.5932 53.1552 20.5932C53.1707 20.5932 53.1833 24.4656 53.1833 29.1988ZM55.2531 22.004C58.6305 27.7314 61.3112 35.5723 62.6576 43.6614C62.83 44.6969 63.005 45.8874 63.0464 46.307L63.1218 47.0698L62.4578 46.9045L61.7938 46.7394L61.8746 46.2482C61.9191 45.978 61.9546 45.1585 61.9535 44.427C61.951 42.7613 61.8061 42.3865 60.847 41.5661C60.0619 40.8943 59.9329 40.6913 60.026 40.2731C60.0808 40.0263 60.178 39.9399 60.4956 39.8554C60.9625 39.7314 61.3718 39.3908 61.3718 39.1265C61.3718 38.3577 60.0531 38.0558 55.9039 37.8746L54.2608 37.8029V29.198C54.2608 24.4653 54.2971 20.5937 54.3416 20.5942C54.3861 20.5949 54.7963 21.2292 55.2531 22.004ZM34.9988 21.7164C34.7856 21.8639 34.7593 21.9746 34.7593 22.7248C34.7593 23.5062 34.7789 23.5802 35.0287 23.7418C35.2782 23.9032 35.3179 23.9032 35.5674 23.7418C35.8171 23.5802 35.8367 23.5062 35.8367 22.7248C35.8367 21.9746 35.8105 21.8639 35.5972 21.7164C35.4656 21.6254 35.3309 21.5508 35.298 21.5508C35.2652 21.5508 35.1305 21.6254 34.9988 21.7164ZM32.626 23.9129C32.5549 23.9831 32.4967 24.165 32.4967 24.3172C32.4967 24.7579 32.6825 24.8492 33.579 24.8492C34.2401 24.8492 34.4379 24.8108 34.581 24.6546C34.8128 24.4017 34.8067 24.1798 34.5623 23.9613C34.3213 23.7459 32.8327 23.7088 32.626 23.9129ZM35.8807 24.0512C35.7173 24.2976 35.7173 24.3368 35.8807 24.5832C36.0439 24.8292 36.1202 24.8492 36.8951 24.8492C37.8066 24.8492 37.9916 24.7594 37.9916 24.3172C37.9916 23.875 37.8066 23.7852 36.8951 23.7852C36.1202 23.7852 36.0439 23.8052 35.8807 24.0512ZM34.9376 25.0438C34.8052 25.1883 34.7593 25.4429 34.7593 26.0333C34.7593 26.8993 34.8538 27.0836 35.298 27.0836C35.7443 27.0836 35.8367 26.9002 35.8367 26.0148C35.8367 25.3619 35.7978 25.1666 35.6397 25.0253C35.3836 24.7964 35.1589 24.8024 34.9376 25.0438ZM39.3085 27.0365C39.0953 27.184 39.069 27.2946 39.069 28.0448C39.069 28.8262 39.0886 28.9002 39.3384 29.0618C39.5879 29.2232 39.6276 29.2232 39.8771 29.0618C40.1268 28.9002 40.1465 28.8262 40.1465 28.0448C40.1465 27.2946 40.1202 27.184 39.9069 27.0365C39.7753 26.9454 39.6406 26.8708 39.6077 26.8708C39.5749 26.8708 39.4402 26.9454 39.3085 27.0365ZM36.9357 29.2329C36.8646 29.3031 36.8064 29.4851 36.8064 29.6372C36.8064 30.0779 36.9922 30.1692 37.8887 30.1692C38.5498 30.1692 38.7476 30.1308 38.8907 29.9746C39.1225 29.7217 39.1164 29.4999 38.872 29.2813C38.6311 29.066 37.1424 29.0288 36.9357 29.2329ZM40.1904 29.3712C40.027 29.6177 40.027 29.6568 40.1904 29.9032C40.3536 30.1492 40.4299 30.1692 41.2048 30.1692C42.1163 30.1692 42.3013 30.0794 42.3013 29.6372C42.3013 29.195 42.1163 29.1052 41.2048 29.1052C40.4299 29.1052 40.3536 29.1252 40.1904 29.3712ZM39.2473 30.3638C39.1149 30.5083 39.069 30.763 39.069 31.3534C39.069 32.2194 39.1635 32.4037 39.6077 32.4037C40.054 32.4037 40.1465 32.2202 40.1465 31.3349C40.1465 30.682 40.1076 30.4866 39.9494 30.3453C39.6933 30.1165 39.4686 30.1224 39.2473 30.3638ZM24.2005 39.0537C24.2005 39.1879 23.9626 39.2133 22.7056 39.2133C20.7785 39.2133 20.0446 39.0791 21.5069 38.9942C23.6551 38.8695 24.2005 38.8816 24.2005 39.0537ZM28.4463 39.0112C28.8826 39.0196 28.9399 39.0391 28.7257 39.1069C28.5776 39.1537 27.7413 39.1968 26.8672 39.2027C25.4564 39.2121 25.2779 39.1935 25.2779 39.0373C25.2779 38.8795 25.4128 38.8686 26.5878 38.9309C27.3081 38.9692 28.1446 39.0053 28.4463 39.0112ZM53.1836 39.0803C53.1837 39.2529 53.0515 39.2617 51.3789 39.2005C50.3861 39.1642 49.5497 39.1192 49.5201 39.1003C49.4535 39.0581 51.2202 38.942 52.3483 38.9144C53.0796 38.8967 53.1833 38.9173 53.1836 39.0803ZM57.4292 39.0112C57.8654 39.0196 57.9227 39.0391 57.7085 39.1069C57.5604 39.1537 56.7241 39.1968 55.85 39.2027C54.4392 39.2121 54.2608 39.1935 54.2608 39.0373C54.2608 38.8795 54.3957 38.8686 55.5706 38.9309C56.291 38.9692 57.1274 39.0053 57.4292 39.0112ZM22.0081 40.2581L24.1466 40.3305L24.1817 40.693L24.2167 41.0554L22.9506 40.984C20.7744 40.8614 19.6789 40.6954 19.5568 40.4701C19.4287 40.2339 19.5169 40.0521 19.722 40.1297C19.8031 40.1604 20.8318 40.2182 22.0081 40.2581ZM30.1264 40.3285C30.1264 40.516 30.0561 40.6075 29.884 40.6444C29.4446 40.7385 27.7231 40.9099 26.482 40.9831L25.2618 41.0551L25.2968 40.6928L25.3318 40.3305L27.525 40.2558C28.7313 40.2148 29.7737 40.1587 29.8415 40.1312C30.0798 40.0347 30.1264 40.067 30.1264 40.3285ZM51.036 40.2602L53.1295 40.3305L53.1632 40.6763L53.197 41.0221H52.5945C51.9743 41.0221 49.009 40.7456 48.5773 40.6476C48.4069 40.6089 48.3349 40.5149 48.3349 40.3312C48.3349 40.1012 48.3714 40.0771 48.6388 40.1299C48.806 40.1628 49.8847 40.2216 51.036 40.2602ZM58.8595 40.5312C58.7986 40.6879 57.3945 40.8779 55.5107 40.984L54.2446 41.0554L54.2796 40.693L54.3146 40.3305L56.5093 40.2558C57.7163 40.2147 58.7345 40.1505 58.7719 40.1133C58.8595 40.0259 58.9282 40.3543 58.8595 40.5312ZM21.3992 41.9311C22.1992 42.0152 23.1568 42.0843 23.5271 42.085L24.2005 42.0861V45.1881V48.2898L21.911 48.2103C20.6518 48.1665 19.2835 48.0994 18.8703 48.0611L18.1191 47.9914L17.9357 47.5027C17.6868 46.8393 17.4736 44.6299 17.5709 43.7216L17.6492 42.9906L18.3659 42.3215C19.0531 41.6801 19.1005 41.655 19.5137 41.7154C19.7507 41.7501 20.5992 41.8472 21.3992 41.9311ZM31.1756 42.3315C31.827 43.0014 31.8281 43.0035 31.9012 43.7945C31.9748 44.5893 31.8205 46.6004 31.6322 47.3031C31.4384 48.0258 31.4514 48.0211 29.2724 48.1447C28.1804 48.2067 26.835 48.2574 26.2825 48.2574H25.2779V45.1873V42.1172L26.5978 42.042C27.3238 42.0005 28.3782 41.9036 28.9412 41.8264C30.5538 41.6053 30.4458 41.581 31.1756 42.3315ZM49.3872 41.8168C50.0473 41.9028 51.1715 42.0058 51.8854 42.0456L53.1833 42.1181V45.1877V48.2574H52.1787C51.6262 48.2574 50.2809 48.2067 49.1889 48.1447C47.017 48.0215 47.0283 48.0254 46.8307 47.3189C46.6421 46.644 46.4741 44.4648 46.554 43.7279C46.6303 43.024 46.6513 42.984 47.2854 42.3318C47.6444 41.9626 47.9941 41.6605 48.0625 41.6605C48.131 41.6605 48.7271 41.7309 49.3872 41.8168ZM60.0134 42.2556C60.8484 42.9596 60.8954 43.0992 60.8684 44.7994C60.8472 46.1492 60.7046 47.1399 60.4576 47.6539C60.2866 48.0096 60.2743 48.0146 59.4006 48.0816C58.9144 48.119 57.5591 48.1813 56.3887 48.2203L54.2608 48.291V45.2036V42.1161L55.6345 42.037C56.39 41.9935 57.4446 41.8978 57.9779 41.8244C58.5112 41.751 59.0286 41.6841 59.1275 41.6758C59.2265 41.6673 59.6252 41.9283 60.0134 42.2556ZM15.9759 48.7528C16.3534 48.8209 16.4392 48.9966 16.4415 49.706C16.4432 50.2135 16.2623 50.4779 15.4591 51.142L14.9056 51.5996L14.9788 50.5403C15.105 48.7137 15.1418 48.5485 15.4061 48.625C15.532 48.6615 15.7884 48.719 15.9759 48.7528ZM34.4139 49.9829C34.4794 50.7563 34.5213 51.4007 34.5071 51.4147C34.4928 51.4289 34.233 51.2054 33.9296 50.9182C33.3246 50.3452 33.1892 49.9923 33.2985 49.2726C33.3583 48.8787 33.4139 48.8029 33.7132 48.708C33.9034 48.6477 34.112 48.5934 34.1769 48.5875C34.2514 48.5805 34.3385 49.0931 34.4139 49.9829ZM44.676 48.6968C45.0449 48.806 45.0887 48.8589 45.1512 49.2709C45.2728 50.0708 45.1271 50.4042 44.3596 51.0832L43.8859 51.5023L43.9529 50.9173C43.9896 50.5954 44.0515 49.9373 44.0903 49.4544C44.1291 48.9716 44.1852 48.5766 44.2152 48.5766C44.2451 48.5766 44.4524 48.6308 44.676 48.6968ZM63.3513 49.082C63.3844 49.36 63.4434 50.0396 63.4823 50.5924L63.5528 51.5973L63.0009 51.1409C62.1567 50.4429 62.018 50.2251 62.0199 49.5996C62.0219 48.9323 62.0686 48.8627 62.6108 48.7183C63.2817 48.5396 63.2868 48.5421 63.3513 49.082ZM20.3756 49.2166C21.383 49.2726 22.6557 49.3191 23.2039 49.3199L24.2005 49.3214V50.016V50.7106L23.5271 50.6569C23.1568 50.6275 22.3446 50.5753 21.7224 50.5412C20.6127 50.4801 18.241 50.2262 17.7629 50.1174C17.5506 50.0691 17.5205 49.9948 17.5205 49.5222V48.9822L18.0322 49.0485C18.3137 49.085 19.3682 49.1606 20.3756 49.2166ZM32.1998 49.5076C32.1695 49.7856 32.1377 50.0224 32.1291 50.0338C32.0534 50.1341 28.2666 50.5292 26.2746 50.6446L25.2779 50.7023V50.0281V49.3539L27.5675 49.2733C28.8268 49.229 30.2206 49.1569 30.6651 49.1131C31.1095 49.0692 31.649 49.0264 31.8639 49.0178L32.2547 49.0022L32.1998 49.5076ZM49.3046 49.2152C50.2231 49.2705 51.4716 49.3172 52.079 49.3186L53.1833 49.3214V50.0118V50.7023L52.1867 50.6446C50.1937 50.5292 46.4044 50.1338 46.3331 50.0338C46.3249 50.0224 46.2872 49.7794 46.2492 49.4939L46.1804 48.9748L46.9074 49.0447C47.3074 49.0831 48.3861 49.1599 49.3046 49.2152ZM60.9408 49.5322C60.9408 49.9945 60.9099 50.0692 60.6984 50.1174C60.2202 50.2262 57.8486 50.4801 56.7389 50.5412C56.1166 50.5753 55.3046 50.6275 54.9342 50.6569L54.2608 50.7106V50.0316V49.3528L56.5503 49.2718C57.8096 49.2273 59.2035 49.1555 59.6479 49.1121C61.0696 48.9736 60.9408 48.9318 60.9408 49.5322ZM18.8362 51.3368C19.7421 51.4505 20.9682 51.5717 21.5608 51.6062C22.1534 51.6406 22.9898 51.6953 23.4194 51.7278L24.2005 51.7868V53.1356V54.4843L22.433 56.2274C21.3358 57.3093 20.6105 57.9474 20.5206 57.9097C20.4408 57.8764 19.1393 56.991 17.6282 55.9423C14.8821 54.0366 14.8808 54.0355 14.9172 53.6735C14.9765 53.0834 15.2428 52.6572 15.8331 52.2072C16.1389 51.9741 16.5316 51.6364 16.7056 51.4568C16.8796 51.2772 17.0596 51.1302 17.1055 51.1302C17.1514 51.1302 17.9302 51.2232 18.8362 51.3368ZM33.447 51.9425C34.3795 52.8024 34.5004 53.0283 34.5651 54.0319L34.5977 54.5396L31.7425 56.2825L28.8873 58.0253L27.0826 56.2547L25.2779 54.4842V53.1349V51.7855L25.9513 51.7264C26.3218 51.6939 27.1338 51.6384 27.756 51.6031C28.3782 51.5677 29.5661 51.4529 30.3957 51.348C32.6785 51.0592 32.4386 51.0125 33.447 51.9425ZM47.9039 51.3361C48.8225 51.448 50.083 51.5686 50.7053 51.6039C51.3275 51.6393 52.1396 51.6947 52.5099 51.7269L53.1833 51.7855V53.1349V54.4842L51.3787 56.2564L49.574 58.0287L46.6858 56.2681L43.7976 54.5076L43.872 53.9095C43.9128 53.5805 43.9898 53.1917 44.043 53.0454C44.1777 52.6744 45.7561 51.1538 46.0184 51.1422C46.137 51.137 46.9854 51.2243 47.9039 51.3361ZM61.4975 51.2245C61.5173 51.2764 61.8969 51.6179 62.3413 51.9833C63.3293 52.796 63.413 52.9103 63.4888 53.5491L63.549 54.0562L60.7423 55.9981C59.1986 57.0661 57.8972 57.9399 57.8502 57.9399C57.8032 57.9399 56.9764 57.1624 56.0128 56.212L54.2608 54.4843V53.1356V51.7868L55.0419 51.7301C57.9127 51.5219 59.1678 51.4105 59.9711 51.2926C61.1376 51.1214 61.4528 51.1073 61.4975 51.2245ZM17.041 56.8304C18.1912 57.6247 19.2308 58.3549 19.3513 58.4531C19.5632 58.6255 19.5135 58.6571 17.8721 59.3958C16.938 59.816 16.1089 60.1752 16.0297 60.1938C15.7688 60.255 15.2778 59.2202 15.1118 58.2591C14.9215 57.1583 14.7767 55.3863 14.8769 55.3863C14.9171 55.3863 15.8908 56.0362 17.041 56.8304ZM63.5881 56.2109C63.3983 58.3928 63.1474 59.4625 62.6905 60.0376L62.5031 60.2734L60.7013 59.4548C59.6099 58.959 58.9385 58.5979 58.9983 58.5388C59.1968 58.3428 63.4756 55.3931 63.5662 55.3897C63.6177 55.3879 63.6275 55.7574 63.5881 56.2109ZM26.4097 57.0891L28.0236 58.6855L26.3814 60.3073L24.7392 61.9291L23.097 60.3073L21.4549 58.6855L23.0688 57.0891C23.9564 56.2111 24.7081 55.4927 24.7392 55.4927C24.7704 55.4927 25.5221 56.2111 26.4097 57.0891ZM55.3925 57.0891L57.0064 58.6855L55.3643 60.3073L53.7221 61.9291L52.0798 60.3073L50.4377 58.6855L52.0516 57.0891C52.9392 56.2111 53.6909 55.4927 53.7221 55.4927C53.7532 55.4927 54.5049 56.2111 55.3925 57.0891ZM34.6516 55.9455C34.6516 56.019 34.5779 56.7009 34.4879 57.4609C34.3223 58.8592 34.0309 59.7152 33.5009 60.3596L33.3048 60.5982L31.6113 59.668C30.68 59.1565 29.917 58.7139 29.916 58.6847C29.9138 58.6248 34.4448 55.8386 34.5708 55.8223C34.6152 55.8165 34.6516 55.872 34.6516 55.9455ZM46.2661 57.2483C47.5212 58.009 48.5472 58.6554 48.5461 58.6847C48.5449 58.7139 47.7818 59.1561 46.8502 59.6673L45.1565 60.5968L44.9566 60.36C44.5661 59.8971 44.214 59.0579 44.0779 58.2651C43.8749 57.0827 43.7728 55.7808 43.8865 55.8262C43.9402 55.8476 45.0109 56.4875 46.2661 57.2483ZM22.3946 61.1041L24.2005 62.8852V63.4257V63.9662L23.4194 63.8758C21.8919 63.6989 19.9199 63.081 18.5661 62.3549C17.9003 61.9978 16.7679 61.2265 16.7668 61.1294C16.7664 61.0837 20.3627 59.3709 20.5361 59.3343C20.5651 59.3281 21.4015 60.1246 22.3946 61.1041ZM59.8365 60.2318C60.8587 60.6931 61.6943 61.0964 61.6934 61.1279C61.6896 61.2673 60.3766 62.1258 59.5625 62.5213C58.1204 63.2218 56.5224 63.7001 55.0419 63.8744L54.2608 63.9662V63.428V62.8898L56.0584 61.1123C57.0471 60.1346 57.8834 59.3478 57.9169 59.3638C57.9504 59.3798 58.8142 59.7703 59.8365 60.2318ZM30.6847 60.3605C31.6199 60.8726 32.3704 61.3394 32.3527 61.3979C32.2915 61.5983 30.5959 62.5764 29.7113 62.9216C28.5839 63.3615 27.0587 63.76 26.0591 63.8758L25.2779 63.9662V63.428V62.8899L27.0276 61.1597C27.9898 60.208 28.8238 59.4295 28.8808 59.4295C28.9378 59.4295 29.7495 59.8485 30.6847 60.3605ZM51.4313 61.1573L53.1833 62.8851V63.4257V63.9662L52.4022 63.8758C50.7896 63.689 48.4285 62.9195 47.1856 62.1756C46.4553 61.7386 45.9877 61.3452 46.1262 61.2844C46.1854 61.2584 46.937 60.8348 47.7962 60.3433C48.6554 59.8516 49.4307 59.4449 49.5189 59.4395C49.6071 59.434 50.4677 60.207 51.4313 61.1573Z" fill="#9BBA52"/>
</svg>
