<svg width="80" height="80" viewBox="0 0 80 80" fill="none" xmlns="http://www.w3.org/2000/svg">
<path fill-rule="evenodd" clip-rule="evenodd" d="M37.2916 14.0213C34.235 14.3397 31.6972 15.0043 29.2071 16.1386C27.8286 16.7664 25.7069 18.0361 25.4243 18.4022C24.9416 19.0277 25.4007 19.9555 26.1929 19.9555C26.4861 19.9555 26.7694 19.8314 27.3725 19.439C29.3773 18.1346 32.2987 16.9462 34.6986 16.4588C37.8716 15.8145 41.4889 15.8714 44.0733 16.6063C49.0766 18.0289 52.295 23.2162 51.4043 28.4219C50.986 30.8664 49.362 33.8283 47.1664 36.1506C45.0417 38.3983 43.5363 39.4155 40.0306 40.9729C38.6201 41.5995 37.6465 42.2643 36.6453 43.2847C35.2851 44.671 34.3185 46.3941 33.8356 48.2931C33.6294 49.1042 33.5714 49.6412 33.5098 51.3125C33.4472 53.0103 33.4006 53.4339 33.2274 53.8822C32.0022 57.0531 28.3529 58.3264 25.6819 56.515C24.9188 55.9975 23.2752 54.4488 22.4317 53.4525C17.224 47.3012 15.6067 39.0796 18.1019 31.4412C18.5968 29.926 19.5492 27.8638 20.3295 26.6173C20.7142 26.0028 20.836 25.7138 20.836 25.4152C20.836 24.6077 19.9257 24.1398 19.3119 24.6318C19.172 24.744 18.7319 25.3908 18.334 26.069C16.7586 28.7543 15.6965 31.8116 15.1864 35.1297C14.9395 36.7348 14.9375 40.3952 15.1826 42.0121C15.9925 47.3568 18.1744 51.9098 21.7256 55.665C23.3593 57.3925 24.7751 58.4803 26.0024 58.951C26.3698 59.0919 26.6842 59.2213 26.7013 59.2386C26.7182 59.2559 26.2358 60.5099 25.6292 62.0253C25.0224 63.5408 24.526 64.87 24.526 64.9791C24.526 65.503 25.0116 66 25.5234 66C25.7866 66 26.2797 65.7448 26.3507 65.5718C26.3802 65.4998 26.9456 64.0964 27.6072 62.4532C28.2687 60.8099 28.8222 59.4572 28.8372 59.4471C28.8522 59.4371 29.2458 59.3493 29.712 59.2519C32.2505 58.7218 34.3018 56.8928 35.1614 54.3933C35.388 53.7344 35.4261 53.4145 35.4981 51.5666C35.6042 48.8452 35.9187 47.6444 36.9293 46.1006C37.998 44.4681 39.3838 43.3893 41.5264 42.5219C46.6248 40.4577 51.0874 35.8133 52.8547 30.732L53.225 29.6672L53.3365 30.2238C53.5275 31.177 53.6439 32.6533 53.6457 34.1446L53.6474 35.5776L55.7365 38.7927L57.8257 42.0078L56.1105 43.2116C54.847 44.0986 54.3495 44.5072 54.2211 44.7639C54.0779 45.05 54.0467 45.3868 54.0466 46.6485L54.0464 48.1847L52.4257 48.9205C51.5344 49.3253 50.7042 49.7685 50.5807 49.9057C50.294 50.2242 50.2799 50.8304 50.5512 51.1818C50.6598 51.3226 51.0239 51.5369 51.374 51.6661C51.7193 51.7937 52.465 52.0796 53.0311 52.3016L54.0604 52.7053L54.0284 54.2027C53.9972 55.6663 53.9897 55.7114 53.6947 56.1972C53.508 56.5047 53.2066 56.8116 52.9048 57.0019L52.4168 57.3095L47.0732 57.3603C43.0059 57.399 41.6766 57.442 41.5075 57.5405C40.9863 57.8441 40.9181 58.6326 41.3729 59.0961L41.6644 59.3932H43.0683C43.8404 59.3932 44.4722 59.4345 44.4722 59.4851C44.4722 59.5356 44.0234 60.7566 43.4749 62.1984C42.9264 63.6403 42.4776 64.93 42.4776 65.0645C42.4776 65.4014 43.0806 66 43.42 66C43.8839 66 44.2309 65.7362 44.4497 65.2172C44.5628 64.9489 45.0898 63.586 45.621 62.1884C46.1521 60.7908 46.6093 59.5902 46.6372 59.5202C46.6759 59.4229 47.3332 59.3932 49.4485 59.3932C51.6128 59.3932 52.3378 59.3593 52.8037 59.2364C54.0328 58.9122 55.0554 58.0306 55.6649 56.7699L55.9911 56.095L56.0231 53.8747C56.05 52.0108 56.0305 51.6162 55.902 51.4163C55.8037 51.2635 55.4432 51.0605 54.8976 50.8506C54.4294 50.6705 54.0469 50.495 54.0476 50.4604C54.0482 50.426 54.4122 50.2376 54.8564 50.042C56.0515 49.5156 56.0409 49.5387 56.0415 47.4617L56.0421 45.7221L57.6777 44.5797C59.1711 43.5365 59.3357 43.3913 59.5719 42.908C59.8676 42.3032 59.897 41.8638 59.6775 41.3228C59.5931 41.1149 58.9808 40.1106 58.3169 39.0909L57.1097 37.2368L57.849 36.4482C61.1374 32.9401 62.2715 27.8906 60.8169 23.2333C60.071 20.845 58.5301 18.5302 56.6719 17.0067C55.3091 15.8893 54.0584 15.1778 52.5714 14.6741C50.6203 14.013 50.8092 14.0276 43.9237 14.0053C40.468 13.9941 37.4836 14.0013 37.2916 14.0213ZM50.1093 16.1409C53.9245 16.7716 57.2189 19.4378 58.6343 23.0402C59.2739 24.6683 59.3682 25.2117 59.3686 27.2738C59.3689 28.9834 59.3453 29.2439 59.1081 30.1408C58.6456 31.8892 57.7546 33.5616 56.5837 34.878L56.0132 35.5194L55.8283 35.2337C55.6764 34.9989 55.6432 34.7471 55.6427 33.8221C55.6408 30.4278 54.899 27.0864 53.467 24.0212C53.245 23.546 52.9881 22.9286 52.8961 22.649C52.0724 20.1474 50.2912 17.8114 47.9593 16.1745C47.7179 16.0052 47.7272 16.002 48.4614 15.9971C48.8728 15.9944 49.6143 16.0592 50.1093 16.1409ZM22.4317 20.942C22.1498 21.0471 21.8437 21.4041 21.7793 21.7029C21.5737 22.6567 22.7553 23.3005 23.4367 22.606C24.1647 21.864 23.3918 20.5843 22.4317 20.942ZM61.2768 44.532C59.8556 45.0833 59.7718 45.1313 59.5984 45.4928C59.4442 45.8145 59.434 45.9291 59.5326 46.2333C59.6724 46.6653 60.0082 46.9122 60.4518 46.9091C60.7118 46.9074 62.0641 46.4326 63.5494 45.8216C63.7878 45.7235 64.0194 45.2473 64.0194 44.8554C64.0194 44.4087 63.5491 43.9419 63.1046 43.9475C62.9221 43.9498 62.0996 44.2128 61.2768 44.532ZM60.9201 49.7292C60.3488 50.3115 60.655 51.2638 61.4633 51.4184C61.6359 51.4514 62.5995 51.464 63.6048 51.4463L65.4325 51.4142L65.7345 51.0694C65.9968 50.77 66.0293 50.6697 65.9815 50.3073C65.945 50.0295 65.8393 49.8133 65.6656 49.661C65.4128 49.4393 65.3389 49.4321 63.3081 49.4321H61.2116L60.9201 49.7292ZM59.832 54.1839C59.4168 54.5696 59.3558 54.9811 59.649 55.4202C59.849 55.7198 60.0713 55.8406 61.2768 56.3048C62.0448 56.6006 62.8448 56.8447 63.0547 56.8473C63.8602 56.8574 64.316 55.891 63.795 55.278C63.5391 54.9769 60.9073 53.9044 60.4242 53.9044C60.2461 53.9044 60.0162 54.0129 59.832 54.1839Z" fill="#E86851"/>
</svg>
