<svg width="155" height="311" viewBox="0 0 155 311" fill="none" xmlns="http://www.w3.org/2000/svg">
<path d="M76.4988 155.501C76.4988 111.977 111.942 76.5684 155.469 76.5684C198.997 76.5684 234.44 111.995 234.44 155.501C234.44 199.006 198.991 234.433 155.5 234.433C112.009 234.433 76.4988 199.037 76.4988 155.501ZM232.423 155.501C232.414 135.103 224.307 115.543 209.883 101.117C195.46 86.6919 175.9 78.581 155.5 78.5663C113.113 78.5663 78.4723 113.019 78.4723 155.519C78.4723 198.019 113.082 232.534 155.5 232.534C197.918 232.534 232.423 197.982 232.423 155.501Z" fill="#E2F2D9"/>
<path d="M103.239 155.497C103.237 145.161 106.3 135.057 112.041 126.462C117.782 117.866 125.943 111.167 135.492 107.21C145.041 103.253 155.55 102.216 165.688 104.231C175.826 106.246 185.139 111.222 192.449 118.53C199.759 125.837 204.738 135.148 206.755 145.285C208.773 155.422 207.739 165.93 203.784 175.479C199.828 185.028 193.13 193.19 184.536 198.932C175.941 204.675 165.837 207.74 155.5 207.74C141.645 207.728 128.361 202.221 118.563 192.426C108.765 182.632 103.254 169.35 103.239 155.497ZM206.231 155.497C206.221 145.463 203.237 135.658 197.654 127.32C192.072 118.982 184.143 112.486 174.869 108.654C165.595 104.822 155.394 103.825 145.553 105.789C135.713 107.753 126.676 112.591 119.585 119.69C112.494 126.789 107.667 135.831 105.714 145.673C103.761 155.515 104.771 165.714 108.615 174.983C112.459 184.251 118.965 192.171 127.31 197.743C135.655 203.315 145.465 206.287 155.5 206.285C168.954 206.252 181.846 200.888 191.351 191.368C200.857 181.848 206.201 168.949 206.213 155.497H206.231Z" fill="#E2F2D9"/>
<path d="M108.334 155.498C108.339 146.177 111.107 137.067 116.289 129.319C121.471 121.571 128.834 115.533 137.447 111.968C146.06 108.404 155.537 107.472 164.679 109.292C173.821 111.111 182.219 115.6 188.81 122.191C195.402 128.782 199.891 137.179 201.711 146.32C203.53 155.462 202.599 164.937 199.034 173.55C195.469 182.162 189.431 189.524 181.682 194.705C173.933 199.887 164.822 202.655 155.501 202.66C142.995 202.647 131.006 197.674 122.163 188.832C113.321 179.99 108.347 168.002 108.334 155.498ZM201.199 155.498C201.196 146.461 198.512 137.628 193.489 130.116C188.465 122.604 181.327 116.75 172.976 113.295C164.625 109.839 155.437 108.937 146.574 110.702C137.71 112.467 129.569 116.82 123.18 123.212C116.791 129.603 112.44 137.745 110.679 146.608C108.917 155.472 109.823 164.658 113.282 173.007C116.742 181.355 122.599 188.491 130.114 193.511C137.628 198.531 146.463 201.21 155.501 201.21C167.617 201.188 179.23 196.364 187.796 187.795C196.362 179.227 201.181 167.613 201.199 155.498Z" fill="#E2F2D9"/>
<path d="M149.715 77.7721L151.183 77.6426L152.861 104.085L151.399 104.214L149.715 77.7721Z" fill="#E2F2D9"/>
<path d="M140.088 79.0231L141.488 78.7949L146.434 104.806L145.034 105.071L140.088 79.0231Z" fill="#E2F2D9"/>
<path d="M130.659 81.5954L131.991 81.1699L140.15 106.323L138.818 106.854L130.659 81.5954Z" fill="#E2F2D9"/>
<path d="M121.507 85.2908L122.845 84.668L134.137 108.631L132.799 109.291L121.507 85.2908Z" fill="#E2F2D9"/>
<path d="M113.015 90.0403L114.217 89.3496L128.445 111.667L127.181 112.493L113.015 90.0403Z" fill="#E2F2D9"/>
<path d="M105.181 95.9421L106.254 94.9863L123.103 115.429L121.968 116.347L105.181 95.9421Z" fill="#E2F2D9"/>
<path d="M98.0286 102.703L99.0338 101.648L118.356 119.815L117.289 120.901L98.0286 102.703Z" fill="#E2F2D9"/>
<path d="M91.8118 110.317L92.7553 109.164L114.217 124.722L113.28 125.913L91.8118 110.317Z" fill="#E2F2D9"/>
<path d="M86.7366 118.66L87.3965 117.371L110.61 130.167L109.931 131.449L86.7366 118.66Z" fill="#E2F2D9"/>
<path d="M82.5789 127.559L83.1894 126.178L107.858 135.933L107.26 137.321L82.5789 127.559Z" fill="#E2F2D9"/>
<path d="M79.6501 136.916L80.0449 135.535L105.645 142.096L105.25 143.546L79.6501 136.916Z" fill="#E2F2D9"/>
<path d="M77.9656 146.547L78.1814 145.098L104.38 148.458L104.176 149.975L77.9656 146.547Z" fill="#E2F2D9"/>
<path d="M77.436 156.34V154.854L103.918 154.921V156.34H77.436Z" fill="#E2F2D9"/>
<path d="M77.9656 164.617L104.176 161.447L104.441 162.835L78.1814 166.097L77.9656 164.617Z" fill="#E2F2D9"/>
<path d="M79.7112 174.243L105.385 167.682L105.73 169.229L80.1059 175.692L79.7112 174.243Z" fill="#E2F2D9"/>
<path d="M82.6465 183.604L107.327 173.91L107.858 175.329L83.257 184.955L82.6465 183.604Z" fill="#E2F2D9"/>
<path d="M86.7366 192.511L109.931 179.783L110.61 181.035L87.5321 193.831L86.7366 192.511Z" fill="#E2F2D9"/>
<path d="M91.8794 200.816L113.347 185.252L114.217 186.51L92.823 202.007L91.8794 200.816Z" fill="#E2F2D9"/>
<path d="M98.0962 208.462L117.418 190.4L118.423 191.455L99.1014 209.455L98.0962 208.462Z" fill="#E2F2D9"/>
<path d="M105.181 215.193L122.097 194.887L123.171 195.806L106.322 216.087L105.181 215.193Z" fill="#E2F2D9"/>
<path d="M113.082 221.061L127.242 198.707L128.531 199.533L114.353 221.85L113.082 221.061Z" fill="#E2F2D9"/>
<path d="M121.574 225.773L132.867 201.902L134.199 202.599L122.907 226.402L121.574 225.773Z" fill="#E2F2D9"/>
<path d="M130.659 229.495L138.88 204.379L140.218 204.841L132.139 229.927L130.659 229.495Z" fill="#E2F2D9"/>
<path d="M140.149 232.005L145.163 206.025L146.582 206.42L141.555 232.27L140.149 232.005Z" fill="#E2F2D9"/>
<path d="M149.783 233.356L151.528 206.914L152.996 207.05L151.245 233.424L149.783 233.356Z" fill="#E2F2D9"/>
<path d="M132.139 68.1466C132.139 49.283 150.782 32.9971 155.068 29.4698L155.136 29.3711L155.864 30.0309L155.728 30.1604C150.794 34.2489 126.65 55.3509 134.809 77.4088L135.746 80.0111L134.809 80.4058L133.804 77.7973C132.71 74.6969 132.147 71.4342 132.139 68.1466Z" fill="#E2F2D9"/>
<path d="M154.883 30.0309L155.345 29.4698V29.3711H155.678L156.295 29.9014C164.929 37.4123 184.387 57.2626 176.838 77.7727L175.746 80.4058L174.889 80.0111L175.882 77.4088C183.283 57.5277 164.208 38.0413 155.567 30.5427L155.308 30.3454H155.173L154.883 30.0309Z" fill="#E2F2D9"/>
<path d="M65.73 74.5396C65.73 70.9753 65.9273 68.2065 66.063 66.7882V66.56L67.0004 66.4922L67.0682 66.7882C66.4084 73.1521 64.33 105.132 85.6623 114.925L88.1292 116.158L87.6481 117.015L85.1813 115.831C68.203 108.012 65.73 86.7001 65.73 74.5396Z" fill="#E2F2D9"/>
<path d="M66.144 66.4271L66.2119 66.2976H66.3414L66.4092 66.2298L67.0691 66.1681C78.5771 65.3109 106.453 65.5083 115.617 85.488L116.758 88.0595L115.882 88.4233L114.68 85.8148C105.793 66.4949 78.4414 66.2976 67.1925 67.1547H66.8656L66.7299 67.2226H66.2674L66.144 66.4271Z" fill="#E2F2D9"/>
<path d="M29.3625 155.845L29.9793 155.117L30.263 155.382C35.9306 162.24 56.0602 184.131 77.3987 176.219L80.0691 175.331L80.3281 176.219L77.7934 177.083C55.8012 185.259 35.2707 162.973 29.5167 155.987L29.3625 155.845Z" fill="#E2F2D9"/>
<path d="M29.2949 155.58L29.3628 155.45V155.321L29.7575 154.858C37.3246 146.09 57.1089 126.566 77.7689 134.182L80.3036 135.206L79.9768 136.063L77.3742 135.107C57.3741 127.707 37.9043 146.879 30.5654 155.518L30.3002 155.716V155.845L30.0227 156.209L29.2949 155.58Z" fill="#E2F2D9"/>
<path d="M66.4707 244.008L66.7359 243.94L66.8716 244.008C75.7708 244.828 105.379 246.049 114.877 225.342L116.03 222.838L117.035 223.233L115.82 225.798C106.058 246.962 75.8386 245.808 66.8037 244.988L66.5385 245.056L66.4707 244.008Z" fill="#E2F2D9"/>
<path d="M65.8669 237.11C65.8669 223.723 68.8148 203.12 85.3984 195.474L87.9393 194.24L88.4018 195.196L85.8609 196.251C66.4096 205.217 66.3418 232.516 67.0695 243.795L67.1312 244.122L67.2669 244.257V244.683L66.4097 244.812L66.2123 244.751V244.615L66.1445 244.553V243.937C65.9964 242.025 65.8669 239.719 65.8669 237.11Z" fill="#E2F2D9"/>
<path d="M132.465 242.917C132.432 239.634 132.996 236.372 134.13 233.291L135.142 230.621L136.079 230.985L135.074 233.587C127.673 253.567 146.841 273.053 155.426 280.453L155.691 280.712H155.82L156.153 280.947L155.5 281.724L155.432 281.656H155.302L154.84 281.199C147.439 274.799 132.465 259.801 132.465 242.917Z" fill="#E2F2D9"/>
<path d="M123.566 69.7806C123.566 44.2941 148.444 22.4027 154.673 17.3214C154.748 17.1742 154.862 17.0503 155.002 16.9633C155.142 16.8763 155.304 16.8295 155.469 16.8281V18.4438C155.637 18.4456 155.799 18.3826 155.922 18.2677C156.045 18.1529 156.119 17.995 156.129 17.8271V18.2218L155.863 18.4191C149.117 23.895 116.215 52.4525 127.587 82.7305L126.039 83.3471C124.398 79.0125 123.56 74.4154 123.566 69.7806Z" fill="#E2F2D9"/>
<path d="M154.543 18.2308V17.8362C154.543 17.9997 154.608 18.1565 154.724 18.2722C154.839 18.3878 154.996 18.4528 155.16 18.4528V16.8125C155.332 16.8173 155.501 16.8649 155.651 16.951C155.8 17.0371 155.926 17.159 156.017 17.3058C163.239 23.2442 196.276 52.3197 184.639 83.2883L183.122 82.6717C194.463 52.5356 161.537 23.8486 154.894 18.3788L154.543 18.2308Z" fill="#E2F2D9"/>
<path d="M56.6456 68.9965C56.6408 65.3617 56.8467 61.7296 57.2623 58.1186L58.8658 58.0508V58.3838C58.8658 58.8463 52.4519 109.289 84.2869 123.793L83.6702 125.279C60.0437 114.561 56.6456 85.0851 56.6456 68.9965Z" fill="#E2F2D9"/>
<path d="M57.7195 59.0451V57.3924H58.0587C63.3378 56.8683 110.819 52.749 125.127 83.8039L123.647 84.4637C109.801 54.4263 63.3933 58.4531 58.0587 59.0451H57.7195Z" fill="#E2F2D9"/>
<path d="M17.0657 156.116L18.2004 154.926L18.3299 155.061C18.7308 155.586 50.1526 195.761 82.6474 183.483L83.2641 184.963C49.6962 197.79 18.4718 157.898 17.2014 156.215L17.0657 156.116Z" fill="#E2F2D9"/>
<path d="M17.0657 155.247L17.1952 155.111C18.4656 153.465 49.7579 113.641 83.2579 126.363L82.6412 127.917C50.2759 115.583 19.7361 154.587 18.3916 156.203L18.1943 156.4L17.0657 155.247Z" fill="#E2F2D9"/>
<path d="M58.0579 252.145H58.323C58.8534 252.213 109.264 258.576 123.794 226.658L125.323 227.386C110.275 260.291 58.5882 253.828 58.0579 253.76V252.145Z" fill="#E2F2D9"/>
<path d="M56.8255 242.585C56.8255 226.262 60.2421 196.657 83.7021 185.908L84.4421 187.357C54.2908 201.207 58.3611 247.63 59.0334 252.902V253.297H57.3559V252.97C56.9983 249.52 56.8213 246.054 56.8255 242.585Z" fill="#E2F2D9"/>
<path d="M154.884 293.229V292.865L155.149 292.606C161.81 287.198 194.786 258.647 183.376 228.313L184.826 227.752C196.667 258.776 163.592 287.821 156.401 293.66C156.17 293.942 155.843 294.129 155.482 294.185V292.538C155.396 292.54 155.312 292.56 155.234 292.597C155.156 292.633 155.087 292.686 155.03 292.751C154.974 292.816 154.932 292.892 154.907 292.974C154.881 293.057 154.874 293.143 154.884 293.229Z" fill="#E2F2D9"/>
<path d="M123.911 241.215C123.896 236.608 124.733 232.038 126.378 227.734L127.913 228.296C116.646 258.58 149.449 287.199 156.116 292.607L156.443 292.866V293.23C156.454 293.139 156.445 293.047 156.416 292.96C156.387 292.873 156.34 292.794 156.277 292.728C156.213 292.662 156.136 292.611 156.051 292.578C155.966 292.545 155.874 292.532 155.783 292.539V294.186C155.615 294.182 155.452 294.13 155.312 294.038C155.173 293.945 155.062 293.814 154.993 293.661C148.771 288.697 123.911 266.855 123.911 241.215Z" fill="#E2F2D9"/>
<path d="M57.6387 58.384L58.3171 57.6934L58.5761 57.8907L67.0004 66.4314L66.211 66.9926L66.1432 66.8569L57.6387 58.384Z" fill="#E2F2D9"/>
<path d="M76.979 120.071L86.6676 117.271L86.9328 118.227L77.1764 121.027L76.979 120.071Z" fill="#E2F2D9"/>
<path d="M114.618 70.5234H113.675V83.4486H114.618V70.5234Z" fill="#E2F2D9"/>
<path d="M117.153 86.7409L120.107 76.8867L121.094 77.2135L118.096 87.0739L117.153 86.7409Z" fill="#E2F2D9"/>
<path d="M17.5955 155.977V154.99H17.9901H29.6955L29.8928 155.052L29.7571 155.977H29.6276H17.9901H17.5955Z" fill="#E2F2D9"/>
<path d="M26.2788 164.747L33.7164 159.869L34.179 160.689L26.8277 165.635L26.2788 164.747Z" fill="#E2F2D9"/>
<path d="M31.509 169.562L38.9281 164.875L39.3907 165.701L32.0332 170.351L31.509 169.562Z" fill="#E2F2D9"/>
<path d="M39.7356 175.691L46.4085 170.678L47.019 171.541L40.2598 176.548L39.7356 175.691Z" fill="#E2F2D9"/>
<path d="M36.0415 173.218L42.6034 167.945L43.1954 168.704L36.652 173.976L36.0415 173.218Z" fill="#E2F2D9"/>
<path d="M50.8313 181.956L57.72 176.418L58.3183 177.176L51.3555 182.714L50.8313 181.956Z" fill="#E2F2D9"/>
<path d="M57.7874 183.741L65.8664 178L66.4091 178.796L58.2499 184.561L57.7874 183.741Z" fill="#E2F2D9"/>
<path d="M65.7993 185.978L74.9637 177.012L75.6236 177.739L66.4777 186.638L65.7993 185.978Z" fill="#E2F2D9"/>
<path d="M74.8325 185.98L79.7108 177.082L80.6543 177.643L75.7699 186.443L74.8325 185.98Z" fill="#E2F2D9"/>
<path d="M21.5981 159.802L31.6383 157.496L31.9035 158.52L21.814 160.758L21.5981 159.802Z" fill="#E2F2D9"/>
<path d="M57.6387 252.645L57.9162 252.411L66.3406 244.006L66.9326 244.764L66.8031 244.894L58.3171 253.367L57.6387 252.645Z" fill="#E2F2D9"/>
<path d="M70.6763 253.431L72.4894 244.699L73.3652 244.89L71.6199 253.696L70.6763 253.431Z" fill="#E2F2D9"/>
<path d="M77.7693 253.037L79.6503 244.564L80.5877 244.762L78.7067 253.303L77.7693 253.037Z" fill="#E2F2D9"/>
<path d="M87.9377 251.786L89.0787 243.344L90.0839 243.473L88.943 251.884L87.9377 251.786Z" fill="#E2F2D9"/>
<path d="M83.5903 252.451L84.4599 244.139L85.4652 244.274L84.5956 252.513L83.5903 252.451Z" fill="#E2F2D9"/>
<path d="M100.174 248.359L101.179 239.393L102.116 239.553L101.179 248.427L100.174 248.359Z" fill="#E2F2D9"/>
<path d="M106.39 244.634L107.92 234.842L108.925 234.94L107.328 244.764L106.39 244.634Z" fill="#E2F2D9"/>
<path d="M113.544 240.413L113.81 227.691H114.747L114.618 240.413H113.544Z" fill="#E2F2D9"/>
<path d="M63.7996 253.172L69.3439 244.434L70.1518 245.032L64.7246 253.702L63.7996 253.172Z" fill="#E2F2D9"/>
<path d="M57.6387 239.65L66.4762 238.004L66.6058 238.991L57.9162 240.545L57.6387 239.65Z" fill="#E2F2D9"/>
<path d="M58.0464 232.4L66.4769 230.686L66.7359 231.611L58.1142 233.424L58.0464 232.4Z" fill="#E2F2D9"/>
<path d="M59.2556 222.183L67.68 221.129L67.8773 222.116L59.3851 223.17L59.2556 222.183Z" fill="#E2F2D9"/>
<path d="M58.5759 226.666L67.0003 225.771L67.0681 226.795L58.6438 227.554L58.5759 226.666Z" fill="#E2F2D9"/>
<path d="M62.5984 209.853L71.4853 208.965L71.621 209.988L62.7341 210.809L62.5984 209.853Z" fill="#E2F2D9"/>
<path d="M66.2117 203.622L76.1038 202.068L76.3012 203.061L66.3412 204.578L66.2117 203.622Z" fill="#E2F2D9"/>
<path d="M57.6387 246.741L66.4762 241.234L67.0004 242.092L58.1814 247.567L57.6387 246.741Z" fill="#E2F2D9"/>
<path d="M145.841 284.163L150.917 276.844L151.725 277.374L146.649 284.755L145.841 284.163Z" fill="#E2F2D9"/>
<path d="M140.896 278.891L145.707 271.633L146.583 272.095L141.704 279.415L140.896 278.891Z" fill="#E2F2D9"/>
<path d="M134.612 270.642L139.823 263.914L140.563 264.574L135.34 271.369L134.612 270.642Z" fill="#E2F2D9"/>
<path d="M137.221 274.339L142.623 267.809L143.369 268.468L138.01 274.931L137.221 274.339Z" fill="#E2F2D9"/>
<path d="M128.186 259.6L133.94 252.645L134.742 253.304L128.994 260.162L128.186 259.6Z" fill="#E2F2D9"/>
<path d="M126.384 252.643L132.206 244.564L133.063 245.126L127.18 253.235L126.384 252.643Z" fill="#E2F2D9"/>
<path d="M124.244 244.499L133.409 235.336L134.068 236.027L124.916 245.196L124.244 244.499Z" fill="#E2F2D9"/>
<path d="M124.374 235.2L133.477 230.359L133.94 231.278L124.917 236.094L124.374 235.2Z" fill="#E2F2D9"/>
<path d="M150.849 289.178L153.192 279.09L154.148 279.355L151.725 289.376L150.849 289.178Z" fill="#E2F2D9"/>
<path d="M104.787 35.9361L106.125 35.375C113.279 52.1913 126.514 51.8583 127.981 51.7288L128.117 53.2149C126.514 53.3444 112.329 53.7083 104.787 35.9361Z" fill="#E2F2D9"/>
<path d="M100.433 62.7026C104.244 58.8485 109.862 50.3077 104.521 36.1863L105.928 35.6621C111.743 51.1218 104.787 60.4518 101.506 63.7509L100.433 62.7026Z" fill="#E2F2D9"/>
<path d="M110.738 50.1388L111.681 49.7441C115.382 59.0434 121.703 61.4175 125.249 62.0095L125.052 62.9961C121.37 62.3363 114.611 59.8018 110.738 50.1388Z" fill="#E2F2D9"/>
<path d="M109.666 67.6827C111.682 64.3158 113.477 58.513 110.541 50.1388L111.466 49.7441C114.55 58.513 112.601 64.6488 110.461 68.2069L109.666 67.6827Z" fill="#E2F2D9"/>
<path d="M35.1157 106.783L35.6461 105.432C52.6243 112.326 61.7271 102.7 62.7323 101.578L63.7993 102.565C62.7323 103.755 53.0375 114.041 35.1157 106.783Z" fill="#E2F2D9"/>
<path d="M35.1174 107.114L35.6478 105.764C50.7636 112.59 52.4287 123.992 52.4287 128.74L50.9609 128.808V128.74C50.9609 124.356 49.3636 113.564 35.1174 107.114Z" fill="#E2F2D9"/>
<path d="M49.3628 112.62L49.7575 111.732C58.9219 115.654 65.0706 112.848 67.9383 110.838L68.555 111.596C65.5331 113.773 58.9219 116.739 49.3628 112.62Z" fill="#E2F2D9"/>
<path d="M49.1467 112.787L49.5599 111.93C57.9843 115.882 60.852 121.556 61.8943 125.576L60.8829 125.774C60.0441 121.981 57.1764 116.61 49.1467 112.787Z" fill="#E2F2D9"/>
<path d="M35.314 204.832C52.2305 197.71 51.8975 184.483 51.768 183.04L53.1679 182.91C53.3653 184.557 53.7847 198.635 35.8999 206.152L35.314 204.832Z" fill="#E2F2D9"/>
<path d="M35.5793 205.101C51.1576 199.231 60.4577 206.285 63.6523 209.418L62.5977 210.54C58.8419 206.618 50.2634 201.05 36.1899 206.39L35.5793 205.101Z" fill="#E2F2D9"/>
<path d="M49.7571 199.281C58.9215 195.754 61.3945 189.229 62.0544 185.801L62.9918 185.93C62.2518 189.63 59.7787 196.383 50.0839 200.237L49.7571 199.281Z" fill="#E2F2D9"/>
<path d="M49.7571 199.525C58.5083 196.491 64.5953 198.372 68.1414 200.548L67.611 201.307C64.2623 199.26 58.4466 197.484 50.0223 200.481L49.7571 199.525Z" fill="#E2F2D9"/>
<path d="M101.574 248.354L102.512 247.17C103.714 248.292 114.087 257.918 106.718 275.857L105.379 275.327C112.206 258.313 102.641 249.23 101.574 248.354Z" fill="#E2F2D9"/>
<path d="M105.793 275.327C112.577 260.163 124.042 258.578 128.79 258.578V260.027C123.302 260.027 113.28 262.075 107.131 275.919L105.793 275.327Z" fill="#E2F2D9"/>
<path d="M110.738 242.986L111.527 242.369C113.673 245.502 116.689 252.125 112.6 261.621L111.681 261.227C115.616 252.088 112.73 245.921 110.738 242.986Z" fill="#E2F2D9"/>
<path d="M111.88 261.446C115.882 253.041 121.507 250.106 125.509 249.113L125.713 250.069C121.969 251.025 116.622 253.769 112.731 261.872L111.88 261.446Z" fill="#E2F2D9"/>
<path d="M144.177 41.0427L144.633 40.1855C148.771 42.2267 155.796 47.6348 155.993 60.3256H155.068C154.883 48.8126 149.055 43.4785 144.177 41.0427Z" fill="#E2F2D9"/>
<path d="M66.2117 81.6286C70.6767 80.1487 79.5143 79.0263 88.469 87.8631L87.8091 88.5846C79.5821 80.4755 71.6819 80.8702 66.6064 82.5845L66.2117 81.6286Z" fill="#E2F2D9"/>
<path d="M80.7854 72.2465C80.7468 70.2882 81.0365 68.3372 81.6426 66.4746L82.5122 66.8076C81.2788 70.8282 80.3722 78.9743 88.7287 87.774L87.9393 88.4338C82.2532 82.4522 80.7854 76.6803 80.7854 72.2465Z" fill="#E2F2D9"/>
<path d="M40.1743 166.327C42.7152 161.32 48.2718 155.184 60.304 155.055V155.98C48.7344 156.208 43.4553 161.98 41.0501 166.79L40.1743 166.327Z" fill="#E2F2D9"/>
<path d="M40.3279 144.768L41.1975 144.373C43.1956 148.129 48.2897 154.591 60.3897 154.788L60.3219 155.843C47.747 155.448 42.4062 148.758 40.3279 144.768Z" fill="#E2F2D9"/>
<path d="M80.5874 238.531C80.5874 233.98 82.1847 228.313 87.8092 222.498L88.5307 223.22C80.5134 231.464 80.9143 239.253 82.5116 244.359L81.642 244.753C80.9422 242.754 80.5856 240.65 80.5874 238.531Z" fill="#E2F2D9"/>
<path d="M66.4707 229.365L66.7359 228.44C70.8062 229.673 78.9715 230.617 87.6549 222.311L88.469 223.032C79.3169 231.61 70.7446 230.728 66.4707 229.365Z" fill="#E2F2D9"/>
<path d="M144.307 269.79C148.112 267.811 154.544 262.735 154.871 250.6H155.796C155.5 263.26 148.716 268.6 144.769 270.647L144.307 269.79Z" fill="#E2F2D9"/>
<path d="M137.547 50.9652L137.874 49.5469C138.09 49.6147 155.728 54.1656 156.259 77.4075L154.809 77.4692C154.267 55.3496 138.232 51.0947 137.547 50.9652Z" fill="#E2F2D9"/>
<path d="M68.0745 93.0032C68.2718 92.8676 83.9796 83.6732 100.76 99.7865L99.7676 100.841C83.7329 85.48 69.0057 94.1132 68.8084 94.2489L68.0745 93.0032Z" fill="#E2F2D9"/>
<path d="M90.3433 79.1539C90.3433 72.5618 92.952 68.2082 93.0136 68.1465L94.2471 68.9358C93.8462 69.5525 85.8165 83.637 101.068 99.5283L99.9949 100.614C92.4031 92.671 90.3433 85.0861 90.3433 79.1539Z" fill="#E2F2D9"/>
<path d="M49.4915 173.022C49.5593 172.923 54.1107 155.25 77.3733 154.787L77.4349 156.205C55.3133 156.767 50.9592 173.219 50.9592 173.416L49.4915 173.022Z" fill="#E2F2D9"/>
<path d="M49.4915 137.975L50.9592 137.58C51.0888 138.24 55.3133 154.002 77.4349 154.458L77.3733 155.981C54.1107 155.451 49.5593 138.11 49.4915 137.975Z" fill="#E2F2D9"/>
<path d="M90.3443 231.543C90.3443 225.574 92.2746 218.026 99.7739 210.176L100.767 211.267C85.466 227.257 94.1556 241.958 94.2234 242.1L92.99 242.92C91.1933 239.4 90.285 235.494 90.3443 231.543Z" fill="#E2F2D9"/>
<path d="M68.0745 218.026L68.8145 216.793C69.4312 217.126 83.5849 225.303 99.5641 210.01L100.501 211.033C83.7206 227.122 68.2718 218.125 68.0745 218.026Z" fill="#E2F2D9"/>
<path d="M154.809 233.584H156.258C156.653 255.673 172.644 259.897 173.403 260.026L173.076 261.512C172.767 261.445 155.203 256.863 154.809 233.584Z" fill="#E2F2D9"/>
<path d="M137.547 260.026C138.22 259.897 153.952 255.673 154.408 233.584H155.864C155.401 256.863 138.09 261.445 137.942 261.512L137.547 260.026Z" fill="#E2F2D9"/>
<path d="M85.5337 54.9809C85.5647 47.4027 88.5959 40.1452 93.9642 34.7959C99.3326 29.4465 106.601 26.4406 114.18 26.4358C118.561 26.4178 122.885 27.4251 126.806 29.3771C130.728 31.3291 134.138 34.1717 136.764 37.6775L135.426 38.6703C132.964 35.3599 129.759 32.6742 126.069 30.8297C122.378 28.9852 118.306 28.0335 114.18 28.0514C107.032 28.0498 100.176 30.8849 95.1171 35.9341C90.0582 40.9833 87.2103 47.8338 87.1988 54.9809C87.2325 56.2955 87.3417 57.607 87.5257 58.9091L85.9284 59.1002C85.7121 57.7366 85.5803 56.3608 85.5337 54.9809Z" fill="#E2F2D9"/>
<path d="M26.693 113.646C26.6839 109.908 27.4118 106.205 28.8351 102.748C30.2584 99.291 32.3491 96.1486 34.9878 93.5002C38.0733 90.3638 41.8542 87.998 46.0242 86.5945C50.1943 85.1911 54.6363 84.7894 58.9905 85.422L58.7068 87.0685C54.6062 86.4924 50.4277 86.8846 46.5059 88.2135C42.5842 89.5424 39.0281 91.7711 36.1226 94.7212C33.6256 97.2133 31.6445 100.173 30.2929 103.432C28.9412 106.69 28.2455 110.184 28.2455 113.711C28.2455 117.239 28.9412 120.732 30.2929 123.991C31.6445 127.249 33.6256 130.209 36.1226 132.701C37.0528 133.638 38.0572 134.498 39.126 135.273L38.1146 136.562C37.0197 135.733 35.9755 134.839 34.9878 133.885C32.323 131.237 30.216 128.082 28.7913 124.606C27.3666 121.129 26.6531 117.403 26.693 113.646Z" fill="#E2F2D9"/>
<path d="M26.4146 196.855C26.3877 192.463 27.396 188.127 29.3579 184.197C31.3198 180.267 34.18 176.855 37.7067 174.236L38.6503 175.593C32.0205 180.403 28.0797 188.413 28.0181 196.855C28.0407 204.002 30.8865 210.849 35.9356 215.907C40.9846 220.965 47.8279 223.823 54.9748 223.859L58.9279 223.464L59.1253 225.08C57.7521 225.294 56.3646 225.404 54.9748 225.407C51.2229 225.413 47.5066 224.679 44.039 223.247C40.5714 221.814 37.4206 219.712 34.7674 217.059C32.1141 214.407 30.0105 211.257 28.5771 207.79C27.1438 204.323 26.4089 200.607 26.4146 196.855Z" fill="#E2F2D9"/>
<path d="M85.052 256.009C85.0642 254.672 85.1797 253.339 85.3974 252.02L87.0008 252.285C86.4102 256.382 86.7918 260.561 88.1149 264.484C89.438 268.407 91.6655 271.964 94.6173 274.867C97.1105 277.374 100.075 279.365 103.34 280.723C106.605 282.081 110.107 282.78 113.643 282.78C117.179 282.78 120.681 282.081 123.946 280.723C127.211 279.365 130.176 277.374 132.669 274.867C133.629 273.938 134.5 272.923 135.271 271.833L136.542 272.819C135.713 273.965 134.797 275.045 133.804 276.051C129.813 280.019 124.739 282.722 119.218 283.82C113.698 284.917 107.976 284.361 102.77 282.221C97.5646 280.081 93.1063 276.452 89.9544 271.789C86.8025 267.127 85.0971 261.637 85.052 256.009Z" fill="#E2F2D9"/>
<path d="M87.6606 59.2977C88.2451 52.0247 91.5407 45.2367 96.8944 40.2787C102.248 35.3207 109.269 32.5546 116.566 32.5286C123.423 32.4637 130.054 34.9747 135.148 39.5647L134.402 40.391C129.483 36.0416 123.132 33.6593 116.566 33.7002C109.559 33.7186 102.814 36.3627 97.6612 41.1107C92.5085 45.8587 89.3231 52.3656 88.7337 59.3471L87.6606 59.2977Z" fill="#E2F2D9"/>
<path d="M32.5142 116.648C32.4977 112.828 33.2461 109.043 34.7152 105.516C36.1842 101.99 38.3443 98.7925 41.0681 96.1135C45.8319 91.1856 52.2763 88.2312 59.1194 87.8379L59.2551 88.954C52.6561 89.3853 46.4434 92.2172 41.7896 96.9151C36.8511 101.894 33.9608 108.545 33.6901 115.553C33.4195 122.56 35.7882 129.414 40.328 134.759L39.4523 135.555C34.9656 130.278 32.5059 123.575 32.5142 116.648Z" fill="#E2F2D9"/>
<path d="M32.514 194.45C32.4934 187.613 34.9592 181.001 39.4521 175.846L40.3895 176.573C36.0417 181.322 33.7783 187.716 33.7167 194.456C33.7362 201.462 36.3844 208.205 41.1374 213.351C45.8905 218.498 52.4022 221.673 59.3844 222.249L59.3166 223.372C52.0426 222.772 45.2567 219.471 40.2959 214.118C35.335 208.765 32.5587 201.748 32.514 194.45Z" fill="#E2F2D9"/>
<path d="M87.8091 251.89L89.0117 251.785C89.3691 258.384 92.188 264.609 96.9118 269.23C101.914 274.157 108.578 277.034 115.594 277.296C122.611 277.559 129.471 275.188 134.828 270.649L135.488 271.506C129.914 276.242 122.766 278.713 115.457 278.432C108.148 278.152 101.211 275.138 96.0176 269.989C91.1836 265.146 88.2676 258.717 87.8091 251.89Z" fill="#E2F2D9"/>
<path d="M87.6606 59.2977C88.2451 52.0247 91.5407 45.2367 96.8944 40.2787C102.248 35.3207 109.269 32.5546 116.566 32.5286C123.423 32.4637 130.054 34.9747 135.148 39.5647L134.402 40.391C129.483 36.0416 123.132 33.6593 116.566 33.7002C109.559 33.7186 102.814 36.3627 97.6612 41.1107C92.5085 45.8587 89.3231 52.3656 88.7337 59.3471L87.6606 59.2977Z" fill="#E2F2D9"/>
<path d="M125.645 30.3155L126.65 29.7852C127.92 32.0298 129.253 34.3053 130.591 36.4142L129.518 37.0309C128.247 34.9096 126.847 32.5354 125.645 30.3155Z" fill="#E2F2D9"/>
<path d="M120.761 28.0547C121.31 28.844 121.705 29.7074 122.235 30.5583C123.074 31.8053 123.832 33.105 124.504 34.4495" fill="#E2F2D9"/>
<path d="M115.752 27.726L116.757 27.1094C117.695 28.7929 118.688 30.3715 119.625 32.0426C119.731 32.2636 119.863 32.4707 120.02 32.6593C120.02 32.8566 120.236 33.054 120.236 33.276L119.298 33.8063C119.23 33.6706 119.095 33.4733 118.965 33.276C118.836 33.0786 118.688 32.8813 118.688 32.6593C117.695 30.9882 116.757 29.3417 115.752 27.726Z" fill="#E2F2D9"/>
<path d="M111.713 27.726L112.632 27.1094C113.439 28.429 114.315 29.9152 115.037 31.2657C115.429 31.8139 115.767 32.3983 116.048 33.0108L115.037 33.6275C114.764 33.0289 114.457 32.4463 114.118 31.8823C113.279 30.427 112.471 28.9779 111.713 27.726Z" fill="#E2F2D9"/>
<path d="M107.593 28.1811L108.592 27.5645C109.209 28.7978 109.93 30.0311 110.609 31.2644L111.842 33.2747L110.837 33.8359L109.696 31.7947C108.925 30.5552 108.204 29.3713 107.593 28.1811Z" fill="#E2F2D9"/>
<path d="M107.723 34.5849C106.588 32.8028 105.577 30.8849 104.442 29.0781L107.723 34.5849Z" fill="#E2F2D9"/>
<path d="M100.698 30.7897L101.703 30.2285C102.511 31.7763 103.584 33.392 104.522 34.909L104.984 35.5996L103.979 36.1608L103.584 35.501C102.579 34.0148 101.574 32.4053 100.698 30.7897Z" fill="#E2F2D9"/>
<path d="M101.045 37.6773C100.039 35.9013 98.9045 34.1191 97.9609 32.4727L101.045 37.6773Z" fill="#E2F2D9"/>
<path d="M98.0967 39.9852C97.2796 38.2052 96.2968 36.506 95.1611 34.9102L98.0967 39.9852Z" fill="#E2F2D9"/>
<path d="M95.6782 42.5555C94.6113 40.946 93.6862 39.3304 92.7488 37.6777L95.6782 42.5555Z" fill="#E2F2D9"/>
<path d="M93.0815 45.6894C92.2058 44.0737 91.2868 42.4272 90.3433 40.9473L93.0815 45.6894Z" fill="#E2F2D9"/>
<path d="M88.3337 44.7344C89.1416 46.0232 89.9989 47.5093 90.7451 48.9585C90.7451 48.9585 90.7451 49.088 90.9425 49.088" fill="#E2F2D9"/>
<path d="M86.8652 49.4785C87.1616 49.8674 87.4256 50.2799 87.6546 50.7118C88.2035 51.7355 88.8881 52.5618 89.2766 53.5176" fill="#E2F2D9"/>
<path d="M88.2035 58.8489C87.6546 57.8931 87.0626 56.8016 86.3225 55.7656L88.2035 58.8489Z" fill="#E2F2D9"/>
<path d="M32.5142 116.648C32.4977 112.828 33.2461 109.043 34.7152 105.516C36.1842 101.99 38.3443 98.7925 41.0681 96.1135C45.8319 91.1856 52.2763 88.2312 59.1194 87.8379L59.2551 88.954C52.6561 89.3853 46.4434 92.2172 41.7896 96.9151C36.8511 101.894 33.9608 108.545 33.6901 115.553C33.4195 122.56 35.7882 129.414 40.328 134.759L39.4523 135.555C34.9656 130.278 32.5059 123.575 32.5142 116.648Z" fill="#E2F2D9"/>
<path d="M45.8171 88.0622L46.144 86.9707C48.6849 87.6614 51.2258 88.3582 53.631 88.8823L53.3658 90.0417C50.9606 89.4127 48.358 88.7529 45.8171 88.0622Z" fill="#E2F2D9"/>
<path d="M40.6545 90.4951L40.9382 89.3789C41.4624 89.4776 41.8571 89.6379 42.3382 89.7736C42.7997 89.8872 43.267 89.9757 43.7381 90.0387C45.2059 90.4334 46.7415 90.7602 48.1538 91.2721L47.7468 92.3635C46.3484 91.896 44.9207 91.5211 43.4729 91.2412L42.0545 90.8466C41.6598 90.6924 41.1356 90.6307 40.6545 90.4951Z" fill="#E2F2D9"/>
<path d="M36.9785 93.2708L37.2437 92.1484C38.1133 92.3458 38.989 92.6109 39.8647 92.8083C40.8515 93.0056 41.8568 93.3016 42.8003 93.5298L43.195 93.6284C43.4921 93.6913 43.783 93.78 44.0646 93.8936L43.7377 94.9789C43.4898 94.8451 43.2116 94.7772 42.9298 94.7816L42.5351 94.7199C41.5299 94.4548 40.5246 94.1033 39.5811 93.8936C38.6375 93.6839 37.8543 93.4989 36.9785 93.2708Z" fill="#E2F2D9"/>
<path d="M34.1111 96.1692L34.3084 95.0469C35.7762 95.3799 37.244 95.7745 38.792 96.1692C39.4519 96.3974 40.2597 96.5639 40.9998 96.7859L40.6544 97.8403C39.9267 97.7108 39.1867 97.5135 38.4466 97.3162C37.025 96.8498 35.5774 96.4668 34.1111 96.1692Z" fill="#E2F2D9"/>
<path d="M31.5405 99.3821L31.9352 98.2598L35.8576 99.3821C36.6516 99.5453 37.4327 99.7659 38.1949 100.042L37.8681 101.096C37.1218 100.868 36.3324 100.702 35.5245 100.48C34.1739 100.128 32.8418 99.7274 31.5405 99.3821Z" fill="#E2F2D9"/>
<path d="M36.2513 103.786C34.173 103.292 32.1008 102.632 30.0225 102.17L36.2513 103.786Z" fill="#E2F2D9"/>
<path d="M28.5557 106.028L28.8208 104.869C30.8486 105.501 32.907 106.03 34.988 106.454L34.7043 107.576C32.6445 107.114 30.5662 106.59 28.5557 106.028Z" fill="#E2F2D9"/>
<path d="M33.7161 110.712C31.7672 110.095 29.6951 109.62 27.8264 109.164L33.7161 110.712Z" fill="#E2F2D9"/>
<path d="M27.4817 113.442L27.6174 112.326C29.5698 112.691 31.4929 113.198 33.3713 113.843L33.0383 114.898C31.2199 114.292 29.3637 113.806 27.4817 113.442Z" fill="#E2F2D9"/>
<path d="M33.3901 117.931C31.5399 117.53 29.6898 117.006 27.8396 116.611L33.3901 117.931Z" fill="#E2F2D9"/>
<path d="M33.7169 121.983C31.9655 121.422 30.0166 120.965 28.3577 120.602L33.7169 121.983Z" fill="#E2F2D9"/>
<path d="M29.6892 124.619C31.1508 124.983 32.705 125.445 34.3701 125.908C34.3701 125.908 34.4318 125.97 34.5674 125.908" fill="#E2F2D9"/>
<path d="M31.9661 128.984C32.5149 129.12 32.8418 129.25 33.4339 129.348C34.4391 129.712 35.5122 129.811 36.5174 130.138" fill="#E2F2D9"/>
<path d="M39.5204 134.776C38.5275 134.443 37.2447 134.079 36.1223 133.82L39.5204 134.776Z" fill="#E2F2D9"/>
<path d="M32.514 194.45C32.4934 187.613 34.9592 181.001 39.4521 175.846L40.3895 176.573C36.0417 181.322 33.7783 187.716 33.7167 194.456C33.7362 201.462 36.3844 208.205 41.1374 213.351C45.8905 218.498 52.4022 221.673 59.3844 222.249L59.3166 223.372C52.0426 222.772 45.2567 219.471 40.2959 214.118C35.335 208.765 32.5587 201.748 32.514 194.45Z" fill="#E2F2D9"/>
<path d="M29.6892 184.392C32.0266 183.042 34.3023 181.691 36.3806 180.402L36.9973 181.426C34.8511 182.709 32.6803 183.997 30.3183 185.249L29.6892 184.392Z" fill="#E2F2D9"/>
<path d="M28.031 190.164C28.8204 189.732 29.6961 189.208 30.4979 188.678C31.7683 187.956 33.1066 187.161 34.4387 186.439" fill="#E2F2D9"/>
<path d="M27.353 194.813C29.0367 193.821 30.634 192.766 32.2868 191.878L33.4215 191.188" fill="#E2F2D9"/>
<path d="M33.2365 195.475C31.226 196.597 29.234 197.781 27.353 198.835L33.2365 195.475Z" fill="#E2F2D9"/>
<path d="M33.6295 199.725C31.6375 200.816 29.6949 201.938 27.894 202.925L33.6295 199.725Z" fill="#E2F2D9"/>
<path d="M34.5732 203.256C32.723 204.372 30.8297 205.365 29.0227 206.549L34.5732 203.256Z" fill="#E2F2D9"/>
<path d="M35.8562 206.551C34.0554 207.605 32.3101 208.826 30.5093 209.714L35.8562 206.551Z" fill="#E2F2D9"/>
<path d="M37.6518 209.91C35.8448 210.934 34.044 212.025 32.4282 212.993L37.6518 209.91Z" fill="#E2F2D9"/>
<path d="M39.9261 212.848C38.3103 213.705 36.5157 214.759 34.832 215.882L39.9261 212.848Z" fill="#E2F2D9"/>
<path d="M42.536 215.314C40.9387 216.338 39.2551 217.226 37.7195 218.25L42.536 215.314Z" fill="#E2F2D9"/>
<path d="M45.6685 217.891C44.0369 218.73 42.4574 219.667 40.9382 220.696L45.6685 217.891Z" fill="#E2F2D9"/>
<path d="M44.6143 222.64C45.9464 221.85 47.4141 221.061 48.8819 220.136C48.8992 220.146 48.9182 220.151 48.9377 220.153C48.9573 220.154 48.9769 220.152 48.9955 220.146C49.014 220.139 49.0311 220.129 49.0455 220.116C49.0599 220.102 49.0714 220.086 49.0793 220.068" fill="#E2F2D9"/>
<path d="M49.3628 224.157C49.7544 223.845 50.1807 223.58 50.6332 223.367C51.5568 222.764 52.5143 222.214 53.501 221.721" fill="#E2F2D9"/>
<path d="M58.8414 222.838C57.7595 223.333 56.727 223.93 55.7578 224.62L58.8414 222.838Z" fill="#E2F2D9"/>
<path d="M87.8091 251.89L89.0117 251.785C89.3691 258.384 92.188 264.609 96.9118 269.23C101.914 274.157 108.578 277.034 115.594 277.296C122.611 277.559 129.471 275.188 134.828 270.649L135.488 271.506C129.914 276.242 122.766 278.713 115.457 278.432C108.148 278.152 101.211 275.138 96.0176 269.989C91.1836 265.146 88.2676 258.717 87.8091 251.89Z" fill="#E2F2D9"/>
<path d="M86.9329 264.844L87.1302 263.987C87.6544 261.841 88.3328 259.534 88.9433 257.357L89.9979 257.653C89.4737 259.799 88.8632 262.075 88.2033 264.245L88.0059 265.17L86.9329 264.844Z" fill="#E2F2D9"/>
<path d="M89.9309 270.196C90.1468 269.24 90.3441 268.346 90.6093 267.359C90.9423 265.941 91.2877 264.393 91.7441 263.006" fill="#E2F2D9"/>
<path d="M92.6877 273.899C93.0824 272.049 93.545 270.199 94.0877 268.349C94.2234 267.954 94.3529 267.362 94.4207 267.066" fill="#E2F2D9"/>
<path d="M97.2206 270.195C96.6964 272.372 96.018 274.678 95.5554 276.72L97.2206 270.195Z" fill="#E2F2D9"/>
<path d="M100.501 272.951C99.8841 275.128 99.3599 277.366 98.7678 279.284L100.501 272.951Z" fill="#E2F2D9"/>
<path d="M103.782 274.734C103.24 276.843 102.58 278.884 102.117 280.901L103.782 274.734Z" fill="#E2F2D9"/>
<path d="M106.994 276.086C106.52 278.263 106.057 280.304 105.447 282.253L106.994 276.086Z" fill="#E2F2D9"/>
<path d="M110.609 277.369C110.066 279.287 109.603 281.328 109.19 283.172L110.609 277.369Z" fill="#E2F2D9"/>
<path d="M114.346 277.766C113.73 279.619 113.241 281.512 112.884 283.433L114.346 277.766Z" fill="#E2F2D9"/>
<path d="M117.96 277.633C117.418 279.544 117.023 281.333 116.56 283.183L117.96 277.633Z" fill="#E2F2D9"/>
<path d="M121.969 277.369C121.37 279.068 120.9 280.81 120.563 282.58L121.969 277.369Z" fill="#E2F2D9"/>
<path d="M124.571 281.325C124.916 279.808 125.379 278.242 125.841 276.607C125.841 276.607 125.971 276.607 125.841 276.41" fill="#E2F2D9"/>
<path d="M128.981 279.023C129.124 278.546 129.235 278.06 129.314 277.568C129.641 276.482 129.789 275.459 130.122 274.484" fill="#E2F2D9"/>
<path d="M134.809 271.502C134.388 272.595 134.052 273.718 133.804 274.863L134.809 271.502Z" fill="#E2F2D9"/>
<path d="M93.4766 14.5319C93.4766 12.0652 94.4201 11.1711 95.0924 10.9059C97.6332 9.75274 101.26 14.2359 103.387 18.9225C104.497 21.4086 105.125 24.083 105.237 26.8034C105.237 29.27 104.429 30.1333 103.702 30.4663C103.097 30.6678 102.44 30.6437 101.852 30.3985C99.7856 29.6092 97.2324 26.4765 95.4994 22.4189C94.2228 19.5761 93.4766 16.6717 93.4766 14.5319ZM104.115 26.828C103.985 24.2702 103.374 21.7599 102.314 19.4281C100.038 14.4209 96.8932 11.3191 95.5302 11.9111C94.9999 12.1762 94.5928 13.1444 94.5928 14.5504C94.5928 16.5977 95.3329 19.3295 96.443 21.9996C98.1081 25.6255 100.452 28.7273 102.197 29.3995C102.507 29.5483 102.862 29.5726 103.19 29.4673C103.85 29.2022 104.115 28.2464 104.115 26.828Z" fill="#E2F2D9"/>
<path d="M10.3685 96.6987C10.3352 96.4271 10.4081 96.1532 10.572 95.9341C11.5094 93.3626 17.1956 93.9608 22.0738 95.8416C26.952 97.7224 30.566 100.719 30.566 102.958C30.5916 103.23 30.5469 103.504 30.4365 103.753C30.309 104.039 30.1246 104.296 29.8945 104.508C29.6644 104.72 29.3934 104.883 29.0982 104.987C27.0199 105.912 23.0174 105.48 18.9285 103.796C13.8468 101.903 10.3685 98.9372 10.3685 96.6987ZM29.4867 102.958C29.4867 101.441 26.5512 98.8077 21.5928 96.8961C16.511 94.8488 12.1138 94.9783 11.5033 96.3349V96.6987C11.5033 98.1479 14.4388 100.886 19.3356 102.761C23.0729 104.21 26.952 104.74 28.5863 103.951C28.7546 103.91 28.9102 103.829 29.0393 103.714C29.1684 103.599 29.2671 103.453 29.3264 103.291C29.3769 103.251 29.418 103.2 29.4468 103.143C29.4756 103.085 29.4913 103.022 29.4929 102.958H29.4867Z" fill="#E2F2D9"/>
<path d="M10.701 215.059C10.701 212.815 14.0498 209.781 18.928 207.604C23.0169 205.921 27.0194 205.298 29.0977 206.087C29.6759 206.327 30.1502 206.764 30.436 207.32C30.578 207.561 30.6466 207.837 30.6333 208.116C30.6333 210.354 27.2167 213.388 22.4063 215.436C18.3298 217.286 14.3088 217.871 12.1873 217.082C11.8885 216.994 11.6124 216.842 11.3782 216.636C11.1439 216.431 10.9571 216.177 10.8306 215.892C10.7318 215.626 10.6878 215.343 10.701 215.059ZM29.4924 208.134C29.5088 208.02 29.4871 207.903 29.4307 207.801C29.2951 207.475 29.036 207.339 28.6228 207.142C27.0872 206.525 23.7385 206.784 19.4029 208.696C14.6542 210.737 11.8358 213.542 11.8358 215.059C11.8257 215.195 11.849 215.33 11.9036 215.454C12.0638 215.746 12.3281 215.966 12.6437 216.071C14.3767 216.761 18.2682 216.071 21.9438 214.455C26.6925 212.42 29.4924 209.584 29.4924 208.134Z" fill="#E2F2D9"/>
<path d="M94.2222 296.487C94.2894 293.912 94.807 291.367 95.7516 288.97C97.3674 284.82 99.7726 281.57 101.839 280.695C102.111 280.518 102.423 280.414 102.747 280.391C103.071 280.369 103.395 280.429 103.689 280.565C104.762 280.929 105.354 282.31 105.354 284.555C105.28 287.108 104.763 289.629 103.824 292.004C102.159 296.228 99.7479 299.558 97.6573 300.348C97.3805 300.497 97.0752 300.585 96.7615 300.608C96.4479 300.63 96.1331 300.586 95.838 300.477C94.7464 300.052 94.2222 298.664 94.2222 296.487ZM104.312 284.555C104.312 282.97 103.911 281.854 103.319 281.65C102.987 281.543 102.627 281.567 102.313 281.718C100.766 282.335 98.57 285.017 96.8925 289.365C95.948 291.625 95.4275 294.039 95.3569 296.487C95.3569 298.072 95.6838 299.127 96.3622 299.392C96.6273 299.558 96.8925 299.558 97.2996 299.256C99.0326 298.596 101.24 295.47 102.708 291.609C103.662 289.373 104.205 286.984 104.312 284.555Z" fill="#E2F2D9"/>
<path d="M83.5837 38.9494C83.5837 20.647 94.7463 11.0888 94.9621 10.9531L95.6837 11.8473C95.5542 11.9459 79.316 25.8578 86.4329 51.9733L85.3783 52.3001C84.1751 47.9523 83.5713 43.4606 83.5837 38.9494Z" fill="#E2F2D9"/>
<path d="M95.2898 10.8437C95.555 10.782 117.35 8.66684 131.725 32.6056L130.72 33.2222C116.826 9.9125 95.6228 11.9906 95.4255 11.9906L95.2898 10.8437Z" fill="#E2F2D9"/>
<path d="M10.4348 97.1542V96.1367L11.6682 96.1676C11.6682 96.4327 10.0031 117.695 33.5987 131.052L32.982 132.069C11.8348 120.069 10.4348 101.773 10.4348 97.1542Z" fill="#E2F2D9"/>
<path d="M10.5718 95.8027C10.7013 95.6362 24.6823 78.6287 51.7685 85.4181L51.4231 86.5405C25.2065 79.9114 11.6387 96.333 11.4414 96.4995L10.5718 95.8027Z" fill="#E2F2D9"/>
<path d="M10.9165 216.046L11.8354 215.318C11.9032 215.454 25.8164 231.61 52.0331 224.42L52.2921 225.573C25.4895 232.924 11.046 216.213 10.9165 216.046Z" fill="#E2F2D9"/>
<path d="M10.7681 214.165C10.7681 208.825 12.316 191.386 32.5135 179.25L33.1302 180.304C13.5433 192.021 11.9275 209.022 11.9275 214.104V215.584L10.8544 215.713C10.8544 215.713 10.7681 215.059 10.7681 214.165Z" fill="#E2F2D9"/>
<path d="M96.0173 300.546L96.1654 299.393C96.3627 299.393 117.615 300.978 131.065 277.434L132.058 278.05C118.287 302.26 96.2949 300.546 96.0173 300.546Z" fill="#E2F2D9"/>
<path d="M83.7205 271.632C83.7714 267.457 84.3348 263.305 85.3979 259.268L86.4525 259.533C79.7796 285.907 96.3632 299.394 96.4927 299.56L95.7526 300.411C95.6786 300.282 83.7205 290.545 83.7205 271.632Z" fill="#E2F2D9"/>
<path d="M134.482 11.8331L135.752 11.1055L145.034 27.9218L143.831 28.6494L134.482 11.8331Z" fill="#E2F2D9"/>
<path d="M154.286 17.7659L154.415 0L156.524 0.0308442L156.395 17.8338L154.286 17.7659Z" fill="#E2F2D9"/>
<path d="M137.812 11.4342C137.821 12.1512 137.544 12.8421 137.043 13.3554C136.543 13.8687 135.859 14.1624 135.142 14.1722C134.78 14.1806 134.42 14.1156 134.084 13.981C133.748 13.8464 133.443 13.645 133.187 13.3891C132.931 13.1331 132.73 12.8279 132.595 12.4919C132.46 12.1559 132.395 11.7961 132.404 11.4342C132.387 11.0715 132.448 10.7094 132.58 10.3715C132.713 10.0336 132.916 9.72733 133.174 9.47264C133.433 9.21795 133.743 9.02051 134.083 8.89313C134.423 8.76575 134.786 8.71129 135.148 8.73326C135.858 8.74299 136.536 9.03184 137.034 9.53732C137.533 10.0428 137.812 10.7243 137.812 11.4342Z" fill="#E2F2D9"/>
<path d="M38.9897 68.7386L39.3906 67.3203L57.9168 72.5989L57.4419 74.048L38.9897 68.7386Z" fill="#E2F2D9"/>
<path d="M67.4146 39.3298L68.8145 38.9043L74.2231 57.6939L72.8232 58.1194L67.4146 39.3298Z" fill="#E2F2D9"/>
<path d="M44.8108 46.2538L46.2786 44.8047L58.7054 57.5264L57.2438 58.9755L44.8108 46.2538Z" fill="#E2F2D9"/>
<path d="M41.1364 66.0806C41.3919 66.3361 41.5946 66.6394 41.7329 66.9732C41.8711 67.307 41.9423 67.6648 41.9423 68.0261C41.9423 68.3874 41.8711 68.7452 41.7329 69.0791C41.5946 69.4129 41.3919 69.7162 41.1364 69.9717C40.8808 70.2272 40.5775 70.4298 40.2437 70.5681C39.9098 70.7064 39.552 70.7776 39.1906 70.7776C38.8293 70.7776 38.4715 70.7064 38.1376 70.5681C37.8038 70.4298 37.5004 70.2272 37.2449 69.9717C36.7515 69.444 36.4771 68.7485 36.4771 68.0261C36.4771 67.3037 36.7515 66.6083 37.2449 66.0806C37.7767 65.5952 38.4706 65.3262 39.1906 65.3262C39.9106 65.3262 40.6046 65.5952 41.1364 66.0806Z" fill="#E2F2D9"/>
<path d="M70.0837 37.2154C70.3384 37.4682 70.5406 37.7689 70.6785 38.1002C70.8165 38.4314 70.8875 38.7867 70.8875 39.1456C70.8875 39.5044 70.8165 39.8597 70.6785 40.191C70.5406 40.5222 70.3384 40.8229 70.0837 41.0757C69.5602 41.5965 68.8518 41.8889 68.1133 41.8889C67.3748 41.8889 66.6664 41.5965 66.1429 41.0757C65.8848 40.8228 65.681 40.5198 65.544 40.1855C65.4069 39.8511 65.3395 39.4923 65.3459 39.131C65.3522 38.7697 65.4322 38.4135 65.5809 38.0841C65.7296 37.7548 65.9439 37.4592 66.2107 37.2154C66.7282 36.7092 67.4233 36.4258 68.1472 36.4258C68.8711 36.4258 69.5663 36.7092 70.0837 37.2154Z" fill="#E2F2D9"/>
<path d="M11.0469 175.266L27.8278 165.967L28.4876 167.188L11.7746 176.481L11.0469 175.266Z" fill="#E2F2D9"/>
<path d="M11.0469 135.665L11.7746 134.383L28.8207 143.812L28.2286 145.1L11.0469 135.665Z" fill="#E2F2D9"/>
<path d="M0.000732422 156.607V154.461L17.793 154.59L17.7252 156.767L0.000732422 156.607Z" fill="#E2F2D9"/>
<path d="M11.3721 173.153C11.7287 173.143 12.0836 173.205 12.4158 173.335C12.7481 173.465 13.0509 173.66 13.3062 173.909C13.5616 174.158 13.7644 174.456 13.9025 174.785C14.0406 175.114 14.1113 175.467 14.1103 175.824C14.1176 176.359 13.9658 176.885 13.6742 177.334C13.3825 177.784 12.9641 178.136 12.4719 178.348C11.9797 178.559 11.4358 178.62 10.909 178.522C10.3823 178.424 9.89646 178.172 9.51293 177.798C9.1294 177.424 8.86546 176.945 8.75451 176.421C8.64355 175.897 8.69057 175.352 8.88962 174.854C9.08867 174.357 9.4308 173.93 9.8727 173.627C10.3146 173.324 10.8364 173.16 11.3721 173.153Z" fill="#E2F2D9"/>
<path d="M11.373 132.236C12.0992 132.236 12.7957 132.525 13.3092 133.038C13.8227 133.552 14.1112 134.248 14.1112 134.974C14.1112 135.7 13.8227 136.397 13.3092 136.91C12.7957 137.424 12.0992 137.712 11.373 137.712C10.6468 137.712 9.95029 137.424 9.43677 136.91C8.92326 136.397 8.63477 135.7 8.63477 134.974C8.63477 134.248 8.92326 133.552 9.43677 133.038C9.95029 132.525 10.6468 132.236 11.373 132.236Z" fill="#E2F2D9"/>
<path d="M67.3469 271.633L72.626 253.17L74.026 253.571L68.753 272.033L67.3469 271.633Z" fill="#E2F2D9"/>
<path d="M38.927 242.224L57.6382 236.754L58.0452 238.135L39.3217 243.611L38.927 242.224Z" fill="#E2F2D9"/>
<path d="M44.8108 264.774L57.4412 252.213L58.9891 253.767L46.2786 266.162L44.8108 264.774Z" fill="#E2F2D9"/>
<path d="M66.0749 269.847C66.604 269.357 67.299 269.084 68.0206 269.084C68.7422 269.084 69.4372 269.357 69.9664 269.847C70.2395 270.093 70.4601 270.392 70.6148 270.725C70.7696 271.059 70.8553 271.42 70.8668 271.787C70.8783 272.155 70.8155 272.521 70.6819 272.863C70.5484 273.205 70.3469 273.517 70.0897 273.78C69.8325 274.042 69.5249 274.25 69.1853 274.391C68.8457 274.532 68.4811 274.602 68.1135 274.598C67.746 274.594 67.383 274.516 67.0464 274.368C66.7099 274.221 66.4067 274.006 66.1551 273.738C65.8889 273.491 65.6751 273.193 65.5264 272.862C65.3778 272.531 65.2974 272.173 65.2899 271.81C65.2824 271.447 65.348 271.086 65.4829 270.749C65.6178 270.412 65.8191 270.105 66.0749 269.847Z" fill="#E2F2D9"/>
<path d="M37.0907 240.97C37.3472 240.704 37.6548 240.492 37.9949 240.348C38.335 240.203 38.7008 240.129 39.0703 240.129C39.4399 240.129 39.8056 240.203 40.1458 240.348C40.4859 240.492 40.7934 240.704 41.05 240.97C41.5464 241.489 41.8235 242.179 41.8235 242.897C41.8235 243.615 41.5464 244.305 41.05 244.824C40.5378 245.344 39.8405 245.64 39.1106 245.648C38.3806 245.656 37.6773 245.374 37.1542 244.865C36.6312 244.356 36.3309 243.66 36.319 242.93C36.3071 242.201 36.5845 241.496 37.0907 240.97Z" fill="#E2F2D9"/>
<path d="M134.335 299.262L143.765 282.119L145.035 282.841L135.605 299.922L134.335 299.262Z" fill="#E2F2D9"/>
<path d="M154.414 311L154.612 293.166L156.653 293.296L156.523 311H154.414Z" fill="#E2F2D9"/>
<path d="M132.206 299.563C132.24 298.86 132.542 298.197 133.052 297.712C133.561 297.226 134.238 296.955 134.941 296.955C135.645 296.955 136.322 297.226 136.831 297.712C137.34 298.197 137.643 298.86 137.676 299.563C137.694 299.933 137.636 300.303 137.507 300.65C137.377 300.997 137.179 301.314 136.923 301.583C136.667 301.851 136.36 302.064 136.019 302.21C135.679 302.356 135.312 302.431 134.941 302.431C134.571 302.431 134.204 302.356 133.864 302.21C133.523 302.064 133.215 301.851 132.96 301.583C132.704 301.314 132.505 300.997 132.376 300.65C132.246 300.303 132.189 299.933 132.206 299.563Z" fill="#E2F2D9"/>
<path d="M91.0032 78.367L91.1389 77.0781C91.2869 77.0781 107.655 78.3669 107.655 93.5984H106.322C106.322 79.6496 91.6816 78.367 91.0032 78.367Z" fill="#E2F2D9"/>
<path d="M93.4089 89.3406C96.2952 88.6192 100.372 87.2687 103.11 83.6735C105.053 81.4967 106.126 78.6293 106.323 75.1328L107.593 75.2623C107.328 79.0239 106.187 82.1566 104.047 84.5122C101.18 88.4403 96.8256 89.7908 93.7605 90.5801L93.4089 89.3406Z" fill="#E2F2D9"/>
<path d="M54.438 145.491C54.6353 145.429 67.0684 134.779 77.8301 145.559L76.9112 146.484C67.0437 136.561 55.8379 146.089 55.3261 146.514L54.438 145.491Z" fill="#E2F2D9"/>
<path d="M63.8672 133.422L64.8539 132.564C67.4133 135.401 68.8132 138.503 68.9428 141.666C69.689 146.482 67.4811 150.633 65.927 153.303L64.7923 152.612C66.2724 150.108 68.3384 146.217 67.6106 141.796C67.4811 138.898 66.2107 136.061 63.8672 133.422Z" fill="#E2F2D9"/>
<path d="M76.9724 219.943C76.9724 219.678 78.3107 203.293 93.5436 203.293V204.582C79.5811 204.582 78.3107 219.252 78.3107 219.998L76.9724 219.943Z" fill="#E2F2D9"/>
<path d="M75.0981 204.605L75.2276 203.316C78.9711 203.612 82.1164 204.766 84.5278 206.912C88.3329 209.847 89.8007 214.163 90.4791 217.228L89.2765 217.561C88.5981 214.725 87.266 210.636 83.652 207.935C81.4442 205.956 78.5764 204.901 75.0981 204.605Z" fill="#E2F2D9"/>
<path d="M140.699 244.005C140.699 240.54 141.901 236.753 145.577 233.158L146.434 234.046C136.474 243.913 146.101 255.148 146.514 255.672L145.509 256.499C145.509 256.431 140.699 250.863 140.699 244.005Z" fill="#E2F2D9"/>
<path d="M132.601 246.186C135.401 243.615 138.423 242.227 141.549 242.03C146.977 241.303 151.657 244.139 153.193 245.064L152.533 246.186C149.974 244.632 146.169 242.721 141.697 243.35C138.817 243.479 136.079 244.768 133.47 247.105L132.601 246.186Z" fill="#E2F2D9"/>
<path d="M141.352 67.8451C141.352 60.957 146.039 55.4502 146.101 55.3516L147.044 56.2087C146.711 56.6712 137.084 67.8821 147.044 77.8349L146.101 78.6921C142.548 75.1032 141.352 71.2429 141.352 67.8451Z" fill="#E2F2D9"/>
<path d="M132.533 65.2136L133.471 64.2578C140.871 71.5097 149.055 68.2106 153.206 65.6391L153.896 66.7923C149.382 69.5981 140.631 73.1562 132.533 65.2136Z" fill="#E2F2D9"/>
<path d="M78.0332 91.3643L79.316 91.2656C79.3838 91.8268 80.5864 106.534 94.5489 106.466V107.817C79.316 107.804 78.1134 91.4506 78.0332 91.3643Z" fill="#E2F2D9"/>
<path d="M75.4248 106.589C85.7918 106.453 89.2084 98.4056 90.3432 93.5957L91.5458 93.8917C90.3432 99.0655 86.7354 107.773 75.4248 107.902V106.589Z" fill="#E2F2D9"/>
<path d="M55.314 164.877L56.1712 163.854C56.6461 164.347 67.8888 173.782 77.7563 163.952L78.6937 164.809C67.8765 175.595 55.3756 165.007 55.314 164.877Z" fill="#E2F2D9"/>
<path d="M64.2632 177.573C71.4849 170.118 68.204 161.978 65.6631 157.889L66.7362 157.094C69.5423 161.577 73.0823 170.346 65.1389 178.393L64.2632 177.573Z" fill="#E2F2D9"/>
<path d="M91.2012 231.607C91.8179 231.607 106.52 230.417 106.52 216.468V216.406H107.853V216.468C107.853 231.607 91.4849 232.92 91.2875 232.951L91.2012 231.607Z" fill="#E2F2D9"/>
<path d="M93.5442 220.697L93.8217 219.408C99.033 220.561 107.723 224.224 107.852 235.596H106.52C106.452 225.143 98.4224 221.782 93.5442 220.697Z" fill="#E2F2D9"/>
<path d="M117.486 155.496C117.476 147.984 119.695 140.637 123.861 134.385C128.028 128.134 133.955 123.258 140.893 120.375C147.831 117.492 155.468 116.731 162.838 118.188C170.209 119.646 176.982 123.256 182.3 128.563C187.618 133.869 191.243 140.634 192.716 148C194.189 155.367 193.444 163.005 190.576 169.948C187.707 176.892 182.843 182.828 176.6 187.008C170.356 191.187 163.014 193.421 155.501 193.427C145.432 193.427 135.775 189.433 128.649 182.322C121.522 175.211 117.507 165.563 117.486 155.496ZM192.658 155.496C192.663 148.15 190.489 140.967 186.411 134.855C182.334 128.744 176.535 123.979 169.75 121.162C162.964 118.346 155.495 117.604 148.288 119.032C141.08 120.46 134.458 123.992 129.259 129.182C124.059 134.373 120.516 140.988 119.076 148.193C117.636 155.397 118.365 162.866 121.171 169.656C123.976 176.446 128.732 182.251 134.837 186.339C140.942 190.426 148.123 192.612 155.47 192.619C165.318 192.608 174.761 188.695 181.731 181.737C188.701 174.779 192.63 165.344 192.658 155.496Z" fill="#E2F2D9"/>
<path d="M113.939 155.498C113.944 147.285 116.383 139.259 120.949 132.433C125.515 125.607 132.002 120.287 139.591 117.147C147.18 114.007 155.529 113.186 163.584 114.789C171.639 116.393 179.038 120.348 184.845 126.155C190.652 131.962 194.608 139.36 196.211 147.414C197.815 155.468 196.994 163.816 193.854 171.404C190.713 178.992 185.393 185.479 178.566 190.045C171.739 194.61 163.712 197.049 155.499 197.054C144.48 197.043 133.916 192.661 126.124 184.87C118.333 177.079 113.95 166.516 113.939 155.498ZM196.122 155.498C196.122 147.445 193.733 139.573 189.257 132.878C184.781 126.183 178.419 120.967 170.977 117.889C163.535 114.81 155.347 114.009 147.449 115.586C139.551 117.163 132.298 121.047 126.609 126.747C120.92 132.447 117.05 139.707 115.488 147.607C113.927 155.507 114.744 163.693 117.837 171.128C120.93 178.564 126.16 184.914 132.864 189.377C139.568 193.839 147.446 196.213 155.499 196.197C166.281 196.176 176.613 191.878 184.229 184.248C191.845 176.618 196.122 166.278 196.122 155.498Z" fill="#E2F2D9"/>
</svg>
