<svg width="216" height="433" viewBox="0 0 216 433" fill="none" xmlns="http://www.w3.org/2000/svg">
<path d="M-109.776 216.075C-109.776 155.639 -60.5607 106.471 -0.118446 106.471C60.3238 106.471 109.539 155.664 109.539 216.075C109.539 276.486 60.3152 325.679 -0.0756378 325.679C-60.4665 325.679 -109.776 276.529 -109.776 216.075ZM106.739 216.075C106.725 187.751 95.468 160.59 75.4401 140.559C55.4122 120.528 28.2515 109.265 -0.0756378 109.245C-58.9336 109.245 -107.036 157.086 -107.036 216.101C-107.036 275.116 -58.9764 323.042 -0.0756378 323.042C58.8251 323.042 106.739 275.064 106.739 216.075Z" fill="#E2F2D9"/>
<path d="M-72.6453 216.075C-72.6486 201.723 -68.3955 187.692 -60.4236 175.757C-52.4517 163.822 -41.1193 154.519 -27.8595 149.024C-14.5996 143.53 -0.00798798 142.09 14.07 144.888C28.148 147.686 41.0801 154.596 51.2307 164.743C61.3812 174.89 68.2944 187.819 71.0959 201.895C73.8973 215.971 72.4612 230.562 66.9692 243.822C61.4772 257.082 52.1759 268.415 40.2418 276.389C28.3076 284.363 14.2765 288.619 -0.0768814 288.619C-19.3154 288.603 -37.7616 280.956 -51.3669 267.355C-64.9722 253.754 -72.6249 235.311 -72.6453 216.075ZM70.3677 216.075C70.3542 202.142 66.2097 188.527 58.4583 176.949C50.7069 165.371 39.6965 156.352 26.8191 151.03C13.9417 145.708 -0.224457 144.324 -13.8886 147.052C-27.5528 149.779 -40.1015 156.497 -49.9482 166.354C-59.7949 176.212 -66.4976 188.768 -69.2089 202.434C-71.9202 216.1 -70.5184 230.263 -65.1807 243.133C-59.8429 256.003 -50.809 267.001 -39.2209 274.738C-27.6327 282.474 -14.0107 286.602 -0.0768814 286.598C18.6047 286.553 36.5066 279.105 49.7061 265.886C62.9056 252.667 70.3262 234.755 70.342 216.075H70.3677Z" fill="#E2F2D9"/>
<path d="M-65.5718 216.072C-65.565 203.13 -61.7209 190.48 -54.5254 179.721C-47.3299 168.962 -37.106 160.578 -25.146 155.628C-13.1861 150.678 -0.0270081 149.385 12.6679 151.912C25.3628 154.438 37.0236 160.672 46.1764 169.824C55.3291 178.975 61.563 190.635 64.0899 203.329C66.6168 216.023 65.3233 229.18 60.373 241.139C55.4227 253.098 47.0377 263.321 36.2781 270.516C25.5184 277.711 12.867 281.554 -0.0769577 281.561C-17.4417 281.543 -34.09 274.637 -46.3687 262.36C-58.6475 250.082 -65.5536 233.436 -65.5718 216.072ZM63.3797 216.072C63.3746 203.524 59.6486 191.259 52.6728 180.828C45.697 170.397 35.7847 162.269 24.1891 157.47C12.5934 152.672 -0.164787 151.419 -12.4725 153.87C-24.7802 156.321 -36.0847 162.366 -44.9567 171.241C-53.8287 180.116 -59.8698 191.421 -62.3162 203.729C-64.7626 216.037 -63.5044 228.793 -58.7008 240.386C-53.8972 251.978 -45.7638 261.886 -35.3289 268.857C-24.8941 275.828 -12.6264 279.549 -0.0769577 279.549C16.7475 279.517 32.8734 272.818 44.7677 260.92C56.662 249.022 63.3548 232.895 63.3797 216.072Z" fill="#E2F2D9"/>
<path d="M70.7542 206.124L107.107 201.543L107.475 203.555L70.9426 208.136L70.7542 206.124Z" fill="#E2F2D9"/>
<path d="M68.9216 197.289L104.546 188.178L105 190.19L69.4269 199.25L68.9216 197.289Z" fill="#E2F2D9"/>
<path d="M61.968 180.711L94.2873 162.994L95.2036 164.827L63.0214 182.5L61.968 180.711Z" fill="#E2F2D9"/>
<path d="M57.0691 173.2L86.8706 151.639L87.9753 153.24L58.2081 174.801L57.0691 173.2Z" fill="#E2F2D9"/>
<path d="M51.3402 166.386L78.0845 141.203L79.4547 142.667L52.6248 167.851L51.3402 166.386Z" fill="#E2F2D9"/>
<path d="M44.5668 160.337L68.014 132.045L69.6155 133.321L46.1253 161.621L44.5668 160.337Z" fill="#E2F2D9"/>
<path d="M37.1071 155.122L56.9747 124.125L58.6703 125.178L38.8883 156.261L37.1071 155.122Z" fill="#E2F2D9"/>
<path d="M29.2288 150.954L44.9345 117.67L46.7671 118.586L31.1042 151.733L29.2288 150.954Z" fill="#E2F2D9"/>
<path d="M20.9397 147.751L32.2951 112.814L34.2219 113.457L22.9093 148.436L20.9397 147.751Z" fill="#E2F2D9"/>
<path d="M12.2383 145.684L19.1149 109.566L21.0331 109.883L14.2593 146.053L12.2383 145.684Z" fill="#E2F2D9"/>
<path d="M3.22131 144.684L5.55917 107.967L7.57166 108.147L5.28513 144.864L3.22131 144.684Z" fill="#E2F2D9"/>
<path d="M3.40137 287.657L5.46518 287.469L7.66605 324.186L5.64504 324.28L3.40137 287.657Z" fill="#E2F2D9"/>
<path d="M12.3322 286.784L14.259 286.236L21.127 322.312L19.2002 322.68L12.3322 286.784Z" fill="#E2F2D9"/>
<path d="M21.0336 284.497L23.0032 283.949L34.2216 318.826L32.2948 319.425L21.0336 284.497Z" fill="#E2F2D9"/>
<path d="M29.4088 281.385L31.2928 280.426L46.7673 313.658L44.9347 314.532L29.4088 281.385Z" fill="#E2F2D9"/>
<path d="M37.2871 277.126L39.0683 275.979L58.7647 307.113L57.0691 308.209L37.2871 277.126Z" fill="#E2F2D9"/>
<path d="M44.6606 271.954L46.3049 270.67L69.6151 298.962L68.0137 300.203L44.6606 271.954Z" fill="#E2F2D9"/>
<path d="M51.3402 265.91L52.7189 264.309L79.4547 289.535L78.0845 290.999L51.3402 265.91Z" fill="#E2F2D9"/>
<path d="M57.2489 259.045L58.3964 257.307L87.9753 279.005L86.8705 280.563L57.2489 259.045Z" fill="#E2F2D9"/>
<path d="M62.0527 251.443L63.2002 249.705L95.2026 267.464L94.2863 269.297L62.0527 251.443Z" fill="#E2F2D9"/>
<path d="M65.9934 243.432L66.8241 241.463L100.882 255.103L100.248 256.979L65.9934 243.432Z" fill="#E2F2D9"/>
<path d="M69.0586 234.962L69.4268 232.898L104.915 242.103L104.546 244.116L69.0586 234.962Z" fill="#E2F2D9"/>
<path d="M70.8481 226.128L71.0279 223.979L107.389 228.739L107.107 230.795L70.8481 226.128Z" fill="#E2F2D9"/>
<path d="M100.239 175.254C147.031 157.4 191.631 214.643 191.999 215.182L192.179 215.268L190.577 216.929L190.303 216.749C189.755 216.013 146.209 160.157 100.976 177.42L100.239 175.254Z" fill="#E2F2D9"/>
<path d="M100.239 256.524L100.976 254.366C146.029 271.586 189.755 215.73 190.303 215.088L190.577 214.908L192.179 216.372L191.999 216.741C190.209 218.933 146.851 274.189 100.239 256.524Z" fill="#E2F2D9"/>
<path d="M104.272 187.385L107.826 186.1C139.512 174.386 169.313 208.629 174.854 215.496L175.034 215.676L174.126 216.592L173.843 216.413C168.26 209.494 139.143 176.03 108.28 187.299L104.709 188.712L104.272 187.385Z" fill="#E2F2D9"/>
<path d="M104.272 244.331L104.726 243.141L108.297 244.519C136.095 254.684 163.01 228.122 173.381 216.262L173.655 215.902V215.714L174.117 215.166L174.845 215.902H175.025V216.45L174.391 217.135C163.901 229.175 136.429 256.328 107.818 245.838L104.272 244.331Z" fill="#E2F2D9"/>
<path d="M53.3528 122.062L55.0056 118.585C69.0585 87.9045 114.249 90.9272 123.241 91.9119L123.326 91.8177L123.421 93.1963L123.147 93.282C114.215 92.3657 69.9406 89.2574 56.1188 119.107L54.5089 122.584L53.3528 122.062Z" fill="#E2F2D9"/>
<path d="M93.0964 161.065L96.6247 159.506C123.455 147.099 123.814 109.148 122.632 93.4955V93.0331L122.444 92.8961V92.2111H123.36L123.549 92.0312L123.908 92.3909V93.4013C125.15 109.422 124.765 147.972 97.0786 160.654L93.5589 162.255L93.0964 161.065Z" fill="#E2F2D9"/>
<path d="M-32.5154 94.7807C-32.5154 68.5869 -6.62747 45.9725 -0.67573 41.0745L-0.581514 40.9375L0.428989 41.8537L0.240589 42.0335C-6.61033 47.7107 -40.137 77.0127 -28.8073 107.642L-27.5056 111.256L-28.8073 111.804L-30.2032 108.181C-31.7218 103.876 -32.5035 99.3458 -32.5154 94.7807Z" fill="#E2F2D9"/>
<path d="M-0.933228 41.8537L-0.290954 41.0745V40.9375H0.171491L1.02786 41.6739C13.017 52.1034 40.0353 79.6672 29.5534 108.147L28.0376 111.804L26.8473 111.256L28.226 107.642C38.5024 80.0354 12.015 52.9769 0.0173253 42.5644L-0.342333 42.2904H-0.530735L-0.933228 41.8537Z" fill="#E2F2D9"/>
<path d="M-0.580811 390.334L-0.21258 389.923C9.36158 382.003 39.5314 353.805 28.6298 324.503L27.2596 320.89L28.5442 320.479L29.8972 323.964C41.1156 354.225 10.3892 382.884 0.729427 390.899L0.361197 391.31L-0.580811 390.334Z" fill="#E2F2D9"/>
<path d="M-32.0611 337.461C-32.107 332.902 -31.3235 328.373 -29.7489 324.094L-28.3445 320.387L-27.0428 320.892L-28.4386 324.505C-38.715 352.249 -12.0992 379.308 -0.178595 389.583L0.189636 389.943H0.369465L0.831909 390.268L-0.0758343 391.347L-0.170023 391.253H-0.349878L-0.992151 390.619C-11.2685 381.731 -32.0611 360.906 -32.0611 337.461Z" fill="#E2F2D9"/>
<path d="M93.3704 270.878L93.9184 269.645L97.4039 271.246C126.889 284.707 125.33 326.776 124.14 339.278V339.594L122.718 339.689V339.183C123.908 326.776 125.518 285.529 96.8986 272.393L93.3704 270.878Z" fill="#E2F2D9"/>
<path d="M53.7206 309.853L54.9109 309.211L56.5123 312.782C68.9211 339.755 106.738 339.934 122.538 338.787H122.992L123.086 338.607H123.728L123.908 339.84H123.814V340.029H123.728L123.549 340.114L122.692 340.208C106.627 341.356 67.979 341.065 55.3476 313.381L53.7206 309.853Z" fill="#E2F2D9"/>
<path d="M41.723 116.293C62.7382 70.2844 134.399 79.4723 135.127 79.6692L135.221 81.8699H134.853C134.125 81.7757 64.1598 72.7162 43.8725 117.209L41.723 116.293Z" fill="#E2F2D9"/>
<path d="M98.5942 171.873C142.68 151.913 133.936 81.6806 133.851 80.9014V80.3105H136.086V80.7815C136.266 81.3381 145.103 153.257 99.4078 173.902L98.5942 171.873Z" fill="#E2F2D9"/>
<path d="M-44.4189 97.0506C-44.4189 61.6604 -9.87312 31.2623 -1.22383 24.2065C-1.1202 24.002 -0.962337 23.83 -0.767506 23.7092C-0.57267 23.5883 -0.348366 23.5234 -0.119114 23.5215V25.7649C0.114468 25.7675 0.340027 25.68 0.510693 25.5205C0.681358 25.361 0.783966 25.1419 0.797176 24.9087V25.4567L0.428944 25.7307C-8.93969 33.3345 -54.6268 72.989 -38.8354 115.033L-40.9849 115.889C-43.2635 109.87 -44.4271 103.486 -44.4189 97.0506Z" fill="#E2F2D9"/>
<path d="M-1.40405 25.4636V24.9156C-1.40405 25.1427 -1.31384 25.3605 -1.15324 25.521C-0.992643 25.6816 -0.77481 25.7719 -0.547688 25.7719V23.4941C-0.308058 23.5008 -0.0738504 23.5669 0.133918 23.6865C0.341687 23.806 0.516495 23.9753 0.642646 24.1792C10.6707 32.4252 56.5462 72.799 40.3866 115.802L38.2799 114.945C54.0284 73.0987 8.30711 33.2644 -0.915944 25.6691L-1.40405 25.4636Z" fill="#E2F2D9"/>
<path d="M-0.933116 407.326V406.821L-0.564885 406.462C8.68386 398.952 54.4737 359.306 38.631 317.185L40.6434 316.406C57.0856 359.486 11.1588 399.817 1.17354 407.926C0.851877 408.317 0.397768 408.576 -0.102441 408.654V406.367C-0.221921 406.37 -0.339514 406.398 -0.447647 406.449C-0.555781 406.5 -0.652074 406.573 -0.730315 406.663C-0.808556 406.753 -0.867008 406.859 -0.901938 406.973C-0.936868 407.088 -0.947488 407.208 -0.933116 407.326Z" fill="#E2F2D9"/>
<path d="M-43.9386 335.097C-43.9589 328.7 -42.7976 322.354 -40.5131 316.379L-38.3808 317.158C-54.0266 359.21 -8.47649 398.95 0.780815 406.46L1.23469 406.82V407.325C1.25031 407.199 1.2377 407.071 1.19781 406.95C1.15792 406.83 1.09173 406.72 1.00402 406.628C0.916325 406.536 0.809315 406.465 0.690727 406.42C0.572144 406.374 0.444946 406.356 0.318371 406.366V408.652C0.0855713 408.647 -0.140923 408.575 -0.334908 408.447C-0.528893 408.318 -0.682434 408.137 -0.777779 407.924C-9.4185 401.031 -43.9386 370.702 -43.9386 335.097Z" fill="#E2F2D9"/>
<path d="M98.8682 260.233L99.7245 258.127C145.788 279.003 136.488 350.554 136.403 351.334L134.159 351.428V350.974C134.21 350.28 143.322 280.236 98.8682 260.233Z" fill="#E2F2D9"/>
<path d="M42.0909 315.623L44.1976 314.707C64.1509 358.934 134.373 350.097 135.041 350.097H135.589V352.341H135.229C134.578 352.435 62.8321 361.409 42.0909 315.623Z" fill="#E2F2D9"/>
<path d="M191.355 215.371H174.322V216.741H191.355V215.371Z" fill="#E2F2D9"/>
<path d="M168.277 208.955L178.622 202.088L179.452 203.184L169.056 210.009L168.277 208.955Z" fill="#E2F2D9"/>
<path d="M161.049 201.91L171.3 195.402L172.036 196.593L161.777 203.049L161.049 201.91Z" fill="#E2F2D9"/>
<path d="M150.465 193.938L159.859 186.891L160.767 187.987L151.432 195.042L150.465 193.938Z" fill="#E2F2D9"/>
<path d="M155.782 197.782L164.894 190.418L165.716 191.557L156.699 198.792L155.782 197.782Z" fill="#E2F2D9"/>
<path d="M134.768 185.973L144.471 178.283L145.293 179.379L135.59 187.026L134.768 185.973Z" fill="#E2F2D9"/>
<path d="M123.549 183.774L134.853 175.811L135.59 176.915L124.329 184.879L123.549 183.774Z" fill="#E2F2D9"/>
<path d="M110.635 185.244L123.369 172.879L124.414 173.889L111.782 186.203L110.635 185.244Z" fill="#E2F2D9"/>
<path d="M103.861 185.425L110.635 173.154L111.868 173.797L105.094 186.067L103.861 185.425Z" fill="#E2F2D9"/>
<path d="M171.488 212.16L185.498 208.777L185.772 210.19L171.848 213.35L171.488 212.16Z" fill="#E2F2D9"/>
<path d="M122.812 92.2089L123.001 92.029L134.673 80.2637L135.812 81.2227L135.401 81.4967L123.729 93.2193L122.812 92.2089Z" fill="#E2F2D9"/>
<path d="M113.975 91.9375L116.313 79.8125L117.735 80.1293L115.26 92.2115L113.975 91.9375Z" fill="#E2F2D9"/>
<path d="M103.861 92.1273L106.473 80.3105L107.843 80.5846L105.189 92.4013L103.861 92.1273Z" fill="#E2F2D9"/>
<path d="M90.8098 93.9075L92.3684 82.2363L93.6529 82.5103L92.0944 94.1387L90.8098 93.9075Z" fill="#E2F2D9"/>
<path d="M97.0786 92.9039L98.4145 81.3184L99.6906 81.4125L98.5944 93.0409L97.0786 92.9039Z" fill="#E2F2D9"/>
<path d="M73.9563 99.3521L75.3351 87.1758L76.6624 87.3641L75.3351 99.5833L73.9563 99.3521Z" fill="#E2F2D9"/>
<path d="M64.5286 105.766L66.8236 92.2109L68.1938 92.3993L65.8131 106.04L64.5286 105.766Z" fill="#E2F2D9"/>
<path d="M56.4272 115.835L56.7013 98.1699H58.0286L57.8488 115.835H56.4272Z" fill="#E2F2D9"/>
<path d="M118.376 91.8505L125.972 79.7598L127.068 80.402L119.566 92.5784L118.376 91.8505Z" fill="#E2F2D9"/>
<path d="M123.275 100.18L135.496 97.8848L135.813 99.1692L123.455 101.55L123.275 100.18Z" fill="#E2F2D9"/>
<path d="M123.086 110.348L135.041 107.873L135.4 109.243L123.369 111.718L123.086 110.348Z" fill="#E2F2D9"/>
<path d="M121.484 123.665L133.388 122.158L133.568 123.485L121.664 124.993L121.484 123.665Z" fill="#E2F2D9"/>
<path d="M122.632 117.166L134.399 116.027L134.493 117.397L122.726 118.493L122.632 117.166Z" fill="#E2F2D9"/>
<path d="M116.312 140.514L128.721 139.281L128.815 140.694L116.492 141.842L116.312 140.514Z" fill="#E2F2D9"/>
<path d="M109.898 150.079L123.728 147.887L123.908 149.257L110.18 151.457L109.898 150.079Z" fill="#E2F2D9"/>
<path d="M122.812 95.8753L135.041 88.2715L135.812 89.4703L123.455 97.0227L122.812 95.8753Z" fill="#E2F2D9"/>
<path d="M-0.666992 41.5779V41.3039V24.6406H0.608984V25.0945V41.6721L-0.666992 41.5779Z" fill="#E2F2D9"/>
<path d="M5.19092 46.9398L12.2388 36.6387L13.2493 37.4179L6.28709 47.6676L5.19092 46.9398Z" fill="#E2F2D9"/>
<path d="M12.3322 54.1744L19.0204 43.959L20.1165 44.781L13.4283 54.9451L12.3322 54.1744Z" fill="#E2F2D9"/>
<path d="M20.5704 64.6546L27.8067 55.3125L28.9029 56.0489L21.5809 65.4766L20.5704 64.6546Z" fill="#E2F2D9"/>
<path d="M16.6836 59.3491L24.1511 50.2383L25.2472 51.1031L17.8311 60.214L16.6836 59.3491Z" fill="#E2F2D9"/>
<path d="M28.7241 80.3088L36.7397 70.7441L37.6988 71.609L29.6918 81.2251L28.7241 80.3088Z" fill="#E2F2D9"/>
<path d="M31.0183 91.6623L39.1624 80.3594L40.267 81.2242L32.1144 92.4929L31.0183 91.6623Z" fill="#E2F2D9"/>
<path d="M29.5966 104.258L42.2793 91.5762L43.2384 92.4924L30.5129 105.217L29.5966 104.258Z" fill="#E2F2D9"/>
<path d="M29.6919 110.939L42.2805 104.209L42.8714 105.399L30.4198 112.172L29.6919 110.939Z" fill="#E2F2D9"/>
<path d="M1.71338 44.1885L5.00184 30.1797L6.38058 30.4965L3.04073 44.4625L1.71338 44.1885Z" fill="#E2F2D9"/>
<path d="M122.728 339.85L123.824 339.07L123.909 339.25L135.813 350.973L134.674 351.975L134.4 351.615L122.728 339.85Z" fill="#E2F2D9"/>
<path d="M95.1182 267.836L108.486 263.939L108.94 265.361L95.3922 269.3L95.1182 267.836Z" fill="#E2F2D9"/>
<path d="M57.9334 316.127H56.5118V334.169H57.9334V316.127Z" fill="#E2F2D9"/>
<path d="M47.6826 324.88L51.8874 311.23L53.1719 311.504L48.9586 325.239L47.6826 324.88Z" fill="#E2F2D9"/>
<path d="M108.297 215.09C139.067 214.405 145.121 191.38 145.121 191.191L147.039 191.654C147.039 191.928 140.634 216.375 108.306 217.06L108.297 215.09Z" fill="#E2F2D9"/>
<path d="M108.297 217.607V215.543C140.625 216.185 147.031 240.272 147.031 240.375L145.112 240.923C144.924 240.05 138.972 218.112 108.297 217.607Z" fill="#E2F2D9"/>
<path d="M132.104 215.362C148.041 215.183 155.363 207.168 158.849 200.395L160.039 200.985C156.614 208.041 148.778 216.553 132.104 216.741V215.362Z" fill="#E2F2D9"/>
<path d="M132.104 217.058V215.637C149.549 216.099 156.939 225.347 159.765 230.93L158.66 231.572C155.869 226.349 148.778 217.426 132.104 217.058Z" fill="#E2F2D9"/>
<path d="M127.162 289.621C128.626 288.062 142.089 273.599 166.992 283.669L166.358 285.596C142.679 275.98 130.048 289.441 128.678 290.991L127.162 289.621Z" fill="#E2F2D9"/>
<path d="M143.048 253.178H145.112C145.112 260.687 147.861 274.696 167.086 283.259L166.23 285.228C146.028 276.015 143.048 261.235 143.048 253.178Z" fill="#E2F2D9"/>
<path d="M120.569 277.029C124.851 274.101 133.937 269.974 147.305 275.608L146.757 276.841C134.125 271.583 125.424 275.428 121.391 278.168L120.569 277.029Z" fill="#E2F2D9"/>
<path d="M129.775 257.666L131.196 257.307C132.472 262.701 136.455 270.151 147.467 275.434L146.919 276.719C135.23 271.041 131.196 263.258 129.775 257.666Z" fill="#E2F2D9"/>
<path d="M141.909 177.002C141.909 172.147 143.622 155.209 165.887 145.688L166.744 147.606C143.262 157.496 143.896 175.812 143.896 178.004L141.935 178.098L141.909 177.002Z" fill="#E2F2D9"/>
<path d="M127.258 141.103L128.808 139.682C134.126 144.948 146.029 152.731 165.631 145.41L166.368 147.285C145.661 155.112 133.021 146.712 127.258 141.103Z" fill="#E2F2D9"/>
<path d="M128.379 173.882C129.236 168.744 132.772 159.419 146.234 154.059L146.782 155.206C133.877 160.421 130.511 169.215 129.707 174.113L128.379 173.882Z" fill="#E2F2D9"/>
<path d="M121.21 153.606L121.853 152.459C126.614 155.302 134.578 157.768 146.208 153.692L146.67 155.019C134.484 159.232 126.152 156.578 121.21 153.606Z" fill="#E2F2D9"/>
<path d="M63.9281 65.8377C64.0552 60.0112 65.2934 54.2626 67.5762 48.9004L69.4517 49.7567C59.869 73.3987 73.2282 85.9176 74.7783 87.2191L73.4081 88.8204C70.355 85.8302 67.9406 82.2515 66.3111 78.3011C64.6816 74.3506 63.871 70.1106 63.9281 65.8377Z" fill="#E2F2D9"/>
<path d="M36.9193 72.9877V70.924C44.4725 70.924 58.3969 68.1325 67.089 48.9004L69.0587 49.7567C59.4931 70.7442 43.4191 72.9877 36.9193 72.9877Z" fill="#E2F2D9"/>
<path d="M56.607 81.5002C56.7251 77.1161 57.7058 72.7981 59.4929 68.793L60.6833 69.2468C55.1854 82.0911 59.2189 90.6539 61.8736 94.7041L60.9573 95.432C58.0783 91.3609 56.556 86.486 56.607 81.5002Z" fill="#E2F2D9"/>
<path d="M41.0892 84.8881C46.3987 83.5095 53.9946 79.5706 59.3127 68.4902L60.4088 69.0468C54.8253 80.6752 46.9468 84.7939 41.3633 86.1725L41.0892 84.8881Z" fill="#E2F2D9"/>
<path d="M37.8779 358.105C40.0788 357.925 59.7666 357.334 70.2485 382.081L68.2789 382.937C58.3964 359.407 40.0788 360.049 38.0663 360.186L37.8779 358.105Z" fill="#E2F2D9"/>
<path d="M65.5306 366.393C65.4919 357.858 68.8143 349.651 74.7793 343.547L76.2951 345.011C71.0285 350.277 63.2013 362.231 70.6174 381.729L68.742 382.585C66.6819 377.432 65.5931 371.942 65.5306 366.393Z" fill="#E2F2D9"/>
<path d="M41.723 345.843L42.0913 344.652C47.1267 345.509 56.7009 349.045 61.8733 362.412L60.7686 362.917C55.7845 350.098 46.5786 346.759 41.723 345.843Z" fill="#E2F2D9"/>
<path d="M58.851 350.65C58.7749 345.982 59.9963 341.384 62.3792 337.369L63.4754 338.063C60.7693 342.635 58.2088 350.787 62.2422 362.51L61.0519 362.921C59.6521 358.978 58.9086 354.833 58.851 350.65Z" fill="#E2F2D9"/>
<path d="M92.9165 122.155C104.178 110.612 103.578 99.7634 101.155 92.5791L102.482 92.2109C104.632 98.3505 106.19 110.475 93.8328 123.157L92.9165 122.155Z" fill="#E2F2D9"/>
<path d="M93.0964 122.336C105.642 110.348 117.64 111.718 123.36 113.499L123.086 114.827C117.46 113.045 106.105 111.804 93.9186 123.347L93.0964 122.336Z" fill="#E2F2D9"/>
<path d="M-15.7987 57.1433L-15.165 55.9531C-9.41879 58.7874 0.335194 66.297 0.60923 83.9194H-0.675318C-0.932227 67.9325 -9.02486 60.5257 -15.7987 57.1433Z" fill="#E2F2D9"/>
<path d="M-0.580811 83.9247C-0.118373 66.4822 9.26736 59.0924 14.6196 56.2324L15.2619 57.3713C10.1237 60.12 1.2518 67.2186 0.797925 84.0189L-0.580811 83.9247Z" fill="#E2F2D9"/>
<path d="M-0.67627 348.309H0.608279C0.796679 364.244 8.76091 371.659 15.629 375.05L14.8924 376.189C9.26613 373.261 -0.582069 365.802 -0.67627 348.309Z" fill="#E2F2D9"/>
<path d="M-15.6188 374.78C-10.335 372.032 -1.40311 364.984 -0.949235 348.133H0.335313C-0.0757427 365.712 -9.49576 373.128 -14.9765 375.971L-15.6188 374.78Z" fill="#E2F2D9"/>
<path d="M92.9165 310.127L93.8328 309.031C105.257 320.206 116.218 319.683 123.36 317.363L123.729 318.647C117.725 320.754 105.462 322.304 92.9165 310.127Z" fill="#E2F2D9"/>
<path d="M92.6426 310.127L93.5589 309.211C105.642 321.764 104.358 333.846 102.482 339.66L101.061 339.378C102.85 333.666 104.272 322.304 92.6426 310.127Z" fill="#E2F2D9"/>
<path d="M75.832 138.725C97.0785 116.521 85.1322 95.9619 85.038 95.9105L86.6907 94.8145C86.8706 95.0799 99.6904 116.881 77.2707 140.198L75.832 138.725Z" fill="#E2F2D9"/>
<path d="M76.1997 139.092C99.4158 116.7 121.03 129.108 121.21 129.296L120.2 130.94C119.343 130.529 99.647 119.218 77.6213 140.513L76.1997 139.092Z" fill="#E2F2D9"/>
<path d="M-25.0049 70.9245L-24.551 68.9551C-24.2513 69.0493 0.240763 75.3686 0.977236 107.642L-1.03523 107.728C-1.78883 77.0127 -24.0543 71.1043 -25.0049 70.9245Z" fill="#E2F2D9"/>
<path d="M-0.67627 107.642C-0.0339956 75.3686 23.9186 69.0493 24.2354 68.9551L24.7835 70.9245C23.7302 71.1043 1.98704 77.0127 1.34477 107.745L-0.67627 107.642Z" fill="#E2F2D9"/>
<path d="M-1.03479 324.504H0.977673C1.52575 355.176 23.7313 361.042 24.7846 361.221L24.3307 363.285C23.9026 363.191 -0.486716 356.829 -1.03479 324.504Z" fill="#E2F2D9"/>
<path d="M-25.0049 361.221C-24.0714 361.042 -2.22557 355.176 -1.59186 324.504H0.429152C-0.213123 356.829 -24.2513 363.191 -24.4568 363.285L-25.0049 361.221Z" fill="#E2F2D9"/>
<path d="M75.832 293.512L77.305 291.996C99.4163 313.283 120.02 301.244 120.2 301.15L121.211 302.862C121.031 303.034 99.1423 315.801 75.832 293.512Z" fill="#E2F2D9"/>
<path d="M75.4211 293.829L76.9969 292.365C99.2624 315.716 86.8451 337.183 86.6652 337.457L85.0124 336.318C85.5006 335.488 96.6933 315.896 75.4211 293.829Z" fill="#E2F2D9"/>
<path d="M133.757 119.501L133.851 120.546L133.937 119.501C135.786 119.201 137.656 119.047 139.529 119.039C150.014 119.057 160.065 123.23 167.479 130.644C174.893 138.057 179.066 148.107 179.084 158.591C179.084 171.135 173.313 182.952 163.473 190.051L162.146 188.261C166.762 184.819 170.505 180.341 173.074 175.187C175.643 170.034 176.965 164.349 176.935 158.591C176.908 148.69 172.951 139.205 165.934 132.219C158.917 125.233 149.414 121.318 139.512 121.334C137.734 121.363 135.959 121.483 134.194 121.694L133.834 120.546L133.757 119.501Z" fill="#E2F2D9"/>
<path d="M26.1637 53.1576L26.5234 52.5667C27.5339 51.2823 28.63 50.0492 29.8717 48.722C37.3179 41.3027 47.4014 37.1367 57.9134 37.1367C68.4255 37.1367 78.5089 41.3027 85.9551 48.722C90.3018 53.0098 93.5753 58.2625 95.5097 64.0533C97.4441 69.8441 97.9848 76.0095 97.0879 82.0486L94.9384 81.6804C95.7695 76.0003 95.2487 70.2042 93.4185 64.7631C91.5882 59.3221 88.5002 54.3895 84.4051 50.3661C80.9431 46.8839 76.8267 44.1204 72.2928 42.2347C67.7588 40.349 62.8967 39.3782 57.9862 39.3782C53.0757 39.3782 48.2136 40.349 43.6797 42.2347C39.1457 44.1204 35.0293 46.8839 31.5674 50.3661C30.3802 51.4778 29.3072 52.7056 28.3646 54.031L27.9107 54.579L26.1637 53.1576Z" fill="#E2F2D9"/>
<path d="M25.7944 379.716L27.627 378.346C32.3686 384.573 38.9456 389.155 46.4304 391.445C53.9153 393.736 61.9303 393.619 69.3451 391.111C76.7599 388.603 83.2004 383.832 87.7582 377.469C92.3161 371.106 94.7612 363.472 94.7489 355.646C94.6942 353.823 94.5399 352.005 94.2865 350.2L96.5302 349.926C96.7872 351.823 96.9415 353.732 96.9926 355.646C96.9849 363.938 94.3794 372.019 89.5422 378.755C84.7049 385.49 77.8789 390.541 70.0232 393.197C62.1675 395.854 53.6767 395.983 45.7438 393.567C37.8109 391.15 30.8344 386.309 25.7944 379.724V379.716Z" fill="#E2F2D9"/>
<path d="M133.937 313.382L134.305 311.232C142.04 312.267 149.904 310.853 156.793 307.189C163.683 303.524 169.252 297.795 172.717 290.804C176.183 283.813 177.371 275.912 176.116 268.211C174.86 260.51 171.223 253.396 165.717 247.867C164.357 246.542 162.927 245.291 161.435 244.117L162.856 242.404C164.409 243.583 165.89 244.853 167.292 246.206C174.705 253.638 178.868 263.706 178.868 274.202C178.868 284.699 174.705 294.767 167.292 302.199C162.991 306.536 157.734 309.807 151.942 311.749C146.15 313.691 139.984 314.25 133.937 313.382Z" fill="#E2F2D9"/>
<path d="M27.627 55.0446C35.3361 48.4637 45.2406 45.0263 55.3696 45.4167C65.4985 45.807 75.1091 49.9964 82.2888 57.151C89.133 63.7676 93.2228 72.7265 93.7384 82.2316L92.274 82.3258C91.632 73.2365 87.727 64.6852 81.2783 58.2471C74.3598 51.392 65.121 47.3818 55.3882 47.0092C45.6554 46.6366 36.137 49.9287 28.7146 56.2348L27.627 55.0446Z" fill="#E2F2D9"/>
<path d="M27.9871 377.156L29.1346 375.965C35.9748 382.038 44.8219 385.363 53.9692 385.299C63.7052 385.242 73.0682 381.547 80.2192 374.94C87.3701 368.334 91.7922 359.292 92.6169 349.592L94.1755 349.772C92.6169 370.425 74.8473 386.9 53.9263 386.814C44.3847 386.903 35.1469 383.463 27.9871 377.156Z" fill="#E2F2D9"/>
<path d="M133.568 308.39C142.715 307.887 151.341 303.973 157.743 297.421C164.634 290.517 168.676 281.274 169.066 271.528C169.456 261.781 166.166 252.244 159.85 244.811L161.04 243.955C167.585 251.677 170.992 261.575 170.586 271.689C170.18 281.803 165.991 291.396 158.848 298.569C152.217 305.398 143.26 309.484 133.756 310.017L133.568 308.39Z" fill="#E2F2D9"/>
<path d="M133.389 123.482L133.518 121.881C143.602 122.712 153.009 127.291 159.883 134.716C166.757 142.141 170.598 151.872 170.65 161.989C170.718 171.528 167.253 180.755 160.922 187.892L159.637 186.839C165.757 180.021 169.116 171.167 169.057 162.006C169.02 152.284 165.334 142.931 158.729 135.796C152.124 128.662 143.081 124.267 133.389 123.482Z" fill="#E2F2D9"/>
<path d="M164.525 180.107C167.36 178.395 170.52 176.537 173.774 174.713L174.502 176.083C171.299 177.915 168.182 179.654 165.347 181.486L164.525 180.107Z" fill="#E2F2D9"/>
<path d="M176.935 167.838C175.745 168.574 174.597 169.216 173.51 169.996C171.677 171.049 169.887 172.239 168.106 173.104" fill="#E2F2D9"/>
<path d="M177.706 161.529C175.513 162.942 173.227 164.321 171.026 165.648C170.521 165.828 169.878 166.376 169.425 166.504" fill="#E2F2D9"/>
<path d="M169.604 160.652C172.311 159.05 175.325 157.492 177.706 155.934L169.604 160.652Z" fill="#E2F2D9"/>
<path d="M169.245 154.841C171.942 153.188 174.597 151.638 177.115 150.26L169.245 154.841Z" fill="#E2F2D9"/>
<path d="M167.772 149.804C170.29 148.245 173.081 146.832 175.556 145.223L167.772 149.804Z" fill="#E2F2D9"/>
<path d="M166.059 145.225C168.431 143.718 171.001 142.117 173.475 140.738L166.059 145.225Z" fill="#E2F2D9"/>
<path d="M163.49 140.514C166.059 139.187 168.474 137.534 170.769 136.232L163.49 140.514Z" fill="#E2F2D9"/>
<path d="M160.406 136.437C162.826 135.244 165.151 133.867 167.36 132.318L160.406 136.437Z" fill="#E2F2D9"/>
<path d="M156.784 133.015C158.933 131.688 161.228 130.361 163.472 128.939L156.784 133.015Z" fill="#E2F2D9"/>
<path d="M152.434 129.382C154.69 128.257 156.862 126.972 158.934 125.537L152.434 129.382Z" fill="#E2F2D9"/>
<path d="M153.719 122.838C151.829 124.083 149.873 125.226 147.861 126.263C147.861 126.263 147.587 126.263 147.587 126.494" fill="#E2F2D9"/>
<path d="M147.219 120.775C146.576 121.332 146.028 121.512 145.506 121.966C144.153 122.656 142.841 123.422 141.575 124.26" fill="#E2F2D9"/>
<path d="M134.125 122.611C135.593 121.86 137.022 121.034 138.407 120.137L134.125 122.611Z" fill="#E2F2D9"/>
<path d="M27.627 55.0446C35.3361 48.4637 45.2406 45.0263 55.3696 45.4167C65.4985 45.807 75.1091 49.9964 82.2888 57.151C89.133 63.7676 93.2228 72.7265 93.7384 82.2316L92.274 82.3258C91.632 73.2365 87.727 64.6852 81.2783 58.2471C74.3598 51.392 65.121 47.3818 55.3882 47.0092C45.6554 46.6366 36.137 49.9287 28.7146 56.2348L27.627 55.0446Z" fill="#E2F2D9"/>
<path d="M90.8098 74.2617C91.5463 71.0592 92.4541 67.7625 93.5588 63.875L95.1088 64.286C93.9184 68.1307 93.0963 71.4274 92.3684 74.7241L90.8098 74.2617Z" fill="#E2F2D9"/>
<path d="M90.9905 56.918C90.5794 58.151 90.3053 59.4354 89.9371 60.7199C89.5575 62.7867 89.0222 64.8219 88.3357 66.808" fill="#E2F2D9"/>
<path d="M87.0592 51.7461C86.5026 54.2636 85.8603 56.8838 85.2266 59.4527C85.0233 60.05 84.8687 60.6628 84.7642 61.2851" fill="#E2F2D9"/>
<path d="M80.739 56.864C81.4669 53.8499 82.4518 50.6474 83.1625 47.7617L80.739 56.864Z" fill="#E2F2D9"/>
<path d="M76.1997 53.0179C77.0561 50.0038 77.9124 46.9811 78.6318 44.2324L76.1997 53.0179Z" fill="#E2F2D9"/>
<path d="M71.7637 50.4981C72.4059 47.5696 73.3137 44.7781 73.956 41.8496L71.7637 50.4981Z" fill="#E2F2D9"/>
<path d="M67.1829 48.5343C67.8251 45.7 68.5616 42.7715 69.3323 40.0742L67.1829 48.5343Z" fill="#E2F2D9"/>
<path d="M62.0527 46.9819C63.0119 44.2332 63.5685 41.3047 64.2536 38.8301L62.0527 46.9819Z" fill="#E2F2D9"/>
<path d="M57.0688 46.3388C57.8912 43.7506 58.5773 41.121 59.1241 38.4609L57.0688 46.3388Z" fill="#E2F2D9"/>
<path d="M52.0757 46.5288C52.7094 43.8743 53.3488 41.3055 53.9939 38.8223L52.0757 46.5288Z" fill="#E2F2D9"/>
<path d="M46.3994 46.982C47.2157 44.5739 47.8567 42.1099 48.3177 39.6094L46.3994 46.982Z" fill="#E2F2D9"/>
<path d="M42.6915 41.3066C42.2406 43.5414 41.6427 45.744 40.9016 47.9C40.8773 47.9232 40.8579 47.9511 40.8447 47.982C40.8314 48.013 40.8246 48.0462 40.8246 48.0799C40.8246 48.1135 40.8314 48.1468 40.8447 48.1777C40.8579 48.2086 40.8773 48.2365 40.9016 48.2597" fill="#E2F2D9"/>
<path d="M36.7469 44.6035C36.5585 45.3314 36.3786 45.7938 36.1902 46.6158C35.7192 48.0171 35.3388 49.4471 35.0513 50.8972" fill="#E2F2D9"/>
<path d="M28.6287 55.091C29.2053 53.551 29.6214 51.9556 29.8704 50.3301L28.6287 55.091Z" fill="#E2F2D9"/>
<path d="M27.9871 377.156L29.1346 375.965C35.9748 382.038 44.8219 385.363 53.9692 385.299C63.7052 385.242 73.0682 381.547 80.2192 374.94C87.3701 368.334 91.7922 359.292 92.6169 349.592L94.1755 349.772C92.6169 370.425 74.8473 386.9 53.9263 386.814C44.3847 386.903 35.1469 383.463 27.9871 377.156Z" fill="#E2F2D9"/>
<path d="M34.4958 381.457L35.8232 380.678C37.5359 383.384 39.1631 386.269 40.7216 389.146L41.1755 389.926L39.8909 390.705L39.3172 389.9C37.8785 387.091 36.1829 384.248 34.4958 381.457Z" fill="#E2F2D9"/>
<path d="M42.1863 384.572L43.5993 383.904C44.4557 385.685 45.6546 387.518 46.5709 389.162C47.0247 389.941 47.4272 390.446 47.8554 391.183C48.0222 391.676 48.2681 392.139 48.5834 392.553L47.3074 393.469C47.0499 392.923 46.7432 392.401 46.3911 391.911C46.0686 391.273 45.6994 390.661 45.2863 390.078C44.2929 388.323 43.0512 386.473 42.1863 384.572Z" fill="#E2F2D9"/>
<path d="M48.592 385.943L50.1078 385.301C50.2989 385.519 50.4524 385.768 50.5617 386.037C50.786 386.256 50.9585 386.522 51.0669 386.816L52.4371 389.145C53.3534 390.618 54.1498 392.074 55.1004 393.547L53.7217 394.326C52.8053 392.905 52.0774 391.535 51.1526 390.045L49.6368 387.621C49.5402 387.359 49.385 387.121 49.1829 386.928C48.9603 386.542 48.7804 386.217 48.592 385.943Z" fill="#E2F2D9"/>
<path d="M54.6377 386.216L55.9651 385.359C56.5131 386.318 57.0698 387.286 57.7549 388.288C58.6712 390 59.6731 391.859 60.7692 393.511L59.4933 394.29C58.335 392.645 57.2797 390.929 56.3333 389.153C55.7852 388.185 55.1858 387.183 54.6377 386.216Z" fill="#E2F2D9"/>
<path d="M61.325 385.301C62.8322 388.144 64.4336 390.798 65.7181 393.273L61.325 385.301Z" fill="#E2F2D9"/>
<path d="M66.1719 384.066C67.6448 386.541 69.0579 389.144 70.7535 391.713L66.1719 384.066Z" fill="#E2F2D9"/>
<path d="M70.0696 382.649L71.3027 381.732C72.9555 384.25 74.5998 386.725 75.9271 389.242L74.5056 390.098C73.1354 387.598 71.5768 385.123 70.0696 382.649Z" fill="#E2F2D9"/>
<path d="M75.4211 379.717C76.8427 382.191 78.4441 384.752 79.703 386.901L75.4211 379.717Z" fill="#E2F2D9"/>
<path d="M79.5664 376.557C80.7317 378.983 82.092 381.312 83.6341 383.518L79.5664 376.557Z" fill="#E2F2D9"/>
<path d="M82.9917 372.943C84.3191 375.23 85.6893 377.336 87.068 379.717L82.9917 372.943Z" fill="#E2F2D9"/>
<path d="M86.5969 368.643C87.6931 370.886 89.1146 373.13 90.3992 375.236L86.5969 368.643Z" fill="#E2F2D9"/>
<path d="M93.097 369.922C92.0009 368.21 90.9047 366.12 89.6716 364.065C89.6716 364.065 89.7658 363.877 89.5774 363.877" fill="#E2F2D9"/>
<path d="M95.1097 363.355C94.8041 362.726 94.4369 362.13 94.0135 361.574C93.3713 360.247 92.455 359.099 91.7271 357.678" fill="#E2F2D9"/>
<path d="M93.3704 350.279C94.0903 351.756 94.9026 353.186 95.8025 354.561L93.3704 350.279Z" fill="#E2F2D9"/>
<path d="M133.568 308.39C142.715 307.887 151.341 303.973 157.743 297.421C164.634 290.517 168.676 281.274 169.066 271.528C169.456 261.781 166.166 252.244 159.85 244.811L161.04 243.955C167.585 251.677 170.992 261.575 170.586 271.689C170.18 281.803 165.991 291.396 158.848 298.569C152.217 305.398 143.26 309.484 133.756 310.017L133.568 308.39Z" fill="#E2F2D9"/>
<path d="M141.268 308.55L141.721 307.086C144.65 307.677 147.767 308.55 150.97 309.415L152.075 309.74L151.707 311.29L150.465 310.974C147.493 310.126 144.291 309.304 141.268 308.55Z" fill="#E2F2D9"/>
<path d="M148.863 305.367L149.462 303.766C151.397 304.412 153.367 304.947 155.363 305.367C156.043 305.606 156.751 305.762 157.469 305.829C158.112 306.009 158.754 306.24 159.302 306.42L158.934 307.936C158.386 307.842 157.743 307.662 156.964 307.473C156.416 307.294 155.688 307.114 155.089 306.925C152.982 306.42 150.875 305.924 148.863 305.367Z" fill="#E2F2D9"/>
<path d="M154.541 301.617L155.089 300.195C155.183 300.195 155.551 300.29 155.945 300.384C156.236 300.455 156.522 300.547 156.801 300.658L159.687 301.343C161.246 301.797 162.847 302.199 164.449 302.533L164.08 304.091C162.573 303.68 160.878 303.312 159.413 302.901L156.433 302.165C156.125 302.056 155.801 301.995 155.474 301.985C155.171 301.842 154.86 301.719 154.541 301.617Z" fill="#E2F2D9"/>
<path d="M158.934 297.718L159.302 296.168C160.407 296.442 161.409 296.673 162.65 297.024C164.526 297.529 166.538 298.214 168.371 298.583L168.097 300.047C166.264 299.679 164.252 299.131 162.102 298.583C161.04 298.317 159.944 297.949 158.934 297.718Z" fill="#E2F2D9"/>
<path d="M163.01 292.365C166.084 293.222 169.056 294.018 171.753 294.934L163.01 292.365Z" fill="#E2F2D9"/>
<path d="M165.529 287.998C168.372 288.546 171.3 289.556 174.144 290.242L165.529 287.998Z" fill="#E2F2D9"/>
<path d="M167.266 284.215L167.54 282.656C170.426 283.393 173.406 283.941 176.104 284.857L175.744 286.321C173.038 285.499 170.066 284.857 167.266 284.215Z" fill="#E2F2D9"/>
<path d="M169.055 278.361C171.753 279.218 174.596 279.783 177.208 280.416L169.055 278.361Z" fill="#E2F2D9"/>
<path d="M169.698 273.229C172.267 274.156 174.92 274.83 177.62 275.241L169.698 273.229Z" fill="#E2F2D9"/>
<path d="M169.485 268.195C172.002 268.923 174.571 269.523 177.192 270.165L169.485 268.195Z" fill="#E2F2D9"/>
<path d="M169.055 262.697C171.479 263.434 173.954 264.119 176.377 264.624L169.055 262.697Z" fill="#E2F2D9"/>
<path d="M174.621 259.04C172.515 258.483 170.271 257.85 168.122 257.207C168.068 257.169 168.004 257.148 167.938 257.148C167.872 257.148 167.807 257.169 167.753 257.207" fill="#E2F2D9"/>
<path d="M171.481 252.892C170.624 252.712 170.153 252.524 169.425 252.344C167.962 251.958 166.478 251.652 164.981 251.428" fill="#E2F2D9"/>
<path d="M160.92 244.848C162.45 245.475 164.048 245.92 165.682 246.175L160.92 244.848Z" fill="#E2F2D9"/>
<path d="M173.312 143.034C173.312 140.011 177.988 135.704 184.762 132.681C191.356 129.89 199.226 128.751 200.69 132.227C202.069 135.344 197.171 140.328 189.558 143.719C182.878 146.647 174.999 147.743 173.492 144.224C173.331 143.849 173.269 143.439 173.312 143.034ZM199.457 133.366C199.481 133.208 199.448 133.047 199.363 132.912C198.447 130.943 192.589 131.08 185.353 134.239C178.117 137.399 174.092 141.749 175.008 143.53C175.787 145.414 181.688 145.32 188.83 142.203C195.475 139.274 199.457 135.524 199.457 133.366Z" fill="#E2F2D9"/>
<path d="M69.4263 36.9547C69.5611 33.3547 70.3203 29.8055 71.67 26.4653C73.8709 20.7025 77.2106 16.1898 80.0966 14.9311C80.8945 14.5838 81.7947 14.5532 82.6143 14.8455C83.7105 15.2993 85.0378 16.558 85.0378 20.3771C84.8898 23.9588 84.131 27.4889 82.7942 30.8152C80.2251 37.5028 75.4209 43.865 71.7642 42.4949C70.2484 41.8527 69.4263 39.9774 69.4263 36.9547ZM83.4364 20.3771C83.4364 18.1336 82.9825 16.6266 82.0148 16.3012C81.7888 16.2292 81.5504 16.205 81.3145 16.2301C81.0786 16.2551 80.8505 16.3289 80.6447 16.4467C78.3496 17.5 75.1468 21.7985 73.1343 27.0218C71.8269 30.1791 71.0821 33.5408 70.9335 36.9547C70.9335 39.104 71.4901 40.6624 72.4921 40.9793C74.3247 41.7585 78.4866 37.5028 81.287 30.2672C82.6089 27.1317 83.3378 23.7783 83.4364 20.3771Z" fill="#E2F2D9"/>
<path d="M69.5203 394.823C69.5203 391.398 70.8476 390.063 71.8496 389.746C72.2366 389.563 72.6592 389.469 73.087 389.469C73.5149 389.469 73.9374 389.563 74.3245 389.746C77.3046 390.893 80.7386 395.192 83.1622 400.877C84.859 404.301 85.8105 408.045 85.9539 411.864C85.9539 415.289 84.7636 416.445 83.8044 417.001C80.2762 418.465 75.1466 412.42 72.312 405.741C70.6164 401.785 69.5203 397.846 69.5203 394.823ZM84.3097 411.855C84.1582 408.269 83.2844 404.751 81.7406 401.511C79.5483 396.476 76.2941 392.169 73.7764 391.236C73.3139 391.056 72.7659 390.919 72.4918 391.15C71.6355 391.518 71.2159 392.863 71.2159 394.806C71.3829 398.332 72.2565 401.789 73.7849 404.97C76.9449 412.206 81.2953 416.239 83.205 415.409C83.9843 415.246 84.3097 413.782 84.3097 411.855Z" fill="#E2F2D9"/>
<path d="M173.312 289.069C173.305 288.713 173.4 288.363 173.586 288.059C173.724 287.648 173.948 287.273 174.243 286.956C174.539 286.64 174.899 286.391 175.299 286.226C178.236 285.045 183.682 285.593 189.454 287.879C196.502 290.67 201.401 294.729 201.401 297.718C201.396 298.079 201.332 298.438 201.212 298.779C199.748 302.35 191.878 301.519 185.104 298.959C178.262 296.253 173.312 292.186 173.312 289.069ZM199.774 297.718C199.774 295.662 195.706 291.903 188.786 289.343C183.708 287.288 178.441 286.594 176.018 287.631C175.579 287.787 175.208 288.089 174.965 288.487C174.965 288.667 174.87 288.855 174.87 289.035C174.87 291.141 178.99 294.892 185.678 297.503C193 300.252 199.046 300.115 199.774 298.283V297.718Z" fill="#E2F2D9"/>
<path d="M169.245 249.976L169.973 248.605C203.671 267.649 201.333 298.321 201.238 298.595L199.774 298.416V297.037C199.774 290.992 197.95 266.365 169.245 249.976Z" fill="#E2F2D9"/>
<path d="M143.871 313.476L144.291 311.874C180.823 321.122 199.775 298.319 199.869 298.174L201.059 299.03C200.879 299.133 181.371 322.86 143.871 313.476Z" fill="#E2F2D9"/>
<path d="M143.237 118.86C180.455 108.516 200.417 131.764 200.614 132.038L199.457 133.014C199.269 132.791 179.949 110.305 143.64 120.332L143.237 118.86Z" fill="#E2F2D9"/>
<path d="M169.783 181.762C202.068 162.436 199.225 132.911 199.225 132.68L200.689 132.5C200.878 132.68 203.849 163.326 170.614 183.089L169.783 181.762Z" fill="#E2F2D9"/>
<path d="M32.4663 45.9755C51.6061 12.3749 82.1355 14.7554 82.2811 14.7554L82.1954 16.3053C81.9128 16.3053 52.4282 14.019 33.7509 46.7976L32.4663 45.9755Z" fill="#E2F2D9"/>
<path d="M81.8345 16.1219L82.7936 14.9316C83.0676 15.12 106.772 34.4378 97.172 72.0715L95.7075 71.7033C104.913 35.08 82.1342 16.3017 81.8345 16.1219Z" fill="#E2F2D9"/>
<path d="M82.9917 415.517C83.1715 415.338 105.651 396.105 95.5803 359.859L97.0875 359.396C107.484 396.799 84.1307 416.622 83.9936 416.768L82.9917 415.517Z" fill="#E2F2D9"/>
<path d="M32.9371 386.818L34.3073 386.039C53.6269 418.364 83.0687 415.341 83.3428 415.341L83.5312 416.985C83.163 416.985 52.7106 419.965 32.9371 386.818Z" fill="#E2F2D9"/>
<path d="M108.211 215.09H71.4897V217.059H108.211V215.09Z" fill="#E2F2D9"/>
<path d="M65.9072 188.357L98.6803 174.117L99.4168 176.001L66.7293 190.19L65.9072 188.357Z" fill="#E2F2D9"/>
<path d="M176.112 199.846L199.413 186.934L200.424 188.723L177.114 201.636L176.112 199.846Z" fill="#E2F2D9"/>
<path d="M175.744 232.487L176.66 230.611L200.425 243.798L199.414 245.485L175.744 232.487Z" fill="#E2F2D9"/>
<path d="M191.082 217.331L191.176 214.402L215.848 214.634V217.613L191.082 217.331Z" fill="#E2F2D9"/>
<path d="M199.962 191.651C198.97 191.623 198.025 191.219 197.319 190.521C196.613 189.824 196.199 188.883 196.16 187.891C196.156 186.874 196.552 185.895 197.264 185.168C197.975 184.44 198.945 184.022 199.962 184.004C200.945 184.05 201.872 184.474 202.551 185.185C203.231 185.897 203.609 186.843 203.609 187.827C203.609 188.811 203.231 189.757 202.551 190.469C201.872 191.181 200.945 191.604 199.962 191.651Z" fill="#E2F2D9"/>
<path d="M199.962 248.412C198.951 248.397 197.987 247.985 197.276 247.266C196.565 246.547 196.164 245.578 196.16 244.568C196.19 243.569 196.6 242.619 197.307 241.912C198.014 241.206 198.963 240.796 199.962 240.766C200.966 240.779 201.926 241.184 202.636 241.894C203.346 242.604 203.751 243.563 203.764 244.568C203.771 245.071 203.678 245.57 203.49 246.037C203.302 246.504 203.022 246.928 202.669 247.286C202.315 247.644 201.893 247.928 201.429 248.121C200.964 248.314 200.465 248.413 199.962 248.412Z" fill="#E2F2D9"/>
<path d="M113.067 79.9907L120.389 54.3535L122.359 54.9444L114.986 80.5387L113.067 79.9907Z" fill="#E2F2D9"/>
<path d="M135.042 101.279L161.23 93.8203L161.778 95.7812L135.813 103.291L135.042 101.279Z" fill="#E2F2D9"/>
<path d="M133.945 79.668L151.526 62.3711L153.624 64.4262L136 81.7745L133.945 79.668Z" fill="#E2F2D9"/>
<path d="M123.909 57.3269C123.564 57.6746 123.154 57.9506 122.702 58.1389C122.25 58.3273 121.765 58.4242 121.276 58.4242C120.786 58.4242 120.301 58.3273 119.849 58.1389C119.397 57.9506 118.987 57.6746 118.642 57.3269C117.962 56.6107 117.582 55.6605 117.582 54.6724C117.582 53.6844 117.962 52.7341 118.642 52.0179C119.355 51.3658 120.293 51.0147 121.259 51.0382C122.225 51.0617 123.145 51.4578 123.825 52.1438C124.506 52.8298 124.894 53.7524 124.91 54.7185C124.926 55.6846 124.567 56.6192 123.909 57.3269Z" fill="#E2F2D9"/>
<path d="M164.252 97.5187C163.718 98.0524 163.038 98.4159 162.297 98.563C161.556 98.7101 160.788 98.6342 160.09 98.3451C159.393 98.0559 158.796 97.5665 158.377 96.9385C157.957 96.3105 157.733 95.5723 157.733 94.8171C157.733 94.0619 157.957 93.3236 158.377 92.6957C158.796 92.0677 159.393 91.5782 160.09 91.2891C160.788 90.9999 161.556 90.9241 162.297 91.0712C163.038 91.2183 163.718 91.5817 164.252 92.1155C164.957 92.8383 165.351 93.8077 165.351 94.8171C165.351 95.8264 164.957 96.7959 164.252 97.5187Z" fill="#E2F2D9"/>
<path d="M14.3447 39.2933L27.4471 15.5742L29.2284 16.5846L16.1346 40.2951L14.3447 39.2933Z" fill="#E2F2D9"/>
<path d="M-1.76257 24.8219L-1.58272 0.152344L1.34604 0.195174L1.16618 24.9161L-1.76257 24.8219Z" fill="#E2F2D9"/>
<path d="M32.2 16.0285C32.2012 16.5317 32.1022 17.0302 31.9089 17.4948C31.7155 17.9594 31.4316 18.3809 31.0738 18.7347C30.7159 19.0885 30.2912 19.3676 29.8245 19.5558C29.3577 19.7439 28.8582 19.8372 28.3549 19.8304C27.858 19.8305 27.366 19.7318 26.9076 19.5401C26.4491 19.3484 26.0333 19.0675 25.6843 18.7138C25.3353 18.3601 25.0601 17.9405 24.8747 17.4796C24.6892 17.0186 24.5972 16.5254 24.604 16.0285C24.5947 15.5334 24.6854 15.0416 24.8706 14.5823C25.0558 14.1231 25.3318 13.7059 25.6819 13.3558C26.0321 13.0057 26.4493 12.7297 26.9086 12.5445C27.3679 12.3593 27.8598 12.2687 28.3549 12.278C28.8541 12.2701 29.35 12.361 29.8139 12.5455C30.2779 12.73 30.7007 13.0045 31.0581 13.3531C31.4155 13.7017 31.7004 14.1175 31.8964 14.5767C32.0923 15.0359 32.1955 15.5293 32.2 16.0285Z" fill="#E2F2D9"/>
<path d="M14.3447 393.274L16.1346 392.357L29.0485 415.708L27.2587 416.625L14.3447 393.274Z" fill="#E2F2D9"/>
<path d="M-1.58411 432.002L-1.31006 407.238L1.5245 407.418L1.34465 432.002H-1.58411Z" fill="#E2F2D9"/>
<path d="M24.3295 416.12C24.3283 415.628 24.4248 415.142 24.6133 414.688C24.8018 414.234 25.0786 413.823 25.4276 413.477C25.7766 413.131 26.1908 412.858 26.6462 412.674C27.1016 412.49 27.5891 412.398 28.0804 412.403C28.5776 412.392 29.0722 412.479 29.5355 412.661C29.9987 412.842 30.4214 413.113 30.779 413.459C31.1367 413.804 31.4221 414.217 31.6189 414.674C31.8157 415.131 31.9199 415.622 31.9254 416.12C31.93 416.626 31.8337 417.128 31.642 417.596C31.4504 418.065 31.1674 418.49 30.8095 418.848C30.4515 419.206 30.0258 419.489 29.5572 419.681C29.0886 419.873 28.5866 419.969 28.0804 419.964C27.0798 419.931 26.1308 419.513 25.4318 418.796C24.7327 418.08 24.3378 417.121 24.3295 416.12Z" fill="#E2F2D9"/>
<path d="M135.496 331.19L136.001 329.178L161.598 336.593L161.05 338.52L135.496 331.19Z" fill="#E2F2D9"/>
<path d="M112.698 351.973L114.531 351.34L122.127 377.337L120.294 377.979L112.698 351.973Z" fill="#E2F2D9"/>
<path d="M134.211 352.257L136.369 350.1L153.625 367.816L151.527 369.743L134.211 352.257Z" fill="#E2F2D9"/>
<path d="M158.754 340.236C158.376 339.9 158.073 339.487 157.866 339.025C157.659 338.563 157.552 338.062 157.552 337.556C157.552 337.05 157.659 336.549 157.866 336.087C158.073 335.625 158.376 335.212 158.754 334.876C159.458 334.18 160.403 333.782 161.392 333.766C162.381 333.75 163.339 334.117 164.064 334.79C164.769 335.521 165.163 336.497 165.163 337.513C165.163 338.529 164.769 339.505 164.064 340.236C163.721 340.595 163.309 340.88 162.853 341.075C162.396 341.27 161.905 341.37 161.409 341.37C160.913 341.37 160.422 341.27 159.966 341.075C159.51 340.88 159.097 340.595 158.754 340.236Z" fill="#E2F2D9"/>
<path d="M118.462 380.481C117.777 379.748 117.396 378.783 117.396 377.78C117.396 376.776 117.777 375.811 118.462 375.078C119.166 374.356 120.128 373.943 121.137 373.93C122.146 373.917 123.118 374.305 123.84 375.009C124.562 375.713 124.975 376.676 124.988 377.684C125.001 378.692 124.613 379.665 123.909 380.387C123.189 381.103 122.22 381.513 121.204 381.53C120.189 381.548 119.206 381.172 118.462 380.481Z" fill="#E2F2D9"/>
<path d="M106.465 203.143C121.485 188.167 138.793 202.955 139.007 203.049L137.911 204.47C137.131 203.871 121.52 190.684 107.878 204.419L106.465 203.143Z" fill="#E2F2D9"/>
<path d="M118.642 199.522C118.642 194.667 120.295 189.358 125.236 184.229L126.615 185.513C116.493 195.865 121.032 207.168 124.688 213.025L123.181 213.882C121.032 210.422 118.642 205.379 118.642 199.522Z" fill="#E2F2D9"/>
<path d="M107.654 229.917L108.939 228.547C122.718 242.367 138.338 229.095 138.972 228.547L140.162 230.011C139.982 230.054 122.718 244.842 107.654 229.917Z" fill="#E2F2D9"/>
<path d="M119.815 232.804C119.815 227.221 122.384 222.529 124.302 219.301L125.775 220.26C123.711 223.685 120.919 229.097 121.836 235.236C122.016 239.261 123.891 243.105 127.051 246.728L125.681 247.866C122.195 243.979 120.277 239.715 120.003 235.416C119.926 234.5 119.815 233.626 119.815 232.804Z" fill="#E2F2D9"/>
<path d="M85.8599 149.666V147.791C105.274 147.791 106.926 127.463 107.021 126.641L108.733 126.726C108.759 127.017 106.969 149.666 85.8599 149.666Z" fill="#E2F2D9"/>
<path d="M90.0312 130.393L91.8211 129.982C92.823 133.921 94.7498 139.641 99.6911 143.349C102.757 146.055 106.542 147.562 111.5 147.793L111.415 149.617C106.191 149.343 101.704 147.656 98.5692 144.77C93.1913 140.72 91.1788 134.606 90.0312 130.393Z" fill="#E2F2D9"/>
<path d="M12.426 77.0573L13.7962 75.8242C13.8904 76.0982 28.6285 93.3609 13.7021 108.363L12.426 107.079C26.1621 93.2239 12.9741 77.6995 12.426 77.0573Z" fill="#E2F2D9"/>
<path d="M3.04126 91.6647L3.95755 90.2004C7.47721 92.3069 12.8809 95.047 19.021 94.1394C23.3054 93.7505 27.3277 91.9073 30.4192 88.916L31.6524 90.2432C27.6275 93.7198 23.5512 95.6892 19.2009 95.9632C12.5127 96.8795 6.83496 93.951 3.04126 91.6647Z" fill="#E2F2D9"/>
<path d="M66.3611 302.068H68.0738C68.0738 321.669 88.4895 323.133 89.363 323.219L89.2774 325.051C89.1147 324.965 66.3611 323.219 66.3611 302.068Z" fill="#E2F2D9"/>
<path d="M66.3611 327.53C66.7293 322.306 68.2793 317.914 71.3023 314.685C75.2416 309.282 81.3817 307.27 85.6807 306.217L85.9547 308.006C82.1096 308.914 76.3891 310.789 72.6811 315.781C69.8534 319.078 68.2635 323.256 68.1851 327.598L66.3611 327.53Z" fill="#E2F2D9"/>
<path d="M66.1719 131.49C66.1719 110.339 88.7971 108.516 89.1139 108.516L89.2081 110.339C88.2404 110.391 67.9189 112.052 67.9189 131.49V131.584H66.2062L66.1719 131.49Z" fill="#E2F2D9"/>
<path d="M65.9934 104.852H67.826C68.0058 119.314 79.1814 124.075 85.861 125.634L85.5014 127.346C78.3507 125.728 66.1732 120.547 65.9934 104.852Z" fill="#E2F2D9"/>
<path d="M11.5105 353.985C12.1442 353.3 25.3322 337.715 11.6047 324.015L12.8807 322.688C27.8071 337.707 13.0605 355.106 12.8807 355.226L11.5105 353.985Z" fill="#E2F2D9"/>
<path d="M2.07349 339.379C7.21168 336.168 20.1171 330.174 31.6523 341.477L30.4192 342.804C20.1428 332.597 8.85588 337.221 3.1268 340.929L2.07349 339.379Z" fill="#E2F2D9"/>
<path d="M84.4902 282.393C105.642 282.393 107.475 305.007 107.475 305.281L105.642 305.367C105.642 304.45 103.93 284.131 84.4902 284.131V282.393Z" fill="#E2F2D9"/>
<path d="M88.6096 301.617C90.3223 294.381 95.2978 282.393 111.046 282.299V284.011C96.6252 284.106 91.9066 295.451 90.3994 302.045L88.6096 301.617Z" fill="#E2F2D9"/>
<path d="M-52.8619 216.073C-52.8754 205.641 -49.7947 195.439 -44.0093 186.759C-38.2239 178.078 -29.9937 171.307 -20.3598 167.304C-10.7259 163.3 -0.120953 162.244 10.1136 164.268C20.3482 166.291 29.7527 171.304 37.1375 178.673C44.5224 186.042 49.5559 195.435 51.6015 205.664C53.647 215.893 52.6126 226.499 48.6291 236.141C44.6457 245.782 37.8921 254.026 29.2226 259.829C20.5532 265.632 10.3573 268.734 -0.0755196 268.743C-14.0561 268.743 -27.4656 263.197 -37.3618 253.323C-47.258 243.448 -52.8324 230.052 -52.8619 216.073ZM51.5205 216.073C51.5273 205.871 48.5088 195.897 42.8467 187.411C37.1845 178.925 29.1331 172.308 19.7103 168.397C10.2875 164.486 -0.0834312 163.457 -10.0913 165.439C-20.0991 167.421 -29.2944 172.326 -36.5145 179.534C-43.7346 186.741 -48.6553 195.928 -50.6544 205.931C-52.6535 215.935 -51.6412 226.306 -47.7455 235.735C-43.8499 245.163 -37.2458 253.225 -28.7683 258.9C-20.2908 264.576 -10.3206 267.611 -0.118324 267.621C13.5575 267.605 26.6699 262.172 36.3481 252.511C46.0264 242.849 51.482 229.747 51.5205 216.073Z" fill="#E2F2D9"/>
<path d="M-57.7858 216.072C-57.779 204.669 -54.3914 193.523 -48.0513 184.045C-41.7112 174.566 -32.703 167.18 -22.1655 162.819C-11.6279 158.458 -0.033989 157.319 11.1509 159.545C22.3358 161.772 32.6096 167.264 40.6737 175.327C48.7378 183.39 54.2302 193.663 56.4567 204.847C58.6833 216.031 57.544 227.624 53.1828 238.16C48.8217 248.697 41.4345 257.704 31.955 264.043C22.4754 270.383 11.3291 273.77 -0.0752983 273.777C-15.3762 273.761 -30.0459 267.676 -40.8652 256.858C-51.6846 246.04 -57.7699 231.371 -57.7858 216.072ZM56.3335 216.072C56.3335 204.89 53.0158 193.959 46.8003 184.663C40.5849 175.366 31.7511 168.123 21.4169 163.849C11.0827 159.574 -0.287319 158.462 -11.2542 160.651C-22.221 162.841 -32.2917 168.235 -40.1918 176.15C-48.0918 184.064 -53.466 194.145 -55.6343 205.115C-57.8025 216.085 -56.6673 227.452 -52.3724 237.777C-48.0774 248.101 -40.8158 256.92 -31.5065 263.116C-22.1972 269.313 -11.2586 272.609 -0.0752983 272.587C14.8955 272.557 29.243 266.59 39.8185 255.995C50.394 245.399 56.3335 231.041 56.3335 216.072Z" fill="#E2F2D9"/>
</svg>
