<svg width="270" height="320" viewBox="0 0 270 320" fill="none" xmlns="http://www.w3.org/2000/svg">
<path d="M224.332 221.011C218.957 223.645 215.132 228.006 211.613 232.64C204.409 242.124 200.183 252.981 197.232 264.401C196.975 265.388 196.894 266.461 196.047 267.534C194.979 265.066 194.877 262.647 194.706 260.325C193.3 241.341 195.569 222.862 203.004 205.235C207.875 193.686 216.248 184.75 225.598 176.72C238.418 165.707 252.917 157.259 267.974 149.727C268.51 149.459 269.02 149.014 269.707 149.266C269.76 149.427 269.905 149.642 269.846 149.738C263.822 159.823 262.229 171.179 260.48 182.475C258.651 194.303 257.106 206.19 251.844 217.165C248.084 225.013 242.752 231.627 236.283 237.42C221.237 250.9 208.239 265.952 200.499 284.94C199.925 286.346 199.437 287.783 198.954 289.226C198.504 290.557 198.117 291.908 197.517 293.201C198.573 279.904 200.944 266.879 205.214 254.226C209.377 241.883 215.181 230.532 224.675 221.36C224.949 221.188 225.437 221 225.136 220.657C224.879 220.351 224.562 220.77 224.332 221.011Z" fill="#E2F2D9"/>
<path d="M201.851 307.748C203.959 293.737 207.531 280.294 217.353 269.421C226.107 259.728 237.329 256.778 249.897 257.883C256.194 258.441 262.363 259.82 269.363 261.971C260.4 264.792 258.769 272.613 255.336 278.996C251.769 285.621 247.966 292.058 242.966 297.728C235.607 306.064 226.783 311.642 215.449 312.704C213.003 312.935 210.642 312.463 208.239 312.436C206.458 312.415 206.099 311.476 206.705 309.963C211.876 297.1 219.954 286.978 233.236 281.743C234.067 281.415 234.904 281.12 235.741 280.799C235.811 280.772 235.859 280.681 235.913 280.622C232.909 280.064 227.083 281.77 221.778 284.827C217.246 287.439 213.351 290.797 210.063 294.89C206.861 298.865 204.404 303.29 201.851 307.748Z" fill="#E2F2D9"/>
<path d="M184.842 235.852C185.796 250.786 190.823 264.652 191.74 279.205C192.319 288.42 192.614 297.582 190.216 306.61C189.079 310.891 187.298 314.844 184.225 318.137C182.846 319.618 182.047 319.779 181.521 317.494C180.54 313.219 179.928 308.89 179.558 304.529C178.651 293.795 179.365 283.131 181.001 272.505C181.081 271.99 181.06 271.459 180.829 270.89C178.33 275.836 177.809 281.243 177.176 286.629C176.527 292.148 176.774 297.69 176.758 303.22C176.736 308.729 177.434 314.2 177.793 320.24C175.32 317.987 174.028 315.579 173.008 313.068C167.939 300.592 166.727 287.648 168.873 274.425C171.067 260.902 176.559 248.646 183.785 237.102C184.005 236.764 184.316 236.474 184.842 235.852Z" fill="#E2F2D9"/>
<path d="M57.2495 297.897C58.5564 294.485 57.7899 290.947 57.6579 287.51C57.4254 281.598 57.5134 275.691 57.4443 269.779C57.4317 268.422 57.4506 267.071 56.5898 265.908L56.5458 265.946C57.6831 265.569 57.7082 264.639 57.7396 263.665C57.9658 257.495 58.1983 251.331 58.4811 245.161C58.5439 243.816 58.1669 242.779 57.2181 241.786C41.7548 225.676 31.9842 206.217 24.4128 185.526C18.5065 169.384 15.1952 152.727 15.214 135.473C15.214 134.844 15.2957 134.222 15.6853 133.5C16.2256 135.447 16.7409 137.402 17.3127 139.343C21.7864 154.417 28.0823 168.812 33.6367 183.49C38.3367 195.906 41.5914 208.868 47.7805 220.712C50.784 226.461 53.712 232.248 56.728 237.998C57.1301 238.771 57.3123 239.82 58.701 240.159C59.2225 235.365 59.3984 230.564 60.3284 225.921C61.4091 220.511 59.989 216.207 57.0547 211.608C45.1038 192.883 34.2085 173.556 26.901 152.456C24.1929 144.64 21.9498 136.685 22.6912 128.19C22.9488 128.278 23.219 128.31 23.2315 128.385C25.9459 141.341 32.0219 152.852 39.4865 163.49C49.942 178.4 56.9542 194.624 60.7493 212.343C60.8373 212.739 61.0069 213.116 61.164 213.568C62.251 213.172 62.0562 212.23 62.1819 211.513C62.9171 207.505 63.3255 203.408 64.3937 199.487C65.3487 195.968 64.5068 193.241 62.4521 190.458C56.439 182.283 50.0677 174.36 44.8588 165.614C37.8529 153.839 32.2733 141.492 29.8982 127.901C29.0814 123.207 28.5472 118.426 30.5705 113.456C31.8586 114.794 31.5067 116.264 31.758 117.483C33.7184 126.877 38.4121 135.045 43.1686 143.188C50.0803 155.02 57.5385 166.569 61.9934 179.663C63.3255 183.578 64.4188 187.58 65.7697 192.035C67.3468 186.33 68.8171 181.115 70.2246 175.881C70.6896 174.153 69.4832 172.883 68.6852 171.589C63.3067 162.855 57.771 154.222 52.4804 145.432C46.8066 136 41.4218 126.431 39.8698 115.24C38.6257 106.249 38.8708 97.3264 40.4165 88.3601C40.7244 88.4983 41.026 88.5423 41.0448 88.6491C44.5446 104.929 52.0721 119.525 60.2467 133.795C66.2535 144.282 68.6852 155.787 70.8906 167.423C71.0414 168.209 70.8341 169.126 71.9902 170.106C73.2218 166.927 74.0763 163.735 75.6346 160.933C77.6892 157.251 77.042 154.165 75.157 150.684C69.0936 139.456 62.7286 128.391 57.4506 116.742C49.8289 99.8712 49.2634 82.7994 55.2577 65.3945C55.4839 64.7285 55.7729 64.0876 56.307 63.453C56.4327 68.9509 56.5018 74.4048 57.5637 79.7959C60.033 92.2998 64.3937 104.156 69.7031 115.686C74.491 126.079 76.9917 137.025 78.0096 148.36C78.1102 149.503 78.2421 150.647 78.3992 151.79C78.4369 152.061 78.6443 152.312 78.9019 152.827C81.3273 148.341 83.6835 144.062 85.9518 139.739C86.8943 137.948 85.9832 136.208 85.3486 134.605C82.3829 127.116 79.3166 119.664 76.2692 112.212C70.7336 98.6585 66.4797 84.8037 66.7436 69.9562C66.8442 64.2259 67.2463 58.5017 68.8109 52.8844C71.2677 69.353 77.7772 84.5713 82.9672 100.179C86.3413 110.333 87.8116 120.713 87.4723 131.382C87.4346 132.639 87.4849 133.895 87.5289 135.146C87.5352 135.315 87.7111 135.479 88.0001 135.956C89.8663 133.072 91.6382 130.32 93.4164 127.574C94.1452 128.064 94.8741 128.561 95.5967 129.051C92.7315 132.922 90.6454 137.244 87.8682 142.208C91.8015 140.901 94.9621 139.739 98.3299 139.462C106.856 138.771 114.974 140.041 122.609 144.056C128.49 147.147 135.012 146.55 141.327 147.072C142.734 147.191 144.161 147.09 145.606 147.486C139.146 151.771 132.31 153.613 124.714 151.131C121.22 149.993 117.877 148.492 114.66 146.764C106.938 142.617 98.6818 142.24 90.237 143C88.5405 143.151 87.1016 143.534 86.1968 145.369C81.3335 155.202 77.1488 165.306 73.8564 175.774C73.7684 176.05 73.8124 176.371 73.7621 177.219C77.8274 175.032 81.7859 173.355 86.002 172.331C95.8103 169.949 105.826 169.239 115.848 168.843C123.218 168.548 130.413 167.668 137.362 165.142C137.463 165.249 137.569 165.362 137.676 165.463C134.063 170.119 128.993 172.676 123.671 174.618C112.53 178.683 101.101 180.731 89.1751 178.859C84.1422 178.067 79.1595 179.041 74.2334 180.078C73.3097 180.273 72.3609 180.537 72.0656 181.63C70.7775 186.437 69.5083 191.243 68.5218 196.245C80.2591 186.104 94.3275 186.424 108.258 186.757C117.89 186.99 127.321 186.996 136.269 180.832C135.766 183.22 134.629 184.288 133.611 185.362C124.437 195.101 113.291 198.947 100.052 196.597C96.1371 195.906 92.1786 195.478 88.2703 194.743C80.7806 193.323 74.5287 196.188 68.5469 200.147C67.8243 200.624 67.284 201.234 67.0892 202.107C66.0964 206.581 65.2105 211.074 64.7392 215.654C65.1539 215.692 65.4367 215.805 65.5309 215.717C73.7495 208.277 83.9474 206.022 94.472 205.136C105.311 204.225 116.206 203.986 126.768 200.97C127.02 200.901 127.328 201.033 127.642 201.071C127.573 202.246 126.68 202.761 126.002 203.326C117.324 210.602 107.566 215.591 96.2502 217.175C94.7107 217.388 93.1022 217.439 91.5628 217.25C82.9735 216.226 74.6732 217.659 66.4546 219.971C65.2231 220.316 63.9161 220.612 63.7339 222.17C63.1244 227.448 62.2259 232.701 62.1694 238.752C68.9679 232.544 76.9477 230.546 85.0784 229.157C90.6391 228.208 96.2816 227.341 101.899 227.259C109.671 227.14 116.03 223.929 122.1 219.65C123.25 218.84 124.387 218.01 125.907 216.917C121.729 229.346 107.874 239.474 94.8552 240.159C88.3457 240.498 81.8927 239.801 75.4209 239.38C71.5127 239.122 67.6736 239.393 64.0104 240.913C62.9673 241.347 61.7358 241.724 61.6918 243.163C61.4845 249.484 60.5734 255.798 61.2332 262.842C66.662 257.338 72.8385 254.253 79.6496 252.336C85.5057 250.684 91.4811 249.546 97.5194 248.987C107.057 248.095 115.672 245.054 123.162 239.009C123.558 238.689 124.01 238.444 124.494 238.123C125.053 239.192 124.312 239.82 123.947 240.473C119.473 248.635 113.24 255.082 105.342 260.04C97.9341 264.689 89.5898 264.589 81.3775 265.154C75.4272 265.563 69.4643 265.676 63.5014 265.908C62.2133 265.958 60.9064 265.877 60.919 267.768C60.963 275.258 60.9127 282.754 61.8049 290.715C63.6836 288.327 65.1476 286.21 66.8693 284.325C73.7809 276.772 82.942 273.668 92.587 271.582C93.3033 271.425 94.0196 271.193 94.7421 271.161C107.554 270.64 116.099 263.125 123.488 253.687C124.129 252.87 124.883 252.141 125.587 251.369C125.706 251.469 125.82 251.576 125.939 251.676C122.106 262.088 116.834 271.657 109.219 279.807C104.714 284.626 98.9206 287.228 92.7378 289.119C83.5767 291.909 74.1454 293.178 64.6513 293.988C62.427 294.177 61.8803 294.862 62.0437 297.03C62.7411 306.53 63.8407 315.98 65.1037 325.418C65.2482 326.486 65.933 327.887 64.5759 328.528C63.093 329.225 62.0186 328.101 61.1012 327.07C59.989 325.82 59.8571 324.243 59.7377 322.659C59.2225 315.773 58.6695 308.892 58.1857 302.006C58.0852 300.617 57.8276 299.323 57.0484 298.154C57.105 298.06 57.1804 297.978 57.2495 297.897Z" fill="#E2F2D9"/>
<path d="M181.691 1.56399C178.995 9.54383 178.75 17.9949 176.991 26.1444C175.42 33.4268 172.454 40.2191 168.552 46.9988C171.003 46.7035 171.814 45.1201 172.762 43.7063C182.753 28.8776 195.401 16.6189 209.532 5.79896C210.016 5.42825 210.582 5.15178 211.122 4.81876C211.279 5.09523 211.493 5.31515 211.449 5.40311C207.936 12.2896 204.462 19.2013 200.855 26.0439C195.1 36.9706 185.147 42.5062 174.113 46.5464C171.399 47.5391 169.288 49.2042 167.384 51.3908C180.774 47.3444 194.188 43.6183 208.194 40.5144C207.83 43.2602 206.34 44.9944 204.82 46.6092C198.681 53.125 190.839 55.8834 182.137 56.7317C175.244 57.3977 168.351 57.5296 161.452 56.9893C160.491 56.9139 159.555 56.8448 158.763 57.5045C155.822 59.9676 152.894 62.4432 150.117 65.189C156.086 63.8507 161.924 62.3364 167.912 61.5196C174.031 60.6839 180.151 59.8356 186.341 59.9801C191.6 60.1058 196.746 59.6911 202.263 57.0458C200.233 62.0411 197.217 64.988 193.227 67.0112C188.37 69.4743 183.13 69.8827 177.902 69.047C167.673 67.407 157.456 68.0039 147.221 68.6825C145.97 68.7642 145.078 69.3297 144.211 70.1466C142.382 71.8619 140.504 73.527 138.65 75.2109C137.99 74.5637 137.331 73.9228 136.677 73.2819C138.65 70.6806 141.226 68.6763 143.608 66.4897C144.6 65.5786 145.166 64.724 144.921 63.2475C142.571 48.9403 144.569 35.1547 149.784 21.7021C152.153 15.5884 154.245 9.35532 155.628 2.90234C156.237 22.7388 154.886 42.324 148.276 61.2808C148.49 61.4504 148.703 61.6264 148.917 61.796C152.103 59.2576 155.326 56.7693 158.443 54.1555C159.184 53.5334 158.851 52.3647 158.864 51.4411C158.914 45.4782 159.209 39.5279 159.599 33.5776C160.397 21.3628 165.31 10.6371 171.474 0.288479C169.181 8.68301 166.806 17.0021 166.278 25.7674C165.756 34.4007 164.01 42.902 161.339 51.3406C165.518 50.4546 166.724 49.0471 167.126 45.3965C168.49 33.2131 170.054 21.0675 175.847 9.98366C177.437 6.93625 178.958 3.81343 181.572 1.44461L181.691 1.56399Z" fill="#E2F2D9"/>
<path d="M136.677 73.2678C137.337 73.9087 137.99 74.5559 138.65 75.1968C138.355 75.4607 138.066 75.7183 137.771 75.9822C137.532 76.1581 137.293 76.3341 137.061 76.51C137.149 76.5917 137.243 76.6797 137.331 76.7613C137.494 76.5163 137.657 76.2712 137.821 76.0325C138.92 76.4095 139.844 75.8503 140.805 75.4733C150.35 71.7535 160.051 71.4959 169.878 74.1475C170.01 74.204 170.142 74.2606 170.281 74.3171C172.769 74.9643 175.257 75.5989 177.739 76.2712C181.333 77.2389 184.908 76.4974 188.49 76.177C188.697 76.8053 188.911 77.4337 189.118 78.0557C181.911 83.4657 173.711 84.0123 165.185 82.9253C164.889 82.7871 164.594 82.6488 164.299 82.5106C161.107 82.5294 158.191 81.3419 155.207 80.4497C155.075 79.991 154.817 79.6642 154.315 79.5888C152.781 80.2297 151.449 79.3626 150.042 79.0359C149.816 78.9417 149.589 78.8474 149.363 78.7469C146.065 78.4641 142.772 78.4955 139.473 78.7406C136.25 78.9794 133.41 79.9784 131.374 82.6865C129.59 85.0616 126.844 86.6136 125.581 89.4411C125.386 89.6045 125.185 89.7678 124.99 89.9249C125.053 89.9752 125.11 90.0254 125.172 90.0757C125.33 89.8746 125.493 89.6673 125.65 89.4662C129.238 88.5803 132.593 86.6576 136.464 87.0346C136.671 87.0911 136.841 87.0346 136.985 86.8775C141.98 85.4512 147.095 85.6397 152.197 85.7842C154.698 85.8533 157.192 86.2303 159.693 86.4691C159.976 86.5948 160.259 86.7141 160.535 86.8398C161.98 86.6639 163.388 86.8524 164.789 87.1917C165.172 87.2922 165.555 87.3865 165.939 87.487C166.341 87.5247 166.743 87.5561 167.151 87.5938C167.491 88.3352 167.893 88.53 168.402 87.7258C170.896 87.6504 173.391 87.5687 175.885 87.4933C176.049 87.4367 176.212 87.3739 176.375 87.3048C177.701 86.9969 179.021 86.6953 180.346 86.3874C180.384 86.6576 180.416 86.9215 180.453 87.1917C178.87 88.3792 177.167 89.3469 175.295 90.0003C174.892 90.1951 174.49 90.3962 174.088 90.591C162.973 96.9434 151.06 97.5529 138.801 95.3663C134.315 94.5683 129.872 93.5378 125.411 92.6079L125.116 92.5074C124.883 92.4697 124.645 92.4382 124.412 92.4005C124.217 92.2246 124.029 92.055 123.834 91.879C123.796 90.2516 122.37 90.0506 121.346 89.4348C124.274 87.3236 122.615 84.4835 122.552 81.8948C122.489 81.7189 122.42 81.5492 122.339 81.3859C121.271 76.3592 120.259 71.32 120.039 66.1676C120.001 66.0357 119.964 65.8975 119.932 65.7655C119.228 62.5484 119.228 59.2685 119.009 56.0075C119.09 55.8378 119.078 55.6682 118.977 55.5048C118.286 43.8995 118.632 32.3445 120.85 20.8962C121.478 20.626 121.691 20.2239 121.245 19.6207C121.189 18.3075 121.572 17.0885 122.018 15.8758C122.358 15.8758 122.691 15.8758 123.03 15.8758C123.727 20.6135 124.425 25.3511 125.129 30.095C125.267 30.5726 125.405 31.0438 125.543 31.5213C126.128 35.0651 127.02 38.5587 127.089 42.1779C126.593 42.7811 126.756 43.2083 127.434 43.5037C128.741 52.5328 129.389 61.5745 127.906 70.6539C127.811 70.9116 127.717 71.1692 127.623 71.4331C127.548 75.7748 126.366 79.903 125.273 84.05L125.342 84.1442C128.327 81.3042 131.795 78.8914 133.51 74.9203C134.076 74.6627 134.648 74.4114 135.213 74.1538C135.691 73.8836 136.181 73.5757 136.677 73.2678Z" fill="#E2F2D9"/>
<path d="M0.0148185 185.547C3.01197 190.788 5.81436 196.147 9.03771 201.243C21.3405 220.684 32.8201 240.552 41.1078 262.097C42.7164 266.282 44.35 270.473 45.6695 274.758C48.252 283.134 52.5183 290.623 57.2434 297.899C57.1743 297.981 57.0989 298.063 57.0298 298.145C49.9673 292.458 44.4631 285.371 39.072 278.189C26.1723 261.004 18.1423 241.4 10.9164 221.406C7.08359 210.794 3.39526 200.137 0.574045 189.204C0.259878 187.991 -0.154829 186.798 0.0588058 185.51L0.0148185 185.547Z" fill="#E2F2D9"/>
<path d="M55.6219 264.949C48.7919 258.521 43.3003 251.019 38.3365 243.133C24.953 221.89 15.4023 199.018 9.84785 174.526C8.72942 169.6 7.90631 164.56 9.15041 159.446C14.0577 180.683 25.7321 199.125 33.4732 219.15C39.3481 234.356 46.9195 248.613 55.1004 262.618C55.4648 263.246 55.7287 263.931 56.0366 264.585C55.8984 264.698 55.7538 264.824 55.6219 264.949Z" fill="#E2F2D9"/>
<path d="M95.5966 129.051C94.8678 128.561 94.1389 128.064 93.4163 127.574C94.34 125.941 95.2636 124.313 96.1873 122.679C96.3758 122.315 96.558 121.951 96.7465 121.58C96.9601 121.53 97.1675 121.479 97.3811 121.429C97.5884 121.121 97.8021 120.813 98.0094 120.505C99.3038 117.59 101.503 115.278 103.25 112.664C104.035 113.035 104.28 113.719 104.33 114.517C104.242 114.951 103.752 115.416 104.393 115.774C104.45 115.806 104.751 115.403 104.94 115.209C105.166 114.976 105.386 114.744 105.612 114.511L105.568 114.561C119.919 107.342 133.542 111.583 146.875 117.521C152.926 120.216 158.914 120.732 165.222 119.356C166.837 119.004 168.439 118.633 170.13 118.25C170.142 119.594 169.149 119.739 168.527 120.141C157.092 127.505 145.002 129.421 131.996 124.74C126.096 122.617 120.353 120.034 114.189 118.671C110.582 117.873 106.988 118.03 103.369 118.319C102.571 118.382 101.98 118.809 101.578 119.444C99.7373 122.346 97.4313 124.967 96.2689 128.272C96.0302 128.529 95.7851 128.793 95.5464 129.051L95.5966 129.051Z" fill="#E2F2D9"/>
<path d="M104.331 114.519C104.281 113.721 104.036 113.036 103.25 112.665C103.822 111.39 105.016 110.403 105.041 108.87C105.28 108.851 105.518 108.826 105.763 108.807C108.371 105.301 110.972 101.789 113.58 98.2828C114.057 97.8681 114.535 97.4471 115.013 97.0324C116.885 94.318 119.002 91.8047 121.334 89.4673C122.358 90.0831 123.79 90.2904 123.822 91.9115C123.809 92.0435 123.803 92.1817 123.797 92.3136C120.001 93.652 118.82 97.6733 115.653 99.684C116.659 100.884 117.457 100.155 118.135 99.9353C127.24 97.001 136.458 96.4418 145.594 99.351C154.007 102.028 162.521 102.857 171.154 101.896C171.468 102.65 171.104 102.901 170.746 103.071C163.463 106.583 156.043 109.894 147.849 110.209C137.645 110.604 127.749 108.688 118.318 104.686C115.936 103.674 112.443 104.221 111.016 106.382C109.207 109.115 106.36 111.157 105.569 114.557L105.613 114.506C105.349 114.5 105.079 114.5 104.815 114.494C104.651 114.5 104.494 114.513 104.331 114.519Z" fill="#E2F2D9"/>
<path d="M96.7468 121.58C96.5583 121.945 96.3761 122.309 96.1876 122.68C93.5361 111.445 88.434 101.071 84.8022 90.1823C79.8635 75.3788 78.6194 60.0286 77.6204 44.2448C87.5543 65.1809 95.7289 86.1798 96.1939 109.372C96.2756 113.443 96.5583 117.509 96.7468 121.58Z" fill="#E2F2D9"/>
<path d="M105.763 108.808C105.524 108.827 105.285 108.852 105.04 108.871C102.119 94.2121 97.0292 80.1814 92.6685 65.9434C91.2045 61.168 89.64 56.4116 89.219 51.3912C89.087 51.1021 88.9614 50.8194 88.8294 50.5304C88.6095 49.3742 88.2514 48.2307 88.597 47.0368C88.4336 46.7227 88.2702 46.4085 88.1005 46.0943C87.5036 43.1914 87.1643 40.2571 87.2523 37.2851C87.5036 37.2725 87.755 37.2662 88.0126 37.2537C94.0572 46.9112 99.9509 56.644 102.954 67.7907C103.25 68.8965 103.457 70.0213 103.708 71.1397C103.784 71.3156 103.872 71.4916 103.966 71.6612C106.925 82.877 107.359 94.2372 105.989 105.704C105.87 106.735 105.838 107.772 105.763 108.808Z" fill="#E2F2D9"/>
<path d="M133.435 66.7894C132.75 57.3204 131.795 47.864 131.443 38.3824C131.091 28.9197 134.824 20.5817 139.53 12.3003C140.567 13.7141 140.554 14.8513 140.535 15.9886C140.466 16.1708 140.491 16.3405 140.604 16.4976C141.748 26.2367 142.458 36.0073 142.131 45.8219C141.936 51.7785 140.799 57.49 138.65 63.1388C137.419 66.381 136.847 69.9248 135.263 73.1041C134.755 73.1418 134.246 73.1732 133.73 73.2109C133.636 71.6967 133.542 70.1761 133.448 68.6618C134.484 68.0272 134.459 67.4051 133.435 66.7894Z" fill="#E2F2D9"/>
<path d="M115.012 97.0328C114.535 97.4475 114.057 97.8685 113.58 98.2832C112.662 97.6423 112.254 96.6872 112.022 95.6505C108.333 79.3138 105.606 62.8452 105.688 46.0436C105.719 39.9487 106.919 33.8916 106.448 27.7214C109.646 34.6142 111.588 41.8275 112.983 49.1852C115.798 64.0642 116.401 79.0374 114.579 94.0922C114.453 95.0913 114.038 96.1783 115.012 97.0328Z" fill="#E2F2D9"/>
<path d="M138.48 158.529C135.251 160.615 131.638 161.162 128.063 161.52C117.959 162.538 108 161.545 98.2734 158.636C93.3221 157.153 88.3897 155.915 83.1494 157.185C83.0489 155.953 83.9914 156.029 84.538 155.771C94.4406 151.033 104.733 150.103 115.439 152.409C122.188 153.867 128.942 155.281 135.584 157.172C136.539 157.455 137.639 157.449 138.48 158.529Z" fill="#E2F2D9"/>
<path d="M99.5801 128.365C98.5245 126.794 100.196 127.058 100.755 126.806C101.748 126.36 102.866 126.228 103.985 126.429C104.286 126.297 104.588 126.165 104.889 126.033C108.081 125.6 111.273 125.631 114.459 126.033C114.761 126.165 115.056 126.297 115.357 126.429C116.809 126.172 118.21 126.436 119.599 126.857C119.756 126.938 119.926 127.007 120.095 127.07C126.152 127.875 131.826 130.005 137.098 132.901C142.414 135.817 147.905 137.576 153.906 137.903C153.717 138.261 153.529 138.613 153.34 138.971C148.1 141.227 142.665 142.087 136.991 141.227C136.809 140.787 136.507 140.535 136.005 140.592C134.742 141.214 133.56 140.655 132.373 140.328C127.459 138.965 123.099 136.363 118.832 133.731C113.14 130.218 107.082 128.572 100.46 128.723C100.164 128.603 99.8691 128.484 99.5801 128.365Z" fill="#E2F2D9"/>
<path d="M189.118 78.0625C188.911 77.4342 188.697 76.8058 188.49 76.1838C189.878 75.4926 191.349 75.0779 192.901 74.9711L192.857 74.9208C192.121 76.5734 190.595 77.2896 189.118 78.0625Z" fill="#E2F2D9"/>
<path d="M123.017 15.9141C122.678 15.9141 122.345 15.9141 122.006 15.9141C121.943 15.0595 122.188 14.3244 123.017 13.3567C123.017 14.4877 123.017 15.1978 123.017 15.9141Z" fill="#E2F2D9"/>
<path d="M133.737 73.2122C134.246 73.1745 134.755 73.1431 135.27 73.1054C135.245 73.4698 135.22 73.828 135.195 74.1924C134.623 74.45 134.057 74.7014 133.492 74.959C133.574 74.3746 133.655 73.7903 133.737 73.2122Z" fill="#E2F2D9"/>
<path d="M133.435 66.7897C134.459 67.3992 134.484 68.0275 133.454 68.6621C133.448 68.0401 133.441 67.4117 133.435 66.7897Z" fill="#E2F2D9"/>
<path d="M88.0125 37.2518C87.7611 37.2644 87.5098 37.2706 87.2522 37.2832C87.0637 36.9313 86.8437 36.3847 87.2647 36.2779C87.9559 36.1019 87.9119 36.8057 88.0125 37.2518Z" fill="#E2F2D9"/>
<path d="M154.315 79.5923C154.817 79.6677 155.075 79.9944 155.207 80.4531C154.679 80.3966 154.34 80.1578 154.315 79.5923Z" fill="#E2F2D9"/>
<path d="M168.396 87.7358C167.887 88.5401 167.491 88.3453 167.145 87.6038C167.56 87.6478 167.981 87.6918 168.396 87.7358Z" fill="#E2F2D9"/>
<path d="M127.416 43.541C126.737 43.2457 126.58 42.8121 127.07 42.2152C127.19 42.6551 127.303 43.1012 127.416 43.541Z" fill="#E2F2D9"/>
<path d="M121.233 19.6542C121.672 20.2574 121.465 20.6595 120.837 20.9297C120.969 20.5024 121.101 20.0752 121.233 19.6542Z" fill="#E2F2D9"/>
<path d="M135.998 140.586C136.501 140.529 136.803 140.781 136.985 141.22C136.501 141.246 136.155 141.063 135.998 140.586Z" fill="#E2F2D9"/>
<path d="M153.334 138.969C153.523 138.611 153.711 138.259 153.9 137.901C154.553 138.705 154.007 138.868 153.334 138.969Z" fill="#E2F2D9"/>
<path d="M125.581 251.362C125.75 251.218 125.914 251.073 126.083 250.928C126.033 251.174 125.983 251.419 125.933 251.67C125.813 251.563 125.7 251.463 125.581 251.362Z" fill="#E2F2D9"/>
<path d="M95.5464 129.051C95.7852 128.793 96.0302 128.529 96.269 128.272L96.5266 128.228L96.7842 128.234C96.7842 128.46 96.7905 128.68 96.7905 128.906C96.3758 128.957 95.9611 129.001 95.5464 129.051Z" fill="#E2F2D9"/>
<path d="M125.531 31.5527C125.392 31.0752 125.254 30.604 125.116 30.1264C125.254 30.604 125.392 31.0815 125.531 31.5527Z" fill="#E2F2D9"/>
<path d="M56.0367 264.583C56.4765 264.941 56.6399 265.4 56.5456 265.953L56.5896 265.915C56.2691 265.595 55.9424 265.268 55.6219 264.948C55.7539 264.822 55.8984 264.696 56.0367 264.583Z" fill="#E2F2D9"/>
<path d="M174.076 90.6094C174.478 90.4146 174.88 90.2135 175.282 90.0187C174.88 90.2135 174.478 90.4146 174.076 90.6094Z" fill="#E2F2D9"/>
<path d="M165.932 87.498C165.549 87.3975 165.166 87.3033 164.783 87.2027C165.172 87.3033 165.555 87.3975 165.932 87.498Z" fill="#E2F2D9"/>
<path d="M180.44 87.2012C180.403 86.931 180.371 86.6671 180.334 86.3969C180.591 86.4723 180.849 86.554 181.106 86.6294C180.887 86.8242 180.667 87.0127 180.44 87.2012Z" fill="#E2F2D9"/>
<path d="M192.901 74.9707C193.02 74.889 193.146 74.8011 193.265 74.7194C193.221 74.7822 193.196 74.8765 193.133 74.9079C193.052 74.9393 192.951 74.9204 192.857 74.9204L192.901 74.9707Z" fill="#E2F2D9"/>
<path d="M103.966 71.6602C103.872 71.4905 103.784 71.3209 103.709 71.1386C103.878 71.2706 103.96 71.4465 103.966 71.6602Z" fill="#E2F2D9"/>
<path d="M127.604 71.4727C127.698 71.215 127.792 70.9574 127.887 70.6935C127.792 70.9511 127.698 71.2088 127.604 71.4727Z" fill="#E2F2D9"/>
<path d="M149.363 78.75C149.59 78.8443 149.816 78.9385 150.042 79.0391C149.816 78.9385 149.59 78.8443 149.363 78.75Z" fill="#E2F2D9"/>
<path d="M119.913 65.7912C119.945 65.9232 119.982 66.0614 120.02 66.1934C119.894 66.0803 119.857 65.9483 119.913 65.7912Z" fill="#E2F2D9"/>
<path d="M122.32 81.4129C122.401 81.5763 122.471 81.7459 122.533 81.9219C122.383 81.7899 122.307 81.6203 122.32 81.4129Z" fill="#E2F2D9"/>
<path d="M164.299 82.5189C164.594 82.6571 164.889 82.7954 165.185 82.9336C164.889 82.7954 164.594 82.6571 164.299 82.5189Z" fill="#E2F2D9"/>
<path d="M160.535 86.8555C160.252 86.7298 159.969 86.6104 159.693 86.4848C159.976 86.6041 160.252 86.7298 160.535 86.8555Z" fill="#E2F2D9"/>
<path d="M118.964 55.5344C119.065 55.6978 119.071 55.8612 118.996 56.0371C118.927 55.8675 118.92 55.7041 118.964 55.5344Z" fill="#E2F2D9"/>
<path d="M136.985 86.885C136.84 87.0484 136.671 87.0987 136.463 87.0421C136.633 86.9667 136.803 86.9164 136.985 86.885Z" fill="#E2F2D9"/>
<path d="M176.363 87.3174C176.199 87.3865 176.036 87.4493 175.872 87.5059C176.004 87.3488 176.168 87.2859 176.363 87.3174Z" fill="#E2F2D9"/>
<path d="M88.8297 50.5279C88.9616 50.8106 89.0873 51.0996 89.2192 51.3887C89.0873 51.0996 88.9616 50.8106 88.8297 50.5279Z" fill="#E2F2D9"/>
<path d="M123.796 92.3154C123.802 92.1834 123.809 92.0452 123.821 91.9133C124.016 92.0892 124.204 92.2588 124.399 92.4348C124.186 92.4536 123.984 92.4159 123.796 92.3154Z" fill="#E2F2D9"/>
<path d="M125.103 92.5327L125.398 92.6332C125.273 92.6835 125.172 92.6521 125.103 92.5327Z" fill="#E2F2D9"/>
<path d="M88.1071 46.0927C88.2705 46.4068 88.4339 46.721 88.6035 47.0352C88.4339 46.721 88.2705 46.4068 88.1071 46.0927Z" fill="#E2F2D9"/>
<path d="M98.0095 120.506C97.8022 120.814 97.5885 121.122 97.3812 121.43C97.5885 121.122 97.8022 120.814 98.0095 120.506Z" fill="#E2F2D9"/>
<path d="M104.883 126.034C104.582 126.166 104.28 126.298 103.978 126.43C104.28 126.298 104.582 126.166 104.883 126.034Z" fill="#E2F2D9"/>
<path d="M115.352 126.438C115.05 126.306 114.755 126.174 114.453 126.042C114.755 126.167 115.056 126.299 115.352 126.438Z" fill="#E2F2D9"/>
<path d="M120.09 127.072C119.92 127.009 119.757 126.94 119.593 126.859C119.794 126.846 119.958 126.915 120.09 127.072Z" fill="#E2F2D9"/>
<path d="M96.7905 128.906C96.7905 128.68 96.7842 128.46 96.7842 128.234C97.5131 128.448 97.3686 128.674 96.7905 128.906Z" fill="#E2F2D9"/>
<path d="M140.604 16.4902C140.491 16.3332 140.466 16.1635 140.535 15.9813C140.611 16.1446 140.63 16.3143 140.604 16.4902Z" fill="#E2F2D9"/>
<path d="M99.5805 128.367C99.8758 128.486 100.165 128.599 100.46 128.719C100.165 128.606 99.8696 128.486 99.5805 128.367Z" fill="#E2F2D9"/>
<path d="M181.571 1.43703C181.684 1.35535 181.791 1.27367 181.904 1.19198C181.835 1.31137 181.76 1.43703 181.691 1.55641C181.691 1.5627 181.571 1.43703 181.571 1.43703Z" fill="#E2F2D9"/>
<path d="M137.362 165.131C137.525 165.099 137.695 165.074 137.858 165.043C137.796 165.181 137.739 165.313 137.676 165.451C137.569 165.344 137.463 165.238 137.362 165.131Z" fill="#E2F2D9"/>
<path d="M170.286 74.3242C170.148 74.2677 170.016 74.2111 169.884 74.1546C170.048 74.1294 170.186 74.186 170.286 74.3242Z" fill="#E2F2D9"/>
<path d="M198.555 127.712C198.272 127.674 197.99 127.637 197.707 127.599C197.757 127.486 197.814 127.373 197.864 127.26C198.09 127.41 198.323 127.561 198.555 127.712C198.549 127.718 198.555 127.712 198.555 127.712Z" fill="#E2F2D9"/>
<path d="M191.173 144.464C191.179 144.389 191.173 144.257 191.198 144.25C191.28 144.232 191.38 144.25 191.468 144.257C191.462 144.332 191.468 144.464 191.443 144.47C191.361 144.489 191.267 144.47 191.173 144.464Z" fill="#E2F2D9"/>
<path d="M137.821 76.0329C137.658 76.2779 137.494 76.523 137.331 76.7617C137.243 76.68 137.149 76.5921 137.061 76.5104C137.3 76.3345 137.532 76.1585 137.771 75.9826L137.821 76.0329Z" fill="#E2F2D9"/>
<path d="M125.656 89.4745C125.499 89.6756 125.336 89.8829 125.178 90.084C125.116 90.0337 125.059 89.9834 124.996 89.9332C125.191 89.7698 125.392 89.6064 125.587 89.4494C125.587 89.4431 125.656 89.4745 125.656 89.4745Z" fill="#E2F2D9"/>
<path d="M125.323 84.1836L125.254 84.0893C125.248 84.0893 125.323 84.1836 125.323 84.1836Z" fill="#E2F2D9"/>
<path d="M104.331 114.515C104.494 114.509 104.651 114.497 104.815 114.49C104.859 114.729 104.903 114.962 104.94 115.2C104.752 115.401 104.457 115.797 104.394 115.766C103.753 115.414 104.243 114.949 104.331 114.515Z" fill="#E2F2D9"/>
<path d="M104.94 115.203C104.896 114.964 104.852 114.732 104.815 114.493C105.078 114.499 105.349 114.499 105.613 114.506C105.386 114.738 105.166 114.971 104.94 115.203Z" fill="#E2F2D9"/>
</svg>
