<svg width="18" height="18" viewBox="0 0 18 18" fill="none" xmlns="http://www.w3.org/2000/svg">
<path fill-rule="evenodd" clip-rule="evenodd" d="M8.33203 0.0237161C7.19743 0.181603 6.28193 0.632504 5.47952 1.42862C5.05329 1.85152 4.79805 2.21883 4.65395 2.61686L4.55498 2.89024L4.54338 4.46563C4.53368 5.7822 4.54092 6.09404 4.58747 6.36394C4.69325 6.97727 4.93963 7.58215 5.30891 8.13528C5.5505 8.49714 6.12812 9.06994 6.49582 9.31236L6.78656 9.50406L6.77707 10.1693L6.76758 10.8346L5.08008 11.211C3.26078 11.6167 3.04893 11.6828 2.57664 11.9913C2.09616 12.3052 1.712 12.7228 1.44053 13.2264C1.2837 13.5174 0 17.3089 0 17.4812C0 17.7403 0.263988 18 0.527344 18C0.698555 18 0.904535 17.8755 0.979031 17.7269C1.01528 17.6546 1.32469 16.7543 1.66658 15.7263C2.29946 13.8234 2.37206 13.6459 2.66245 13.2912C2.82224 13.0961 3.15345 12.8485 3.42773 12.7193C3.63807 12.6201 4.48168 12.3998 4.5167 12.4348C4.52686 12.445 4.53516 12.9709 4.53516 13.6035V14.7538L4.30379 14.8678C3.85126 15.0907 3.49066 15.5879 3.41188 16.0975C3.23863 17.2185 4.27648 18.1977 5.38597 17.9601C6.05341 17.8172 6.58354 17.2436 6.68218 16.5576C6.77872 15.8861 6.40199 15.1648 5.80736 14.8826L5.59336 14.781L5.59181 13.4794L5.59023 12.1777L6.31125 12.0164C6.81803 11.903 7.04155 11.8665 7.06349 11.8933C7.08064 11.9143 7.42191 12.4776 7.82181 13.1452C8.22175 13.8127 8.59036 14.4027 8.64095 14.4562C8.81641 14.6417 9.15349 14.6514 9.34052 14.4762C9.38872 14.431 9.76936 13.8241 10.1863 13.1276C10.6033 12.431 10.946 11.8588 10.9479 11.8559C10.9497 11.8531 11.2794 11.9236 11.6807 12.0126L12.4102 12.1744V12.9015V13.6285L12.2524 13.6727C11.7784 13.8056 11.2164 14.2879 10.9715 14.7721C10.75 15.2101 10.7173 15.4652 10.7299 16.6589C10.7397 17.5895 10.7442 17.6485 10.8127 17.7403C10.9742 17.9565 11.0431 17.9816 11.5073 17.9926C11.8636 18.0012 11.9561 17.9923 12.0579 17.9399C12.5025 17.711 12.4006 17.0353 11.9096 16.9568L11.7712 16.9346L11.7834 16.2272C11.7952 15.5344 11.7976 15.5153 11.8966 15.3001C12.0078 15.0584 12.2092 14.8493 12.4506 14.7247C12.6785 14.6071 13.1012 14.5914 13.3645 14.6908C13.641 14.7952 13.86 14.9995 13.9997 15.2834L14.1152 15.5182L14.1275 16.2264L14.1399 16.9345L14.001 16.9567C13.5096 17.0353 13.4074 17.7108 13.8523 17.9399C13.9541 17.9923 14.0465 18.0012 14.4028 17.9926C14.8671 17.9816 14.9362 17.9564 15.0974 17.7401C15.167 17.6468 15.1699 17.5991 15.1698 16.5462C15.1697 15.6086 15.1607 15.4169 15.1079 15.2252C14.9167 14.5313 14.3664 13.9306 13.7016 13.6898L13.4824 13.6104L13.4727 13.0375C13.4674 12.7223 13.4753 12.4532 13.4903 12.4393C13.5319 12.4009 14.408 12.6301 14.6074 12.7316C14.8642 12.8623 15.192 13.1135 15.3375 13.2912C15.6286 13.6467 15.7001 13.822 16.3516 15.779C16.7035 16.8361 17.0151 17.7375 17.044 17.7822C17.112 17.887 17.3344 18 17.4727 18C17.736 18 18 17.7403 18 17.4812C18 17.352 16.7395 13.5742 16.6119 13.3211C16.2179 12.5393 15.5261 11.9249 14.7129 11.6345C14.5969 11.593 13.7663 11.3956 12.8672 11.1957L11.2324 10.8322L11.2243 10.1682L11.2161 9.50406L11.5055 9.31177C11.8699 9.06969 12.4469 8.49742 12.6867 8.14014C13.0549 7.59182 13.3073 6.97417 13.4125 6.36394C13.4591 6.09404 13.4663 5.7822 13.4566 4.46563L13.445 2.89024L13.3461 2.61686C13.202 2.21908 12.9467 1.85156 12.5205 1.42841C11.8122 0.725344 11.0204 0.296642 10.0468 0.0892211C9.67173 0.00929238 8.70188 -0.027752 8.33203 0.0237161ZM9.64768 1.09632C10.0831 1.162 10.5994 1.33673 10.9482 1.53642C11.5256 1.867 12.0868 2.40803 12.2969 2.83666C12.3879 3.02227 12.3927 3.05918 12.4041 3.66325L12.4161 4.29557L11.9767 3.86772C11.3862 3.29267 11.3676 3.28802 10.7361 3.55947C10.5748 3.62877 10.2882 3.72735 10.0993 3.77846C9.77801 3.8655 9.70713 3.87148 9 3.87148C8.29287 3.87148 8.22199 3.8655 7.90066 3.77846C7.71177 3.72735 7.42525 3.62877 7.26395 3.55947C6.63068 3.28728 6.60772 3.29298 6.02304 3.86663L5.58984 4.29163V3.722C5.58984 2.91529 5.67207 2.71244 6.21988 2.16811C7.10561 1.28794 8.34627 0.900047 9.64768 1.09632ZM7.20854 4.66735C7.84188 4.88494 8.13115 4.92765 8.98242 4.92923C9.84582 4.93085 10.0523 4.90172 10.7497 4.67995L11.1459 4.55397L11.4968 4.89103C11.7798 5.16286 11.9027 5.25377 12.1318 5.36082L12.4159 5.49355L12.3986 5.86294C12.3351 7.21177 11.3648 8.44434 10.0363 8.86358C8.82946 9.24443 7.52752 8.93816 6.62762 8.06169C5.99955 7.44998 5.63984 6.67919 5.60145 5.86294L5.58408 5.49355L5.86863 5.36061C6.09915 5.25289 6.21819 5.16462 6.49554 4.89571C6.68384 4.71316 6.85185 4.56322 6.86886 4.56255C6.88591 4.56185 7.03877 4.60903 7.20854 4.66735ZM8.1276 10.0026C8.31509 10.0454 8.55148 10.0613 9 10.0613C9.44852 10.0613 9.68491 10.0454 9.8724 10.0026C10.0139 9.97023 10.1365 9.94381 10.1449 9.94381C10.1533 9.94381 10.1602 10.2085 10.1602 10.5321V11.1203L9.58887 12.079C9.27468 12.6062 9.00967 13.0376 9 13.0376C8.99033 13.0376 8.72536 12.6062 8.41113 12.079L7.83984 11.1203V10.5321C7.83984 10.2085 7.84673 9.94381 7.85514 9.94381C7.86354 9.94381 7.98613 9.97023 8.1276 10.0026ZM5.30617 15.8C5.74984 16.0296 5.75012 16.6488 5.30666 16.8752C5.13777 16.9615 4.98171 16.9623 4.79605 16.8779C4.34848 16.6745 4.32854 16.0786 4.76054 15.815C4.8922 15.7347 5.1654 15.7272 5.30617 15.8Z" fill="black"/>
</svg>
