<svg width="18" height="18" viewBox="0 0 18 18" fill="none" xmlns="http://www.w3.org/2000/svg">
<path fill-rule="evenodd" clip-rule="evenodd" d="M8.05966 0.0416219C7.09456 0.143017 5.86206 0.496372 5.0633 0.900705C4.58176 1.14446 4.4706 1.63986 4.82243 1.9742C5.0635 2.20328 5.2492 2.2151 5.67198 2.02827C7.97067 1.01247 10.3031 1.03165 12.4266 2.08383C15.1679 3.44213 16.8355 6.24658 16.7203 9.30439C16.6064 12.3254 15.1119 15.0103 13.0856 15.834C11.9165 16.3093 10.8021 16.1742 10.3021 15.4966C9.91182 14.9676 9.68137 14.3349 9.67376 13.7712L9.6695 13.4536L9.92687 13.4006C11.6921 13.0369 13.0789 11.625 13.4368 9.82704C13.4808 9.6062 13.4929 9.0464 13.4929 7.2268C13.4929 4.9475 13.4915 4.90609 13.4099 4.79693C13.3642 4.73586 13.2769 4.64858 13.2158 4.60299C13.1093 4.52359 13.0539 4.52009 11.9032 4.52009C10.7524 4.52009 10.697 4.52359 10.5905 4.60299C10.3794 4.76051 10.3134 4.889 10.3134 5.14325C10.3134 5.39742 10.3793 5.52588 10.5904 5.68352C10.6918 5.75922 10.7676 5.7675 11.4654 5.77892L12.2295 5.79143L12.2154 7.66852C12.2035 9.25723 12.1912 9.57967 12.1357 9.76734C11.8775 10.6401 11.4419 11.2468 10.7495 11.6983C10.2015 12.0556 9.70644 12.1973 9.00544 12.1973C8.30443 12.1973 7.80933 12.0556 7.26134 11.6983C6.56894 11.2468 6.1334 10.6401 5.87518 9.76734C5.81964 9.57967 5.80741 9.25723 5.7955 7.66852L5.78141 5.79143L6.54544 5.77892C7.24331 5.7675 7.31909 5.75922 7.42047 5.68352C7.6316 5.52588 7.69744 5.39742 7.69744 5.14325C7.69744 4.889 7.63152 4.76051 7.42035 4.60299C7.3139 4.52359 7.25844 4.52009 6.10772 4.52009C4.95701 4.52009 4.90155 4.52359 4.7951 4.60299C4.73397 4.64858 4.64663 4.73586 4.60099 4.79693C4.51941 4.90609 4.51801 4.9475 4.51801 7.2268C4.51801 9.73236 4.52199 9.78937 4.74149 10.44C5.24521 11.9329 6.55232 13.0918 8.07978 13.3997L8.34138 13.4525L8.41112 13.9702C8.49363 14.5826 8.58801 14.9738 8.76183 15.4238C9.03542 16.1323 9.56453 16.7333 10.1833 17.0385C10.7199 17.3032 10.9346 17.3456 11.722 17.3426C12.3241 17.3403 12.4586 17.3271 12.8425 17.232C13.0824 17.1725 13.4174 17.0686 13.587 17.0009C15.8036 16.1164 17.4337 13.6458 17.9275 10.4223C18.0316 9.74229 18.022 8.25056 17.9091 7.59571C17.7368 6.59543 17.5096 5.89057 17.0733 5.00254C15.9904 2.79879 13.9904 1.10575 11.6154 0.382192C10.5498 0.0575428 9.16807 -0.0748095 8.05966 0.0416219ZM2.74626 2.58611C2.47987 2.70201 1.73612 3.61489 1.25752 4.41327C-0.16164 6.78077 -0.395107 9.75733 0.636036 12.3366C0.752508 12.6279 0.953779 13.0567 1.08337 13.2895L1.31897 13.7127L1.18254 13.8806C1.00131 14.1036 0.816902 14.478 0.731902 14.7955C0.640544 15.1367 0.640826 15.7351 0.732506 16.0788C1.02127 17.1615 1.96081 17.9255 3.08927 17.9954C4.2061 18.0646 5.27552 17.3461 5.65439 16.2721C5.79155 15.8832 5.82367 15.2616 5.72776 14.8526C5.55829 14.1299 5.03601 13.4711 4.37714 13.1489C3.81559 12.8743 3.2806 12.8021 2.70694 12.9234C2.55203 12.9563 2.41254 12.9831 2.397 12.9831C2.35088 12.9831 1.81629 11.8623 1.70666 11.5357C1.25023 10.1764 1.16262 8.79287 1.44567 7.41479C1.70239 6.16488 2.34693 4.88502 3.22221 3.88695C3.41124 3.67142 3.5874 3.43007 3.61364 3.35067C3.77527 2.86134 3.22607 2.37724 2.74626 2.58611ZM3.75333 14.2728C4.00773 14.3934 4.25013 14.6342 4.37739 14.8928C4.45909 15.0587 4.47627 15.1534 4.47599 15.4355C4.47567 15.747 4.46359 15.7997 4.33919 16.0306C4.18718 16.3128 4.06077 16.4348 3.75764 16.5917C3.58345 16.6819 3.4999 16.6983 3.21001 16.6993C2.92648 16.7004 2.83347 16.6836 2.66669 16.6017C1.62049 16.0878 1.70763 14.6129 2.80775 14.2136C3.06174 14.1214 3.49061 14.1483 3.75333 14.2728Z" fill="black"/>
</svg>
