<svg width="93" height="64" viewBox="0 0 93 64" fill="none" xmlns="http://www.w3.org/2000/svg">
<path d="M30.8985 10.4772C30.4789 10.4131 30.1963 10.6947 29.9081 10.9095C25.3872 14.2894 21.1712 17.9816 17.5147 22.3096C13.1476 27.4771 12.0565 33.5592 12.3111 40.0346C12.3867 41.9309 12.6049 43.83 12.879 45.7096C12.9993 46.5266 12.5461 46.9115 12.0929 47.3577C8.67981 50.7264 5.47095 54.2764 2.55584 58.083C1.79488 59.0786 1.10946 60.1327 0.412849 61.1729C0.0659485 61.6888 -0.124283 62.2493 0.0911331 62.8879C0.258995 63.3899 0.466011 63.8528 1.04791 63.9755C1.66059 64.1038 1.99351 63.7078 2.28446 63.2672C3.15172 61.9481 3.98541 60.604 4.88904 59.31C6.88094 56.446 9.11905 53.7717 11.4243 51.1531C12.1013 50.3862 12.7923 50.2049 13.7603 50.4224C18.4519 51.4822 22.833 53.2836 26.7049 56.1197C31.4664 59.6084 36.6924 59.7646 42.1729 58.6602C43.1185 58.4706 43.0597 58.1165 42.4611 57.5057C39.2914 54.2569 35.8363 51.3901 31.7909 49.2707C26.7748 46.6438 21.5656 46.9087 16.2781 48.1999C15.5592 48.3755 14.8681 48.6935 14.1044 48.66C14.04 48.7102 14.0149 48.9054 13.889 48.713C13.9561 48.6907 14.0261 48.6684 14.0932 48.6488C14.6471 47.4218 15.7634 46.6828 16.6838 45.7904C18.2868 44.2371 20.0214 42.8233 21.6524 41.2978C22.3937 40.6035 23.1155 40.517 24.0639 40.8182C29.8382 42.6476 35.1369 45.4307 39.462 49.6193C44.7775 54.7617 51.1057 56.0751 58.1137 55.576C58.6257 55.5397 59.7867 55.6931 58.9502 54.5581C54.9804 49.1536 50.4986 44.279 44.4697 41.0747C40.3768 38.8996 35.951 38.5566 31.4244 38.7908C28.9737 38.9191 26.5538 39.2928 24.1143 39.725C24.1171 39.1868 24.4556 39.053 24.7018 38.8605C27.4882 36.677 30.3809 34.6412 33.352 32.717C34.1297 32.2123 34.8403 32.1342 35.7188 32.3712C41.7505 33.9859 47.2142 36.7244 52.0457 40.6481C57.4367 45.0263 63.6922 45.6482 70.2694 45.0598C71.0191 44.9929 71.0275 44.7001 70.6135 44.1981C63.0599 35.0233 54.074 28.93 41.4287 30.6562C39.6886 30.8932 37.9429 31.094 36.1552 31.3171C36.3063 30.698 36.835 30.6144 37.2099 30.3968C40.8021 28.3221 44.5173 26.4927 48.3193 24.8306C49.1138 24.482 49.7628 24.4653 50.549 24.8752C54.8825 27.1369 59.2663 29.3065 63.5886 31.5876C68.5153 34.1867 73.8447 35.146 79.3057 35.6256C79.426 35.6368 79.5547 35.5531 79.7869 35.4806C78.97 34.1058 77.7978 33.1242 76.7598 32.0338C74.6392 29.8029 72.3116 27.8117 69.8441 25.9656C65.5945 22.7865 60.7798 22.0698 55.6602 22.5439C55.2713 22.5801 54.8797 22.806 54.4237 22.5439C59.1013 20.3799 63.7901 19.3062 69.0132 20.2599C73.6153 21.0993 78.2901 21.8997 83.0321 21.6041C86.4228 21.3922 89.7352 20.748 93 19.8444C92.9329 19.2393 92.4992 19.1891 92.1971 19.0273C89.0749 17.3458 85.8297 15.9626 82.4642 14.8248C77.476 13.1404 72.5047 13.2408 67.9725 15.8064C63.2529 18.478 58.1865 20.009 53.078 21.5511C52.0205 21.8718 50.9854 22.2678 49.7628 22.4045C50.286 21.9332 50.8091 21.4647 51.3295 20.9906C55.1091 17.541 59.2747 14.518 62.8193 10.8174C65.6729 7.83911 67.7179 4.28074 69.6007 0.633132C69.6791 0.482543 69.6819 0.290123 69.7182 0.12559C69.5867 0.0670278 69.4916 -0.0166315 69.4301 0.00288936C64.316 1.68168 59.423 3.82061 55.1063 7.09174C51.1253 10.1091 49.4327 14.4511 48.2493 19.0692C48.0647 19.7887 47.8073 20.5221 47.8129 21.2471C47.8269 23.1713 46.8001 24.0386 45.0908 24.7107C40.8384 26.3811 36.905 28.7181 32.8652 30.8319C32.7981 30.8821 32.6862 30.9881 32.6694 30.9741C32.4931 30.8403 32.6554 30.765 32.7393 30.6785C35.6405 26.8078 38.799 23.1435 41.9071 19.4429C45.5692 15.0813 47.5359 9.9139 49.4047 4.4397C48.9851 4.54567 48.8032 4.55682 48.6606 4.63491C43.9662 7.2507 39.4704 10.137 35.7663 14.0941C32.5491 17.5298 31.4217 21.8077 30.9181 26.3058C30.7334 27.9623 30.7139 29.6411 30.6579 31.3115C30.6383 31.9027 30.5404 32.3712 29.9837 32.7226C25.4012 35.6089 21.1824 38.9693 17.1342 42.5528C16.9664 42.7006 16.7649 42.8093 16.5439 42.9571C16.3425 42.4105 16.7118 42.1094 16.9132 41.7831C19.487 37.6363 22.1112 33.5202 24.657 29.3567C28.21 23.5478 29.9837 17.1422 30.8817 10.4577L30.8985 10.4772Z" fill="#E86851"/>
</svg>
