<svg width="16" height="20" viewBox="0 0 16 20" fill="none" xmlns="http://www.w3.org/2000/svg">
<path d="M7.99966 0C3.92468 0 0.609375 3.31524 0.609375 7.39029C0.609375 11.3356 7.34671 19.4834 7.6335 19.8283C7.72398 19.937 7.85814 20 7.99966 20C8.14112 20 8.27534 19.9371 8.36582 19.8283C8.65268 19.4833 15.3899 11.3356 15.3899 7.39029C15.3899 3.31524 12.0747 0 7.99966 0ZM7.99966 18.7681C7.40226 18.0222 6.16106 16.4328 4.9328 14.6159C2.72747 11.3538 1.56176 8.85518 1.56176 7.39029C1.56176 3.84038 4.44982 0.952381 7.99966 0.952381C11.5495 0.952381 14.4376 3.84038 14.4376 7.39029C14.4376 8.85511 13.2719 11.3537 11.0665 14.6159C9.8382 16.4328 8.59706 18.0222 7.99966 18.7681Z" fill="black"/>
<path d="M10.4223 13.5836C10.2044 13.4364 9.90837 13.4938 9.76119 13.7117C9.11859 14.6629 8.39872 15.6598 7.62157 16.6748C7.4617 16.8837 7.50132 17.1825 7.71014 17.3424C7.79649 17.4085 7.89827 17.4405 7.99929 17.4405C8.1424 17.4405 8.28398 17.3762 8.3777 17.2538C9.16627 16.224 9.89726 15.2116 10.5503 14.2448C10.6976 14.0269 10.6403 13.7308 10.4223 13.5836Z" fill="black"/>
<path d="M8.00046 3.65039C5.84739 3.65039 4.0957 5.40207 4.0957 7.55515C4.0957 9.70823 5.84739 11.4599 8.00046 11.4599C10.1535 11.4599 11.9052 9.70823 11.9052 7.55515C11.9052 5.40207 10.1535 3.65039 8.00046 3.65039ZM8.00046 10.5075C6.37253 10.5075 5.04808 9.18309 5.04808 7.55515C5.04808 5.92722 6.37253 4.60277 8.00046 4.60277C9.62846 4.60277 10.9528 5.92722 10.9528 7.55515C10.9528 9.18309 9.62846 10.5075 8.00046 10.5075Z" fill="black"/>
</svg>
