<svg width="25" height="36" viewBox="0 0 25 36" fill="none" xmlns="http://www.w3.org/2000/svg">
<path d="M11 27.0943V35.9057C11 35.9578 11.5597 36 12.25 36C12.9404 36 13.5 35.9578 13.5 35.9057V27.0943C13.5 27.0422 12.9404 27 12.25 27C11.5597 27 11 27.0422 11 27.0943Z" fill="#E86851"/>
<path d="M12.3545 28.9082L4.05218 21.0386H4.05384C1.62463 18.8856 0.0689531 15.7633 0.00221951 12.262C-0.124137 5.61763 5.1604 0.128515 11.8059 0.00215912C18.4502 -0.12365 23.9393 5.16088 24.0657 11.8053C24.1346 15.4543 22.5702 18.7521 20.0475 21.0074H20.0513L12.3545 28.9082Z" fill="#E86851"/>
<path d="M12.066 18.8796C10.2844 18.9135 8.64559 18.2795 7.38859 17.2079C6.02712 15.957 5.16012 14.1732 5.12238 12.1794C5.04908 8.30831 8.1276 5.11001 11.9987 5.03672C13.7803 5.00335 15.4191 5.63732 16.6766 6.70889C18.0375 7.95987 18.904 9.74417 18.9423 11.7374C19.0156 15.6085 15.9371 18.8063 12.066 18.8796Z" fill="white"/>
</svg>
