<svg width="260" height="131" viewBox="0 0 260 131" fill="none" xmlns="http://www.w3.org/2000/svg">
<path d="M36.0254 35.6326C39.5323 36.2543 43.015 36.6235 46.5389 36.5336C49.1182 36.468 51.6148 36.1037 53.8589 34.7145C54.5097 34.3114 55.469 33.8621 55.3816 33.1457C55.2869 32.3758 54.1843 32.5215 53.5164 32.3928C48.477 31.4237 43.4619 31.7443 38.4662 32.7644C37.9999 32.8591 37.5336 32.9489 37.0721 33.0388C36.9701 32.6891 37.1863 32.6211 37.349 32.5385C41.3902 30.4887 45.4995 28.6017 49.8273 27.2101C52.4624 26.3625 55.0586 26.3649 57.6912 27.1785C61.7714 28.4365 65.5819 30.292 69.3196 32.3151C69.9413 32.6526 70.3396 32.9441 69.594 33.6241C65.305 37.5342 60.5376 40.5651 54.7259 41.5779C49.1619 42.5469 44.0617 41.1383 39.3065 38.2604C38.114 37.5366 36.8973 36.8299 36.0254 35.6326Z" fill="#E2F2D9"/>
<path d="M27.5527 31.7603C22.251 30.2691 16.9785 28.7367 12.1746 25.9583C10.1783 24.8047 9.01982 22.9614 8.04109 20.999C6.37261 17.6524 5.2943 14.092 4.36413 10.4806C4.16498 9.70832 4.29614 9.29789 5.18016 9.35132C10.5086 9.67675 15.7326 10.4685 20.4878 13.0963C26.1441 16.2244 29.1071 21.2103 30.1587 27.4544C30.3287 28.4671 30.5788 29.492 30.2728 30.7379C29.4641 29.6377 28.7792 28.6638 28.053 27.7215C25.5103 24.4307 22.761 21.3731 18.8048 19.7216C17.7532 19.282 16.6652 18.9979 15.5091 18.9906C14.5474 18.9833 14.3531 19.2893 14.8728 20.132C16.7089 23.095 19.1181 25.5212 21.8187 27.6851C23.6475 29.1495 25.6244 30.4027 27.5527 31.7603Z" fill="#E2F2D9"/>
<path d="M35.2598 39.1463C37.6253 40.5743 39.6144 42.476 41.6714 44.2853C43.4613 45.8591 45.1419 47.5494 46.6744 49.3903C48.2093 51.2385 48.7169 53.4073 48.814 55.7023C48.9695 59.4376 48.4643 63.1218 47.8037 66.7866C47.6896 67.4253 47.5196 68.0106 46.6258 67.6342C41.3265 65.4023 36.5518 62.4321 33.1493 57.6744C29.912 53.1425 29.5914 48.0885 30.8567 42.833C31.1554 41.5919 31.493 40.3558 32.258 38.9277C32.5859 40.4019 32.8288 41.5701 33.108 42.7285C33.8998 46.0121 34.9805 49.1814 37.0643 51.9015C38.1037 53.2567 39.2986 54.4637 40.9598 55.0806C42.0891 55.5007 42.247 55.3915 42.094 54.2209C41.533 49.9149 39.7018 46.1141 37.4334 42.4808C36.7291 41.3539 35.8062 40.3703 35.2695 39.139L35.2598 39.1463Z" fill="#E2F2D9"/>
<path d="M35.2607 30.4035C36.339 28.3246 37.6675 26.3841 38.6122 24.2323C39.7464 21.6507 40.594 19.018 40.3851 16.1425C40.3123 15.1565 40.0815 14.2263 39.5982 13.3666C39.0299 12.3563 38.7774 12.3344 38.0925 13.2743C35.6541 16.6137 34.3888 20.4315 33.5995 24.4363C33.3105 25.9032 33.0871 27.3798 32.9511 28.8977C32.4119 27.5936 32.2613 26.1995 32.033 24.8273C31.5279 21.7964 31.1927 18.7533 31.1029 15.6714C31.013 12.638 32.0865 10.1535 34.0658 7.96775C36.5697 5.1991 39.3724 2.76075 42.3062 0.460836C43.1271 -0.180323 43.6176 -0.231319 44.1447 0.815422C46.0366 4.57738 47.3796 8.49962 47.603 12.7279C47.9236 18.8116 45.2011 23.4819 40.6231 27.2147C39.0008 28.531 37.3348 29.823 35.2607 30.4035Z" fill="#E2F2D9"/>
<path d="M28.9833 37.9562C26.1855 42.3399 23.0259 46.4273 19.0138 49.7764C17.1316 51.3477 14.7515 51.6732 12.42 51.9646C8.6338 52.4382 4.82569 52.2827 1.02487 52.2269C0.322999 52.2172 -0.218583 52.0812 0.0874247 51.1753C1.96476 45.621 4.70912 40.6399 9.66353 37.2179C13.7364 34.4031 18.375 33.6794 23.2056 33.9271C25.0125 34.0194 26.8218 34.1967 28.6822 34.7844C28.3543 35.1997 27.9463 35.19 27.5917 35.2896C23.6816 36.3873 19.8541 37.6745 16.4977 40.057C14.9555 41.1523 13.6514 42.4589 12.93 44.2488C12.7673 44.6544 12.5099 45.1134 12.8596 45.502C13.1753 45.8517 13.6222 45.6331 14.0059 45.5457C18.9603 44.4212 23.259 41.9732 27.2809 38.9641C27.7957 38.578 28.3325 38.2234 28.8595 37.8518C28.9032 37.8882 28.9421 37.9222 28.9833 37.9562Z" fill="#E2F2D9"/>
<path d="M29.9005 33.6818C29.8884 32.4723 30.7942 31.5106 31.9746 31.4839C33.3055 31.4547 34.5392 32.7419 34.5441 34.1627C34.5489 35.4037 33.6188 36.2222 32.215 36.2197C30.8428 36.2173 29.9151 35.2021 29.9005 33.6818Z" fill="#E2F2D9"/>
<path d="M173.832 75.5572C167.926 75.0085 162.597 72.536 157.139 70.4885C154.862 69.6329 152.643 68.6298 150.401 67.6916C150.141 67.3847 149.87 67.1664 149.504 67.55C149.704 67.7152 149.905 67.8804 150.106 68.0397C157.605 73.4152 165.931 77.0088 174.871 79.9296C172.145 80.1421 169.413 80.561 166.687 80.5256C157.476 80.4017 148.589 78.8439 140.092 74.9671C129.229 70.0106 124.06 61.2952 122.567 49.9245C121.098 38.7368 123.24 28.2512 128.822 18.4384C130.911 14.7681 132.905 11.0507 134.852 7.30373C135.478 6.09999 135.932 4.77233 136.257 3.45057C137.159 -0.243273 137.124 -0.272783 140.983 0.824748C145.049 1.98129 149.002 3.42105 152.879 5.13226C164.173 10.1184 170.705 18.2259 171.631 30.9774C172.363 41.0381 173.242 51.1283 174.989 61.1064C175.827 65.8801 177.29 70.4295 179.285 74.8255C179.172 74.9376 179.06 75.0497 178.954 75.1678C169.873 70.0577 162.291 63.1834 155.469 55.3945C154.761 54.5861 154.018 53.8131 153.292 53.0283C153.115 52.8159 152.938 52.6035 152.761 52.3969C152.578 51.9072 152.36 51.0575 151.823 51.4351C151.374 51.7478 152.082 52.3202 152.495 52.6625C152.637 52.8985 152.773 53.1404 152.908 53.3764C157.718 61.3424 164.391 67.5735 171.543 73.368C172.363 74.0348 173.402 74.4774 173.897 75.5041L173.832 75.5572Z" fill="#E2F2D9"/>
<path d="M189.008 55.8664C184.789 60.8879 182.918 66.8948 181.779 73.8341C180.375 70.7598 180.009 68.0573 179.508 65.4138C178.292 59.0115 177.838 52.5443 178.788 46.083C180.912 31.6145 190.624 21.7721 205.246 19.6066C223.769 16.8627 239.465 22.9877 252.847 35.6329C256.004 38.6127 258.264 42.3007 259.999 46.7734C254.989 45.8824 252.446 48.7325 250.133 52.2729C243.406 62.5637 233.263 66.4818 221.515 67.1604C215.242 67.5203 208.97 67.8862 202.739 68.7005C196.985 69.4499 191.291 70.453 186.169 73.5862C185.591 72.3825 186.5 71.816 186.954 71.1905C191.498 64.9299 196.885 59.5484 203.571 55.5478C204.149 55.1996 204.645 54.7217 205.176 54.3027C205.353 54.2496 205.524 54.2024 205.701 54.1493C205.624 54.049 205.553 53.9428 205.477 53.8425C205.347 53.9605 205.217 54.0785 205.087 54.1965C198.567 56.0434 193.51 60.168 188.754 64.747C188.069 65.4079 187.627 66.352 186.4 66.6588C186.689 62.9001 188.182 59.6193 189.539 56.2972C189.692 55.8192 190.447 55.5065 189.94 54.8456C189.621 55.1937 189.315 55.5301 189.008 55.8664Z" fill="#E2F2D9"/>
<path d="M213.969 84.97C208.989 81.9194 203.371 81.0284 197.736 80.2377C193.47 79.6417 189.162 79.5532 184.135 79.6594C186.961 77.4525 189.658 76.6264 192.266 75.7118C202.551 72.1124 213.19 70.3481 223.841 73.0034C239.997 77.0277 248.73 88.5459 252.772 104.082C253.863 108.278 254.129 112.591 254.07 116.946C254.04 119.448 253.627 120.616 250.748 119.572C247.963 118.563 245.018 118.669 242.027 118.905C231.883 119.713 221.817 119.241 211.968 116.297C206.428 114.645 202.474 111.317 200.303 105.923C199.459 103.829 198.562 101.758 197.748 99.651C195.287 93.2782 192.154 87.4719 185.303 84.6455C196.084 85.9555 205.537 90.322 214.423 96.4115C213.143 93.9804 211.125 92.3046 208.971 90.8118C206.793 89.3012 204.563 87.8555 202.25 86.5751C199.872 85.2651 197.37 84.1912 194.178 82.657C200.362 82.4091 205.607 83.4064 210.835 84.5216C211.892 84.7458 212.907 85.1589 214.016 84.9229C214.081 85.0645 214.146 85.2002 214.211 85.3418C214.287 85.2592 214.37 85.1766 214.447 85.094C214.281 85.0527 214.122 85.0113 213.969 84.97ZM216.901 99.1436C216.813 98.8485 216.724 98.5535 216.636 98.2584C216.329 97.7451 216.158 97.0606 215.308 97.1432C215.102 98.0224 215.804 98.223 216.294 98.5771C216.512 98.7482 216.736 98.9252 216.954 99.0963C217.002 99.114 217.055 99.1258 217.102 99.1436C217.037 99.1436 216.966 99.1436 216.901 99.1436Z" fill="#E2F2D9"/>
<path d="M185.067 126.25C182.312 120.061 179.633 113.859 178.877 107.014C178.252 101.385 178.629 95.8854 180.689 90.445C181.721 97.2013 186.566 101.096 191.251 105.144C195.995 109.256 200.84 113.251 204.988 118.025C210.328 124.162 211.786 130.835 208.776 138.512C206.788 143.581 204.103 148.231 201.04 152.703C200.208 153.913 199.671 154.326 198.479 152.916C196.284 150.319 193.092 149.417 189.923 148.667C185.527 147.629 181.108 146.691 176.895 145.021C161.299 138.837 154.189 123.282 159.73 107.463C161.942 101.149 165.524 95.6789 170.18 90.9052C170.658 90.4155 171.189 89.9729 171.72 89.5422C171.844 89.4418 172.074 89.4773 172.711 89.377C168.209 97.2662 165.978 105.327 168.917 114.095C169.23 107.811 170.162 101.668 173.042 95.9798C173.685 94.7171 174.086 93.2714 175.673 91.8139C174.706 97.7973 175.207 103.137 176.234 108.442C177.314 114.012 179.479 119.14 182.695 123.808C183.338 124.746 183.793 125.932 185.108 126.227C185.132 126.427 184.902 126.805 185.415 126.652C185.297 126.516 185.179 126.38 185.067 126.25Z" fill="#E2F2D9"/>
<path d="M141.023 104.618C144.239 102.045 146.965 98.924 150.317 96.4811C156.389 92.0556 162.88 88.5801 170.344 87.0164C167.246 89.2115 164.201 91.4242 161.511 94.0972C158.118 97.4606 155.474 101.29 153.462 105.621C151.898 109.002 150.258 112.372 148.405 115.599C143.354 124.391 135.79 129.413 125.599 130.239C118.978 130.776 112.464 130.086 106.032 128.451C104.315 128.014 103.595 127.572 104.592 125.507C106.97 120.585 107.242 115.08 108.357 109.811C109.354 105.096 110.487 100.435 112.364 95.9737C114.836 90.0848 118.996 86.1726 125.227 84.4083C135.719 81.4343 146.405 81.7116 157.109 82.3194C161.104 82.5495 165.075 83.0747 169.081 83.7533C158.324 85.0337 147.644 86.3968 138.091 92.0025C145.307 90.0612 152.424 87.636 160.154 88.1552C152.884 92.6575 145.502 96.9237 140.705 104.3C140.557 104.541 140.404 104.783 140.256 105.025C140.168 105.167 139.672 105.191 140.127 105.486C140.156 105.314 140.18 105.149 140.209 104.978C140.481 104.86 140.752 104.736 141.023 104.618Z" fill="#E2F2D9"/>
<path d="M152.895 53.3779C152.76 53.1419 152.618 52.9 152.482 52.6639C152.571 52.5754 152.659 52.4928 152.748 52.4043C152.925 52.6167 153.102 52.8292 153.279 53.0357C153.161 53.1537 153.031 53.2717 152.895 53.3779Z" fill="#E2F2D9"/>
</svg>
