<svg width="247" height="259" viewBox="0 0 247 259" fill="none" xmlns="http://www.w3.org/2000/svg">
<path d="M53.2248 256.278C54.9758 253.729 55.0452 250.665 55.6169 247.81C56.596 242.898 57.8376 238.054 58.9511 233.174C59.2094 232.055 59.4923 230.946 59.0139 229.819L58.9703 229.842C59.9809 229.757 60.1857 228.996 60.4044 228.201C61.812 223.167 63.2235 218.14 64.6776 213.117C64.9955 212.023 64.8904 211.095 64.306 210.09C54.7681 193.77 50.5785 175.82 48.4427 157.291C46.7768 142.836 47.3487 128.471 50.7797 114.274C50.9041 113.757 51.0945 113.261 51.5582 112.744C51.6173 114.454 51.6546 116.164 51.7408 117.875C52.4391 131.167 54.7713 144.261 56.4374 157.441C57.8479 168.591 57.9608 179.904 60.7102 190.877C62.0441 196.203 63.3084 201.546 64.6527 206.875C64.8306 207.591 64.7729 208.49 65.8486 209.045C67.2269 205.202 68.322 201.286 70.0065 197.648C71.9669 193.409 71.6502 189.586 70.1455 185.219C64.0159 167.443 58.8745 149.378 57.0367 130.566C56.3551 123.597 56.0835 116.606 58.3754 109.76C58.57 109.884 58.7861 109.963 58.7816 110.028C58.4509 121.229 61.1731 131.906 65.2111 142.139C70.8649 156.48 73.4248 171.221 73.0409 186.556C73.0349 186.899 73.0999 187.243 73.1396 187.646C74.1126 187.536 74.1389 186.721 74.3841 186.157C75.7827 183.003 76.9298 179.712 78.5851 176.696C80.0677 173.989 79.9146 171.578 78.7745 168.881C75.4436 160.962 71.7681 153.18 69.2123 144.95C65.777 133.872 63.6288 122.605 64.3643 110.949C64.6211 106.924 65.1281 102.883 67.7771 99.193C68.5723 100.55 67.9917 101.69 67.9573 102.743C67.7113 110.862 69.9575 118.515 72.2603 126.158C75.6069 137.264 79.4593 148.246 80.5338 159.905C80.8553 163.391 80.9628 166.901 81.1928 170.835C83.6202 166.452 85.8627 162.451 88.0572 158.421C88.782 157.091 88.0403 155.808 87.6397 154.585C84.9418 146.331 82.0947 138.13 79.4804 129.848C76.6775 120.962 74.1399 112.02 75.0777 102.503C75.8336 94.8559 77.8015 87.5609 80.8486 80.4872C81.0746 80.6619 81.3142 80.7578 81.3085 80.8495C80.9664 94.9416 84.2725 108.445 88.1759 121.808C91.0439 131.628 90.7679 141.578 90.2796 151.592C90.2482 152.269 89.896 152.983 90.6535 154.018C92.2964 151.645 93.6316 149.187 95.4689 147.189C97.8888 144.566 97.9669 141.898 97.1045 138.66C94.3367 128.218 91.2883 117.851 89.2502 107.219C86.3168 91.8246 89.2308 77.6617 97.6097 64.5233C97.9277 64.0199 98.2925 63.5496 98.8577 63.133C97.8728 67.6829 96.8501 72.1854 96.6569 76.8328C96.2141 87.6128 97.4561 98.2346 99.5436 108.775C101.427 118.277 101.319 127.78 99.9125 137.311C99.7689 138.272 99.6511 139.24 99.554 140.212C99.5316 140.442 99.6525 140.69 99.7625 141.165C102.647 137.953 105.433 134.897 108.156 131.788C109.286 130.501 108.881 128.888 108.676 127.444C107.717 120.692 106.669 113.952 105.636 107.215C103.762 94.9646 103.004 82.7194 106.16 70.5514C107.377 65.8549 108.841 61.2233 111.241 56.9097C110.003 70.9505 112.348 84.7644 113.53 98.6377C114.297 107.663 113.453 116.497 111.062 125.211C110.782 126.238 110.574 127.282 110.363 128.32C110.335 128.461 110.447 128.63 110.59 129.08C112.697 127.076 114.7 125.162 116.707 123.254C117.21 123.802 117.712 124.354 118.21 124.901C115.085 127.519 112.513 130.664 109.244 134.2C112.74 133.903 115.572 133.572 118.398 134.011C125.553 135.13 131.983 137.782 137.472 142.597C141.7 146.306 147.186 147.106 152.281 148.785C153.415 149.162 154.609 149.361 155.72 149.973C149.556 152.222 143.565 152.384 137.804 148.837C135.153 147.21 132.699 145.312 130.394 143.253C124.859 138.311 118.138 136.366 111.037 135.32C109.611 135.109 108.351 135.139 107.243 136.47C101.294 143.601 95.8495 151.088 91.0675 159.052C90.9404 159.262 90.9131 159.535 90.7039 160.223C94.4826 159.228 98.0728 158.631 101.746 158.623C110.29 158.604 118.674 160.002 127 161.661C133.125 162.876 139.221 163.577 145.44 162.873C145.502 162.981 145.567 163.095 145.635 163.199C141.74 166.316 137.06 167.417 132.296 167.962C122.322 169.102 112.51 168.526 103.065 164.624C99.0792 162.976 94.7855 162.791 90.5258 162.669C89.727 162.647 88.8939 162.676 88.4344 163.518C86.4227 167.219 84.4266 170.924 82.6246 174.845C94.2924 168.822 105.808 171.87 117.207 174.902C125.089 177 132.85 178.872 141.435 175.57C140.548 177.436 139.401 178.09 138.35 178.773C128.872 184.972 118.937 185.931 108.505 181.376C105.42 180.032 102.247 178.897 99.1758 177.518C93.2925 174.867 87.5797 175.988 81.8729 178.062C81.1836 178.312 80.6182 178.706 80.285 179.386C78.5823 182.872 76.9638 186.394 75.6693 190.071C76.0031 190.184 76.2134 190.333 76.3084 190.279C84.5454 185.783 93.3852 185.945 102.223 187.3C111.324 188.695 120.339 190.656 129.629 190.264C129.849 190.257 130.077 190.426 130.328 190.52C130.038 191.473 129.202 191.721 128.532 192.052C119.949 196.323 110.931 198.497 101.303 197.56C99.994 197.431 98.6601 197.154 97.4304 196.694C90.5637 194.151 83.4486 193.687 76.2266 193.963C75.1446 194.004 74.0104 193.988 73.552 195.235C72.0056 199.458 70.2262 203.604 68.9819 208.573C75.8063 204.809 82.7696 204.744 89.7364 205.211C94.501 205.531 99.3166 205.934 103.956 206.979C110.377 208.419 116.246 207.035 122.089 204.715C123.196 204.275 124.296 203.818 125.764 203.219C119.864 212.621 106.456 218.215 95.6054 216.201C90.1805 215.192 85.0075 213.341 79.7642 211.713C76.5985 210.727 73.3853 210.19 70.0693 210.716C69.125 210.866 68.0368 210.933 67.7157 212.109C66.2938 217.27 64.2939 222.287 63.4427 228.215C69.0004 224.759 74.6947 223.443 80.6799 223.214C85.8268 223.013 90.9701 223.26 96.0505 223.995C104.077 225.148 111.77 224.351 119.131 220.858C119.52 220.673 119.941 220.561 120.402 220.393C120.651 221.383 119.916 221.753 119.487 222.219C114.189 228.051 107.783 232.123 100.301 234.64C93.2836 237 86.4358 235.266 79.5647 234.106C74.5865 233.264 69.6563 232.177 64.7026 231.188C63.6325 230.974 62.573 230.648 62.2089 232.207C60.7625 238.38 59.2373 244.54 58.3958 251.269C60.4147 249.675 62.0388 248.222 63.8289 247.012C71.0126 242.164 79.167 241.423 87.5182 241.615C88.1389 241.627 88.7744 241.578 89.3754 241.695C100.023 243.802 108.544 239.308 116.494 233.004C117.183 232.458 117.948 232.007 118.68 231.511C118.759 231.617 118.83 231.727 118.909 231.834C113.693 239.644 107.46 246.477 99.579 251.677C94.9171 254.751 89.634 255.746 84.1709 256.078C76.0786 256.561 68.065 255.739 60.0904 254.527C58.2224 254.241 57.6369 254.697 57.3423 256.513C56.0357 264.471 55.07 272.466 54.2413 280.484C54.1488 281.392 54.4351 282.68 53.1912 282.939C51.8326 283.22 51.171 282.081 50.6199 281.052C49.9521 279.802 50.1557 278.478 50.3709 277.151C51.31 271.381 52.2169 265.609 53.1819 259.845C53.374 258.683 53.4182 257.566 53.0083 256.45C53.0735 256.384 53.1517 256.332 53.2248 256.278Z" fill="#E2F2D9"/>
<path d="M214.306 37.0157C210.508 43.0499 208.633 49.957 205.572 56.3162C202.838 61.999 199.052 67.0023 194.499 71.8099C196.574 72.0519 197.555 70.9092 198.615 69.9334C209.773 59.7063 222.61 52.1205 236.383 46.0126C236.854 45.8032 237.375 45.6876 237.885 45.5205C237.96 45.7791 238.092 46.0024 238.038 46.0661C233.784 51.0388 229.556 56.0396 225.233 60.9574C218.333 68.8113 209.046 71.3972 199.165 72.5383C196.734 72.8181 194.667 73.7706 192.667 75.1934C204.489 74.5135 216.268 74.1024 228.409 74.3201C227.566 76.5079 225.997 77.6404 224.426 78.6685C218.083 82.8161 211.083 83.5342 203.753 82.5096C197.948 81.6934 192.249 80.4375 186.677 78.6271C185.901 78.3747 185.144 78.1325 184.362 78.5188C181.454 79.9639 178.554 81.4219 175.725 83.1321C180.903 83.2121 186.007 83.1213 191.097 83.6344C196.299 84.158 201.504 84.6713 206.57 86.0154C210.873 87.1599 215.191 87.8372 220.255 86.7521C217.596 90.4617 214.53 92.2901 210.846 93.1655C206.361 94.2313 201.967 93.5301 197.829 91.8074C189.735 88.4328 181.208 86.9016 172.649 85.434C171.604 85.2537 170.758 85.5425 169.882 86.0432C168.038 87.0931 166.162 88.0916 164.303 89.1106C163.888 88.4474 163.472 87.7893 163.061 87.1324C165.2 85.382 167.717 84.2423 170.11 82.914C171.107 82.3606 171.742 81.7693 171.832 80.5055C172.73 68.2648 177.104 57.3141 184.059 47.2743C187.219 42.7114 190.175 37.9954 192.59 32.9579C189.165 49.405 184.176 65.2571 174.983 79.551C175.125 79.7329 175.266 79.92 175.409 80.1019C178.533 78.6432 181.679 77.2334 184.761 75.699C185.494 75.3338 185.452 74.3059 185.645 73.5482C186.867 68.6504 188.288 63.8115 189.786 58.9912C192.861 49.0958 199.028 41.2407 206.15 33.9435C202.601 40.3986 198.999 46.7755 196.829 53.8852C194.691 60.8876 191.571 67.5388 187.702 73.9555C191.317 74.0535 192.588 73.1339 193.642 70.2088C197.176 60.4512 200.868 50.7645 207.83 42.7888C209.742 40.5953 211.611 38.326 214.232 36.8938L214.306 37.0157Z" fill="#E2F2D9"/>
<path d="M163.063 87.1202C163.479 87.7783 163.889 88.4403 164.305 89.0984C164.01 89.2572 163.721 89.412 163.426 89.5707C163.194 89.6683 162.963 89.7658 162.737 89.8646C162.793 89.9492 162.853 90.0403 162.909 90.1249C163.092 89.9556 163.275 89.7862 163.457 89.622C164.287 90.15 165.158 89.8726 166.024 89.7526C174.616 88.5804 182.652 90.2888 190.215 94.4165C190.312 94.4891 190.41 94.5618 190.512 94.6357C192.432 95.6609 194.354 96.6758 196.264 97.7204C199.031 99.2283 202.12 99.3258 205.131 99.771C205.177 100.329 205.229 100.889 205.276 101.442C198.274 104.468 191.417 103.294 184.614 100.712C184.399 100.54 184.183 100.367 183.967 100.195C181.336 99.5789 179.172 98.0244 176.892 96.6992C176.874 96.2956 176.727 95.9756 176.328 95.8141C174.939 96.0381 174.015 95.0607 172.921 94.5132C172.753 94.3909 172.586 94.2685 172.42 94.141C169.761 93.2553 167.045 92.6294 164.281 92.1781C161.581 91.7365 159.045 91.9966 156.834 93.8225C154.895 95.4241 152.328 96.1579 150.729 98.2351C150.536 98.331 150.338 98.4256 150.147 98.5164C150.189 98.5702 150.225 98.6227 150.267 98.6765C150.436 98.5422 150.611 98.4038 150.781 98.2694C153.909 98.2505 157.051 97.3322 160.162 98.4087C160.322 98.4963 160.472 98.4833 160.622 98.3826C165.016 98.1975 169.188 99.3651 173.359 100.494C175.404 101.046 177.382 101.85 179.393 102.542C179.601 102.701 179.81 102.855 180.013 103.013C181.237 103.155 182.358 103.588 183.444 104.145C183.74 104.304 184.036 104.457 184.332 104.616C184.655 104.726 184.98 104.832 185.309 104.944C185.441 105.621 185.734 105.861 186.312 105.3C188.38 105.731 190.449 106.158 192.517 106.59C192.663 106.576 192.81 106.556 192.958 106.532C194.11 106.541 195.256 106.554 196.408 106.563C196.385 106.793 196.359 107.016 196.337 107.246C194.798 107.91 193.205 108.369 191.535 108.536C191.165 108.617 190.794 108.703 190.425 108.784C180.019 111.812 170.093 109.955 160.437 105.729C156.902 104.184 153.45 102.456 149.962 100.808L149.739 100.667C149.555 100.59 149.365 100.517 149.181 100.44C149.055 100.256 148.934 100.079 148.808 99.8958C149.1 98.549 147.965 98.1011 147.244 97.3916C150.072 96.2336 149.269 93.5677 149.73 91.4246C149.713 91.2674 149.69 91.1141 149.655 90.9634C149.771 86.6148 149.936 82.267 150.774 77.9829C150.77 77.8668 150.766 77.7456 150.766 77.6308C150.824 74.8436 151.473 72.1441 151.938 69.4166C152.038 69.2931 152.062 69.151 152.011 68.9967C153.74 59.3081 156.311 49.8662 160.403 40.8828C160.974 40.7848 161.229 40.4961 160.981 39.9113C161.195 38.8193 161.752 37.8919 162.359 36.9821C162.638 37.0493 162.912 37.1152 163.191 37.1824C162.828 41.2197 162.464 45.2571 162.104 49.3009C162.123 49.7213 162.144 50.1365 162.163 50.5569C161.942 53.5893 161.985 56.6412 161.326 59.6337C160.798 60.0319 160.848 60.4159 161.348 60.7933C160.636 68.4834 159.379 76.0533 156.361 83.2325C156.233 83.4259 156.104 83.6193 155.974 83.8178C155.053 87.3764 153.263 90.5402 151.542 93.737L151.581 93.8283C154.599 92.0815 157.932 90.7823 160.129 87.8535C160.646 87.7534 161.166 87.6597 161.683 87.5596C162.129 87.4318 162.594 87.2754 163.063 87.1202Z" fill="#E2F2D9"/>
<path d="M28.3589 152.48C29.7883 157.386 31.0339 162.352 32.6781 167.184C38.9556 185.62 44.471 204.245 47.0272 223.619C47.5227 227.381 48.0377 231.154 48.2754 234.942C48.7429 242.347 50.7717 249.356 53.2204 256.28C53.1473 256.333 53.0691 256.386 52.9961 256.439C48.309 250.361 45.1817 243.438 42.1663 236.46C34.951 219.762 32.2225 202.038 30.2331 184.152C29.1792 174.658 28.253 165.157 28.0953 155.6C28.0767 154.54 27.9717 153.475 28.4025 152.458L28.3589 152.48Z" fill="#E2F2D9"/>
<path d="M58.4067 228.84C54.0577 222.197 51.023 214.936 48.4985 207.463C41.6885 187.329 38.3552 166.614 38.632 145.356C38.6866 141.08 39.0067 136.77 41.0431 132.806C40.878 151.257 46.836 168.747 49.2433 186.76C51.0686 200.438 54.4781 213.671 58.439 226.818C58.6145 227.407 58.6961 228.023 58.8202 228.622C58.684 228.688 58.5402 228.762 58.4067 228.84Z" fill="#E2F2D9"/>
<path d="M118.21 124.9C117.708 124.353 117.206 123.8 116.708 123.253C117.792 122.092 118.874 120.935 119.958 119.773C120.185 119.511 120.407 119.247 120.636 118.979C120.821 118.98 121.002 118.98 121.188 118.981C121.419 118.768 121.656 118.557 121.888 118.345C123.53 116.201 125.798 114.734 127.753 112.928C128.326 113.389 128.392 114.001 128.276 114.668C128.117 115.007 127.622 115.293 128.079 115.714C128.119 115.751 128.447 115.48 128.641 115.357C128.873 115.211 129.1 115.063 129.332 114.916L129.286 114.949C142.527 111.848 152.899 118.035 162.697 125.561C167.144 128.978 171.97 130.587 177.435 130.703C178.834 130.733 180.226 130.745 181.693 130.764C181.437 131.874 180.591 131.796 180 132.004C169.13 135.801 158.8 134.985 149.022 128.558C144.586 125.642 140.371 122.38 135.568 120.037C132.757 118.667 129.768 118.085 126.732 117.606C126.063 117.5 125.492 117.734 125.035 118.177C122.946 120.202 120.529 121.902 118.918 124.392C118.67 124.557 118.417 124.726 118.169 124.89L118.21 124.9Z" fill="#E2F2D9"/>
<path d="M128.276 114.669C128.392 114.002 128.326 113.39 127.753 112.929C128.476 111.993 129.654 111.417 129.978 110.16C130.178 110.192 130.38 110.218 130.585 110.251C133.426 107.882 136.262 105.506 139.102 103.136C139.577 102.89 140.054 102.638 140.529 102.391C142.607 100.527 144.847 98.878 147.229 97.4157C147.95 98.1252 149.088 98.5795 148.793 99.9199C148.756 100.026 148.724 100.139 148.693 100.246C145.304 100.596 143.536 103.672 140.531 104.7C141.121 105.887 141.922 105.445 142.524 105.398C150.599 104.785 158.296 106.15 165.239 110.353C171.634 114.221 178.477 116.589 185.773 117.507C185.883 118.19 185.533 118.324 185.204 118.393C178.515 119.842 171.752 121.099 164.947 119.736C156.47 118.041 148.704 114.505 141.734 109.344C139.974 108.04 136.991 107.798 135.389 109.295C133.358 111.186 130.612 112.304 129.287 114.945L129.333 114.912C129.117 114.855 128.895 114.801 128.679 114.744C128.543 114.717 128.411 114.696 128.276 114.669Z" fill="#E2F2D9"/>
<path d="M120.636 118.98C120.408 119.242 120.186 119.506 119.958 119.774C119.999 110.003 117.854 100.454 117.02 90.7734C115.886 77.6117 117.9 64.7315 120.202 51.543C124.234 70.7408 126.806 89.6421 122.597 108.822C121.859 112.189 121.287 115.591 120.636 118.98Z" fill="#E2F2D9"/>
<path d="M130.584 110.252C130.384 110.22 130.183 110.194 129.977 110.161C130.474 97.5174 129.063 84.962 128.292 72.3803C128.033 68.1601 127.686 63.9356 128.334 59.7203C128.282 59.4562 128.235 59.1987 128.184 58.9346C128.231 57.9396 128.163 56.9275 128.684 56.0133C128.611 55.7224 128.539 55.4314 128.462 55.1393C128.545 52.6319 128.847 50.1497 129.507 47.721C129.717 47.7604 129.925 47.805 130.139 47.8456C133.203 56.9907 136.127 66.168 136.392 75.9368C136.416 76.9054 136.364 77.8721 136.35 78.8424C136.377 79.0022 136.415 79.1644 136.459 79.3227C136.674 89.1396 134.782 98.5754 131.385 107.742C131.083 108.567 130.852 109.414 130.584 110.252Z" fill="#E2F2D9"/>
<path d="M161.677 81.1475C162.988 73.2185 164.074 65.2463 165.661 57.3729C167.244 49.515 171.967 43.3912 177.48 37.5068C178.053 38.8756 177.818 39.8092 177.577 40.7415C177.484 40.8778 177.471 41.0224 177.533 41.1741C176.546 49.4162 175.197 57.5984 172.985 65.6116C171.646 70.4756 169.579 74.9514 166.692 79.1752C165.037 81.5999 163.865 84.4034 161.932 86.7067C161.506 86.637 161.081 86.5621 160.649 86.4912C160.871 85.2262 161.095 83.956 161.317 82.691C162.296 82.374 162.398 81.857 161.677 81.1475Z" fill="#E2F2D9"/>
<path d="M140.529 102.391C140.054 102.638 139.578 102.89 139.102 103.137C138.474 102.428 138.327 101.561 138.341 100.661C138.539 86.4854 139.555 72.3912 142.948 58.5788C144.18 53.5687 146.367 48.8209 147.201 43.6492C148.468 49.9555 148.639 56.2767 148.33 62.6086C147.702 75.4119 145.234 87.8549 140.754 99.8851C140.453 100.683 139.897 101.495 140.529 102.391Z" fill="#E2F2D9"/>
<path d="M147.671 157.651C144.6 158.728 141.518 158.463 138.504 158.05C129.987 156.888 121.987 154.099 114.557 149.779C110.776 147.579 106.961 145.584 102.397 145.591C102.558 144.558 103.319 144.806 103.82 144.702C112.908 142.763 121.563 144.035 129.918 148.053C135.184 150.588 140.464 153.089 145.555 155.96C146.285 156.382 147.192 156.594 147.671 157.651Z" fill="#E2F2D9"/>
<path d="M121.625 125.124C121.067 123.623 122.39 124.171 122.9 124.074C123.806 123.904 124.752 124.017 125.633 124.404C125.908 124.355 126.182 124.306 126.456 124.257C129.169 124.532 131.79 125.19 134.332 126.151C134.555 126.319 134.771 126.486 134.994 126.655C136.239 126.73 137.34 127.225 138.4 127.846C138.513 127.944 138.639 128.035 138.766 128.12C143.592 129.981 147.84 132.857 151.606 136.285C155.404 139.737 159.575 142.272 164.449 143.729C164.223 143.986 163.999 144.238 163.773 144.496C159.013 145.315 154.369 144.948 149.87 143.116C149.807 142.718 149.608 142.451 149.184 142.398C148.021 142.66 147.159 141.966 146.247 141.462C142.472 139.367 139.398 136.363 136.408 133.352C132.418 129.334 127.759 126.78 122.278 125.593C122.059 125.437 121.839 125.28 121.625 125.124Z" fill="#E2F2D9"/>
<path d="M205.275 101.448C205.229 100.89 205.178 100.331 205.13 99.7778C206.41 99.4839 207.702 99.4336 209.001 99.6529L208.974 99.6028C208.042 100.817 206.644 101.105 205.275 101.448Z" fill="#E2F2D9"/>
<path d="M163.174 37.2119C162.895 37.1447 162.62 37.0788 162.341 37.0117C162.459 36.2959 162.806 35.7393 163.68 35.1071C163.456 36.038 163.316 36.6224 163.174 37.2119Z" fill="#E2F2D9"/>
<path d="M160.654 86.4932C161.081 86.5629 161.506 86.6378 161.937 86.7088C161.844 87.0038 161.753 87.2936 161.66 87.5885C161.138 87.6874 160.623 87.7823 160.107 87.8824C160.29 87.4176 160.473 86.9528 160.654 86.4932Z" fill="#E2F2D9"/>
<path d="M161.678 81.1473C162.4 81.8516 162.297 82.3738 161.323 82.6921C161.441 82.1789 161.56 81.6605 161.678 81.1473Z" fill="#E2F2D9"/>
<path d="M130.139 47.8452C129.93 47.8058 129.722 47.7612 129.507 47.7206C129.422 47.3937 129.349 46.9002 129.716 46.8956C130.32 46.8877 130.145 47.4582 130.139 47.8452Z" fill="#E2F2D9"/>
<path d="M176.329 95.817C176.727 95.9786 176.875 96.2985 176.893 96.7021C176.469 96.5511 176.237 96.2874 176.329 95.817Z" fill="#E2F2D9"/>
<path d="M186.306 105.307C185.728 105.869 185.441 105.63 185.303 104.951C185.636 105.069 185.973 105.189 186.306 105.307Z" fill="#E2F2D9"/>
<path d="M161.326 60.8213C160.826 60.4439 160.783 60.056 161.304 59.6617C161.315 60.0473 161.32 60.4369 161.326 60.8213Z" fill="#E2F2D9"/>
<path d="M160.964 39.9371C161.207 40.5206 160.957 40.8105 160.386 40.9085C160.579 40.583 160.772 40.2574 160.964 39.9371Z" fill="#E2F2D9"/>
<path d="M149.18 142.392C149.604 142.445 149.803 142.711 149.866 143.109C149.463 143.034 149.214 142.816 149.18 142.392Z" fill="#E2F2D9"/>
<path d="M163.769 144.492C163.995 144.235 164.22 143.982 164.446 143.725C164.825 144.516 164.342 144.542 163.769 144.492Z" fill="#E2F2D9"/>
<path d="M118.677 231.504C118.845 231.418 119.008 231.332 119.176 231.246C119.086 231.438 118.996 231.63 118.905 231.827C118.828 231.715 118.755 231.61 118.677 231.504Z" fill="#E2F2D9"/>
<path d="M118.169 124.89C118.417 124.726 118.671 124.557 118.918 124.392L119.139 124.407L119.35 124.463C119.305 124.649 119.267 124.832 119.222 125.018C118.871 124.977 118.521 124.931 118.169 124.89Z" fill="#E2F2D9"/>
<path d="M162.146 50.5811C162.127 50.1607 162.107 49.7454 162.088 49.325C162.107 49.7454 162.126 50.1658 162.146 50.5811Z" fill="#E2F2D9"/>
<path d="M58.8219 228.619C59.113 229 59.1567 229.41 58.9697 229.847L59.0133 229.824C58.813 229.497 58.6088 229.164 58.4084 228.836C58.5419 228.759 58.6858 228.684 58.8219 228.619Z" fill="#E2F2D9"/>
<path d="M190.411 108.796C190.781 108.716 191.152 108.63 191.521 108.549C191.152 108.63 190.781 108.716 190.411 108.796Z" fill="#E2F2D9"/>
<path d="M184.326 104.624C184.031 104.465 183.734 104.312 183.438 104.153C183.739 104.313 184.036 104.467 184.326 104.624Z" fill="#E2F2D9"/>
<path d="M196.325 107.251C196.347 107.021 196.374 106.798 196.396 106.568C196.593 106.681 196.789 106.799 196.986 106.912C196.767 107.029 196.548 107.141 196.325 107.251Z" fill="#E2F2D9"/>
<path d="M209.001 99.6515C209.115 99.6079 209.236 99.5604 209.351 99.5168C209.302 99.5598 209.263 99.6324 209.205 99.6458C209.131 99.6555 209.052 99.6201 208.975 99.6014L209.001 99.6515Z" fill="#E2F2D9"/>
<path d="M136.459 79.3223C136.415 79.164 136.376 79.0069 136.35 78.842C136.464 78.9842 136.496 79.1452 136.459 79.3223Z" fill="#E2F2D9"/>
<path d="M155.951 83.8474C156.079 83.654 156.208 83.4606 156.338 83.2621C156.209 83.4554 156.081 83.6488 155.951 83.8474Z" fill="#E2F2D9"/>
<path d="M172.421 94.1454C172.588 94.2677 172.756 94.3901 172.922 94.5176C172.756 94.3901 172.588 94.2677 172.421 94.1454Z" fill="#E2F2D9"/>
<path d="M150.746 77.6479C150.745 77.7627 150.749 77.8839 150.754 78C150.673 77.882 150.668 77.766 150.746 77.6479Z" fill="#E2F2D9"/>
<path d="M149.634 90.9822C149.669 91.1328 149.692 91.2861 149.709 91.4434C149.611 91.3049 149.582 91.1503 149.634 90.9822Z" fill="#E2F2D9"/>
<path d="M183.966 100.202C184.182 100.374 184.398 100.547 184.613 100.719C184.398 100.547 184.182 100.374 183.966 100.202Z" fill="#E2F2D9"/>
<path d="M180.01 103.026C179.802 102.867 179.593 102.713 179.39 102.555C179.599 102.709 179.802 102.867 180.01 103.026Z" fill="#E2F2D9"/>
<path d="M151.996 69.0192C152.047 69.1735 152.02 69.3092 151.923 69.4391C151.9 69.2858 151.927 69.1501 151.996 69.0192Z" fill="#E2F2D9"/>
<path d="M160.621 98.3904C160.47 98.4963 160.321 98.5041 160.161 98.4165C160.316 98.388 160.465 98.3802 160.621 98.3904Z" fill="#E2F2D9"/>
<path d="M192.946 106.54C192.797 106.565 192.65 106.584 192.505 106.598C192.645 106.495 192.791 106.476 192.946 106.54Z" fill="#E2F2D9"/>
<path d="M128.184 58.9331C128.236 59.192 128.283 59.4547 128.334 59.7188C128.283 59.4547 128.236 59.192 128.184 58.9331Z" fill="#E2F2D9"/>
<path d="M148.692 100.247C148.723 100.14 148.756 100.027 148.792 99.9212C148.918 100.105 149.04 100.282 149.165 100.465C148.985 100.438 148.827 100.367 148.692 100.247Z" fill="#E2F2D9"/>
<path d="M149.725 100.685L149.948 100.826C149.834 100.842 149.758 100.797 149.725 100.685Z" fill="#E2F2D9"/>
<path d="M128.467 55.1407C128.54 55.4316 128.612 55.7225 128.689 56.0146C128.612 55.7225 128.54 55.4316 128.467 55.1407Z" fill="#E2F2D9"/>
<path d="M121.888 118.346C121.656 118.559 121.42 118.77 121.188 118.982C121.42 118.77 121.656 118.559 121.888 118.346Z" fill="#E2F2D9"/>
<path d="M126.451 124.256C126.177 124.305 125.903 124.354 125.628 124.403C125.903 124.354 126.177 124.305 126.451 124.256Z" fill="#E2F2D9"/>
<path d="M134.986 126.661C134.764 126.493 134.547 126.326 134.325 126.157C134.548 126.321 134.771 126.489 134.986 126.661Z" fill="#E2F2D9"/>
<path d="M138.762 128.12C138.635 128.035 138.514 127.946 138.395 127.846C138.563 127.875 138.684 127.965 138.762 128.12Z" fill="#E2F2D9"/>
<path d="M119.221 125.018C119.266 124.831 119.304 124.649 119.349 124.463C119.907 124.783 119.743 124.941 119.221 125.018Z" fill="#E2F2D9"/>
<path d="M177.536 41.1669C177.474 41.0152 177.487 40.8706 177.58 40.7343C177.61 40.8837 177.592 41.027 177.536 41.1669Z" fill="#E2F2D9"/>
<path d="M121.625 125.127C121.844 125.284 122.06 125.434 122.279 125.591C122.059 125.439 121.839 125.283 121.625 125.127Z" fill="#E2F2D9"/>
<path d="M214.232 36.8874C214.341 36.8426 214.445 36.7965 214.555 36.7516C214.474 36.8362 214.387 36.9247 214.307 37.0093C214.305 37.0144 214.232 36.8874 214.232 36.8874Z" fill="#E2F2D9"/>
<path d="M145.444 162.864C145.585 162.87 145.729 162.883 145.87 162.889C145.791 162.991 145.718 163.088 145.639 163.19C145.572 163.08 145.506 162.971 145.444 162.864Z" fill="#E2F2D9"/>
<path d="M190.516 94.6436C190.413 94.5696 190.316 94.497 190.218 94.4243C190.358 94.436 190.46 94.5099 190.516 94.6436Z" fill="#E2F2D9"/>
<path d="M203.215 144.18C202.99 144.093 202.765 144.006 202.54 143.919C202.603 143.836 202.672 143.754 202.736 143.671C202.892 143.84 203.054 144.01 203.215 144.18C203.209 144.184 203.215 144.18 203.215 144.18Z" fill="#E2F2D9"/>
<path d="M193.822 156.506C193.842 156.445 193.863 156.335 193.885 156.335C193.956 156.336 194.035 156.371 194.106 156.394C194.086 156.454 194.065 156.564 194.043 156.564C193.972 156.564 193.899 156.53 193.822 156.506Z" fill="#E2F2D9"/>
<path d="M163.459 89.6228C163.276 89.7921 163.093 89.9615 162.911 90.1256C162.855 90.041 162.795 89.9499 162.738 89.8653C162.97 89.7678 163.196 89.669 163.427 89.5714L163.459 89.6228Z" fill="#E2F2D9"/>
<path d="M150.785 98.2777C150.616 98.4121 150.44 98.5504 150.271 98.6848C150.229 98.631 150.193 98.5784 150.151 98.5246C150.344 98.4287 150.541 98.334 150.733 98.2433C150.734 98.2381 150.785 98.2777 150.785 98.2777Z" fill="#E2F2D9"/>
<path d="M151.559 93.8584L151.519 93.7645C151.514 93.7633 151.559 93.8584 151.559 93.8584Z" fill="#E2F2D9"/>
<path d="M128.276 114.666C128.411 114.693 128.543 114.714 128.679 114.741C128.668 114.946 128.658 115.147 128.642 115.35C128.447 115.479 128.125 115.746 128.08 115.708C127.622 115.291 128.117 115.006 128.276 114.666Z" fill="#E2F2D9"/>
<path d="M128.642 115.354C128.653 115.149 128.663 114.949 128.679 114.745C128.895 114.802 129.117 114.856 129.333 114.913C129.101 115.06 128.874 115.208 128.642 115.354Z" fill="#E2F2D9"/>
<path d="M177.77 229.849C176.832 224.302 177.991 218.934 179.865 213.855C182.525 206.648 181.344 200.21 177.387 193.909C174.746 189.706 171.896 185.591 170.312 180.363C166.157 185.122 163.183 190.222 161.101 195.827C157.358 205.894 159.476 214.692 167.151 222.203C167.735 222.775 168.266 223.419 168.915 223.906C175.8 229.039 177.103 235.503 174.224 243.41C171.931 249.724 169.407 255.913 166.534 261.972C166.029 263.036 165.488 264.085 165.038 265.172C164.528 266.399 164.66 267.702 165.938 268.195C167.253 268.704 167.518 267.282 167.861 266.433C169.866 261.479 171.772 256.482 173.778 251.533C174.66 249.353 175.742 247.254 176.672 245.092C177.874 242.301 180.022 241.312 182.964 241.387C187.397 241.501 191.812 241.368 196.241 240.837C205.073 239.781 212.172 235.875 217.729 228.953C222.573 222.92 222.64 222.973 229.782 220.905C229.461 219.796 228.384 219.557 227.596 219.07C225.042 217.493 222.302 216.287 219.513 215.191C209.471 211.245 200.358 212.658 192.139 219.71C189.177 222.255 186.481 225.045 183.809 227.87C183.668 227.971 183.489 228.18 183.393 228.149C183.036 228.032 183.135 227.756 183.273 227.505C184.484 222.093 186.304 216.886 188.539 211.813C189.801 208.96 191.857 206.927 194.476 205.309C201.633 200.896 209.153 197.033 215.7 191.669C222.726 185.909 228.485 179.296 229.741 169.836C230.632 163.125 229.069 156.858 225.759 151.005C225.272 150.146 224.897 148.714 223.432 150.055C218.891 154.224 213.205 156.516 207.915 159.44C204.033 161.591 200.205 163.814 196.756 166.64C189.677 172.445 186.983 180.331 186.047 189.076C185.547 193.783 185.788 198.497 185.844 203.209C185.958 212.933 182.343 221.59 178.064 230.035C177.952 230.085 177.836 230.142 177.725 230.198C177.742 230.089 177.756 229.969 177.77 229.849ZM194.204 196.796C195.073 192.649 196.749 188.889 198.673 185.225C201.923 179.029 206.524 173.979 211.88 169.557C213.358 168.335 213.997 168.585 214.196 170.537C214.534 173.934 214.125 177.21 211.684 179.671C205.959 185.443 200.037 191.009 194.204 196.796ZM188.592 232.203C194.288 226.616 201.021 223.306 208.614 221.738C209.211 221.612 209.963 221.243 210.388 221.859C210.8 222.46 210.221 223.05 209.904 223.564C208.83 225.299 207.44 226.814 205.478 227.404C199.874 229.09 194.222 230.618 188.592 232.203ZM173.735 220.665C170.804 215.825 167.361 211.34 164.635 206.42C163.508 204.383 164.05 202.031 165.496 199.754C171.306 205.638 173.171 212.867 173.735 220.665Z" fill="#E2F2D9"/>
</svg>
