<svg class="flex-shrink-0 text-primary me-2" width="32" height="32" viewBox="0 0 40 40" fill="none" xmlns="http://www.w3.org/2000/svg" style="margin-top:-4px">
              <path fill-rule="evenodd" clip-rule="evenodd" d="M21.6667 19.9987C21.6667 19.0782 22.4129 18.332 23.3334 18.332L30.0001 18.332C31.841 18.332 33.3334 19.8244 33.3334 21.6654L33.3334 26.6654C33.3334 28.5063 31.841 29.9987 30.0001 29.9987L25.0001 29.9987C23.1591 29.9987 21.6667 28.5063 21.6667 26.6654L21.6667 19.9987ZM25.0001 21.6654L25.0001 26.6654L30.0001 26.6654L30.0001 21.6654L25.0001 21.6654Z" fill="#E86851"></path>
              <path fill-rule="evenodd" clip-rule="evenodd" d="M6.66675 19.9987C6.66675 19.0782 7.41294 18.332 8.33341 18.332L15.0001 18.332C16.841 18.332 18.3334 19.8244 18.3334 21.6654L18.3334 26.6654C18.3334 28.5063 16.841 29.9987 15.0001 29.9987L10.0001 29.9987C8.15913 29.9987 6.66675 28.5063 6.66675 26.6654L6.66675 19.9987ZM10.0001 21.6654L10.0001 26.6654L15.0001 26.6654L15.0001 21.6654L10.0001 21.6654Z" fill="#E86851"></path>
              <path fill-rule="evenodd" clip-rule="evenodd" d="M28.3333 13.3333C26.4923 13.3333 25 14.8257 25 16.6667V20C25 20.9205 24.2538 21.6667 23.3333 21.6667C22.4128 21.6667 21.6666 20.9205 21.6666 20L21.6666 16.6667C21.6666 12.9848 24.6514 10 28.3333 10C29.2538 10 30 10.7462 30 11.6667C30 12.5871 29.2538 13.3333 28.3333 13.3333Z" fill="#E86851"></path>
              <path fill-rule="evenodd" clip-rule="evenodd" d="M13.3333 13.3333C11.4923 13.3333 9.99996 14.8257 9.99996 16.6667V20C9.99996 20.9205 9.25377 21.6667 8.33329 21.6667C7.41282 21.6667 6.66663 20.9205 6.66663 20L6.66663 16.6667C6.66663 12.9848 9.6514 10 13.3333 10C14.2538 10 15 10.7462 15 11.6667C15 12.5871 14.2538 13.3333 13.3333 13.3333Z" fill="#E86851"></path>
            </svg>