<svg width="18" height="18" viewBox="0 0 18 18" fill="none" xmlns="http://www.w3.org/2000/svg">
<path fill-rule="evenodd" clip-rule="evenodd" d="M8.01646 0.758467C7.95146 0.766095 7.75391 0.787968 7.57747 0.807106C6.46334 0.927945 5.22958 1.34582 4.23401 1.93958C2.96695 2.69522 1.93711 3.72461 1.18113 4.99112C0.591971 5.97812 0.200661 7.1251 0.0410035 8.33312C-0.0136678 8.7467 -0.0136678 10.0123 0.0410035 10.4258C0.200661 11.6339 0.591971 12.7808 1.18113 13.7678C1.93711 15.0344 2.96695 16.0637 4.23401 16.8194C5.22144 17.4083 6.36893 17.7994 7.57747 17.959C7.99124 18.0137 9.25735 18.0137 9.67112 17.959C11.7738 17.6813 13.5562 16.7582 15.0108 15.1935C15.8155 14.3279 16.4451 13.2511 16.8315 12.0798C17.136 11.1565 17.25 10.4212 17.25 9.37948C17.25 8.60882 17.2174 8.26834 17.0791 7.59053C16.6045 5.26655 15.1108 3.18972 13.0146 1.93958C12.0372 1.35668 10.8717 0.957277 9.70489 0.805317C9.40874 0.76677 8.22583 0.733928 8.01646 0.758467ZM9.31655 1.78522C11.2849 1.96557 13.1858 2.95472 14.4403 4.45143C16.4386 6.8356 16.8148 10.1204 15.4042 12.8675C15.2333 13.2002 14.707 14.0193 14.6809 13.9932C14.6732 13.9856 14.6087 13.859 14.5376 13.712C13.851 12.2927 12.5755 11.1028 11.1092 10.5137C10.9196 10.4375 10.7654 10.36 10.7665 10.3415C10.7676 10.3229 10.8552 10.2355 10.9613 10.1473C11.4939 9.70426 11.9305 8.95743 12.0872 8.22139C12.5513 6.04147 10.8536 3.94513 8.6243 3.94513C6.39496 3.94513 4.69732 6.04147 5.16136 8.22139C5.31805 8.95743 5.75464 9.70426 6.28727 10.1473C6.39334 10.2355 6.48766 10.3202 6.49694 10.3355C6.5062 10.3508 6.35201 10.4283 6.15429 10.5077C4.67223 11.1032 3.40064 12.2865 2.71098 13.712C2.63987 13.859 2.5754 13.9856 2.56774 13.9932C2.5416 14.0193 2.01528 13.2002 1.84441 12.8675C0.433766 10.1204 0.809947 6.8356 2.80827 4.45143C4.37871 2.57776 6.86222 1.56036 9.31655 1.78522ZM9.24901 5.03615C10.1558 5.28708 10.8634 6.00849 11.0924 6.91546C11.119 7.02047 11.1393 7.26974 11.1393 7.48927C11.1393 7.90438 11.0983 8.12418 10.9598 8.45125C10.647 9.18996 9.98122 9.75881 9.19836 9.95634C8.95725 10.0172 8.29134 10.0172 8.05023 9.95634C7.26737 9.75881 6.60163 9.18996 6.28879 8.45125C6.15028 8.12418 6.10925 7.90438 6.10925 7.48927C6.10925 7.07417 6.15028 6.85436 6.28879 6.52729C6.60281 5.78579 7.31752 5.17859 8.05175 5.02957C8.15306 5.00898 8.26635 4.98511 8.30349 4.97654C8.42756 4.94782 9.07801 4.98883 9.24901 5.03615ZM9.33526 11.0858C10.4845 11.246 11.4817 11.703 12.3388 12.4623C12.9871 13.0366 13.5582 13.8742 13.8525 14.6826L13.9215 14.8721L13.6283 15.1239C12.8246 15.8141 11.9881 16.2924 11.0211 16.6145C9.46378 17.1334 7.78481 17.1334 6.2275 16.6145C5.26051 16.2924 4.42399 15.8141 3.6203 15.1239L3.32706 14.8721L3.39604 14.6826C3.43397 14.5784 3.53868 14.3413 3.62871 14.1556C4.65852 12.0323 7.01836 10.7628 9.33526 11.0858Z" fill="black"/>
</svg>
