<svg width="64" height="64" viewBox="0 0 64 64" fill="none" xmlns="http://www.w3.org/2000/svg">
<path fill-rule="evenodd" clip-rule="evenodd" d="M28.242 8.10988C27.0947 8.37092 25.9025 9.1723 25.3631 10.0452C25.1847 10.3337 25.0896 10.3824 24.5805 10.446C22.0896 10.7572 20.5155 12.5914 20.489 15.214C20.4807 16.0249 20.4786 16.0314 20.1354 16.2665C19.561 16.66 18.6456 17.7128 18.3508 18.3188C17.3599 20.3556 17.4869 23.5348 18.6278 25.2553C19.0036 25.8221 19.7823 26.6198 20.2128 26.8791C20.4673 27.0324 20.4804 27.0816 20.4882 27.9161C20.5121 30.4486 21.9764 32.2002 24.4137 32.6119C25.0982 32.7276 25.1705 32.7647 25.4434 33.1399C26.4687 34.5499 28.2888 35.3136 29.9467 35.0293C30.7384 34.8935 31.0832 34.739 31.5935 34.2909L31.9494 33.9784L32.3052 34.2909C32.8156 34.739 33.1603 34.8935 33.952 35.0293C35.6099 35.3136 37.4301 34.5499 38.4553 33.1399C38.7282 32.7647 38.8005 32.7276 39.485 32.6119C41.9287 32.1991 43.3866 30.4497 43.4106 27.9009C43.4153 27.4108 43.4508 27.0097 43.4897 27.0097C43.653 27.0097 44.6949 26.0288 45.0904 25.5026C46.3868 23.7777 46.5932 20.4683 45.5394 18.3015C45.252 17.7103 44.3317 16.6559 43.7634 16.2665C43.4202 16.0314 43.418 16.0249 43.4097 15.214C43.3832 12.5914 41.8091 10.7572 39.3183 10.446C38.8091 10.3824 38.714 10.3337 38.5356 10.0452C38.424 9.86448 38.1105 9.50882 37.8389 9.25486C36.3027 7.81793 33.7272 7.5739 32.3688 8.73661L31.9494 9.09562L31.5323 8.73864C30.7777 8.09265 29.4406 7.83718 28.242 8.10988ZM30.1989 10.25C30.3364 10.3401 30.5471 10.6264 30.6673 10.8864L30.8857 11.359V21.5396V31.7202L30.6673 32.1928C30.5471 32.4527 30.3355 32.7397 30.1968 32.8305C29.3551 33.3821 27.6674 32.9034 27.0866 31.9484C26.8904 31.6257 26.8904 31.6255 27.1153 31.3847C27.5165 30.9549 27.8923 30.8248 28.6749 30.8443C29.571 30.8667 29.9027 30.6507 29.9917 29.9869C30.0398 29.6286 30.0068 29.5253 29.7531 29.2415C29.5044 28.9631 29.3653 28.9017 28.8554 28.845C27.4283 28.6863 26.1295 29.2211 25.4059 30.2654C25.1299 30.6635 25.1042 30.6761 24.6849 30.6186C23.7605 30.4919 22.892 29.7696 22.6358 28.9144C22.5647 28.6769 22.5117 28.0132 22.5166 27.4182C22.5268 26.1394 22.4131 25.8849 21.5971 25.3615C20.9315 24.9344 20.3388 24.2868 20.0815 23.7053C19.6069 22.6323 19.6069 20.4469 20.0815 19.3739C20.3326 18.8063 20.8845 18.1979 21.5481 17.757C22.4675 17.1463 22.4747 17.1309 22.5021 15.7004C22.5219 14.6764 22.5667 14.3468 22.7422 13.939C23.1466 12.9989 24.1083 12.4227 25.2731 12.4227C25.6836 12.4227 25.7896 12.4673 26.0144 12.7344C26.2368 12.9987 26.2766 13.1446 26.2766 13.6951C26.2766 14.268 26.3111 14.3827 26.5702 14.6726C26.809 14.9401 26.9395 15.0013 27.2712 15.0013C28.0072 15.0013 28.3182 14.5303 28.3196 13.4137C28.3206 12.6356 28.0375 11.8943 27.51 11.2935L27.1938 10.9334L27.419 10.7284C28.1562 10.057 29.5408 9.81879 30.1989 10.25ZM35.7721 10.2956C36.3147 10.5356 36.666 10.8314 36.8669 11.2175C36.9949 11.4634 36.9822 11.5018 36.68 11.7864C36.2477 12.1935 35.8386 12.315 35.1194 12.2498C34.5927 12.202 34.4884 12.2241 34.2423 12.4359C34.0516 12.5999 33.9451 12.8085 33.9071 13.0923C33.8591 13.4502 33.8917 13.5528 34.1412 13.8276C34.3645 14.0736 34.5652 14.1712 35.0137 14.2523C36.2801 14.4813 37.7588 13.8732 38.4854 12.8246C38.6385 12.6036 38.8406 12.4227 38.9343 12.4227C39.3597 12.4227 40.1993 12.7675 40.5537 13.0877C41.1842 13.6573 41.3683 14.2278 41.3966 15.7004C41.4241 17.1309 41.4313 17.1463 42.3507 17.757C43.0143 18.1979 43.5661 18.8063 43.8173 19.3739C44.2918 20.4469 44.2918 22.6323 43.8173 23.7053C43.56 24.2868 42.9673 24.9344 42.3016 25.3615C41.4857 25.8849 41.3719 26.1394 41.3821 27.4182C41.3926 28.7099 41.2582 29.2081 40.7413 29.7954C40.2685 30.3327 39.492 30.6565 38.6771 30.6565C38.2037 30.6565 38.0812 30.6159 37.8705 30.3885C37.6572 30.1583 37.6221 30.0226 37.6221 29.4278C37.6221 28.8135 37.5902 28.6993 37.3408 28.4201C37.0077 28.0475 36.4853 27.9827 36.0598 28.2616C35.7 28.4973 35.5801 28.8474 35.5791 29.6655C35.5781 30.4455 35.8613 31.1851 36.393 31.7905L36.7134 32.1554L36.3958 32.4228C35.9624 32.7873 35.4568 32.9839 34.7896 33.0472C34.0176 33.1204 33.6008 32.8959 33.2663 32.2267L33.013 31.7202V21.5902C33.013 12.1075 33.0246 11.4304 33.1939 10.9915C33.2934 10.7337 33.4594 10.4462 33.5629 10.3526C34.0123 9.94592 34.9282 9.92232 35.7721 10.2956ZM7.97512 14.1297C7.03415 14.4548 6.41967 15.0669 6.1566 15.9409C5.93931 16.6631 5.95197 34.0063 6.17078 35.2608C6.44591 36.839 7.14102 38.3207 8.21044 39.6091C8.56782 40.0397 10.1018 41.3465 12.8507 43.5622L16.9571 46.8722V50.9759C16.9571 55.4785 16.962 55.5175 17.5616 55.8276C17.8115 55.9569 18.4521 55.9812 21.5865 55.9809C25.1 55.9806 25.3328 55.9692 25.6373 55.7835C25.8543 55.6512 25.9954 55.4603 26.0672 55.2015C26.207 54.6982 26.2124 43.5594 26.0735 42.0956C25.8901 40.1608 25.3268 38.5343 24.2959 36.9626C23.8175 36.2332 23.0174 35.3877 19.7838 32.1939L15.8531 28.3118L15.8227 24.1407L15.7922 19.9695L15.5215 19.4566C14.9745 18.4201 13.9505 17.7703 12.8482 17.7599L12.2202 17.754L12.1545 17.089C12.0462 15.9933 11.8263 15.4808 11.1922 14.8474C10.3084 13.9646 9.18088 13.713 7.97512 14.1297ZM53.7292 14.1128C53.4521 14.2143 53.052 14.5013 52.7071 14.8463C52.0724 15.4809 51.8524 15.9933 51.7442 17.089L51.6786 17.754L51.0505 17.7599C49.9482 17.7703 48.9243 18.4201 48.3772 19.4566L48.1066 19.9695L48.0761 24.1409L48.0456 28.3123L44.1154 32.1941C40.8856 35.3843 40.0816 36.2339 39.6033 36.9626C38.5982 38.4937 38.023 40.1262 37.8272 42.002C37.7721 42.5313 37.7261 45.6667 37.7251 48.9696C37.7232 55.5549 37.7197 55.5131 38.3182 55.8226C38.7696 56.056 45.8868 56.0605 46.3372 55.8276C46.9368 55.5175 46.9416 55.4782 46.9416 50.9795V46.8795L51.064 43.5543C54.4864 40.7939 55.296 40.0917 55.8317 39.4189C56.5814 38.4773 57.2744 37.1271 57.5993 35.9747L57.8277 35.1643L57.8583 25.8068C57.8924 15.4127 57.9144 15.7899 57.2246 14.9839C56.47 14.1023 54.8561 13.7002 53.7292 14.1128ZM9.76396 16.2555C9.95481 16.4464 10.0733 16.6932 10.1168 16.99C10.1702 17.3552 10.158 20.78 10.0683 30.6565C10.0587 31.7055 10.3255 32.053 14.4246 36.3357C16.4582 38.4604 18.2451 40.2626 18.3956 40.3406C18.7411 40.5198 18.8265 40.5183 19.2323 40.3257C19.5996 40.1514 19.7935 39.8174 19.7935 39.3591C19.7935 38.9982 19.9505 39.1751 15.5219 34.5476C11.8995 30.7628 11.8215 30.6563 12.1294 29.9195C12.4584 29.132 13.3937 28.9056 14.0814 29.447C14.8512 30.0529 22.0489 37.302 22.49 37.9156C23.0842 38.7423 23.593 39.8645 23.8696 40.9585C24.0898 41.8301 24.0949 41.9852 24.0968 47.8774L24.0987 53.9046L21.5409 53.9317L18.9831 53.9587V50.0048V46.051L18.6539 45.7033C18.4727 45.512 16.496 43.883 14.261 42.0833C12.0261 40.2836 9.98256 38.5604 9.71989 38.2539C9.45723 37.9475 9.04352 37.2865 8.80061 36.7851C8.02445 35.1832 8.04258 35.4557 8.04431 25.4185C8.04522 20.5272 8.07936 16.4771 8.12028 16.4181C8.47898 15.9016 9.32625 15.8178 9.76396 16.2555ZM55.4535 16.1395C55.5913 16.2339 55.7375 16.3592 55.7785 16.4181C55.8194 16.4771 55.8535 20.5272 55.8544 25.4185C55.8561 35.4557 55.8743 35.1832 55.0981 36.7851C54.3557 38.3174 54.4724 38.2068 48.5852 42.9542C46.7313 44.4492 45.1473 45.7683 45.0651 45.8857C44.9396 46.0648 44.9156 46.729 44.9156 50.0289V53.9587L42.3578 53.9317L39.8 53.9046L39.8013 47.8774C39.8024 41.9772 39.8071 41.8312 40.0285 40.9585C40.3061 39.8635 40.8152 38.7414 41.4088 37.9156C41.8498 37.302 49.0475 30.0529 49.8173 29.447C50.505 28.9056 51.4403 29.132 51.7693 29.9195C52.0469 30.5838 51.8557 30.9338 50.3987 32.4292C47.7071 35.1916 47.6507 35.2581 47.6507 35.6667C47.6507 36.1499 47.787 36.3911 48.1725 36.5904C48.8123 36.9213 48.984 36.8043 51.1637 34.5519C53.4532 32.186 53.8392 31.6222 53.8305 30.6565C53.7407 20.78 53.7286 17.3552 53.782 16.99C53.9092 16.1202 54.7787 15.6777 55.4535 16.1395ZM25.2 19.6364C24.613 19.8254 23.9178 20.4465 23.6021 21.0636C23.0237 22.1946 23.1687 23.438 23.9839 24.3385C24.38 24.776 24.4714 24.8273 24.8554 24.8273C25.2146 24.8273 25.3339 24.7717 25.5893 24.4859C25.8477 24.1967 25.8863 24.0851 25.8419 23.7547C25.8132 23.5403 25.6713 23.2241 25.5266 23.0522C25.0021 22.4288 25.3608 21.624 26.2209 21.495C27.1251 21.3594 27.5002 20.4177 26.8922 19.8097C26.6351 19.5526 26.525 19.5149 26.0565 19.524C25.7597 19.5296 25.3742 19.5803 25.2 19.6364ZM37.0181 19.7982C36.3986 20.4176 36.7643 21.358 37.6778 21.495C38.538 21.624 38.8967 22.4288 38.3721 23.0522C38.2275 23.2241 38.0856 23.5403 38.0568 23.7547C38.0124 24.0851 38.051 24.1967 38.3094 24.4859C38.5648 24.7717 38.6841 24.8273 39.0433 24.8273C39.4272 24.8273 39.5187 24.7759 39.9133 24.3402C40.9293 23.2179 40.8842 21.4527 39.8121 20.382C39.2607 19.8313 38.7214 19.5847 37.9551 19.533C37.3632 19.4931 37.3075 19.5088 37.0181 19.7982ZM13.1549 19.8602C13.7976 20.1287 13.8168 20.2453 13.8168 23.8644V27.111H13.2663C12.9635 27.111 12.5988 27.1555 12.4559 27.2098L12.196 27.3086V23.6105V19.9123L12.424 19.8207C12.7363 19.6951 12.7634 19.6966 13.1549 19.8602ZM51.4429 19.815L51.7027 19.9137V23.6112V27.3086L51.4429 27.2098C51.2999 27.1555 50.9352 27.111 50.6325 27.111H50.0819L50.0834 23.8442C50.085 20.2496 50.0937 20.1932 50.6911 19.8937C51.104 19.6865 51.1048 19.6864 51.4429 19.815ZM44.8424 38.2308C44.7185 38.3272 44.5662 38.5532 44.5039 38.7332C44.3405 39.2054 44.6306 39.7703 45.133 39.9585C46.111 40.3247 46.8818 39.0903 46.139 38.3474C45.791 37.9994 45.2077 37.947 44.8424 38.2308Z" fill="#A39E60"/>
</svg>
