<svg width="64" height="64" viewBox="0 0 64 64" fill="none" xmlns="http://www.w3.org/2000/svg">
<path fill-rule="evenodd" clip-rule="evenodd" d="M32.5992 8.1168C30.1527 8.37211 26.7812 8.94744 24.8881 9.43264C22.954 9.92834 20.8162 10.9028 19.5248 11.8772C18.0557 12.9857 16.6396 14.8054 15.6623 16.8409C15.1101 17.991 14.8107 18.8545 14.4082 20.4576C14.2584 21.0539 13.9556 21.9825 13.7353 22.5211C12.8082 24.7872 12.7314 25.1948 13.0848 25.9736C13.1871 26.199 13.5871 26.7085 13.9738 27.1058C14.3604 27.5032 14.6768 27.9056 14.6768 28.0002C14.6768 28.2287 13.6418 30.2008 12.8903 31.404C12.5595 31.9337 11.8357 32.9889 11.2818 33.7489C9.96787 35.5521 9.7952 36.0351 10.1801 36.8304C10.4262 37.3388 10.9174 37.781 11.7331 38.229C12.7773 38.8024 12.9886 38.9883 12.988 39.3329C12.9876 39.5016 12.8028 39.9968 12.5659 40.4642C12.248 41.0911 12.1444 41.4016 12.1444 41.7269C12.1444 42.1291 12.1799 42.1921 12.6692 42.6548C13.1756 43.1336 13.1906 43.1615 13.0913 43.446C12.9248 43.9237 12.9644 44.5011 13.1827 44.7786C13.2895 44.9145 13.6747 45.2182 14.0388 45.4537L14.7007 45.8819L14.6373 46.6029C14.6024 46.9996 14.5503 47.6043 14.5216 47.9467C14.4331 48.9989 14.8099 50.2585 15.4204 50.9521C16.2859 51.9352 17.3148 52.161 18.9914 51.7356C20.465 51.3616 22.3552 50.8052 23.7643 50.3307L25.0198 49.9079L25.3688 50.1844C26.4284 51.0235 27.4844 52.8418 28.086 54.8627C28.2007 55.2482 28.3906 55.6532 28.5147 55.7772L28.7374 56H39.1131H49.4889L49.7631 55.7258C50.2261 55.2628 50.1159 54.8706 49.1016 53.3738C48.0967 51.8905 47.4536 50.0422 46.942 47.1659C46.2897 43.4981 46.7005 40.3433 48.1771 37.6808C48.7292 36.6852 48.9439 36.3628 50.0197 34.9135C51.5853 32.8046 52.2424 31.6091 52.753 29.94C53.2144 28.4317 53.271 27.9723 53.2634 25.7982C53.2483 21.4483 52.3599 18.2223 50.4442 15.5617C48.8371 13.3296 45.0523 10.5767 41.8065 9.27919C39.0628 8.18227 35.8537 7.77717 32.5992 8.1168ZM37.9672 9.85181C40.7349 10.3381 43.4925 11.6147 46.2286 13.6763C49.497 16.1387 50.8753 18.5523 51.4912 22.8906C51.7254 24.5403 51.7729 26.6908 51.6002 27.8148C51.2433 30.1372 50.6879 31.2617 48.1961 34.7087C46.2029 37.4658 45.335 39.6987 45.0719 42.7457C44.7861 46.0567 45.9496 51.4442 47.4605 53.8062C47.6397 54.0862 47.7862 54.3356 47.7862 54.3604C47.7862 54.3852 43.7026 54.4054 38.7116 54.4052L29.637 54.405L29.3681 53.6314C28.978 52.5093 28.2465 51.1526 27.5046 50.1756C27.1485 49.7063 26.8745 49.3049 26.896 49.2835C26.9174 49.262 27.6063 49.0117 28.4267 48.7271C30.6534 47.9548 31.7282 47.3885 32.6016 46.5271C33.404 45.7357 33.7031 45.1289 33.742 44.2133C33.7617 43.7504 33.7368 43.6735 33.5008 43.4705C33.356 43.3459 33.118 43.244 32.9719 43.244C32.5348 43.244 32.3172 43.5046 32.1531 44.225C32.0195 44.8118 31.9512 44.9306 31.4773 45.4002C31.132 45.7424 30.6751 46.0598 30.1529 46.3201C28.6822 47.0536 20.4152 49.7995 18.2284 50.281C17.1504 50.5183 16.5785 50.1855 16.2594 49.135C16.0517 48.4511 16.0538 48.0822 16.2721 46.902C16.4826 45.7631 15.9816 44.6561 15.0375 44.1745C14.6219 43.9625 14.6108 43.9196 14.864 43.5042C15.0933 43.1282 15.102 42.6992 14.8858 42.4401C14.7573 42.2862 14.3608 41.9617 13.8423 41.5864C13.8219 41.5715 13.9634 41.2474 14.157 40.8661C14.5948 40.0035 14.6984 39.1648 14.4481 38.5093C14.2547 38.003 13.684 37.4759 12.8153 37.0011C11.971 36.5398 11.5587 36.2168 11.6176 36.0634C11.6444 35.9936 12.0349 35.4387 12.4855 34.8302C14.4949 32.1165 16.2723 28.9363 16.2704 28.0577C16.269 27.395 15.9073 26.7319 15.1487 26.0014C14.6612 25.5319 14.4892 25.3022 14.4892 25.1204C14.4892 24.9852 14.7226 24.3203 15.0078 23.6428C15.293 22.9655 15.6279 22.0442 15.7519 21.5957C15.876 21.1472 16.0927 20.3582 16.2335 19.8423C16.6386 18.3589 17.3289 16.8624 18.1373 15.7154C19.6491 13.5702 20.9342 12.5606 23.3734 11.6018C25.2888 10.8489 29.0241 10.1089 33.1074 9.6735C34.3618 9.53975 36.6735 9.62454 37.9672 9.85181ZM35.9841 12.1066C35.6717 12.1521 35.4002 12.2583 35.2603 12.3898C35.0559 12.5819 35.0339 12.6862 35.0097 13.5827L34.9833 14.5651L34.1391 14.9289C33.6748 15.129 33.2516 15.2929 33.1987 15.293C33.1457 15.2932 32.8091 14.9978 32.4508 14.6367C31.5868 13.7659 31.4007 13.7559 30.4236 14.5264C29.6556 15.132 28.7103 16.1234 28.2703 16.7847C27.8694 17.3873 27.9366 17.6204 28.7466 18.436L29.3993 19.0932L29.0324 19.9836L28.6654 20.874L27.6654 20.9209C26.7219 20.9652 26.6532 20.9822 26.4474 21.2218C26.1952 21.5155 26.0806 22.2567 26.0806 23.5941C26.0806 24.9321 26.1952 25.6727 26.4476 25.9663C26.6555 26.2082 26.7135 26.2218 27.665 26.2525C28.5848 26.282 28.6707 26.3007 28.7473 26.487C28.7929 26.5982 28.963 27.0009 29.1253 27.3817L29.4202 28.0741L28.757 28.7417C27.8735 29.6313 27.8445 29.7913 28.4231 30.5846C28.9468 31.3024 30.1747 32.5178 30.7844 32.9215C31.4587 33.3682 31.6518 33.3218 32.4851 32.5125L33.2012 31.817L33.5295 31.9926C33.71 32.0891 34.1216 32.2578 34.444 32.3674L35.0302 32.5667V33.5482C35.0302 34.4562 35.0469 34.5463 35.2528 34.7523C35.5454 35.0449 36.0911 35.1308 37.6564 35.1308C39.2217 35.1308 39.7674 35.0449 40.06 34.7523C40.266 34.5463 40.2827 34.4562 40.2827 33.5482V32.5667L40.8689 32.3674C41.1913 32.2578 41.6028 32.0891 41.7834 31.9926L42.1116 31.817L42.8278 32.5125C43.661 33.3218 43.8542 33.3682 44.5284 32.9215C45.1381 32.5178 46.3661 31.3024 46.8897 30.5846C47.4683 29.7913 47.4393 29.6313 46.5558 28.7417L45.8927 28.0741L46.1876 27.3817C46.3498 27.0009 46.5199 26.5982 46.5656 26.487C46.6421 26.3007 46.728 26.282 47.6478 26.2525C48.5993 26.2218 48.6574 26.2082 48.8652 25.9663C49.1152 25.6755 49.2252 24.9602 49.2301 23.5941C49.2348 22.2701 49.119 21.5171 48.8654 21.2218C48.6596 20.9822 48.591 20.9652 47.6474 20.9209L46.6474 20.874L46.2804 19.9836L45.9135 19.0932L46.5662 18.436C47.3762 17.6204 47.4434 17.3873 47.0425 16.7847C46.6025 16.1234 45.6573 15.132 44.8893 14.5264C43.9121 13.7559 43.726 13.7659 42.862 14.6367C42.5037 14.9978 42.1672 15.2932 42.1142 15.293C42.0612 15.2929 41.638 15.129 41.1737 14.9289L40.3296 14.5651L40.3031 13.5827C40.2706 12.3765 40.1691 12.2351 39.239 12.1007C38.5372 11.9992 36.699 12.0026 35.9841 12.1066ZM38.6883 14.4257C38.6885 15.6533 38.8053 15.8313 39.8137 16.1413C40.2522 16.2761 40.9601 16.5668 41.387 16.7873C41.9726 17.09 42.2237 17.1731 42.4101 17.1264C42.546 17.0923 42.9432 16.7883 43.2928 16.4507L43.9283 15.8371L44.2661 16.0948C44.4519 16.2365 44.7894 16.5677 45.0161 16.8308L45.4282 17.3092L44.7782 17.9796C43.984 18.7987 43.9716 18.907 44.5421 20.047C44.7698 20.5019 45.0454 21.1786 45.1548 21.5509C45.4184 22.4483 45.5238 22.5154 46.6685 22.5154H47.5723L47.6245 23.0204C47.6531 23.2982 47.6532 23.7835 47.6246 24.0991L47.5725 24.6727H46.6685C45.5176 24.6727 45.4346 24.7285 45.1141 25.7185C44.9782 26.1384 44.7007 26.8126 44.4976 27.2167C43.9725 28.2609 43.9916 28.397 44.7763 29.2083L45.4244 29.8783L45.0343 30.3148C44.8197 30.5549 44.4844 30.8877 44.2891 31.0544L43.934 31.3573L43.2438 30.6882C42.7403 30.1999 42.4864 30.019 42.3048 30.019C42.1679 30.019 41.7518 30.1843 41.3803 30.3866C41.0087 30.5887 40.3383 30.8672 39.8903 31.0053C38.7876 31.3454 38.7425 31.4063 38.7031 32.6079L38.6711 33.5832H37.6585H36.646L36.6098 32.6058C36.5652 31.4028 36.5219 31.3444 35.4225 31.0053C34.9746 30.8672 34.3041 30.5887 33.9325 30.3866C33.561 30.1843 33.1449 30.019 33.0081 30.019C32.8264 30.019 32.5725 30.1999 32.069 30.6882L31.3789 31.3573L31.0238 31.0544C30.8285 30.8877 30.4932 30.5549 30.2786 30.3148L29.8885 29.8783L30.5365 29.2083C31.3199 28.3984 31.3386 28.2665 30.8177 27.231C30.6158 26.8299 30.3384 26.1537 30.2012 25.7284C29.8781 24.7274 29.7974 24.6727 28.6444 24.6727H27.7405L27.6846 24.1334C27.6538 23.8368 27.6539 23.3513 27.6848 23.0548L27.741 22.5154H28.6447C29.789 22.5154 29.8945 22.4483 30.158 21.5509C30.2674 21.1786 30.5431 20.5019 30.7707 20.047C31.3417 18.906 31.3293 18.7991 30.5306 17.9753L29.8766 17.3009L30.2887 16.8297C30.5154 16.5706 30.8546 16.2413 31.0427 16.0978L31.3845 15.8371L32.02 16.4507C32.3696 16.7883 32.7668 17.0923 32.9027 17.1264C33.0891 17.1731 33.3402 17.09 33.9258 16.7873C34.3527 16.5668 35.0607 16.2761 35.4991 16.1413C36.5075 15.8313 36.6243 15.6533 36.6245 14.4257L36.6247 13.605H37.6564H38.6882L38.6883 14.4257ZM20.7223 18.6188C20.5406 18.8003 20.4921 18.9457 20.4921 19.3071C20.4921 19.7096 20.4624 19.7788 20.2481 19.8764C20.027 19.9772 19.9696 19.9565 19.6382 19.6571C19.0942 19.1656 18.5374 19.2338 18.29 19.8222C18.1433 20.171 18.2304 20.4707 18.5869 20.8445C18.7689 21.0353 18.8125 21.1547 18.7668 21.3369C18.7148 21.5439 18.6551 21.5775 18.3391 21.5775C17.8026 21.5775 17.4982 21.7256 17.3603 22.0537C17.0946 22.6856 17.4787 23.172 18.2434 23.172C18.6446 23.172 18.6957 23.1964 18.7502 23.4135C18.7972 23.6006 18.7467 23.7281 18.5259 23.9796C18.1238 24.4375 18.1097 24.8736 18.4859 25.212C18.8291 25.5209 19.2045 25.4842 19.6293 25.1004C19.9506 24.8102 20.0094 24.7892 20.2157 24.8917C20.4081 24.9872 20.4498 25.0842 20.4734 25.4927C20.4962 25.8858 20.5484 26.0166 20.744 26.1704C21.3162 26.6205 21.9611 26.2608 22.0565 25.4383C22.1357 24.7563 22.3656 24.6615 22.8606 25.1065C23.2909 25.4934 23.7363 25.5337 24.0259 25.212C24.4067 24.7891 24.3671 24.3969 23.8937 23.9007C23.6806 23.6773 23.6632 23.6143 23.7569 23.4083C23.8487 23.2071 23.9269 23.172 24.2835 23.172C24.8538 23.172 25.2193 22.8645 25.2193 22.3848C25.2193 21.8881 24.9435 21.6512 24.3037 21.5981C23.8481 21.5603 23.7829 21.5285 23.7301 21.3184C23.6834 21.1321 23.736 21.0139 23.976 20.7663C24.381 20.3485 24.3992 19.8725 24.0229 19.5487C23.6478 19.2261 23.2856 19.2605 22.8425 19.6608C22.528 19.945 22.4434 19.9797 22.2794 19.892C22.1506 19.8231 22.0866 19.6954 22.0866 19.5077C22.0866 18.579 21.2846 18.0564 20.7223 18.6188ZM36.484 18.519C34.7082 18.9526 33.3219 20.234 32.734 21.9853C32.5482 22.5388 32.4977 22.8775 32.4977 23.5702C32.4977 25.0785 32.9608 26.1898 34.0349 27.2598C36.0837 29.3005 39.2292 29.3005 41.2779 27.2598C41.9748 26.5656 42.3936 25.8708 42.6639 24.9605C42.8618 24.2938 42.8626 22.8986 42.6654 22.2277C41.8761 19.5422 39.1042 17.8791 36.484 18.519ZM38.9928 20.2636C39.7401 20.5432 40.4775 21.2379 40.8666 22.0289C41.1516 22.6082 41.1737 22.721 41.1737 23.5927C41.1737 24.4138 41.1423 24.599 40.9242 25.0643C40.4233 26.1329 39.4233 26.8949 38.2426 27.1077C36.6946 27.3868 35.0747 26.528 34.3886 25.0643C34.1706 24.5992 34.1391 24.4137 34.1391 23.5941C34.1391 22.7744 34.1706 22.589 34.3886 22.1239C35.2173 20.3563 37.1516 19.5747 38.9928 20.2636ZM21.7972 21.4327C22.0765 21.5771 22.3679 22.0798 22.3679 22.4171C22.3679 22.6965 22.1285 23.132 21.8786 23.307C21.7617 23.3889 21.4767 23.4534 21.2314 23.4534C20.88 23.4534 20.7371 23.4009 20.5092 23.188C19.5622 22.3034 20.64 20.8343 21.7972 21.4327ZM22.3168 27.4354C22.1202 27.6319 22.0866 27.7536 22.0866 28.2668V28.8679L21.6561 29.0324L21.2258 29.1967L20.8823 28.8631C20.4224 28.4162 20.0712 28.288 19.7132 28.4363C19.4073 28.563 19.1859 28.9812 19.2492 29.3126C19.2719 29.4313 19.4702 29.7048 19.6899 29.9204L20.0893 30.3124L19.9397 30.7284L19.7901 31.1445L19.3204 31.1447C18.7317 31.1449 18.225 31.3895 18.1067 31.7307C17.8944 32.3426 18.4338 32.8324 19.3204 32.8326L19.7901 32.8328L19.9397 33.2489L20.0893 33.665L19.6856 34.0612C19.4635 34.2791 19.2676 34.5456 19.2501 34.6535C19.1622 35.1968 19.6823 35.729 20.1794 35.6042C20.3059 35.5725 20.5953 35.375 20.8227 35.1655L21.2359 34.7845L21.6613 34.9469L22.0866 35.1094V35.7105C22.0866 36.2238 22.1202 36.3454 22.3168 36.5419C22.6086 36.8337 23.0273 36.8415 23.3531 36.5611C23.5566 36.3859 23.6093 36.24 23.6632 35.702L23.728 35.054L24.1267 34.9088L24.5254 34.7637L24.9239 35.1449C25.4079 35.608 25.5615 35.668 25.9323 35.5387C26.5959 35.3074 26.6096 34.604 25.9634 33.9423L25.6254 33.5963L25.7681 33.238C25.9091 32.8837 25.9178 32.879 26.5413 32.8161C27.3198 32.7376 27.6204 32.5072 27.6204 31.9887C27.6204 31.4702 27.3198 31.2397 26.5413 31.1612C25.9178 31.0984 25.9091 31.0936 25.7681 30.7393L25.6254 30.381L25.9634 30.035C26.6096 29.3733 26.5959 28.6699 25.9323 28.4386C25.5615 28.3093 25.4079 28.3693 24.9239 28.8324L24.5254 29.2137L24.1267 29.0686L23.728 28.9234L23.6632 28.2753C23.6093 27.7373 23.5566 27.5914 23.3531 27.4162C23.0273 27.1358 22.6086 27.1436 22.3168 27.4354ZM23.5589 30.5908C24.3757 30.9861 24.6676 31.9912 24.1982 32.7921C23.6414 33.7422 22.3901 33.8389 21.6442 32.9895C21.1197 32.3922 21.1196 31.5853 21.6439 30.9882C22.1794 30.3783 22.8379 30.2417 23.5589 30.5908Z" fill="#E86851"/>
</svg>
