<svg width="64" height="64" viewBox="0 0 64 64" fill="none" xmlns="http://www.w3.org/2000/svg">
<path fill-rule="evenodd" clip-rule="evenodd" d="M21.8305 8.07336C18.5037 8.66847 15.7871 11.1545 14.8395 14.4707C14.5067 15.636 14.5067 17.843 14.8395 19.0082C15.1583 20.1237 15.6619 21.13 16.3644 22.0551C16.6972 22.4932 20.2488 26.1245 24.4052 30.2762C31.4006 37.2636 31.8711 37.7125 32.1997 37.7125C32.5283 37.7125 32.9988 37.2636 39.9942 30.2762C44.1506 26.1245 47.7022 22.4932 48.0349 22.0551C48.7374 21.13 49.2411 20.1237 49.5598 19.0082C49.8918 17.846 49.8926 15.6378 49.5612 14.4707C48.6999 11.4363 46.3852 9.12212 43.3416 8.25254C42.1923 7.92423 39.967 7.9199 38.8387 8.24377C36.9636 8.78221 35.9882 9.42391 33.8392 11.5331L32.2017 13.1404L30.5622 11.5352C28.4158 9.43389 27.4267 8.77939 25.6148 8.26152C24.7764 8.02184 22.6964 7.91849 21.8305 8.07336ZM8.82783 9.64735C8.70945 10.0769 8.62223 10.4356 8.63403 10.4443C8.64583 10.4531 9.63096 10.7191 10.8233 11.0353C12.0156 11.3516 13.0629 11.6306 13.1504 11.6554C13.2748 11.6907 13.3508 11.5354 13.4977 10.9457C13.601 10.5305 13.6655 10.1712 13.6409 10.1472C13.6163 10.1231 12.6224 9.84458 11.4322 9.52817C10.2421 9.21166 9.21765 8.93336 9.15564 8.90956C9.08838 8.88375 8.95629 9.1809 8.82783 9.64735ZM52.8702 9.50871C51.6224 9.84337 50.5922 10.1229 50.5808 10.1299C50.5524 10.1475 50.9303 11.6065 50.9748 11.6511C51.0123 11.6885 55.5146 10.4982 55.5795 10.4336C55.6327 10.3807 55.281 8.98105 55.2035 8.93699C55.168 8.91682 54.118 9.17405 52.8702 9.50871ZM25.4943 9.9202C26.9008 10.3736 27.4248 10.7578 29.7407 13.0339C31.6362 14.8969 31.9056 15.1262 32.1997 15.1262C32.4937 15.1262 32.7631 14.8969 34.6587 13.0339C36.9671 10.7652 37.4845 10.3847 38.905 9.91153C39.6193 9.67357 39.8675 9.64281 41.0729 9.64281C42.2782 9.64281 42.5265 9.67357 43.2408 9.91153C44.3834 10.2922 45.2403 10.8252 46.1138 11.6986C46.9872 12.5721 47.5202 13.429 47.9008 14.5716C48.1388 15.2859 48.1695 15.5341 48.1695 16.7395C48.1695 17.9448 48.1388 18.1931 47.9008 18.9074C47.3461 20.5727 47.4798 20.421 39.5388 28.3856L32.1997 35.7463L24.8605 28.3856C16.9195 20.421 17.0532 20.5727 16.4985 18.9074C16.2606 18.1931 16.2298 17.9448 16.2298 16.7395C16.2298 15.5341 16.2606 15.2859 16.4985 14.5716C17.3253 12.0892 19.2827 10.3207 21.8644 9.72328C22.803 9.50598 24.4943 9.59774 25.4943 9.9202ZM22.3686 11.2635C22.2576 11.289 22.0009 11.3524 21.7981 11.4043L21.4294 11.4989L21.6973 12.2579C21.9292 12.9148 21.9923 13.0092 22.1669 12.9598C22.2778 12.9284 22.584 12.8749 22.8475 12.8408L23.3265 12.7789V11.9863V11.1937L22.9483 11.2054C22.7404 11.2119 22.4795 11.238 22.3686 11.2635ZM19.0968 13.1769C17.4131 15.0855 17.3575 18.2818 18.9753 20.1678L19.278 20.5207L19.8389 19.9708C20.3673 19.4528 20.3908 19.4091 20.2464 19.2146C20.1621 19.1011 19.9472 18.7133 19.7688 18.3528C19.4723 17.7536 19.4444 17.6151 19.4444 16.7395C19.4444 15.9066 19.4804 15.7048 19.7201 15.1931C19.8718 14.8694 20.1396 14.4232 20.3153 14.2013L20.6347 13.7979L20.0807 13.2437L19.5265 12.6897L19.0968 13.1769ZM8 15.9328V16.7395H10.42H12.8399V15.9328V15.1262H10.42H8V15.9328ZM51.4586 15.9328V16.7395H53.8785H56.2985V15.9328V15.1262H53.8785H51.4586V15.9328ZM10.9241 20.7938C9.67633 21.1307 8.64805 21.4112 8.63907 21.4173C8.6301 21.4232 8.71722 21.7817 8.83267 22.2138C8.95891 22.6859 9.08767 22.9822 9.15553 22.9562C9.21755 22.9324 10.2421 22.654 11.4322 22.3375C12.6224 22.021 13.6163 21.7425 13.6409 21.7184C13.7018 21.6591 13.3253 20.166 13.2516 20.1745C13.2193 20.1781 12.1719 20.4568 10.9241 20.7938ZM50.8511 20.5963C50.7899 20.832 50.6986 21.1811 50.6482 21.3721C50.5978 21.5631 50.5667 21.7254 50.579 21.7328C50.6134 21.7534 55.0246 22.9084 55.1347 22.9255C55.2341 22.941 55.6578 21.5101 55.5776 21.4299C55.5425 21.3948 51.0778 20.1678 50.9853 20.1678C50.9726 20.1678 50.9122 20.3605 50.8511 20.5963ZM49.8906 37.0532C46.9472 37.5879 44.6771 39.1058 42.8374 41.7694L42.2324 42.6452L38.7537 43.8088C36.8405 44.4488 35.208 44.9724 35.126 44.9724C35.044 44.9724 36.3485 43.5981 38.0249 41.9184C40.7729 39.165 41.0729 38.8321 41.0729 38.536C41.0729 38.3173 40.9859 38.1205 40.8127 37.9474L40.5525 37.6871L38.5692 37.7417C36.2794 37.8047 35.1988 37.9942 33.5105 38.6291C31.9378 39.2205 30.5921 40.0333 29.1719 41.2496L28.6145 41.7269L25.6932 41.7704C22.5443 41.8172 22.2296 41.862 20.7391 42.4765C19.311 43.0653 18.8704 43.4511 13.45 48.8576L8.26216 54.032L8.66045 54.4764C9.4297 55.3348 8.81936 55.7926 14.6433 49.9881C20.0037 44.6455 20.3091 44.3771 21.6123 43.8625C22.6782 43.4415 23.4715 43.3591 26.4607 43.3591H29.2747L29.9918 42.7011C31.9154 40.9357 34.1485 39.8463 36.6019 39.4766C38.5994 39.1755 38.7948 38.8299 34.5894 43.0364C31.9049 45.7216 30.8968 46.7917 30.9417 46.9086C30.9758 46.9974 31.2315 47.2622 31.5099 47.4969L32.016 47.9237L32.6901 47.2547L33.3643 46.5857H34.4709H35.5775L39.3802 45.3182L43.1829 44.0506L43.6577 43.3771C45.1702 41.2323 46.0597 40.3393 47.4253 39.5948C48.1291 39.2112 49.576 38.6899 49.7967 38.7404C49.8818 38.76 49.0903 40.0919 47.645 42.3621L45.3588 45.953L39.9134 48.286L34.468 50.619H28.7256H22.9832L20.8751 52.7203C18.5089 55.079 18.6224 54.8465 19.4671 55.6034L19.9098 56L21.7955 54.1162L23.6813 52.2323L29.2766 52.2253L34.8717 52.2182L40.6633 49.7287L46.455 47.239L49.4086 42.6019C51.4483 39.3994 52.3627 37.8774 52.3641 37.6828C52.3653 37.5159 52.265 37.2998 52.1185 37.1534C51.9056 36.9403 51.7825 36.9072 51.2362 36.9149C50.8872 36.92 50.2816 36.9822 49.8906 37.0532Z" fill="#8BC1AC"/>
</svg>
