<svg width="1220" height="402" viewBox="0 0 1220 402" fill="none" xmlns="http://www.w3.org/2000/svg">
<path fill-rule="evenodd" clip-rule="evenodd" d="M1220 0H0V402H1220V0ZM680.649 64.0549C692.053 70.4083 691.539 81.6319 689.354 91.3359C687.517 99.2272 690.603 100.729 696.204 102.761C704.046 105.617 712.126 109.151 715.065 117.408C717.029 122.941 717.558 128.822 718.087 134.698C718.433 138.545 718.779 142.391 719.527 146.136C721.923 158.179 720.266 169.929 718.61 181.667C717.524 189.362 716.439 197.052 716.497 204.817C716.497 205.989 716.313 207.856 715.616 208.223C706.917 212.782 707.61 219.73 708.303 226.668C708.634 229.983 708.964 233.297 708.27 236.346C708.047 237.307 708.216 238.454 708.386 239.611C708.806 242.468 709.236 245.392 703.825 245.757C702.196 245.871 703.024 247.671 703.617 248.958C703.692 249.121 703.763 249.276 703.825 249.419C707.921 259.159 708.435 269.449 708.545 279.812C711.097 282.903 710.183 286.281 709.303 289.529C709.24 289.764 709.176 289.997 709.114 290.23C706.81 298.454 706.552 307.114 708.362 315.46C709.28 319.543 709.5 323.388 704.689 325.439C700.587 326.752 696.158 326.617 692.145 325.054C688.472 322.821 689.042 319.562 689.941 316.193C693.263 304.477 693.085 292.05 689.427 280.435C689.226 278.363 689.2 276.264 689.175 274.132C689.104 268.296 689.031 262.208 685.332 255.717C685.332 261.409 684.8 266.566 684.289 271.513V271.513V271.514L684.289 271.515C683.875 275.526 683.476 279.399 683.385 283.309C683.22 286.605 683.318 289.912 683.415 293.218V293.218C683.6 299.5 683.785 305.78 682.173 311.982L682.107 312.114C681.565 313.198 680.864 314.601 679.841 314.618C675.775 314.722 671.772 315.576 667.771 316.43C661.199 317.832 654.631 319.233 647.794 317.31C647.056 316.597 646.533 315.693 646.283 314.7C646.033 313.707 646.067 312.664 646.38 311.689C648.258 307.503 652.091 306.113 655.841 304.754C656.602 304.478 657.36 304.204 658.097 303.907C665.443 300.959 668.656 295.998 666.398 288.253C665.549 285.318 665.835 282.427 666.12 279.538C666.242 278.3 666.365 277.062 666.398 275.821C666.284 273.323 666.179 270.825 666.073 268.325L666.072 268.294L666.072 268.288C665.819 262.297 665.566 256.302 665.204 250.316C664.947 245.848 664.267 242.186 657.858 243.615C651.449 245.043 647.537 243.102 650.879 235.339C652.002 232.208 652.754 228.958 653.12 225.653C653.159 225.422 653.201 225.193 653.241 224.967C653.802 221.84 654.283 219.158 650.053 216.7C646.38 214.503 644.084 210.182 645.186 204.286C646.701 196.163 645.509 187.777 644.332 179.501L644.315 179.381L644.196 178.541L644.139 178.14C642.942 169.765 644.453 161.581 645.966 153.384L645.967 153.383C647.1 147.244 648.235 141.098 648.235 134.857C648.235 134.207 648.452 133.527 648.666 132.857C648.935 132.019 649.198 131.196 649.024 130.463C645.572 116.053 652.202 108.071 665.461 103.914C671.521 102.083 671.521 96.9202 668.638 93.1119C666.644 90.4778 666.187 87.7474 665.724 84.9812L665.724 84.9804L665.724 84.9796L665.724 84.9788L665.724 84.978L665.723 84.9772L665.723 84.9764L665.723 84.9757L665.723 84.975L665.723 84.9743L665.722 84.9737L665.722 84.9731L665.722 84.9725L665.722 84.972L665.722 84.9714V84.9709L665.721 84.9654V84.9649C665.516 83.7371 665.309 82.5023 664.965 81.2657C662.36 71.128 668.311 67.8325 674.933 64.1654L675.231 64L680.649 64.0549ZM583.003 261.266C583.738 254.528 581.332 250.024 574.151 248.907L574.133 248.856C571.728 246.56 572.175 243.854 572.622 241.148C572.986 238.942 573.35 236.736 572.167 234.754L572.121 234.7L572.131 234.752C565.399 237.882 564.009 233.847 562.623 229.825C562.325 228.96 562.026 228.095 561.676 227.302C561.601 227.157 561.53 227.005 561.461 226.844C562.318 214.577 560.271 202.647 558.223 190.714L558.223 190.712L558.223 190.71L558.222 190.707L558.222 190.705L558.221 190.703L558.221 190.701L558.221 190.698L558.22 190.696L558.22 190.694L558.22 190.692C557.328 185.499 556.437 180.306 555.786 175.084C555.145 169.9 557.044 165.009 558.951 160.099C559.94 157.552 560.931 155 561.571 152.398C564.032 142.347 567.98 133.247 580.762 132.789C582.011 132.789 584.638 132.313 584.931 130.079C584.969 129.616 584.915 129.151 584.772 128.709C584.629 128.267 584.4 127.857 584.098 127.503C583.796 127.15 583.427 126.859 583.012 126.647C582.598 126.436 582.145 126.308 581.681 126.271C576.337 125.209 575.18 121.913 575.822 117.116C575.91 116.477 575.645 115.766 575.385 115.069C575.101 114.308 574.823 113.563 575.014 112.942C575.932 110.068 573.127 107.572 571.259 105.909C569.914 104.712 569.054 103.948 570.423 103.787C573.919 103.307 576.891 101.773 579.812 100.266C582.906 98.6694 585.943 97.1021 589.486 96.8478C595.73 96.4084 601.588 98.2393 604.49 103.604C607.392 108.969 609.1 115.414 604.49 121.913C601.368 126.161 600.211 131.416 608.475 132.295C620.339 133.576 623.92 142.182 627.905 151.996C634.656 168.719 631.976 185.136 629.284 201.624C629.105 202.719 628.926 203.814 628.75 204.91C627.706 210.565 627.361 216.326 627.722 222.065C628.217 228.492 625.995 233.179 620.376 236.328C620.343 236.354 620.312 236.381 620.281 236.407C620.264 236.422 620.247 236.437 620.231 236.452C619.69 238.196 619.741 240.18 619.792 242.17C619.907 246.669 620.022 251.2 613.305 253.061C612.764 253.212 612.749 255.246 612.734 257.271C612.727 258.201 612.72 259.129 612.662 259.872L612.658 259.964L612.681 259.946C614.83 263.77 614.756 267.859 614.681 271.962V271.963C614.643 274.068 614.605 276.176 614.866 278.255C613.516 285.531 612.16 292.808 610.798 300.084L610.807 300.08C610.8 300.104 610.792 300.128 610.785 300.152L610.771 300.226L610.756 300.25C609.809 303.524 611.353 305.973 612.897 308.423C613.466 309.326 614.036 310.23 614.48 311.175L614.474 311.183C614.753 311.557 614.909 312.008 614.922 312.475L614.893 312.544C614.92 312.539 614.948 312.534 614.976 312.53L618.208 318.352C618.138 318.4 618.068 318.447 617.998 318.493L618.084 318.46L618.172 318.426L620.229 322.087C619.987 322.583 619.868 323.129 619.88 323.68C616.739 329.338 611.689 329.008 607.281 326.463C603.514 324.295 600.473 321.227 600.688 316.953C600.024 317.72 599.253 318.394 598.393 318.952C597.014 319.847 595.452 320.415 593.827 320.619C591.858 323.445 588.847 324.314 584.968 323.847C581.295 323.408 581.056 320.881 580.873 318.135L583.278 316.304L583.283 316.309L583.517 312.879L583.558 312.875L583.517 312.843C583.282 310.279 584.681 308.536 586.081 306.793C586.974 305.68 587.868 304.567 588.337 303.24C588.312 303.218 588.289 303.195 588.268 303.17C588.258 303.158 588.249 303.147 588.24 303.135C588.229 303.119 588.218 303.102 588.208 303.085C587.544 302.843 586.938 302.456 586.437 301.949C586.208 301.287 585.975 300.626 585.743 299.965C583.596 293.856 581.446 287.74 581.479 281.131C581.674 280.428 581.893 279.728 582.124 279.03L581.314 278.11C581.584 276.05 581.578 273.967 581.573 271.883V271.883C581.564 268.298 581.555 264.716 582.948 261.265C583.013 261.447 583.061 261.651 583.108 261.855C583.209 262.288 583.31 262.72 583.573 262.931C583.726 263.056 583.876 263.181 584.023 263.306C583.756 262.632 583.419 261.952 583.003 261.266ZM601.536 307.022L601.533 306.982C601.541 306.865 601.548 306.747 601.554 306.63C601.623 305.387 601.692 304.16 603.37 303.741L603.436 303.709C603.07 303.482 602.688 303.202 602.286 302.863C602.023 300.749 601.545 298.659 601.07 296.582C599.812 291.082 598.575 285.674 601.391 280.175C599.353 277.876 599.257 275.078 599.161 272.275C599.107 270.695 599.052 269.113 598.65 267.617C598.392 266.368 598.348 265.075 598.303 263.781V263.78C598.275 262.95 598.246 262.12 598.162 261.3C598.042 264.296 598.282 267.3 598.523 270.303V270.304V270.305V270.306V270.307V270.308V270.309V270.31V270.311V270.312V270.313V270.313V270.314V270.315V270.316V270.317V270.318V270.319V270.32V270.321V270.322V270.323V270.324V270.324V270.325V270.326V270.327V270.328V270.329V270.33V270.331V270.332V270.333V270.334V270.335V270.335V270.336V270.337V270.338V270.339V270.34V270.341V270.342V270.343V270.344V270.345V270.346V270.346V270.347V270.348V270.349V270.35V270.351V270.352V270.353V270.354V270.355V270.356V270.357V270.357V270.358V270.359C598.902 275.123 599.281 279.885 598.246 284.61C597.227 288.313 596.732 292.14 596.777 295.98C596.73 297.246 596.55 298.378 596.218 299.352C596.227 299.546 596.235 299.74 596.244 299.934C596.409 303.413 597.328 306.47 601.533 307.02L601.536 307.022ZM537.799 251.029C537.826 251.036 537.853 251.042 537.88 251.049C529.304 252.349 526.476 257.146 528.147 265.587C528.719 268.329 528.55 271.188 528.381 274.035C528.301 275.389 528.22 276.74 528.22 278.074C527.757 278.143 527.305 278.279 526.88 278.476L526.862 278.487L526.88 278.512C527.041 281.033 526.569 283.543 526.097 286.053C525.334 290.107 524.57 294.163 526.476 298.267L526.476 298.294L532.279 303.466C537.898 304.455 538.523 308.208 537.531 312.877L537.403 312.859C533.194 316.398 529.404 317.629 526.961 311.098C523.12 310.867 521.178 308.62 520.806 304.871C520.523 304.94 520.234 305.003 519.938 305.06C519.132 305.08 518.337 304.874 517.642 304.467C516.948 304.059 516.381 303.465 516.008 302.753C514.325 295.715 512.897 288.694 517.149 281.999C516.869 282.067 516.587 282.125 516.302 282.175C515.666 281.868 515.103 281.431 514.651 280.891C514.402 280.594 514.189 280.271 514.017 279.927L508.515 280.013L508.488 279.4C508.247 279.601 507.979 279.771 507.688 279.904C507.56 279.991 507.433 280.074 507.307 280.153C507.97 280.509 508.618 280.923 509.249 281.405C510.065 288.375 508.932 295.172 507.799 301.966C506.943 307.095 506.088 312.222 506.072 317.42C504.682 320.441 502.694 323.071 500.708 325.698L500.708 325.699C499.782 326.924 498.856 328.149 497.991 329.413C494.19 334.997 489.342 336.736 483.3 332.708C480.104 328.405 480.655 325.238 485.981 323.499C495.163 318.775 497 310.682 496.026 301.399C495.471 296.204 494.882 291 494.293 285.799L494.291 285.777C494.005 283.251 493.719 280.725 493.437 278.201C493.874 278.021 494.322 277.869 494.778 277.744L494.862 277.748L494.833 277.725L495.439 265.256L495.637 265.314L495.568 265.239L493.015 249.255L493.042 249.198C491.969 247.003 491.636 244.57 491.304 242.136V242.136C490.835 238.701 490.365 235.262 487.812 232.481C485.093 232.39 485.783 233.832 486.466 235.262C487.133 236.655 487.793 238.037 485.283 237.974C480.196 237.846 478.249 233.213 478.121 230.027C477.785 222.15 476.503 214.458 475.222 206.767C474.121 200.156 473.02 193.545 472.519 186.817C471.878 178.081 474.634 170.72 477.386 163.368L477.386 163.368C478.574 160.197 479.76 157.028 480.673 153.751C481.099 152.455 481.777 151.255 482.669 150.222C483.561 149.188 484.649 148.34 485.871 147.727C495.696 143.394 494.843 135.366 493.966 127.121L493.951 126.983C493.737 125.158 493.737 123.314 493.951 121.49C495.641 108.673 499.461 102.979 507.137 102.302C514.483 101.642 519.809 106.787 522.6 119.604C523.076 121.78 523.404 123.978 523.729 126.152V126.152C525.07 135.139 526.351 143.719 537.752 148.642C543.261 150.968 549.523 161.459 548.311 166.641C546.672 173.57 548.398 179.775 550.103 185.898C551.51 190.955 552.902 195.956 552.37 201.264C551.781 205.555 552.724 209.917 555.033 213.586C560.304 221.166 557.071 226.402 550.919 231.639C550.425 230.178 549.954 228.798 549.496 227.454L549.493 227.447L549.471 227.382C548.932 225.803 548.411 224.273 547.889 222.722C546.824 223.01 546.766 223.877 546.71 224.715C546.651 225.582 546.595 226.418 545.428 226.549C543.849 226.713 543.353 225.56 543.279 224.315C543.013 222.199 543.013 220.059 543.279 217.943C546.952 201.373 540.378 187.239 532.719 173.342C532.596 173.107 532.267 172.974 531.631 172.719C531.226 172.556 530.698 172.344 530.02 172.023C530.496 175.122 530.537 178.28 530.578 181.388V181.389C530.696 190.272 530.808 198.751 541.039 204.285C542.174 205.085 542.977 206.27 543.298 207.618C543.619 208.966 543.436 210.385 542.783 211.608C538.399 220.633 537.778 231.021 541.057 240.5C542.196 243.997 542.618 248.538 537.972 250.918C537.883 250.95 537.796 250.979 537.71 251.006C537.739 251.014 537.769 251.021 537.799 251.029ZM525.949 277.48C525.781 276.924 525.573 276.449 524.962 276.89C525.305 277.021 525.634 277.218 525.949 277.48ZM375.616 323.369C378.076 325.95 377.672 327.946 374.734 330.033C372.019 331.962 370.809 330.326 369.452 328.491C369.399 328.419 369.345 328.347 369.291 328.274L369.238 328.203C369.197 328.148 369.156 328.092 369.114 328.037C368.515 327.26 367.904 326.503 367.297 325.753C363.893 321.538 360.638 317.508 360.373 310.918C360.152 305.279 359.124 297.534 350.547 295.557C348.023 294.973 347.928 292.848 347.832 290.703C347.783 289.618 347.734 288.527 347.37 287.629C346.102 284.354 344.922 281.019 343.689 277.537L343.689 277.536C343.137 275.977 342.575 274.388 341.989 272.762C340.2 273.759 339.966 275.207 339.747 276.561C339.661 277.097 339.577 277.617 339.4 278.09C338.723 279.99 338.341 281.996 337.96 284.001V284.001C336.947 289.335 335.935 294.66 329.354 297.974C326.085 299.603 324.047 307.385 324.598 311.98C325.335 317.924 322.175 321.008 319.014 324.092C317.608 325.464 316.203 326.835 315.14 328.459C313.744 330.546 311.853 330.839 309.832 328.971C307.482 326.774 307.831 323.954 309.961 322.691C320.107 316.742 319.405 308.054 318.704 299.375C318.469 296.461 318.233 293.549 318.409 290.741C318.598 287.892 318.579 285.025 318.561 282.153C318.553 280.836 318.544 279.518 318.556 278.199C319.316 276.552 319.817 274.799 320.043 273C319.608 263.801 320.132 254.617 320.656 245.43C321.326 233.697 321.996 221.959 320.668 210.18C319.863 202.999 316.807 196.851 313.766 190.733C312.154 187.492 310.547 184.259 309.281 180.885C306.123 172.463 303.497 164.407 303.919 155.435C303.897 150.586 303.18 145.764 301.789 141.118C300.98 137.785 302.762 136.027 305.462 134.728C307.5 133.775 309.759 133.025 311.577 134.252C313.842 135.775 313.287 138.269 312.768 140.597C312.744 140.704 312.721 140.81 312.697 140.916C308.859 158.017 315.048 172.408 324.91 187.294C326.525 182.116 327.148 176.681 326.746 171.273C325.92 161.368 330.548 160.617 337.912 160.837C346.559 161.111 351.807 164.628 351.742 173.86L351.796 173.764C352.261 173.835 352.735 173.817 353.192 173.709L353.19 173.734C357.757 156.953 355.489 139.05 346.874 123.925C347.545 123.822 348.062 123.716 348.448 123.637C349.026 123.519 349.313 123.46 349.39 123.559C350.67 125.323 352.981 125.951 355.304 126.581C359.249 127.653 363.228 128.733 362.246 135.405C361.615 139.409 362.417 143.347 363.217 147.28L363.217 147.281C363.815 150.218 364.413 153.154 364.413 156.113C364.691 170.915 362.608 185.667 358.242 199.817C354.815 211.359 355.816 223.759 361.052 234.605C364.04 241.11 363.755 247.822 363.47 254.515C363.241 259.917 363.012 265.306 364.505 270.564C364.749 271.444 364.88 272.362 365.011 273.281C365.265 275.061 365.521 276.849 366.598 278.383C368.018 279.96 369.035 281.855 369.562 283.908C370.09 285.961 370.113 288.11 369.629 290.174C367.351 301.873 367.517 313.317 375.616 323.369ZM393.632 255.113C393.209 259.818 394.182 262.125 399.141 261.851C404.653 264.886 403.958 269.579 403.264 274.265C403.163 274.95 403.062 275.635 402.98 276.314C403.212 277.621 403.211 278.961 403.209 280.301C403.207 282.774 403.204 285.245 404.669 287.501C404.721 287.378 404.773 287.259 404.826 287.141C404.785 287.309 404.733 287.473 404.669 287.632L408.797 309.178C408.615 309.866 408.538 310.606 408.461 311.347V311.348C408.237 313.508 408.012 315.674 405.165 316.558L400.977 321.85C403.953 329.851 405.403 330.089 411.996 323.681L415.467 317.968L415.547 310.455C416.128 309.34 416.651 308.205 417.01 307.019C416.932 306.117 417.007 305.184 417.082 304.249C417.258 302.069 417.434 299.883 415.662 298.074C416.22 297.124 416.608 296.174 416.862 295.227C417.854 298.944 418.088 302.831 417.542 306.654C416.85 314.233 417.604 321.875 419.764 329.174C421.417 332.598 423.86 335.271 428.047 334.429C431.591 333.715 433.924 331.61 432.749 327.435L432.234 324.249C426.211 317.933 425.917 310.151 427.478 302.37C428.961 295.04 429.346 287.533 428.622 280.091L428.635 280.067C428.718 279.738 428.805 279.408 428.893 279.079C428.98 278.749 429.067 278.42 429.15 278.09C427.332 274.554 429.469 272.794 431.482 271.137C432.784 270.065 434.033 269.037 434.127 267.599C434.246 265.823 434.378 264.045 434.511 262.266C435.216 252.805 435.924 243.309 434.641 233.8L434.622 233.801C434.541 231.92 434.455 230.038 434.368 228.157C434.238 225.337 434.108 222.517 433.998 219.698L434.016 219.683V201.441C434.023 201.365 434.029 201.288 434.034 201.21C438.681 188.375 440.572 186.471 454.603 187.35C460.492 187.715 463.814 184.323 466.955 181.115C468.065 179.981 469.153 178.871 470.323 177.957C472.902 175.905 467.363 170.11 464.037 166.631L464.037 166.631L464.037 166.631L463.785 166.368C459.809 162.172 454.957 159.101 450.096 156.023L450.095 156.023C449.547 155.676 448.998 155.328 448.451 154.979C447.595 154.416 446.72 153.903 445.849 153.392C443.097 151.777 440.39 150.189 438.479 147.143C435.963 143.133 433.318 140.13 427.809 140.332C425.127 140.442 423.217 138.922 424.044 134.528C425.182 128.449 416.073 121.986 408.305 122.206C401.712 122.389 395.321 128.266 396.625 134.601C397.745 139.947 396.313 142.566 391.887 144.543L391.765 144.594C390.139 145.277 388.272 146.061 388.398 148.205C388.787 155.187 384.867 159.982 380.979 164.74C379.912 166.046 378.847 167.349 377.874 168.693C377.511 169.199 377.145 169.703 376.78 170.207L376.772 170.217C373.361 174.923 369.983 179.585 368.325 185.171C366.158 192.22 368.71 194.454 375.946 193.905C382.109 193.267 387.997 191.033 393.025 187.423L393.125 187.813L393.22 188.186L393.377 188.803C395.319 196.397 397.181 203.678 395.743 210.585C393.88 219.609 393.949 228.646 394.018 237.668V237.669C394.062 243.492 394.107 249.31 393.632 255.113ZM415.96 284.344C415.922 284.184 415.883 284.024 415.845 283.865C415.885 283.88 415.924 283.896 415.964 283.912C416.709 283.656 416.703 282.993 416.697 282.335C416.69 281.582 416.683 280.835 417.8 280.708C417.167 281.466 417.251 281.904 417.581 282.23C416.969 283.085 416.478 284.017 416.121 285L416.032 284.636L415.96 284.344ZM144.635 327.508C156.262 321.096 156.393 310.786 156.523 300.524C156.567 297.042 156.611 293.565 157.104 290.248C157.557 287.232 155.419 287.224 153.307 287.216H153.307C152.508 287.213 151.712 287.21 151.062 287.044C146.049 285.213 146.067 282.119 148.638 278.255C148.799 276.831 149.274 275.299 149.75 273.767C151.341 268.641 152.929 263.524 142.706 262.509C140.314 262.264 141.094 259.716 141.708 257.713C141.782 257.471 141.853 257.237 141.917 257.017C142.548 254.921 143.192 252.829 143.836 250.737C145.234 246.193 146.634 241.648 147.904 237.059C149.097 232.775 148.95 228.82 142.743 229.736C136.427 230.599 134.757 224.733 133.874 221.629C133.801 221.376 133.735 221.14 133.671 220.929C131.834 214.759 136.077 208.479 140.135 203.828C142.468 201.118 147.481 202.107 151.154 204.396C152.048 205.174 152.828 206.074 153.47 207.069L157.472 206.813L157.513 206.85C157.858 205.386 158.011 203.884 157.968 202.382C156.866 195.387 159.492 190.169 166.048 187.881C170.841 186.214 175.12 188.759 177.802 192.788C179.475 195.217 180.21 198.167 179.873 201.095C179.535 204.022 178.147 206.729 175.965 208.717C169.427 214.484 171.429 217.157 177.471 220.416C182.466 223.119 184.026 227.814 185.66 232.734C186.484 235.213 187.326 237.749 188.637 240.117C189.254 238.848 189.646 237.411 190.032 235.994C191.128 231.972 192.181 228.11 198.223 228.692C201.419 229.003 203.733 230.523 204.082 233.434C204.651 239.971 200.409 244.548 196.111 248.613C192.898 251.587 189.67 250.636 186.12 249.59C184.009 248.969 181.785 248.313 179.381 248.43C181.576 254.231 181.629 260.248 181.682 266.293C181.723 270.97 181.764 275.664 182.797 280.288C184.036 284.493 183.892 288.769 183.747 293.066C183.647 296.028 183.547 299 183.899 301.966C184.17 304.253 184.322 306.551 184.474 308.846V308.846C184.875 314.928 185.276 320.987 187.902 326.757C188.506 327.988 188.82 329.341 188.82 330.712C188.82 332.082 188.506 333.435 187.902 334.667C184.027 338.328 179.932 339.372 175.414 335.765C173.963 333.978 172.92 331.899 172.355 329.67C171.791 327.441 171.719 325.116 172.145 322.857C173.497 314.129 171.366 305.963 169.224 297.757L169.222 297.752C168.92 296.595 168.618 295.437 168.325 294.276C168.024 296.976 167.621 299.662 167.218 302.345C166.194 309.162 165.174 315.957 165.846 322.894C166.14 324.248 166.072 325.656 165.65 326.976C165.228 328.296 164.466 329.483 163.44 330.419C160.416 332.511 156.934 333.854 153.284 334.337C148.62 334.667 143.625 334.593 144.635 327.508ZM253.658 299.923C254.709 291.909 255.761 283.896 258.699 276.241C259.171 272.24 260.067 268.301 260.966 264.347C262.515 257.536 264.073 250.681 263.492 243.394C262.39 231.31 263.86 220.691 279.617 219.025C283.267 218.683 286.825 216.583 290.222 214.579C290.824 214.223 291.421 213.871 292.013 213.532C292.735 213.119 293.442 212.684 294.146 212.252L294.15 212.25L294.15 212.25C298.029 209.867 301.78 207.563 307.017 209.376C307.535 209.541 308.083 209.592 308.622 209.527C309.162 209.462 309.682 209.282 310.145 208.999C310.609 208.716 311.006 208.336 311.309 207.886C311.612 207.436 311.815 206.926 311.902 206.391C312.052 204.707 310.898 204.323 309.734 203.937C309.19 203.756 308.645 203.575 308.229 203.26C304.611 200.551 301.857 200.734 297.523 202.803C284.245 209.138 270.379 214.081 254.42 215.052C258.919 209.87 259.397 204.158 258.662 198.372C257.854 191.909 254.659 187.862 247.313 188.064C241.969 188.21 237.579 189.84 235.541 194.985C233.062 201.173 233.796 207.234 238.7 212.012C238.785 212.097 238.87 212.178 238.952 212.258C240.067 213.344 240.824 214.079 240.242 215.546C239.777 216.721 238.881 216.408 238.015 216.104C237.719 216.001 237.428 215.899 237.157 215.857C221.73 213.459 207.461 208.259 194.918 198.811C193.422 197.686 191.839 198.087 190.261 198.488C188.681 198.888 187.105 199.288 185.625 198.152C186.828 199.778 185.867 200.754 184.893 201.744C184.068 202.582 183.234 203.429 183.697 204.689C184.845 207.777 186.309 206.912 187.815 206.022C188.693 205.504 189.585 204.977 190.437 205.219C193.016 206.109 195.407 207.469 197.489 209.229C204.931 214.532 213.038 218.841 221.602 222.046C233.558 226.733 235.486 231.091 232.309 243.907C231.771 246.069 231.173 248.228 230.574 250.39L230.574 250.391L230.573 250.391L230.573 250.391L230.573 250.391L230.573 250.392L230.573 250.392L230.573 250.392L230.573 250.393L230.573 250.393L230.573 250.393L230.573 250.393L230.573 250.394L230.572 250.394C227.918 259.972 225.246 269.618 227.717 279.848C226.959 282.181 227.361 284.423 227.765 286.677C227.939 287.643 228.112 288.611 228.195 289.589C228.483 293.043 229.154 296.469 229.825 299.895C231.164 306.728 232.503 313.562 230.803 320.623C230.716 320.892 230.628 321.161 230.54 321.43C229.155 325.666 227.771 329.902 231.501 333.879C233.137 334.795 234.986 335.265 236.862 335.243C238.738 335.22 240.575 334.706 242.189 333.751C243.19 332.788 243.913 331.575 244.285 330.239C244.656 328.903 244.662 327.492 244.301 326.153C243.906 324.658 243.63 323.16 243.444 321.676C249.32 331.782 253.889 333.278 260.425 327.269C260.728 324.481 259.088 323.084 257.366 321.617C256.793 321.128 256.21 320.632 255.687 320.074C255.425 319.794 255.156 319.518 254.888 319.243C253.013 317.321 251.163 315.422 251.757 312.347C252.565 308.246 253.11 304.096 253.655 299.946L253.655 299.946L253.655 299.945L253.655 299.945L253.655 299.945L253.655 299.944L253.655 299.944L253.655 299.944L253.655 299.943L253.655 299.943L253.655 299.942L253.655 299.942L253.655 299.942L253.655 299.941L253.655 299.941L253.655 299.941L253.655 299.94L253.655 299.94L253.656 299.939L253.656 299.939L253.656 299.939L253.656 299.938L253.656 299.938L253.656 299.938L253.656 299.937L253.656 299.937L253.656 299.937L253.656 299.936L253.656 299.936L253.656 299.935L253.656 299.935L253.656 299.935L253.656 299.934L253.656 299.934L253.656 299.934L253.656 299.933L253.656 299.933L253.656 299.933L253.656 299.932L253.656 299.932L253.657 299.931L253.657 299.931L253.657 299.931L253.657 299.93L253.657 299.93L253.657 299.93L253.657 299.929L253.657 299.929L253.657 299.928L253.657 299.928L253.657 299.928L253.657 299.927L253.657 299.927L253.657 299.927L253.657 299.926L253.657 299.926L253.657 299.926L253.657 299.925L253.657 299.925L253.657 299.924L253.657 299.924L253.657 299.924L253.658 299.923L253.658 299.923L253.658 299.923ZM243.196 318.963C243.124 316.043 243.189 313.175 243.278 310.548C243.129 313.178 243.02 316.026 243.196 318.963ZM73.9899 332.871C73.9899 332.433 73.8954 331.928 73.8034 331.437C73.6454 330.592 73.4947 329.788 73.8429 329.429C81.5319 321.502 83.4302 311.567 85.3302 301.623C86.3663 296.2 87.403 290.774 89.3797 285.67L88.59 285.322C89.1409 278.95 87.4697 274.977 79.9585 273.952C77.1344 273.562 74.5093 271.748 71.8813 269.933C70.6813 269.104 69.4806 268.274 68.2601 267.58C69.0651 266.287 67.8682 266.039 66.7044 265.798C65.346 265.517 64.0328 265.245 66.0011 263.332L66.1352 263.204C67.3846 262.005 68.7652 260.681 71.0699 263.332C72.65 265.112 75.3259 265.997 77.8995 266.848C78.5563 267.065 79.2064 267.28 79.8299 267.507C85.7985 269.704 88.8104 267.305 88.2594 261.227C88.0178 258.18 88.0178 255.119 88.2594 252.072C88.7185 245.481 92.0977 241.324 98.9662 240.885C105.835 240.446 109.049 244.126 109.985 250.424C110.016 250.645 110.048 250.866 110.08 251.087C110.596 254.659 111.115 258.25 108.002 261.922C116.016 261.15 121.879 257.291 127.621 253.511C130.866 251.375 134.072 249.265 137.606 247.751C132.298 257.18 124.218 263.735 115.568 269.429C112.06 271.718 110.059 273.878 110.848 278.108C112.76 280.075 112.327 282.286 111.894 284.498C111.549 286.26 111.203 288.021 112.042 289.661C112.508 294.116 113.567 298.467 114.625 302.819C116.069 308.751 117.513 314.687 117.46 320.897C117.46 322.994 118.976 324.223 120.388 325.368C120.591 325.533 120.792 325.695 120.986 325.859C125.32 329.649 123.796 332.468 119.627 335.013C116.471 335.694 114.566 333.944 112.663 332.196C112.007 331.594 111.352 330.993 110.646 330.491C108.586 327.767 107.973 324.582 107.361 321.398C106.952 319.274 106.544 317.151 105.706 315.166C105.637 315.005 105.568 314.843 105.499 314.68C104.376 312.031 103.198 309.252 99.7375 309.252C96.6998 309.252 95.4047 311.833 94.2587 314.117L94.2561 314.122C94.1975 314.239 94.1392 314.355 94.0811 314.47C91.6138 319.295 89.4905 324.288 87.7268 329.411C87.5851 329.615 87.4442 329.821 87.3034 330.027L87.3009 330.031C85.3632 332.864 83.4314 335.688 79.1871 334.903L73.9899 332.871ZM811.893 267.308C811.966 265.917 812.036 264.528 812.107 263.139L812.107 263.13L812.108 263.121L812.108 263.111L812.109 263.102L812.11 263.093L812.11 263.084L812.111 263.074L812.111 263.065L812.112 263.056L812.112 263.047L812.113 263.037L812.113 263.028L812.114 263.019L812.115 263.01L812.115 263L812.116 262.991L812.116 262.982L812.117 262.973L812.117 262.963L812.118 262.954L812.118 262.945L812.119 262.936L812.119 262.926L812.12 262.917L812.121 262.908L812.121 262.899L812.122 262.889L812.122 262.88L812.123 262.871L812.123 262.862L812.124 262.852L812.124 262.843L812.125 262.834L812.125 262.825L812.126 262.815L812.127 262.806L812.127 262.797L812.128 262.788L812.128 262.778L812.129 262.769L812.129 262.76L812.13 262.751L812.13 262.741L812.131 262.732L812.132 262.722L812.132 262.713L812.133 262.703L812.133 262.694L812.134 262.685C812.377 257.878 812.619 253.078 812.94 248.266C812.94 247.944 812.963 247.578 812.987 247.202C813.076 245.805 813.174 244.259 812.132 244.201C804.435 243.758 805.397 239.378 806.277 235.37C806.525 234.242 806.766 233.145 806.806 232.172C807.047 227.61 807.063 223.024 807.08 218.439C807.121 206.628 807.163 194.816 811.049 183.392C810.86 183.35 810.684 183.263 810.535 183.139C810.381 183.011 810.262 182.848 810.185 182.664C801.609 195.261 797.532 208.462 806.072 224.208C800.323 219.392 797.826 219.795 797.605 226.039C797.605 228.382 796.357 230.378 793.804 230.323C791.719 230.278 791.153 228.719 790.555 227.071C790.421 226.702 790.286 226.328 790.131 225.965C787.234 219.746 788.973 213.98 790.697 208.266C791.4 205.939 792.099 203.621 792.482 201.284C793.982 192.122 795.817 183.009 797.652 173.897L797.653 173.895L797.653 173.893L797.653 173.891L797.654 173.889L797.654 173.887L797.654 173.885L797.655 173.883L797.655 173.88L797.655 173.878L797.656 173.876L797.656 173.874L797.657 173.872L797.657 173.87L797.657 173.867L797.658 173.865L797.658 173.863L797.658 173.861L797.659 173.859L797.659 173.857L797.659 173.855L797.66 173.852L797.66 173.85L797.661 173.848L797.661 173.846L797.661 173.844L797.662 173.84C799.819 163.124 801.976 152.409 803.592 141.614C805.062 131.691 809.102 125.136 818.633 122.664C823.282 121.457 822.662 120.456 820.66 117.223L820.47 116.915C814.673 107.72 818.796 99.3274 822.774 91.2296L822.777 91.2227C823.298 90.1636 823.815 89.1096 824.308 88.0595C825.457 85.3466 827.522 83.1201 830.145 81.7657C832.768 80.4114 835.784 80.0147 838.669 80.6442C839.068 80.7069 839.46 80.7531 839.847 80.7986C841.492 80.992 843.034 81.1732 844.491 82.5667C852.774 90.4946 857.108 107.925 852.663 118.49C852.48 118.91 852.117 119.313 851.768 119.699C850.964 120.591 850.236 121.398 851.966 122.151C853.431 122.769 854.987 123.243 856.543 123.715C861.07 125.092 865.586 126.465 867.814 131.398C868.504 132.892 869.12 134.414 869.736 135.938C871.385 140.013 873.035 144.093 876.097 147.638C879.688 142.346 880.427 136.233 881.145 130.289V130.288C881.356 128.542 881.566 126.81 881.845 125.118C883.296 116.292 888.291 112.209 895.472 109.097C897.078 108.235 898.741 107.482 900.449 106.845C907.978 104.794 912.276 102.103 907.574 92.9481C905.83 89.4168 904.939 85.527 904.974 81.5906C905.009 77.6543 905.969 73.7809 907.776 70.2811C910.935 64.4038 918.795 64.4221 925.205 66.6193C928.178 67.4555 930.765 69.2988 932.521 71.832C934.278 74.3652 935.094 77.4296 934.828 80.4977C934.76 83.5249 933.939 86.4879 932.44 89.1214C927.886 96.6282 930.402 100.821 938.115 103.183C938.931 103.572 939.779 103.89 940.65 104.135C957.472 105.856 965.112 116.128 967.242 131.91C967.909 136.409 969.061 140.822 970.676 145.075C975.176 157.269 972.77 167.375 962.669 175.871C956.627 180.961 955.323 187.168 956.737 195.444C956.916 196.491 957.151 197.583 957.392 198.7C958.788 205.182 960.378 212.559 952.201 217.525C950.707 218.429 950.986 220.425 951.258 222.368C951.36 223.101 951.462 223.826 951.467 224.482C951.537 246.074 952.948 267.641 955.691 289.059C956.679 290.014 957.389 291.218 957.744 292.543C958.1 293.869 958.089 295.265 957.711 296.584C955.691 304.86 957.711 312.642 959.841 320.387C960.305 322.346 960.204 324.396 959.547 326.301C952.66 330.567 946.067 329.761 941.733 323.701C940.668 322.215 939.679 320.667 938.689 319.115L938.689 319.115L938.688 319.114L938.688 319.113L938.687 319.112L938.686 319.111L938.686 319.11L938.685 319.11L938.685 319.109L938.684 319.108L938.684 319.107L938.683 319.106L938.683 319.105L938.682 319.105L938.681 319.104L938.681 319.103L938.68 319.102L938.68 319.101L938.679 319.1C937.744 317.635 936.808 316.168 935.801 314.747C930.843 304.695 929.208 293.82 927.868 282.871C927.846 282.144 927.822 281.417 927.796 280.691C927.144 279.474 926.413 278.406 924.984 278.702C924.978 278.962 924.972 279.223 924.966 279.483C923.491 290.117 921.245 300.63 918.244 310.939C917.537 312.419 916.586 313.737 915.63 315.064L915.63 315.064C914.823 316.183 914.013 317.306 913.341 318.537C908.548 327.234 902.506 328.278 894.003 322.346C893.932 322.208 893.855 322.067 893.778 321.923L893.773 321.915C893.251 320.947 892.66 319.851 893.011 318.977C895.275 313.138 895.178 307.095 895.082 301.058V301.057C895.008 296.418 894.934 291.782 895.931 287.247C895.995 286.64 896.036 286.028 896.076 285.416L896.077 285.414L896.077 285.412C896.256 282.698 896.435 279.99 898.668 277.854C899.099 276.741 899.432 275.617 899.683 274.486C898.332 263.639 898.208 252.753 898.27 241.86C897.949 235.268 897.874 228.666 898.043 222.065C898.043 220.235 898.043 218.404 896.06 217.415C888.916 215.584 884.71 210.586 881.992 204.067C881.647 203.236 881.3 202.405 880.953 201.574C877.182 192.55 873.422 183.549 872.295 173.674C871.671 168.071 868.769 163.347 865.684 158.77L865.619 158.673C864.788 157.429 863.805 155.957 862.195 156.188C860.009 156.481 859.605 158.55 859.33 160.326C858.627 165.791 859.078 171.341 860.652 176.622C866.896 200.644 863.205 224.318 858.136 247.918C857.381 252.105 857.024 256.353 857.071 260.607C857.005 263 857.037 265.393 857.069 267.787C857.135 272.717 857.201 277.647 856.41 282.578C850.533 295.559 854.371 306.655 863.095 316.816C863.414 317.77 863.534 318.779 863.445 319.781C863.357 320.783 863.062 321.755 862.58 322.639C854.39 328.04 849.468 327.344 845.005 319.691C843.405 317.566 841.915 315.359 840.542 313.081C839.898 309.106 839.942 305.078 839.986 301.051V301.05C840.049 295.321 840.112 289.594 838.192 284.024C837.399 280.484 837.376 276.896 837.353 273.302V273.302V273.301V273.301V273.301V273.3V273.3V273.299V273.299V273.298V273.298V273.297V273.297V273.296V273.296V273.296V273.295V273.295V273.294V273.294V273.293V273.293V273.292V273.292V273.291V273.291V273.29V273.29V273.29V273.289V273.289V273.288V273.288V273.287V273.287V273.286V273.286V273.285V273.285V273.285V273.284V273.284V273.283V273.283V273.282V273.282V273.281V273.281V273.28V273.28C837.341 271.472 837.329 269.662 837.219 267.857C837.044 264.998 836.297 262.236 835.508 259.316L835.508 259.315L835.508 259.314L835.507 259.313C834.806 256.719 834.072 253.999 833.674 250.976C832.499 256.527 831.948 261.719 831.41 266.787V266.787C831.107 269.641 830.809 272.456 830.405 275.272C827 288.694 825.474 302.52 825.869 316.359C825.653 319.036 825.034 321.665 824.032 324.158C819.735 335.144 813.62 336.535 804.419 328.717C802.128 323.85 804.488 320.371 806.847 316.892C807.647 315.713 808.447 314.534 809.065 313.301C810.577 311.211 811.623 308.822 812.133 306.296C812.643 303.77 812.605 301.164 812.022 298.653C809.483 288.314 810.651 278.133 811.823 267.921L811.893 267.308ZM973.436 198.69C973.108 205.404 972.772 212.267 978.151 217.927L978.179 217.926C978.464 218.285 978.742 218.738 979.019 219.191C979.626 220.18 980.232 221.167 980.905 221.167C988.882 221.738 988.962 226.774 989.041 231.774V231.775C989.061 233.025 989.081 234.273 989.224 235.448C989.448 237.249 989.512 239.074 989.576 240.897C989.606 241.762 989.636 242.626 989.683 243.486L989.709 243.543L989.684 243.524L989.647 256.101L989.041 278.073C989.215 278.888 989.279 279.726 989.343 280.564C989.482 282.382 989.621 284.196 990.878 285.763L990.945 285.733C990.935 285.756 990.925 285.777 990.914 285.799C991.054 287.508 991.207 289.218 991.359 290.927C992.291 301.353 993.222 311.771 991.171 322.216C998.165 325.371 1002.58 321.275 1007.03 317.146L1007.36 316.835C1007.47 316.731 1007.59 316.626 1007.7 316.522L1009.47 280.706C1010.02 280.166 1010.52 279.521 1010.95 278.75C1010.98 277.836 1011.09 276.913 1011.21 275.991L1011.21 275.929L1011.24 275.724L1011.26 275.529C1011.69 276.751 1012.34 277.941 1013.29 279.087C1013.11 279.718 1012.99 280.378 1012.93 281.076L1012.92 281.387L1012.91 281.605L1012.88 282.054C1012.67 285.941 1012.45 289.832 1013.91 293.599C1014.26 294.273 1014.68 294.775 1015.16 295.154V297.902C1014.74 298.265 1014.34 298.713 1013.94 299.257C1012.47 305.56 1014.21 311.335 1015.96 317.111C1016.55 319.087 1017.15 321.062 1017.62 323.059C1017.84 323.476 1018.16 323.832 1018.56 324.094C1018.95 324.356 1019.4 324.516 1019.88 324.561C1020.16 324.345 1020.45 324.152 1020.75 323.979C1025 328.791 1029.13 326.682 1033.26 323.627C1033.53 323.462 1033.75 323.233 1033.9 322.961C1034.05 322.689 1034.13 322.382 1034.13 322.07C1034.13 321.759 1034.05 321.452 1033.9 321.18C1033.75 320.907 1033.53 320.678 1033.26 320.514C1032.82 320.378 1032.38 320.258 1031.92 320.154C1032.38 319.809 1032.81 319.403 1033.21 318.921C1033.72 313.618 1034.94 308.42 1036.15 303.22C1037.98 295.406 1039.8 287.589 1039.25 279.41C1039.09 278.417 1038.86 277.438 1038.55 276.48C1037.84 273.205 1037.62 269.841 1037.91 266.502C1037.95 263.497 1038.4 260.514 1038.84 257.531C1039.6 252.391 1040.37 247.253 1039.07 242.004C1038.78 241.088 1038.32 240.232 1037.73 239.477C1037.51 239.325 1037.29 239.18 1037.07 239.041L1038.61 229.761C1039.09 229.449 1039.55 229.086 1039.97 228.675C1043.79 214.302 1044.89 199.837 1042.34 188.193C1052.13 196.992 1058.79 208.726 1061.31 221.626C1061.41 221.918 1061.61 222.165 1061.88 222.321C1071.02 228.748 1070.12 237.738 1068.69 247.057C1068.6 247.671 1068.48 248.291 1068.37 248.915L1068.37 248.922C1067.62 253.041 1066.86 257.293 1071.1 260.551C1071.43 260.556 1071.74 260.542 1072.02 260.508L1074.09 265.459C1074.08 266.394 1074.07 267.33 1074.06 268.266L1074.06 268.306V268.32V268.334V268.348V268.362V268.377C1073.99 274.037 1073.93 279.712 1073.94 285.414C1075.31 288.129 1075.29 290.999 1075.27 293.865C1075.26 295.192 1075.25 296.518 1075.37 297.827C1075.38 297.87 1075.39 297.912 1075.39 297.953L1075.37 297.914C1075.35 297.886 1075.33 297.857 1075.32 297.828L1075.3 297.797L1075.28 297.773L1073.96 301.984L1073.98 302.033C1072.97 303.27 1071.93 304.484 1070.89 305.698L1070.88 305.707C1066.68 310.6 1062.48 315.504 1060.77 321.998L1062.61 325.898C1069.44 327.289 1075.15 326.593 1077.69 318.72C1078.03 317.76 1079.01 316.99 1079.99 316.216C1080.47 315.838 1080.95 315.46 1081.36 315.058L1081.36 315.048L1082.94 314.764C1086.56 310.185 1084.83 305.698 1083.1 301.219C1082.95 300.838 1082.81 300.457 1082.66 300.076L1082.71 300.052L1082.72 300.043L1086.94 278.438C1086.89 278.402 1086.84 278.366 1086.78 278.33C1086.84 278.338 1086.9 278.346 1086.96 278.354C1087 278.358 1087.04 278.363 1087.07 278.367C1087.51 278.189 1087.96 278.072 1088.43 278.019C1092.36 274.284 1092.99 269.634 1092.1 264.562C1091.8 263.712 1091.52 262.905 1091.26 262.139C1095.72 255.998 1098.5 248.803 1099.33 241.263C1099.57 241.098 1099.81 240.93 1100.06 240.76C1103.26 236.387 1103.77 238.587 1104.27 240.79C1104.62 242.294 1104.96 243.8 1106.17 243.213C1106.73 243.473 1107.25 243.748 1107.73 244.037C1109.67 249.217 1111.6 254.396 1113.52 259.575C1113.48 260.039 1113.43 260.505 1113.37 260.973C1114.34 262.934 1114.67 265.104 1114.99 267.272C1115.46 270.368 1115.92 273.463 1118.26 275.95L1118.3 275.963C1118.16 276.398 1118.06 276.85 1118 277.323C1118.3 279.102 1118.5 280.91 1118.7 282.718C1119.4 289.025 1120.11 295.325 1124.81 300.334C1124.5 301.913 1123.91 303.434 1123.32 304.954C1122.17 307.918 1121.02 310.882 1121.95 314.272C1122.6 315.885 1123.03 317.578 1123.47 319.272L1123.47 319.274C1124.07 321.636 1124.68 324.001 1125.88 326.154C1129.77 333.039 1136.62 333.57 1142.13 327.436C1142.24 326.338 1142.34 325.235 1142.45 324.131L1142.46 324.06C1142.58 322.849 1142.7 321.636 1142.81 320.424C1141.71 318.441 1140.46 316.523 1139.2 314.605L1139.2 314.604L1139.2 314.602L1139.2 314.6L1139.19 314.598L1139.19 314.596C1136.05 309.797 1132.91 304.998 1132.23 299.193C1133.16 297.899 1133.76 296.209 1134.35 294.522L1134.42 294.337L1134.51 294.064C1134.55 293.964 1134.58 293.864 1134.62 293.764C1135.93 288.314 1135.09 282.971 1134.24 277.627C1133.61 273.636 1132.98 269.643 1133.24 265.605C1133.19 265.405 1133.14 265.199 1133.08 264.99C1132.62 263.336 1132.1 261.445 1133.41 260.405C1138.59 256.256 1137.86 251.428 1137.02 245.874L1136.95 245.384C1136.92 245.192 1136.89 244.999 1136.86 244.805C1136.67 243.552 1136.48 242.296 1136.29 241.039L1136.29 241.021C1134.19 227.352 1132.06 213.476 1136.71 199.984C1138.68 194.232 1142.52 189.565 1146.36 184.883C1149.13 181.516 1151.91 178.142 1153.99 174.351C1155.82 171.322 1156.43 167.72 1155.7 164.262C1153.76 152.784 1147.65 143.643 1141.55 134.506C1139.16 130.934 1136.78 127.363 1134.64 123.652C1132.77 120.45 1129.82 118.015 1126.32 116.786C1115.8 113.069 1110.67 107.522 1114.68 95.108C1117.56 86.2097 1111.59 78.0437 1104.35 77.055C1093.34 75.5353 1090.47 78.4099 1088.16 90.8603C1087.28 95.2162 1087.93 99.7387 1089.99 103.677C1093.19 110.103 1091.11 114.443 1084.74 117.171L1084.4 117.313C1080.86 118.803 1077.25 120.317 1075.06 123.689C1074.46 124.626 1073.85 125.563 1073.24 126.499C1064.56 139.869 1055.85 153.28 1052.69 170.048C1049.96 162.125 1048.21 153.898 1047.48 145.55C1047.4 144.483 1047.38 143.378 1047.36 142.258V142.254C1047.24 136.207 1047.11 129.744 1038.68 126.655C1023.13 120.997 1023.38 120.137 1029.02 104.977C1031.28 99.0079 1031.48 92.1602 1027.61 86.6674C1023.53 80.8634 1016.75 81.1746 1010.88 83.0055C1003.7 85.166 997.673 87.1984 999.509 98.5502C999.853 100.572 999.917 102.623 999.98 104.652C1000.18 110.963 1000.36 117.054 1008.97 121.364C990.805 123.066 985.681 134.949 981.163 149.249C976.645 163.548 973.193 177.939 973.578 192.843C973.628 194.753 973.533 196.709 973.436 198.678V198.678V198.679V198.679V198.68V198.681V198.681V198.682V198.683V198.683V198.684V198.685V198.685V198.686V198.687V198.688V198.689V198.69V198.69ZM1010.63 268.848C1010.72 267.708 1010.86 266.561 1011.01 265.413C1010.67 266.153 1010.26 266.881 1009.81 267.603C1010.14 268.01 1010.41 268.425 1010.63 268.848ZM990.306 258.689C990.213 257.852 990.004 257.03 989.684 256.246C989.904 257.12 990.109 257.933 990.306 258.689ZM1011.5 258.908C1011.44 258.741 1011.37 258.572 1011.3 258.403L1011.34 258.408C1011.48 258.44 1011.5 258.707 1011.5 258.908ZM728.922 227.946V227.945L728.922 227.941L728.921 227.937L728.921 227.933L728.92 227.928L728.92 227.924L728.919 227.92L728.919 227.916L728.918 227.912L728.917 227.908L728.917 227.903L728.916 227.899L728.916 227.895L728.915 227.891L728.915 227.887C728.134 222.668 727.353 217.448 726.764 212.212C726.047 205.859 725.607 199.396 727.351 193.189C730.326 182.753 730.014 172.389 728.435 161.862C727.59 156.369 728.049 150.876 732.585 146.72C734.655 144.824 735.371 142.299 736.08 139.8C736.926 136.819 737.762 133.875 740.868 132.072C741.217 131.871 740.868 129.509 740.262 128.758C734.951 122.71 735.227 115.78 735.503 108.836V108.835V108.834V108.833V108.833V108.832V108.831V108.83V108.83V108.829V108.828V108.827V108.826V108.826V108.825V108.824V108.823V108.823V108.822V108.821V108.82V108.819V108.819V108.818V108.817V108.816V108.815V108.815V108.814V108.813V108.812V108.812V108.811V108.81V108.809V108.808V108.808V108.807V108.806V108.805V108.805V108.804V108.803V108.802V108.801V108.801V108.8V108.799C735.608 106.149 735.714 103.497 735.505 100.892C735.201 98.7624 735.741 96.5989 737.009 94.8593C738.277 93.1197 740.175 91.9408 742.3 91.5721C743.145 91.4709 744.038 91.319 744.958 91.1626L744.958 91.1625C749.697 90.3568 755.123 89.4342 758.076 94.7396C761.602 101.075 765.605 103.125 772.364 102.063C774.095 101.713 775.889 101.829 777.561 102.398C779.233 102.968 780.722 103.971 781.877 105.304L769.995 104.48C770.23 106.765 771.76 107.359 773.335 107.969C774.095 108.264 774.865 108.563 775.504 109.057L770.895 110.211C771.632 111.627 772.987 112.162 774.321 112.688C775.746 113.251 777.147 113.803 777.745 115.411C777.715 115.452 777.687 115.494 777.659 115.536C777.722 115.521 777.787 115.507 777.852 115.493C777.896 115.484 777.939 115.475 777.983 115.466C783.736 117.626 782.659 121.623 781.649 125.366C781.341 126.51 781.039 127.63 780.94 128.667C780.858 129.609 780.165 129.027 779.269 128.276C778.545 127.669 777.689 126.951 776.918 126.836C776.616 128.631 777.498 129.943 778.375 131.249C778.939 132.089 779.502 132.925 779.746 133.886C780.003 134.593 779.996 135.369 779.726 136.072C779.457 136.774 778.942 137.357 778.277 137.712C776.929 138.526 776.54 137.643 776.148 136.752C775.808 135.979 775.466 135.201 774.494 135.515L774.415 135.493L774.42 135.498L772.308 137.329L772.119 137.208L772.125 137.235C773.576 139.952 775.018 142.672 776.46 145.392L776.461 145.393L776.461 145.394L776.462 145.395L776.462 145.396L776.463 145.398L776.463 145.399L776.467 145.406L776.471 145.414L776.476 145.421L776.48 145.429L776.487 145.442L776.491 145.451C780.13 152.314 783.766 159.171 787.533 165.963C788.404 167.209 788.87 168.692 788.87 170.211C788.87 171.729 788.404 173.212 787.533 174.458C786.617 175.832 785.733 177.229 784.848 178.627C783.303 181.069 781.757 183.511 780.04 185.828C774.072 193.866 769.352 201.684 770.49 212.835C771.097 218.616 769.663 224.323 768.21 230.106L768.21 230.107C767.155 234.306 766.09 238.544 765.789 242.88C765.018 254.086 765.459 263.826 773.704 272.395C775.635 274.394 776.89 277.051 778.14 279.696C778.732 280.951 779.323 282.202 779.985 283.381C783.179 286.628 784.435 290.749 785.692 294.874C786.603 297.865 787.516 300.858 789.168 303.521C794.291 311.595 798.552 319.853 795.173 329.85C789.48 334.72 784.154 334.848 779.104 328.824C778.298 327.53 777.854 326.045 777.818 324.522C778.516 306.725 769.499 292.773 759.747 279.115C755.632 274.855 752.539 269.753 750.667 264.195C751.168 267.847 750.929 271.583 749.94 275.178C749.6 276.276 749.252 277.373 748.905 278.47C745.296 289.865 741.694 301.237 746.267 313.463C746.631 314.495 746.648 315.618 746.317 316.661C745.986 317.704 745.324 318.612 744.431 319.249C743.344 319.477 742.258 319.712 741.172 319.947L741.164 319.948C731.791 321.976 722.422 324.004 712.715 321.592C707.774 318.461 707.554 313.463 712.274 311.705C728.491 305.629 729.475 292.766 730.464 279.83L730.465 279.828L730.465 279.827L730.465 279.826L730.465 279.824L730.465 279.823L730.465 279.821L730.466 279.82L730.466 279.819V279.817C730.654 277.361 730.842 274.902 731.134 272.487C731.183 271.329 731.362 270.181 731.667 269.063C732.993 255.175 730.958 241.573 728.922 227.969V227.968V227.968V227.967V227.967V227.966V227.966V227.965V227.965V227.964V227.964V227.963V227.963V227.962V227.962V227.961V227.961V227.96V227.96V227.959V227.959V227.958V227.958V227.957V227.957V227.956V227.956V227.955V227.955V227.954V227.954V227.953V227.953V227.952V227.952V227.951V227.951V227.95V227.95V227.949V227.949V227.948V227.948V227.947V227.947V227.946V227.946Z" fill="white"/>
</svg>
