<svg width="64" height="64" viewBox="0 0 64 64" fill="none" xmlns="http://www.w3.org/2000/svg">
<path fill-rule="evenodd" clip-rule="evenodd" d="M29.4562 2.52306C27.0252 5.83441 23.5453 9.00631 20.7345 10.4721C18.1625 11.814 13.989 12.0247 10.8072 10.9737C9.7395 10.6209 8.62705 10.4799 8.33566 10.6604C8.00109 10.867 7.80493 15.1826 7.80493 22.3214C7.80493 31.8913 7.96415 34.278 8.82893 37.6596C10.9404 45.9151 16.612 54.3329 23.5479 59.507C30.3085 64.55 31.9371 64.9335 36.1627 62.4786C45.3584 57.1364 52.6117 47.6649 55.1712 37.6596C56.036 34.278 56.1952 31.8913 56.1952 22.3214C56.1952 15.1826 55.999 10.867 55.6644 10.6604C55.3731 10.4799 54.2606 10.6209 53.1929 10.9737C50.0111 12.0247 45.8376 11.814 43.2656 10.4721C40.4548 9.00631 36.9749 5.83441 34.5439 2.52306C33.5251 1.13535 32.3804 0 32.0001 0C31.6197 0 30.475 1.13535 29.4562 2.52306ZM42.342 12.7854C44.9468 13.978 45.8719 14.1315 49.4648 13.9687L53.5935 13.7808L53.5857 23.6712C53.5779 34.1125 53.1008 37.5139 50.9586 42.4065C49.1958 46.4323 45.6092 51.559 42.4945 54.5051C39.012 57.7988 33.5319 61.3984 32.0001 61.3984C30.4682 61.3984 24.9882 57.7988 21.5056 54.5051C18.3993 51.5668 14.7986 46.425 13.067 42.4549C10.814 37.2881 10.4066 34.4393 10.4066 23.8559V13.7808L14.5801 13.9702C18.2921 14.1388 19.084 14.0009 21.7346 12.723C23.666 11.7916 25.996 9.96215 28.3531 7.52546L31.9912 3.76559L35.6694 7.58998C38.2112 10.2327 40.2732 11.8384 42.342 12.7854ZM26.9519 23.5447L26.7968 26.7967L23.5448 26.9518L20.2927 27.1063V32V36.8937L23.5448 37.0482L26.7968 37.2033L26.9519 40.4553L27.1064 43.7073H32.0001H36.8937L37.0483 40.4553L37.2033 37.2033L40.4553 37.0482L43.7074 36.8937V32V27.1063L40.4553 26.9518L37.2033 26.7967L37.0483 23.5447L36.8937 20.2927H32.0001H27.1064L26.9519 23.5447ZM34.3415 25.459C34.3415 28.7938 35.2063 29.6585 38.5411 29.6585H41.1057V32V34.3415H38.5411C36.9036 34.3415 35.6814 34.637 35.1589 35.1589C34.6371 35.6813 34.3415 36.9035 34.3415 38.541V41.1057H32.0001H29.6586V38.541C29.6586 36.9035 29.363 35.6813 28.8412 35.1589C28.3188 34.637 27.0965 34.3415 25.459 34.3415H22.8944V32V29.6585H25.459C27.0965 29.6585 28.3188 29.363 28.8412 28.8411C29.363 28.3187 29.6586 27.0965 29.6586 25.459V22.8943H32.0001H34.3415V25.459ZM47.0042 38.2788C46.8319 38.7273 46.9464 39.3496 47.2586 39.6618C48.0099 40.4131 49.4809 39.2398 49.0844 38.2059C48.7035 37.2142 47.3949 37.26 47.0042 38.2788ZM43.569 45.6596C41.5792 48.8835 39.0708 51.6709 36.1653 53.887C33.2197 56.1337 34.035 58.1531 37.1185 56.2477C41.6203 53.4655 48.1057 44.6715 46.6961 43.2619C45.7523 42.3181 45.5233 42.4934 43.569 45.6596Z" fill="#719FD6"/>
</svg>
