<svg width="65" height="64" viewBox="0 0 65 64" fill="none" xmlns="http://www.w3.org/2000/svg">
<path fill-rule="evenodd" clip-rule="evenodd" d="M25.5009 0.583662C20.0047 1.83556 13.4247 5.26919 13.4247 6.8848C13.4247 8.04408 14.725 7.77247 17.439 6.04708C21.5319 3.44545 26.4281 2.1821 32.4165 2.1821C39.1173 2.1821 43.6202 3.53339 49.0742 7.18138C62.0537 15.8625 66.1263 33.7148 58.1347 46.8999L56.4462 49.6867L55.5268 48.5608C54.725 47.5789 54.5657 47.543 54.2775 48.2813C54.0964 48.747 54.0204 50.269 54.1089 51.6635C54.2655 54.1282 54.3196 54.2037 56.0331 54.3676C59.7029 54.7178 61.8602 53.0215 59.0041 52.0308L57.7543 51.5974L59.7102 48.3745C62.9367 43.0568 64.1569 38.5117 64.1527 31.825C64.1491 25.0613 62.9997 20.6984 59.8533 15.4983C54.1765 6.11836 44.6426 0.472833 33.7413 0.0368005C30.5959 -0.0891182 27.5734 0.111727 25.5009 0.583662ZM5.22955 9.52337C4.15664 9.97657 4.4938 11.1556 5.82896 11.6192L7.07878 12.0527L5.14109 15.2464C-0.531492 24.5941 -1.00499 35.8986 3.85173 46.0346C6.53557 51.6354 12.6062 57.706 18.207 60.3898C25.8079 64.0316 34.3417 64.7205 42.0426 62.314C46.1516 61.0298 51.0702 58.1717 51.3095 56.9297C51.5708 55.5742 50.22 55.8063 47.3941 57.603C43.3012 60.2046 38.405 61.4679 32.4165 61.4679C25.7158 61.4679 21.2129 60.1167 15.7588 56.4687C2.77933 47.7876 -1.29325 29.9352 6.69843 16.7502L8.38688 13.9633L9.3063 15.0893C10.1081 16.0711 10.2673 16.107 10.5556 15.3687C10.7367 14.903 10.8126 13.3811 10.7242 11.9866L10.5629 9.45104L8.22142 9.3501C6.93361 9.29443 5.58753 9.37247 5.22955 9.52337ZM15.6371 14.9686C11.5031 17.015 9.158 20.9507 9.158 25.8413C9.158 30.7755 10.0103 31.9931 21.637 43.6676L32.3957 54.4711L42.9547 43.9283C54.5652 32.3365 55.6751 30.7667 55.6751 25.9375C55.6751 18.9001 50.8361 13.8738 44.0619 13.8738C40.5945 13.8738 36.5885 15.6991 34.2767 18.3314C33.414 19.3138 32.5773 20.1177 32.4165 20.1177C32.2558 20.1177 31.4191 19.3138 30.5564 18.3314C26.8975 14.1647 20.2768 12.6724 15.6371 14.9686ZM24.634 16.7111C25.6294 17.1274 27.693 18.6494 29.2202 20.0933C30.7473 21.5377 32.2183 22.7193 32.4883 22.7193C32.7589 22.7193 34.0243 21.6464 35.3002 20.3347C38.6854 16.8553 41.0258 15.7943 44.7254 16.0618C47.1058 16.234 48.1673 16.6133 49.7095 17.8423C52.2274 19.8492 53.6099 22.6647 53.6099 25.7846C53.6099 27.1822 53.1879 29.0709 52.639 30.1282C52.1051 31.1574 47.6298 36.1073 42.693 41.1274L33.7174 50.2549V42.935V35.6146L34.9849 35.933C37.3315 36.522 41.6221 35.2113 43.5026 33.3308C45.9143 30.9191 45.6318 29.5278 42.5629 28.7062C41.2751 28.3617 39.519 27.6942 38.6604 27.2238C36.7269 26.1639 36.1306 26.1556 34.0171 27.1582C32.5118 27.8726 32.1803 27.8732 30.816 27.1613C28.884 26.154 28.1051 26.1644 26.1726 27.2238C25.3141 27.6942 23.558 28.3617 22.2702 28.7062C19.2013 29.5278 18.9188 30.9191 21.3305 33.3308C23.2109 35.2113 27.5015 36.522 29.8482 35.933L31.1157 35.6146V42.91V50.205L22.1401 41.1081C11.0327 29.8504 10.2065 28.4455 11.578 23.1569C13.0688 17.4099 19.1368 14.4144 24.634 16.7111ZM18.9968 18.3611C18.0904 19.2675 18.6753 20.1812 20.0588 20.022C20.9106 19.9241 21.4897 19.5417 21.4897 19.0771C21.4897 18.2591 19.6321 17.7258 18.9968 18.3611ZM14.7078 21.1776C13.2316 22.8093 13.074 27.716 14.4289 29.8738C15.5705 31.6923 17.0774 32.1409 17.0503 30.6543C17.0415 30.1537 16.6902 29.289 16.2698 28.7338C15.8499 28.1781 15.506 26.8767 15.506 25.8413C15.506 24.8058 15.8499 23.5045 16.2698 22.9488C18.0087 20.65 16.6153 19.0698 14.7078 21.1776ZM29.959 29.2531C31.4987 30.3312 31.4565 32.3584 29.8727 33.3959C28.8455 34.0692 28.2352 34.1103 26.3605 33.6337C23.9545 33.0223 21.6583 31.5857 22.5304 31.2381C22.8165 31.1236 24.2214 30.4665 25.6523 29.7775C28.8419 28.2421 28.564 28.2759 29.959 29.2531ZM39.2479 29.8207C40.928 30.5788 42.4026 31.2839 42.5249 31.3874C42.9906 31.7818 40.6476 33.0811 38.4726 33.6337C35.7144 34.3351 33.7174 33.3641 33.7174 31.3224C33.7174 30.3697 35.3194 28.4429 36.1119 28.4429C36.1566 28.4429 37.5678 29.0631 39.2479 29.8207Z" fill="#6FC3A3"/>
</svg>
