<svg width="65" height="64" viewBox="0 0 65 64" fill="none" xmlns="http://www.w3.org/2000/svg">
<path fill-rule="evenodd" clip-rule="evenodd" d="M41.7436 1.09998C39.7538 2.37374 37.6887 5.68769 37.1923 8.40275C36.6787 11.213 38.093 15.527 40.1737 17.4975C43.0662 20.236 43.828 20.4295 45.8453 18.9414C51.3503 14.8798 51.8889 7.10506 47.004 2.21972C45.7782 0.993838 44.4763 -0.00466652 44.111 1.6405e-05C43.7458 0.00469933 42.6801 0.499529 41.7436 1.09998ZM47.1565 6.60867C48.1644 8.97355 48.0421 11.6621 46.8188 14.0608C45.4405 16.7618 44.7479 16.6681 44.7479 13.7798C44.7479 11.7854 44.5939 11.4383 43.7073 11.4383C42.8149 11.4383 42.664 11.7906 42.65 13.9099L42.6338 16.3814L41.3726 14.9484C38.8204 12.0487 39.2101 7.01036 42.2191 4.0008L43.7593 2.46063L45.1012 3.69745C45.839 4.37751 46.7642 5.68769 47.1565 6.60867ZM26.2311 17.6411C23.7767 18.2452 23.5389 18.5278 23.158 21.2974C22.0924 29.0446 28.1958 35.8936 36.1651 35.8936C40.7945 35.8936 41.3705 35.3051 41.3455 30.6014C41.3221 26.2702 40.283 23.7445 37.3791 20.9608C34.5261 18.226 29.6975 16.7883 26.2311 17.6411ZM56.2575 17.7249C52.5393 18.4534 49.0869 21.1153 47.2033 24.7066C46.3895 26.2582 46.1075 27.7614 46.0945 30.6128C46.0737 35.3171 46.6362 35.8957 51.2213 35.8884C56.476 35.8801 60.8332 33.2233 63.247 28.5555C64.9329 25.2956 64.8257 19.1844 63.067 18.2775C61.5508 17.4954 58.6375 17.2592 56.2575 17.7249ZM33.1904 21.0071C36.5086 22.7231 39.0243 26.5231 39.0243 29.8188V31.4219L37.0513 29.4952C34.9117 27.4061 33.9636 27.1121 33.4751 28.3858C33.2742 28.9082 33.8804 29.9395 35.1578 31.2476L37.1543 33.292H35.2067C32.9834 33.292 29.9322 31.884 28.2526 30.0837C25.6468 27.29 24.5437 21.4416 26.4064 20.2958C27.5205 19.6111 31.2455 20.0013 33.1904 21.0071ZM60.7479 20.0913C61.7501 20.3598 61.9186 20.7553 61.9186 22.836C61.9186 28.0747 57.8872 32.7259 52.9633 33.1671L50.2113 33.4137L52.1625 31.3798C54.1164 29.3427 54.709 27.5684 53.4353 27.5684C53.0622 27.5684 51.9627 28.3879 50.9918 29.3895C48.8637 31.5853 48.3865 31.6571 48.4016 29.7798C48.4469 24.0843 55.3714 18.6506 60.7479 20.0913ZM18.1692 40.1863C14.8162 41.8935 0.520264 52.634 0.520264 53.4463C0.520264 55.359 2.51102 54.3917 10.0042 48.8367C21.0762 40.6291 23.7398 39.871 30.632 42.9643C32.8673 43.968 34.2987 44.2188 37.7865 44.2188C41.4527 44.2188 42.3117 44.3843 43.1869 45.2595C44.4248 46.4973 44.4591 46.8251 43.4898 48.152C42.8487 49.0292 41.9095 49.1962 36.3353 49.4221C31.0941 49.6344 29.9186 49.8253 29.9186 50.4627C29.9186 51.111 31.1154 51.2677 36.9909 51.3873L44.0632 51.5315L51.3945 48.3955C59.1162 45.0924 60.3644 44.7943 61.3744 46.0113C62.5566 47.436 61.7938 49.0989 59.4601 50.1833C55.5499 51.9998 56.0166 54.4916 59.9503 52.7995C63.4135 51.3098 64.2601 50.277 64.2601 47.5416C64.2601 45.5878 64.0025 44.9478 62.8001 43.9134C60.7635 42.1614 59.3113 42.3217 53.0674 44.9889C50.0656 46.2715 47.3173 47.3252 46.9593 47.3304C46.6018 47.3361 46.3089 46.745 46.3089 46.0165C46.3089 45.2881 45.7339 44.1173 45.0315 43.4149C43.8805 42.2634 43.3279 42.1375 39.4234 42.1375C35.7796 42.1375 34.5157 41.8919 31.4645 40.5906C26.7275 38.5702 21.6465 38.4161 18.1692 40.1863ZM51.7723 54.105C51.292 54.8824 51.9601 55.666 53.1038 55.666C53.7667 55.666 54.1138 55.3085 54.1138 54.6253C54.1138 53.5217 52.3722 53.1346 51.7723 54.105ZM44.4877 57.1192C41.4064 58.5095 41.1998 58.5298 28.5585 58.6901L15.7512 58.853L14.0508 60.607C12.9899 61.7012 12.468 62.6685 12.6626 63.1763C13.0892 64.2883 13.5378 64.2055 15.3006 62.6898C16.8122 61.3895 16.8127 61.3895 28.084 61.3895C36.9295 61.3895 39.964 61.209 42.1817 60.5518C46.3672 59.3108 49.0047 57.8394 48.8132 56.8523C48.5619 55.5551 47.8595 55.5983 44.4877 57.1192Z" fill="#A6CA61"/>
</svg>
