<svg width="102" height="99" viewBox="0 0 102 99" fill="none" xmlns="http://www.w3.org/2000/svg">
<path d="M52.4956 51.9223C57.6057 52.8283 62.6805 53.3662 67.8154 53.2353C71.5736 53.1397 75.2116 52.6089 78.4815 50.5846C79.4299 49.9972 80.8278 49.3425 80.7004 48.2985C80.5624 47.1767 78.9557 47.389 77.9825 47.2015C70.6394 45.7895 63.3316 46.2566 56.0522 47.7429C55.3727 47.8809 54.6932 48.0119 54.0209 48.1428C53.8722 47.6332 54.1872 47.5341 54.4243 47.4138C60.3129 44.427 66.3007 41.6773 72.607 39.6495C76.4467 38.4145 80.2297 38.418 84.0659 39.6035C90.0112 41.4367 95.5636 44.1404 101.01 47.0882C101.916 47.5801 102.496 48.0048 101.41 48.9957C95.1602 54.6933 88.2134 59.1098 79.7449 60.5855C71.6373 61.9975 64.2057 59.945 57.2766 55.7514C55.539 54.6968 53.7661 53.667 52.4956 51.9223Z" fill="#E86851"/>
<path d="M40.1483 46.279C32.4229 44.1062 24.74 41.8731 17.7401 37.8247C14.8312 36.1437 13.1431 33.4577 11.717 30.5983C9.28578 25.7217 7.71452 20.5338 6.35913 15.2715C6.06894 14.1461 6.26006 13.548 7.54821 13.6259C15.3125 14.1001 22.9246 15.2538 29.8537 19.0828C38.0957 23.6409 42.4131 30.9062 43.9455 40.0046C44.1932 41.4803 44.5577 42.9737 44.1118 44.7892C42.9334 43.1861 41.9354 41.767 40.8773 40.3939C37.1721 35.5987 33.1661 31.1433 27.4012 28.7369C25.8689 28.0963 24.2835 27.6823 22.599 27.6717C21.1976 27.661 20.9145 28.1069 21.6718 29.3349C24.3472 33.6523 27.8578 37.1877 31.793 40.3408C34.4578 42.4748 37.3384 44.3008 40.1483 46.279Z" fill="#E86851"/>
<path d="M51.3773 57.0412C54.8242 59.122 57.7225 61.8929 60.7199 64.5294C63.3281 66.8226 65.777 69.2856 68.01 71.9681C70.2466 74.6612 70.9862 77.8214 71.1277 81.1656C71.3542 86.6084 70.6181 91.9769 69.6556 97.317C69.4892 98.2477 69.2415 99.1006 67.9392 98.5521C60.2174 95.2999 53.26 90.9718 48.302 84.0392C43.5847 77.4357 43.1176 70.0713 44.9613 62.4132C45.3966 60.6048 45.8885 58.8035 47.0033 56.7227C47.481 58.8707 47.8349 60.5729 48.2419 62.261C49.3955 67.0455 50.9703 71.6638 54.0067 75.6273C55.5213 77.602 57.2625 79.3608 59.683 80.2597C61.3286 80.8719 61.5586 80.7126 61.3357 79.0069C60.5182 72.7325 57.8499 67.1942 54.5446 61.9C53.5183 60.258 52.1735 58.8247 51.3915 57.0305L51.3773 57.0412Z" fill="#E86851"/>
<path d="M51.3808 44.3022C52.9521 41.2729 54.8879 38.4454 56.2645 35.31C57.9171 31.5481 59.1522 27.712 58.8478 23.522C58.7417 22.0852 58.4055 20.7298 57.7013 19.4771C56.8732 18.0049 56.5051 17.973 55.5072 19.3426C51.9541 24.2085 50.1104 29.7716 48.9602 35.6072C48.5391 37.7447 48.2136 39.8963 48.0154 42.1081C47.2297 40.2078 47.0104 38.1764 46.6777 36.177C45.9416 31.7605 45.4532 27.3263 45.3223 22.8354C45.1914 18.4154 46.7556 14.7951 49.6397 11.6101C53.2883 7.57584 57.3722 4.02281 61.6471 0.671504C62.8432 -0.262757 63.5581 -0.337065 64.326 1.18819C67.0828 6.66989 69.0398 12.3852 69.3654 18.5463C69.8325 27.4112 65.8654 34.2164 59.1947 39.6557C56.8307 41.5738 54.403 43.4564 51.3808 44.3022Z" fill="#E86851"/>
<path d="M42.2329 55.3081C38.1561 61.6957 33.552 67.6516 27.7058 72.5317C24.9632 74.8214 21.4951 75.2956 18.0978 75.7202C12.5807 76.4103 7.03172 76.1838 1.49339 76.1024C0.470655 76.0883 -0.318507 75.8901 0.12739 74.5701C2.86294 66.4767 6.86185 59.2185 14.0811 54.2322C20.0158 50.1307 26.7751 49.0761 33.8139 49.4371C36.4468 49.5715 39.0833 49.8299 41.794 50.6863C41.3163 51.2914 40.7218 51.2773 40.2051 51.4224C34.5075 53.0219 28.9302 54.8975 24.0395 58.3692C21.7923 59.9652 19.892 61.8691 18.8409 64.4773C18.6038 65.0683 18.2287 65.7371 18.7383 66.3033C19.1984 66.8129 19.8495 66.4944 20.4086 66.367C27.6279 64.7285 33.8917 61.1613 39.7521 56.7767C40.5024 56.214 41.2844 55.6973 42.0524 55.1559C42.1161 55.209 42.1727 55.2585 42.2329 55.3081Z" fill="#E86851"/>
<path d="M43.5705 49.0803C43.5528 47.318 44.8728 45.9166 46.5927 45.8777C48.532 45.8352 50.3297 47.7108 50.3368 49.781C50.3439 51.5894 48.9885 52.782 46.943 52.7785C44.9436 52.7749 43.5917 51.2957 43.5705 49.0803Z" fill="#E86851"/>
</svg>
