<svg width="160" height="161" viewBox="0 0 160 161" fill="none" xmlns="http://www.w3.org/2000/svg">
<path d="M78.7119 -0.00171661C78.7119 -44.7853 115.181 -81.2188 159.968 -81.2188C204.756 -81.2188 241.225 -44.7663 241.225 -0.00171661C241.225 44.7628 204.75 81.2153 160 81.2153C115.25 81.2153 78.7119 44.7946 78.7119 -0.00171661ZM239.15 -0.00171661C239.14 -20.9902 230.798 -41.1164 215.957 -55.9593C201.117 -70.8022 180.991 -79.1478 160 -79.163C116.386 -79.163 80.7425 -43.713 80.7425 0.0173187C80.7425 43.7476 116.355 79.261 160 79.261C203.646 79.261 239.15 43.7095 239.15 -0.00171661Z" fill="#E2F2D9"/>
<path d="M106.227 -0.0022583C106.224 -10.6371 109.376 -21.0339 115.283 -29.8777C121.19 -38.7216 129.587 -45.6151 139.413 -49.6867C149.238 -53.7582 160.051 -54.8248 170.483 -52.7516C180.915 -50.6784 190.497 -45.5584 198.019 -38.0393C205.54 -30.5202 210.663 -20.9396 212.739 -10.5093C214.815 -0.0789261 213.751 10.7327 209.681 20.5583C205.612 30.3839 198.719 38.7821 189.876 44.6908C181.033 50.5995 170.636 53.7533 160 53.7533C145.744 53.7415 132.075 48.0746 121.994 37.9964C111.912 27.9182 106.242 14.2522 106.227 -0.0022583ZM212.199 -0.0022583C212.189 -10.3263 209.118 -20.4155 203.375 -28.9946C197.631 -37.5736 189.472 -44.2573 179.93 -48.2005C170.388 -52.1438 159.891 -53.1698 149.765 -51.1486C139.64 -49.1274 130.342 -44.1498 123.045 -36.8452C115.749 -29.5406 110.782 -20.2369 108.773 -10.1102C106.764 0.0164757 107.803 10.5114 111.758 20.0479C115.713 29.5843 122.407 37.7342 130.994 43.467C139.581 49.1999 149.675 52.2583 160 52.2558C173.843 52.2223 187.108 46.7031 196.889 36.9077C206.67 27.1124 212.169 13.8396 212.18 -0.0022583H212.199Z" fill="#E2F2D9"/>
<path d="M111.468 -0.00403976C111.473 -9.59463 114.322 -18.9684 119.654 -26.9406C124.986 -34.9128 132.561 -41.1255 141.424 -44.7933C150.286 -48.4612 160.037 -49.4195 169.444 -47.5473C178.851 -45.675 187.492 -41.0562 194.274 -34.2746C201.056 -27.493 205.675 -18.8532 207.548 -9.44711C209.42 -0.04105 208.462 9.70895 204.794 18.5705C201.125 27.432 194.912 35.0072 186.939 40.3385C178.966 45.6699 169.592 48.5181 160 48.5231C147.133 48.5097 134.796 43.3927 125.698 34.295C116.599 25.1973 111.482 12.862 111.468 -0.00403976ZM207.022 -0.00403976C207.018 -9.30232 204.257 -18.3907 199.088 -26.1201C193.919 -33.8495 186.574 -39.8729 177.981 -43.4286C169.389 -46.9842 159.935 -47.9126 150.815 -46.0963C141.695 -44.28 133.318 -39.8006 126.744 -33.2244C120.17 -26.6481 115.693 -18.2705 113.881 -9.15057C112.068 -0.0306816 113 9.42188 116.56 18.012C120.119 26.6021 126.146 33.9441 133.878 39.1096C141.611 44.275 150.701 47.0321 160 47.0321C172.467 47.0086 184.416 42.0448 193.23 33.2284C202.044 24.412 207.003 12.4617 207.022 -0.00403976Z" fill="#E2F2D9"/>
<path d="M79.6763 0.867038V-0.662109L106.925 -0.592323V0.867038H79.6763Z" fill="#E2F2D9"/>
<path d="M80.2222 9.38244L107.191 6.12109L107.464 7.54874L80.4443 10.9053L80.2222 9.38244Z" fill="#E2F2D9"/>
<path d="M82.0181 19.2844L108.435 12.5332L108.791 14.1258L82.4242 20.7755L82.0181 19.2844Z" fill="#E2F2D9"/>
<path d="M85.0386 28.9198L110.434 18.9453L110.98 20.4047L85.6668 30.3094L85.0386 28.9198Z" fill="#E2F2D9"/>
<path d="M89.2456 38.0806L113.112 24.9844L113.81 26.2724L90.0642 39.4385L89.2456 38.0806Z" fill="#E2F2D9"/>
<path d="M94.5381 46.6263L116.627 30.6113L117.522 31.9057L95.509 47.8509L94.5381 46.6263Z" fill="#E2F2D9"/>
<path d="M100.934 54.4949L120.815 35.9102L121.849 36.9951L101.968 55.5164L100.934 54.4949Z" fill="#E2F2D9"/>
<path d="M108.226 61.4178L125.632 40.5234L126.736 41.4688L109.4 62.3378L108.226 61.4178Z" fill="#E2F2D9"/>
<path d="M116.354 67.4599L130.924 44.459L132.25 45.3092L117.662 68.2721L116.354 67.4599Z" fill="#E2F2D9"/>
<path d="M125.092 72.3099L136.711 47.748L138.082 48.465L126.463 72.957L125.092 72.3099Z" fill="#E2F2D9"/>
<path d="M134.439 76.1365L142.898 50.293L144.275 50.7688L135.962 76.5806L134.439 76.1365Z" fill="#E2F2D9"/>
<path d="M144.206 78.7182L149.365 51.9863L150.824 52.3924L145.652 78.991L144.206 78.7182Z" fill="#E2F2D9"/>
<path d="M154.118 80.112L155.914 52.9043L157.424 53.0439L155.622 80.1818L154.118 80.112Z" fill="#E2F2D9"/>
<path d="M30.2119 0.352231L30.8465 -0.396484L31.1384 -0.12365C36.9701 6.93208 57.6824 29.4571 79.6384 21.3164L82.3861 20.4027L82.6526 21.3164L80.0446 22.2047C57.4159 30.6183 36.2911 7.68715 30.3706 0.498174L30.2119 0.352231Z" fill="#E2F2D9"/>
<path d="M30.1421 0.0813599L30.2119 -0.0518818V-0.185143L30.618 -0.661022C38.4042 -9.68373 58.7611 -29.7723 80.0192 -21.9361L82.6272 -20.8828L82.2909 -20.0008L79.613 -20.9843C59.034 -28.5984 39.0007 -8.87155 31.4493 0.0179062L31.1764 0.220953V0.354195L30.8909 0.728552L30.1421 0.0813599Z" fill="#E2F2D9"/>
<path d="M68.3936 91.0678L68.6664 90.998L68.806 91.0678C77.9628 91.9117 108.428 93.168 118.201 71.8613L119.387 69.2852L120.422 69.6913L119.172 72.3308C109.126 94.1071 78.0326 92.9206 68.7362 92.0767L68.4633 92.1465L68.3936 91.0678Z" fill="#E2F2D9"/>
<path d="M67.772 83.9762C67.772 70.201 70.8052 49.0022 87.8687 41.1343L90.4832 39.8652L90.9591 40.8487L88.3447 41.9337C68.3304 51.1595 68.2606 79.2492 69.0094 90.8543L69.0728 91.1906L69.2124 91.3302V91.768L68.3304 91.9013L68.1273 91.8378V91.6982L68.0575 91.6347V91.0002C67.9052 89.0333 67.772 86.6602 67.772 83.9762Z" fill="#E2F2D9"/>
<path d="M159.626 129.125L159.899 128.82C166.993 122.951 189.349 102.056 181.271 80.3435L180.256 77.6659L181.208 77.3613L182.21 79.9438C190.523 102.367 167.755 123.604 160.597 129.543L160.324 129.848L159.626 129.125Z" fill="#E2F2D9"/>
<path d="M136.299 89.947C136.265 86.5689 136.846 83.2128 138.013 80.0424L139.053 77.2949L140.018 77.6693L138.983 80.3469C131.369 100.905 151.091 120.955 159.924 128.57L160.197 128.836H160.33L160.673 129.077L160 129.877L159.931 129.807H159.797L159.321 129.337C151.707 122.751 136.299 107.32 136.299 89.947Z" fill="#E2F2D9"/>
<path d="M17.5586 0.632799L18.7262 -0.591797L18.8595 -0.452204C19.2719 0.0871277 51.6032 41.4253 85.0386 28.7923L85.6731 30.3151C51.1336 43.5129 19.0054 2.46653 17.6982 0.734323L17.5586 0.632799Z" fill="#E2F2D9"/>
<path d="M17.5586 -0.258644L17.6918 -0.398239C18.9991 -2.09237 51.1971 -43.0689 85.6668 -29.979L85.0322 -28.3801C51.7301 -41.0702 20.3063 -0.937576 18.9229 0.724834L18.7198 0.927883L17.5586 -0.258644Z" fill="#E2F2D9"/>
<path d="M59.7383 99.4469H60.0111C60.5569 99.5166 112.426 106.065 127.377 73.2227L128.951 73.9714C113.467 107.829 60.284 101.179 59.7383 101.109V99.4469Z" fill="#E2F2D9"/>
<path d="M58.4693 89.6106C58.4693 72.8152 61.9848 42.3524 86.1238 31.293L86.8853 32.784C55.8612 47.0351 60.0494 94.8009 60.7411 100.226V100.632H59.015V100.296C58.6471 96.746 58.4649 93.1794 58.4693 89.6106Z" fill="#E2F2D9"/>
<path d="M159.365 141.716V141.341L159.638 141.075C166.492 135.51 200.422 106.133 188.683 74.9212L190.174 74.3438C202.357 106.266 168.326 136.151 160.926 142.16C160.688 142.45 160.352 142.642 159.981 142.699V141.005C159.892 141.007 159.805 141.028 159.725 141.065C159.645 141.103 159.574 141.157 159.516 141.224C159.458 141.291 159.414 141.369 159.389 141.454C159.363 141.539 159.355 141.628 159.365 141.716Z" fill="#E2F2D9"/>
<path d="M127.498 88.1946C127.483 83.4543 128.343 78.752 130.036 74.3242L131.616 74.9016C120.023 106.062 153.775 135.51 160.635 141.074L160.971 141.341V141.715C160.983 141.622 160.973 141.527 160.944 141.438C160.914 141.349 160.865 141.267 160.8 141.199C160.735 141.131 160.656 141.078 160.568 141.045C160.48 141.011 160.386 140.997 160.292 141.005V142.699C160.12 142.695 159.952 142.642 159.808 142.547C159.664 142.451 159.551 142.317 159.48 142.159C153.077 137.052 127.498 114.577 127.498 88.1946Z" fill="#E2F2D9"/>
<path d="M18.104 0.491799V-0.523438H18.5101H30.5542L30.7573 -0.459963L30.6177 0.491799H30.4844H18.5101H18.104Z" fill="#E2F2D9"/>
<path d="M27.0386 9.51699L34.6915 4.49805L35.1674 5.34191L27.6033 10.4307L27.0386 9.51699Z" fill="#E2F2D9"/>
<path d="M32.4199 14.4687L40.0538 9.64648L40.5297 10.4967L32.9593 15.2809L32.4199 14.4687Z" fill="#E2F2D9"/>
<path d="M40.8848 20.7757L47.7508 15.6172L48.379 16.5055L41.4242 21.6577L40.8848 20.7757Z" fill="#E2F2D9"/>
<path d="M37.084 18.2317L43.8358 12.8066L44.445 13.5871L37.7122 19.0121L37.084 18.2317Z" fill="#E2F2D9"/>
<path d="M52.3013 27.2253L59.3894 21.5273L60.0049 22.3078L52.8407 28.0057L52.3013 27.2253Z" fill="#E2F2D9"/>
<path d="M59.459 29.0616L67.7718 23.1543L68.3303 23.9728L59.9349 29.9055L59.459 29.0616Z" fill="#E2F2D9"/>
<path d="M67.7021 31.3605L77.1318 22.1348L77.8108 22.8835L68.4002 32.0394L67.7021 31.3605Z" fill="#E2F2D9"/>
<path d="M76.9985 31.363L82.018 22.207L82.9889 22.7845L77.9631 31.8389L76.9985 31.363Z" fill="#E2F2D9"/>
<path d="M22.2222 4.42774L32.5529 2.05469L32.8258 3.10799L22.4443 5.41126L22.2222 4.42774Z" fill="#E2F2D9"/>
<path d="M59.3066 99.9578L59.5922 99.7167L68.2604 91.0684L68.8696 91.8488L68.7363 91.9821L60.0047 100.7L59.3066 99.9578Z" fill="#E2F2D9"/>
<path d="M72.7217 100.77L74.5873 91.7852L75.4884 91.9819L73.6926 101.043L72.7217 100.77Z" fill="#E2F2D9"/>
<path d="M80.019 100.365L81.9545 91.6465L82.919 91.8495L80.9836 100.637L80.019 100.365Z" fill="#E2F2D9"/>
<path d="M90.4829 99.0731L91.6569 90.3867L92.6912 90.5199L91.5173 99.1746L90.4829 99.0731Z" fill="#E2F2D9"/>
<path d="M86.0093 99.7563L86.904 91.2031L87.9384 91.3427L87.0436 99.8198L86.0093 99.7563Z" fill="#E2F2D9"/>
<path d="M103.073 95.548L104.107 86.3223L105.072 86.4872L104.107 95.6178L103.073 95.548Z" fill="#E2F2D9"/>
<path d="M109.469 91.7127L111.043 81.6367L112.077 81.7383L110.434 91.846L109.469 91.7127Z" fill="#E2F2D9"/>
<path d="M116.831 87.3692L117.103 74.2793H118.068L117.935 87.3692H116.831Z" fill="#E2F2D9"/>
<path d="M65.646 100.499L71.3508 91.5078L72.1821 92.1233L66.5978 101.044L65.646 100.499Z" fill="#E2F2D9"/>
<path d="M59.3066 86.5906L68.4 84.8965L68.5333 85.9117L59.5922 87.5107L59.3066 86.5906Z" fill="#E2F2D9"/>
<path d="M59.7256 79.1253L68.4001 77.3613L68.6667 78.3131L59.7954 80.1785L59.7256 79.1253Z" fill="#E2F2D9"/>
<path d="M60.9692 68.6143L69.6374 67.5293L69.8405 68.5445L61.1025 69.6295L60.9692 68.6143Z" fill="#E2F2D9"/>
<path d="M60.2715 73.2286L68.9397 72.3086L69.0095 73.3619L60.3413 74.1423L60.2715 73.2286Z" fill="#E2F2D9"/>
<path d="M64.4087 55.9254L73.5528 55.0117L73.6924 56.065L64.5483 56.9089L64.4087 55.9254Z" fill="#E2F2D9"/>
<path d="M68.1274 49.5149L78.3059 47.916L78.509 48.9376L68.2607 50.4985L68.1274 49.5149Z" fill="#E2F2D9"/>
<path d="M59.3066 93.8849L68.4 88.2188L68.9394 89.1007L59.8651 94.7352L59.3066 93.8849Z" fill="#E2F2D9"/>
<path d="M150.062 132.387L155.285 124.855L156.116 125.401L150.894 132.996L150.062 132.387Z" fill="#E2F2D9"/>
<path d="M144.973 126.966L149.923 119.498L150.824 119.974L145.804 127.506L144.973 126.966Z" fill="#E2F2D9"/>
<path d="M138.507 118.479L143.869 111.557L144.631 112.236L139.256 119.228L138.507 118.479Z" fill="#E2F2D9"/>
<path d="M141.191 122.28L146.75 115.561L147.518 116.239L142.004 122.889L141.191 122.28Z" fill="#E2F2D9"/>
<path d="M131.895 107.116L137.816 99.959L138.64 100.638L132.726 107.694L131.895 107.116Z" fill="#E2F2D9"/>
<path d="M130.042 99.9585L136.032 91.6465L136.914 92.2239L130.861 100.568L130.042 99.9585Z" fill="#E2F2D9"/>
<path d="M127.84 91.5753L137.27 82.1465L137.949 82.8571L128.532 92.2923L127.84 91.5753Z" fill="#E2F2D9"/>
<path d="M127.974 82.0082L137.34 77.0273L137.816 77.9728L128.532 82.9283L127.974 82.0082Z" fill="#E2F2D9"/>
<path d="M155.215 137.549L157.627 127.168L158.61 127.441L156.116 137.752L155.215 137.549Z" fill="#E2F2D9"/>
<path d="M36.3354 50.7579C53.7417 43.4294 53.399 29.8191 53.2657 28.3344L54.7062 28.2012C54.9093 29.8953 55.3408 44.3811 36.9383 52.1158L36.3354 50.7579Z" fill="#E2F2D9"/>
<path d="M36.6084 51.0397C52.6376 44.9992 62.2069 52.2579 65.494 55.4812L64.4088 56.636C60.5443 52.6006 51.7175 46.871 37.2366 52.3658L36.6084 51.0397Z" fill="#E2F2D9"/>
<path d="M51.1968 45.0461C60.6265 41.4167 63.1711 34.7036 63.8501 31.1758L64.8146 31.309C64.0531 35.1161 61.5085 42.0639 51.5331 46.0296L51.1968 45.0461Z" fill="#E2F2D9"/>
<path d="M51.1968 45.2991C60.2013 42.1773 66.4645 44.1126 70.1133 46.3524L69.5675 47.1328C66.1218 45.0262 60.1378 43.1989 51.4696 46.2826L51.1968 45.2991Z" fill="#E2F2D9"/>
<path d="M104.513 95.5425L105.478 94.3242C106.715 95.479 117.389 105.384 109.805 123.842L108.428 123.296C115.453 105.79 105.611 96.4435 104.513 95.5425Z" fill="#E2F2D9"/>
<path d="M108.854 123.298C115.834 107.695 127.631 106.064 132.517 106.064V107.556C126.869 107.556 116.558 109.662 110.231 123.907L108.854 123.298Z" fill="#E2F2D9"/>
<path d="M113.943 90.0173L114.755 89.3828C116.963 92.6061 120.066 99.4208 115.859 109.192L114.914 108.786C118.962 99.3827 115.993 93.0376 113.943 90.0173Z" fill="#E2F2D9"/>
<path d="M115.117 109.014C119.236 100.366 125.023 97.3458 129.141 96.3242L129.351 97.3077C125.499 98.2912 119.997 101.115 115.993 109.452L115.117 109.014Z" fill="#E2F2D9"/>
<path d="M41.3359 11.1418C43.9504 5.98957 49.6678 -0.323785 62.0483 -0.457031V0.494731C50.1438 0.729499 44.7118 6.66849 42.237 11.6177L41.3359 11.1418Z" fill="#E2F2D9"/>
<path d="M41.4941 -11.0451L42.3889 -11.4512C44.4449 -7.58702 49.6864 -0.93736 62.1367 -0.734317L62.0669 0.350687C49.128 -0.0553989 43.6326 -6.93981 41.4941 -11.0451Z" fill="#E2F2D9"/>
<path d="M82.919 85.4347C82.919 80.752 84.5625 74.9209 90.3497 68.9375L91.0922 69.6799C82.8428 78.1632 83.2553 86.1771 84.8988 91.4308L84.0041 91.8369C83.284 89.7792 82.9171 87.6147 82.919 85.4347Z" fill="#E2F2D9"/>
<path d="M68.3936 76.0068L68.6664 75.0551C72.8546 76.3241 81.2562 77.2949 90.191 68.748L91.0286 69.4904C81.6116 78.3165 72.7911 77.4091 68.3936 76.0068Z" fill="#E2F2D9"/>
<path d="M159.556 97.9844H160.508C160.648 109.793 166.549 115.287 171.638 117.8L171.093 118.644C166.923 116.474 159.626 110.947 159.556 97.9844Z" fill="#E2F2D9"/>
<path d="M148.482 117.599C152.398 115.563 159.016 110.341 159.353 97.8535H160.304C160 110.88 153.02 116.375 148.958 118.481L148.482 117.599Z" fill="#E2F2D9"/>
<path d="M50.9243 18.0319C50.9941 17.9304 55.6772 -0.254588 79.6132 -0.730469L79.6766 0.728892C56.9147 1.30629 52.4346 18.235 52.4346 18.438L50.9243 18.0319Z" fill="#E2F2D9"/>
<path d="M50.9243 -18.0334L52.4346 -18.4395C52.5679 -17.7605 56.9147 -1.5425 79.6766 -1.07297L79.6132 0.49427C55.6772 -0.0514069 50.9941 -17.8938 50.9243 -18.0334Z" fill="#E2F2D9"/>
<path d="M92.9579 78.2455C92.9579 72.1035 94.9441 64.3371 102.66 56.2598L103.682 57.3829C87.9384 73.8357 96.8795 88.9623 96.9493 89.1083L95.6802 89.9522C93.8315 86.3303 92.8969 82.3113 92.9579 78.2455Z" fill="#E2F2D9"/>
<path d="M70.0439 64.3365L70.8054 63.0675C71.44 63.4101 86.0033 71.8237 102.445 56.0879L103.41 57.1412C86.143 73.6955 70.247 64.438 70.0439 64.3365Z" fill="#E2F2D9"/>
<path d="M159.289 80.3438H160.78C161.186 103.072 177.641 107.418 178.421 107.551L178.085 109.081C177.768 109.011 159.695 104.296 159.289 80.3438Z" fill="#E2F2D9"/>
<path d="M141.528 107.551C142.22 107.418 158.407 103.072 158.877 80.3438H160.375C159.899 104.296 142.086 109.011 141.934 109.081L141.528 107.551Z" fill="#E2F2D9"/>
<path d="M27.1783 42.555C27.1506 38.0358 28.1881 33.5736 30.2068 29.53C32.2254 25.4865 35.1684 21.9754 38.7972 19.2812L39.7681 20.6772C32.9465 25.6263 28.8916 33.8686 28.8282 42.555C28.8515 49.9081 31.7797 56.9541 36.9749 62.1583C42.1701 67.3625 49.2114 70.3033 56.5651 70.3401L60.6327 69.934L60.8358 71.5965C59.4229 71.8171 57.9952 71.9295 56.5651 71.9327C52.7046 71.9394 48.8808 71.1841 45.3128 69.7102C41.7449 68.2363 38.5029 66.0727 35.7728 63.3435C33.0427 60.6143 30.8783 57.3731 29.4034 53.8058C27.9286 50.2384 27.1724 46.4151 27.1783 42.555Z" fill="#E2F2D9"/>
<path d="M87.5137 103.424C87.5262 102.048 87.645 100.676 87.869 99.3184L89.5189 99.5912C88.9111 103.807 89.3038 108.107 90.6652 112.144C92.0266 116.18 94.3186 119.84 97.3558 122.827C99.9212 125.407 102.971 127.455 106.331 128.852C109.691 130.25 113.294 130.969 116.932 130.969C120.571 130.969 124.174 130.25 127.533 128.852C130.893 127.455 133.943 125.407 136.509 122.827C137.496 121.872 138.393 120.827 139.187 119.705L140.494 120.72C139.641 121.899 138.699 123.01 137.676 124.045C133.57 128.129 128.349 130.91 122.669 132.039C116.989 133.168 111.101 132.596 105.745 130.394C100.388 128.192 95.8011 124.458 92.558 119.66C89.3148 114.863 87.56 109.214 87.5137 103.424Z" fill="#E2F2D9"/>
<path d="M33.4547 40.0806C33.4335 33.045 35.9707 26.2415 40.5936 20.9375L41.5582 21.6862C37.0845 26.5719 34.7556 33.1518 34.6921 40.087C34.7122 47.295 37.4371 54.233 42.3277 59.5285C47.2183 64.8241 53.9185 68.0914 61.1029 68.6842L61.0331 69.8391C53.5485 69.2223 46.5663 65.8253 41.4618 60.3173C36.3573 54.8093 33.5007 47.5897 33.4547 40.0806Z" fill="#E2F2D9"/>
<path d="M90.3496 99.1782L91.587 99.0703C91.9548 105.86 94.8553 112.265 99.7158 117.021C104.863 122.09 111.72 125.05 118.939 125.32C126.159 125.59 133.218 123.15 138.729 118.48L139.408 119.362C133.673 124.235 126.318 126.778 118.798 126.489C111.278 126.2 104.14 123.099 98.7957 117.801C93.8218 112.818 90.8214 106.202 90.3496 99.1782Z" fill="#E2F2D9"/>
<path d="M33.4547 40.0806C33.4335 33.045 35.9707 26.2415 40.5936 20.9375L41.5582 21.6862C37.0845 26.5719 34.7556 33.1518 34.6921 40.087C34.7122 47.295 37.4371 54.233 42.3277 59.5285C47.2183 64.8241 53.9185 68.0914 61.1029 68.6842L61.0331 69.8391C53.5485 69.2223 46.5663 65.8253 41.4618 60.3173C36.3573 54.8093 33.5007 47.5897 33.4547 40.0806Z" fill="#E2F2D9"/>
<path d="M30.5483 29.7283C32.9534 28.3387 35.2949 26.9492 37.4334 25.623L38.068 26.6763C35.8597 27.9961 33.626 29.3222 31.1956 30.6103L30.5483 29.7283Z" fill="#E2F2D9"/>
<path d="M28.8413 35.6703C29.6536 35.2262 30.5546 34.6868 31.3796 34.1412C32.6868 33.3988 34.0638 32.5803 35.4345 31.8379" fill="#E2F2D9"/>
<path d="M28.1436 40.4536C29.8759 39.432 31.5195 38.347 33.2201 37.4333L34.3877 36.7227" fill="#E2F2D9"/>
<path d="M34.1973 41.1348C32.1286 42.2896 30.079 43.5078 28.1436 44.5928L34.1973 41.1348Z" fill="#E2F2D9"/>
<path d="M34.6032 45.5039C32.5535 46.627 30.5546 47.7818 28.7017 48.797L34.6032 45.5039Z" fill="#E2F2D9"/>
<path d="M35.5739 49.1406C33.6702 50.2891 31.7221 51.3106 29.8628 52.5289L35.5739 49.1406Z" fill="#E2F2D9"/>
<path d="M36.8938 52.5312C35.0409 53.6163 33.245 54.8726 31.3921 55.7863L36.8938 52.5312Z" fill="#E2F2D9"/>
<path d="M38.7405 55.9883C36.8812 57.0416 35.0283 58.1646 33.3657 59.1608L38.7405 55.9883Z" fill="#E2F2D9"/>
<path d="M41.0819 59.0098C39.4193 59.8917 37.5727 60.9767 35.8403 62.1315L41.0819 59.0098Z" fill="#E2F2D9"/>
<path d="M43.766 61.5449C42.1225 62.5982 40.3901 63.5119 38.8101 64.5652L43.766 61.5449Z" fill="#E2F2D9"/>
<path d="M46.9897 64.1973C45.311 65.0613 43.6856 66.0253 42.1226 67.0843L46.9897 64.1973Z" fill="#E2F2D9"/>
<path d="M45.9048 69.0834C47.2755 68.2712 48.7857 67.459 50.296 66.5073C50.3137 66.5169 50.3333 66.5227 50.3534 66.5243C50.3735 66.526 50.3937 66.5234 50.4128 66.5169C50.4319 66.5103 50.4494 66.4999 50.4643 66.4862C50.4791 66.4725 50.491 66.456 50.4991 66.4375" fill="#E2F2D9"/>
<path d="M50.791 70.6469C51.1939 70.3267 51.6326 70.0541 52.0982 69.8348C53.0485 69.2139 54.0337 68.6483 55.049 68.1406" fill="#E2F2D9"/>
<path d="M60.5444 69.2852C59.4312 69.7947 58.3688 70.4087 57.3716 71.1189L60.5444 69.2852Z" fill="#E2F2D9"/>
<path d="M90.3496 99.1782L91.587 99.0703C91.9548 105.86 94.8553 112.265 99.7158 117.021C104.863 122.09 111.72 125.05 118.939 125.32C126.159 125.59 133.218 123.15 138.729 118.48L139.408 119.362C133.673 124.235 126.318 126.778 118.798 126.489C111.278 126.2 104.14 123.099 98.7957 117.801C93.8218 112.818 90.8214 106.202 90.3496 99.1782Z" fill="#E2F2D9"/>
<path d="M89.4487 112.508L89.6518 111.626C90.1912 109.418 90.8892 107.045 91.5174 104.805L92.6025 105.109C92.0632 107.317 91.4349 109.659 90.7559 111.892L90.5529 112.844L89.4487 112.508Z" fill="#E2F2D9"/>
<path d="M92.5327 118.017C92.7548 117.034 92.9579 116.114 93.2307 115.099C93.5734 113.639 93.9288 112.047 94.3983 110.619" fill="#E2F2D9"/>
<path d="M95.3691 121.825C95.7753 119.922 96.2512 118.018 96.8096 116.115C96.9492 115.709 97.0825 115.099 97.1523 114.795" fill="#E2F2D9"/>
<path d="M100.033 118.016C99.4938 120.255 98.7958 122.629 98.3198 124.729L100.033 118.016Z" fill="#E2F2D9"/>
<path d="M103.409 120.855C102.775 123.095 102.235 125.399 101.626 127.372L103.409 120.855Z" fill="#E2F2D9"/>
<path d="M106.785 122.686C106.227 124.856 105.548 126.956 105.072 129.031L106.785 122.686Z" fill="#E2F2D9"/>
<path d="M110.091 124.078C109.603 126.318 109.127 128.418 108.499 130.423L110.091 124.078Z" fill="#E2F2D9"/>
<path d="M113.81 125.395C113.252 127.368 112.776 129.468 112.351 131.365L113.81 125.395Z" fill="#E2F2D9"/>
<path d="M117.655 125.809C117.021 127.716 116.519 129.664 116.151 131.64L117.655 125.809Z" fill="#E2F2D9"/>
<path d="M121.374 125.668C120.816 127.635 120.41 129.475 119.934 131.379L121.374 125.668Z" fill="#E2F2D9"/>
<path d="M125.499 125.395C124.882 127.143 124.398 128.935 124.052 130.756L125.499 125.395Z" fill="#E2F2D9"/>
<path d="M128.177 129.469C128.532 127.908 129.008 126.297 129.484 124.615C129.484 124.615 129.617 124.615 129.484 124.412" fill="#E2F2D9"/>
<path d="M132.714 127.1C132.861 126.609 132.976 126.108 133.057 125.602C133.393 124.485 133.545 123.432 133.888 122.43" fill="#E2F2D9"/>
<path d="M138.71 119.361C138.277 120.486 137.931 121.642 137.676 122.819L138.71 119.361Z" fill="#E2F2D9"/>
<path d="M11.0097 61.2821C11.0097 58.9725 14.4554 55.8507 19.4748 53.6109C23.682 51.8787 27.8004 51.2378 29.9389 52.05C30.5338 52.2964 31.0218 52.7461 31.3159 53.319C31.462 53.5662 31.5325 53.8507 31.5189 54.1375C31.5189 56.4408 28.0034 59.5626 23.0538 61.6691C18.8593 63.5727 14.7219 64.1754 12.539 63.3633C12.2315 63.2724 11.9474 63.1158 11.7064 62.9044C11.4654 62.6929 11.2731 62.4317 11.143 62.1387C11.0414 61.865 10.996 61.5737 11.0097 61.2821ZM30.345 54.1566C30.3619 54.0385 30.3396 53.9181 30.2815 53.8139C30.1419 53.4776 29.8754 53.338 29.4502 53.135C27.8702 52.5005 24.4245 52.767 19.9635 54.734C15.0773 56.8342 12.1773 59.7212 12.1773 61.2821C12.1669 61.4211 12.1909 61.5606 12.2471 61.6882C12.4119 61.988 12.6839 62.2147 13.0086 62.3227C14.7917 63.0333 18.7959 62.3227 22.5779 60.6603C27.4641 58.5664 30.345 55.6476 30.345 54.1566Z" fill="#E2F2D9"/>
<path d="M96.9492 145.07C97.0184 142.42 97.551 139.802 98.5229 137.336C100.186 133.066 102.66 129.722 104.786 128.821C105.066 128.639 105.388 128.532 105.721 128.509C106.054 128.485 106.387 128.547 106.69 128.687C107.794 129.062 108.403 130.483 108.403 132.793C108.327 135.42 107.795 138.013 106.829 140.458C105.116 144.804 102.635 148.23 100.484 149.043C100.199 149.196 99.8848 149.287 99.5621 149.31C99.2394 149.333 98.9155 149.287 98.6118 149.176C97.4886 148.738 96.9492 147.31 96.9492 145.07ZM107.331 132.793C107.331 131.162 106.918 130.014 106.309 129.804C105.968 129.693 105.598 129.718 105.275 129.874C103.682 130.509 101.423 133.269 99.6969 137.742C98.725 140.067 98.1894 142.551 98.1168 145.07C98.1168 146.701 98.4531 147.786 99.1512 148.059C99.424 148.23 99.6969 148.23 100.116 147.919C101.899 147.241 104.171 144.024 105.681 140.052C106.662 137.751 107.221 135.292 107.331 132.793Z" fill="#E2F2D9"/>
<path d="M11.2319 62.2995L12.1774 61.5508C12.2472 61.6904 26.5631 78.3145 53.5386 70.9161L53.8051 72.1027C26.2268 79.666 11.3652 62.4708 11.2319 62.2995Z" fill="#E2F2D9"/>
<path d="M11.0796 60.3653C11.0796 54.8705 12.6723 36.9266 33.4545 24.4395L34.089 25.5244C13.9351 37.5801 12.2726 55.0735 12.2726 60.3018V61.8247L11.1684 61.9579C11.1684 61.9579 11.0796 61.2853 11.0796 60.3653Z" fill="#E2F2D9"/>
<path d="M98.7959 149.248L98.9482 148.062C99.1513 148.062 121.018 149.692 134.858 125.467L135.88 126.101C121.71 151.012 99.0815 149.248 98.7959 149.248Z" fill="#E2F2D9"/>
<path d="M86.1426 119.495C86.195 115.2 86.7747 110.927 87.8686 106.773L88.9537 107.046C82.0877 134.184 99.1512 148.061 99.2845 148.232L98.523 149.108C98.4469 148.975 86.1426 138.956 86.1426 119.495Z" fill="#E2F2D9"/>
<path d="M11.3652 20.3399L28.6318 10.7715L29.3108 12.0278L12.114 21.5899L11.3652 20.3399Z" fill="#E2F2D9"/>
<path d="M0 1.14167V-1.06641L18.3073 -0.933146L18.2375 1.30665L0 1.14167Z" fill="#E2F2D9"/>
<path d="M11.701 18.1632C12.0679 18.153 12.4331 18.2166 12.775 18.3501C13.1168 18.4837 13.4284 18.6845 13.6911 18.9408C13.9539 19.197 14.1625 19.5034 14.3047 19.8418C14.4468 20.1801 14.5195 20.5436 14.5185 20.9106C14.526 21.4617 14.3698 22.0027 14.0697 22.465C13.7696 22.9273 13.3391 23.2902 12.8326 23.5078C12.3262 23.7253 11.7665 23.7878 11.2246 23.6872C10.6826 23.5866 10.1827 23.3275 9.78804 22.9427C9.39341 22.5578 9.12184 22.0646 9.00767 21.5254C8.89351 20.9862 8.94189 20.4252 9.1467 19.9135C9.35151 19.4018 9.70354 18.9623 10.1582 18.6507C10.6129 18.3392 11.1498 18.1695 11.701 18.1632Z" fill="#E2F2D9"/>
<path d="M69.2949 119.493L74.7268 100.496L76.1673 100.909L70.7417 119.906L69.2949 119.493Z" fill="#E2F2D9"/>
<path d="M40.0542 89.2336L59.307 83.6055L59.7258 85.0268L40.4603 90.6612L40.0542 89.2336Z" fill="#E2F2D9"/>
<path d="M46.1079 112.435L59.1039 99.5098L60.6966 101.109L47.6182 113.862L46.1079 112.435Z" fill="#E2F2D9"/>
<path d="M67.9875 117.66C68.532 117.156 69.2471 116.875 69.9896 116.875C70.7321 116.875 71.4472 117.156 71.9916 117.66C72.2727 117.913 72.4997 118.221 72.6589 118.564C72.8181 118.907 72.9063 119.278 72.9182 119.656C72.93 120.034 72.8653 120.411 72.7279 120.763C72.5905 121.116 72.3832 121.437 72.1186 121.707C71.8539 121.977 71.5374 122.191 71.1879 122.336C70.8385 122.48 70.4634 122.553 70.0852 122.549C69.707 122.545 69.3335 122.464 68.9872 122.312C68.6409 122.16 68.3289 121.94 68.07 121.664C67.7961 121.41 67.5761 121.103 67.4232 120.762C67.2703 120.421 67.1875 120.053 67.1798 119.68C67.1721 119.306 67.2396 118.935 67.3784 118.588C67.5172 118.241 67.7243 117.926 67.9875 117.66Z" fill="#E2F2D9"/>
<path d="M38.1631 87.9492C38.427 87.6755 38.7435 87.4579 39.0935 87.3092C39.4434 87.1606 39.8198 87.084 40.2 87.084C40.5803 87.084 40.9566 87.1606 41.3066 87.3092C41.6566 87.4579 41.973 87.6755 42.237 87.9492C42.7478 88.483 43.0329 89.1932 43.0329 89.932C43.0329 90.6708 42.7478 91.3811 42.237 91.9149C41.7099 92.45 40.9925 92.7547 40.2414 92.7626C39.4903 92.7705 38.7667 92.4809 38.2285 91.957C37.6903 91.4331 37.3813 90.7176 37.369 89.9666C37.3568 89.2157 37.6422 88.4904 38.1631 87.9492Z" fill="#E2F2D9"/>
<path d="M138.222 147.924L147.924 130.285L149.231 131.028L139.529 148.603L138.222 147.924Z" fill="#E2F2D9"/>
<path d="M158.883 160.002L159.086 141.652L161.186 141.786L161.053 160.002H158.883Z" fill="#E2F2D9"/>
<path d="M136.032 148.232C136.066 147.509 136.378 146.827 136.902 146.327C137.426 145.828 138.122 145.549 138.846 145.549C139.57 145.549 140.267 145.828 140.791 146.327C141.315 146.827 141.626 147.509 141.661 148.232C141.679 148.613 141.619 148.994 141.486 149.351C141.353 149.708 141.148 150.034 140.885 150.31C140.622 150.586 140.306 150.806 139.955 150.956C139.605 151.106 139.228 151.183 138.846 151.183C138.465 151.183 138.088 151.106 137.737 150.956C137.387 150.806 137.07 150.586 136.807 150.31C136.544 150.034 136.34 149.708 136.207 149.351C136.073 148.994 136.014 148.613 136.032 148.232Z" fill="#E2F2D9"/>
<path d="M79.2007 66.3075C79.2007 66.0347 80.5777 49.1758 96.2515 49.1758V50.5019C81.8849 50.5019 80.5777 65.5969 80.5777 66.3646L79.2007 66.3075Z" fill="#E2F2D9"/>
<path d="M77.2715 50.5293L77.4047 49.2031C81.2566 49.5077 84.4929 50.6942 86.974 52.9023C90.8893 55.9226 92.3996 60.3641 93.0976 63.5176L91.8602 63.8603C91.1622 60.9415 89.7915 56.7347 86.0729 53.9556C83.8012 51.9188 80.8504 50.8338 77.2715 50.5293Z" fill="#E2F2D9"/>
<path d="M144.771 91.0692C144.771 87.5033 146.008 83.6074 149.79 79.9082L150.672 80.8219C140.424 90.974 150.329 102.535 150.754 103.074L149.72 103.924C149.72 103.855 144.771 98.125 144.771 91.0692Z" fill="#E2F2D9"/>
<path d="M136.438 93.3102C139.319 90.6643 142.429 89.2366 145.646 89.0336C151.23 88.2849 156.047 91.2036 157.627 92.1554L156.948 93.3102C154.314 91.7112 150.399 89.7442 145.798 90.3914C142.835 90.5247 140.017 91.8508 137.333 94.2556L136.438 93.3102Z" fill="#E2F2D9"/>
<path d="M56.9146 9.64901L57.7966 8.5957C58.2852 9.10331 69.8534 18.8113 80.0065 8.69725L80.971 9.57918C69.8407 20.6767 56.978 9.78226 56.9146 9.64901Z" fill="#E2F2D9"/>
<path d="M66.1221 22.7126C73.5529 15.0414 70.177 6.66594 67.5625 2.45915L68.6667 1.64062C71.554 6.2535 75.1964 15.2762 67.0232 23.5565L66.1221 22.7126Z" fill="#E2F2D9"/>
<path d="M93.8398 78.3144C94.4744 78.3144 109.603 77.0898 109.603 62.7373V62.6738H110.973V62.7373C110.973 78.3144 94.1318 79.6659 93.9287 79.6977L93.8398 78.3144Z" fill="#E2F2D9"/>
<path d="M96.251 67.0859L96.5365 65.7598C101.899 66.9463 110.84 70.7153 110.973 82.4156H109.602C109.532 71.6607 101.27 68.2026 96.251 67.0859Z" fill="#E2F2D9"/>
<path d="M120.885 -0.00268936C120.875 -7.73266 123.158 -15.292 127.445 -21.7245C131.732 -28.1571 137.831 -33.1739 144.969 -36.1404C152.108 -39.107 159.966 -39.89 167.55 -38.3904C175.134 -36.8908 182.103 -33.176 187.575 -27.7159C193.047 -22.2557 196.777 -15.2955 198.293 -7.71556C199.809 -0.13562 199.042 7.72353 196.09 14.8679C193.139 22.0122 188.134 28.1207 181.71 32.4209C175.286 36.721 167.731 39.0196 160 39.0259C149.64 39.0259 139.704 34.9166 132.371 27.5997C125.038 20.2828 120.907 10.3559 120.885 -0.00268936ZM198.233 -0.00268936C198.238 -7.5619 196.001 -14.9529 191.805 -21.2411C187.61 -27.5293 181.644 -32.4324 174.661 -35.3304C167.679 -38.2284 159.994 -38.9911 152.578 -37.5222C145.163 -36.0534 138.349 -32.4188 132.999 -27.0781C127.649 -21.7373 124.002 -14.9303 122.521 -7.51761C121.04 -0.104935 121.79 7.58047 124.677 14.5669C127.563 21.5533 132.457 27.5271 138.739 31.7327C145.02 35.9384 152.408 38.1872 159.968 38.1947C170.102 38.183 179.818 34.1569 186.99 26.9978C194.162 19.8388 198.204 10.1301 198.233 -0.00268936Z" fill="#E2F2D9"/>
<path d="M117.236 -0.00413513C117.241 -8.45398 119.752 -16.7127 124.45 -23.7364C129.148 -30.7601 135.823 -36.2335 143.631 -39.4648C151.439 -42.6961 160.03 -43.5402 168.319 -41.8905C176.607 -40.2408 184.219 -36.1713 190.195 -30.1963C196.17 -24.2214 200.24 -16.6092 201.89 -8.32199C203.54 -0.0347481 202.696 8.55554 199.464 16.3631C196.233 24.1708 190.759 30.8452 183.734 35.5428C176.71 40.2404 168.451 42.7504 160 42.7554C148.662 42.7436 137.792 38.2348 129.774 30.2184C121.757 22.202 117.248 11.3328 117.236 -0.00413513ZM201.799 -0.00413513C201.799 -8.29024 199.34 -16.3901 194.735 -23.2786C190.129 -30.1671 183.583 -35.5346 175.926 -38.7018C168.268 -41.8689 159.843 -42.6934 151.716 -41.0709C143.59 -39.4483 136.127 -35.4517 130.274 -29.5867C124.42 -23.7218 120.437 -16.2522 118.831 -8.12336C117.224 0.00551605 118.065 8.42826 121.248 16.0789C124.43 23.7296 129.811 30.2643 136.709 34.8559C143.608 39.4475 151.713 41.8897 160 41.8734C171.093 41.8516 181.725 37.4298 189.561 29.5786C197.398 21.7274 201.799 11.0882 201.799 -0.00413513Z" fill="#E2F2D9"/>
</svg>
