<svg width="264" height="261" viewBox="0 0 264 261" fill="none" xmlns="http://www.w3.org/2000/svg">
<path d="M-129.602 260.994C-129.602 187.941 -70.1131 128.51 2.94632 128.51C76.0058 128.51 135.495 187.972 135.495 260.994C135.495 334.015 75.9954 393.478 2.99806 393.478C-69.9993 393.478 -129.602 334.067 -129.602 260.994ZM132.11 260.994C132.093 226.757 118.486 193.926 94.2776 169.714C70.0689 145.502 37.2384 131.888 2.99806 131.863C-68.1464 131.863 -126.29 189.69 -126.29 261.025C-126.29 332.359 -68.1982 390.29 2.99806 390.29C74.1943 390.29 132.11 332.297 132.11 260.994Z" fill="#E2F2D9"/>
<path d="M-84.7192 260.995C-84.7233 243.647 -79.5823 226.687 -69.9463 212.261C-60.3104 197.835 -46.6123 186.59 -30.5845 179.948C-14.5567 173.306 3.08093 171.567 20.0977 174.948C37.1145 178.33 52.746 186.682 65.0155 198.948C77.285 211.213 85.6414 226.841 89.0276 243.856C92.4139 260.87 90.6779 278.506 84.0395 294.534C77.401 310.562 66.1582 324.261 51.7327 333.9C37.3073 343.538 20.3473 348.683 2.99766 348.683C-20.2568 348.664 -42.5537 339.42 -58.9991 322.98C-75.4444 306.54 -84.6946 284.247 -84.7192 260.995ZM88.1475 260.995C88.1311 244.154 83.1214 227.696 73.7519 213.702C64.3824 199.707 51.0737 188.805 35.5082 182.372C19.9426 175.94 2.81927 174.266 -13.6973 177.563C-30.2138 180.86 -45.382 188.98 -57.2842 200.895C-69.1864 212.811 -77.2883 227.988 -80.5655 244.507C-83.8428 261.026 -82.1484 278.145 -75.6964 293.701C-69.2445 309.258 -58.3247 322.552 -44.3175 331.904C-30.3104 341.255 -13.8448 346.244 2.99766 346.24C25.579 346.185 47.2179 337.182 63.1727 321.204C79.1276 305.225 88.0973 283.574 88.1164 260.995H88.1475Z" fill="#E2F2D9"/>
<path d="M-76.1694 260.991C-76.1612 245.346 -71.5147 230.055 -62.8172 217.051C-54.1196 204.046 -41.7615 193.912 -27.3049 187.929C-12.8483 181.946 3.05768 180.382 18.4026 183.436C33.7476 186.49 47.8426 194.025 58.9059 205.087C69.9693 216.15 77.5044 230.243 80.5588 245.587C83.6132 260.93 82.0497 276.835 76.0661 291.29C70.0824 305.745 59.9471 318.102 46.9414 326.799C33.9356 335.495 18.6433 340.142 2.99731 340.15C-17.9923 340.128 -38.1159 331.781 -52.9578 316.94C-67.7997 302.1 -76.1475 281.978 -76.1694 260.991ZM79.7004 260.991C79.6943 245.823 75.1905 230.998 66.7585 218.389C58.3265 205.781 46.345 195.955 32.3288 190.155C18.3126 184.355 2.89114 182.84 -11.9858 185.803C-26.8627 188.766 -40.5269 196.073 -51.2509 206.8C-61.975 217.528 -69.2772 231.194 -72.2342 246.07C-75.1913 260.947 -73.6706 276.366 -67.8642 290.379C-62.0578 304.391 -52.2265 316.368 -39.6134 324.794C-27.0004 333.22 -12.1718 337.717 2.99731 337.717C23.3338 337.679 42.826 329.582 57.2033 315.2C71.5805 300.819 79.6703 281.325 79.7004 260.991Z" fill="#E2F2D9"/>
<path d="M88.6138 248.967L132.555 243.43L133 245.862L88.8415 251.399L88.6138 248.967Z" fill="#E2F2D9"/>
<path d="M86.3984 238.29L129.46 227.277L130.008 229.71L87.0091 240.66L86.3984 238.29Z" fill="#E2F2D9"/>
<path d="M77.9932 218.249L117.059 196.834L118.167 199.049L79.2664 220.412L77.9932 218.249Z" fill="#E2F2D9"/>
<path d="M72.0713 209.171L108.094 183.109L109.429 185.045L73.448 211.107L72.0713 209.171Z" fill="#E2F2D9"/>
<path d="M65.147 200.931L97.4741 170.49L99.1303 172.26L66.6997 202.7L65.147 200.931Z" fill="#E2F2D9"/>
<path d="M56.959 193.627L85.3008 159.43L87.2365 160.972L58.8429 195.18L56.959 193.627Z" fill="#E2F2D9"/>
<path d="M47.9429 187.32L71.9579 149.852L74.0074 151.125L50.096 188.696L47.9429 187.32Z" fill="#E2F2D9"/>
<path d="M38.4199 182.281L57.4042 142.049L59.6194 143.156L40.6869 183.222L38.4199 182.281Z" fill="#E2F2D9"/>
<path d="M28.3999 178.409L42.1257 136.18L44.4548 136.956L30.7807 179.237L28.3999 178.409Z" fill="#E2F2D9"/>
<path d="M17.8833 175.913L26.1954 132.256L28.514 132.639L20.3262 176.359L17.8833 175.913Z" fill="#E2F2D9"/>
<path d="M6.98291 174.706L9.80879 130.324L12.2414 130.542L9.47755 174.924L6.98291 174.706Z" fill="#E2F2D9"/>
<path d="M124.253 211.657C180.812 190.077 234.722 259.269 235.167 259.921L235.384 260.024L233.449 262.032L233.118 261.815C232.455 260.925 179.819 193.41 125.143 214.276L124.253 211.657Z" fill="#E2F2D9"/>
<path d="M124.253 309.887L125.143 307.278C179.601 328.093 232.455 260.578 233.118 259.801L233.449 259.584L235.384 261.354L235.167 261.799C233.004 264.449 180.595 331.239 124.253 309.887Z" fill="#E2F2D9"/>
<path d="M129.128 226.318L133.424 224.766C171.724 210.606 207.747 251.997 214.444 260.298L214.661 260.516L213.564 261.623L213.222 261.406C206.473 253.043 171.279 212.594 133.973 226.215L129.656 227.922L129.128 226.318Z" fill="#E2F2D9"/>
<path d="M129.128 295.146L129.677 293.707L133.994 295.373C167.594 307.659 200.128 275.553 212.663 261.217L212.995 260.783V260.555L213.554 259.893L214.434 260.783H214.651V261.445L213.885 262.273C201.205 276.826 167.998 309.647 133.414 296.967L129.128 295.146Z" fill="#E2F2D9"/>
<path d="M67.5791 147.357L69.5769 143.155C86.5634 106.069 141.187 109.723 152.056 110.913L152.16 110.799L152.273 112.466L151.942 112.569C141.146 111.462 87.6295 107.705 70.9226 143.786L68.9765 147.988L67.5791 147.357Z" fill="#E2F2D9"/>
<path d="M115.62 194.503L119.884 192.619C152.315 177.621 152.75 131.749 151.321 112.828V112.27L151.094 112.104V111.276H152.201L152.429 111.059L152.864 111.493V112.715C154.365 132.08 153.899 178.677 120.433 194.006L116.179 195.942L115.62 194.503Z" fill="#E2F2D9"/>
<path d="M-36.2129 114.382C-36.2129 82.72 -4.92093 55.3848 2.27323 49.4644L2.38711 49.2988L3.60855 50.4063L3.38083 50.6237C-4.90022 57.4859 -45.4255 92.9047 -31.7308 129.928L-30.1574 134.296L-31.7308 134.958L-33.418 130.58C-35.2537 125.376 -36.1986 119.9 -36.2129 114.382Z" fill="#E2F2D9"/>
<path d="M1.96191 50.4063L2.73826 49.4644V49.2988H3.29724L4.33237 50.1889C18.8242 62.7956 51.4825 96.1133 38.8125 130.538L36.9804 134.958L35.5415 134.296L37.2081 129.928C49.6296 96.5584 17.6131 63.8514 3.11089 51.2654L2.67616 50.9342H2.44843L1.96191 50.4063Z" fill="#E2F2D9"/>
<path d="M53.5225 140.384C78.9245 84.7715 165.544 95.8774 166.424 96.1154L166.538 98.7754H166.093C165.213 98.6616 80.6429 87.711 56.1206 141.491L53.5225 140.384Z" fill="#E2F2D9"/>
<path d="M122.265 207.567C175.554 183.44 164.985 98.5467 164.881 97.6048V96.8906H167.583V97.4599C167.801 98.1327 178.483 185.065 123.249 210.02L122.265 207.567Z" fill="#E2F2D9"/>
<path d="M-50.6015 117.12C-50.6015 74.3425 -8.84437 37.5989 1.61044 29.0702C1.7357 28.823 1.92652 28.6151 2.16203 28.469C2.39753 28.323 2.66866 28.2445 2.94576 28.2422V30.954C3.2281 30.9571 3.50075 30.8512 3.70704 30.6585C3.91333 30.4657 4.03736 30.2008 4.05333 29.9189V30.5814L3.60823 30.9126C-7.71609 40.1036 -62.9403 88.036 -43.8525 138.856L-46.4506 139.891C-49.2049 132.616 -50.6115 124.9 -50.6015 117.12Z" fill="#E2F2D9"/>
<path d="M1.39355 30.5954V29.933C1.39355 30.2075 1.5026 30.4708 1.69672 30.6649C1.89085 30.859 2.15415 30.968 2.42868 30.968V28.2148C2.71834 28.2229 3.00143 28.3028 3.25257 28.4473C3.50371 28.5918 3.71501 28.7965 3.8675 29.0429C15.9889 39.0102 71.4408 87.812 51.9079 139.791L49.3614 138.756C68.3975 88.1742 13.1319 40.0246 1.98355 30.8438L1.39355 30.5954Z" fill="#E2F2D9"/>
<path d="M234.39 260.145H213.802V261.801H234.39V260.145Z" fill="#E2F2D9"/>
<path d="M206.493 252.391L218.998 244.09L220.002 245.415L207.435 253.664L206.493 252.391Z" fill="#E2F2D9"/>
<path d="M197.757 243.872L210.148 236.006L211.038 237.445L198.637 245.249L197.757 243.872Z" fill="#E2F2D9"/>
<path d="M184.963 234.237L196.318 225.719L197.416 227.044L186.133 235.572L184.963 234.237Z" fill="#E2F2D9"/>
<path d="M191.391 238.888L202.405 229.986L203.399 231.363L192.499 240.109L191.391 238.888Z" fill="#E2F2D9"/>
<path d="M165.989 224.611L177.717 215.316L178.711 216.641L166.983 225.884L165.989 224.611Z" fill="#E2F2D9"/>
<path d="M152.429 221.954L166.093 212.328L166.983 213.663L153.371 223.289L152.429 221.954Z" fill="#E2F2D9"/>
<path d="M136.819 223.727L152.212 208.781L153.475 210.003L138.206 224.886L136.819 223.727Z" fill="#E2F2D9"/>
<path d="M128.631 223.943L136.819 209.111L138.309 209.888L130.121 224.72L128.631 223.943Z" fill="#E2F2D9"/>
<path d="M210.375 256.262L227.31 252.174L227.641 253.882L210.81 257.701L210.375 256.262Z" fill="#E2F2D9"/>
<path d="M151.539 111.273L151.766 111.055L165.875 96.834L167.252 97.9932L166.755 98.3245L152.646 112.494L151.539 111.273Z" fill="#E2F2D9"/>
<path d="M140.856 110.949L143.682 96.293L145.401 96.676L142.409 111.28L140.856 110.949Z" fill="#E2F2D9"/>
<path d="M128.631 111.174L131.788 96.8906L133.444 97.2218L130.235 111.505L128.631 111.174Z" fill="#E2F2D9"/>
<path d="M112.855 113.328L114.739 99.2207L116.292 99.5519L114.408 113.608L112.855 113.328Z" fill="#E2F2D9"/>
<path d="M120.433 112.113L122.048 98.1094L123.59 98.2232L122.265 112.279L120.433 112.113Z" fill="#E2F2D9"/>
<path d="M92.4844 119.91L94.151 105.191L95.7554 105.419L94.151 120.189L92.4844 119.91Z" fill="#E2F2D9"/>
<path d="M81.0884 127.658L83.8625 111.273L85.5187 111.501L82.6411 127.989L81.0884 127.658Z" fill="#E2F2D9"/>
<path d="M71.2959 139.835L71.6271 118.482H73.2316L73.0142 139.835H71.2959Z" fill="#E2F2D9"/>
<path d="M146.176 110.837L155.358 96.2227L156.683 96.9989L147.615 111.717L146.176 110.837Z" fill="#E2F2D9"/>
<path d="M152.098 120.913L166.869 118.139L167.252 119.691L152.315 122.569L152.098 120.913Z" fill="#E2F2D9"/>
<path d="M151.87 133.198L166.32 130.207L166.755 131.863L152.211 134.854L151.87 133.198Z" fill="#E2F2D9"/>
<path d="M149.935 149.296L164.323 147.475L164.54 149.079L150.152 150.901L149.935 149.296Z" fill="#E2F2D9"/>
<path d="M151.321 141.437L165.544 140.061L165.658 141.717L151.435 143.041L151.321 141.437Z" fill="#E2F2D9"/>
<path d="M143.682 169.662L158.681 168.172L158.795 169.88L143.899 171.267L143.682 169.662Z" fill="#E2F2D9"/>
<path d="M135.929 181.226L152.647 178.576L152.864 180.232L136.271 182.892L135.929 181.226Z" fill="#E2F2D9"/>
<path d="M151.539 115.703L166.32 106.512L167.252 107.961L152.315 117.09L151.539 115.703Z" fill="#E2F2D9"/>
<path d="M2.28369 50.0725V49.7413V29.5996H3.82602V30.1482V50.1864L2.28369 50.0725Z" fill="#E2F2D9"/>
<path d="M9.36377 56.5549L17.8829 44.1035L19.1044 45.0454L10.6888 57.4347L9.36377 56.5549Z" fill="#E2F2D9"/>
<path d="M17.9966 65.2952L26.0809 52.9473L27.4059 53.9409L19.3215 66.2267L17.9966 65.2952Z" fill="#E2F2D9"/>
<path d="M27.9551 77.968L36.7019 66.6758L38.0269 67.5659L29.1765 78.9616L27.9551 77.968Z" fill="#E2F2D9"/>
<path d="M23.2554 71.5518L32.2817 60.5391L33.6067 61.5844L24.6424 72.5972L23.2554 71.5518Z" fill="#E2F2D9"/>
<path d="M37.8091 96.8894L47.4979 85.3281L48.6572 86.3735L38.9787 97.9969L37.8091 96.8894Z" fill="#E2F2D9"/>
<path d="M40.583 110.614L50.4271 96.9512L51.7624 97.9966L41.9079 111.618L40.583 110.614Z" fill="#E2F2D9"/>
<path d="M38.8647 125.835L54.195 110.506L55.3544 111.613L39.9723 126.994L38.8647 125.835Z" fill="#E2F2D9"/>
<path d="M38.9785 133.915L54.1949 125.779L54.9092 127.218L39.8584 135.405L38.9785 133.915Z" fill="#E2F2D9"/>
<path d="M5.16064 53.23L9.13557 36.2969L10.8021 36.6798L6.76508 53.5612L5.16064 53.23Z" fill="#E2F2D9"/>
<path d="M133.993 259.806C171.185 258.978 178.504 231.146 178.504 230.918L180.822 231.477C180.822 231.808 173.08 261.358 134.004 262.186L133.993 259.806Z" fill="#E2F2D9"/>
<path d="M133.993 262.846V260.352C173.069 261.128 180.812 290.243 180.812 290.367L178.493 291.03C178.266 289.974 171.072 263.457 133.993 262.846Z" fill="#E2F2D9"/>
<path d="M162.77 260.131C182.033 259.914 190.884 250.226 195.097 242.039L196.535 242.753C192.395 251.282 182.924 261.57 162.77 261.798V260.131Z" fill="#E2F2D9"/>
<path d="M162.77 262.185V260.467C183.855 261.026 192.788 272.204 196.204 278.952L194.869 279.729C191.494 273.415 182.924 262.63 162.77 262.185Z" fill="#E2F2D9"/>
<path d="M174.623 213.763C174.623 207.895 176.693 187.422 203.606 175.912L204.641 178.231C176.258 190.185 177.024 212.325 177.024 214.974L174.654 215.088L174.623 213.763Z" fill="#E2F2D9"/>
<path d="M156.912 170.376L158.785 168.658C165.213 175.024 179.602 184.432 203.296 175.583L204.186 177.849C179.157 187.309 163.878 177.156 156.912 170.376Z" fill="#E2F2D9"/>
<path d="M158.267 209.996C159.302 203.786 163.577 192.514 179.85 186.035L180.512 187.422C164.913 193.725 160.845 204.355 159.872 210.276L158.267 209.996Z" fill="#E2F2D9"/>
<path d="M149.604 185.49L150.38 184.104C156.135 187.54 165.762 190.521 179.819 185.594L180.378 187.198C165.648 192.291 155.576 189.082 149.604 185.49Z" fill="#E2F2D9"/>
<path d="M80.3638 79.3968C80.5174 72.3541 82.0141 65.4054 84.7734 58.9238L87.0404 59.9589C75.4573 88.5361 91.6053 103.668 93.4788 105.241L91.8227 107.177C88.1323 103.563 85.2139 99.2369 83.2442 94.4618C81.2746 89.6867 80.2947 84.5616 80.3638 79.3968Z" fill="#E2F2D9"/>
<path d="M47.7153 88.0393V85.5448C56.8452 85.5448 73.6764 82.1706 84.1829 58.9238L86.5637 59.9589C75.0013 85.3275 55.572 88.0393 47.7153 88.0393Z" fill="#E2F2D9"/>
<path d="M71.5132 98.3286C71.656 93.0293 72.8414 87.81 75.0016 82.9688L76.4404 83.5173C69.7949 99.0428 74.6704 109.393 77.8793 114.289L76.7717 115.169C73.2917 110.248 71.4516 104.355 71.5132 98.3286Z" fill="#E2F2D9"/>
<path d="M52.7563 102.424C59.1742 100.758 68.3557 95.9968 74.7839 82.6035L76.1089 83.2763C69.3598 97.332 59.8366 102.311 53.0876 103.977L52.7563 102.424Z" fill="#E2F2D9"/>
<path d="M115.402 147.469C129.014 133.516 128.29 120.402 125.36 111.718L126.965 111.273C129.563 118.695 131.447 133.351 116.51 148.679L115.402 147.469Z" fill="#E2F2D9"/>
<path d="M115.62 147.69C130.784 133.199 145.286 134.855 152.201 137.008L151.87 138.612C145.069 136.46 131.343 134.959 116.613 148.911L115.62 147.69Z" fill="#E2F2D9"/>
<path d="M-16.0078 68.8859L-15.2418 67.4473C-8.2961 70.8732 3.49401 79.9505 3.82525 101.251H2.27255C1.96202 81.9274 -7.81993 72.9743 -16.0078 68.8859Z" fill="#E2F2D9"/>
<path d="M2.3877 101.26C2.94667 80.1765 14.2917 71.2441 20.7612 67.7871L21.5376 69.1637C15.3268 72.4862 4.60286 81.0666 4.05424 101.374L2.3877 101.26Z" fill="#E2F2D9"/>
<path d="M94.752 167.498C120.434 140.66 105.993 115.809 105.88 115.747L107.877 114.422C108.095 114.743 123.591 141.095 96.491 169.279L94.752 167.498Z" fill="#E2F2D9"/>
<path d="M95.1963 167.942C123.259 140.876 149.385 155.874 149.603 156.102L148.381 158.089C147.346 157.592 123.538 143.919 96.9146 169.661L95.1963 167.942Z" fill="#E2F2D9"/>
<path d="M-27.1348 85.5446L-26.5861 83.1641C-26.2239 83.2779 3.38086 90.9164 4.27107 129.927L1.83851 130.03C0.927595 92.9037 -25.9858 85.762 -27.1348 85.5446Z" fill="#E2F2D9"/>
<path d="M2.27295 129.927C3.0493 90.9164 32.0019 83.2779 32.3849 83.1641L33.0474 85.5446C31.7742 85.762 5.49222 92.9037 4.71587 130.051L2.27295 129.927Z" fill="#E2F2D9"/>
<path d="M164.767 144.262L164.881 145.525L164.984 144.262C167.219 143.899 169.48 143.712 171.744 143.703C184.418 143.725 196.566 148.769 205.528 157.73C214.49 166.691 219.535 178.838 219.557 191.511C219.557 206.674 212.58 220.958 200.686 229.538L199.082 227.375C204.662 223.214 209.187 217.801 212.292 211.572C215.397 205.343 216.995 198.471 216.958 191.511C216.925 179.543 212.143 168.078 203.661 159.634C195.179 151.19 183.692 146.458 171.723 146.477C169.574 146.512 167.429 146.657 165.295 146.912L164.86 145.525L164.767 144.262Z" fill="#E2F2D9"/>
<path d="M34.7139 64.0702L35.1486 63.3561C36.3701 61.8035 37.695 60.3131 39.1959 58.7088C48.1965 49.7407 60.3849 44.7051 73.0913 44.7051C85.7977 44.7051 97.9861 49.7407 106.987 58.7088C112.241 63.8916 116.198 70.2408 118.536 77.2404C120.874 84.24 121.528 91.6925 120.443 98.9922L117.845 98.5471C118.85 91.6813 118.22 84.6753 116.008 78.0985C113.796 71.5216 110.063 65.5593 105.113 60.696C100.928 56.4869 95.9527 53.1466 90.4723 50.8673C84.9919 48.5879 79.1148 47.4145 73.1793 47.4145C67.2437 47.4145 61.3667 48.5879 55.8863 50.8673C50.4059 53.1466 45.4302 56.4869 41.2455 60.696C39.8105 62.0399 38.5136 63.5239 37.3742 65.126L36.8255 65.7884L34.7139 64.0702Z" fill="#E2F2D9"/>
<path d="M36.4839 66.3478C45.8023 58.3931 57.7744 54.2382 70.0177 54.71C82.261 55.1818 93.8778 60.2457 102.556 68.8939C110.829 76.8917 115.773 87.7207 116.396 99.21L114.626 99.3239C113.85 88.3372 109.13 78.0008 101.335 70.2188C92.9721 61.9327 81.8047 57.0854 70.0402 56.635C58.2757 56.1846 46.7703 60.164 37.7985 67.7864L36.4839 66.3478Z" fill="#E2F2D9"/>
<path d="M164.323 149.07L164.478 147.135C176.668 148.139 188.038 153.675 196.347 162.649C204.656 171.624 209.299 183.386 209.361 195.616C209.444 207.146 205.255 218.299 197.602 226.925L196.05 225.652C203.447 217.412 207.507 206.71 207.436 195.636C207.391 183.885 202.936 172.579 194.952 163.955C186.968 155.332 176.037 150.019 164.323 149.07Z" fill="#E2F2D9"/>
<path d="M201.96 217.519C205.386 215.449 209.206 213.203 213.139 210.998L214.019 212.654C210.148 214.869 206.38 216.97 202.954 219.185L201.96 217.519Z" fill="#E2F2D9"/>
<path d="M216.959 202.688C215.52 203.578 214.133 204.354 212.818 205.296C210.603 206.569 208.44 208.008 206.287 209.053" fill="#E2F2D9"/>
<path d="M217.891 195.064C215.241 196.772 212.477 198.439 209.817 200.043C209.206 200.26 208.429 200.923 207.881 201.078" fill="#E2F2D9"/>
<path d="M208.099 194.004C211.37 192.068 215.013 190.185 217.891 188.301L208.099 194.004Z" fill="#E2F2D9"/>
<path d="M207.663 186.981C210.924 184.983 214.133 183.11 217.176 181.443L207.663 186.981Z" fill="#E2F2D9"/>
<path d="M205.883 180.889C208.926 179.005 212.301 177.297 215.292 175.352L205.883 180.889Z" fill="#E2F2D9"/>
<path d="M203.813 175.355C206.68 173.534 209.786 171.598 212.777 169.932L203.813 175.355Z" fill="#E2F2D9"/>
<path d="M200.707 169.66C203.812 168.055 206.731 166.058 209.506 164.484L200.707 169.66Z" fill="#E2F2D9"/>
<path d="M196.981 164.734C199.906 163.292 202.716 161.628 205.386 159.756L196.981 164.734Z" fill="#E2F2D9"/>
<path d="M192.603 160.599C195.201 158.994 197.975 157.39 200.687 155.672L192.603 160.599Z" fill="#E2F2D9"/>
<path d="M187.344 156.206C190.071 154.847 192.696 153.293 195.201 151.559L187.344 156.206Z" fill="#E2F2D9"/>
<path d="M188.897 148.295C186.612 149.8 184.249 151.182 181.817 152.435C181.817 152.435 181.485 152.435 181.485 152.715" fill="#E2F2D9"/>
<path d="M181.04 145.803C180.263 146.476 179.601 146.693 178.97 147.241C177.335 148.076 175.748 149.002 174.218 150.015" fill="#E2F2D9"/>
<path d="M165.213 148.023C166.988 147.114 168.715 146.116 170.389 145.031L165.213 148.023Z" fill="#E2F2D9"/>
<path d="M36.4839 66.3478C45.8023 58.3931 57.7744 54.2382 70.0177 54.71C82.261 55.1818 93.8778 60.2457 102.556 68.8939C110.829 76.8917 115.773 87.7207 116.396 99.21L114.626 99.3239C113.85 88.3372 109.13 78.0008 101.335 70.2188C92.9721 61.9327 81.8047 57.0854 70.0402 56.635C58.2757 56.1846 46.7703 60.164 37.7985 67.7864L36.4839 66.3478Z" fill="#E2F2D9"/>
<path d="M112.855 89.5823C113.746 85.7113 114.843 81.7264 116.178 77.0273L118.052 77.5241C116.613 82.1714 115.619 86.1563 114.739 90.1412L112.855 89.5823Z" fill="#E2F2D9"/>
<path d="M113.074 68.6152C112.577 70.1057 112.246 71.6582 111.8 73.2108C111.342 75.7091 110.695 78.1691 109.865 80.5698" fill="#E2F2D9"/>
<path d="M108.322 62.3672C107.649 65.4102 106.873 68.5774 106.107 71.6825C105.861 72.4045 105.674 73.1453 105.548 73.8975" fill="#E2F2D9"/>
<path d="M100.684 68.5473C101.563 64.904 102.754 61.033 103.613 57.5449L100.684 68.5473Z" fill="#E2F2D9"/>
<path d="M95.1963 63.9026C96.2314 60.2593 97.2665 56.6057 98.136 53.2832L95.1963 63.9026Z" fill="#E2F2D9"/>
<path d="M89.8345 60.8581C90.6108 57.3183 91.7081 53.9441 92.4844 50.4043L89.8345 60.8581Z" fill="#E2F2D9"/>
<path d="M84.2969 58.482C85.0732 55.056 85.9634 51.5162 86.8951 48.2559L84.2969 58.482Z" fill="#E2F2D9"/>
<path d="M78.0962 56.6035C79.2555 53.281 79.9284 49.7412 80.7565 46.75L78.0962 56.6035Z" fill="#E2F2D9"/>
<path d="M72.0713 55.827C73.0653 52.6985 73.8946 49.52 74.5556 46.3047L72.0713 55.827Z" fill="#E2F2D9"/>
<path d="M66.0366 56.0594C66.8026 52.8508 67.5755 49.7457 68.3553 46.7441L66.0366 56.0594Z" fill="#E2F2D9"/>
<path d="M59.1743 56.6089C60.1609 53.6981 60.9359 50.7198 61.493 47.6973L59.1743 56.6089Z" fill="#E2F2D9"/>
<path d="M54.6916 49.748C54.1467 52.4493 53.4239 55.1117 52.5282 57.7178C52.4987 57.7458 52.4753 57.7796 52.4593 57.8169C52.4433 57.8543 52.4351 57.8945 52.4351 57.9352C52.4351 57.9758 52.4433 58.016 52.4593 58.0534C52.4753 58.0907 52.4987 58.1245 52.5282 58.1525" fill="#E2F2D9"/>
<path d="M47.508 53.7305C47.2803 54.6102 47.0629 55.1692 46.8352 56.1628C46.2659 57.8566 45.8061 59.5852 45.4585 61.338" fill="#E2F2D9"/>
<path d="M37.6953 66.4091C38.3924 64.5476 38.8953 62.6191 39.1962 60.6543L37.6953 66.4091Z" fill="#E2F2D9"/>
<path d="M212.581 172.709C212.581 169.055 218.232 163.849 226.42 160.196C234.391 156.821 243.904 155.445 245.674 159.647C247.34 163.415 241.419 169.438 232.217 173.537C224.143 177.077 214.62 178.402 212.798 174.148C212.603 173.695 212.528 173.199 212.581 172.709ZM244.183 161.024C244.212 160.833 244.171 160.638 244.069 160.475C242.962 158.094 235.881 158.26 227.134 162.079C218.388 165.899 213.523 171.157 214.63 173.309C215.572 175.587 222.704 175.473 231.337 171.705C239.37 168.165 244.183 163.632 244.183 161.024Z" fill="#E2F2D9"/>
<path d="M87.0083 44.4846C87.1713 40.1331 88.089 35.8429 89.7204 31.8055C92.3807 24.8397 96.4177 19.3851 99.906 17.8636C100.87 17.4438 101.959 17.4068 102.949 17.7601C104.274 18.3086 105.879 19.8301 105.879 24.4464C105.7 28.7758 104.783 33.0428 103.167 37.0634C100.061 45.147 94.2543 52.8373 89.8342 51.1813C88.0021 50.405 87.0083 48.1383 87.0083 44.4846ZM103.943 24.4464C103.943 21.7346 103.394 19.9129 102.225 19.5196C101.952 19.4327 101.663 19.4034 101.378 19.4337C101.093 19.464 100.817 19.5532 100.569 19.6956C97.7944 20.9687 93.923 26.1645 91.4904 32.4782C89.9101 36.2946 89.0097 40.358 88.8301 44.4846C88.8301 47.0825 89.503 48.9663 90.7141 49.3492C92.9293 50.2911 97.96 45.147 101.345 36.401C102.943 32.6111 103.824 28.5576 103.943 24.4464Z" fill="#E2F2D9"/>
<path d="M176.227 143.487C221.213 130.984 245.342 159.085 245.58 159.416L244.183 160.596C243.955 160.327 220.603 133.147 176.713 145.267L176.227 143.487Z" fill="#E2F2D9"/>
<path d="M208.316 219.516C247.34 196.155 243.904 160.468 243.904 160.188L245.674 159.971C245.902 160.188 249.493 197.232 209.32 221.12L208.316 219.516Z" fill="#E2F2D9"/>
<path d="M42.3325 55.387C65.4677 14.7724 102.37 17.6498 102.546 17.6498L102.443 19.5232C102.101 19.5232 66.4614 16.7596 43.8852 56.3807L42.3325 55.387Z" fill="#E2F2D9"/>
<path d="M102.008 19.3039L103.167 17.8652C103.498 18.0929 132.151 41.4432 120.547 86.9329L118.777 86.4878C129.905 42.2195 102.37 19.5213 102.008 19.3039Z" fill="#E2F2D9"/>
<path d="M133.889 259.807H89.5029V262.187H133.889V259.807Z" fill="#E2F2D9"/>
<path d="M82.7549 227.494L122.369 210.281L123.26 212.558L83.7486 229.709L82.7549 227.494Z" fill="#E2F2D9"/>
<path d="M215.965 241.378L244.131 225.77L245.352 227.933L217.176 243.541L215.965 241.378Z" fill="#E2F2D9"/>
<path d="M234.059 262.516L234.173 258.977L263.995 259.256V262.858L234.059 262.516Z" fill="#E2F2D9"/>
<path d="M244.794 231.475C243.594 231.442 242.452 230.954 241.599 230.111C240.745 229.267 240.245 228.13 240.198 226.931C240.192 225.701 240.671 224.518 241.531 223.639C242.392 222.76 243.564 222.254 244.794 222.232C245.982 222.289 247.102 222.8 247.923 223.661C248.744 224.521 249.202 225.665 249.202 226.854C249.202 228.043 248.744 229.187 247.923 230.047C247.102 230.908 245.982 231.419 244.794 231.475Z" fill="#E2F2D9"/>
<path d="M139.759 96.5064L148.61 65.5176L150.99 66.2318L142.078 97.1688L139.759 96.5064Z" fill="#E2F2D9"/>
<path d="M166.32 122.238L197.975 113.223L198.637 115.593L167.252 124.67L166.32 122.238Z" fill="#E2F2D9"/>
<path d="M164.995 96.1127L186.246 75.2051L188.782 77.6891L167.479 98.6589L164.995 96.1127Z" fill="#E2F2D9"/>
<path d="M152.864 69.1125C152.447 69.5328 151.951 69.8664 151.405 70.0941C150.859 70.3217 150.273 70.4389 149.681 70.4389C149.089 70.4389 148.503 70.3217 147.957 70.0941C147.41 69.8664 146.915 69.5328 146.498 69.1125C145.675 68.2468 145.216 67.0982 145.216 65.904C145.216 64.7097 145.675 63.561 146.498 62.6953C147.36 61.9071 148.493 61.4827 149.661 61.5111C150.828 61.5395 151.94 62.0183 152.763 62.8475C153.585 63.6767 154.055 64.7919 154.074 65.9596C154.093 67.1274 153.659 68.2572 152.864 69.1125Z" fill="#E2F2D9"/>
<path d="M201.629 117.69C200.983 118.336 200.16 118.775 199.265 118.953C198.37 119.13 197.441 119.039 196.598 118.689C195.755 118.34 195.034 117.748 194.527 116.989C194.02 116.23 193.749 115.338 193.749 114.425C193.749 113.512 194.02 112.62 194.527 111.861C195.034 111.102 195.755 110.51 196.598 110.16C197.441 109.811 198.37 109.719 199.265 109.897C200.16 110.075 200.983 110.514 201.629 111.159C202.481 112.033 202.957 113.205 202.957 114.425C202.957 115.645 202.481 116.817 201.629 117.69Z" fill="#E2F2D9"/>
<path d="M20.4292 47.311L36.2667 18.6406L38.4198 19.862L22.5926 48.522L20.4292 47.311Z" fill="#E2F2D9"/>
<path d="M0.958496 29.8193L1.1759 0L4.71602 0.0517705L4.49862 29.9331L0.958496 29.8193Z" fill="#E2F2D9"/>
<path d="M42.012 19.1905C42.0134 19.7987 41.8938 20.4012 41.6601 20.9628C41.4264 21.5244 41.0832 22.0339 40.6506 22.4616C40.2181 22.8893 39.7048 23.2266 39.1405 23.454C38.5763 23.6814 37.9725 23.7943 37.3642 23.786C36.7636 23.7861 36.1689 23.6668 35.6148 23.4351C35.0606 23.2034 34.558 22.8639 34.1362 22.4363C33.7143 22.0088 33.3817 21.5016 33.1575 20.9444C32.9334 20.3872 32.8221 19.791 32.8304 19.1905C32.8191 18.592 32.9287 17.9975 33.1526 17.4424C33.3765 16.8873 33.71 16.3831 34.1333 15.9598C34.5565 15.5366 35.0609 15.2031 35.616 14.9792C36.1712 14.7554 36.7658 14.6458 37.3642 14.657C37.9677 14.6475 38.5671 14.7573 39.1278 14.9804C39.6886 15.2034 40.1997 15.5352 40.6317 15.9565C41.0637 16.3779 41.4081 16.8806 41.645 17.4356C41.8818 17.9906 42.0066 18.587 42.012 19.1905Z" fill="#E2F2D9"/>
<path d="M131.778 245.364C149.935 227.262 170.854 245.137 171.113 245.251L169.788 246.969C168.846 246.244 149.976 230.305 133.486 246.907L131.778 245.364Z" fill="#E2F2D9"/>
<path d="M146.498 240.984C146.498 235.115 148.495 228.698 154.468 222.498L156.135 224.051C143.899 236.564 149.386 250.227 153.806 257.306L151.984 258.341C149.386 254.16 146.498 248.063 146.498 240.984Z" fill="#E2F2D9"/>
<path d="M106.873 180.725V178.458C130.339 178.458 132.337 153.886 132.451 152.893L134.521 152.996C134.552 153.348 132.389 180.725 106.873 180.725Z" fill="#E2F2D9"/>
<path d="M111.914 157.43L114.078 156.934C115.289 161.695 117.618 168.609 123.59 173.09C127.296 176.361 131.871 178.183 137.865 178.462L137.761 180.667C131.447 180.336 126.023 178.297 122.234 174.809C115.734 169.913 113.301 162.523 111.914 157.43Z" fill="#E2F2D9"/>
<path d="M18.1104 92.9612L19.7666 91.4707C19.8805 91.8019 37.6951 112.668 19.6527 130.802L18.1104 129.249C34.7138 112.503 18.7728 93.7374 18.1104 92.9612Z" fill="#E2F2D9"/>
<path d="M6.76562 110.615L7.87319 108.846C12.1276 111.392 18.6592 114.704 26.0811 113.607C31.2599 113.137 36.1218 110.909 39.8587 107.293L41.3493 108.897C36.4842 113.099 31.557 115.48 26.2985 115.811C18.2142 116.919 11.3512 113.379 6.76562 110.615Z" fill="#E2F2D9"/>
<path d="M83.0752 158.752C83.0752 133.187 110.423 130.982 110.806 130.982L110.92 133.187C109.751 133.249 85.1869 135.257 85.1869 158.752V158.866H83.1166L83.0752 158.752Z" fill="#E2F2D9"/>
<path d="M82.8584 126.553H85.0735C85.2909 144.034 98.7993 149.789 106.873 151.673L106.439 153.743C97.7953 151.787 83.0758 145.525 82.8584 126.553Z" fill="#E2F2D9"/>
<path d="M-35.5503 109.458L-33.9769 107.854C-21.5553 120.025 -7.81917 114.488 -0.852745 110.172L0.306595 112.107C-7.27056 116.817 -21.959 122.789 -35.5503 109.458Z" fill="#E2F2D9"/>
<path d="M-60.8076 260.994C-60.8239 248.385 -57.1001 236.054 -50.107 225.561C-43.1139 215.068 -33.1657 206.884 -21.5207 202.045C-9.87575 197.206 2.94294 195.929 15.314 198.375C27.685 200.821 39.0526 206.881 47.9791 215.788C56.9055 224.695 62.9898 236.048 65.4623 248.413C67.9348 260.778 66.6845 273.598 61.8695 285.252C57.0545 296.906 48.8912 306.87 38.4119 313.885C27.9327 320.899 15.6085 324.649 2.99786 324.659C-13.9011 324.659 -30.1099 317.956 -42.0719 306.02C-54.0338 294.085 -60.7719 277.892 -60.8076 260.994ZM65.3644 260.994C65.3726 248.664 61.724 236.607 54.88 226.35C48.0359 216.092 38.3037 208.094 26.9139 203.367C15.5242 198.639 2.9883 197.395 -9.10865 199.791C-21.2056 202.187 -32.3204 208.116 -41.0477 216.828C-49.7749 225.54 -55.7228 236.644 -58.1392 248.736C-60.5556 260.828 -59.332 273.364 -54.6232 284.761C-49.9143 296.157 -41.9317 305.902 -31.6845 312.762C-21.4374 319.623 -9.38589 323.291 2.94612 323.303C19.4767 323.284 35.3263 316.717 47.0249 305.039C58.7235 293.361 65.3179 277.523 65.3644 260.994Z" fill="#E2F2D9"/>
<path d="M-66.7598 260.99C-66.7516 247.207 -62.6569 233.735 -54.9932 222.277C-47.3296 210.82 -36.441 201.892 -23.7038 196.621C-10.9665 191.35 3.04758 189.973 16.5673 192.664C30.087 195.355 42.5054 201.993 52.2529 211.74C62.0004 221.486 68.6393 233.903 71.3306 247.422C74.022 260.94 72.6448 274.953 67.3733 287.689C62.1018 300.425 53.1726 311.313 41.7142 318.976C30.2558 326.639 16.7826 330.733 2.99765 330.741C-15.4973 330.722 -33.2292 323.367 -46.3071 310.29C-59.385 297.214 -66.7406 279.483 -66.7598 260.99ZM71.1817 260.99C71.1816 247.474 67.1714 234.261 59.6585 223.024C52.1456 211.787 41.4677 203.032 28.9763 197.865C16.4849 192.699 2.74137 191.354 -10.5148 194.001C-23.771 196.648 -35.9439 203.167 -45.493 212.734C-55.0422 222.301 -61.5383 234.486 -64.1591 247.746C-66.78 261.006 -65.4079 274.745 -60.2163 287.226C-55.0248 299.706 -46.2473 310.365 -34.9947 317.855C-23.7421 325.345 -10.5202 329.329 2.99765 329.302C21.0935 329.267 38.4361 322.054 51.2192 309.247C64.0023 296.44 71.1817 279.084 71.1817 260.99Z" fill="#E2F2D9"/>
</svg>
