<svg width="86" height="107" viewBox="0 0 86 107" fill="none" xmlns="http://www.w3.org/2000/svg">
<path d="M65.5484 70.8562C65.3548 65.1278 63.1085 59.9995 60.2095 55.3046C56.0932 48.6428 55.9604 41.9754 58.6216 34.8857C60.3976 30.1574 62.4004 25.4736 62.9149 19.9341C68.0215 23.8512 72.0216 28.3461 75.236 33.5245C81.012 42.8255 80.6911 52.0375 74.572 61.0829C74.1073 61.7719 73.709 62.522 73.1613 63.1387C67.3465 69.6505 67.3631 76.3679 71.839 83.6854C75.4075 89.5304 79.1807 95.2033 83.2748 100.676C83.994 101.637 84.7465 102.576 85.4159 103.571C86.1739 104.693 86.3067 106.021 85.1337 106.771C83.9276 107.543 83.3744 106.177 82.8599 105.399C79.8557 100.854 76.94 96.2478 73.9358 91.7084C72.6135 89.7082 71.1087 87.8303 69.7421 85.8578C67.9772 83.3131 65.6369 82.7575 62.7212 83.4242C58.3283 84.4299 53.9023 85.1855 49.3821 85.5467C40.3695 86.269 32.5022 83.7965 25.5588 78.0014C19.5062 72.9509 19.4508 73.0176 11.9154 72.3897C12.0095 71.2174 13.033 70.7618 13.7191 70.1172C15.9432 68.0281 18.4273 66.2724 20.9834 64.6167C30.1841 58.6549 39.5507 58.2326 49.1719 63.6221C52.6408 65.5668 55.894 67.8115 59.1306 70.095C59.291 70.1673 59.5124 70.3395 59.6009 70.2895C59.9328 70.1006 59.7779 69.845 59.5898 69.6227C57.2827 64.4611 54.4113 59.6272 51.1526 55.0101C49.3158 52.4154 46.8537 50.7985 43.9159 49.7095C35.8881 46.7425 27.6114 44.3978 19.9985 40.3585C11.8269 36.0192 4.74522 30.5742 1.56952 21.3787C-0.68225 14.8558 -0.400087 8.28287 1.70783 1.77106C2.01766 0.815407 2.10063 -0.690302 3.83233 0.354254C9.20447 3.6046 15.3346 4.74917 21.1991 6.60492C25.5035 7.97173 29.7691 9.4219 33.7803 11.5499C42.0127 15.9226 46.3005 23.2567 49.0115 31.802C50.4666 36.4025 51.1858 41.1586 52.0876 45.8758C53.9521 55.6101 59.3131 63.5277 65.2939 71.1007C65.4156 71.1285 65.5429 71.1618 65.6646 71.1951C65.6259 71.0896 65.5872 70.9729 65.5484 70.8562ZM42.4554 41.153C40.7458 37.186 38.3114 33.7689 35.6503 30.4964C31.1523 24.9624 25.5422 20.8453 19.307 17.5061C17.5863 16.5838 16.9999 16.9616 17.1991 18.9507C17.5532 22.4121 18.6265 25.6014 21.5588 27.5683C28.4358 32.1799 35.4677 36.547 42.4554 41.153ZM55.2467 75.3845C48.4361 70.9507 41.0556 69.0005 33.1717 68.9616C32.552 68.956 31.7277 68.7393 31.4289 69.4394C31.1412 70.1228 31.8383 70.5951 32.2588 71.0451C33.6807 72.5619 35.3736 73.7954 37.4484 73.9899C43.3738 74.5455 49.3158 74.9344 55.2467 75.3845ZM67.7005 60.8718C69.6369 55.449 72.1543 50.2763 73.8694 44.8146C74.5776 42.5532 73.5596 40.3141 71.6564 38.3305C67.0643 45.3757 66.677 52.971 67.7005 60.8718Z" fill="#E86851"/>
</svg>
