<svg width="208" height="208" viewBox="0 0 208 208" fill="none" xmlns="http://www.w3.org/2000/svg">
<circle cx="104" cy="104" r="104" fill="#F5FAF2"/>
<g filter="url(#filter0_d_654_1322)">
<circle cx="103.999" cy="103.999" r="72.7218" fill="#FFE3DE"/>
</g>
<path fill-rule="evenodd" clip-rule="evenodd" d="M112.813 127.845C110.002 130.769 106.668 134.071 105.145 136.784C105.145 136.763 105.145 136.745 105.149 136.724C105.223 135.952 105.296 135.181 105.425 134.418C105.521 133.646 105.692 132.895 105.841 132.136C106.186 130.64 106.609 129.161 107.16 127.737C107.72 126.313 108.377 124.938 109.125 123.626C109.877 122.309 110.728 121.066 111.628 119.856C115.367 115.131 119.315 110.453 122.53 105.188C124.134 102.555 125.512 99.7381 126.524 96.7713C127.518 93.7914 128.186 90.7085 128.761 87.6126C128.116 90.691 127.375 93.753 126.315 96.6815C125.239 99.6012 123.81 102.346 122.161 104.91C120.507 107.469 118.671 109.888 116.768 112.237C116.303 112.833 115.81 113.407 115.332 113.995C114.851 114.579 114.369 115.157 113.877 115.731C112.906 116.881 111.901 118.013 110.961 119.23C110.009 120.44 109.127 121.716 108.321 123.051C107.523 124.398 106.818 125.811 106.213 127.278C105.615 128.749 105.149 130.284 104.761 131.836C104.598 132.621 104.408 133.402 104.296 134.199C104.147 134.988 104.058 135.785 103.968 136.583C103.871 137.38 103.841 138.187 103.779 138.984L103.767 139.409C102.905 141.171 102.471 142.315 102.471 142.315C102.471 142.315 102.96 108.198 104.28 98.3368C106.399 82.5143 116.652 70.3461 116.971 69.9685C116.71 70.3757 108.27 83.5051 106.954 94.4822C105.642 105.429 106.334 120.011 106.334 120.011C106.334 120.011 106.95 112.426 113.115 99.4556C119.832 85.3278 134.331 76.0235 134.331 76.0235C134.331 76.0235 136.272 98.1014 126.917 113.069C122.831 119.606 118.907 121.507 112.813 127.845ZM105.113 76.0509C104.533 76.0535 103.976 75.7994 103.565 75.3445C103.153 74.8896 102.92 74.2711 102.918 73.6249C102.919 73.305 102.977 72.9886 103.088 72.6936C103.199 72.3986 103.361 72.1309 103.565 71.9057C103.768 71.6806 104.01 71.5024 104.276 71.3813C104.541 71.2602 104.826 71.1986 105.113 71.2001C106.326 71.2001 107.309 72.286 107.309 73.6249C107.308 73.9449 107.25 74.2616 107.139 74.5567C107.028 74.8518 106.866 75.1196 106.662 75.3449C106.458 75.5702 106.216 75.7485 105.95 75.8696C105.684 75.9907 105.4 76.0523 105.113 76.0509ZM102.267 68.3373C101.95 68.3387 101.646 68.1998 101.42 67.951C101.195 67.7022 101.068 67.3639 101.066 67.0104C101.066 66.278 101.604 65.6836 102.267 65.6836C102.93 65.6836 103.469 66.278 103.469 67.0104C103.469 67.7428 102.93 68.3373 102.267 68.3373ZM104.55 84.0327C104.55 86.9524 102.407 89.3193 99.7628 89.3193C97.1198 89.3193 94.9767 86.9524 94.9767 84.0327C94.9767 81.113 97.1198 78.7462 99.7628 78.7462C102.407 78.7462 104.55 81.113 104.55 84.0327ZM93.7932 90.9746C93.9641 91.2012 99.4731 98.5207 100.875 110.337C101.62 116.628 101.95 130.776 102.075 137.959C102.022 137.561 101.96 137.165 101.888 136.771C101.775 135.973 101.585 135.194 101.418 134.409C101.034 132.857 100.568 131.322 99.9661 129.85C99.3609 128.385 98.6563 126.974 97.8584 125.628C97.0589 124.281 96.1622 123.02 95.2222 121.807C94.2784 120.585 93.2775 119.453 92.3071 118.304C91.8159 117.732 91.3306 117.153 90.8516 116.568C90.3732 115.98 89.8802 115.411 89.4146 114.814C87.5122 112.46 85.6765 110.042 84.0186 107.482C82.3685 104.918 80.9434 102.174 79.864 99.2542C78.8091 96.3257 78.0666 93.2637 77.4183 90.1852C77.9929 93.2812 78.6608 96.3684 79.6548 99.3439C80.6723 102.315 82.0464 105.128 83.6493 107.765C86.8679 113.026 90.8162 117.708 94.5504 122.433C95.4511 123.639 96.3056 124.886 97.055 126.198C97.8024 127.511 98.4591 128.886 99.0193 130.31C99.5742 131.733 99.9936 133.212 100.343 134.713C100.491 135.472 100.658 136.223 100.755 136.99C100.883 137.753 100.956 138.525 101.034 139.297C101.042 139.357 101.046 139.416 101.049 139.476C99.9278 136.844 97.3074 132.653 94.0809 130.203C88.3912 125.882 82.8075 121.842 78.8356 115.47C70.6129 102.264 74.3559 84.0327 74.3559 84.0327C74.3559 84.0327 85.3465 90.0418 92.8464 104.455C97.9998 114.358 98.7551 122.364 98.7551 122.364C98.7551 122.364 99.8227 116.516 98.9339 106.942C98.2621 99.6789 93.9297 91.2406 93.7932 90.9746Z" fill="white"/>
<defs>
<filter id="filter0_d_654_1322" x="15.2773" y="15.2773" width="177.444" height="177.443" filterUnits="userSpaceOnUse" color-interpolation-filters="sRGB">
<feFlood flood-opacity="0" result="BackgroundImageFix"/>
<feColorMatrix in="SourceAlpha" type="matrix" values="0 0 0 0 0 0 0 0 0 0 0 0 0 0 0 0 0 0 127 0" result="hardAlpha"/>
<feMorphology radius="6" operator="dilate" in="SourceAlpha" result="effect1_dropShadow_654_1322"/>
<feOffset/>
<feGaussianBlur stdDeviation="5"/>
<feComposite in2="hardAlpha" operator="out"/>
<feColorMatrix type="matrix" values="0 0 0 0 0.909804 0 0 0 0 0.407843 0 0 0 0 0.317647 0 0 0 0.06 0"/>
<feBlend mode="normal" in2="BackgroundImageFix" result="effect1_dropShadow_654_1322"/>
<feBlend mode="normal" in="SourceGraphic" in2="effect1_dropShadow_654_1322" result="shape"/>
</filter>
</defs>
</svg>
