<svg width="362" height="363" viewBox="0 0 362 363" fill="none" xmlns="http://www.w3.org/2000/svg">
<path d="M89.043 181.506C89.043 130.844 130.298 89.6289 180.964 89.6289C231.631 89.6289 272.886 130.866 272.886 181.506C272.886 232.146 231.623 273.382 181 273.382C130.377 273.382 89.043 232.181 89.043 181.506ZM270.538 181.506C270.527 157.762 261.09 134.995 244.302 118.204C227.513 101.413 204.746 91.9716 181 91.9545C131.662 91.9545 91.3401 132.057 91.3401 181.527C91.3401 230.997 131.626 271.172 181 271.172C230.374 271.172 270.538 230.954 270.538 181.506Z" fill="#E2F2D9"/>
<path d="M120.169 181.506C120.166 169.475 123.731 157.714 130.414 147.709C137.096 137.705 146.596 129.906 157.711 125.3C168.826 120.694 181.058 119.488 192.859 121.833C204.66 124.178 215.5 129.97 224.009 138.476C232.518 146.982 238.313 157.82 240.661 169.62C243.01 181.419 241.806 193.65 237.202 204.765C232.598 215.88 224.801 225.381 214.797 232.065C204.794 238.749 193.032 242.317 181 242.317C164.873 242.303 149.41 235.893 138.006 224.492C126.601 213.091 120.186 197.631 120.169 181.506ZM240.051 181.506C240.039 169.827 236.565 158.413 230.068 148.708C223.57 139.003 214.34 131.442 203.546 126.981C192.751 122.521 180.876 121.36 169.422 123.646C157.968 125.933 147.449 131.564 139.195 139.827C130.941 148.09 125.322 158.615 123.05 170.071C120.777 181.527 121.952 193.399 126.426 204.187C130.901 214.976 138.473 224.195 148.187 230.68C157.901 237.166 169.32 240.625 181 240.623C196.66 240.585 211.666 234.341 222.731 223.26C233.796 212.179 240.016 197.164 240.029 181.506H240.051Z" fill="#E2F2D9"/>
<path d="M126.098 181.503C126.104 170.654 129.326 160.05 135.358 151.031C141.39 142.012 149.96 134.984 159.986 130.835C170.011 126.686 181.042 125.602 191.683 127.72C202.325 129.838 212.1 135.063 219.772 142.734C227.445 150.406 232.67 160.18 234.788 170.821C236.907 181.461 235.822 192.491 231.673 202.515C227.523 212.54 220.494 221.109 211.475 227.141C202.455 233.172 191.85 236.394 181 236.399C166.444 236.384 152.488 230.596 142.195 220.304C131.903 210.012 126.114 196.058 126.098 181.503ZM234.193 181.503C234.189 170.984 231.065 160.703 225.218 151.959C219.37 143.215 211.061 136.401 201.341 132.379C191.621 128.357 180.926 127.306 170.609 129.361C160.292 131.416 150.816 136.483 143.379 143.923C135.942 151.362 130.878 160.839 128.827 171.156C126.777 181.473 127.831 192.166 131.858 201.884C135.885 211.601 142.703 219.907 151.45 225.75C160.197 231.594 170.48 234.713 181 234.713C195.103 234.686 208.621 229.071 218.591 219.097C228.562 209.124 234.172 195.605 234.193 181.503Z" fill="#E2F2D9"/>
<path d="M240.374 173.164L270.847 169.324L271.156 171.011L240.532 174.851L240.374 173.164Z" fill="#E2F2D9"/>
<path d="M238.838 165.76L268.701 158.123L269.081 159.81L239.261 167.404L238.838 165.76Z" fill="#E2F2D9"/>
<path d="M233.009 151.861L260.101 137.01L260.869 138.546L233.892 153.361L233.009 151.861Z" fill="#E2F2D9"/>
<path d="M228.902 145.566L253.884 127.492L254.81 128.834L229.857 146.908L228.902 145.566Z" fill="#E2F2D9"/>
<path d="M224.1 139.852L246.519 118.742L247.667 119.97L225.177 141.08L224.1 139.852Z" fill="#E2F2D9"/>
<path d="M218.422 134.786L238.077 111.07L239.419 112.14L219.728 135.863L218.422 134.786Z" fill="#E2F2D9"/>
<path d="M212.169 130.414L228.823 104.43L230.245 105.313L213.662 131.368L212.169 130.414Z" fill="#E2F2D9"/>
<path d="M205.565 126.918L218.73 99.0176L220.267 99.7856L207.137 127.571L205.565 126.918Z" fill="#E2F2D9"/>
<path d="M198.616 124.233L208.135 94.9473L209.75 95.4856L200.267 124.807L198.616 124.233Z" fill="#E2F2D9"/>
<path d="M191.323 122.503L197.087 92.2266L198.695 92.4921L193.017 122.811L191.323 122.503Z" fill="#E2F2D9"/>
<path d="M183.764 121.665L185.723 90.8867L187.41 91.0375L185.494 121.816L183.764 121.665Z" fill="#E2F2D9"/>
<path d="M174.267 91.0375L175.975 90.8867L177.928 121.665L176.226 121.816L174.267 91.0375Z" fill="#E2F2D9"/>
<path d="M163.061 92.4921L164.69 92.2266L170.448 122.503L168.818 122.811L163.061 92.4921Z" fill="#E2F2D9"/>
<path d="M152.085 95.4855L153.636 94.9902L163.133 124.269L161.582 124.886L152.085 95.4855Z" fill="#E2F2D9"/>
<path d="M141.432 99.7894L142.99 99.0645L156.134 126.958L154.576 127.726L141.432 99.7894Z" fill="#E2F2D9"/>
<path d="M131.547 105.312L132.947 104.508L149.508 130.485L148.036 131.446L131.547 105.312Z" fill="#E2F2D9"/>
<path d="M122.43 112.183L123.679 111.07L143.291 134.865L141.97 135.934L122.43 112.183Z" fill="#E2F2D9"/>
<path d="M114.103 120.048L115.273 118.82L137.763 139.966L136.521 141.23L114.103 120.048Z" fill="#E2F2D9"/>
<path d="M106.867 128.913L107.965 127.57L132.947 145.68L131.856 147.065L106.867 128.913Z" fill="#E2F2D9"/>
<path d="M100.959 138.625L101.727 137.125L128.747 152.019L127.958 153.512L100.959 138.625Z" fill="#E2F2D9"/>
<path d="M96.1208 148.981L96.8316 147.373L125.546 158.728L124.849 160.343L96.1208 148.981Z" fill="#E2F2D9"/>
<path d="M92.7109 159.877L93.1704 158.27L122.969 165.907L122.509 167.594L92.7109 159.877Z" fill="#E2F2D9"/>
<path d="M90.7512 171.093L91.0025 169.406L121.497 173.318L121.26 175.084L90.7512 171.093Z" fill="#E2F2D9"/>
<path d="M90.134 182.486V180.756L120.959 180.835V182.486H90.134Z" fill="#E2F2D9"/>
<path d="M90.7512 192.121L121.26 188.432L121.569 190.047L91.0025 193.844L90.7512 192.121Z" fill="#E2F2D9"/>
<path d="M92.783 203.325L122.667 195.688L123.069 197.489L93.2424 205.012L92.783 203.325Z" fill="#E2F2D9"/>
<path d="M96.2 214.221L124.928 202.938L125.546 204.588L96.9106 215.793L96.2 214.221Z" fill="#E2F2D9"/>
<path d="M100.959 224.587L127.958 209.771L128.747 211.229L101.885 226.123L100.959 224.587Z" fill="#E2F2D9"/>
<path d="M106.946 234.254L131.935 216.137L132.947 217.601L108.045 235.639L106.946 234.254Z" fill="#E2F2D9"/>
<path d="M114.182 243.157L136.672 222.133L137.842 223.36L115.352 244.312L114.182 243.157Z" fill="#E2F2D9"/>
<path d="M122.43 250.986L142.121 227.35L143.37 228.419L123.758 252.027L122.43 250.986Z" fill="#E2F2D9"/>
<path d="M131.626 257.821L148.108 231.801L149.608 232.763L133.105 258.739L131.626 257.821Z" fill="#E2F2D9"/>
<path d="M141.511 263.307L154.655 235.521L156.205 236.333L143.061 264.039L141.511 263.307Z" fill="#E2F2D9"/>
<path d="M152.085 267.638L161.654 238.402L163.212 238.941L153.808 268.14L152.085 267.638Z" fill="#E2F2D9"/>
<path d="M163.132 270.559L168.968 240.318L170.62 240.778L164.769 270.867L163.132 270.559Z" fill="#E2F2D9"/>
<path d="M174.345 272.132L176.377 241.354L178.086 241.511L176.047 272.211L174.345 272.132Z" fill="#E2F2D9"/>
<path d="M183.915 241.511L185.645 241.354L187.49 272.132L185.796 272.211L183.915 241.511Z" fill="#E2F2D9"/>
<path d="M191.402 240.778L193.017 240.318L198.774 270.559L197.159 270.867L191.402 240.778Z" fill="#E2F2D9"/>
<path d="M198.695 238.862L200.346 238.402L209.75 267.638L208.135 268.14L198.695 238.862Z" fill="#E2F2D9"/>
<path d="M205.716 236.253L207.295 235.449L220.267 263.307L218.731 264.039L205.716 236.253Z" fill="#E2F2D9"/>
<path d="M212.32 232.683L213.813 231.721L230.324 257.819L228.903 258.738L212.32 232.683Z" fill="#E2F2D9"/>
<path d="M218.501 228.346L219.879 227.27L239.42 250.985L238.077 252.026L218.501 228.346Z" fill="#E2F2D9"/>
<path d="M224.1 223.284L225.256 221.941L247.667 243.087L246.519 244.315L224.1 223.284Z" fill="#E2F2D9"/>
<path d="M229.053 217.527L230.015 216.07L254.81 234.259L253.884 235.565L229.053 217.527Z" fill="#E2F2D9"/>
<path d="M233.08 211.154L234.042 209.697L260.868 224.584L260.1 226.12L233.08 211.154Z" fill="#E2F2D9"/>
<path d="M236.383 204.44L237.079 202.789L265.628 214.223L265.097 215.795L236.383 204.44Z" fill="#E2F2D9"/>
<path d="M238.952 197.339L239.261 195.609L269.009 203.326L268.7 205.012L238.952 197.339Z" fill="#E2F2D9"/>
<path d="M240.453 189.933L240.604 188.131L271.084 192.122L270.847 193.844L240.453 189.933Z" fill="#E2F2D9"/>
<path d="M265.09 147.29C304.313 132.324 341.699 180.308 342.008 180.76L342.159 180.832L340.816 182.224L340.587 182.074C340.127 181.456 303.624 134.635 265.707 149.106L265.09 147.29Z" fill="#E2F2D9"/>
<path d="M265.09 215.412L265.707 213.603C303.474 228.038 340.127 181.216 340.587 180.678L340.816 180.527L342.159 181.755L342.008 182.063C340.508 183.901 304.163 230.22 265.09 215.412Z" fill="#E2F2D9"/>
<path d="M268.471 157.457L271.45 156.381C298.01 146.561 322.992 175.266 327.636 181.022L327.787 181.173L327.026 181.941L326.789 181.79C322.109 175.991 297.702 147.939 271.83 157.385L268.837 158.57L268.471 157.457Z" fill="#E2F2D9"/>
<path d="M268.471 205.19L268.851 204.192L271.845 205.348C295.146 213.868 317.708 191.602 326.402 181.661L326.631 181.359V181.202L327.019 180.742L327.629 181.359H327.78V181.819L327.249 182.393C318.455 192.485 295.426 215.246 271.443 206.453L268.471 205.19Z" fill="#E2F2D9"/>
<path d="M225.787 102.699L227.172 99.7845C238.952 74.0662 276.834 76.6 284.371 77.4255L284.443 77.3465L284.522 78.5021L284.292 78.5739C276.805 77.8059 239.692 75.2003 228.106 100.222L226.756 103.137L225.787 102.699Z" fill="#E2F2D9"/>
<path d="M259.103 135.395L262.06 134.089C284.551 123.688 284.852 91.8759 283.862 78.7548V78.3671L283.704 78.2523V77.6781H284.472L284.63 77.5273L284.931 77.8288V78.6758C285.972 92.1056 285.649 124.42 262.441 135.051L259.49 136.393L259.103 135.395Z" fill="#E2F2D9"/>
<path d="M153.808 79.8317C153.808 57.8746 175.509 38.9179 180.498 34.8121L180.577 34.6973L181.424 35.4653L181.266 35.616C175.523 40.375 147.419 64.9376 156.916 90.6129L158.007 93.642L156.916 94.1013L155.746 91.0651C154.473 87.4562 153.818 83.6585 153.808 79.8317Z" fill="#E2F2D9"/>
<path d="M180.282 35.4653L180.82 34.8121V34.6973H181.208L181.926 35.3146C191.976 44.0572 214.624 67.1628 205.838 91.0364L204.567 94.1013L203.569 93.642L204.725 90.6129C213.339 67.4714 191.136 44.7894 181.079 36.0611L180.777 35.8314H180.619L180.282 35.4653Z" fill="#E2F2D9"/>
<path d="M76.5093 87.2714C76.5093 83.1226 76.739 79.8997 76.8969 78.2488V77.9832L77.9881 77.9043L78.067 78.2488C77.2989 85.6564 74.8798 122.881 99.7104 134.279L102.582 135.715L102.022 136.713L99.1504 135.334C79.3879 126.233 76.5093 101.426 76.5093 87.2714Z" fill="#E2F2D9"/>
<path d="M76.9897 77.8296L77.0687 77.6789H77.2195L77.2984 77.5999L78.0665 77.5281C91.4617 76.5304 123.909 76.7601 134.576 100.016L135.904 103.01L134.885 103.433L133.485 100.397C123.141 77.9085 91.3038 77.6788 78.2101 78.6766H77.8296L77.6717 78.7555H77.1333L76.9897 77.8296Z" fill="#E2F2D9"/>
<path d="M34.1768 181.908L34.8946 181.061L35.2248 181.369C41.8219 189.351 65.2527 214.832 90.0905 205.623L93.1988 204.59L93.5003 205.623L90.5499 206.628C64.9512 216.146 41.0538 190.205 34.3562 182.073L34.1768 181.908Z" fill="#E2F2D9"/>
<path d="M34.0984 181.601L34.1774 181.45V181.299L34.6368 180.761C43.4449 170.554 66.4737 147.829 90.5218 156.694L93.4722 157.885L93.0918 158.883L90.0624 157.77C66.7824 149.157 44.1197 171.473 35.5772 181.529L35.2685 181.759V181.909L34.9455 182.333L34.0984 181.601Z" fill="#E2F2D9"/>
<path d="M77.3704 284.528L77.679 284.449L77.837 284.528C88.1956 285.483 122.66 286.904 133.715 262.801L135.057 259.887L136.227 260.346L134.813 263.332C123.449 287.967 88.2746 286.624 77.758 285.67L77.4493 285.749L77.3704 284.528Z" fill="#E2F2D9"/>
<path d="M76.6672 276.504C76.6672 260.921 80.0986 236.94 99.4017 228.039L102.359 226.604L102.898 227.716L99.9401 228.944C77.2989 239.38 77.22 271.157 78.067 284.285L78.1388 284.665L78.2968 284.823V285.319L77.299 285.469L77.0692 285.397V285.24L76.9903 285.168V284.45C76.818 282.225 76.6672 279.54 76.6672 276.504Z" fill="#E2F2D9"/>
<path d="M180.577 327.581L180.886 327.236C188.911 320.596 214.201 296.96 205.063 272.397L203.914 269.368L204.991 269.023L206.125 271.945C215.529 297.311 189.773 321.336 181.675 328.054L181.367 328.399L180.577 327.581Z" fill="#E2F2D9"/>
<path d="M154.188 283.26C154.15 279.438 154.807 275.642 156.127 272.055L157.304 268.947L158.395 269.371L157.225 272.4C148.611 295.656 170.922 318.338 180.914 326.952L181.223 327.253H181.374L181.761 327.526L181 328.43L180.921 328.351H180.771L180.232 327.82C171.618 320.37 154.188 302.913 154.188 283.26Z" fill="#E2F2D9"/>
<path d="M259.333 227.446L259.792 226.412L262.714 227.754C287.429 239.038 286.123 274.303 285.125 284.783V285.048L283.933 285.127V284.704C284.931 274.303 286.281 239.727 262.29 228.716L259.333 227.446Z" fill="#E2F2D9"/>
<path d="M226.096 260.115L227.094 259.576L228.436 262.569C238.838 285.18 270.538 285.33 283.783 284.369H284.163L284.242 284.218H284.78L284.931 285.251H284.852V285.409H284.78L284.63 285.481L283.912 285.56C270.445 286.522 238.048 286.278 227.46 263.072L226.096 260.115Z" fill="#E2F2D9"/>
<path d="M216.039 97.8624C233.655 59.2956 293.725 66.9975 294.335 67.1626L294.414 69.0073H294.105C293.495 68.9283 234.846 61.3342 217.84 98.6304L216.039 97.8624Z" fill="#E2F2D9"/>
<path d="M263.711 144.454C300.666 127.723 293.337 68.8496 293.265 68.1964V67.7012H295.139V68.0959C295.29 68.5625 302.698 128.849 264.393 146.155L263.711 144.454Z" fill="#E2F2D9"/>
<path d="M143.829 81.7301C143.829 52.064 172.788 26.5825 180.038 20.668C180.125 20.4966 180.257 20.3523 180.421 20.2511C180.584 20.1498 180.772 20.0954 180.964 20.0938V21.9743C181.16 21.9765 181.349 21.9031 181.492 21.7694C181.635 21.6357 181.721 21.452 181.732 21.2566V21.716L181.423 21.9456C173.57 28.3196 135.273 61.5603 148.51 96.8037L146.708 97.5215C144.798 92.476 143.822 87.125 143.829 81.7301Z" fill="#E2F2D9"/>
<path d="M179.887 21.7251V21.2657C179.887 21.4561 179.963 21.6387 180.098 21.7733C180.232 21.9079 180.415 21.9835 180.605 21.9835V20.0742C180.806 20.0798 181.003 20.1352 181.177 20.2354C181.351 20.3357 181.497 20.4776 181.603 20.6484C190.009 27.5607 228.465 61.4044 214.919 97.4517L213.153 96.7339C226.354 61.6556 188.028 28.2642 180.297 21.8974L179.887 21.7251Z" fill="#E2F2D9"/>
<path d="M65.9349 80.8188C65.9293 76.5879 66.169 72.3602 66.6528 68.1571L68.5192 68.0781V68.4657C68.5192 69.0041 61.0535 127.719 98.1092 144.601L97.3913 146.331C69.8903 133.856 65.9349 99.5459 65.9349 80.8188Z" fill="#E2F2D9"/>
<path d="M67.1841 69.2357V67.312H67.5789C73.7237 66.7019 128.991 61.9071 145.646 98.0549L143.923 98.8229C127.807 63.8595 73.7883 68.5466 67.5789 69.2357H67.1841Z" fill="#E2F2D9"/>
<path d="M19.863 182.225L21.1839 180.84L21.3346 180.998C21.8012 181.608 58.376 228.372 96.1998 214.081L96.9176 215.803C57.8448 230.733 21.4997 184.3 20.021 182.34L19.863 182.225Z" fill="#E2F2D9"/>
<path d="M19.863 181.217L20.0138 181.059C21.4926 179.142 57.9165 132.787 96.9104 147.595L96.1926 149.404C58.5195 135.048 22.9713 180.448 21.4064 182.329L21.1767 182.559L19.863 181.217Z" fill="#E2F2D9"/>
<path d="M67.5786 294.006H67.8873C68.5046 294.085 127.182 301.493 144.095 264.34L145.875 265.187C128.359 303.488 68.196 295.966 67.5786 295.887V294.006Z" fill="#E2F2D9"/>
<path d="M66.1432 282.878C66.1432 263.878 70.1201 229.417 97.4273 216.906L98.2887 218.593C63.1928 234.715 67.9306 288.75 68.7131 294.887V295.346H66.7605V294.966C66.3443 290.95 66.1382 286.915 66.1432 282.878Z" fill="#E2F2D9"/>
<path d="M180.282 341.826V341.403L180.591 341.101C188.344 334.806 226.728 301.572 213.447 266.265L215.134 265.611C228.917 301.723 190.418 335.531 182.048 342.328C181.779 342.656 181.398 342.873 180.979 342.939V341.022C180.878 341.024 180.78 341.048 180.689 341.09C180.599 341.133 180.518 341.194 180.452 341.27C180.387 341.345 180.338 341.434 180.308 341.53C180.279 341.626 180.27 341.727 180.282 341.826Z" fill="#E2F2D9"/>
<path d="M144.231 281.279C144.214 275.916 145.188 270.597 147.103 265.588L148.89 266.241C135.775 301.492 173.958 334.804 181.718 341.099L182.098 341.401V341.824C182.111 341.718 182.101 341.611 182.067 341.51C182.034 341.409 181.978 341.317 181.905 341.24C181.831 341.163 181.742 341.103 181.642 341.065C181.543 341.027 181.436 341.012 181.33 341.02V342.937C181.135 342.932 180.945 342.872 180.783 342.764C180.62 342.656 180.491 342.505 180.411 342.327C173.168 336.548 144.231 311.124 144.231 281.279Z" fill="#E2F2D9"/>
<path d="M263.941 218.524L264.659 216.758C303.272 234.257 295.476 294.236 295.405 294.889L293.524 294.968V294.587C293.567 294.006 301.205 235.291 263.941 218.524Z" fill="#E2F2D9"/>
<path d="M216.347 264.954L218.113 264.186C234.839 301.259 293.703 293.852 294.263 293.852H294.723V295.732H294.421C293.876 295.811 233.734 303.334 216.347 264.954Z" fill="#E2F2D9"/>
<path d="M341.469 180.916H327.191V182.065H341.469V180.916Z" fill="#E2F2D9"/>
<path d="M322.123 175.54L330.795 169.783L331.491 170.702L322.776 176.423L322.123 175.54Z" fill="#E2F2D9"/>
<path d="M316.065 169.631L324.657 164.176L325.275 165.174L316.675 170.586L316.065 169.631Z" fill="#E2F2D9"/>
<path d="M307.192 162.95L315.067 157.043L315.827 157.962L308.003 163.876L307.192 162.95Z" fill="#E2F2D9"/>
<path d="M311.65 166.175L319.288 160.002L319.977 160.957L312.418 167.022L311.65 166.175Z" fill="#E2F2D9"/>
<path d="M294.034 156.274L302.167 149.828L302.856 150.747L294.723 157.157L294.034 156.274Z" fill="#E2F2D9"/>
<path d="M284.63 154.431L294.106 147.756L294.723 148.682L285.283 155.357L284.63 154.431Z" fill="#E2F2D9"/>
<path d="M273.804 155.662L284.479 145.297L285.355 146.144L274.766 156.466L273.804 155.662Z" fill="#E2F2D9"/>
<path d="M268.126 155.811L273.804 145.525L274.838 146.064L269.16 156.35L268.126 155.811Z" fill="#E2F2D9"/>
<path d="M324.815 178.224L336.559 175.389L336.789 176.573L325.116 179.222L324.815 178.224Z" fill="#E2F2D9"/>
<path d="M284.012 77.6753L284.17 77.5245L293.954 67.6621L294.909 68.466L294.565 68.6957L284.78 78.5223L284.012 77.6753Z" fill="#E2F2D9"/>
<path d="M276.604 77.449L278.564 67.2852L279.755 67.5508L277.681 77.6787L276.604 77.449Z" fill="#E2F2D9"/>
<path d="M268.126 77.6066L270.315 67.7012L271.464 67.9309L269.239 77.8363L268.126 77.6066Z" fill="#E2F2D9"/>
<path d="M257.186 79.0999L258.492 69.3164L259.569 69.5461L258.263 79.2937L257.186 79.0999Z" fill="#E2F2D9"/>
<path d="M262.441 78.2586L263.561 68.5469L264.63 68.6258L263.711 78.3734L262.441 78.2586Z" fill="#E2F2D9"/>
<path d="M243.059 83.6639L244.214 73.457L245.327 73.6149L244.214 83.8578L243.059 83.6639Z" fill="#E2F2D9"/>
<path d="M235.155 89.0383L237.079 77.6758L238.228 77.8337L236.232 89.268L235.155 89.0383Z" fill="#E2F2D9"/>
<path d="M228.364 97.4818L228.594 82.6738H229.707L229.556 97.4818H228.364Z" fill="#E2F2D9"/>
<path d="M280.293 77.3734L286.661 67.2383L287.58 67.7766L281.291 77.9836L280.293 77.3734Z" fill="#E2F2D9"/>
<path d="M284.4 84.3593L294.644 82.4355L294.909 83.5122L284.551 85.5077L284.4 84.3593Z" fill="#E2F2D9"/>
<path d="M284.242 92.8791L294.263 90.8047L294.565 91.9531L284.479 94.0275L284.242 92.8791Z" fill="#E2F2D9"/>
<path d="M282.9 104.043L292.878 102.779L293.029 103.892L283.05 105.155L282.9 104.043Z" fill="#E2F2D9"/>
<path d="M283.862 98.5933L293.725 97.6387L293.804 98.7871L283.941 99.7059L283.862 98.5933Z" fill="#E2F2D9"/>
<path d="M278.563 118.168L288.965 117.135L289.044 118.319L278.714 119.281L278.563 118.168Z" fill="#E2F2D9"/>
<path d="M273.187 126.187L284.78 124.35L284.931 125.498L273.424 127.343L273.187 126.187Z" fill="#E2F2D9"/>
<path d="M284.012 80.747L294.263 74.373L294.909 75.378L284.551 81.7089L284.012 80.747Z" fill="#E2F2D9"/>
<path d="M180.505 35.233V35.0033V21.0352H181.574V21.4156V35.312L180.505 35.233Z" fill="#E2F2D9"/>
<path d="M185.415 39.7287L191.323 31.0938L192.17 31.7469L186.334 40.3389L185.415 39.7287Z" fill="#E2F2D9"/>
<path d="M191.402 45.7898L197.008 37.2266L197.927 37.9157L192.32 46.4358L191.402 45.7898Z" fill="#E2F2D9"/>
<path d="M198.308 54.5772L204.374 46.7461L205.293 47.3634L199.155 55.2662L198.308 54.5772Z" fill="#E2F2D9"/>
<path d="M195.049 50.1294L201.308 42.4922L202.227 43.2171L196.01 50.8544L195.049 50.1294Z" fill="#E2F2D9"/>
<path d="M205.142 67.6993L211.861 59.6816L212.665 60.4066L205.953 68.4674L205.142 67.6993Z" fill="#E2F2D9"/>
<path d="M207.065 77.217L213.892 67.7422L214.818 68.4672L207.984 77.9132L207.065 77.217Z" fill="#E2F2D9"/>
<path d="M205.874 87.773L216.505 77.1426L217.309 77.9106L206.642 88.5769L205.874 87.773Z" fill="#E2F2D9"/>
<path d="M205.953 93.3762L216.505 87.7344L217 88.7321L206.563 94.4098L205.953 93.3762Z" fill="#E2F2D9"/>
<path d="M182.5 37.4227L185.257 25.6797L186.412 25.9453L183.613 37.6524L182.5 37.4227Z" fill="#E2F2D9"/>
<path d="M67.0908 68.466L67.8805 67.6621L68.182 67.8918L77.9879 77.8332L77.069 78.4863L76.9901 78.3284L67.0908 68.466Z" fill="#E2F2D9"/>
<path d="M89.6025 140.269L100.88 137.01L101.189 138.122L89.8323 141.381L89.6025 140.269Z" fill="#E2F2D9"/>
<path d="M133.413 82.5957H132.315V97.6405H133.413V82.5957Z" fill="#E2F2D9"/>
<path d="M136.364 101.472L139.802 90.002L140.951 90.3824L137.462 101.86L136.364 101.472Z" fill="#E2F2D9"/>
<path d="M20.4802 182.065V180.916H20.9396H34.5645L34.7943 180.988L34.6363 182.065H34.4856H20.9396H20.4802Z" fill="#E2F2D9"/>
<path d="M30.5879 192.271L39.2452 186.594L39.7836 187.548L31.2268 193.305L30.5879 192.271Z" fill="#E2F2D9"/>
<path d="M36.6748 197.877L45.3106 192.422L45.849 193.384L37.285 198.796L36.6748 197.877Z" fill="#E2F2D9"/>
<path d="M46.251 205.011L54.0182 199.176L54.7288 200.181L46.8612 206.009L46.251 205.011Z" fill="#E2F2D9"/>
<path d="M41.9514 202.133L49.5894 195.996L50.2785 196.879L42.6621 203.016L41.9514 202.133Z" fill="#E2F2D9"/>
<path d="M59.1658 212.303L67.1842 205.857L67.8805 206.74L59.776 213.186L59.1658 212.303Z" fill="#E2F2D9"/>
<path d="M67.2629 214.382L76.6668 207.699L77.2986 208.625L67.8013 215.336L67.2629 214.382Z" fill="#E2F2D9"/>
<path d="M76.5879 216.985L87.2552 206.549L88.0233 207.396L77.3775 217.753L76.5879 216.985Z" fill="#E2F2D9"/>
<path d="M87.1045 216.987L92.7828 206.629L93.881 207.282L88.1956 217.525L87.1045 216.987Z" fill="#E2F2D9"/>
<path d="M25.1392 186.517L36.8258 183.832L37.1345 185.024L25.3904 187.629L25.1392 186.517Z" fill="#E2F2D9"/>
<path d="M67.0908 294.585L67.4139 294.313L77.2198 284.529L77.9089 285.412L77.7582 285.563L67.8805 295.425L67.0908 294.585Z" fill="#E2F2D9"/>
<path d="M82.2661 295.504L84.3766 285.34L85.396 285.562L83.3645 295.812L82.2661 295.504Z" fill="#E2F2D9"/>
<path d="M90.5217 295.044L92.7112 285.182L93.8023 285.411L91.6129 295.353L90.5217 295.044Z" fill="#E2F2D9"/>
<path d="M102.359 293.586L103.687 283.76L104.857 283.91L103.529 293.701L102.359 293.586Z" fill="#E2F2D9"/>
<path d="M97.2979 294.357L98.3101 284.682L99.4802 284.84L98.468 294.429L97.2979 294.357Z" fill="#E2F2D9"/>
<path d="M116.601 289.599L117.771 279.162L118.862 279.349L117.771 289.678L116.601 289.599Z" fill="#E2F2D9"/>
<path d="M123.837 285.262L125.618 273.863L126.788 273.978L124.929 285.412L123.837 285.262Z" fill="#E2F2D9"/>
<path d="M132.164 280.341L132.473 265.533H133.564L133.413 280.341H132.164Z" fill="#E2F2D9"/>
<path d="M74.2622 295.198L80.7157 285.027L81.6561 285.724L75.339 295.816L74.2622 295.198Z" fill="#E2F2D9"/>
<path d="M67.0908 279.463L77.3777 277.547L77.5284 278.695L67.4139 280.504L67.0908 279.463Z" fill="#E2F2D9"/>
<path d="M67.5647 271.019L77.3778 269.023L77.6793 270.1L67.6437 272.21L67.5647 271.019Z" fill="#E2F2D9"/>
<path d="M68.9714 259.128L78.7773 257.9L79.0071 259.049L69.1222 260.276L68.9714 259.128Z" fill="#E2F2D9"/>
<path d="M68.1819 264.345L77.9878 263.305L78.0668 264.496L68.2609 265.379L68.1819 264.345Z" fill="#E2F2D9"/>
<path d="M72.8625 244.774L83.2068 243.74L83.3648 244.932L73.0205 245.886L72.8625 244.774Z" fill="#E2F2D9"/>
<path d="M77.0691 237.52L88.5835 235.711L88.8132 236.867L77.2199 238.632L77.0691 237.52Z" fill="#E2F2D9"/>
<path d="M67.0908 287.713L77.3777 281.303L77.9879 282.3L67.7225 288.674L67.0908 287.713Z" fill="#E2F2D9"/>
<path d="M169.758 331.272L175.666 322.752L176.606 323.369L170.698 331.961L169.758 331.272Z" fill="#E2F2D9"/>
<path d="M164.001 325.138L169.6 316.689L170.62 317.228L164.942 325.748L164.001 325.138Z" fill="#E2F2D9"/>
<path d="M156.686 315.536L162.752 307.705L163.614 308.473L157.533 316.383L156.686 315.536Z" fill="#E2F2D9"/>
<path d="M159.723 319.836L166.011 312.234L166.88 313.002L160.642 320.525L159.723 319.836Z" fill="#E2F2D9"/>
<path d="M149.206 302.681L155.904 294.584L156.837 295.352L150.146 303.334L149.206 302.681Z" fill="#E2F2D9"/>
<path d="M147.11 294.585L153.886 285.182L154.884 285.835L148.036 295.274L147.11 294.585Z" fill="#E2F2D9"/>
<path d="M144.619 285.104L155.286 274.438L156.055 275.241L145.402 285.915L144.619 285.104Z" fill="#E2F2D9"/>
<path d="M144.77 274.279L155.365 268.645L155.904 269.714L145.401 275.32L144.77 274.279Z" fill="#E2F2D9"/>
<path d="M175.587 337.108L178.315 325.365L179.428 325.674L176.607 337.338L175.587 337.108Z" fill="#E2F2D9"/>
<path d="M283.94 285.261L284.859 284.607L284.931 284.758L294.909 294.585L293.955 295.424L293.725 295.123L283.94 285.261Z" fill="#E2F2D9"/>
<path d="M260.797 224.895L272.003 221.629L272.383 222.82L261.027 226.122L260.797 224.895Z" fill="#E2F2D9"/>
<path d="M229.627 265.377H228.436V280.501H229.627V265.377Z" fill="#E2F2D9"/>
<path d="M221.035 272.711L224.559 261.27L225.636 261.499L222.104 273.013L221.035 272.711Z" fill="#E2F2D9"/>
<path d="M271.844 180.682C297.637 180.108 302.712 160.806 302.712 160.648L304.32 161.036C304.32 161.266 298.951 181.759 271.852 182.333L271.844 180.682Z" fill="#E2F2D9"/>
<path d="M271.844 182.79V181.061C298.944 181.599 304.313 201.79 304.313 201.876L302.705 202.336C302.547 201.604 297.558 183.214 271.844 182.79Z" fill="#E2F2D9"/>
<path d="M291.801 180.906C305.16 180.756 311.298 174.037 314.219 168.359L315.217 168.855C312.346 174.769 305.777 181.904 291.801 182.062V180.906Z" fill="#E2F2D9"/>
<path d="M291.801 182.332V181.141C306.423 181.528 312.619 189.28 314.988 193.96L314.061 194.499C311.721 190.12 305.777 182.641 291.801 182.332Z" fill="#E2F2D9"/>
<path d="M287.659 243.156C288.886 241.85 300.171 229.726 321.046 238.167L320.515 239.782C300.666 231.722 290.078 243.005 288.93 244.304L287.659 243.156Z" fill="#E2F2D9"/>
<path d="M300.975 212.609H302.705C302.705 218.904 305.009 230.647 321.125 237.825L320.407 239.476C303.473 231.753 300.975 219.364 300.975 212.609Z" fill="#E2F2D9"/>
<path d="M282.131 232.604C285.721 230.149 293.337 226.69 304.543 231.413L304.083 232.446C293.495 228.039 286.202 231.262 282.821 233.559L282.131 232.604Z" fill="#E2F2D9"/>
<path d="M289.849 216.372L291.04 216.07C292.11 220.592 295.448 226.837 304.68 231.266L304.22 232.343C294.421 227.584 291.04 221.059 289.849 216.372Z" fill="#E2F2D9"/>
<path d="M300.021 148.751C300.021 144.682 301.456 130.484 320.121 122.502L320.839 124.11C301.155 132.4 301.686 147.754 301.686 149.591L300.042 149.67L300.021 148.751Z" fill="#E2F2D9"/>
<path d="M287.738 118.662L289.037 117.471C293.495 121.885 303.473 128.41 319.905 122.273L320.522 123.845C303.165 130.405 292.569 123.364 287.738 118.662Z" fill="#E2F2D9"/>
<path d="M288.678 146.138C289.396 141.832 292.361 134.015 303.645 129.521L304.105 130.483C293.287 134.855 290.466 142.226 289.791 146.332L288.678 146.138Z" fill="#E2F2D9"/>
<path d="M282.67 129.143L283.209 128.182C287.2 130.565 293.876 132.632 303.624 129.215L304.012 130.328C293.797 133.859 286.812 131.634 282.67 129.143Z" fill="#E2F2D9"/>
<path d="M234.653 55.5689C234.759 50.6849 235.797 45.866 237.711 41.3711L239.283 42.0889C231.25 61.907 242.449 72.401 243.748 73.4921L242.599 74.8344C240.04 72.3278 238.016 69.3279 236.65 66.0164C235.284 62.705 234.605 59.1507 234.653 55.5689Z" fill="#E2F2D9"/>
<path d="M212.011 61.5625V59.8326C218.343 59.8326 230.015 57.4926 237.302 41.3711L238.953 42.0889C230.934 59.6818 217.46 61.5625 212.011 61.5625Z" fill="#E2F2D9"/>
<path d="M228.515 68.6988C228.614 65.0238 229.436 61.4042 230.934 58.0469L231.932 58.4273C227.323 69.1941 230.704 76.372 232.93 79.7671L232.162 80.3772C229.748 76.9647 228.472 72.8782 228.515 68.6988Z" fill="#E2F2D9"/>
<path d="M215.507 71.5386C219.958 70.383 226.325 67.0811 230.783 57.793L231.702 58.2595C227.022 68.0071 220.417 71.4596 215.737 72.6153L215.507 71.5386Z" fill="#E2F2D9"/>
<path d="M121.97 42.3348L123.528 41.6816C131.855 61.2557 147.261 60.8681 148.969 60.7174L149.127 62.4472C147.261 62.598 130.75 63.0214 121.97 42.3348Z" fill="#E2F2D9"/>
<path d="M116.903 73.4925C121.339 69.0064 127.879 59.065 121.662 42.6277L123.299 42.0176C130.068 60.0125 121.971 70.8726 118.152 74.7128L116.903 73.4925Z" fill="#E2F2D9"/>
<path d="M128.898 58.8676L129.996 58.4082C134.303 69.2324 141.661 71.9959 145.789 72.685L145.559 73.8334C141.274 73.0654 133.406 70.1153 128.898 58.8676Z" fill="#E2F2D9"/>
<path d="M127.649 79.2886C129.996 75.3695 132.085 68.6151 128.668 58.8676L129.745 58.4082C133.334 68.6151 131.066 75.7571 128.575 79.8988L127.649 79.2886Z" fill="#E2F2D9"/>
<path d="M40.8748 124.8L41.4921 123.228C61.2547 131.253 71.8502 120.049 73.0203 118.742L74.2622 119.891C73.0203 121.276 61.7356 133.249 40.8748 124.8Z" fill="#E2F2D9"/>
<path d="M40.8748 125.185L41.4921 123.613C59.0868 131.559 61.025 144.831 61.025 150.358L59.3165 150.437V150.358C59.3165 145.255 57.4572 132.693 40.8748 125.185Z" fill="#E2F2D9"/>
<path d="M57.457 131.596L57.9165 130.562C68.5838 135.127 75.7408 131.861 79.0788 129.521L79.7967 130.404C76.2792 132.938 68.5838 136.391 57.457 131.596Z" fill="#E2F2D9"/>
<path d="M57.2056 131.791L57.6865 130.793C67.4924 135.394 70.8305 141.998 72.0436 146.678L70.8664 146.907C69.8901 142.493 66.552 136.241 57.2056 131.791Z" fill="#E2F2D9"/>
<path d="M41.1045 238.927C60.7953 230.637 60.4076 215.24 60.2569 213.561L61.8864 213.41C62.1161 215.327 62.6043 231.714 41.7865 240.464L41.1045 238.927Z" fill="#E2F2D9"/>
<path d="M41.4131 239.245C59.5461 232.412 70.3714 240.624 74.0899 244.27L72.8623 245.576C68.4906 241.011 58.5052 234.53 42.1238 240.746L41.4131 239.245Z" fill="#E2F2D9"/>
<path d="M57.9165 232.468C68.5838 228.362 71.4624 220.768 72.2305 216.777L73.3217 216.928C72.4602 221.235 69.5817 229.095 58.297 233.581L57.9165 232.468Z" fill="#E2F2D9"/>
<path d="M57.9165 232.755C68.1029 229.224 75.1881 231.413 79.3158 233.947L78.6984 234.83C74.8004 232.446 68.0311 230.379 58.2252 233.868L57.9165 232.755Z" fill="#E2F2D9"/>
<path d="M118.231 289.589L119.322 288.211C120.722 289.517 132.796 300.722 124.218 321.602L122.66 320.985C130.607 301.181 119.473 290.608 118.231 289.589Z" fill="#E2F2D9"/>
<path d="M123.141 320.987C131.038 303.337 144.382 301.492 149.91 301.492V303.179C143.521 303.179 131.856 305.562 124.699 321.676L123.141 320.987Z" fill="#E2F2D9"/>
<path d="M128.898 283.339L129.817 282.621C132.315 286.267 135.825 293.977 131.066 305.03L129.996 304.571C134.576 293.933 131.217 286.756 128.898 283.339Z" fill="#E2F2D9"/>
<path d="M130.226 304.828C134.885 295.045 141.432 291.628 146.09 290.473L146.327 291.585C141.97 292.698 135.746 295.892 131.216 305.324L130.226 304.828Z" fill="#E2F2D9"/>
<path d="M212.815 300.565C214.66 300.414 231.164 299.919 239.95 320.663L238.299 321.381C230.015 301.656 214.66 302.195 212.973 302.309L212.815 300.565Z" fill="#E2F2D9"/>
<path d="M235.995 307.51C235.963 300.356 238.748 293.476 243.748 288.359L245.019 289.587C240.604 294.001 234.043 304.022 240.259 320.366L238.687 321.083C236.96 316.764 236.048 312.162 235.995 307.51Z" fill="#E2F2D9"/>
<path d="M216.039 290.289L216.347 289.291C220.568 290.009 228.594 292.973 232.93 304.178L232.004 304.601C227.826 293.856 220.109 291.057 216.039 290.289Z" fill="#E2F2D9"/>
<path d="M230.396 294.314C230.332 290.401 231.356 286.547 233.353 283.182L234.272 283.763C232.004 287.596 229.858 294.429 233.239 304.256L232.241 304.6C231.067 301.296 230.444 297.821 230.396 294.314Z" fill="#E2F2D9"/>
<path d="M258.952 102.777C268.392 93.101 267.889 84.0067 265.858 77.9844L266.97 77.6758C268.772 82.8223 270.079 92.9862 259.72 103.617L258.952 102.777Z" fill="#E2F2D9"/>
<path d="M259.103 102.929C269.619 92.8803 279.677 94.0287 284.472 95.5217L284.242 96.6343C279.526 95.1413 270.007 94.1005 259.792 103.776L259.103 102.929Z" fill="#E2F2D9"/>
<path d="M167.82 48.2809L168.351 47.2832C173.168 49.6591 181.344 55.9541 181.574 70.7261H180.497C180.282 57.3251 173.498 51.1162 167.82 48.2809Z" fill="#E2F2D9"/>
<path d="M180.577 70.7308C180.965 56.1095 188.832 49.915 193.319 47.5176L193.857 48.4722C189.55 50.7763 182.113 56.7268 181.733 70.8098L180.577 70.7308Z" fill="#E2F2D9"/>
<path d="M77.0691 95.5191C82.2664 93.7964 92.5532 92.4901 102.976 102.776L102.208 103.616C92.6322 94.1769 83.4365 94.6363 77.5285 96.6317L77.0691 95.5191Z" fill="#E2F2D9"/>
<path d="M94.032 84.6032C93.9871 82.3237 94.3244 80.0528 95.0298 77.8848L96.042 78.2724C94.6063 82.9523 93.5511 92.4343 103.278 102.677L102.359 103.445C95.7405 96.4826 94.032 89.7641 94.032 84.6032Z" fill="#E2F2D9"/>
<path d="M46.7615 194.111C49.719 188.283 56.1869 181.141 70.1923 180.99V182.067C56.7253 182.332 50.5805 189.051 47.7808 194.65L46.7615 194.111Z" fill="#E2F2D9"/>
<path d="M46.9404 169.014L47.9526 168.555C50.2785 172.926 56.2079 180.448 70.2923 180.678L70.2133 181.906C55.5762 181.446 49.3596 173.658 46.9404 169.014Z" fill="#E2F2D9"/>
<path d="M93.802 278.155C93.802 272.857 95.6612 266.261 102.208 259.492L103.048 260.332C93.7159 269.929 94.1825 278.994 96.0417 284.938L95.0295 285.397C94.2149 283.069 93.7999 280.621 93.802 278.155Z" fill="#E2F2D9"/>
<path d="M77.3704 267.487L77.679 266.41C82.4169 267.846 91.9213 268.944 102.029 259.275L102.976 260.115C92.3233 270.1 82.3451 269.073 77.3704 267.487Z" fill="#E2F2D9"/>
<path d="M180.498 292.354H181.574C181.732 305.712 188.408 311.928 194.166 314.77L193.548 315.725C188.832 313.27 180.577 307.018 180.498 292.354Z" fill="#E2F2D9"/>
<path d="M167.971 314.543C172.4 312.239 179.887 306.331 180.268 292.205H181.345C181 306.941 173.104 313.157 168.509 315.54L167.971 314.543Z" fill="#E2F2D9"/>
<path d="M258.952 260.348L259.72 259.43C269.296 268.797 278.485 268.359 284.472 266.414L284.78 267.49C279.748 269.256 269.468 270.555 258.952 260.348Z" fill="#E2F2D9"/>
<path d="M258.722 260.344L259.49 259.576C269.619 270.099 268.542 280.227 266.97 285.101L265.779 284.864C267.279 280.076 268.471 270.551 258.722 260.344Z" fill="#E2F2D9"/>
<path d="M244.631 116.668C262.441 98.0553 252.427 80.8212 252.348 80.7781L253.733 79.8594C253.884 80.0819 264.63 98.3568 245.837 117.902L244.631 116.668Z" fill="#E2F2D9"/>
<path d="M244.939 116.975C264.4 98.2045 282.519 108.605 282.67 108.763L281.823 110.141C281.105 109.797 264.594 100.315 246.131 118.166L244.939 116.975Z" fill="#E2F2D9"/>
<path d="M160.104 59.8325L160.484 58.1816C160.735 58.2606 181.266 63.5579 181.883 90.6113L180.196 90.6831C179.565 64.936 160.9 59.9833 160.104 59.8325Z" fill="#E2F2D9"/>
<path d="M180.498 90.6113C181.036 63.5579 201.114 58.2606 201.38 58.1816L201.839 59.8325C200.956 59.9833 182.73 64.936 182.192 90.6974L180.498 90.6113Z" fill="#E2F2D9"/>
<path d="M79.2368 108.762C79.4665 108.604 97.7503 97.902 117.283 116.658L116.127 117.885C97.4632 100.005 80.3208 110.054 80.0911 110.212L79.2368 108.762Z" fill="#E2F2D9"/>
<path d="M105.159 92.6445C105.159 84.9714 108.195 79.9038 108.267 79.832L109.703 80.7508C109.236 81.4686 99.8896 97.8628 117.642 116.36L116.393 117.624C107.556 108.378 105.159 99.5497 105.159 92.6445Z" fill="#E2F2D9"/>
<path d="M57.6082 201.907C57.6871 201.792 62.9849 181.22 90.0624 180.682L90.1342 182.333C64.3847 182.986 59.3167 202.136 59.3167 202.366L57.6082 201.907Z" fill="#E2F2D9"/>
<path d="M57.6082 161.108L59.3167 160.648C59.4674 161.416 64.3847 179.763 90.1342 180.294L90.0624 182.067C62.9849 181.45 57.6871 161.266 57.6082 161.108Z" fill="#E2F2D9"/>
<path d="M105.159 270.022C105.159 263.074 107.406 254.288 116.135 245.15L117.291 246.421C99.4807 265.033 109.595 282.145 109.674 282.31L108.239 283.265C106.147 279.168 105.09 274.621 105.159 270.022Z" fill="#E2F2D9"/>
<path d="M79.2368 254.288L80.0983 252.853C80.8161 253.24 97.2909 262.758 115.891 244.957L116.982 246.149C97.4488 264.876 79.4665 254.403 79.2368 254.288Z" fill="#E2F2D9"/>
<path d="M180.196 272.398H181.883C182.342 298.11 200.956 303.026 201.839 303.177L201.459 304.907C201.1 304.828 180.655 299.495 180.196 272.398Z" fill="#E2F2D9"/>
<path d="M160.104 303.177C160.886 303.026 179.198 298.11 179.73 272.398H181.424C180.885 299.495 160.735 304.828 160.563 304.907L160.104 303.177Z" fill="#E2F2D9"/>
<path d="M244.631 246.421L245.866 245.15C264.401 262.995 281.672 252.902 281.823 252.824L282.67 254.259C282.519 254.403 264.171 265.105 244.631 246.421Z" fill="#E2F2D9"/>
<path d="M244.286 246.686L245.607 245.459C264.271 265.033 253.863 283.028 253.712 283.258L252.326 282.303C252.736 281.607 262.118 265.184 244.286 246.686Z" fill="#E2F2D9"/>
<path d="M293.186 100.552L293.265 101.427L293.337 100.552C294.887 100.3 296.454 100.17 298.024 100.164C306.814 100.179 315.239 103.677 321.454 109.892C327.669 116.106 331.167 124.53 331.182 133.319C331.182 143.834 326.344 153.74 318.096 159.69L316.983 158.19C320.853 155.305 323.991 151.551 326.144 147.231C328.297 142.911 329.406 138.145 329.38 133.319C329.357 125.019 326.041 117.068 320.159 111.212C314.277 105.356 306.31 102.074 298.01 102.088C296.52 102.112 295.032 102.213 293.552 102.389L293.251 101.427L293.186 100.552Z" fill="#E2F2D9"/>
<path d="M202.995 44.9394L203.297 44.4441C204.144 43.3674 205.063 42.3338 206.103 41.2212C212.345 35.0019 220.798 31.5098 229.61 31.5098C238.421 31.5098 246.874 35.0019 253.116 41.2212C256.759 44.8155 259.503 49.2186 261.125 54.0728C262.747 58.927 263.2 64.0952 262.448 69.1575L260.646 68.8489C261.343 64.0875 260.906 59.2289 259.372 54.6679C257.838 50.1068 255.249 45.972 251.816 42.5994C248.914 39.6804 245.464 37.3639 241.663 35.7832C237.863 34.2025 233.787 33.3887 229.671 33.3887C225.554 33.3887 221.479 34.2025 217.678 35.7832C213.877 37.3639 210.427 39.6804 207.525 42.5994C206.53 43.5313 205.63 44.5605 204.84 45.6715L204.46 46.1309L202.995 44.9394Z" fill="#E2F2D9"/>
<path d="M99.5593 64.502C99.5954 55.6811 103.124 47.2334 109.372 41.0067C115.621 34.7801 124.082 31.2813 132.904 31.2757C138.003 31.2547 143.036 32.4272 147.6 34.6993C152.165 36.9715 156.135 40.2802 159.192 44.3609L157.634 45.5166C154.768 41.6633 151.037 38.5371 146.742 36.3901C142.446 34.2432 137.706 33.1354 132.904 33.1563C124.584 33.1544 116.603 36.4544 110.714 42.3316C104.826 48.2089 101.511 56.1828 101.498 64.502C101.537 66.0322 101.664 67.5588 101.878 69.0743L100.019 69.2969C99.767 67.7096 99.6136 66.1083 99.5593 64.502Z" fill="#E2F2D9"/>
<path d="M31.0687 132.788C31.0581 128.436 31.9054 124.126 33.5621 120.102C35.2188 116.078 37.6525 112.42 40.7239 109.338C44.3153 105.687 48.7162 102.933 53.5702 101.299C58.4241 99.6658 63.5945 99.1982 68.6628 99.9346L68.3326 101.851C63.5595 101.181 58.6958 101.637 54.1309 103.184C49.566 104.731 45.4267 107.325 42.0447 110.759C39.1382 113.66 36.8323 117.105 35.259 120.898C33.6857 124.691 32.8759 128.757 32.8759 132.863C32.8759 136.969 33.6857 141.035 35.259 144.828C36.8323 148.621 39.1382 152.067 42.0447 154.967C43.1275 156.058 44.2966 157.059 45.5407 157.961L44.3634 159.461C43.0889 158.496 41.8735 157.456 40.7239 156.346C37.622 153.263 35.1695 149.59 33.5111 145.544C31.8528 141.498 31.0223 137.16 31.0687 132.788Z" fill="#E2F2D9"/>
<path d="M30.7457 229.647C30.7144 224.534 31.8881 219.487 34.1717 214.912C36.4553 210.338 39.7846 206.366 43.8897 203.318L44.988 204.898C37.271 210.496 32.6839 219.82 32.6122 229.647C32.6386 237.965 35.9511 245.936 41.8281 251.823C47.7052 257.71 55.6707 261.037 63.9896 261.079L68.5911 260.619L68.8208 262.5C67.2224 262.75 65.6073 262.877 63.9896 262.88C59.6224 262.888 55.2967 262.033 51.2604 260.366C47.2242 258.699 43.5567 256.251 40.4683 253.164C37.3799 250.076 34.9313 246.41 33.2629 242.374C31.5945 238.339 30.7391 234.014 30.7457 229.647Z" fill="#E2F2D9"/>
<path d="M98.9995 298.505C99.0137 296.949 99.1481 295.397 99.4015 293.861L101.268 294.17C100.58 298.94 101.025 303.804 102.565 308.37C104.105 312.936 106.698 317.076 110.133 320.455C113.035 323.374 116.486 325.691 120.287 327.271C124.087 328.852 128.163 329.666 132.279 329.666C136.396 329.666 140.471 328.852 144.272 327.271C148.073 325.691 151.523 323.374 154.425 320.455C155.542 319.375 156.557 318.192 157.454 316.924L158.933 318.072C157.968 319.405 156.903 320.663 155.746 321.833C151.101 326.453 145.195 329.599 138.769 330.877C132.343 332.154 125.683 331.507 119.624 329.016C113.564 326.525 108.375 322.301 104.706 316.873C101.037 311.446 99.052 305.056 98.9995 298.505Z" fill="#E2F2D9"/>
<path d="M202.686 318.681L204.222 317.532C208.197 322.752 213.71 326.593 219.985 328.513C226.259 330.433 232.977 330.335 239.193 328.233C245.409 326.131 250.807 322.131 254.628 316.797C258.449 311.463 260.498 305.065 260.488 298.504C260.442 296.976 260.313 295.452 260.1 293.939L261.981 293.709C262.197 295.299 262.326 296.9 262.369 298.504C262.362 305.455 260.178 312.229 256.123 317.875C252.068 323.521 246.347 327.755 239.761 329.982C233.176 332.209 226.059 332.317 219.409 330.291C212.759 328.266 206.911 324.208 202.686 318.688V318.681Z" fill="#E2F2D9"/>
<path d="M293.337 263.074L293.646 261.272C300.13 262.139 306.722 260.954 312.497 257.882C318.272 254.811 322.94 250.008 325.845 244.147C328.75 238.287 329.746 231.664 328.694 225.209C327.641 218.753 324.593 212.79 319.977 208.156C318.837 207.045 317.639 205.996 316.388 205.012L317.579 203.576C318.88 204.565 320.122 205.629 321.298 206.763C327.512 212.993 331.001 221.433 331.001 230.231C331.001 239.03 327.512 247.469 321.298 253.699C317.692 257.335 313.286 260.077 308.43 261.705C303.575 263.333 298.406 263.802 293.337 263.074Z" fill="#E2F2D9"/>
<path d="M204.223 46.5196C210.685 41.0031 218.987 38.1217 227.478 38.4489C235.969 38.7761 244.025 42.2879 250.043 48.2854C255.781 53.8317 259.209 61.3416 259.641 69.3094L258.414 69.3883C257.875 61.7691 254.602 54.6009 249.196 49.2041C243.397 43.4578 235.652 40.0962 227.494 39.7839C219.335 39.4715 211.356 42.2312 205.134 47.5173L204.223 46.5196Z" fill="#E2F2D9"/>
<path d="M102.036 69.5297C102.716 61.064 106.552 53.1627 112.784 47.3916C119.016 41.6206 127.188 38.4009 135.682 38.3706C143.663 38.2951 151.382 41.2178 157.311 46.5605L156.442 47.5224C150.717 42.4597 143.325 39.6868 135.682 39.7344C127.526 39.7557 119.674 42.8335 113.676 48.3601C107.679 53.8868 103.971 61.4608 103.285 69.5871L102.036 69.5297Z" fill="#E2F2D9"/>
<path d="M37.8453 136.287C37.8261 131.84 38.6972 127.434 40.4072 123.329C42.1172 119.224 44.6315 115.503 47.802 112.385C53.3471 106.649 60.8482 103.21 68.8136 102.752L68.9715 104.051C61.2904 104.553 54.0588 107.849 48.6418 113.318C42.8934 119.114 39.5291 126.855 39.2141 135.012C38.8991 143.169 41.6562 151.146 46.9405 157.368L45.9212 158.294C40.6987 152.152 37.8356 144.349 37.8453 136.287Z" fill="#E2F2D9"/>
<path d="M37.8454 226.849C37.8214 218.89 40.6915 211.194 45.9212 205.193L47.0124 206.04C41.9515 211.567 39.317 219.011 39.2452 226.856C39.2679 235.01 42.3504 242.859 47.8829 248.849C53.4155 254.84 60.995 258.536 69.1223 259.207L69.0434 260.513C60.5765 259.816 52.6778 255.973 46.9034 249.742C41.1289 243.511 37.8974 235.344 37.8454 226.849Z" fill="#E2F2D9"/>
<path d="M102.208 293.702L103.608 293.58C104.024 301.261 107.305 308.507 112.804 313.886C118.626 319.621 126.383 322.97 134.55 323.275C142.717 323.581 150.703 320.82 156.937 315.537L157.705 316.535C151.218 322.047 142.897 324.924 134.39 324.597C125.883 324.27 117.808 320.763 111.763 314.769C106.136 309.132 102.742 301.648 102.208 293.702Z" fill="#E2F2D9"/>
<path d="M204.524 316.537L205.486 315.539C211.22 320.63 218.636 323.417 226.304 323.363C234.465 323.316 242.314 320.219 248.308 314.68C254.302 309.142 258.009 301.563 258.701 293.432L260.007 293.582C258.701 310.895 243.805 324.706 226.268 324.634C218.27 324.708 210.526 321.824 204.524 316.537Z" fill="#E2F2D9"/>
<path d="M293.028 258.89C300.696 258.469 307.927 255.188 313.293 249.696C319.07 243.908 322.458 236.16 322.785 227.99C323.112 219.82 320.354 211.826 315.059 205.595L316.057 204.877C321.544 211.35 324.399 219.647 324.059 228.125C323.719 236.603 320.207 244.645 314.219 250.657C308.661 256.382 301.153 259.807 293.186 260.254L293.028 258.89Z" fill="#E2F2D9"/>
<path d="M292.878 103.887L292.986 102.545C301.439 103.241 309.324 107.08 315.086 113.304C320.848 119.528 324.069 127.685 324.112 136.166C324.169 144.162 321.264 151.897 315.957 157.879L314.88 156.996C320.011 151.282 322.826 143.86 322.777 136.18C322.746 128.031 319.656 120.19 314.119 114.21C308.582 108.229 301.002 104.545 292.878 103.887Z" fill="#E2F2D9"/>
<path d="M318.979 151.356C321.355 149.92 324.004 148.363 326.732 146.834L327.342 147.982C324.657 149.518 322.044 150.976 319.668 152.512L318.979 151.356Z" fill="#E2F2D9"/>
<path d="M329.381 141.07C328.383 141.688 327.421 142.226 326.509 142.879C324.973 143.762 323.473 144.76 321.979 145.485" fill="#E2F2D9"/>
<path d="M330.027 135.783C328.189 136.968 326.272 138.123 324.427 139.236C324.004 139.386 323.465 139.846 323.085 139.954" fill="#E2F2D9"/>
<path d="M323.236 135.049C325.505 133.707 328.031 132.4 330.027 131.094L323.236 135.049Z" fill="#E2F2D9"/>
<path d="M322.934 130.178C325.195 128.793 327.421 127.494 329.531 126.338L322.934 130.178Z" fill="#E2F2D9"/>
<path d="M321.7 125.953C323.81 124.647 326.15 123.463 328.225 122.113L321.7 125.953Z" fill="#E2F2D9"/>
<path d="M320.264 122.115C322.253 120.851 324.406 119.509 326.481 118.354L320.264 122.115Z" fill="#E2F2D9"/>
<path d="M318.11 118.165C320.264 117.053 322.288 115.667 324.212 114.576L318.11 118.165Z" fill="#E2F2D9"/>
<path d="M315.526 114.749C317.555 113.749 319.503 112.595 321.355 111.297L315.526 114.749Z" fill="#E2F2D9"/>
<path d="M312.49 111.882C314.292 110.769 316.215 109.656 318.096 108.465L312.49 111.882Z" fill="#E2F2D9"/>
<path d="M308.843 108.836C310.734 107.893 312.555 106.816 314.292 105.613L308.843 108.836Z" fill="#E2F2D9"/>
<path d="M309.92 103.35C308.335 104.393 306.696 105.352 305.01 106.221C305.01 106.221 304.78 106.221 304.78 106.415" fill="#E2F2D9"/>
<path d="M304.471 101.621C303.933 102.088 303.473 102.238 303.035 102.619C301.902 103.197 300.802 103.84 299.74 104.542" fill="#E2F2D9"/>
<path d="M293.495 103.16C294.726 102.53 295.924 101.838 297.084 101.086L293.495 103.16Z" fill="#E2F2D9"/>
<path d="M204.223 46.5196C210.685 41.0031 218.987 38.1217 227.478 38.4489C235.969 38.7761 244.025 42.2879 250.043 48.2854C255.781 53.8317 259.209 61.3416 259.641 69.3094L258.414 69.3883C257.875 61.7691 254.602 54.6009 249.196 49.2041C243.397 43.4578 235.652 40.0962 227.494 39.7839C219.335 39.4715 211.356 42.2312 205.134 47.5173L204.223 46.5196Z" fill="#E2F2D9"/>
<path d="M257.186 62.6325C257.803 59.948 258.564 57.1845 259.49 53.9258L260.789 54.2703C259.792 57.4932 259.102 60.2567 258.492 63.0201L257.186 62.6325Z" fill="#E2F2D9"/>
<path d="M257.337 48.0918C256.992 49.1254 256.763 50.2021 256.454 51.2788C256.136 53.0113 255.687 54.7173 255.112 56.3822" fill="#E2F2D9"/>
<path d="M254.042 43.7578C253.575 45.8681 253.037 48.0645 252.506 50.2179C252.335 50.7186 252.206 51.2323 252.118 51.754" fill="#E2F2D9"/>
<path d="M248.744 48.0441C249.355 45.5175 250.18 42.833 250.776 40.4141L248.744 48.0441Z" fill="#E2F2D9"/>
<path d="M244.939 44.8235C245.657 42.2969 246.375 39.7631 246.978 37.459L244.939 44.8235Z" fill="#E2F2D9"/>
<path d="M241.221 42.7125C241.759 40.2577 242.52 37.9177 243.059 35.4629L241.221 42.7125Z" fill="#E2F2D9"/>
<path d="M237.38 41.0644C237.919 38.6885 238.536 36.2337 239.182 33.9727L237.38 41.0644Z" fill="#E2F2D9"/>
<path d="M233.08 39.763C233.884 37.4589 234.351 35.0041 234.925 32.9297L233.08 39.763Z" fill="#E2F2D9"/>
<path d="M228.902 39.2228C229.592 37.0532 230.167 34.849 230.625 32.6191L228.902 39.2228Z" fill="#E2F2D9"/>
<path d="M224.717 39.3839C225.248 37.1588 225.784 35.0054 226.325 32.9238L224.717 39.3839Z" fill="#E2F2D9"/>
<path d="M219.958 39.7661C220.642 37.7475 221.18 35.682 221.566 33.5859L219.958 39.7661Z" fill="#E2F2D9"/>
<path d="M216.85 35.0078C216.472 36.8811 215.97 38.7275 215.349 40.5348C215.329 40.5542 215.313 40.5776 215.301 40.6035C215.29 40.6294 215.285 40.6573 215.285 40.6855C215.285 40.7137 215.29 40.7416 215.301 40.7675C215.313 40.7934 215.329 40.8168 215.349 40.8362" fill="#E2F2D9"/>
<path d="M211.868 37.7695C211.71 38.3797 211.559 38.7673 211.401 39.4563C211.006 40.631 210.687 41.8297 210.446 43.0453" fill="#E2F2D9"/>
<path d="M205.062 46.5612C205.546 45.2703 205.895 43.9329 206.103 42.5703L205.062 46.5612Z" fill="#E2F2D9"/>
<path d="M102.036 69.5297C102.716 61.064 106.552 53.1627 112.784 47.3916C119.016 41.6206 127.188 38.4009 135.682 38.3706C143.663 38.2951 151.382 41.2178 157.311 46.5605L156.442 47.5224C150.717 42.4597 143.325 39.6868 135.682 39.7344C127.526 39.7557 119.674 42.8335 113.676 48.3601C107.679 53.8868 103.971 61.4608 103.285 69.5871L102.036 69.5297Z" fill="#E2F2D9"/>
<path d="M146.248 35.795L147.418 35.1777C148.897 37.7905 150.448 40.4391 152.005 42.8939L150.756 43.6117C149.278 41.1425 147.648 38.3791 146.248 35.795Z" fill="#E2F2D9"/>
<path d="M140.563 33.1602C141.202 34.0789 141.662 35.0838 142.279 36.0744C143.256 37.5258 144.138 39.0387 144.921 40.6036" fill="#E2F2D9"/>
<path d="M134.734 32.7803L135.904 32.0625C136.995 34.0221 138.151 35.8596 139.242 37.8048C139.365 38.0619 139.52 38.303 139.702 38.5226C139.702 38.7523 139.953 38.982 139.953 39.2404L138.862 39.8577C138.783 39.6998 138.625 39.4701 138.474 39.2404C138.323 39.0107 138.151 38.781 138.151 38.5226C136.995 36.5774 135.904 34.6609 134.734 32.7803Z" fill="#E2F2D9"/>
<path d="M130.032 32.7803L131.102 32.0625C132.042 33.5986 133.062 35.3284 133.901 36.9004C134.358 37.5386 134.752 38.2188 135.079 38.9317L133.901 39.6495C133.584 38.9528 133.226 38.2746 132.832 37.6182C131.856 35.9242 130.915 34.2374 130.032 32.7803Z" fill="#E2F2D9"/>
<path d="M125.237 33.3096L126.4 32.5918C127.118 34.0274 127.958 35.4629 128.747 36.8985L130.183 39.2385L129.013 39.8917L127.685 37.5158C126.788 36.0731 125.948 34.6949 125.237 33.3096Z" fill="#E2F2D9"/>
<path d="M125.388 40.7614C124.067 38.687 122.89 36.4547 121.569 34.3516L125.388 40.7614Z" fill="#E2F2D9"/>
<path d="M117.212 36.3446L118.382 35.6914C119.322 37.4931 120.571 39.3737 121.662 41.1394L122.201 41.9433L121.031 42.5965L120.571 41.8285C119.401 40.0986 118.231 38.2252 117.212 36.3446Z" fill="#E2F2D9"/>
<path d="M117.613 44.3648C116.443 42.2975 115.122 40.2231 114.024 38.3066L117.613 44.3648Z" fill="#E2F2D9"/>
<path d="M114.182 47.05C113.231 44.978 112.087 43.0001 110.765 41.1426L114.182 47.05Z" fill="#E2F2D9"/>
<path d="M111.368 50.0429C110.126 48.1695 109.05 46.2889 107.958 44.3652L111.368 50.0429Z" fill="#E2F2D9"/>
<path d="M108.346 53.6917C107.327 51.8111 106.257 49.8946 105.159 48.1719L108.346 53.6917Z" fill="#E2F2D9"/>
<path d="M102.819 52.5762C103.759 54.0763 104.757 55.8062 105.625 57.493C105.625 57.493 105.625 57.6437 105.855 57.6437" fill="#E2F2D9"/>
<path d="M101.11 58.1035C101.455 58.5561 101.762 59.0363 102.029 59.5391C102.668 60.7306 103.465 61.6925 103.917 62.805" fill="#E2F2D9"/>
<path d="M102.668 69.005C102.029 67.8924 101.34 66.6219 100.478 65.416L102.668 69.005Z" fill="#E2F2D9"/>
<path d="M37.8453 136.287C37.8261 131.84 38.6972 127.434 40.4072 123.329C42.1172 119.224 44.6315 115.503 47.802 112.385C53.3471 106.649 60.8482 103.21 68.8136 102.752L68.9715 104.051C61.2904 104.553 54.0588 107.849 48.6418 113.318C42.8934 119.114 39.5291 126.855 39.2141 135.012C38.8991 143.169 41.6562 151.146 46.9405 157.368L45.9212 158.294C40.6987 152.152 37.8356 144.349 37.8453 136.287Z" fill="#E2F2D9"/>
<path d="M53.3298 103.009L53.7103 101.738C56.6679 102.542 59.6254 103.353 62.4251 103.963L62.1164 105.313C59.3168 104.581 56.2874 103.813 53.3298 103.009Z" fill="#E2F2D9"/>
<path d="M47.321 105.842L47.6513 104.543C48.2614 104.658 48.7209 104.844 49.2808 105.002C49.818 105.135 50.362 105.238 50.9103 105.311C52.6188 105.77 54.4063 106.151 56.0502 106.747L55.5764 108.017C53.9486 107.473 52.2868 107.036 50.6016 106.711L48.9506 106.251C48.4911 106.072 47.881 106 47.321 105.842Z" fill="#E2F2D9"/>
<path d="M43.0425 109.074L43.3512 107.768C44.3633 107.997 45.3827 108.306 46.402 108.536C47.5506 108.765 48.7207 109.11 49.819 109.375L50.2785 109.49C50.6242 109.563 50.9629 109.667 51.2906 109.799L50.9102 111.062C50.6215 110.906 50.2977 110.827 49.9698 110.833L49.5103 110.761C48.3402 110.452 47.1701 110.043 46.0718 109.799C44.9735 109.555 44.0618 109.34 43.0425 109.074Z" fill="#E2F2D9"/>
<path d="M39.7046 112.447L39.9343 111.141C41.6428 111.528 43.3513 111.988 45.1531 112.447C45.9212 112.713 46.8616 112.906 47.723 113.165L47.321 114.392C46.474 114.241 45.6125 114.012 44.7511 113.782C43.0964 113.239 41.4113 112.793 39.7046 112.447Z" fill="#E2F2D9"/>
<path d="M36.7109 116.187L37.1704 114.881L41.7359 116.187C42.6602 116.377 43.5694 116.634 44.4566 116.955L44.0761 118.183C43.2075 117.917 42.2887 117.723 41.3483 117.465C39.7762 117.056 38.2256 116.589 36.7109 116.187Z" fill="#E2F2D9"/>
<path d="M42.1954 121.312C39.7762 120.738 37.3642 119.97 34.9451 119.432L42.1954 121.312Z" fill="#E2F2D9"/>
<path d="M33.2371 123.924L33.5457 122.574C35.9061 123.309 38.302 123.925 40.7243 124.419L40.3941 125.725C37.9964 125.187 35.5773 124.577 33.2371 123.924Z" fill="#E2F2D9"/>
<path d="M39.2452 129.372C36.9767 128.654 34.5648 128.101 32.3896 127.57L39.2452 129.372Z" fill="#E2F2D9"/>
<path d="M31.9878 132.551L32.1457 131.252C34.4183 131.676 36.6568 132.267 38.8433 133.018L38.4557 134.245C36.339 133.54 34.1784 132.974 31.9878 132.551Z" fill="#E2F2D9"/>
<path d="M38.8648 137.778C36.7112 137.312 34.5576 136.702 32.4041 136.242L38.8648 137.778Z" fill="#E2F2D9"/>
<path d="M39.245 142.495C37.2063 141.841 34.9379 141.31 33.0068 140.887L39.245 142.495Z" fill="#E2F2D9"/>
<path d="M34.5576 145.568C36.2589 145.992 38.0679 146.53 40.0061 147.069C40.0061 147.069 40.0779 147.14 40.2359 147.069" fill="#E2F2D9"/>
<path d="M37.2065 150.641C37.8454 150.799 38.2259 150.949 38.915 151.064C40.0851 151.488 41.3342 151.602 42.5043 151.983" fill="#E2F2D9"/>
<path d="M46.0001 157.388C44.8443 157 43.3512 156.577 42.0447 156.275L46.0001 157.388Z" fill="#E2F2D9"/>
<path d="M37.8454 226.849C37.8214 218.89 40.6915 211.194 45.9212 205.193L47.0124 206.04C41.9515 211.567 39.317 219.011 39.2452 226.856C39.2679 235.01 42.3504 242.859 47.8829 248.849C53.4155 254.84 60.995 258.536 69.1223 259.207L69.0434 260.513C60.5765 259.816 52.6778 255.973 46.9034 249.742C41.1289 243.511 37.8974 235.344 37.8454 226.849Z" fill="#E2F2D9"/>
<path d="M34.5576 215.138C37.2783 213.566 39.9272 211.994 42.3464 210.494L43.0642 211.686C40.5661 213.179 38.0392 214.679 35.2898 216.136L34.5576 215.138Z" fill="#E2F2D9"/>
<path d="M32.6267 221.857C33.5456 221.354 34.5649 220.744 35.4981 220.127C36.9769 219.287 38.5347 218.361 40.0852 217.521" fill="#E2F2D9"/>
<path d="M31.8369 227.271C33.7967 226.116 35.6559 224.888 37.5798 223.855L38.9006 223.051" fill="#E2F2D9"/>
<path d="M38.6853 228.041C36.3451 229.347 34.0264 230.726 31.8369 231.953L38.6853 228.041Z" fill="#E2F2D9"/>
<path d="M39.1443 232.986C36.8257 234.257 34.5644 235.563 32.4683 236.712L39.1443 232.986Z" fill="#E2F2D9"/>
<path d="M40.2432 237.098C38.0896 238.397 35.8858 239.552 33.7825 240.931L40.2432 237.098Z" fill="#E2F2D9"/>
<path d="M41.736 240.93C39.6399 242.157 37.6083 243.578 35.5122 244.612L41.736 240.93Z" fill="#E2F2D9"/>
<path d="M43.8254 244.844C41.722 246.035 39.6259 247.306 37.7451 248.433L43.8254 244.844Z" fill="#E2F2D9"/>
<path d="M46.4739 248.262C44.5931 249.259 42.5042 250.487 40.5444 251.793L46.4739 248.262Z" fill="#E2F2D9"/>
<path d="M49.5103 251.131C47.651 252.322 45.6913 253.356 43.9038 254.548L49.5103 251.131Z" fill="#E2F2D9"/>
<path d="M53.1573 254.131C51.2583 255.108 49.4196 256.199 47.6514 257.397L53.1573 254.131Z" fill="#E2F2D9"/>
<path d="M51.9297 259.659C53.4803 258.74 55.1887 257.822 56.8972 256.745C56.9173 256.756 56.9394 256.762 56.9622 256.764C56.9849 256.766 57.0078 256.763 57.0294 256.756C57.051 256.748 57.0708 256.737 57.0876 256.721C57.1044 256.706 57.1178 256.687 57.127 256.666" fill="#E2F2D9"/>
<path d="M57.457 261.425C57.9128 261.063 58.4091 260.754 58.9358 260.506C60.0108 259.804 61.1253 259.164 62.2738 258.59" fill="#E2F2D9"/>
<path d="M68.4904 259.887C67.231 260.463 66.0292 261.158 64.9011 261.961L68.4904 259.887Z" fill="#E2F2D9"/>
<path d="M102.208 293.702L103.608 293.58C104.024 301.261 107.305 308.507 112.804 313.886C118.626 319.621 126.383 322.97 134.55 323.275C142.717 323.581 150.703 320.82 156.937 315.537L157.705 316.535C151.218 322.047 142.897 324.924 134.39 324.597C125.883 324.27 117.808 320.763 111.763 314.769C106.136 309.132 102.742 301.648 102.208 293.702Z" fill="#E2F2D9"/>
<path d="M101.189 308.782L101.418 307.785C102.029 305.287 102.818 302.602 103.529 300.068L104.756 300.413C104.146 302.911 103.436 305.559 102.668 308.086L102.438 309.163L101.189 308.782Z" fill="#E2F2D9"/>
<path d="M104.677 315.016C104.929 313.903 105.158 312.863 105.467 311.714C105.855 310.063 106.257 308.262 106.788 306.646" fill="#E2F2D9"/>
<path d="M107.887 319.322C108.346 317.169 108.885 315.016 109.516 312.862C109.674 312.403 109.825 311.714 109.904 311.369" fill="#E2F2D9"/>
<path d="M113.163 315.012C112.552 317.546 111.763 320.23 111.224 322.606L113.163 315.012Z" fill="#E2F2D9"/>
<path d="M116.982 318.223C116.264 320.756 115.654 323.362 114.965 325.594L116.982 318.223Z" fill="#E2F2D9"/>
<path d="M120.801 320.295C120.169 322.75 119.401 325.126 118.863 327.473L120.801 320.295Z" fill="#E2F2D9"/>
<path d="M124.541 321.871C123.988 324.405 123.45 326.781 122.739 329.049L124.541 321.871Z" fill="#E2F2D9"/>
<path d="M128.747 323.361C128.116 325.594 127.577 327.97 127.096 330.116L128.747 323.361Z" fill="#E2F2D9"/>
<path d="M133.098 323.828C132.381 325.985 131.812 328.189 131.396 330.425L133.098 323.828Z" fill="#E2F2D9"/>
<path d="M137.304 323.67C136.673 325.895 136.213 327.977 135.675 330.13L137.304 323.67Z" fill="#E2F2D9"/>
<path d="M141.97 323.361C141.273 325.339 140.726 327.367 140.334 329.427L141.97 323.361Z" fill="#E2F2D9"/>
<path d="M145 327.969C145.402 326.203 145.94 324.38 146.478 322.478C146.478 322.478 146.629 322.478 146.478 322.248" fill="#E2F2D9"/>
<path d="M150.132 325.287C150.299 324.731 150.428 324.165 150.52 323.593C150.9 322.33 151.073 321.138 151.46 320.004" fill="#E2F2D9"/>
<path d="M156.916 316.537C156.426 317.809 156.035 319.117 155.746 320.449L156.916 316.537Z" fill="#E2F2D9"/>
<path d="M204.524 316.537L205.486 315.539C211.22 320.63 218.636 323.417 226.304 323.363C234.465 323.316 242.314 320.219 248.308 314.68C254.302 309.142 258.009 301.563 258.701 293.432L260.007 293.582C258.701 310.895 243.805 324.706 226.268 324.634C218.27 324.708 210.526 321.824 204.524 316.537Z" fill="#E2F2D9"/>
<path d="M209.98 320.14L211.093 319.486C212.528 321.755 213.892 324.173 215.199 326.585L215.579 327.238L214.502 327.892L214.022 327.217C212.816 324.863 211.394 322.48 209.98 320.14Z" fill="#E2F2D9"/>
<path d="M216.426 322.751L217.611 322.191C218.329 323.684 219.334 325.22 220.102 326.599C220.482 327.252 220.82 327.675 221.178 328.293C221.318 328.706 221.524 329.094 221.789 329.441L220.719 330.209C220.503 329.751 220.246 329.314 219.951 328.903C219.681 328.368 219.371 327.855 219.025 327.367C218.192 325.895 217.151 324.345 216.426 322.751Z" fill="#E2F2D9"/>
<path d="M221.796 323.9L223.066 323.361C223.227 323.545 223.355 323.753 223.447 323.979C223.635 324.162 223.78 324.385 223.87 324.632L225.019 326.584C225.787 327.819 226.455 329.039 227.252 330.274L226.096 330.927C225.328 329.735 224.718 328.587 223.942 327.338L222.672 325.307C222.591 325.086 222.461 324.888 222.291 324.725C222.105 324.402 221.954 324.129 221.796 323.9Z" fill="#E2F2D9"/>
<path d="M226.864 324.128L227.976 323.41C228.436 324.214 228.902 325.025 229.477 325.865C230.245 327.301 231.085 328.858 232.004 330.243L230.934 330.897C229.963 329.517 229.078 328.079 228.285 326.59C227.826 325.779 227.323 324.939 226.864 324.128Z" fill="#E2F2D9"/>
<path d="M232.47 323.361C233.734 325.744 235.076 327.97 236.153 330.044L232.47 323.361Z" fill="#E2F2D9"/>
<path d="M236.533 322.326C237.768 324.401 238.953 326.583 240.374 328.736L236.533 322.326Z" fill="#E2F2D9"/>
<path d="M239.8 321.139L240.834 320.371C242.219 322.481 243.597 324.556 244.71 326.666L243.518 327.384C242.37 325.288 241.063 323.214 239.8 321.139Z" fill="#E2F2D9"/>
<path d="M244.286 318.684C245.478 320.758 246.82 322.904 247.876 324.706L244.286 318.684Z" fill="#E2F2D9"/>
<path d="M247.761 316.033C248.738 318.067 249.878 320.019 251.171 321.869L247.761 316.033Z" fill="#E2F2D9"/>
<path d="M250.632 313.004C251.745 314.92 252.893 316.686 254.049 318.682L250.632 313.004Z" fill="#E2F2D9"/>
<path d="M253.654 309.396C254.573 311.277 255.765 313.158 256.841 314.923L253.654 309.396Z" fill="#E2F2D9"/>
<path d="M259.103 310.47C258.184 309.034 257.265 307.283 256.231 305.56C256.231 305.56 256.31 305.402 256.152 305.402" fill="#E2F2D9"/>
<path d="M260.79 304.964C260.533 304.437 260.226 303.937 259.871 303.471C259.332 302.358 258.564 301.397 257.954 300.205" fill="#E2F2D9"/>
<path d="M259.333 294.002C259.936 295.24 260.617 296.439 261.371 297.591L259.333 294.002Z" fill="#E2F2D9"/>
<path d="M293.028 258.89C300.696 258.469 307.927 255.188 313.293 249.696C319.07 243.908 322.458 236.16 322.785 227.99C323.112 219.82 320.354 211.826 315.059 205.595L316.057 204.877C321.544 211.35 324.399 219.647 324.059 228.125C323.719 236.603 320.207 244.645 314.219 250.657C308.661 256.382 301.153 259.807 293.186 260.254L293.028 258.89Z" fill="#E2F2D9"/>
<path d="M299.482 259.026L299.862 257.799C302.317 258.294 304.93 259.026 307.615 259.751L308.541 260.024L308.233 261.323L307.192 261.058C304.701 260.347 302.016 259.658 299.482 259.026Z" fill="#E2F2D9"/>
<path d="M305.85 256.354L306.352 255.012C307.974 255.554 309.625 256.002 311.298 256.354C311.869 256.555 312.462 256.685 313.064 256.742C313.603 256.892 314.141 257.086 314.601 257.237L314.292 258.507C313.832 258.428 313.294 258.278 312.641 258.12C312.181 257.969 311.571 257.818 311.069 257.66C309.303 257.237 307.537 256.821 305.85 256.354Z" fill="#E2F2D9"/>
<path d="M310.609 253.211L311.068 252.02C311.147 252.02 311.456 252.099 311.786 252.177C312.03 252.238 312.27 252.314 312.504 252.407L314.923 252.981C316.229 253.362 317.572 253.699 318.914 253.979L318.606 255.285C317.342 254.941 315.921 254.632 314.693 254.288L312.195 253.67C311.936 253.579 311.665 253.528 311.391 253.52C311.137 253.4 310.876 253.296 310.609 253.211Z" fill="#E2F2D9"/>
<path d="M314.292 249.946L314.6 248.646C315.526 248.876 316.366 249.07 317.407 249.364C318.979 249.788 320.666 250.362 322.202 250.671L321.973 251.898C320.436 251.589 318.749 251.13 316.948 250.671C316.057 250.448 315.139 250.139 314.292 249.946Z" fill="#E2F2D9"/>
<path d="M317.708 245.459C320.286 246.177 322.777 246.844 325.038 247.612L317.708 245.459Z" fill="#E2F2D9"/>
<path d="M319.819 241.797C322.202 242.256 324.657 243.103 327.04 243.677L319.819 241.797Z" fill="#E2F2D9"/>
<path d="M321.276 238.627L321.506 237.32C323.925 237.938 326.423 238.397 328.685 239.165L328.383 240.392C326.115 239.703 323.624 239.165 321.276 238.627Z" fill="#E2F2D9"/>
<path d="M322.776 233.717C325.038 234.435 327.421 234.908 329.61 235.44L322.776 233.717Z" fill="#E2F2D9"/>
<path d="M323.315 229.416C325.468 230.194 327.692 230.759 329.955 231.103L323.315 229.416Z" fill="#E2F2D9"/>
<path d="M323.135 225.199C325.246 225.809 327.399 226.312 329.596 226.85L323.135 225.199Z" fill="#E2F2D9"/>
<path d="M322.776 220.59C324.808 221.207 326.882 221.781 328.914 222.205L322.776 220.59Z" fill="#E2F2D9"/>
<path d="M327.443 217.521C325.677 217.054 323.796 216.523 321.994 215.985C321.949 215.953 321.895 215.936 321.84 215.936C321.784 215.936 321.73 215.953 321.685 215.985" fill="#E2F2D9"/>
<path d="M324.808 212.37C324.091 212.219 323.696 212.061 323.086 211.911C321.859 211.587 320.615 211.33 319.36 211.143" fill="#E2F2D9"/>
<path d="M315.957 205.625C317.239 206.151 318.579 206.524 319.948 206.738L315.957 205.625Z" fill="#E2F2D9"/>
<path d="M326.344 120.28C326.344 117.746 330.264 114.136 335.942 111.602C341.469 109.262 348.066 108.307 349.294 111.221C350.45 113.834 346.344 118.012 339.962 120.854C334.363 123.309 327.758 124.228 326.495 121.278C326.36 120.964 326.308 120.62 326.344 120.28ZM348.26 112.176C348.28 112.044 348.252 111.909 348.181 111.796C347.413 110.145 342.503 110.26 336.437 112.908C330.371 115.557 326.997 119.203 327.766 120.696C328.419 122.275 333.365 122.196 339.352 119.584C344.922 117.129 348.26 113.985 348.26 112.176Z" fill="#E2F2D9"/>
<path d="M239.261 31.3583C239.374 28.3405 240.01 25.3654 241.142 22.5654C242.987 17.7347 245.786 13.9519 248.205 12.8968C248.874 12.6057 249.629 12.58 250.316 12.825C251.235 13.2054 252.348 14.2606 252.348 17.4619C252.223 20.4643 251.587 23.4235 250.467 26.2117C248.313 31.8177 244.286 37.1508 241.221 36.0024C239.95 35.464 239.261 33.8921 239.261 31.3583ZM251.005 17.4619C251.005 15.5813 250.625 14.318 249.813 14.0453C249.624 13.985 249.424 13.9647 249.226 13.9857C249.029 14.0067 248.837 14.0685 248.665 14.1673C246.741 15.0501 244.056 18.6534 242.369 23.0319C241.273 25.6785 240.649 28.4965 240.524 31.3583C240.524 33.1599 240.991 34.4663 241.831 34.7319C243.367 35.3851 246.856 31.8177 249.203 25.7524C250.311 23.1241 250.922 20.313 251.005 17.4619Z" fill="#E2F2D9"/>
<path d="M108.805 17.4261C108.805 14.5549 109.904 13.5141 110.686 13.2055C113.644 11.8632 117.865 17.0815 120.341 22.5367C121.634 25.4306 122.364 28.5435 122.495 31.71C122.495 34.5812 121.555 35.5861 120.707 35.9737C120.004 36.2082 119.239 36.1802 118.554 35.8948C116.149 34.976 113.177 31.3296 111.16 26.6066C109.674 23.2976 108.805 19.9168 108.805 17.4261ZM121.188 31.7388C121.037 28.7615 120.326 25.8394 119.092 23.1253C116.443 17.2969 112.782 13.6864 111.196 14.3755C110.579 14.6841 110.105 15.8111 110.105 17.4476C110.105 19.8307 110.966 23.0104 112.258 26.1185C114.197 30.3391 116.924 33.9495 118.956 34.7319C119.317 34.9051 119.73 34.9334 120.112 34.8109C120.88 34.5022 121.188 33.3897 121.188 31.7388Z" fill="#E2F2D9"/>
<path d="M12.0673 113.065C12.0285 112.749 12.1134 112.43 12.3042 112.175C13.3953 109.182 20.014 109.878 25.6922 112.068C31.3704 114.257 35.5771 117.745 35.5771 120.351C35.6068 120.667 35.5549 120.986 35.4263 121.277C35.278 121.61 35.0633 121.908 34.7955 122.155C34.5276 122.402 34.2122 122.592 33.8686 122.712C31.4494 123.789 26.7905 123.287 22.0311 121.327C16.116 119.124 12.0673 115.671 12.0673 113.065ZM34.3208 120.351C34.3208 118.585 30.9038 115.52 25.1323 113.295C19.2171 110.912 14.0988 111.063 13.3882 112.642V113.065C13.3882 114.752 16.8051 117.939 22.5049 120.121C26.8551 121.808 31.3704 122.425 33.2727 121.507C33.4686 121.46 33.6497 121.365 33.8 121.231C33.9503 121.097 34.0651 120.928 34.1342 120.739C34.193 120.692 34.2408 120.633 34.2743 120.566C34.3078 120.499 34.3262 120.426 34.328 120.351H34.3208Z" fill="#E2F2D9"/>
<path d="M12.4546 250.833C12.4546 248.22 16.3525 244.688 22.0308 242.155C26.7902 240.195 31.449 239.47 33.8682 240.389C34.5413 240.667 35.0933 241.176 35.426 241.824C35.5912 242.104 35.671 242.426 35.6557 242.75C35.6557 245.356 31.6788 248.887 26.0795 251.27C21.3345 253.424 16.654 254.106 14.1846 253.187C13.8368 253.084 13.5154 252.907 13.2427 252.668C12.9701 252.429 12.7526 252.133 12.6054 251.802C12.4904 251.492 12.4391 251.162 12.4546 250.833ZM34.3276 242.772C34.3467 242.638 34.3215 242.502 34.2558 242.384C34.0979 242.004 33.7964 241.846 33.3155 241.616C31.528 240.898 27.6301 241.2 22.5835 243.425C17.0561 245.801 13.7754 249.067 13.7754 250.833C13.7637 250.99 13.7908 251.148 13.8544 251.292C14.0409 251.631 14.3485 251.888 14.7158 252.01C16.733 252.814 21.2627 252.01 25.5411 250.129C31.0686 247.76 34.3276 244.459 34.3276 242.772Z" fill="#E2F2D9"/>
<path d="M109.674 345.62C109.752 342.622 110.355 339.66 111.454 336.87C113.335 332.039 116.135 328.257 118.539 327.237C118.856 327.032 119.22 326.911 119.597 326.884C119.973 326.858 120.35 326.928 120.693 327.087C121.942 327.51 122.631 329.118 122.631 331.731C122.545 334.702 121.943 337.636 120.851 340.402C118.913 345.318 116.106 349.194 113.672 350.113C113.35 350.287 112.995 350.39 112.63 350.416C112.265 350.442 111.898 350.39 111.555 350.264C110.284 349.769 109.674 348.154 109.674 345.62ZM121.418 331.731C121.418 329.886 120.951 328.587 120.262 328.35C119.877 328.224 119.457 328.253 119.092 328.429C117.29 329.147 114.735 332.269 112.782 337.329C111.683 339.96 111.077 342.77 110.995 345.62C110.995 347.465 111.375 348.692 112.165 349.001C112.473 349.194 112.782 349.194 113.256 348.843C115.273 348.075 117.843 344.435 119.552 339.942C120.662 337.339 121.294 334.558 121.418 331.731Z" fill="#E2F2D9"/>
<path d="M239.34 331.344C239.34 328.473 240.453 327.353 241.293 327.088C241.617 326.935 241.971 326.855 242.33 326.855C242.689 326.855 243.043 326.935 243.367 327.088C245.865 328.049 248.744 331.653 250.776 336.419C252.198 339.289 252.996 342.427 253.116 345.628C253.116 348.499 252.118 349.468 251.314 349.935C248.356 351.162 244.056 346.095 241.68 340.496C240.259 337.18 239.34 333.878 239.34 331.344ZM251.737 345.621C251.61 342.615 250.878 339.666 249.584 336.95C247.746 332.729 245.018 329.119 242.908 328.337C242.52 328.186 242.061 328.071 241.831 328.265C241.113 328.573 240.761 329.7 240.761 331.33C240.901 334.285 241.634 337.183 242.915 339.85C245.564 345.915 249.211 349.296 250.811 348.6C251.465 348.463 251.737 347.236 251.737 345.621Z" fill="#E2F2D9"/>
<path d="M326.344 242.697C326.339 242.399 326.418 242.105 326.574 241.85C326.689 241.506 326.877 241.191 327.125 240.926C327.372 240.661 327.674 240.452 328.009 240.314C330.472 239.323 335.037 239.783 339.876 241.699C345.784 244.039 349.89 247.442 349.89 249.947C349.886 250.25 349.833 250.551 349.732 250.837C348.504 253.83 341.907 253.134 336.229 250.987C330.493 248.719 326.344 245.31 326.344 242.697ZM348.526 249.947C348.526 248.224 345.116 245.073 339.316 242.927C335.059 241.204 330.644 240.623 328.612 241.491C328.245 241.622 327.933 241.876 327.73 242.209C327.73 242.36 327.651 242.518 327.651 242.668C327.651 244.434 331.103 247.578 336.71 249.767C342.847 252.071 347.916 251.956 348.526 250.42V249.947Z" fill="#E2F2D9"/>
<path d="M322.934 209.924L323.544 208.775C351.792 224.739 349.832 250.45 349.753 250.68L348.526 250.529V249.373C348.526 244.306 346.997 223.662 322.934 209.924Z" fill="#E2F2D9"/>
<path d="M301.664 263.153L302.016 261.811C332.64 269.563 348.526 250.448 348.605 250.326L349.603 251.044C349.452 251.13 333.099 271.02 301.664 263.153Z" fill="#E2F2D9"/>
<path d="M301.133 100.015C332.331 91.3441 349.064 110.832 349.229 111.062L348.26 111.88C348.102 111.693 331.908 92.8442 301.47 101.25L301.133 100.015Z" fill="#E2F2D9"/>
<path d="M323.387 152.742C350.45 136.541 348.067 111.792 348.067 111.598L349.294 111.447C349.452 111.598 351.943 137.288 324.083 153.854L323.387 152.742Z" fill="#E2F2D9"/>
<path d="M208.279 38.9181C224.323 10.7521 249.914 12.7475 250.036 12.7475L249.964 14.0467C249.728 14.0467 225.012 12.1302 209.355 39.6071L208.279 38.9181Z" fill="#E2F2D9"/>
<path d="M249.663 13.8942L250.467 12.8965C250.697 13.0544 270.567 29.2477 262.52 60.7944L261.292 60.4858C269.009 29.786 249.914 14.0449 249.663 13.8942Z" fill="#E2F2D9"/>
<path d="M97.291 45.8434C97.291 24.5395 110.284 13.4138 110.535 13.2559L111.375 14.2966C111.225 14.4115 92.3234 30.6048 100.607 61.0031L99.3799 61.3835C97.9794 56.3227 97.2766 51.0944 97.291 45.8434Z" fill="#E2F2D9"/>
<path d="M110.916 13.1289C111.224 13.0572 136.593 10.5951 153.327 38.4596L152.157 39.1774C135.983 12.0451 111.303 14.464 111.074 14.464L110.916 13.1289Z" fill="#E2F2D9"/>
<path d="M12.146 113.595V112.41L13.5817 112.446C13.5817 112.755 11.6435 137.504 39.1086 153.051L38.3908 154.236C13.7755 140.267 12.146 118.971 12.146 113.595Z" fill="#E2F2D9"/>
<path d="M12.304 112.024C12.4547 111.83 28.7285 92.0335 60.2567 99.9364L59.8547 101.243C29.3387 93.5265 13.5458 112.641 13.3161 112.835L12.304 112.024Z" fill="#E2F2D9"/>
<path d="M12.7061 251.986L13.7757 251.139C13.8546 251.297 30.0494 270.103 60.5655 261.733L60.867 263.075C29.669 271.632 12.8568 252.179 12.7061 251.986Z" fill="#E2F2D9"/>
<path d="M12.5337 249.795C12.5337 243.579 14.3355 223.28 37.8453 209.154L38.5631 210.382C15.764 224.02 13.8833 243.809 13.8833 249.724V251.446L12.6342 251.597C12.6342 251.597 12.5337 250.836 12.5337 249.795Z" fill="#E2F2D9"/>
<path d="M111.763 350.342L111.935 349C112.165 349 136.902 350.845 152.558 323.439L153.714 324.157C137.684 352.338 112.086 350.342 111.763 350.342Z" fill="#E2F2D9"/>
<path d="M97.4487 316.685C97.508 311.826 98.1638 306.992 99.4013 302.293L100.629 302.602C92.8617 333.301 112.165 348.999 112.316 349.193L111.454 350.184C111.368 350.033 97.4487 338.699 97.4487 316.685Z" fill="#E2F2D9"/>
<path d="M250.632 348.692C250.783 348.541 269.627 332.42 261.185 302.036L262.448 301.648C271.163 333.001 251.587 349.618 251.472 349.74L250.632 348.692Z" fill="#E2F2D9"/>
<path d="M208.673 324.634L209.822 323.98C226.017 351.077 250.697 348.543 250.926 348.543L251.084 349.921C250.776 349.921 225.249 352.419 208.673 324.634Z" fill="#E2F2D9"/>
<path d="M271.773 180.682H240.991V182.333H271.773V180.682Z" fill="#E2F2D9"/>
<path d="M236.311 158.273L263.783 146.336L264.401 147.915L237 159.809L236.311 158.273Z" fill="#E2F2D9"/>
<path d="M328.691 167.902L348.224 157.078L349.071 158.578L329.531 169.403L328.691 167.902Z" fill="#E2F2D9"/>
<path d="M328.383 195.263L329.151 193.691L349.071 204.745L348.224 206.159L328.383 195.263Z" fill="#E2F2D9"/>
<path d="M341.24 182.56L341.318 180.105L362 180.299V182.797L341.24 182.56Z" fill="#E2F2D9"/>
<path d="M348.684 161.035C347.852 161.012 347.06 160.673 346.468 160.088C345.876 159.503 345.529 158.715 345.497 157.884C345.493 157.031 345.825 156.21 346.421 155.6C347.018 154.991 347.831 154.64 348.684 154.625C349.508 154.664 350.285 155.019 350.854 155.615C351.423 156.212 351.741 157.005 351.741 157.83C351.741 158.655 351.423 159.448 350.854 160.044C350.285 160.641 349.508 160.996 348.684 161.035Z" fill="#E2F2D9"/>
<path d="M348.684 208.617C347.836 208.604 347.028 208.259 346.432 207.656C345.836 207.054 345.5 206.241 345.497 205.394C345.522 204.557 345.866 203.761 346.458 203.168C347.05 202.576 347.847 202.232 348.684 202.207C349.526 202.218 350.33 202.558 350.925 203.153C351.521 203.748 351.86 204.552 351.871 205.394C351.877 205.816 351.799 206.234 351.641 206.626C351.483 207.017 351.249 207.373 350.953 207.673C350.656 207.973 350.303 208.211 349.913 208.373C349.524 208.535 349.106 208.618 348.684 208.617Z" fill="#E2F2D9"/>
<path d="M275.843 67.4339L281.981 45.9434L283.632 46.4386L277.451 67.8933L275.843 67.4339Z" fill="#E2F2D9"/>
<path d="M294.263 85.2793L316.215 79.0273L316.675 80.6711L294.909 86.9661L294.263 85.2793Z" fill="#E2F2D9"/>
<path d="M293.344 67.1614L308.082 52.6621L309.841 54.3848L295.067 68.9272L293.344 67.1614Z" fill="#E2F2D9"/>
<path d="M284.931 48.4365C284.642 48.728 284.298 48.9593 283.92 49.1172C283.541 49.2751 283.134 49.3564 282.724 49.3564C282.313 49.3564 281.907 49.2751 281.528 49.1172C281.149 48.9593 280.805 48.728 280.516 48.4365C279.946 47.8362 279.628 47.0396 279.628 46.2114C279.628 45.3832 279.946 44.5866 280.516 43.9863C281.114 43.4396 281.9 43.1453 282.71 43.165C283.52 43.1847 284.29 43.5167 284.861 44.0918C285.431 44.6668 285.757 45.4402 285.77 46.25C285.783 47.0598 285.483 47.8433 284.931 48.4365Z" fill="#E2F2D9"/>
<path d="M318.749 82.1261C318.301 82.5736 317.731 82.8782 317.11 83.0015C316.489 83.1248 315.845 83.0613 315.26 82.8189C314.676 82.5765 314.176 82.1662 313.824 81.6398C313.472 81.1134 313.285 80.4945 313.285 79.8615C313.285 79.2284 313.472 78.6096 313.824 78.0832C314.176 77.5568 314.676 77.1465 315.26 76.9041C315.845 76.6617 316.489 76.5982 317.11 76.7215C317.731 76.8448 318.301 77.1494 318.749 77.5969C319.34 78.2028 319.67 79.0154 319.67 79.8615C319.67 80.7076 319.34 81.5202 318.749 82.1261Z" fill="#E2F2D9"/>
<path d="M156.536 14.2825L158.015 13.4355L168.818 33.0096L167.419 33.8566L156.536 14.2825Z" fill="#E2F2D9"/>
<path d="M193.089 33.3183L204.072 13.4355L205.565 14.2825L194.589 34.1581L193.089 33.3183Z" fill="#E2F2D9"/>
<path d="M179.586 21.1873L179.737 0.507812L182.192 0.543715L182.041 21.2662L179.586 21.1873Z" fill="#E2F2D9"/>
<path d="M160.412 13.8174C160.422 14.6519 160.1 15.4561 159.517 16.0536C158.934 16.6511 158.138 16.993 157.304 17.0044C156.883 17.0142 156.464 16.9385 156.073 16.7818C155.681 16.6251 155.326 16.3907 155.028 16.0928C154.73 15.7949 154.496 15.4396 154.339 15.0485C154.182 14.6574 154.107 14.2386 154.117 13.8174C154.098 13.3952 154.168 12.9738 154.322 12.5804C154.477 12.187 154.712 11.8306 155.014 11.5341C155.315 11.2377 155.675 11.0078 156.071 10.8596C156.467 10.7113 156.889 10.6479 157.311 10.6735C158.137 10.6848 158.926 11.021 159.506 11.6094C160.087 12.1978 160.412 12.991 160.412 13.8174Z" fill="#E2F2D9"/>
<path d="M208.056 13.8163C208.057 14.2382 207.974 14.656 207.812 15.0454C207.65 15.4349 207.412 15.7882 207.112 16.0848C206.812 16.3814 206.456 16.6154 206.065 16.7731C205.674 16.9308 205.255 17.009 204.833 17.0033C204.416 17.0033 204.004 16.9206 203.62 16.7599C203.235 16.5993 202.887 16.3638 202.594 16.0673C202.302 15.7708 202.071 15.4191 201.916 15.0327C201.76 14.6463 201.683 14.2328 201.689 13.8163C201.681 13.4013 201.757 12.989 201.912 12.604C202.067 12.2191 202.299 11.8694 202.592 11.5759C202.886 11.2824 203.236 11.0511 203.621 10.8959C204.006 10.7406 204.418 10.6646 204.833 10.6724C205.251 10.6658 205.667 10.742 206.056 10.8966C206.445 11.0513 206.799 11.2814 207.099 11.5736C207.399 11.8658 207.637 12.2144 207.802 12.5993C207.966 12.9843 208.052 13.3979 208.056 13.8163Z" fill="#E2F2D9"/>
<path d="M45.3831 80.52L45.8497 78.8691L67.414 85.0134L66.8613 86.7002L45.3831 80.52Z" fill="#E2F2D9"/>
<path d="M78.4688 46.2863L80.0983 45.791L86.3939 67.662L84.7644 68.1573L78.4688 46.2863Z" fill="#E2F2D9"/>
<path d="M52.1594 54.3489L53.8679 52.6621L68.3327 67.4701L66.6314 69.1568L52.1594 54.3489Z" fill="#E2F2D9"/>
<path d="M47.8809 77.423C48.1784 77.7204 48.4143 78.0735 48.5752 78.4621C48.7362 78.8506 48.8191 79.2671 48.8191 79.6877C48.8191 80.1082 48.7362 80.5247 48.5752 80.9133C48.4143 81.3018 48.1784 81.6549 47.8809 81.9523C47.5835 82.2497 47.2304 82.4856 46.8418 82.6465C46.4532 82.8075 46.0367 82.8903 45.6161 82.8903C45.1955 82.8903 44.779 82.8075 44.3904 82.6465C44.0018 82.4856 43.6487 82.2497 43.3513 81.9523C42.777 81.338 42.4575 80.5285 42.4575 79.6877C42.4575 78.8468 42.777 78.0373 43.3513 77.423C43.9703 76.8581 44.778 76.5449 45.6161 76.5449C46.4542 76.5449 47.2619 76.8581 47.8809 77.423Z" fill="#E2F2D9"/>
<path d="M81.5773 43.8274C81.8738 44.1216 82.1091 44.4716 82.2697 44.8572C82.4303 45.2428 82.5129 45.6564 82.5129 46.074C82.5129 46.4917 82.4303 46.9053 82.2697 47.2909C82.1091 47.6765 81.8738 48.0265 81.5773 48.3207C80.9679 48.9269 80.1433 49.2672 79.2837 49.2672C78.4242 49.2672 77.5996 48.9269 76.9902 48.3207C76.6898 48.0263 76.4526 47.6737 76.2931 47.2845C76.1336 46.8952 76.0551 46.4776 76.0625 46.057C76.0699 45.6365 76.163 45.2219 76.3361 44.8385C76.5092 44.4551 76.7586 44.1111 77.0692 43.8274C77.6715 43.2381 78.4806 42.9082 79.3232 42.9082C80.1659 42.9082 80.975 43.2381 81.5773 43.8274Z" fill="#E2F2D9"/>
<path d="M12.8569 204.516L32.3898 193.691L33.1579 195.113L13.704 205.93L12.8569 204.516Z" fill="#E2F2D9"/>
<path d="M12.8569 158.421L13.704 156.928L33.5455 167.903L32.8564 169.403L12.8569 158.421Z" fill="#E2F2D9"/>
<path d="M0 182.799V180.301L20.7101 180.452L20.6312 182.985L0 182.799Z" fill="#E2F2D9"/>
<path d="M13.237 202.056C13.6521 202.044 14.0652 202.116 14.4519 202.267C14.8386 202.419 15.1911 202.646 15.4883 202.936C15.7856 203.225 16.0216 203.572 16.1824 203.955C16.3432 204.338 16.4254 204.749 16.4243 205.164C16.4328 205.787 16.2561 206.399 15.9166 206.922C15.5771 207.445 15.0901 207.856 14.5171 208.102C13.9442 208.348 13.3111 208.419 12.698 208.305C12.0849 208.191 11.5194 207.898 11.073 207.463C10.6265 207.027 10.3193 206.469 10.1902 205.859C10.061 205.249 10.1157 204.615 10.3474 204.036C10.5791 203.457 10.9774 202.96 11.4917 202.607C12.0061 202.255 12.6135 202.063 13.237 202.056Z" fill="#E2F2D9"/>
<path d="M13.2373 154.43C14.0826 154.43 14.8933 154.765 15.4911 155.363C16.0888 155.961 16.4246 156.771 16.4246 157.617C16.4246 158.462 16.0888 159.273 15.4911 159.87C14.8933 160.468 14.0826 160.804 13.2373 160.804C12.392 160.804 11.5813 160.468 10.9836 159.87C10.3859 159.273 10.05 158.462 10.05 157.617C10.05 156.771 10.3859 155.961 10.9836 155.363C11.5813 154.765 12.392 154.43 13.2373 154.43Z" fill="#E2F2D9"/>
<path d="M78.3899 316.684L84.5348 295.193L86.1643 295.66L80.0266 317.15L78.3899 316.684Z" fill="#E2F2D9"/>
<path d="M45.311 282.453L67.0908 276.086L67.5645 277.694L45.7705 284.068L45.311 282.453Z" fill="#E2F2D9"/>
<path d="M52.1594 308.701L66.8611 294.08L68.6629 295.889L53.8679 310.316L52.1594 308.701Z" fill="#E2F2D9"/>
<path d="M76.911 314.609C77.5269 314.038 78.3358 313.721 79.1758 313.721C80.0158 313.721 80.8247 314.038 81.4406 314.609C81.7586 314.895 82.0154 315.243 82.1955 315.631C82.3756 316.019 82.4754 316.44 82.4888 316.867C82.5022 317.295 82.429 317.721 82.2735 318.119C82.1181 318.518 81.8836 318.881 81.5842 319.187C81.2849 319.492 80.9268 319.734 80.5314 319.898C80.1361 320.062 79.7118 320.144 79.284 320.139C78.8561 320.135 78.4336 320.044 78.0419 319.872C77.6501 319.7 77.2972 319.45 77.0043 319.138C76.6945 318.851 76.4456 318.504 76.2726 318.118C76.0996 317.733 76.006 317.316 75.9973 316.894C75.9885 316.471 76.065 316.051 76.2219 315.658C76.3789 315.266 76.6132 314.909 76.911 314.609Z" fill="#E2F2D9"/>
<path d="M43.1719 281C43.4705 280.691 43.8285 280.444 44.2244 280.276C44.6203 280.108 45.046 280.021 45.4762 280.021C45.9063 280.021 46.3321 280.108 46.728 280.276C47.1239 280.444 47.4819 280.691 47.7805 281C48.3584 281.604 48.6809 282.408 48.6809 283.243C48.6809 284.079 48.3584 284.883 47.7805 285.486C47.1843 286.092 46.3727 286.437 45.523 286.445C44.6734 286.454 43.8547 286.127 43.2458 285.534C42.637 284.941 42.2875 284.132 42.2736 283.282C42.2598 282.433 42.5827 281.612 43.1719 281Z" fill="#E2F2D9"/>
<path d="M193.089 330.043L194.589 329.275L205.414 348.849L203.914 349.617L193.089 330.043Z" fill="#E2F2D9"/>
<path d="M156.364 348.849L167.34 328.895L168.818 329.734L157.842 349.617L156.364 348.849Z" fill="#E2F2D9"/>
<path d="M179.736 362.508L179.966 341.75L182.342 341.901L182.191 362.508H179.736Z" fill="#E2F2D9"/>
<path d="M201.459 349.196C201.458 348.784 201.539 348.376 201.697 347.996C201.855 347.616 202.087 347.271 202.379 346.981C202.672 346.691 203.019 346.462 203.401 346.308C203.783 346.153 204.191 346.076 204.603 346.081C205.02 346.071 205.435 346.145 205.823 346.296C206.211 346.448 206.566 346.676 206.865 346.965C207.165 347.255 207.404 347.602 207.569 347.984C207.734 348.367 207.822 348.779 207.826 349.196C207.83 349.62 207.749 350.041 207.589 350.434C207.428 350.827 207.191 351.184 206.891 351.484C206.591 351.784 206.234 352.021 205.841 352.181C205.448 352.342 205.028 352.423 204.603 352.419C203.764 352.391 202.969 352.04 202.383 351.44C201.797 350.839 201.466 350.035 201.459 349.196Z" fill="#E2F2D9"/>
<path d="M153.886 349.194C153.925 348.376 154.277 347.604 154.87 347.039C155.463 346.474 156.251 346.158 157.07 346.158C157.889 346.158 158.677 346.474 159.269 347.039C159.862 347.604 160.215 348.376 160.254 349.194C160.274 349.625 160.207 350.055 160.056 350.459C159.905 350.863 159.674 351.233 159.376 351.545C159.079 351.857 158.721 352.105 158.324 352.275C157.928 352.445 157.501 352.532 157.07 352.532C156.639 352.532 156.212 352.445 155.815 352.275C155.419 352.105 155.061 351.857 154.763 351.545C154.466 351.233 154.234 350.863 154.084 350.459C153.933 350.055 153.866 349.625 153.886 349.194Z" fill="#E2F2D9"/>
<path d="M294.644 278.003L295.067 276.316L316.524 282.532L316.064 284.147L294.644 278.003Z" fill="#E2F2D9"/>
<path d="M275.534 295.424L277.071 294.893L283.438 316.685L281.902 317.223L275.534 295.424Z" fill="#E2F2D9"/>
<path d="M293.567 295.66L295.376 293.852L309.841 308.703L308.082 310.318L293.567 295.66Z" fill="#E2F2D9"/>
<path d="M314.141 285.584C313.824 285.302 313.57 284.956 313.396 284.569C313.222 284.182 313.133 283.762 313.133 283.337C313.133 282.913 313.222 282.493 313.396 282.106C313.57 281.719 313.824 281.373 314.141 281.091C314.73 280.507 315.522 280.174 316.352 280.161C317.181 280.147 317.984 280.455 318.591 281.019C319.183 281.632 319.513 282.45 319.513 283.302C319.513 284.153 319.183 284.971 318.591 285.584C318.304 285.885 317.959 286.124 317.576 286.287C317.194 286.451 316.782 286.535 316.366 286.535C315.95 286.535 315.539 286.451 315.156 286.287C314.774 286.124 314.428 285.885 314.141 285.584Z" fill="#E2F2D9"/>
<path d="M280.365 319.322C279.791 318.708 279.472 317.898 279.472 317.057C279.472 316.216 279.791 315.407 280.365 314.793C280.956 314.187 281.762 313.841 282.608 313.83C283.453 313.82 284.268 314.145 284.874 314.735C285.479 315.325 285.825 316.132 285.836 316.977C285.847 317.823 285.521 318.638 284.931 319.243C284.328 319.843 283.515 320.187 282.664 320.201C281.813 320.216 280.989 319.901 280.365 319.322Z" fill="#E2F2D9"/>
<path d="M270.309 170.667C282.9 158.113 297.408 170.509 297.587 170.588L296.668 171.779C296.015 171.277 282.929 160.223 271.493 171.736L270.309 170.667Z" fill="#E2F2D9"/>
<path d="M280.516 167.628C280.516 163.558 281.902 159.108 286.044 154.809L287.2 155.885C278.715 164.563 282.519 174.038 285.584 178.948L284.321 179.666C282.519 176.766 280.516 172.538 280.516 167.628Z" fill="#E2F2D9"/>
<path d="M271.306 193.109L272.383 191.961C283.933 203.546 297.027 192.42 297.558 191.961L298.556 193.188C298.405 193.224 283.933 205.62 271.306 193.109Z" fill="#E2F2D9"/>
<path d="M281.5 195.53C281.5 190.85 283.653 186.917 285.261 184.211L286.496 185.015C284.766 187.886 282.426 192.422 283.194 197.569C283.345 200.943 284.917 204.165 287.566 207.202L286.417 208.156C283.495 204.898 281.887 201.323 281.658 197.72C281.593 196.952 281.5 196.22 281.5 195.53Z" fill="#E2F2D9"/>
<path d="M253.037 125.838V124.266C269.31 124.266 270.696 107.226 270.775 106.537L272.211 106.609C272.232 106.853 270.732 125.838 253.037 125.838Z" fill="#E2F2D9"/>
<path d="M256.533 109.684L258.033 109.34C258.873 112.642 260.488 117.436 264.63 120.545C267.2 122.813 270.373 124.076 274.529 124.27L274.458 125.799C270.079 125.569 266.317 124.155 263.69 121.736C259.182 118.341 257.495 113.216 256.533 109.684Z" fill="#E2F2D9"/>
<path d="M191.48 64.975L192.629 63.9414C192.708 64.1711 205.062 78.6417 192.55 91.2173L191.48 90.1406C202.995 78.5268 191.94 65.5134 191.48 64.975Z" fill="#E2F2D9"/>
<path d="M183.613 77.2182L184.381 75.9907C187.332 77.7565 191.861 80.0534 197.008 79.2926C200.6 78.9666 203.971 77.4215 206.563 74.9141L207.597 76.0266C204.223 78.9408 200.806 80.5918 197.159 80.8215C191.553 81.5895 186.793 79.1346 183.613 77.2182Z" fill="#E2F2D9"/>
<path d="M105.927 91.7248L106.085 90.2246C106.257 90.2246 125.309 91.7248 125.309 109.454H123.759C123.759 93.2178 106.717 91.7248 105.927 91.7248Z" fill="#E2F2D9"/>
<path d="M108.726 104.501C112.086 103.661 116.831 102.089 120.018 97.9043C122.279 95.3705 123.528 92.0327 123.758 87.9629L125.237 88.1136C124.928 92.4921 123.6 96.1385 121.109 98.8805C117.771 103.453 112.703 105.025 109.136 105.943L108.726 104.501Z" fill="#E2F2D9"/>
<path d="M63.365 169.856C63.5947 169.785 78.0667 157.388 90.5932 169.935L89.5236 171.012C78.038 159.463 64.9945 170.553 64.3987 171.048L63.365 169.856Z" fill="#E2F2D9"/>
<path d="M74.3416 155.806L75.4901 154.809C78.4692 158.11 80.0987 161.721 80.2495 165.403C81.1181 171.009 78.5482 175.84 76.7392 178.948L75.4183 178.144C77.1412 175.23 79.546 170.7 78.6989 165.554C78.5482 162.18 77.0694 158.878 74.3416 155.806Z" fill="#E2F2D9"/>
<path d="M89.5957 256.517C89.5957 256.208 91.1534 237.137 108.884 237.137V238.637C92.6322 238.637 91.1534 255.713 91.1534 256.582L89.5957 256.517Z" fill="#E2F2D9"/>
<path d="M87.4131 238.668L87.5638 237.168C91.9212 237.513 95.5823 238.855 98.3891 241.353C102.818 244.769 104.527 249.794 105.316 253.361L103.917 253.749C103.127 250.447 101.576 245.688 97.3697 242.544C94.7998 240.24 91.4618 239.013 87.4131 238.668Z" fill="#E2F2D9"/>
<path d="M163.771 284.53C163.771 280.496 165.171 276.089 169.449 271.904L170.447 272.938C158.854 284.423 170.06 297.501 170.541 298.111L169.371 299.073C169.371 298.994 163.771 292.512 163.771 284.53Z" fill="#E2F2D9"/>
<path d="M154.346 287.067C157.605 284.074 161.123 282.459 164.762 282.229C171.079 281.382 176.528 284.684 178.315 285.761L177.547 287.067C174.568 285.258 170.139 283.033 164.934 283.765C161.582 283.916 158.395 285.416 155.358 288.137L154.346 287.067Z" fill="#E2F2D9"/>
<path d="M236.691 253.594H238.127C238.127 270.024 255.241 271.251 255.973 271.323L255.901 272.859C255.765 272.787 236.691 271.323 236.691 253.594Z" fill="#E2F2D9"/>
<path d="M236.691 274.932C237 270.554 238.299 266.871 240.833 264.165C244.135 259.636 249.282 257.949 252.886 257.066L253.116 258.567C249.893 259.327 245.097 260.899 241.989 265.084C239.619 267.847 238.286 271.35 238.22 274.99L236.691 274.932Z" fill="#E2F2D9"/>
<path d="M236.533 110.602C236.533 92.8726 255.499 91.3438 255.765 91.3438L255.844 92.8726C255.033 92.9157 237.998 94.3082 237.998 110.602V110.681H236.562L236.533 110.602Z" fill="#E2F2D9"/>
<path d="M236.383 88.2715H237.919C238.07 100.395 247.438 104.386 253.037 105.692L252.736 107.128C246.741 105.771 236.534 101.429 236.383 88.2715Z" fill="#E2F2D9"/>
<path d="M164.532 79.4799C164.532 71.4622 169.988 65.0523 170.06 64.9375L171.158 65.9352C170.77 66.4736 159.565 79.5229 171.158 91.108L170.06 92.1058C165.925 87.9282 164.532 83.4349 164.532 79.4799Z" fill="#E2F2D9"/>
<path d="M154.267 76.4153L155.358 75.3027C163.973 83.7439 173.499 79.9037 178.33 76.9106L179.134 78.2528C173.879 81.5188 163.693 85.6604 154.267 76.4153Z" fill="#E2F2D9"/>
<path d="M90.8303 106.853L92.3235 106.738C92.4024 107.391 93.8022 124.511 110.054 124.432V126.004C92.3235 125.989 90.9236 106.954 90.8303 106.853Z" fill="#E2F2D9"/>
<path d="M87.7935 124.579C99.8606 124.421 103.838 115.054 105.158 109.455L106.558 109.8C105.158 115.822 100.959 125.957 87.7935 126.108V124.579Z" fill="#E2F2D9"/>
<path d="M64.3843 192.424L65.3821 191.232C65.9349 191.807 79.0214 202.789 90.507 191.347L91.5982 192.345C79.007 204.899 64.4561 192.575 64.3843 192.424Z" fill="#E2F2D9"/>
<path d="M74.8005 207.203C83.2066 198.525 79.3876 189.05 76.4301 184.291L77.6791 183.365C80.9454 188.584 85.0659 198.79 75.8199 208.158L74.8005 207.203Z" fill="#E2F2D9"/>
<path d="M106.156 270.102C106.874 270.102 123.988 268.716 123.988 252.48V252.408H125.539V252.48C125.539 270.102 106.487 271.631 106.257 271.666L106.156 270.102Z" fill="#E2F2D9"/>
<path d="M108.884 257.401L109.207 255.9C115.273 257.243 125.388 261.506 125.539 274.742H123.988C123.909 262.576 114.563 258.664 108.884 257.401Z" fill="#E2F2D9"/>
<path d="M190.713 297.11C191.244 296.536 202.299 283.472 190.792 271.988L191.861 270.875C204.373 283.465 192.012 298.05 191.861 298.151L190.713 297.11Z" fill="#E2F2D9"/>
<path d="M182.802 284.866C187.109 282.175 197.927 277.15 207.596 286.625L206.563 287.737C197.948 279.181 188.487 283.057 183.685 286.166L182.802 284.866Z" fill="#E2F2D9"/>
<path d="M251.889 237.098C269.62 237.098 271.156 256.054 271.156 256.284L269.62 256.356C269.62 255.588 268.184 238.555 251.889 238.555V237.098Z" fill="#E2F2D9"/>
<path d="M255.341 253.213C256.777 247.148 260.948 237.098 274.149 237.02V238.455C262.06 238.534 258.105 248.045 256.841 253.572L255.341 253.213Z" fill="#E2F2D9"/>
<path d="M136.752 181.506C136.74 172.762 139.323 164.21 144.172 156.933C149.022 149.657 155.921 143.981 163.997 140.625C172.072 137.269 180.962 136.384 189.541 138.08C198.12 139.777 206.004 143.979 212.194 150.156C218.385 156.332 222.604 164.206 224.319 172.781C226.033 181.356 225.166 190.246 221.827 198.328C218.488 206.41 212.827 213.321 205.56 218.185C198.292 223.05 189.745 225.65 181 225.657C169.281 225.657 158.04 221.009 149.745 212.731C141.449 204.454 136.776 193.224 136.752 181.506ZM224.251 181.506C224.257 172.955 221.726 164.594 216.98 157.48C212.234 150.367 205.484 144.82 197.586 141.542C189.687 138.263 180.993 137.401 172.604 139.062C164.215 140.724 156.507 144.835 150.455 150.877C144.403 156.919 140.278 164.619 138.602 173.005C136.926 181.391 137.775 190.085 141.04 197.988C144.306 205.891 149.842 212.649 156.948 217.407C164.054 222.165 172.412 224.708 180.964 224.717C192.428 224.704 203.42 220.149 211.533 212.051C219.645 203.952 224.219 192.969 224.251 181.506Z" fill="#E2F2D9"/>
<path d="M132.624 181.504C132.629 171.945 135.469 162.602 140.784 154.657C146.098 146.711 153.65 140.519 162.483 136.864C171.316 133.208 181.035 132.254 190.411 134.12C199.786 135.986 208.398 140.59 215.158 147.349C221.918 154.108 226.522 162.719 228.389 172.094C230.255 181.469 229.3 191.187 225.644 200.019C221.988 208.852 215.796 216.402 207.85 221.716C199.903 227.03 190.56 229.87 181 229.875C168.174 229.862 155.877 224.762 146.808 215.693C137.738 206.624 132.637 194.329 132.624 181.504ZM228.285 181.504C228.285 172.13 225.504 162.967 220.294 155.174C215.084 147.382 207.679 141.31 199.016 137.727C190.353 134.144 180.822 133.211 171.629 135.047C162.436 136.882 153.994 141.404 147.372 148.038C140.75 154.673 136.245 163.123 134.427 172.319C132.61 181.515 133.561 191.043 137.162 199.698C140.762 208.353 146.849 215.745 154.653 220.939C162.456 226.133 171.626 228.896 181 228.878C193.549 228.853 205.576 223.851 214.441 214.969C223.306 206.088 228.285 194.052 228.285 181.504Z" fill="#E2F2D9"/>
</svg>
