<svg width="103" height="76" viewBox="0 0 103 76" fill="none" xmlns="http://www.w3.org/2000/svg">
<path d="M64.6257 39.1464C52.9557 26.655 39.1779 18.0055 21.831 15.8627C21.594 15.8341 21.357 15.7948 21.1236 15.7483C20.7753 15.6803 20.4306 15.6052 20.0069 15.5158C22.7143 14.9613 27.6013 15.3906 32.474 16.5925C36.668 17.6263 40.6861 19.1394 44.5497 21.0603C48.3451 22.9491 51.8856 25.2563 55.5051 27.6316C53.839 22.7094 52.8946 17.7801 54.0688 12.6576C54.2125 16.6569 54.7475 20.5774 56.0006 24.3978C57.0958 27.7317 58.6255 30.6292 61.534 32.9043C64.8591 35.5084 67.6562 38.735 70.7156 42.4159C70.6222 35.741 71.8502 29.8601 75.5272 24.6983C75.6529 24.5695 75.7103 24.2261 75.9401 24.3978C76.1268 24.5373 75.9617 24.7734 75.775 24.9094C73.7246 29.6455 72.4751 34.5605 72.3171 39.7438C72.2309 42.5232 72.4212 45.0773 74.3638 47.4025C76.4967 49.9566 78.073 52.9327 79.6817 55.8553C79.9294 56.3024 80.0336 56.8819 80.7661 57.1824C81.5058 50.8115 83.6064 45.0344 87.8363 40.1552C88.0518 39.8869 88.2672 39.6186 88.4826 39.3503C88.637 39.2001 88.7986 39.0677 89.032 39.2001C89.05 39.057 89.0643 38.9103 89.0823 38.7672C89.1361 38.778 89.19 38.7851 89.2403 38.7959C89.1613 38.9175 89.0823 39.0427 89.0033 39.1643C88.9135 39.311 88.8238 39.4612 88.7304 39.6079C88.558 39.8904 88.3857 40.173 88.2169 40.4556C84.7339 46.4366 82.7949 52.8719 82.4322 59.783C82.3999 60.3839 82.303 60.9849 82.5507 61.5465C84.3533 65.6316 85.9009 69.8133 87.2797 74.4779C90.6514 67.5883 96.0124 62.5624 100.077 56.5814C103.672 51.2944 103.643 45.7999 101.654 40.03C100.246 35.9484 98.2459 32.1638 96.0232 28.4829C95.025 26.8231 94.2135 25.0989 94.3571 23.11C94.4541 21.7615 93.9585 21.7364 92.9567 22.2945C89.2726 24.3478 86.8847 27.4062 85.6639 31.4162C85.3371 32.4929 85.1863 33.6412 84.5149 34.5927C84.1271 35.1436 83.671 35.6873 82.9098 35.4584C82.2168 35.2509 81.89 34.6607 81.8074 33.9631C81.6638 32.7397 82.0839 31.6129 82.4502 30.479C83.4017 27.5135 84.1558 24.5123 83.8506 21.3644C83.4915 17.6191 81.5273 14.6644 79.039 11.9994C78.1269 11.0193 77.319 9.97833 77.1681 8.61902C76.9778 6.91987 76.1879 7.21678 75.1573 7.89287C70.2344 11.1123 68.2703 15.7805 68.457 21.4789C68.5037 22.924 68.4175 24.3334 67.9722 25.7071C67.825 26.1578 67.6562 26.655 67.0745 26.7015C66.5036 26.748 66.2343 26.3044 66.0081 25.8859C65.3366 24.6554 65.114 23.3068 64.9847 21.9368C64.7908 19.862 64.5861 17.7873 64.4353 15.7089C64.0834 10.9334 61.473 7.6818 57.4872 5.31015C54.8408 3.73621 51.7348 2.892 49.724 0.298565C49.1315 -0.463368 48.8263 0.430921 48.5785 0.792213C46.9124 3.23898 46.679 6.0077 46.8837 8.84796C47.0633 11.3627 47.8209 13.7522 48.4888 16.1632C48.618 16.6354 49.0849 17.2543 48.4385 17.5941C47.8856 17.8874 47.4331 17.333 47.0633 16.9753C45.6808 15.6302 44.5246 14.0778 43.749 12.3357C40.2731 4.51245 33.6662 1.80097 25.7234 1.2644C16.7645 0.656284 8.59192 3.17103 0.896927 7.55661C-0.0259018 8.08245 -0.46756 8.43301 0.717392 9.22355C3.08729 10.8011 4.42662 13.2264 5.67979 15.6732C6.71034 17.6871 7.60443 19.7726 8.63498 21.7901C10.3873 25.2241 13.1234 27.628 16.6639 29.1125C18.7789 29.9996 20.9441 30.0891 23.1524 29.3915C24.9765 28.8156 26.8257 28.2862 28.7396 28.1324C29.9712 28.0322 31.2065 28.1717 31.6087 29.6526C31.9857 31.0442 31.1131 31.8061 30.0108 32.2783C28.1472 33.076 26.244 33.7914 24.3481 34.5104C21.2601 35.6837 19.2205 37.9051 17.8525 40.8277C17.5472 41.4787 17.3713 42.0332 18.1864 42.4803C19.6263 43.2709 20.743 44.4764 21.7448 45.7176C24.6785 49.3592 28.6247 50.6899 33.0988 50.9367C37.2138 51.162 41.2067 50.6756 45.0058 48.9549C46.697 48.1894 48.478 47.6243 50.3596 47.5992C51.4332 47.5849 52.6756 47.5455 53.0347 48.8655C53.4261 50.2928 52.1765 50.7256 51.2106 51.0905C48.812 52.0027 46.3667 52.7968 43.9321 53.6195C39.3395 55.172 37.1205 58.7885 35.6231 63.0453C35.4292 63.5998 35.5226 64.0827 35.9678 64.5084C40.2659 68.5971 44.7257 72.4532 50.3452 74.689C54.392 76.2987 58.4388 76.4525 62.5969 75.0037C67.6024 73.2581 72.7192 72.142 78.0802 73.0757C80.4142 73.4835 82.4753 74.528 84.8667 75.9588C83.8506 72.4568 82.7805 69.4055 81.4268 66.4508C81.136 65.8176 80.3963 65.6602 79.811 65.3955C72.7839 62.2047 65.491 60.4304 57.7027 61.2997C57.3544 61.339 56.9989 61.3033 56.6542 61.1745C64.6329 58.903 72.3206 59.8438 79.6924 63.4853C80.2167 62.7985 79.7248 62.3442 79.5237 61.9114C76.6044 55.6192 73.0891 49.6811 68.8987 44.1365C68.0297 42.9918 66.9991 42.2335 65.6562 41.7541C57.2718 38.7565 48.7258 37.6619 39.914 39.4576C39.6914 39.5041 39.4544 39.4648 38.9338 39.4648C40.2013 38.6528 41.3971 38.4238 42.5533 38.1341C49.5696 36.3956 56.5249 36.4886 63.3904 38.8996C63.7746 39.0355 64.1983 39.0498 64.6041 39.1178L64.6257 39.1464Z" fill="#E86851"/>
</svg>
