<svg width="216" height="293" viewBox="0 0 216 293" fill="none" xmlns="http://www.w3.org/2000/svg">
<path d="M-109.776 215.923C-109.776 155.486 -60.5611 106.318 -0.118813 106.318C60.3234 106.318 109.539 155.512 109.539 215.923C109.539 276.334 60.3148 325.527 -0.076004 325.527C-60.4669 325.527 -109.776 276.376 -109.776 215.923ZM106.738 215.923C106.725 187.598 95.4676 160.437 75.4397 140.407C55.4118 120.376 28.2511 109.113 -0.076004 109.093C-58.934 109.093 -107.036 156.933 -107.036 215.948C-107.036 274.964 -58.9768 322.89 -0.076004 322.89C58.8248 322.89 106.738 274.912 106.738 215.923Z" fill="#E2F2D9"/>
<path d="M-72.6455 215.922C-72.6489 201.57 -68.3957 187.54 -60.4239 175.605C-52.452 163.67 -41.1195 154.367 -27.8597 148.872C-14.5999 143.377 -0.00823212 141.938 14.0698 144.736C28.1478 147.534 41.0798 154.443 51.2304 164.591C61.381 174.738 68.2942 187.667 71.0956 201.743C73.8971 215.819 72.461 230.41 66.9689 243.669C61.4769 256.929 52.1757 268.263 40.2415 276.237C28.3073 284.211 14.2763 288.467 -0.0771255 288.467C-19.3156 288.451 -37.7619 280.803 -51.3671 267.203C-64.9724 253.602 -72.6251 235.159 -72.6455 215.922ZM70.3675 215.922C70.3539 201.99 66.2095 188.374 58.458 176.797C50.7066 165.219 39.6963 156.199 26.8189 150.878C13.9415 145.556 -0.224701 144.172 -13.8889 146.899C-27.5531 149.627 -40.1017 156.344 -49.9485 166.202C-59.7952 176.06 -66.4978 188.615 -69.2091 202.282C-71.9204 215.948 -70.5186 230.111 -65.1809 242.981C-59.8432 255.85 -50.8092 266.849 -39.2211 274.585C-27.633 282.322 -14.0109 286.449 -0.0771255 286.446C18.6045 286.401 36.5064 278.952 49.7058 265.733C62.9053 252.514 70.326 234.602 70.3418 215.922H70.3675Z" fill="#E2F2D9"/>
<path d="M-65.5723 215.92C-65.5655 202.977 -61.7214 190.327 -54.5259 179.569C-47.3304 168.81 -37.1065 160.426 -25.1465 155.476C-13.1866 150.526 -0.0274963 149.233 12.6674 151.759C25.3623 154.286 37.0231 160.519 46.1759 169.671C55.3287 178.823 61.5625 190.483 64.0894 203.176C66.6163 215.87 65.3228 229.028 60.3725 240.987C55.4222 252.946 47.0373 263.169 36.2776 270.363C25.5179 277.558 12.8665 281.402 -0.077446 281.409C-17.4422 281.391 -34.0905 274.485 -46.3692 262.208C-58.648 249.93 -65.5541 233.283 -65.5723 215.92ZM63.3792 215.92C63.3741 203.372 59.6481 191.107 52.6723 180.676C45.6965 170.245 35.7842 162.116 24.1886 157.318C12.5929 152.519 -0.165276 151.266 -12.473 153.717C-24.7807 156.169 -36.0851 162.214 -44.9571 171.088C-53.8291 179.963 -59.8703 191.269 -62.3167 203.577C-64.7631 215.884 -63.5049 228.641 -58.7013 240.233C-53.8977 251.826 -45.7642 261.734 -35.3294 268.705C-24.8946 275.676 -12.6269 279.396 -0.077446 279.396C16.747 279.365 32.873 272.666 44.7673 260.768C56.6616 248.87 63.3543 232.743 63.3792 215.92Z" fill="#E2F2D9"/>
<path d="M70.7539 205.972L107.107 201.391L107.475 203.403L70.9423 207.984L70.7539 205.972Z" fill="#E2F2D9"/>
<path d="M68.9219 197.136L104.547 188.025L105 190.038L69.4271 199.097L68.9219 197.136Z" fill="#E2F2D9"/>
<path d="M61.9678 180.558L94.287 162.842L95.2033 164.674L63.0211 182.348L61.9678 180.558Z" fill="#E2F2D9"/>
<path d="M57.0693 173.048L86.8708 151.486L87.9756 153.088L58.2083 174.649L57.0693 173.048Z" fill="#E2F2D9"/>
<path d="M51.3398 166.234L78.0841 141.051L79.4543 142.515L52.6244 167.698L51.3398 166.234Z" fill="#E2F2D9"/>
<path d="M44.5664 160.184L68.0136 131.893L69.6151 133.168L46.1249 161.469L44.5664 160.184Z" fill="#E2F2D9"/>
<path d="M37.1074 154.97L56.9751 123.973L58.6707 125.026L38.8887 156.109L37.1074 154.97Z" fill="#E2F2D9"/>
<path d="M29.2285 150.801L44.9343 117.518L46.7669 118.434L31.104 151.581L29.2285 150.801Z" fill="#E2F2D9"/>
<path d="M20.9395 147.598L32.2949 112.662L34.2217 113.304L22.9091 148.284L20.9395 147.598Z" fill="#E2F2D9"/>
<path d="M12.2383 145.532L19.1149 109.414L21.0331 109.731L14.2593 145.9L12.2383 145.532Z" fill="#E2F2D9"/>
<path d="M3.22168 144.532L5.55954 107.814L7.57203 107.994L5.2855 144.712L3.22168 144.532Z" fill="#E2F2D9"/>
<path d="M3.40137 287.505L5.46518 287.316L7.66605 324.034L5.64504 324.128L3.40137 287.505Z" fill="#E2F2D9"/>
<path d="M12.332 286.632L14.2589 286.084L21.1269 322.159L19.2 322.527L12.332 286.632Z" fill="#E2F2D9"/>
<path d="M21.0332 284.345L23.0028 283.797L34.2212 318.673L32.2944 319.273L21.0332 284.345Z" fill="#E2F2D9"/>
<path d="M29.4092 281.232L31.2932 280.273L46.7677 313.506L44.9351 314.379L29.4092 281.232Z" fill="#E2F2D9"/>
<path d="M37.2871 276.974L39.0683 275.826L58.7647 306.961L57.0691 308.057L37.2871 276.974Z" fill="#E2F2D9"/>
<path d="M44.6611 271.802L46.3053 270.518L69.6156 298.809L68.0142 300.051L44.6611 271.802Z" fill="#E2F2D9"/>
<path d="M51.3398 265.757L52.7186 264.156L79.4543 289.382L78.0841 290.847L51.3398 265.757Z" fill="#E2F2D9"/>
<path d="M57.249 258.893L58.3965 257.154L87.9754 278.853L86.8707 280.411L57.249 258.893Z" fill="#E2F2D9"/>
<path d="M62.0527 251.291L63.2002 249.553L95.2026 267.312L94.2863 269.145L62.0527 251.291Z" fill="#E2F2D9"/>
<path d="M65.9932 243.28L66.8239 241.311L100.881 254.951L100.248 256.826L65.9932 243.28Z" fill="#E2F2D9"/>
<path d="M69.0586 234.81L69.4268 232.746L104.915 241.951L104.546 243.963L69.0586 234.81Z" fill="#E2F2D9"/>
<path d="M70.8477 225.975L71.0275 223.826L107.389 228.587L107.106 230.642L70.8477 225.975Z" fill="#E2F2D9"/>
<path d="M100.239 175.101C147.031 157.248 191.631 214.49 191.999 215.03L192.179 215.116L190.577 216.777L190.303 216.597C189.755 215.861 146.209 160.005 100.976 177.268L100.239 175.101Z" fill="#E2F2D9"/>
<path d="M100.239 256.371L100.976 254.213C146.029 271.433 189.755 215.578 190.303 214.936L190.577 214.756L192.179 216.22L191.999 216.588C190.209 218.78 146.851 274.036 100.239 256.371Z" fill="#E2F2D9"/>
<path d="M104.272 187.232L107.826 185.948C139.512 174.234 169.313 208.477 174.854 215.344L175.034 215.524L174.126 216.44L173.844 216.26C168.26 209.342 139.144 175.878 108.28 187.147L104.709 188.56L104.272 187.232Z" fill="#E2F2D9"/>
<path d="M104.272 244.179L104.726 242.988L108.297 244.367C136.095 254.531 163.011 227.969 173.381 216.11L173.655 215.75V215.562L174.118 215.014L174.846 215.75H175.025V216.298L174.392 216.983C163.901 229.022 136.429 256.175 107.818 245.686L104.272 244.179Z" fill="#E2F2D9"/>
<path d="M53.3525 121.909L55.0053 118.433C69.0583 87.7521 114.249 90.7748 123.24 91.7595L123.326 91.6654L123.42 93.044L123.146 93.1296C114.214 92.2134 69.9403 89.1051 56.1186 118.955L54.5086 122.432L53.3525 121.909Z" fill="#E2F2D9"/>
<path d="M93.0967 160.913L96.6249 159.354C123.455 146.947 123.814 108.996 122.633 93.3431V92.8807L122.444 92.7437V92.0587H123.361L123.549 91.8789L123.909 92.2385V93.2489C125.15 109.27 124.765 147.82 97.0788 160.501L93.5592 162.103L93.0967 160.913Z" fill="#E2F2D9"/>
<path d="M-32.5154 94.6283C-32.5154 68.4346 -6.62747 45.8201 -0.67573 40.9222L-0.581514 40.7852L0.428989 41.7014L0.240589 41.8812C-6.61033 47.5584 -40.137 76.8604 -28.8073 107.49L-27.5056 111.103L-28.8073 111.651L-30.2032 108.029C-31.7218 103.724 -32.5035 99.1935 -32.5154 94.6283Z" fill="#E2F2D9"/>
<path d="M-0.933594 41.7014L-0.29132 40.9222V40.7852H0.171125L1.02749 41.5215C13.0166 51.9511 40.0349 79.5149 29.553 107.995L28.0373 111.651L26.8469 111.103L28.2256 107.49C38.502 79.8831 12.0146 52.8245 0.0169591 42.4121L-0.3427 42.1381H-0.531101L-0.933594 41.7014Z" fill="#E2F2D9"/>
<path d="M93.3701 270.725L93.9182 269.492L97.4036 271.093C126.888 284.554 125.33 326.623 124.139 339.125V339.442L122.718 339.536V339.031C123.908 326.623 125.518 285.376 96.8983 272.241L93.3701 270.725Z" fill="#E2F2D9"/>
<path d="M41.7227 116.14C62.7379 70.132 134.398 79.32 135.126 79.5169L135.221 81.7175H134.852C134.124 81.6233 64.1594 72.5639 43.8721 117.056L41.7227 116.14Z" fill="#E2F2D9"/>
<path d="M98.5947 171.721C142.68 151.761 133.937 81.5283 133.851 80.749V80.1582H136.086V80.6291C136.266 81.1857 145.104 153.105 99.4083 173.75L98.5947 171.721Z" fill="#E2F2D9"/>
<path d="M-44.4189 96.8983C-44.4189 61.508 -9.87312 31.1099 -1.22383 24.0542C-1.1202 23.8497 -0.962337 23.6776 -0.767506 23.5568C-0.57267 23.436 -0.348366 23.3711 -0.119114 23.3691V25.6126C0.114468 25.6152 0.340027 25.5276 0.510693 25.3681C0.681358 25.2087 0.783966 24.9895 0.797176 24.7563V25.3044L0.428944 25.5783C-8.93969 33.1821 -54.6268 72.8367 -38.8354 114.88L-40.9849 115.737C-43.2635 109.718 -44.4271 103.334 -44.4189 96.8983Z" fill="#E2F2D9"/>
<path d="M-1.4043 25.3112V24.7632C-1.4043 24.9903 -1.31409 25.2081 -1.15349 25.3687C-0.992887 25.5293 -0.775054 25.6195 -0.547932 25.6195V23.3418C-0.308302 23.3485 -0.0740945 23.4146 0.133674 23.5341C0.341442 23.6537 0.516251 23.823 0.642402 24.0268C10.6704 32.2728 56.5459 72.6466 40.3863 115.649L38.2796 114.793C54.0282 72.9463 8.30686 33.112 -0.916189 25.5168L-1.4043 25.3112Z" fill="#E2F2D9"/>
<path d="M98.8682 260.081L99.7245 257.975C145.788 278.851 136.488 350.402 136.403 351.181L134.159 351.275V350.821C134.21 350.128 143.322 280.084 98.8682 260.081Z" fill="#E2F2D9"/>
<path d="M191.355 215.219H174.322V216.589H191.355V215.219Z" fill="#E2F2D9"/>
<path d="M168.276 208.803L178.621 201.936L179.452 203.032L169.056 209.856L168.276 208.803Z" fill="#E2F2D9"/>
<path d="M161.049 201.758L171.3 195.25L172.036 196.44L161.777 202.897L161.049 201.758Z" fill="#E2F2D9"/>
<path d="M150.465 193.786L159.859 186.738L160.767 187.834L151.433 194.89L150.465 193.786Z" fill="#E2F2D9"/>
<path d="M155.782 197.63L164.894 190.266L165.716 191.404L156.699 198.64L155.782 197.63Z" fill="#E2F2D9"/>
<path d="M134.768 185.82L144.47 178.131L145.292 179.227L135.59 186.874L134.768 185.82Z" fill="#E2F2D9"/>
<path d="M123.549 183.622L134.853 175.658L135.589 176.763L124.328 184.726L123.549 183.622Z" fill="#E2F2D9"/>
<path d="M110.635 185.091L123.369 172.727L124.414 173.737L111.782 186.05L110.635 185.091Z" fill="#E2F2D9"/>
<path d="M103.861 185.273L110.635 173.002L111.868 173.644L105.094 185.915L103.861 185.273Z" fill="#E2F2D9"/>
<path d="M171.488 212.007L185.498 208.625L185.772 210.038L171.848 213.198L171.488 212.007Z" fill="#E2F2D9"/>
<path d="M122.812 92.0565L123.001 91.8767L134.673 80.1113L135.812 81.0704L135.401 81.3444L123.729 93.0669L122.812 92.0565Z" fill="#E2F2D9"/>
<path d="M113.976 91.7852L116.313 79.6602L117.735 79.977L115.26 92.0592L113.976 91.7852Z" fill="#E2F2D9"/>
<path d="M103.861 91.9749L106.473 80.1582L107.843 80.4322L105.189 92.2489L103.861 91.9749Z" fill="#E2F2D9"/>
<path d="M90.8096 93.7551L92.3681 82.084L93.6527 82.358L92.0941 93.9864L90.8096 93.7551Z" fill="#E2F2D9"/>
<path d="M97.0781 92.7516L98.4141 81.166L99.6901 81.2602L98.5939 92.8885L97.0781 92.7516Z" fill="#E2F2D9"/>
<path d="M73.9561 99.1998L75.3348 87.0234L76.6622 87.2118L75.3348 99.431L73.9561 99.1998Z" fill="#E2F2D9"/>
<path d="M64.5283 105.614L66.8234 92.0586L68.1935 92.247L65.8129 105.888L64.5283 105.614Z" fill="#E2F2D9"/>
<path d="M56.4277 115.683L56.7018 98.0176H58.0291L57.8493 115.683H56.4277Z" fill="#E2F2D9"/>
<path d="M118.376 91.6982L125.972 79.6074L127.068 80.2496L119.566 92.426L118.376 91.6982Z" fill="#E2F2D9"/>
<path d="M123.275 100.027L135.496 97.7324L135.813 99.0168L123.455 101.397L123.275 100.027Z" fill="#E2F2D9"/>
<path d="M123.086 110.195L135.041 107.721L135.4 109.091L123.369 111.565L123.086 110.195Z" fill="#E2F2D9"/>
<path d="M121.484 123.513L133.388 122.006L133.568 123.333L121.664 124.84L121.484 123.513Z" fill="#E2F2D9"/>
<path d="M122.632 117.014L134.398 115.875L134.492 117.245L122.726 118.341L122.632 117.014Z" fill="#E2F2D9"/>
<path d="M116.312 140.362L128.721 139.129L128.815 140.542L116.492 141.689L116.312 140.362Z" fill="#E2F2D9"/>
<path d="M109.897 149.926L123.728 147.734L123.908 149.104L110.18 151.305L109.897 149.926Z" fill="#E2F2D9"/>
<path d="M122.812 95.7229L135.041 88.1191L135.812 89.318L123.455 96.8704L122.812 95.7229Z" fill="#E2F2D9"/>
<path d="M-0.666992 41.4256V41.1516V24.4883H0.608984V24.9421V41.5198L-0.666992 41.4256Z" fill="#E2F2D9"/>
<path d="M5.19141 46.7874L12.2393 36.4863L13.2498 37.2655L6.28758 47.5153L5.19141 46.7874Z" fill="#E2F2D9"/>
<path d="M12.332 54.0221L19.0202 43.8066L20.1164 44.6287L13.4282 54.7928L12.332 54.0221Z" fill="#E2F2D9"/>
<path d="M20.5703 64.5022L27.8066 55.1602L28.9027 55.8965L21.5808 65.3242L20.5703 64.5022Z" fill="#E2F2D9"/>
<path d="M16.6836 59.1968L24.1511 50.0859L25.2472 50.9508L17.8311 60.0616L16.6836 59.1968Z" fill="#E2F2D9"/>
<path d="M28.7236 80.1565L36.7392 70.5918L37.6983 71.4567L29.6913 81.0727L28.7236 80.1565Z" fill="#E2F2D9"/>
<path d="M31.0186 91.51L39.1626 80.207L40.2673 81.0719L32.1147 92.3406L31.0186 91.51Z" fill="#E2F2D9"/>
<path d="M29.5967 104.105L42.2794 91.4238L43.2386 92.3401L30.513 105.064L29.5967 104.105Z" fill="#E2F2D9"/>
<path d="M29.6914 110.787L42.28 104.057L42.8709 105.247L30.4193 112.02L29.6914 110.787Z" fill="#E2F2D9"/>
<path d="M1.71289 44.0362L5.00136 30.0273L6.38009 30.3442L3.04025 44.3102L1.71289 44.0362Z" fill="#E2F2D9"/>
<path d="M95.1182 267.683L108.486 263.787L108.94 265.209L95.3922 269.147L95.1182 267.683Z" fill="#E2F2D9"/>
<path d="M108.297 214.938C139.066 214.253 145.121 191.227 145.121 191.039L147.039 191.501C147.039 191.775 140.633 216.222 108.305 216.907L108.297 214.938Z" fill="#E2F2D9"/>
<path d="M108.297 217.454V215.391C140.625 216.033 147.03 240.12 147.03 240.223L145.112 240.771C144.924 239.897 138.972 217.959 108.297 217.454Z" fill="#E2F2D9"/>
<path d="M132.104 215.21C148.041 215.03 155.363 207.015 158.849 200.242L160.039 200.833C156.614 207.889 148.778 216.4 132.104 216.589V215.21Z" fill="#E2F2D9"/>
<path d="M132.104 216.906V215.484C149.549 215.947 156.939 225.195 159.765 230.778L158.66 231.42C155.869 226.196 148.778 217.274 132.104 216.906Z" fill="#E2F2D9"/>
<path d="M127.162 289.468C128.626 287.91 142.089 273.447 166.992 283.517L166.358 285.444C142.679 275.828 130.048 289.288 128.678 290.838L127.162 289.468Z" fill="#E2F2D9"/>
<path d="M143.048 253.025H145.112C145.112 260.535 147.861 274.544 167.086 283.107L166.23 285.076C146.028 275.862 143.048 261.083 143.048 253.025Z" fill="#E2F2D9"/>
<path d="M120.568 276.877C124.85 273.948 133.936 269.821 147.304 275.456L146.756 276.689C134.125 271.431 125.424 275.276 121.39 278.016L120.568 276.877Z" fill="#E2F2D9"/>
<path d="M129.775 257.514L131.197 257.154C132.473 262.549 136.455 269.999 147.468 275.282L146.92 276.566C135.23 270.889 131.197 263.105 129.775 257.514Z" fill="#E2F2D9"/>
<path d="M141.909 176.849C141.909 171.994 143.622 155.057 165.887 145.535L166.744 147.453C143.262 157.343 143.896 175.659 143.896 177.851L141.935 177.946L141.909 176.849Z" fill="#E2F2D9"/>
<path d="M127.258 140.951L128.808 139.529C134.126 144.795 146.029 152.579 165.632 145.258L166.368 147.133C145.661 154.96 133.021 146.559 127.258 140.951Z" fill="#E2F2D9"/>
<path d="M128.379 173.729C129.235 168.592 132.772 159.267 146.234 153.906L146.782 155.054C133.877 160.268 130.511 169.062 129.706 173.96L128.379 173.729Z" fill="#E2F2D9"/>
<path d="M121.211 153.454L121.853 152.307C126.615 155.15 134.579 157.616 146.208 153.54L146.671 154.867C134.485 159.08 126.152 156.425 121.211 153.454Z" fill="#E2F2D9"/>
<path d="M63.9286 65.6853C64.0557 59.8589 65.2939 54.1103 67.5767 48.748L69.4522 49.6043C59.8694 73.2463 73.2287 85.7652 74.7787 87.0668L73.4086 88.668C70.3555 85.6778 67.9411 82.0992 66.3116 78.1487C64.6821 74.1983 63.8714 69.9582 63.9286 65.6853Z" fill="#E2F2D9"/>
<path d="M36.9189 72.8353V70.7717C44.4721 70.7717 58.3966 67.9802 67.0887 48.748L69.0583 49.6043C59.4927 70.5919 43.4188 72.8353 36.9189 72.8353Z" fill="#E2F2D9"/>
<path d="M56.607 81.3479C56.7251 76.9637 57.7058 72.6458 59.4929 68.6406L60.6833 69.0945C55.1854 81.9387 59.2189 90.5016 61.8736 94.5518L60.9573 95.2796C58.0783 91.2086 56.556 86.3336 56.607 81.3479Z" fill="#E2F2D9"/>
<path d="M41.0889 84.7357C46.3983 83.3571 53.9943 79.4182 59.3123 68.3379L60.4085 68.8945C54.825 80.5228 46.9464 84.6415 41.3629 86.0202L41.0889 84.7357Z" fill="#E2F2D9"/>
<path d="M92.916 122.003C104.177 110.46 103.578 99.611 101.154 92.4268L102.482 92.0586C104.631 98.1982 106.19 110.323 93.8323 123.005L92.916 122.003Z" fill="#E2F2D9"/>
<path d="M93.0967 122.184C105.642 110.196 117.64 111.566 123.361 113.347L123.087 114.674C117.46 112.893 106.105 111.651 93.9188 123.194L93.0967 122.184Z" fill="#E2F2D9"/>
<path d="M-15.7988 56.991L-15.1651 55.8008C-9.41891 58.6351 0.335072 66.1447 0.609108 83.767H-0.67544C-0.932349 67.7802 -9.02498 60.3733 -15.7988 56.991Z" fill="#E2F2D9"/>
<path d="M-0.580811 83.7723C-0.118373 66.3298 9.26736 58.9401 14.6196 56.0801L15.2619 57.219C10.1237 59.9676 1.2518 67.0662 0.797925 83.8665L-0.580811 83.7723Z" fill="#E2F2D9"/>
<path d="M75.832 138.572C97.0785 116.369 85.1322 95.8095 85.038 95.7582L86.6907 94.6621C86.8706 94.9276 99.6904 116.729 77.2707 140.045L75.832 138.572Z" fill="#E2F2D9"/>
<path d="M76.1992 138.94C99.4153 116.548 121.03 128.955 121.21 129.144L120.199 130.788C119.343 130.377 99.6465 119.065 77.6208 140.361L76.1992 138.94Z" fill="#E2F2D9"/>
<path d="M-25.0049 70.7722L-24.551 68.8027C-24.2513 68.8969 0.240763 75.2163 0.977236 107.49L-1.03523 107.575C-1.78883 76.8604 -24.0543 70.952 -25.0049 70.7722Z" fill="#E2F2D9"/>
<path d="M-0.675781 107.49C-0.0335073 75.2163 23.9191 68.8969 24.2359 68.8027L24.784 70.7722C23.7307 70.952 1.98753 76.8604 1.34525 107.592L-0.675781 107.49Z" fill="#E2F2D9"/>
<path d="M75.832 293.359L77.305 291.844C99.4163 313.131 120.02 301.092 120.2 300.997L121.211 302.71C121.031 302.881 99.1423 315.648 75.832 293.359Z" fill="#E2F2D9"/>
<path d="M75.4209 293.677L76.9966 292.213C99.2621 315.564 86.8448 337.031 86.665 337.305L85.0122 336.166C85.5003 335.335 96.693 315.744 75.4209 293.677Z" fill="#E2F2D9"/>
<path d="M133.757 119.349L133.851 120.394L133.937 119.349C135.786 119.049 137.655 118.894 139.529 118.887C150.014 118.905 160.065 123.078 167.479 130.491C174.893 137.905 179.066 147.954 179.084 158.438C179.084 170.983 173.312 182.8 163.473 189.898L162.145 188.109C166.762 184.667 170.505 180.188 173.074 175.035C175.643 169.881 176.965 164.197 176.935 158.438C176.908 148.538 172.951 139.052 165.934 132.066C158.917 125.081 149.414 121.166 139.512 121.182C137.734 121.21 135.959 121.33 134.194 121.541L133.834 120.394L133.757 119.349Z" fill="#E2F2D9"/>
<path d="M26.1641 53.0052L26.5237 52.4144C27.5342 51.1299 28.6304 49.8969 29.8721 48.5697C37.3182 41.1503 47.4018 36.9844 57.9138 36.9844C68.4258 36.9844 78.5093 41.1503 85.9555 48.5697C90.3021 52.8574 93.5757 58.1101 95.5101 63.9009C97.4445 69.6917 97.9852 75.8572 97.0882 81.8963L94.9387 81.528C95.7698 75.8479 95.2491 70.0519 93.4188 64.6108C91.5886 59.1697 88.5005 54.2371 84.4055 50.2137C80.9435 46.7315 76.8271 43.9681 72.2932 42.0824C67.7592 40.1967 62.8971 39.2259 57.9866 39.2259C53.076 39.2259 48.214 40.1967 43.68 42.0824C39.1461 43.9681 35.0297 46.7315 31.5677 50.2137C30.3805 51.3255 29.3076 52.5532 28.3649 53.8786L27.911 54.4266L26.1641 53.0052Z" fill="#E2F2D9"/>
<path d="M133.938 313.229L134.306 311.08C142.04 312.114 149.904 310.7 156.794 307.036C163.683 303.372 169.252 297.642 172.718 290.651C176.183 283.66 177.372 275.76 176.116 268.059C174.86 260.358 171.224 253.243 165.717 247.715C164.357 246.39 162.928 245.138 161.435 243.965L162.857 242.252C164.409 243.431 165.89 244.701 167.293 246.054C174.706 253.486 178.868 263.554 178.868 274.05C178.868 284.546 174.706 294.614 167.293 302.046C162.992 306.384 157.735 309.655 151.943 311.597C146.151 313.539 139.984 314.098 133.938 313.229Z" fill="#E2F2D9"/>
<path d="M27.627 54.8922C35.3361 48.3113 45.2406 44.874 55.3696 45.2643C65.4985 45.6546 75.1091 49.844 82.2888 56.9987C89.133 63.6152 93.2228 72.5742 93.7384 82.0793L92.274 82.1734C91.632 73.0841 87.727 64.5329 81.2783 58.0947C74.3598 51.2396 65.121 47.2294 55.3882 46.8568C45.6554 46.4842 36.137 49.7764 28.7146 56.0825L27.627 54.8922Z" fill="#E2F2D9"/>
<path d="M133.568 308.238C142.715 307.735 151.341 303.821 157.744 297.269C164.634 290.365 168.676 281.122 169.066 271.375C169.457 261.629 166.167 252.092 159.85 244.659L161.041 243.803C167.586 251.525 170.992 261.423 170.586 271.537C170.18 281.651 165.991 291.244 158.848 298.417C152.217 305.245 143.261 309.332 133.757 309.865L133.568 308.238Z" fill="#E2F2D9"/>
<path d="M133.39 123.33L133.518 121.729C143.603 122.559 153.01 127.139 159.883 134.564C166.757 141.988 170.599 151.719 170.65 161.837C170.718 171.376 167.253 180.603 160.922 187.739L159.637 186.686C165.757 179.869 169.116 171.015 169.057 161.854C169.02 152.132 165.335 142.778 158.729 135.644C152.124 128.51 143.081 124.115 133.39 123.33Z" fill="#E2F2D9"/>
<path d="M164.525 179.955C167.36 178.243 170.52 176.384 173.774 174.561L174.502 175.931C171.299 177.763 168.182 179.501 165.347 181.334L164.525 179.955Z" fill="#E2F2D9"/>
<path d="M176.935 167.686C175.744 168.422 174.597 169.064 173.509 169.843C171.677 170.897 169.887 172.087 168.105 172.952" fill="#E2F2D9"/>
<path d="M177.706 161.377C175.514 162.79 173.227 164.168 171.026 165.496C170.521 165.675 169.879 166.224 169.425 166.352" fill="#E2F2D9"/>
<path d="M169.604 160.499C172.311 158.898 175.325 157.34 177.706 155.781L169.604 160.499Z" fill="#E2F2D9"/>
<path d="M169.244 154.689C171.942 153.036 174.596 151.486 177.114 150.107L169.244 154.689Z" fill="#E2F2D9"/>
<path d="M167.772 149.651C170.29 148.093 173.082 146.68 175.557 145.07L167.772 149.651Z" fill="#E2F2D9"/>
<path d="M166.06 145.073C168.432 143.566 171.001 141.965 173.476 140.586L166.06 145.073Z" fill="#E2F2D9"/>
<path d="M163.49 140.361C166.059 139.034 168.474 137.382 170.769 136.08L163.49 140.361Z" fill="#E2F2D9"/>
<path d="M160.406 136.285C162.826 135.092 165.151 133.715 167.36 132.166L160.406 136.285Z" fill="#E2F2D9"/>
<path d="M156.784 132.863C158.934 131.536 161.229 130.209 163.472 128.787L156.784 132.863Z" fill="#E2F2D9"/>
<path d="M152.434 129.229C154.689 128.105 156.861 126.82 158.933 125.385L152.434 129.229Z" fill="#E2F2D9"/>
<path d="M153.719 122.686C151.828 123.931 149.873 125.074 147.861 126.111C147.861 126.111 147.587 126.111 147.587 126.342" fill="#E2F2D9"/>
<path d="M147.219 120.623C146.576 121.18 146.028 121.359 145.506 121.813C144.153 122.503 142.841 123.27 141.575 124.108" fill="#E2F2D9"/>
<path d="M134.125 122.459C135.593 121.708 137.023 120.882 138.407 119.984L134.125 122.459Z" fill="#E2F2D9"/>
<path d="M27.627 54.8922C35.3361 48.3113 45.2406 44.874 55.3696 45.2643C65.4985 45.6546 75.1091 49.844 82.2888 56.9987C89.133 63.6152 93.2228 72.5742 93.7384 82.0793L92.274 82.1734C91.632 73.0841 87.727 64.5329 81.2783 58.0947C74.3598 51.2396 65.121 47.2294 55.3882 46.8568C45.6554 46.4842 36.137 49.7764 28.7146 56.0825L27.627 54.8922Z" fill="#E2F2D9"/>
<path d="M90.8096 74.1094C91.546 70.9069 92.4538 67.6102 93.5585 63.7227L95.1085 64.1337C93.9182 67.9784 93.0961 71.2751 92.3682 74.5718L90.8096 74.1094Z" fill="#E2F2D9"/>
<path d="M90.9907 56.7656C90.5796 57.9987 90.3056 59.2831 89.9373 60.5675C89.5577 62.6344 89.0224 64.6696 88.3359 66.6557" fill="#E2F2D9"/>
<path d="M87.0587 51.5938C86.5021 54.1112 85.8598 56.7315 85.2261 59.3003C85.0228 59.8977 84.8682 60.5105 84.7637 61.1328" fill="#E2F2D9"/>
<path d="M80.7393 56.7117C81.4672 53.6976 82.452 50.4951 83.1628 47.6094L80.7393 56.7117Z" fill="#E2F2D9"/>
<path d="M76.1992 52.8655C77.0556 49.8514 77.9119 46.8288 78.6313 44.0801L76.1992 52.8655Z" fill="#E2F2D9"/>
<path d="M71.7637 50.3457C72.4059 47.4172 73.3137 44.6258 73.956 41.6973L71.7637 50.3457Z" fill="#E2F2D9"/>
<path d="M67.1829 48.382C67.8251 45.5477 68.5616 42.6192 69.3323 39.9219L67.1829 48.382Z" fill="#E2F2D9"/>
<path d="M62.0527 46.8295C63.0119 44.0809 63.5685 41.1524 64.2536 38.6777L62.0527 46.8295Z" fill="#E2F2D9"/>
<path d="M57.0684 46.1864C57.8907 43.5982 58.5768 40.9687 59.1237 38.3086L57.0684 46.1864Z" fill="#E2F2D9"/>
<path d="M52.0762 46.3765C52.7099 43.722 53.3493 41.1531 53.9944 38.6699L52.0762 46.3765Z" fill="#E2F2D9"/>
<path d="M46.3994 46.8296C47.2157 44.4215 47.8567 41.9576 48.3177 39.457L46.3994 46.8296Z" fill="#E2F2D9"/>
<path d="M42.6911 41.1543C42.2402 43.3891 41.6423 45.5917 40.9013 47.7477C40.8769 47.7709 40.8575 47.7988 40.8443 47.8297C40.831 47.8606 40.8242 47.8939 40.8242 47.9275C40.8242 47.9611 40.831 47.9944 40.8443 48.0253C40.8575 48.0562 40.8769 48.0841 40.9013 48.1073" fill="#E2F2D9"/>
<path d="M36.7464 44.4512C36.558 45.179 36.3781 45.6414 36.1897 46.4634C35.7187 47.8647 35.3383 49.2948 35.0508 50.7449" fill="#E2F2D9"/>
<path d="M28.6287 54.9387C29.2053 53.3987 29.6214 51.8032 29.8704 50.1777L28.6287 54.9387Z" fill="#E2F2D9"/>
<path d="M133.568 308.238C142.715 307.735 151.341 303.821 157.744 297.269C164.634 290.365 168.676 281.122 169.066 271.375C169.457 261.629 166.167 252.092 159.85 244.659L161.041 243.803C167.586 251.525 170.992 261.423 170.586 271.537C170.18 281.651 165.991 291.244 158.848 298.417C152.217 305.245 143.261 309.332 133.757 309.865L133.568 308.238Z" fill="#E2F2D9"/>
<path d="M163.01 292.213C166.084 293.069 169.056 293.866 171.753 294.782L163.01 292.213Z" fill="#E2F2D9"/>
<path d="M165.528 287.846C168.371 288.394 171.3 289.404 174.143 290.089L165.528 287.846Z" fill="#E2F2D9"/>
<path d="M167.266 284.062L167.54 282.504C170.426 283.24 173.406 283.788 176.103 284.705L175.744 286.169C173.038 285.347 170.066 284.705 167.266 284.062Z" fill="#E2F2D9"/>
<path d="M169.055 278.209C171.752 279.065 174.595 279.63 177.207 280.264L169.055 278.209Z" fill="#E2F2D9"/>
<path d="M169.698 273.076C172.267 274.004 174.92 274.678 177.62 275.088L169.698 273.076Z" fill="#E2F2D9"/>
<path d="M169.484 268.043C172.002 268.771 174.571 269.37 177.192 270.012L169.484 268.043Z" fill="#E2F2D9"/>
<path d="M169.055 262.545C171.478 263.281 173.953 263.966 176.377 264.472L169.055 262.545Z" fill="#E2F2D9"/>
<path d="M174.622 258.888C172.515 258.331 170.272 257.697 168.122 257.055C168.068 257.017 168.004 256.996 167.938 256.996C167.872 256.996 167.808 257.017 167.754 257.055" fill="#E2F2D9"/>
<path d="M171.48 252.74C170.624 252.56 170.153 252.371 169.425 252.192C167.961 251.805 166.478 251.499 164.98 251.275" fill="#E2F2D9"/>
<path d="M160.92 244.695C162.45 245.322 164.048 245.768 165.681 246.023L160.92 244.695Z" fill="#E2F2D9"/>
<path d="M173.312 142.881C173.312 139.859 177.988 135.551 184.762 132.529C191.356 129.737 199.226 128.598 200.69 132.075C202.069 135.192 197.17 140.175 189.557 143.566C182.878 146.495 174.999 147.591 173.492 144.071C173.331 143.697 173.269 143.287 173.312 142.881ZM199.457 133.214C199.481 133.056 199.447 132.895 199.363 132.76C198.446 130.79 192.589 130.927 185.353 134.087C178.116 137.247 174.091 141.597 175.008 143.378C175.787 145.262 181.687 145.167 188.829 142.051C195.475 139.122 199.457 135.372 199.457 133.214Z" fill="#E2F2D9"/>
<path d="M69.4258 36.8024C69.5606 33.2024 70.3198 29.6531 71.6695 26.3129C73.8704 20.5501 77.2102 16.0375 80.0961 14.7788C80.894 14.4315 81.7942 14.4009 82.6138 14.6931C83.71 15.147 85.0374 16.4057 85.0374 20.2247C84.8894 23.8065 84.1305 27.3366 82.7937 30.6628C80.2246 37.3504 75.4204 43.7126 71.7637 42.3426C70.2479 41.7003 69.4258 39.8251 69.4258 36.8024ZM83.436 20.2247C83.436 17.9813 82.9821 16.4742 82.0144 16.1488C81.7883 16.0769 81.5499 16.0527 81.314 16.0777C81.0782 16.1028 80.8501 16.1766 80.6442 16.2944C78.3491 17.3476 75.1463 21.6462 73.1339 26.8695C71.8264 30.0268 71.0816 33.3884 70.933 36.8024C70.933 38.9517 71.4896 40.5101 72.4916 40.8269C74.3242 41.6061 78.4862 37.3504 81.2865 30.1148C82.6084 26.9794 83.3373 23.626 83.436 20.2247Z" fill="#E2F2D9"/>
<path d="M173.312 288.917C173.305 288.561 173.4 288.21 173.586 287.906C173.724 287.496 173.948 287.12 174.243 286.804C174.539 286.488 174.899 286.239 175.299 286.074C178.236 284.892 183.682 285.44 189.454 287.726C196.502 290.518 201.401 294.577 201.401 297.565C201.396 297.927 201.332 298.286 201.212 298.627C199.748 302.198 191.878 301.367 185.104 298.807C178.262 296.101 173.312 292.034 173.312 288.917ZM199.774 297.565C199.774 295.51 195.706 291.751 188.786 289.191C183.708 287.136 178.441 286.442 176.018 287.478C175.579 287.635 175.208 287.937 174.965 288.334C174.965 288.514 174.87 288.703 174.87 288.883C174.87 290.989 178.99 294.739 185.678 297.351C193 300.1 199.046 299.963 199.774 298.13V297.565Z" fill="#E2F2D9"/>
<path d="M169.244 249.823L169.972 248.453C203.67 267.497 201.332 298.169 201.238 298.443L199.774 298.263V296.885C199.774 290.839 197.95 266.212 169.244 249.823Z" fill="#E2F2D9"/>
<path d="M143.237 118.707C180.455 108.363 200.417 131.612 200.614 131.886L199.458 132.862C199.269 132.639 179.95 110.153 143.64 120.18L143.237 118.707Z" fill="#E2F2D9"/>
<path d="M169.783 181.61C202.068 162.283 199.225 132.759 199.225 132.527L200.689 132.348C200.878 132.527 203.849 163.174 170.614 182.937L169.783 181.61Z" fill="#E2F2D9"/>
<path d="M32.4668 45.8232C51.6066 12.2226 82.136 14.6031 82.2815 14.6031L82.1959 16.1529C81.9133 16.1529 52.4287 13.8667 33.7513 46.6452L32.4668 45.8232Z" fill="#E2F2D9"/>
<path d="M81.835 15.9695L82.7941 14.7793C83.0681 14.9677 106.772 34.2854 97.1724 71.9191L95.708 71.5509C104.914 34.9277 82.1347 16.1493 81.835 15.9695Z" fill="#E2F2D9"/>
<path d="M108.21 214.938H71.4893V216.907H108.21V214.938Z" fill="#E2F2D9"/>
<path d="M65.9072 188.205L98.6803 173.965L99.4168 175.849L66.7293 190.037L65.9072 188.205Z" fill="#E2F2D9"/>
<path d="M176.111 199.694L199.413 186.781L200.424 188.571L177.113 201.484L176.111 199.694Z" fill="#E2F2D9"/>
<path d="M175.744 232.334L176.66 230.459L200.425 243.646L199.414 245.333L175.744 232.334Z" fill="#E2F2D9"/>
<path d="M191.082 217.179L191.176 214.25L215.848 214.481V217.461L191.082 217.179Z" fill="#E2F2D9"/>
<path d="M199.962 191.498C198.97 191.471 198.025 191.067 197.319 190.369C196.613 189.671 196.199 188.731 196.16 187.739C196.156 186.721 196.552 185.743 197.264 185.015C197.975 184.288 198.945 183.87 199.962 183.852C200.945 183.898 201.872 184.321 202.551 185.033C203.231 185.745 203.609 186.691 203.609 187.675C203.609 188.659 203.231 189.605 202.551 190.317C201.872 191.029 200.945 191.452 199.962 191.498Z" fill="#E2F2D9"/>
<path d="M199.962 248.26C198.951 248.244 197.987 247.833 197.276 247.114C196.565 246.395 196.165 245.426 196.16 244.415C196.19 243.416 196.6 242.467 197.307 241.76C198.014 241.054 198.964 240.643 199.962 240.613C200.967 240.627 201.926 241.031 202.636 241.742C203.347 242.452 203.751 243.411 203.765 244.415C203.772 244.918 203.678 245.418 203.49 245.885C203.302 246.351 203.023 246.776 202.669 247.134C202.315 247.492 201.893 247.775 201.429 247.969C200.964 248.162 200.466 248.261 199.962 248.26Z" fill="#E2F2D9"/>
<path d="M113.067 79.8383L120.389 54.2012L122.359 54.792L114.986 80.3863L113.067 79.8383Z" fill="#E2F2D9"/>
<path d="M135.042 101.126L161.23 93.668L161.778 95.6289L135.813 103.138L135.042 101.126Z" fill="#E2F2D9"/>
<path d="M133.945 79.5157L151.526 62.2188L153.625 64.2738L136.001 81.6222L133.945 79.5157Z" fill="#E2F2D9"/>
<path d="M123.909 57.1745C123.564 57.5222 123.154 57.7982 122.702 57.9866C122.25 58.1749 121.765 58.2719 121.276 58.2719C120.786 58.2719 120.301 58.1749 119.849 57.9866C119.397 57.7982 118.987 57.5222 118.642 57.1745C117.962 56.4584 117.582 55.5081 117.582 54.5201C117.582 53.5321 117.962 52.5818 118.642 51.8656C119.355 51.2135 120.293 50.8624 121.259 50.8859C122.225 50.9093 123.145 51.3055 123.825 51.9915C124.506 52.6775 124.894 53.6 124.91 54.5661C124.926 55.5322 124.567 56.4669 123.909 57.1745Z" fill="#E2F2D9"/>
<path d="M164.252 97.3663C163.718 97.9001 163.038 98.2635 162.297 98.4106C161.556 98.5577 160.788 98.4819 160.09 98.1927C159.393 97.9036 158.796 97.4141 158.377 96.7862C157.957 96.1582 157.733 95.4199 157.733 94.6647C157.733 93.9095 157.957 93.1713 158.377 92.5433C158.796 91.9154 159.393 91.4259 160.09 91.1367C160.788 90.8476 161.556 90.7718 162.297 90.9189C163.038 91.066 163.718 91.4294 164.252 91.9632C164.957 92.6859 165.351 93.6554 165.351 94.6647C165.351 95.6741 164.957 96.6435 164.252 97.3663Z" fill="#E2F2D9"/>
<path d="M14.3447 39.141L27.4471 15.4219L29.2284 16.4323L16.1346 40.1428L14.3447 39.141Z" fill="#E2F2D9"/>
<path d="M-1.76245 24.6695L-1.5826 0L1.34616 0.0428299L1.1663 24.7638L-1.76245 24.6695Z" fill="#E2F2D9"/>
<path d="M32.2001 15.8762C32.2013 16.3794 32.1023 16.8778 31.909 17.3424C31.7156 17.807 31.4317 18.2285 31.0739 18.5824C30.716 18.9362 30.2914 19.2153 29.8246 19.4034C29.3578 19.5915 28.8583 19.6849 28.355 19.6781C27.8581 19.6781 27.3661 19.5794 26.9077 19.3878C26.4492 19.1961 26.0334 18.9152 25.6844 18.5615C25.3355 18.2077 25.0603 17.7882 24.8748 17.3272C24.6894 16.8662 24.5974 16.373 24.6042 15.8762C24.5949 15.3811 24.6855 14.8892 24.8707 14.43C25.0559 13.9707 25.3319 13.5536 25.682 13.2035C26.0322 12.8533 26.4494 12.5774 26.9087 12.3922C27.368 12.207 27.8599 12.1163 28.355 12.1256C28.8543 12.1177 29.3501 12.2086 29.8141 12.3931C30.278 12.5776 30.7008 12.8521 31.0582 13.2007C31.4156 13.5493 31.7005 13.9652 31.8965 14.4244C32.0925 14.8836 32.1957 15.377 32.2001 15.8762Z" fill="#E2F2D9"/>
<path d="M106.465 202.991C121.485 188.014 138.793 202.802 139.007 202.897L137.911 204.318C137.131 203.719 121.52 190.532 107.878 204.267L106.465 202.991Z" fill="#E2F2D9"/>
<path d="M118.643 199.369C118.643 194.514 120.295 189.205 125.237 184.076L126.615 185.361C116.493 195.713 121.032 207.016 124.689 212.873L123.181 213.729C121.032 210.27 118.643 205.226 118.643 199.369Z" fill="#E2F2D9"/>
<path d="M107.654 229.765L108.939 228.395C122.718 242.215 138.338 228.943 138.972 228.395L140.162 229.859C139.982 229.902 122.718 244.69 107.654 229.765Z" fill="#E2F2D9"/>
<path d="M119.814 232.652C119.814 227.069 122.384 222.377 124.302 219.148L125.775 220.107C123.711 223.533 120.919 228.944 121.835 235.084C122.015 239.108 123.891 242.953 127.051 246.575L125.681 247.714C122.195 243.827 120.277 239.562 120.003 235.264C119.926 234.348 119.814 233.474 119.814 232.652Z" fill="#E2F2D9"/>
<path d="M85.8594 149.514V147.639C105.273 147.639 106.926 127.31 107.02 126.488L108.733 126.574C108.759 126.865 106.969 149.514 85.8594 149.514Z" fill="#E2F2D9"/>
<path d="M90.0312 130.241L91.8211 129.83C92.823 133.769 94.7498 139.489 99.6911 143.197C102.757 145.903 106.542 147.41 111.5 147.641L111.415 149.465C106.191 149.191 101.704 147.504 98.5692 144.618C93.1913 140.568 91.1788 134.454 90.0312 130.241Z" fill="#E2F2D9"/>
<path d="M12.4258 76.9049L13.796 75.6719C13.8902 75.9459 28.6283 93.2086 13.7018 108.211L12.4258 106.926C26.1619 93.0716 12.9739 77.5471 12.4258 76.9049Z" fill="#E2F2D9"/>
<path d="M3.04102 91.5123L3.95731 90.0481C7.47697 92.1546 12.8806 94.8947 19.0208 93.987C23.3052 93.5982 27.3274 91.7549 30.419 88.7637L31.6522 90.0909C27.6272 93.5674 23.551 95.5369 19.2006 95.8109C12.5124 96.7271 6.83471 93.7986 3.04102 91.5123Z" fill="#E2F2D9"/>
<path d="M66.1719 131.337C66.1719 110.187 88.7971 108.363 89.1139 108.363L89.2081 110.187C88.2404 110.239 67.9189 111.9 67.9189 131.337V131.432H66.2062L66.1719 131.337Z" fill="#E2F2D9"/>
<path d="M65.9932 104.699H67.8257C68.0056 119.162 79.1811 123.923 85.8608 125.481L85.5011 127.194C78.3505 125.575 66.173 120.395 65.9932 104.699Z" fill="#E2F2D9"/>
<path d="M84.4902 282.24C105.642 282.24 107.475 304.855 107.475 305.129L105.642 305.214C105.642 304.298 103.93 283.978 84.4902 283.978V282.24Z" fill="#E2F2D9"/>
<path d="M88.6094 301.464C90.3221 294.229 95.2976 282.241 111.046 282.146V283.859C96.625 283.953 91.9064 295.299 90.3992 301.892L88.6094 301.464Z" fill="#E2F2D9"/>
<path d="M-52.8623 215.92C-52.8758 205.489 -49.795 195.287 -44.0096 186.606C-38.2242 177.925 -29.9941 171.155 -20.3602 167.152C-10.7263 163.148 -0.121319 162.091 10.1133 164.115C20.3478 166.139 29.7523 171.152 37.1372 178.521C44.522 185.889 49.5556 195.282 51.6011 205.512C53.6466 215.741 52.6122 226.347 48.6287 235.988C44.6453 245.63 37.8917 253.874 29.2223 259.677C20.5528 265.48 10.3569 268.582 -0.0758858 268.59C-14.0564 268.59 -27.466 263.045 -37.3622 253.17C-47.2583 243.296 -52.8328 229.9 -52.8623 215.92ZM51.5201 215.92C51.5269 205.719 48.5084 195.745 42.8463 187.259C37.1842 178.773 29.1327 172.156 19.71 168.245C10.2872 164.334 -0.0837975 163.304 -10.0916 165.287C-20.0995 167.269 -29.2947 172.174 -36.5148 179.381C-43.735 186.589 -48.6556 195.775 -50.6547 205.779C-52.6538 215.782 -51.6416 226.154 -47.7459 235.582C-43.8503 245.011 -37.2462 253.072 -28.7687 258.748C-20.2912 264.424 -10.321 267.458 -0.11869 267.469C13.5571 267.453 26.6695 262.019 36.3478 252.358C46.026 242.697 51.4816 229.595 51.5201 215.92Z" fill="#E2F2D9"/>
<path d="M-57.7861 215.92C-57.7794 204.516 -54.3918 193.371 -48.0517 183.892C-41.7115 174.414 -32.7034 167.027 -22.1658 162.667C-11.6283 158.306 -0.0343552 157.167 11.1505 159.393C22.3354 161.619 32.6092 167.111 40.6733 175.175C48.7374 183.238 54.2298 193.511 56.4564 204.695C58.6829 215.878 57.5436 227.471 53.1825 238.008C48.8214 248.544 41.4342 257.552 31.9546 263.891C22.4751 270.231 11.3287 273.618 -0.0756645 273.625C-15.3766 273.609 -30.0462 267.524 -40.8656 256.706C-51.685 245.887 -57.7703 231.219 -57.7861 215.92ZM56.3331 215.92C56.3331 204.737 53.0154 193.806 46.8 184.51C40.5845 175.214 31.7507 167.97 21.4165 163.696C11.0823 159.422 -0.287685 158.309 -11.2545 160.499C-22.2214 162.689 -32.2921 168.082 -40.1921 175.997C-48.0922 183.912 -53.4664 193.992 -55.6346 204.963C-57.8029 215.933 -56.6677 227.299 -52.3727 237.624C-48.0778 247.949 -40.8162 256.768 -31.5068 262.964C-22.1975 269.161 -11.259 272.456 -0.0756645 272.434C14.8951 272.405 29.2426 266.438 39.8181 255.842C50.3936 245.247 56.3331 230.889 56.3331 215.92Z" fill="#E2F2D9"/>
</svg>
