<svg width="155" height="224" viewBox="0 0 155 224" fill="none" xmlns="http://www.w3.org/2000/svg">
<path d="M76.499 68.5007C76.499 24.9769 111.942 -10.4316 155.47 -10.4316C198.998 -10.4316 234.44 24.9954 234.44 68.5007C234.44 112.006 198.991 147.433 155.501 147.433C112.01 147.433 76.499 112.037 76.499 68.5007ZM232.424 68.5007C232.414 48.1027 224.307 28.5426 209.884 14.1173C195.46 -0.308086 175.9 -8.41897 155.501 -8.43367C113.114 -8.43367 78.4725 26.0191 78.4725 68.5192C78.4725 111.019 113.083 145.534 155.501 145.534C197.918 145.534 232.424 110.982 232.424 68.5007Z" fill="#E2F2D9"/>
<path d="M103.239 68.4966C103.237 58.1608 106.3 48.0565 112.041 39.4615C117.782 30.8665 125.943 24.1668 135.492 20.2098C145.041 16.2528 155.55 15.2162 165.688 17.2311C175.826 19.246 185.139 24.2219 192.449 31.5295C199.759 38.8371 204.738 48.1482 206.755 58.2851C208.773 68.4221 207.739 78.9296 203.784 88.4788C199.828 98.028 193.13 106.19 184.536 111.932C175.941 117.675 165.837 120.74 155.5 120.74C141.645 120.728 128.361 115.221 118.563 105.426C108.765 95.6316 103.254 82.35 103.239 68.4966ZM206.231 68.4966C206.221 58.463 203.237 48.6575 197.654 40.3198C192.072 31.9821 184.143 25.4865 174.869 21.6541C165.595 17.8218 155.394 16.8247 145.553 18.789C135.713 20.7534 126.676 25.5909 119.585 32.69C112.494 39.7891 107.667 48.8312 105.714 58.673C103.761 68.5148 104.771 78.7145 108.615 87.9827C112.459 97.2509 118.965 105.171 127.31 110.743C135.655 116.315 145.465 119.287 155.5 119.285C168.954 119.252 181.846 113.888 191.351 104.368C200.857 94.8484 206.201 81.949 206.213 68.4966H206.231Z" fill="#E2F2D9"/>
<path d="M108.334 68.4975C108.339 59.1767 111.107 50.0666 116.289 42.3187C121.471 34.5707 128.834 28.5329 137.447 24.9682C146.06 21.4035 155.537 20.4721 164.679 22.2917C173.821 24.1113 182.219 28.6002 188.81 35.191C195.402 41.7818 199.891 50.1786 201.711 59.3201C203.53 68.4616 202.599 77.9373 199.034 86.5495C195.469 95.1618 189.431 102.524 181.682 107.705C173.933 112.887 164.822 115.655 155.501 115.66C142.995 115.647 131.006 110.674 122.163 101.832C113.321 92.99 108.347 81.0017 108.334 68.4975ZM201.199 68.4975C201.196 59.4608 198.512 50.6281 193.489 43.1161C188.465 35.6041 181.327 29.7502 172.976 26.2946C164.625 22.8389 155.437 21.9366 146.574 23.7019C137.71 25.4671 129.569 29.8205 123.18 36.2117C116.791 42.6029 112.44 50.7449 110.679 59.6083C108.917 68.4716 109.823 77.6583 113.282 86.0068C116.742 94.3553 122.599 101.491 130.114 106.511C137.628 111.531 146.463 114.21 155.501 114.21C167.617 114.188 179.23 109.364 187.796 100.795C196.362 92.2267 201.181 80.6126 201.199 68.4975Z" fill="#E2F2D9"/>
<path d="M149.716 -9.22791L151.184 -9.35742L152.861 17.0849L151.399 17.2144L149.716 -9.22791Z" fill="#E2F2D9"/>
<path d="M140.088 -7.97692L141.488 -8.20508L146.434 17.8056L145.034 18.0708L140.088 -7.97692Z" fill="#E2F2D9"/>
<path d="M130.659 -5.40458L131.991 -5.83008L140.15 19.3234L138.818 19.8537L130.659 -5.40458Z" fill="#E2F2D9"/>
<path d="M121.507 -1.7092L122.845 -2.33203L134.137 21.6313L132.799 22.2912L121.507 -1.7092Z" fill="#E2F2D9"/>
<path d="M113.015 3.0403L114.217 2.34961L128.445 24.6665L127.181 25.4928L113.015 3.0403Z" fill="#E2F2D9"/>
<path d="M105.181 8.94214L106.254 7.98633L123.103 28.4286L121.968 29.3474L105.181 8.94214Z" fill="#E2F2D9"/>
<path d="M98.0288 15.7029L99.0341 14.6484L118.356 32.8152L117.289 33.9005L98.0288 15.7029Z" fill="#E2F2D9"/>
<path d="M91.812 23.3172L92.7556 22.1641L114.217 37.7224L113.28 38.9125L91.812 23.3172Z" fill="#E2F2D9"/>
<path d="M86.7368 31.6599L87.3967 30.3711L110.61 43.1668L109.932 44.4494L86.7368 31.6599Z" fill="#E2F2D9"/>
<path d="M82.5791 40.559L83.1897 39.1777L107.858 48.9333L107.26 50.3208L82.5791 40.559Z" fill="#E2F2D9"/>
<path d="M79.6504 49.9165L80.0451 48.5352L105.645 55.0964L105.25 56.5456L79.6504 49.9165Z" fill="#E2F2D9"/>
<path d="M77.9658 59.5468L78.1817 58.0977L104.38 61.4585L104.176 62.9754L77.9658 59.5468Z" fill="#E2F2D9"/>
<path d="M77.4365 69.3396V67.8535L103.918 67.9213V69.3396H77.4365Z" fill="#E2F2D9"/>
<path d="M77.9658 77.6169L104.176 74.4473L104.441 75.8347L78.1817 79.0969L77.9658 77.6169Z" fill="#E2F2D9"/>
<path d="M79.7114 87.2429L105.385 80.6816L105.731 82.2295L80.1061 88.692L79.7114 87.2429Z" fill="#E2F2D9"/>
<path d="M82.6465 96.6041L107.327 86.9102L107.858 88.3285L83.257 97.9545L82.6465 96.6041Z" fill="#E2F2D9"/>
<path d="M86.7368 105.511L109.932 92.7832L110.61 94.035L87.5324 106.831L86.7368 105.511Z" fill="#E2F2D9"/>
<path d="M91.8794 113.816L113.347 98.252L114.217 99.5099L92.823 115.007L91.8794 113.816Z" fill="#E2F2D9"/>
<path d="M98.0967 121.462L117.418 103.4L118.424 104.455L99.1019 122.455L98.0967 121.462Z" fill="#E2F2D9"/>
<path d="M105.181 128.193L122.098 107.887L123.171 108.806L106.322 129.087L105.181 128.193Z" fill="#E2F2D9"/>
<path d="M113.083 134.061L127.242 111.707L128.531 112.533L114.353 134.85L113.083 134.061Z" fill="#E2F2D9"/>
<path d="M121.575 138.773L132.867 114.902L134.199 115.599L122.907 139.402L121.575 138.773Z" fill="#E2F2D9"/>
<path d="M130.659 142.495L138.88 117.379L140.218 117.841L132.139 142.927L130.659 142.495Z" fill="#E2F2D9"/>
<path d="M140.149 145.005L145.163 119.025L146.582 119.42L141.556 145.27L140.149 145.005Z" fill="#E2F2D9"/>
<path d="M149.783 146.356L151.529 119.914L152.996 120.05L151.245 146.424L149.783 146.356Z" fill="#E2F2D9"/>
<path d="M65.7305 -12.4604C65.7305 -16.0247 65.9278 -18.7935 66.0635 -20.2118V-20.44L67.0009 -20.5078L67.0687 -20.2118C66.4088 -13.8479 64.3305 18.132 85.6628 27.9246L88.1297 29.1579L87.6486 30.0151L85.1817 28.8311C68.2035 21.0118 65.7305 -0.299904 65.7305 -12.4604Z" fill="#E2F2D9"/>
<path d="M66.1445 -20.5729L66.2124 -20.7024H66.3419L66.4097 -20.7702L67.0696 -20.8319C78.5776 -21.6891 106.453 -21.4917 115.618 -1.51198L116.759 1.0595L115.883 1.42332L114.68 -1.18515C105.793 -20.5051 78.4419 -20.7024 67.193 -19.8453H66.8661L66.7304 -19.7774H66.2679L66.1445 -20.5729Z" fill="#E2F2D9"/>
<path d="M29.3628 68.8448L29.9795 68.1172L30.2632 68.3823C35.9308 75.2396 56.0605 97.131 77.3989 89.2192L80.0693 88.3313L80.3283 89.2192L77.7936 90.0826C55.8015 98.2595 35.2709 75.9734 29.517 68.9867L29.3628 68.8448Z" fill="#E2F2D9"/>
<path d="M29.2949 68.58L29.3628 68.4505V68.321L29.7575 67.8585C37.3246 59.0896 57.1089 39.5662 77.7689 47.1819L80.3036 48.2056L79.9768 49.0627L77.3742 48.1069C57.3741 40.707 37.9043 59.8789 30.5654 68.5183L30.3002 68.7156V68.8451L30.0227 69.209L29.2949 68.58Z" fill="#E2F2D9"/>
<path d="M66.4707 157.008L66.7359 156.94L66.8716 157.008C75.7708 157.828 105.379 159.049 114.877 138.342L116.03 135.838L117.035 136.233L115.82 138.798C106.058 159.962 75.8386 158.808 66.8037 157.988L66.5385 158.056L66.4707 157.008Z" fill="#E2F2D9"/>
<path d="M65.8672 150.11C65.8672 136.723 68.8151 116.12 85.3986 108.474L87.9395 107.24L88.402 108.196L85.8612 109.251C66.4099 118.217 66.342 145.516 67.0698 156.795L67.1315 157.122L67.2671 157.257V157.683L66.4099 157.812L66.2125 157.751V157.615L66.1447 157.553V156.937C65.9967 155.025 65.8672 152.719 65.8672 150.11Z" fill="#E2F2D9"/>
<path d="M132.465 155.917C132.432 152.634 132.996 149.372 134.13 146.291L135.142 143.621L136.079 143.985L135.074 146.587C127.673 166.567 146.841 186.053 155.426 193.453L155.691 193.712H155.82L156.153 193.947L155.5 194.724L155.432 194.656H155.302L154.84 194.199C147.439 187.799 132.465 172.801 132.465 155.917Z" fill="#E2F2D9"/>
<path d="M56.6456 -18.0035C56.6408 -21.6383 56.8467 -25.2704 57.2623 -28.8814L58.8658 -28.9492V-28.6162C58.8658 -28.1537 52.4519 22.289 84.2869 36.7928L83.6702 38.279C60.0437 27.5614 56.6456 -1.91488 56.6456 -18.0035Z" fill="#E2F2D9"/>
<path d="M17.0659 69.1159L18.2007 67.9258L18.3302 68.0614C18.731 68.5856 50.1528 108.761 82.6477 96.4833L83.2644 97.9633C49.6964 110.79 18.472 70.8981 17.2016 69.2146L17.0659 69.1159Z" fill="#E2F2D9"/>
<path d="M17.0659 68.2469L17.1954 68.1112C18.4659 66.4648 49.7581 26.6409 83.2582 39.3626L82.6415 40.9166C50.2761 28.5834 19.7363 67.5871 18.3919 69.2027L18.1945 69.4001L17.0659 68.2469Z" fill="#E2F2D9"/>
<path d="M58.0581 165.145H58.3233C58.8537 165.213 109.264 171.576 123.794 139.658L125.323 140.386C110.276 173.291 58.5885 166.828 58.0581 166.76V165.145Z" fill="#E2F2D9"/>
<path d="M56.8258 155.585C56.8258 139.262 60.2424 109.657 83.7023 98.9082L84.4424 100.357C54.291 114.207 58.3614 160.63 59.0336 165.902V166.297H57.3561V165.97C56.9985 162.52 56.8215 159.054 56.8258 155.585Z" fill="#E2F2D9"/>
<path d="M154.884 206.229V205.865L155.15 205.606C161.81 200.198 194.786 171.647 183.377 141.313L184.826 140.752C196.667 171.776 163.592 200.821 156.401 206.66C156.17 206.942 155.843 207.129 155.483 207.185V205.538C155.397 205.54 155.312 205.56 155.234 205.597C155.156 205.633 155.087 205.686 155.03 205.751C154.974 205.816 154.932 205.892 154.907 205.974C154.882 206.057 154.874 206.143 154.884 206.229Z" fill="#E2F2D9"/>
<path d="M123.911 154.215C123.897 149.608 124.733 145.038 126.378 140.734L127.914 141.296C116.646 171.58 149.45 200.199 156.116 205.607L156.443 205.866V206.23C156.454 206.139 156.445 206.047 156.417 205.96C156.388 205.873 156.34 205.794 156.277 205.728C156.214 205.662 156.137 205.611 156.051 205.578C155.966 205.545 155.874 205.532 155.783 205.539V207.186C155.616 207.182 155.453 207.13 155.313 207.038C155.173 206.945 155.063 206.814 154.994 206.661C148.771 201.697 123.911 179.855 123.911 154.215Z" fill="#E2F2D9"/>
<path d="M76.9795 33.0711L86.6681 30.2715L86.9333 31.2273L77.1768 34.027L76.9795 33.0711Z" fill="#E2F2D9"/>
<path d="M117.153 -0.259082L120.107 -10.1133L121.094 -9.78647L118.097 0.0739002L117.153 -0.259082Z" fill="#E2F2D9"/>
<path d="M17.5957 68.9769V67.9902H17.9904H29.6957L29.8931 68.0519L29.7574 68.9769H29.6279H17.9904H17.5957Z" fill="#E2F2D9"/>
<path d="M26.2793 77.7469L33.7169 72.8691L34.1794 73.6893L26.8282 78.6349L26.2793 77.7469Z" fill="#E2F2D9"/>
<path d="M31.5093 82.5616L38.9284 77.875L39.3909 78.7013L32.0335 83.3509L31.5093 82.5616Z" fill="#E2F2D9"/>
<path d="M39.7358 88.6912L46.4087 83.6777L47.0193 84.5411L40.2601 89.5483L39.7358 88.6912Z" fill="#E2F2D9"/>
<path d="M36.042 86.2177L42.6039 80.9453L43.1959 81.7038L36.6525 86.9763L36.042 86.2177Z" fill="#E2F2D9"/>
<path d="M50.8315 94.9556L57.7203 89.418L58.3185 90.1765L51.3558 95.7141L50.8315 94.9556Z" fill="#E2F2D9"/>
<path d="M57.7876 96.7411L65.8666 91L66.4093 91.7955L58.2501 97.5613L57.7876 96.7411Z" fill="#E2F2D9"/>
<path d="M65.7998 98.9779L74.9642 90.0117L75.6241 90.7394L66.4782 99.6378L65.7998 98.9779Z" fill="#E2F2D9"/>
<path d="M74.833 98.9804L79.7113 90.082L80.6548 90.6432L75.7704 99.4429L74.833 98.9804Z" fill="#E2F2D9"/>
<path d="M21.5986 72.8024L31.6388 70.4961L31.904 71.5198L21.8145 73.7582L21.5986 72.8024Z" fill="#E2F2D9"/>
<path d="M57.6387 165.645L57.9162 165.411L66.3406 157.006L66.9326 157.764L66.8031 157.894L58.3171 166.367L57.6387 165.645Z" fill="#E2F2D9"/>
<path d="M70.6768 166.431L72.4899 157.699L73.3657 157.89L71.6204 166.696L70.6768 166.431Z" fill="#E2F2D9"/>
<path d="M77.7695 166.037L79.6505 157.564L80.5879 157.762L78.707 166.303L77.7695 166.037Z" fill="#E2F2D9"/>
<path d="M87.938 164.786L89.0789 156.344L90.0842 156.473L88.9432 164.884L87.938 164.786Z" fill="#E2F2D9"/>
<path d="M83.5908 165.451L84.4604 157.139L85.4657 157.274L84.5961 165.513L83.5908 165.451Z" fill="#E2F2D9"/>
<path d="M100.174 161.359L101.179 152.393L102.117 152.553L101.179 161.427L100.174 161.359Z" fill="#E2F2D9"/>
<path d="M106.391 157.634L107.92 147.842L108.925 147.94L107.328 157.764L106.391 157.634Z" fill="#E2F2D9"/>
<path d="M113.545 153.413L113.81 140.691H114.748L114.618 153.413H113.545Z" fill="#E2F2D9"/>
<path d="M63.7998 166.172L69.3441 157.434L70.152 158.032L64.7249 166.702L63.7998 166.172Z" fill="#E2F2D9"/>
<path d="M57.6387 152.65L66.4762 151.004L66.6058 151.991L57.9162 153.545L57.6387 152.65Z" fill="#E2F2D9"/>
<path d="M58.0464 145.4L66.4769 143.686L66.7359 144.611L58.1142 146.424L58.0464 145.4Z" fill="#E2F2D9"/>
<path d="M59.2559 135.183L67.6802 134.129L67.8776 135.116L59.3854 136.17L59.2559 135.183Z" fill="#E2F2D9"/>
<path d="M58.5762 139.666L67.0005 138.771L67.0684 139.795L58.644 140.554L58.5762 139.666Z" fill="#E2F2D9"/>
<path d="M62.5986 122.853L71.4855 121.965L71.6212 122.988L62.7343 123.809L62.5986 122.853Z" fill="#E2F2D9"/>
<path d="M66.2119 116.622L76.104 115.068L76.3014 116.061L66.3414 117.578L66.2119 116.622Z" fill="#E2F2D9"/>
<path d="M57.6387 159.741L66.4762 154.234L67.0004 155.092L58.1814 160.567L57.6387 159.741Z" fill="#E2F2D9"/>
<path d="M145.842 197.163L150.917 189.844L151.725 190.374L146.65 197.755L145.842 197.163Z" fill="#E2F2D9"/>
<path d="M140.896 191.891L145.707 184.633L146.583 185.095L141.704 192.415L140.896 191.891Z" fill="#E2F2D9"/>
<path d="M134.612 183.642L139.824 176.914L140.564 177.574L135.34 184.369L134.612 183.642Z" fill="#E2F2D9"/>
<path d="M137.221 187.339L142.623 180.809L143.369 181.468L138.01 187.931L137.221 187.339Z" fill="#E2F2D9"/>
<path d="M128.186 172.6L133.94 165.645L134.742 166.304L128.994 173.162L128.186 172.6Z" fill="#E2F2D9"/>
<path d="M126.384 165.643L132.206 157.564L133.063 158.126L127.18 166.235L126.384 165.643Z" fill="#E2F2D9"/>
<path d="M124.244 157.499L133.409 148.336L134.068 149.027L124.916 158.196L124.244 157.499Z" fill="#E2F2D9"/>
<path d="M124.375 148.2L133.477 143.359L133.94 144.278L124.917 149.094L124.375 148.2Z" fill="#E2F2D9"/>
<path d="M150.849 202.178L153.193 192.09L154.149 192.355L151.725 202.376L150.849 202.178Z" fill="#E2F2D9"/>
<path d="M35.1162 19.7827L35.6466 18.4322C52.6248 25.3265 61.7276 15.7004 62.7328 14.5781L63.7998 15.5648C62.7328 16.7549 53.038 27.0408 35.1162 19.7827Z" fill="#E2F2D9"/>
<path d="M35.1177 20.1142L35.6481 18.7637C50.7638 25.5901 52.4289 36.9921 52.4289 41.7404L50.9611 41.8082V41.7404C50.9611 37.3559 49.3638 26.5644 35.1177 20.1142Z" fill="#E2F2D9"/>
<path d="M49.3633 25.62L49.758 24.7321C58.9224 28.654 65.0711 25.8482 67.9388 23.8379L68.5555 24.5964C65.5336 26.7732 58.9224 29.7393 49.3633 25.62Z" fill="#E2F2D9"/>
<path d="M49.147 25.7868L49.5602 24.9297C57.9845 28.8825 60.8523 34.5557 61.8945 38.5764L60.8831 38.7737C60.0444 34.9812 57.1766 29.6101 49.147 25.7868Z" fill="#E2F2D9"/>
<path d="M35.3145 117.832C52.231 110.71 51.898 97.4826 51.7685 96.0396L53.1684 95.9102C53.3658 97.5566 53.7851 111.635 35.9003 119.152L35.3145 117.832Z" fill="#E2F2D9"/>
<path d="M35.5796 118.101C51.1579 112.231 60.458 119.285 63.6526 122.418L62.598 123.54C58.8422 119.618 50.2636 114.05 36.1902 119.39L35.5796 118.101Z" fill="#E2F2D9"/>
<path d="M49.7573 112.281C58.9217 108.754 61.3948 102.229 62.0547 98.8008L62.9921 98.9303C62.252 102.63 59.779 109.383 50.0842 113.237L49.7573 112.281Z" fill="#E2F2D9"/>
<path d="M49.7573 112.525C58.5085 109.491 64.5955 111.372 68.1417 113.548L67.6113 114.307C64.2625 112.26 58.4469 110.484 50.0225 113.481L49.7573 112.525Z" fill="#E2F2D9"/>
<path d="M101.575 161.354L102.512 160.17C103.715 161.292 114.088 170.918 106.718 188.857L105.38 188.327C112.207 171.313 102.642 162.23 101.575 161.354Z" fill="#E2F2D9"/>
<path d="M105.793 188.327C112.577 173.163 124.042 171.578 128.79 171.578V173.027C123.302 173.027 113.28 175.075 107.131 188.919L105.793 188.327Z" fill="#E2F2D9"/>
<path d="M110.738 155.986L111.528 155.369C113.674 158.502 116.69 165.125 112.601 174.621L111.682 174.227C115.617 165.088 112.73 158.921 110.738 155.986Z" fill="#E2F2D9"/>
<path d="M111.88 174.446C115.882 166.041 121.507 163.106 125.509 162.113L125.713 163.069C121.969 164.025 116.622 166.769 112.731 174.872L111.88 174.446Z" fill="#E2F2D9"/>
<path d="M66.2119 -5.37136C70.6769 -6.85134 79.5145 -7.97365 88.4692 0.863071L87.8094 1.58455C79.5823 -6.52452 71.6822 -6.12984 66.6066 -4.41553L66.2119 -5.37136Z" fill="#E2F2D9"/>
<path d="M80.7856 -14.7535C80.747 -16.7118 81.0368 -18.6628 81.6429 -20.5254L82.5124 -20.1924C81.279 -16.1718 80.3724 -8.02572 88.729 0.774002L87.9396 1.43383C82.2534 -4.54776 80.7856 -10.3197 80.7856 -14.7535Z" fill="#E2F2D9"/>
<path d="M40.1748 79.3272C42.7157 74.3199 48.2723 68.1842 60.3045 68.0547V68.9797C48.7349 69.2078 43.4558 74.9798 41.0506 79.7897L40.1748 79.3272Z" fill="#E2F2D9"/>
<path d="M40.3281 57.7677L41.1977 57.373C43.1959 61.1285 48.2899 67.5911 60.3899 67.7884L60.3221 68.8429C47.7472 68.4482 42.4065 61.7575 40.3281 57.7677Z" fill="#E2F2D9"/>
<path d="M80.5879 151.531C80.5879 146.98 82.1852 141.313 87.8097 135.498L88.5312 136.22C80.5139 144.464 80.9148 152.253 82.5121 157.359L81.6425 157.753C80.9426 155.754 80.5861 153.65 80.5879 151.531Z" fill="#E2F2D9"/>
<path d="M66.4712 142.365L66.7364 141.44C70.8067 142.673 78.972 143.617 87.6554 135.311L88.4695 136.032C79.3174 144.61 70.745 143.728 66.4712 142.365Z" fill="#E2F2D9"/>
<path d="M144.307 182.79C148.112 180.811 154.545 175.735 154.872 163.6H155.797C155.501 176.26 148.717 181.6 144.77 183.647L144.307 182.79Z" fill="#E2F2D9"/>
<path d="M68.0747 6.00324C68.2721 5.86757 83.9799 -3.32682 100.761 12.7865L99.7678 13.841C83.7332 -1.52001 69.006 7.11322 68.8086 7.24888L68.0747 6.00324Z" fill="#E2F2D9"/>
<path d="M90.3438 -7.84615C90.3438 -14.4382 92.9525 -18.7918 93.0141 -18.8535L94.2476 -18.0642C93.8467 -17.4475 85.817 -3.36305 101.068 12.5283L99.9954 13.6136C92.4036 5.67101 90.3438 -1.91389 90.3438 -7.84615Z" fill="#E2F2D9"/>
<path d="M49.4917 86.0217C49.5595 85.923 54.1109 68.2496 77.3735 67.7871L77.4352 69.2054C55.3135 69.7666 50.9595 86.219 50.9595 86.4164L49.4917 86.0217Z" fill="#E2F2D9"/>
<path d="M49.4917 50.9747L50.9595 50.5801C51.089 51.2399 55.3135 67.0017 77.4352 67.458L77.3735 68.9812C54.1109 68.4509 49.5595 51.1104 49.4917 50.9747Z" fill="#E2F2D9"/>
<path d="M90.3445 144.543C90.3445 138.574 92.2749 131.026 99.7741 123.176L100.767 124.267C85.4663 140.257 94.1558 154.958 94.2237 155.1L92.9902 155.92C91.1936 152.4 90.2853 148.494 90.3445 144.543Z" fill="#E2F2D9"/>
<path d="M68.0747 131.026L68.8148 129.793C69.4315 130.126 83.5852 138.303 99.5643 123.01L100.502 124.033C83.7208 140.122 68.2721 131.125 68.0747 131.026Z" fill="#E2F2D9"/>
<path d="M154.809 146.584H156.258C156.653 168.673 172.644 172.897 173.403 173.026L173.076 174.512C172.767 174.445 155.203 169.863 154.809 146.584Z" fill="#E2F2D9"/>
<path d="M137.548 173.026C138.22 172.897 153.953 168.673 154.409 146.584H155.864C155.402 169.863 138.091 174.445 137.943 174.512L137.548 173.026Z" fill="#E2F2D9"/>
<path d="M26.693 26.6465C26.6839 22.9082 27.4118 19.2047 28.8351 15.7479C30.2584 12.291 32.3491 9.14857 34.9878 6.50022C38.0733 3.36375 41.8542 0.997992 46.0242 -0.405464C50.1943 -1.80892 54.6363 -2.21062 58.9905 -1.57802L58.7068 0.0684721C54.6062 -0.507573 50.4277 -0.115435 46.5059 1.21347C42.5842 2.54238 39.0281 4.77113 36.1226 7.72121C33.6256 10.2133 31.6445 13.1734 30.2929 16.4319C28.9412 19.6905 28.2455 23.1835 28.2455 26.7112C28.2455 30.2389 28.9412 33.732 30.2929 36.9905C31.6445 40.2491 33.6256 43.2091 36.1226 45.7013C37.0528 46.6379 38.0572 47.4979 39.126 48.2727L38.1146 49.5615C37.0197 48.7329 35.9755 47.8392 34.9878 46.8852C32.323 44.237 30.216 41.0817 28.7913 37.6055C27.3666 34.1294 26.6531 30.403 26.693 26.6465Z" fill="#E2F2D9"/>
<path d="M26.4146 109.855C26.3877 105.463 27.396 101.127 29.3579 97.1968C31.3198 93.267 34.18 89.8547 37.7067 87.2363L38.6503 88.593C32.0205 93.4029 28.0797 101.413 28.0181 109.855C28.0407 117.002 30.8865 123.849 35.9356 128.907C40.9846 133.965 47.8279 136.823 54.9748 136.859L58.9279 136.464L59.1253 138.08C57.7521 138.294 56.3646 138.404 54.9748 138.407C51.2229 138.413 47.5066 137.679 44.039 136.247C40.5714 134.814 37.4206 132.712 34.7674 130.059C32.1141 127.407 30.0105 124.257 28.5771 120.79C27.1438 117.323 26.4089 113.607 26.4146 109.855Z" fill="#E2F2D9"/>
<path d="M85.0522 169.009C85.0645 167.672 85.1799 166.339 85.3976 165.02L87.0011 165.285C86.4104 169.382 86.792 173.561 88.1151 177.484C89.4383 181.407 91.6657 184.964 94.6175 187.867C97.1107 190.374 100.075 192.365 103.34 193.723C106.605 195.081 110.107 195.78 113.643 195.78C117.18 195.78 120.681 195.081 123.946 193.723C127.211 192.365 130.176 190.374 132.669 187.867C133.629 186.938 134.5 185.923 135.272 184.833L136.542 185.819C135.713 186.965 134.798 188.045 133.804 189.051C129.813 193.019 124.739 195.722 119.219 196.82C113.698 197.917 107.976 197.361 102.771 195.221C97.5648 193.081 93.1066 189.452 89.9546 184.789C86.8027 180.127 85.0973 174.637 85.0522 169.009Z" fill="#E2F2D9"/>
<path d="M32.5144 29.6482C32.498 25.8279 33.2463 22.0429 34.7154 18.5162C36.1845 14.9896 38.3445 11.7925 41.0683 9.11346C45.8322 4.18559 52.2765 1.23119 59.1196 0.837891L59.2553 1.95404C52.6564 2.38531 46.4436 5.2172 41.7899 9.91511C36.8513 14.8944 33.961 21.5453 33.6904 28.5528C33.4197 35.5602 35.7885 42.4142 40.3282 47.7595L39.4525 48.555C34.9658 43.2776 32.5061 36.5747 32.5144 29.6482Z" fill="#E2F2D9"/>
<path d="M32.5143 107.45C32.4937 100.613 34.9595 94.0005 39.4524 88.8457L40.3898 89.5734C36.0419 94.3216 33.7786 100.716 33.7169 107.456C33.7364 114.462 36.3846 121.205 41.1377 126.351C45.8907 131.498 52.4024 134.673 59.3847 135.249L59.3168 136.372C52.0428 135.772 45.257 132.471 40.2961 127.118C35.3352 121.765 32.559 114.748 32.5143 107.45Z" fill="#E2F2D9"/>
<path d="M87.8096 164.89L89.0122 164.785C89.3696 171.384 92.1885 177.609 96.9123 182.23C101.915 187.157 108.579 190.034 115.595 190.296C122.611 190.559 129.472 188.188 134.828 183.649L135.488 184.506C129.914 189.242 122.766 191.713 115.458 191.432C108.149 191.152 101.212 188.138 96.0181 182.989C91.1841 178.146 88.2681 171.717 87.8096 164.89Z" fill="#E2F2D9"/>
<path d="M32.5144 29.6482C32.498 25.8279 33.2463 22.0429 34.7154 18.5162C36.1845 14.9896 38.3445 11.7925 41.0683 9.11346C45.8322 4.18559 52.2765 1.23119 59.1196 0.837891L59.2553 1.95404C52.6564 2.38531 46.4436 5.2172 41.7899 9.91511C36.8513 14.8944 33.961 21.5453 33.6904 28.5528C33.4197 35.5602 35.7885 42.4142 40.3282 47.7595L39.4525 48.555C34.9658 43.2776 32.5061 36.5747 32.5144 29.6482Z" fill="#E2F2D9"/>
<path d="M45.8174 1.0622L46.1442 -0.0292969C48.6851 0.661361 51.226 1.35819 53.6312 1.88235L53.366 3.04167C50.9608 2.41268 48.3583 1.75286 45.8174 1.0622Z" fill="#E2F2D9"/>
<path d="M40.6548 3.49506L40.9385 2.37891C41.4627 2.47757 41.8574 2.63791 42.3384 2.77358C42.7999 2.88718 43.2673 2.97569 43.7384 3.03874C45.2062 3.4334 46.7418 3.76023 48.1541 4.27205L47.747 5.36353C46.3486 4.89603 44.9209 4.5211 43.4732 4.24121L42.0547 3.84656C41.66 3.69239 41.1358 3.63072 40.6548 3.49506Z" fill="#E2F2D9"/>
<path d="M36.9785 6.27076L37.2437 5.14844C38.1133 5.34577 38.989 5.61094 39.8647 5.80827C40.8515 6.0056 41.8568 6.3016 42.8003 6.52977L43.195 6.62843C43.4921 6.69129 43.783 6.78002 44.0646 6.89359L43.7377 7.9789C43.4898 7.84509 43.2116 7.77716 42.9298 7.78158L42.5351 7.71991C41.5299 7.45475 40.5246 7.10326 39.5811 6.89359C38.6375 6.68393 37.8543 6.49893 36.9785 6.27076Z" fill="#E2F2D9"/>
<path d="M34.1113 9.1692L34.3087 8.04688C35.7765 8.37987 37.2443 8.77454 38.7922 9.1692C39.4521 9.39736 40.26 9.56386 41.0001 9.78586L40.6547 10.8403C39.927 10.7108 39.1869 10.5135 38.4469 10.3162C37.0252 9.84978 35.5776 9.46681 34.1113 9.1692Z" fill="#E2F2D9"/>
<path d="M31.541 12.3821L31.9357 11.2598L35.858 12.3821C36.6521 12.5453 37.4332 12.7659 38.1954 13.0419L37.8685 14.0964C37.1223 13.8682 36.3329 13.7017 35.525 13.4797C34.1744 13.1282 32.8423 12.7274 31.541 12.3821Z" fill="#E2F2D9"/>
<path d="M36.2513 16.7856C34.173 16.2923 32.1008 15.6324 30.0225 15.1699L36.2513 16.7856Z" fill="#E2F2D9"/>
<path d="M28.5557 19.0285L28.8208 17.8691C30.8486 18.5007 32.907 19.0296 34.988 19.454L34.7043 20.5763C32.6445 20.1138 30.5662 19.5896 28.5557 19.0285Z" fill="#E2F2D9"/>
<path d="M33.7163 23.7119C31.7675 23.0952 29.6953 22.6204 27.8267 22.1641L33.7163 23.7119Z" fill="#E2F2D9"/>
<path d="M27.4819 26.4423L27.6176 25.3262C29.5701 25.6908 31.4932 26.1978 33.3716 26.8432L33.0385 27.8976C31.2201 27.2917 29.3639 26.8056 27.4819 26.4423Z" fill="#E2F2D9"/>
<path d="M33.3903 30.931C31.5401 30.5301 29.69 30.006 27.8398 29.6113L33.3903 30.931Z" fill="#E2F2D9"/>
<path d="M33.7172 34.9829C31.9657 34.4217 30.0169 33.9654 28.3579 33.6016L33.7172 34.9829Z" fill="#E2F2D9"/>
<path d="M29.6895 37.6191C31.1511 37.983 32.7052 38.4455 34.3703 38.908C34.3703 38.908 34.432 38.9696 34.5677 38.908" fill="#E2F2D9"/>
<path d="M31.9663 41.9844C32.5152 42.12 32.8421 42.2495 33.4341 42.3482C34.4393 42.712 35.5124 42.8107 36.5177 43.1375" fill="#E2F2D9"/>
<path d="M39.5207 47.7761C38.5278 47.4431 37.245 47.0793 36.1226 46.8203L39.5207 47.7761Z" fill="#E2F2D9"/>
<path d="M32.5143 107.45C32.4937 100.613 34.9595 94.0005 39.4524 88.8457L40.3898 89.5734C36.0419 94.3216 33.7786 100.716 33.7169 107.456C33.7364 114.462 36.3846 121.205 41.1377 126.351C45.8907 131.498 52.4024 134.673 59.3847 135.249L59.3168 136.372C52.0428 135.772 45.257 132.471 40.2961 127.118C35.3352 121.765 32.559 114.748 32.5143 107.45Z" fill="#E2F2D9"/>
<path d="M29.6895 97.3921C32.0268 96.0416 34.3025 94.6912 36.3808 93.4023L36.9976 94.426C34.8514 95.7086 32.6805 96.9975 30.3185 98.2493L29.6895 97.3921Z" fill="#E2F2D9"/>
<path d="M28.0312 103.164C28.8206 102.732 29.6964 102.208 30.4981 101.678C31.7686 100.956 33.1068 100.161 34.439 99.4395" fill="#E2F2D9"/>
<path d="M27.3535 107.813C29.0372 106.821 30.6345 105.766 32.2873 104.878L33.422 104.188" fill="#E2F2D9"/>
<path d="M33.237 108.475C31.2265 109.597 29.2345 110.781 27.3535 111.835L33.237 108.475Z" fill="#E2F2D9"/>
<path d="M33.63 112.725C31.638 113.816 29.6953 114.938 27.8945 115.925L33.63 112.725Z" fill="#E2F2D9"/>
<path d="M34.5734 116.256C32.7233 117.372 30.8299 118.365 29.0229 119.549L34.5734 116.256Z" fill="#E2F2D9"/>
<path d="M35.8562 119.551C34.0554 120.605 32.3101 121.826 30.5093 122.714L35.8562 119.551Z" fill="#E2F2D9"/>
<path d="M37.6518 122.91C35.8448 123.934 34.044 125.025 32.4282 125.993L37.6518 122.91Z" fill="#E2F2D9"/>
<path d="M39.9261 125.848C38.3103 126.705 36.5157 127.759 34.832 128.882L39.9261 125.848Z" fill="#E2F2D9"/>
<path d="M42.5363 128.314C40.939 129.338 39.2554 130.226 37.7197 131.25L42.5363 128.314Z" fill="#E2F2D9"/>
<path d="M45.6687 130.891C44.0372 131.73 42.4576 132.667 40.9385 133.696L45.6687 130.891Z" fill="#E2F2D9"/>
<path d="M44.6143 135.64C45.9464 134.85 47.4141 134.061 48.8819 133.136C48.8992 133.146 48.9182 133.151 48.9377 133.153C48.9573 133.154 48.9769 133.152 48.9955 133.146C49.014 133.139 49.0311 133.129 49.0455 133.116C49.0599 133.102 49.0714 133.086 49.0793 133.068" fill="#E2F2D9"/>
<path d="M49.3633 137.157C49.7549 136.845 50.1812 136.58 50.6337 136.367C51.5572 135.764 52.5147 135.214 53.5015 134.721" fill="#E2F2D9"/>
<path d="M58.8414 135.838C57.7595 136.333 56.727 136.93 55.7578 137.62L58.8414 135.838Z" fill="#E2F2D9"/>
<path d="M87.8096 164.89L89.0122 164.785C89.3696 171.384 92.1885 177.609 96.9123 182.23C101.915 187.157 108.579 190.034 115.595 190.296C122.611 190.559 129.472 188.188 134.828 183.649L135.488 184.506C129.914 189.242 122.766 191.713 115.458 191.432C108.149 191.152 101.212 188.138 96.0181 182.989C91.1841 178.146 88.2681 171.717 87.8096 164.89Z" fill="#E2F2D9"/>
<path d="M86.9331 177.844L87.1305 176.987C87.6547 174.841 88.333 172.534 88.9436 170.357L89.9982 170.653C89.474 172.799 88.8634 175.075 88.2035 177.245L88.0062 178.17L86.9331 177.844Z" fill="#E2F2D9"/>
<path d="M89.9312 183.196C90.147 182.24 90.3444 181.346 90.6095 180.359C90.9426 178.941 91.2879 177.393 91.7443 176.006" fill="#E2F2D9"/>
<path d="M92.688 186.899C93.0827 185.049 93.5452 183.199 94.0879 181.349C94.2236 180.954 94.3531 180.362 94.421 180.066" fill="#E2F2D9"/>
<path d="M97.2208 183.195C96.6966 185.372 96.0182 187.678 95.5557 189.72L97.2208 183.195Z" fill="#E2F2D9"/>
<path d="M100.501 185.951C99.8843 188.128 99.3601 190.366 98.7681 192.284L100.501 185.951Z" fill="#E2F2D9"/>
<path d="M103.782 187.734C103.24 189.843 102.58 191.884 102.117 193.901L103.782 187.734Z" fill="#E2F2D9"/>
<path d="M106.995 189.086C106.52 191.263 106.057 193.304 105.447 195.253L106.995 189.086Z" fill="#E2F2D9"/>
<path d="M110.609 190.369C110.066 192.287 109.604 194.328 109.19 196.172L110.609 190.369Z" fill="#E2F2D9"/>
<path d="M114.346 190.766C113.73 192.619 113.242 194.512 112.885 196.433L114.346 190.766Z" fill="#E2F2D9"/>
<path d="M117.961 190.633C117.418 192.544 117.023 194.333 116.561 196.183L117.961 190.633Z" fill="#E2F2D9"/>
<path d="M121.97 190.369C121.37 192.068 120.9 193.81 120.563 195.58L121.97 190.369Z" fill="#E2F2D9"/>
<path d="M124.571 194.325C124.917 192.808 125.379 191.242 125.842 189.607C125.842 189.607 125.971 189.607 125.842 189.41" fill="#E2F2D9"/>
<path d="M128.981 192.023C129.124 191.546 129.235 191.06 129.314 190.568C129.641 189.482 129.789 188.459 130.122 187.484" fill="#E2F2D9"/>
<path d="M134.809 184.502C134.388 185.595 134.052 186.718 133.804 187.863L134.809 184.502Z" fill="#E2F2D9"/>
<path d="M10.3687 9.69874C10.3354 9.42714 10.4083 9.15318 10.5723 8.93408C11.5097 6.36262 17.1958 6.96078 22.074 8.84159C26.9523 10.7224 30.5662 13.7193 30.5662 15.9578C30.5918 16.2297 30.5472 16.5036 30.4367 16.7533C30.3093 17.0391 30.1249 17.2959 29.8948 17.5079C29.6647 17.72 29.3937 17.8829 29.0985 17.9866C27.0201 18.9116 23.0176 18.48 18.9288 16.7965C13.847 14.9033 10.3687 11.9372 10.3687 9.69874ZM29.487 15.9578C29.487 14.4408 26.5514 11.8077 21.593 9.89607C16.5112 7.84876 12.1141 7.97826 11.5035 9.33491V9.69874C11.5035 11.1479 14.4391 13.8859 19.3358 15.7605C23.0731 17.2097 26.9523 17.74 28.5866 16.9507C28.7548 16.9103 28.9104 16.8289 29.0395 16.7137C29.1687 16.5986 29.2673 16.4533 29.3266 16.2908C29.3772 16.251 29.4183 16.2005 29.4471 16.1429C29.4758 16.0854 29.4916 16.0222 29.4931 15.9578H29.487Z" fill="#E2F2D9"/>
<path d="M10.7015 128.059C10.7015 125.815 14.0503 122.781 18.9285 120.604C23.0174 118.921 27.0199 118.298 29.0982 119.087C29.6764 119.327 30.1507 119.764 30.4365 120.32C30.5784 120.561 30.647 120.837 30.6338 121.116C30.6338 123.354 27.2172 126.388 22.4068 128.436C18.3303 130.286 14.3093 130.871 12.1878 130.082C11.889 129.994 11.6129 129.842 11.3786 129.636C11.1444 129.431 10.9576 129.177 10.831 128.892C10.7323 128.626 10.6883 128.343 10.7015 128.059ZM29.4929 121.134C29.5093 121.02 29.4876 120.903 29.4312 120.801C29.2956 120.475 29.0365 120.339 28.6233 120.142C27.0877 119.525 23.7389 119.784 19.4034 121.696C14.6547 123.737 11.8363 126.542 11.8363 128.059C11.8262 128.195 11.8495 128.33 11.9041 128.454C12.0643 128.746 12.3286 128.966 12.6442 129.071C14.3772 129.761 18.2687 129.071 21.9443 127.455C26.693 125.42 29.4929 122.584 29.4929 121.134Z" fill="#E2F2D9"/>
<path d="M94.2227 209.487C94.2899 206.912 94.8075 204.367 95.7521 201.97C97.3679 197.82 99.7731 194.57 101.839 193.695C102.111 193.518 102.424 193.414 102.747 193.391C103.071 193.369 103.395 193.429 103.689 193.565C104.762 193.929 105.354 195.31 105.354 197.555C105.281 200.108 104.763 202.629 103.825 205.004C102.16 209.228 99.7484 212.558 97.6578 213.348C97.381 213.497 97.0757 213.585 96.762 213.608C96.4484 213.63 96.1336 213.586 95.8385 213.477C94.7469 213.052 94.2227 211.664 94.2227 209.487ZM104.312 197.555C104.312 195.97 103.911 194.854 103.319 194.65C102.988 194.543 102.628 194.567 102.314 194.718C100.766 195.335 98.5705 198.017 96.893 202.365C95.9485 204.625 95.428 207.039 95.3574 209.487C95.3574 211.072 95.6843 212.127 96.3626 212.392C96.6278 212.558 96.893 212.558 97.3001 212.256C99.033 211.596 101.241 208.47 102.709 204.609C103.663 202.373 104.206 199.984 104.312 197.555Z" fill="#E2F2D9"/>
<path d="M10.4351 10.1542V9.13672L11.6685 9.16756C11.6685 9.43273 10.0034 30.6951 33.599 44.052L32.9823 45.0695C11.835 33.0693 10.4351 14.773 10.4351 10.1542Z" fill="#E2F2D9"/>
<path d="M10.5723 8.8027C10.7018 8.6362 24.6828 -8.37128 51.769 -1.58186L51.4236 -0.459535C25.207 -7.08862 11.6392 9.33301 11.4418 9.49951L10.5723 8.8027Z" fill="#E2F2D9"/>
<path d="M10.917 129.046L11.8359 128.318C11.9037 128.454 25.8169 144.61 52.0336 137.42L52.2926 138.573C25.49 145.924 11.0465 129.213 10.917 129.046Z" fill="#E2F2D9"/>
<path d="M10.7686 127.165C10.7686 121.825 12.3165 104.386 32.514 92.25L33.1307 93.3045C13.5438 105.021 11.928 122.022 11.928 127.104V128.584L10.8549 128.713C10.8549 128.713 10.7686 128.059 10.7686 127.165Z" fill="#E2F2D9"/>
<path d="M96.0176 213.546L96.1656 212.393C96.363 212.393 117.615 213.978 131.066 190.434L132.059 191.05C118.287 215.26 96.2951 213.546 96.0176 213.546Z" fill="#E2F2D9"/>
<path d="M83.7207 184.632C83.7716 180.457 84.335 176.305 85.3982 172.268L86.4528 172.533C79.7799 198.907 96.3634 212.394 96.4929 212.56L95.7529 213.411C95.6789 213.282 83.7207 203.545 83.7207 184.632Z" fill="#E2F2D9"/>
<path d="M11.0469 88.266L27.8278 78.9668L28.4876 80.1878L11.7746 89.4809L11.0469 88.266Z" fill="#E2F2D9"/>
<path d="M11.0469 48.6655L11.7746 47.3828L28.8207 56.8115L28.2286 58.1004L11.0469 48.6655Z" fill="#E2F2D9"/>
<path d="M0.000976562 69.6069V67.4609L17.7933 67.5904L17.7254 69.7672L0.000976562 69.6069Z" fill="#E2F2D9"/>
<path d="M11.3726 86.1534C11.7292 86.1435 12.0841 86.2053 12.4163 86.3351C12.7486 86.4649 13.0513 86.6601 13.3067 86.9091C13.5621 87.1581 13.7648 87.4559 13.903 87.7847C14.0411 88.1136 14.1118 88.4668 14.1108 88.8235C14.1181 89.3591 13.9663 89.8849 13.6746 90.3342C13.383 90.7835 12.9646 91.1362 12.4724 91.3476C11.9801 91.5591 11.4363 91.6198 10.9095 91.522C10.3828 91.4242 9.89694 91.1724 9.51342 90.7984C9.12989 90.4244 8.86595 89.9451 8.755 89.421C8.64404 88.897 8.69106 88.3518 8.89011 87.8545C9.08916 87.3571 9.43129 86.93 9.87319 86.6272C10.3151 86.3244 10.8369 86.1595 11.3726 86.1534Z" fill="#E2F2D9"/>
<path d="M11.373 45.2363C12.0992 45.2363 12.7957 45.5248 13.3092 46.0383C13.8227 46.5517 14.1112 47.2481 14.1112 47.9743C14.1112 48.7004 13.8227 49.3969 13.3092 49.9103C12.7957 50.4238 12.0992 50.7123 11.373 50.7123C10.6468 50.7123 9.95029 50.4238 9.43677 49.9103C8.92326 49.3969 8.63477 48.7004 8.63477 47.9743C8.63477 47.2481 8.92326 46.5517 9.43677 46.0383C9.95029 45.5248 10.6468 45.2363 11.373 45.2363Z" fill="#E2F2D9"/>
<path d="M67.3472 184.633L72.6263 166.17L74.0262 166.571L68.7533 185.033L67.3472 184.633Z" fill="#E2F2D9"/>
<path d="M38.9272 155.224L57.6385 149.754L58.0455 151.135L39.3219 156.611L38.9272 155.224Z" fill="#E2F2D9"/>
<path d="M44.811 177.774L57.4414 165.213L58.9894 166.767L46.2788 179.162L44.811 177.774Z" fill="#E2F2D9"/>
<path d="M66.0751 182.847C66.6043 182.357 67.2992 182.084 68.0209 182.084C68.7425 182.084 69.4375 182.357 69.9666 182.847C70.2398 183.093 70.4603 183.392 70.6151 183.725C70.7698 184.059 70.8555 184.42 70.8671 184.787C70.8786 185.155 70.8157 185.521 70.6821 185.863C70.5486 186.205 70.3472 186.517 70.09 186.78C69.8328 187.042 69.5251 187.25 69.1855 187.391C68.8459 187.532 68.4813 187.602 68.1138 187.598C67.7462 187.594 67.3833 187.516 67.0467 187.368C66.7101 187.221 66.4069 187.006 66.1553 186.738C65.8891 186.491 65.6753 186.193 65.5267 185.862C65.3781 185.531 65.2976 185.173 65.2901 184.81C65.2826 184.447 65.3483 184.086 65.4832 183.749C65.618 183.412 65.8193 183.105 66.0751 182.847Z" fill="#E2F2D9"/>
<path d="M37.0909 153.97C37.3475 153.704 37.655 153.492 37.9951 153.348C38.3353 153.203 38.701 153.129 39.0706 153.129C39.4401 153.129 39.8059 153.203 40.146 153.348C40.4861 153.492 40.7937 153.704 41.0502 153.97C41.5467 154.489 41.8238 155.179 41.8238 155.897C41.8238 156.615 41.5467 157.305 41.0502 157.824C40.538 158.344 39.8407 158.64 39.1108 158.648C38.3809 158.656 37.6775 158.374 37.1545 157.865C36.6314 157.356 36.3311 156.66 36.3192 155.93C36.3073 155.201 36.5847 154.496 37.0909 153.97Z" fill="#E2F2D9"/>
<path d="M134.335 212.262L143.765 195.119L145.035 195.841L135.605 212.922L134.335 212.262Z" fill="#E2F2D9"/>
<path d="M154.415 224L154.612 206.166L156.653 206.296L156.524 224H154.415Z" fill="#E2F2D9"/>
<path d="M132.206 212.563C132.24 211.86 132.542 211.197 133.052 210.712C133.561 210.226 134.238 209.955 134.941 209.955C135.645 209.955 136.322 210.226 136.831 210.712C137.34 211.197 137.643 211.86 137.676 212.563C137.694 212.933 137.636 213.303 137.507 213.65C137.377 213.997 137.179 214.314 136.923 214.583C136.667 214.851 136.36 215.064 136.019 215.21C135.679 215.356 135.312 215.431 134.941 215.431C134.571 215.431 134.204 215.356 133.864 215.21C133.523 215.064 133.215 214.851 132.96 214.583C132.704 214.314 132.505 213.997 132.376 213.65C132.246 213.303 132.189 212.933 132.206 212.563Z" fill="#E2F2D9"/>
<path d="M91.0034 -8.63304L91.1391 -9.92188C91.2871 -9.92188 107.655 -8.63305 107.655 6.59842H106.323C106.323 -7.3504 91.6818 -8.63304 91.0034 -8.63304Z" fill="#E2F2D9"/>
<path d="M93.4092 2.34064C96.2954 1.61915 100.372 0.268668 103.11 -3.32645C105.053 -5.50326 106.126 -8.37073 106.323 -11.8672L107.594 -11.7377C107.328 -7.97605 106.188 -4.84343 104.048 -2.48779C101.18 1.44033 96.8258 2.79081 93.7607 3.58014L93.4092 2.34064Z" fill="#E2F2D9"/>
<path d="M54.4385 58.4907C54.6358 58.429 67.0688 47.7794 77.8306 58.5586L76.9117 59.4835C67.0442 49.5615 55.8384 59.0889 55.3266 59.5144L54.4385 58.4907Z" fill="#E2F2D9"/>
<path d="M63.8672 46.4216L64.8539 45.5645C67.4133 48.4011 68.8132 51.5029 68.9428 54.6663C69.689 59.4825 67.4811 63.6326 65.927 66.3027L64.7923 65.612C66.2724 63.1084 68.3384 59.2173 67.6106 54.7958C67.4811 51.8975 66.2107 49.0609 63.8672 46.4216Z" fill="#E2F2D9"/>
<path d="M76.9727 132.943C76.9727 132.678 78.3109 116.293 93.5438 116.293V117.582C79.5814 117.582 78.3109 132.252 78.3109 132.998L76.9727 132.943Z" fill="#E2F2D9"/>
<path d="M75.0986 117.605L75.2281 116.316C78.9716 116.612 82.1169 117.766 84.5282 119.912C88.3334 122.847 89.8012 127.163 90.4796 130.228L89.277 130.561C88.5986 127.725 87.2665 123.636 83.6525 120.935C81.4447 118.956 78.5769 117.901 75.0986 117.605Z" fill="#E2F2D9"/>
<path d="M140.699 157.005C140.699 153.54 141.902 149.753 145.577 146.158L146.435 147.046C136.475 156.913 146.102 168.148 146.515 168.672L145.51 169.499C145.51 169.431 140.699 163.863 140.699 157.005Z" fill="#E2F2D9"/>
<path d="M132.601 159.186C135.401 156.615 138.423 155.227 141.55 155.03C146.977 154.303 151.658 157.139 153.193 158.064L152.533 159.186C149.974 157.632 146.169 155.721 141.698 156.35C138.818 156.479 136.079 157.768 133.471 160.105L132.601 159.186Z" fill="#E2F2D9"/>
<path d="M78.0332 4.36429L79.316 4.26562C79.3838 4.82678 80.5864 19.5341 94.5489 19.4663V20.8168C79.316 20.8044 78.1134 4.45062 78.0332 4.36429Z" fill="#E2F2D9"/>
<path d="M75.4248 19.5887C85.7918 19.453 89.2084 11.4056 90.3432 6.5957L91.5458 6.89171C90.3432 12.0655 86.7354 20.7727 75.4248 20.9022V19.5887Z" fill="#E2F2D9"/>
<path d="M55.3145 77.8772L56.1717 76.8535C56.6466 77.3468 67.8893 86.7817 77.7568 76.9522L78.6942 77.8093C67.877 88.5947 55.3761 78.0067 55.3145 77.8772Z" fill="#E2F2D9"/>
<path d="M64.2637 90.573C71.4854 83.1176 68.2045 74.9777 65.6636 70.8892L66.7367 70.0938C69.5428 74.5769 73.0827 83.3458 65.1394 91.3932L64.2637 90.573Z" fill="#E2F2D9"/>
<path d="M91.2012 144.607C91.8179 144.607 106.52 143.417 106.52 129.468V129.406H107.853V129.468C107.853 144.607 91.4849 145.92 91.2875 145.951L91.2012 144.607Z" fill="#E2F2D9"/>
<path d="M93.5444 133.697L93.8219 132.408C99.0332 133.561 107.723 137.224 107.852 148.596H106.52C106.452 138.143 98.4227 134.782 93.5444 133.697Z" fill="#E2F2D9"/>
<path d="M117.486 68.4962C117.477 60.9836 119.695 53.637 123.862 47.3854C128.028 41.1338 133.955 36.2581 140.893 33.375C147.831 30.4919 155.468 29.731 162.839 31.1883C170.209 32.6457 176.982 36.256 182.3 41.5626C187.618 46.8691 191.243 53.6335 192.716 61.0003C194.189 68.367 193.445 76.005 190.576 82.9484C187.707 89.8917 182.843 95.8285 176.6 100.008C170.357 104.187 163.014 106.421 155.501 106.427C145.433 106.427 135.776 102.433 128.649 95.3221C121.522 88.211 117.508 78.5634 117.486 68.4962ZM192.658 68.4962C192.663 61.1496 190.489 53.9665 186.412 47.8552C182.334 41.7439 176.536 36.9788 169.75 34.1623C162.964 31.3458 155.495 30.6045 148.288 32.0321C141.081 33.4596 134.459 36.992 129.259 42.1824C124.059 47.3729 120.516 53.9885 119.076 61.1926C117.636 68.3968 118.365 75.866 121.171 82.6559C123.976 89.4458 128.732 95.2515 134.838 99.3389C140.943 103.426 148.123 105.612 155.47 105.619C165.319 105.608 174.762 101.695 181.732 94.7371C188.701 87.7795 192.63 78.3439 192.658 68.4962Z" fill="#E2F2D9"/>
<path d="M113.939 68.4976C113.944 60.2854 116.383 52.259 120.949 45.4329C125.515 38.6068 132.002 33.2874 139.591 30.147C147.18 27.0066 155.529 26.1862 163.584 27.7895C171.639 29.3928 179.038 33.3478 184.845 39.1547C190.653 44.9616 194.608 52.3596 196.211 60.4137C197.815 68.4678 196.994 76.8164 193.854 84.4044C190.713 91.9924 185.393 98.4791 178.566 103.045C171.74 107.61 163.712 110.049 155.5 110.054C144.481 110.043 133.916 105.661 126.124 97.8699C118.333 90.079 113.95 79.5156 113.939 68.4976ZM196.123 68.4976C196.123 60.4445 193.733 52.5725 189.257 45.8778C184.781 39.1831 178.42 33.9666 170.977 30.8885C163.535 27.8104 155.347 27.0091 147.449 28.5861C139.551 30.163 132.299 34.0472 126.609 39.7471C120.92 45.4471 117.05 52.7065 115.488 60.6067C113.927 68.5069 114.744 76.6927 117.837 84.1282C120.93 91.5636 126.16 97.9145 132.864 102.377C139.568 106.839 147.446 109.213 155.5 109.197C166.281 109.176 176.613 104.878 184.229 97.2482C191.845 89.6178 196.123 79.2779 196.123 68.4976Z" fill="#E2F2D9"/>
</svg>
