<svg width="56" height="56" viewBox="0 0 56 56" fill="none" xmlns="http://www.w3.org/2000/svg">
<path fill-rule="evenodd" clip-rule="evenodd" d="M25.7742 2.20767C23.6471 5.10511 20.6022 7.88052 18.1427 9.16306C15.8922 10.3372 12.2404 10.5216 9.45634 9.60195C8.52209 9.29327 7.5487 9.16989 7.29374 9.32787C7.00099 9.50862 6.82935 13.2847 6.82935 19.5313C6.82935 27.9048 6.96866 29.9932 7.72535 32.9521C9.57289 40.1757 14.5355 47.5413 20.6044 52.0686C26.5199 56.4812 27.945 56.8168 31.6424 54.6687C39.6886 49.9943 46.0353 41.7068 48.2748 32.9521C49.0315 29.9932 49.1708 27.9048 49.1708 19.5313C49.1708 13.2847 48.9992 9.50862 48.7064 9.32787C48.4515 9.16989 47.4781 9.29327 46.5438 9.60195C43.7598 10.5216 40.1079 10.3372 37.8574 9.16306C35.398 7.88052 32.3531 5.10511 30.226 2.20767C29.3345 0.993431 28.3329 0 28.0001 0C27.6673 0 26.6656 0.993431 25.7742 2.20767ZM37.0493 11.1873C39.3285 12.2308 40.138 12.3651 43.2817 12.2226L46.8944 12.0582L46.8876 20.7123C46.8807 29.8485 46.4632 32.8246 44.5888 37.1057C43.0463 40.6282 39.908 45.1141 37.1827 47.692C34.1355 50.5739 29.3404 53.7236 28.0001 53.7236C26.6597 53.7236 21.8647 50.5739 18.8174 47.692C16.0994 45.121 12.9488 40.6219 11.4336 37.148C9.46226 32.6271 9.10577 30.1344 9.10577 20.8739V12.0582L12.7576 12.2239C16.0056 12.3714 16.6985 12.2508 19.0178 11.1326C20.7078 10.3177 22.7465 8.71688 24.809 6.58478L27.9923 3.29489L31.2107 6.64124C33.4348 8.95363 35.2391 10.3586 37.0493 11.1873ZM23.5829 20.6016L23.4472 23.4472L20.6017 23.5828L17.7562 23.7181V28V32.282L20.6017 32.4172L23.4472 32.5528L23.5829 35.3984L23.7181 38.2439H28.0001H32.282L32.4172 35.3984L32.5529 32.5528L35.3985 32.4172L38.244 32.282V28V23.7181L35.3985 23.5828L32.5529 23.4472L32.4172 20.6016L32.282 17.7561H28.0001H23.7181L23.5829 20.6016ZM30.0489 22.2766C30.0489 25.1945 30.8055 25.9512 33.7235 25.9512H35.9676V28V30.0488H33.7235C32.2907 30.0488 31.2212 30.3074 30.7641 30.764C30.3075 31.2211 30.0489 32.2906 30.0489 33.7234V35.9675H28.0001H25.9513V33.7234C25.9513 32.2906 25.6927 31.2211 25.236 30.764C24.7789 30.3074 23.7095 30.0488 22.2767 30.0488H20.0326V28V25.9512H22.2767C23.7095 25.9512 24.7789 25.6926 25.236 25.236C25.6927 24.7789 25.9513 23.7094 25.9513 22.2766V20.0325H28.0001H30.0489V22.2766ZM41.1287 33.4939C40.978 33.8864 41.0781 34.4309 41.3513 34.7041C42.0087 35.3615 43.2958 34.3348 42.9489 33.4302C42.6156 32.5624 41.4706 32.6025 41.1287 33.4939ZM38.1229 39.9521C36.3819 42.7731 34.1869 45.212 31.6446 47.1511C29.0673 49.117 29.7807 50.884 32.4787 49.2167C36.4178 46.7823 42.0925 39.0875 40.8591 37.8542C40.0332 37.0283 39.8329 37.1817 38.1229 39.9521Z" fill="#E86851"/>
</svg>
