<svg width="57" height="56" viewBox="0 0 57 56" fill="none" xmlns="http://www.w3.org/2000/svg">
<path fill-rule="evenodd" clip-rule="evenodd" d="M22.3134 0.510705C17.5042 1.60612 11.7467 4.61054 11.7467 6.0242C11.7467 7.03857 12.8844 6.80092 15.2592 5.29119C18.8405 3.01477 23.1247 1.90934 28.3646 1.90934C34.2277 1.90934 38.1678 3.09171 42.94 6.28371C54.2971 13.8797 57.8606 29.5005 50.8679 41.0374L49.3905 43.4759L48.586 42.4907C47.8844 41.6316 47.7451 41.6001 47.4929 42.2462C47.3345 42.6537 47.268 43.9854 47.3454 45.2055C47.4824 47.3622 47.5298 47.4282 49.029 47.5716C52.2401 47.8781 54.1277 46.3938 51.6287 45.527L50.5351 45.1477L52.2465 42.3277C55.0697 37.6747 56.1374 33.6978 56.1337 27.8469C56.1306 21.9287 55.1248 18.1111 52.3717 13.561C47.4046 5.35357 39.0624 0.413729 29.5237 0.0322004C26.7715 -0.0779784 24.1268 0.0977614 22.3134 0.510705ZM4.57595 8.33295C3.63715 8.7295 3.93217 9.76118 5.10043 10.1668L6.19403 10.5461L4.49855 13.3406C-0.464964 21.5198 -0.879271 31.4113 3.37035 40.2803C5.71871 45.181 11.0305 50.4928 15.9312 52.8411C22.582 56.0276 30.0491 56.6304 36.7873 54.5248C40.3827 53.4011 44.6865 50.9002 44.8959 49.8135C45.1245 48.6275 43.9426 48.8305 41.4699 50.4026C37.8887 52.679 33.6044 53.7845 28.3646 53.7845C22.5014 53.7845 18.5614 52.6021 13.7891 49.4101C2.43201 41.8141 -1.1315 26.1933 5.86121 14.6564L7.33861 12.2179L8.1431 13.2031C8.8447 14.0623 8.98401 14.0937 9.23623 13.4476C9.39467 13.0401 9.46115 11.7084 9.38375 10.4883L9.24261 8.26966L7.19383 8.18134C6.067 8.13262 4.88918 8.20092 4.57595 8.33295ZM13.6825 13.0975C10.0653 14.8881 8.01335 18.3319 8.01335 22.6111C8.01335 26.9286 8.7591 27.994 18.9324 38.2092L28.3463 47.6623L37.5854 38.4373C47.7447 28.2944 48.7158 26.9209 48.7158 22.6954C48.7158 16.5376 44.4816 12.1396 38.5543 12.1396C35.5203 12.1396 32.015 13.7367 29.9922 16.04C29.2374 16.8996 28.5052 17.603 28.3646 17.603C28.2239 17.603 27.4918 16.8996 26.7369 16.04C23.5354 12.3941 17.7423 11.0883 13.6825 13.0975ZM21.5549 14.6222C22.4258 14.9865 24.2315 16.3182 25.5677 17.5816C26.904 18.8455 28.1911 19.8794 28.4274 19.8794C28.6641 19.8794 29.7714 18.9406 30.8877 17.7929C33.8498 14.7484 35.8977 13.82 39.1348 14.0541C41.2177 14.2048 42.1465 14.5367 43.4959 15.612C45.6991 17.3681 46.9088 19.8316 46.9088 22.5615C46.9088 23.7844 46.5395 25.4371 46.0592 26.3622C45.5921 27.2628 41.6762 31.5939 37.3564 35.9865L29.5028 43.9731V37.5681V31.1627L30.6119 31.4414C32.6652 31.9568 36.4195 30.8099 38.0649 29.1645C40.1751 27.0542 39.9279 25.8368 37.2426 25.1179C36.1158 24.8165 34.5792 24.2324 33.828 23.8208C32.1361 22.8934 31.6144 22.8861 29.765 23.7635C28.4479 24.3886 28.1579 24.389 26.9641 23.7662C25.2736 22.8848 24.5921 22.8939 22.9011 23.8208C22.1499 24.2324 20.6133 24.8165 19.4865 25.1179C16.8012 25.8368 16.554 27.0542 18.6643 29.1645C20.3097 30.8099 24.0639 31.9568 26.1173 31.4414L27.2264 31.1627V37.5463V43.9294L19.3727 35.9696C9.65373 26.1191 8.93074 24.8898 10.1309 20.2623C11.4353 15.2337 16.7448 12.6126 21.5549 14.6222ZM16.6223 16.066C15.8292 16.8591 16.341 17.6585 17.5516 17.5192C18.2969 17.4336 18.8036 17.099 18.8036 16.6924C18.8036 15.9767 17.1782 15.5101 16.6223 16.066ZM12.8694 18.5304C11.5778 19.9582 11.4398 24.2515 12.6254 26.1396C13.6243 27.7308 14.9428 28.1233 14.9191 26.8225C14.9114 26.3845 14.604 25.6278 14.2362 25.1421C13.8688 24.6558 13.5678 23.5171 13.5678 22.6111C13.5678 21.7051 13.8688 20.5664 14.2362 20.0802C15.7577 18.0688 14.5385 16.6861 12.8694 18.5304ZM26.2143 25.5964C27.5614 26.5398 27.5246 28.3136 26.1387 29.2214C25.2399 29.8105 24.7059 29.8465 23.0655 29.4295C20.9603 28.8945 18.9511 27.6375 19.7142 27.3333C19.9646 27.2332 21.1938 26.6582 22.4459 26.0554C25.2368 24.7118 24.9936 24.7414 26.2143 25.5964ZM34.342 26.0931C35.8121 26.7565 37.1024 27.3734 37.2094 27.464C37.6169 27.8091 35.5667 28.946 33.6636 29.4295C31.2502 30.0432 29.5028 29.1936 29.5028 27.4071C29.5028 26.5735 30.9046 24.8876 31.598 24.8876C31.6371 24.8876 32.8719 25.4303 34.342 26.0931Z" fill="#E86851"/>
</svg>
