<svg width="57" height="56" viewBox="0 0 57 56" fill="none" xmlns="http://www.w3.org/2000/svg">
<path fill-rule="evenodd" clip-rule="evenodd" d="M36.5257 0.962486C34.7847 2.07702 32.9777 4.97673 32.5433 7.35241C32.094 9.8114 33.3314 13.5862 35.1521 15.3103C37.683 17.7065 38.3496 17.8759 40.1147 16.5737C44.9316 13.0198 45.4028 6.21693 41.1286 1.94226C40.056 0.869608 38.9169 -0.00408321 38.5972 1.43544e-05C38.2776 0.00411192 37.3452 0.437088 36.5257 0.962486ZM41.262 5.78258C42.1439 7.85185 42.0369 10.2043 40.9665 12.3032C39.7605 14.6666 39.1545 14.5846 39.1545 12.0573C39.1545 10.3122 39.0197 10.0085 38.2439 10.0085C37.4631 10.0085 37.3311 10.3168 37.3188 12.1711L37.3047 14.3337L36.2011 13.0799C33.9679 10.5426 34.3089 6.13406 36.9418 3.5007L38.2895 2.15306L39.4636 3.23527C40.1092 3.83032 40.9187 4.97673 41.262 5.78258ZM22.9523 15.436C20.8047 15.9646 20.5966 16.2118 20.2634 18.6353C19.331 25.414 24.6715 31.4069 31.6446 31.4069C35.6953 31.4069 36.1993 30.892 36.1774 26.7762C36.1569 22.9864 35.2477 20.7765 32.7068 18.3407C30.2104 15.9477 25.9854 14.6898 22.9523 15.436ZM49.2254 15.5093C45.9719 16.1467 42.9511 18.4759 41.303 21.6183C40.5909 22.976 40.3442 24.2913 40.3328 26.7862C40.3146 30.9025 40.8067 31.4087 44.8187 31.4024C49.4166 31.3951 53.2292 29.0704 55.3412 24.986C56.8164 22.1337 56.7226 16.7864 55.1837 15.9928C53.857 15.3085 51.3079 15.1018 49.2254 15.5093ZM29.0417 18.3812C31.9451 19.8827 34.1464 23.2077 34.1464 26.0915V27.4942L32.4199 25.8083C30.5478 23.9803 29.7183 23.7231 29.2908 24.8376C29.115 25.2947 29.6454 26.1971 30.7632 27.3417L32.5101 29.1305H30.806C28.8605 29.1305 26.1907 27.8985 24.7211 26.3232C22.441 23.8788 21.4758 18.7614 23.1057 17.7588C24.0805 17.1597 27.3399 17.5012 29.0417 18.3812ZM53.1545 17.5799C54.0314 17.8148 54.1789 18.1609 54.1789 19.9815C54.1789 24.5653 50.6514 28.6351 46.343 29.0212L43.935 29.237L45.6423 27.4573C47.3519 25.6749 47.8705 24.1224 46.7559 24.1224C46.4295 24.1224 45.4675 24.8394 44.6179 25.7159C42.7558 27.6372 42.3383 27.7 42.3515 26.0573C42.3911 21.0738 48.4501 16.3192 53.1545 17.5799ZM15.8981 35.163C12.9643 36.6568 0.455322 46.0548 0.455322 46.7655C0.455322 48.4391 2.19724 47.5927 8.75379 42.7321C18.4418 35.5505 20.7724 34.8871 26.8031 37.5938C28.759 38.472 30.0115 38.6915 33.0633 38.6915C36.2712 38.6915 37.0229 38.8362 37.7887 39.602C38.8718 40.6852 38.9018 40.972 38.0536 42.133C37.4927 42.9006 36.6709 43.0467 31.7935 43.2443C27.2074 43.4301 26.1789 43.5972 26.1789 44.1549C26.1789 44.7222 27.2261 44.8592 32.3671 44.9639L38.5553 45.09L44.9703 42.346C51.7267 39.4559 52.819 39.195 53.7027 40.2599C54.7371 41.5065 54.0696 42.9616 52.0277 43.9104C48.6062 45.4998 49.0146 47.6801 52.4566 46.1996C55.4869 44.8961 56.2277 43.9923 56.2277 41.5989C56.2277 39.8893 56.0023 39.3293 54.9501 38.4242C53.1682 36.8913 51.8975 37.0315 46.4341 39.3653C43.8075 40.4876 41.4027 41.4095 41.0895 41.4141C40.7767 41.4191 40.5204 40.9019 40.5204 40.2645C40.5204 39.6271 40.0173 38.6027 39.4026 37.988C38.3956 36.9805 37.912 36.8703 34.4956 36.8703C31.3072 36.8703 30.2013 36.6554 27.5316 35.5168C23.3866 33.7489 18.9408 33.6141 15.8981 35.163ZM45.3008 47.3419C44.8806 48.0221 45.4652 48.7077 46.4659 48.7077C47.046 48.7077 47.3496 48.3949 47.3496 47.7972C47.3496 46.8315 45.8258 46.4928 45.3008 47.3419ZM38.9269 49.9793C36.2307 51.1959 36.0499 51.2136 24.9888 51.3538L13.7824 51.4963L12.2945 53.0311C11.3662 53.9886 10.9096 54.8349 11.0798 55.2793C11.4532 56.2522 11.8456 56.1799 13.3881 54.8536C14.7107 53.7159 14.7112 53.7159 24.5736 53.7159C32.3134 53.7159 34.9686 53.5579 36.909 52.9828C40.5714 51.897 42.8792 50.6094 42.7116 49.7458C42.4917 48.6107 41.8771 48.6485 38.9269 49.9793Z" fill="#E86851"/>
</svg>
