<svg width="56" height="56" viewBox="0 0 64 65" fill="none" xmlns="http://www.w3.org/2000/svg">
<path fill-rule="evenodd" clip-rule="evenodd" d="M42.2788 0.683836C41.9916 0.773711 41.5698 0.964211 41.3413 1.10746C41.1128 1.25059 31.97 10.3281 21.0241 21.2796C4.65851 37.6536 1.07614 41.297 0.862013 41.7853C0.479763 42.6566 0.420138 43.455 0.672138 44.3268C0.879888 45.0455 0.986138 45.1672 4.40589 48.6078C6.42176 50.636 8.13939 52.2602 8.42576 52.4088C8.73839 52.5712 9.25551 52.6901 9.80576 52.726C11.5728 52.8415 9.68464 54.5803 32.0121 32.2747C46.5666 17.7346 52.0686 12.1615 52.3246 11.6997C52.6328 11.144 52.6756 10.9365 52.6743 10.004C52.673 9.15546 52.6184 8.84071 52.4031 8.44146C52.2549 8.16646 50.5399 6.35796 48.5921 4.42259C45.2639 1.11546 45.0099 0.891711 44.3718 0.703836C43.5674 0.466961 42.99 0.461461 42.2788 0.683836ZM43.8985 2.67796C44.4734 2.92671 50.5731 9.09846 50.6824 9.54196C50.8699 10.303 50.6684 10.7551 49.7133 11.7167L48.8054 12.6306L46.928 10.7715C45.8955 9.74884 44.9539 8.87896 44.8355 8.83834C44.535 8.73521 43.8824 8.98471 43.7356 9.25884C43.6684 9.38459 43.6133 9.66671 43.6133 9.88559C43.6133 10.231 43.8615 10.5352 45.4851 12.1802L47.357 14.0767L45.9291 15.5006L44.5011 16.9245L43.4961 15.9642C42.6543 15.1598 42.4233 15.004 42.0739 15.004C41.5404 15.004 41.0716 15.4747 41.0716 16.0105C41.0716 16.3223 41.2561 16.5797 42.0594 17.3876L43.0471 18.3812L41.5825 19.8458L40.1179 21.3106L38.2003 19.4072C36.5238 17.7433 36.2319 17.504 35.8798 17.504C35.3405 17.504 34.8633 17.9812 34.8633 18.5205C34.8633 18.8726 35.1025 19.1643 36.7659 20.8402L38.6685 22.7572L37.24 24.1896L35.8116 25.6221L34.8601 24.6961C33.8073 23.6716 33.454 23.511 32.8919 23.8017C32.0995 24.2113 32.1594 24.8495 33.0823 25.8302C33.4774 26.2502 33.91 26.7166 34.0435 26.8666L34.2864 27.1393L32.8578 28.572L31.4293 30.0046L29.526 28.1042C27.7851 26.3661 27.5848 26.204 27.1778 26.204C26.5841 26.204 26.1883 26.5998 26.1883 27.1935C26.1883 27.6005 26.3504 27.8008 28.0885 29.5417L29.9889 31.445L28.5549 32.8748L27.1209 34.3047L26.1314 33.3418C25.2631 32.497 25.0859 32.379 24.6844 32.379C24.0925 32.379 23.6133 32.8302 23.6133 33.3876C23.6133 33.711 24.1436 34.2672 24.569 34.7648C24.9864 35.2531 25.7558 35.9036 25.7558 35.9036C25.2355 36.6841 23.6745 37.9849 22.894 38.7654L20.1664 36.129L19.5508 35.504C19.0466 34.9921 18.8566 34.879 18.501 34.879C17.9528 34.879 17.4883 35.2902 17.4883 35.7757V36.129L21.333 40.3264L10.146 51.2532L2.081 42.928L9.05114 36.129L25.6134 19.554C34.7228 10.4378 42.3445 2.87234 42.5508 2.74196C42.9973 2.45971 43.3548 2.44271 43.8985 2.67796ZM37.2694 37.2853C13.8761 60.6788 11.9883 62.5975 11.9883 62.9785C11.9883 63.2491 12.0935 63.4956 12.2951 63.6971L12.6019 64.004H37.9296H63.2575L63.6229 63.6386L63.9883 63.2732V37.9453V12.6176L63.6814 12.3108C63.4798 12.1091 63.2334 12.004 62.9626 12.004C62.5813 12.004 60.6685 13.8861 37.2694 37.2853ZM61.9883 20.004V24.629H61.23C60.3319 24.629 60.0745 24.744 59.8705 25.2363C59.5488 26.0132 60.2448 26.629 61.4444 26.629H61.9883V28.004V29.379H60.4161C58.8453 29.379 58.8438 29.3792 58.4786 29.7443C58.2776 29.9453 58.1133 30.2012 58.1133 30.3131C58.1133 30.622 58.4535 31.2138 58.6814 31.3013C58.7926 31.344 59.5823 31.379 60.436 31.379H61.9883V32.8165V34.254H61.2485C60.3228 34.254 60.1498 34.3208 59.9185 34.7681C59.4956 35.5857 60.0966 36.254 61.2551 36.254H61.9883V37.6191V38.9841L60.3521 39.0253C58.7364 39.066 58.7123 39.0708 58.4146 39.4172C58.0458 39.8465 58.0316 40.2415 58.3695 40.671C58.6196 40.989 58.6654 40.9976 60.2758 41.0316L61.9258 41.0665L61.9611 42.4727L61.9965 43.879H61.191C60.445 43.879 60.3616 43.9073 60.0619 44.2636C59.6545 44.7477 59.6545 45.0102 60.0619 45.4943C60.3613 45.8502 60.4455 45.879 61.1869 45.879H61.9883V47.2415V48.6038L60.3524 48.6477C58.7384 48.6908 58.7124 48.6961 58.4149 49.0422C58.0114 49.5113 58.0318 49.9417 58.4786 50.3886C58.8438 50.7537 58.8453 50.754 60.4161 50.754H61.9883V52.129V53.504H61.2286C60.549 53.504 60.429 53.544 60.089 53.884C59.77 54.203 59.7219 54.3281 59.7889 54.6636C59.9118 55.2778 60.1536 55.4346 61.0863 55.504L61.9258 55.5665L61.9591 58.7852L61.9925 62.004H58.8174H55.6424L55.5896 61.1746C55.544 60.4591 55.4896 60.3047 55.193 60.0496C54.7306 59.6518 54.2986 59.6743 53.8536 60.1193C53.53 60.443 53.4883 60.5715 53.4883 61.2443V62.004H52.1133H50.7383V60.4957C50.7383 58.9872 50.6521 58.5986 50.2491 58.2892C49.9305 58.0446 49.4045 58.1055 49.0265 58.4306C48.6804 58.7281 48.6751 58.7541 48.632 60.3681L48.5881 62.004H47.2258H45.8633V61.2193C45.8633 60.7238 45.7941 60.3358 45.6756 60.1667C45.3141 59.6505 44.4476 59.6906 44.0235 60.2431C43.9398 60.3522 43.8694 60.7931 43.8673 61.2227L43.8633 62.004H42.4883H41.1133V60.4318C41.1133 58.861 41.113 58.8595 40.7479 58.4943C40.2738 58.0202 39.8278 58.0202 39.3536 58.4943C38.9885 58.8595 38.9883 58.861 38.9883 60.4318V62.004H37.6133H36.2383L36.2343 61.2227C36.2321 60.7931 36.1618 60.3522 36.078 60.2431C35.6539 59.6906 34.7874 59.6505 34.4259 60.1667C34.3074 60.3358 34.2383 60.7238 34.2383 61.2193V62.004H32.8821H31.526L31.4524 60.348C31.3816 58.7591 31.3654 58.6805 31.0515 58.4105C30.6111 58.0316 30.1016 58.0496 29.6928 58.4585C29.3709 58.7805 29.3633 58.8253 29.3633 60.396V62.004H27.9883H26.6133V61.2443C26.6133 60.5715 26.5715 60.443 26.2479 60.1193C25.8029 59.6743 25.3709 59.6518 24.9085 60.0496C24.6119 60.3047 24.5575 60.4591 24.5119 61.1746L24.4591 62.004H19.945H15.4308L19.6158 57.7875C26.318 51.0346 61.9135 15.379 61.9526 15.379C61.9723 15.379 61.9883 17.4602 61.9883 20.004ZM52.0508 37.2387C51.8445 37.3708 48.4001 40.7611 44.3968 44.7727C36.401 52.7845 36.6161 52.5261 37.339 53.249L37.719 53.629H45.3008H52.8825L53.2479 53.2636L53.6133 52.8982V45.3331V37.768L53.332 37.4531C52.9435 37.0183 52.5085 36.9455 52.0508 37.2387ZM51.6133 46.0665V51.629H46.02H40.4268L45.9883 46.0665C49.047 43.0071 51.564 40.504 51.5815 40.504C51.599 40.504 51.6133 43.0071 51.6133 46.0665Z" fill="#E86851"/>
</svg>
