<svg width="56" height="56" viewBox="0 0 56 56" fill="none" xmlns="http://www.w3.org/2000/svg">
<path fill-rule="evenodd" clip-rule="evenodd" d="M25.7739 2.20767C23.6469 5.10511 20.6019 7.88052 18.1425 9.16306C15.892 10.3372 12.2402 10.5216 9.45609 9.60195C8.52185 9.29327 7.54845 9.16989 7.29349 9.32787C7.00074 9.50862 6.8291 13.2847 6.8291 19.5313C6.8291 27.9048 6.96842 29.9932 7.7251 32.9521C9.57265 40.1757 14.5352 47.5413 20.6042 52.0686C26.5197 56.4812 27.9447 56.8168 31.6421 54.6688C39.6884 49.9943 46.035 41.7068 48.2746 32.9521C49.0312 29.9932 49.1706 27.9048 49.1706 19.5313C49.1706 13.2847 48.9989 9.50862 48.7062 9.32787C48.4512 9.16989 47.4778 9.29327 46.5436 9.60195C43.7595 10.5216 40.1077 10.3372 37.8572 9.16306C35.3978 7.88052 32.3528 5.10511 30.2257 2.20767C29.3343 0.993431 28.3326 0 27.9998 0C27.667 0 26.6654 0.993431 25.7739 2.20767ZM37.0491 11.1873C39.3282 12.2308 40.1377 12.3651 43.2815 12.2226L46.8941 12.0582L46.8873 20.7123C46.8805 29.8485 46.463 32.8247 44.5886 37.1057C43.0461 40.6282 39.9078 45.1142 37.1825 47.692C34.1352 50.5739 29.3402 53.7236 27.9998 53.7236C26.6595 53.7236 21.8644 50.5739 18.8172 47.692C16.0992 45.121 12.9486 40.6219 11.4334 37.148C9.46201 32.6271 9.10552 30.1344 9.10552 20.8739V12.0582L12.7574 12.2239C16.0054 12.3714 16.6983 12.2508 19.0175 11.1326C20.7075 10.3177 22.7463 8.71688 24.8087 6.58478L27.9921 3.29489L31.2105 6.64124C33.4346 8.95363 35.2389 10.3586 37.0491 11.1873ZM23.5827 20.6016L23.447 23.4472L20.6015 23.5828L17.7559 23.7181V28V32.282L20.6015 32.4172L23.447 32.5528L23.5827 35.3984L23.7179 38.2439H27.9998H32.2818L32.417 35.3984L32.5527 32.5528L35.3982 32.4172L38.2437 32.282V28V23.7181L35.3982 23.5828L32.5527 23.4472L32.417 20.6016L32.2818 17.7561H27.9998H23.7179L23.5827 20.6016ZM30.0486 22.2766C30.0486 25.1945 30.8053 25.9512 33.7232 25.9512H35.9673V28V30.0488H33.7232C32.2904 30.0488 31.221 30.3074 30.7639 30.764C30.3072 31.2211 30.0486 32.2906 30.0486 33.7234V35.9675H27.9998H25.9511V33.7234C25.9511 32.2906 25.6925 31.2211 25.2358 30.764C24.7787 30.3074 23.7092 30.0488 22.2765 30.0488H20.0324V28V25.9512H22.2765C23.7092 25.9512 24.7787 25.6926 25.2358 25.236C25.6925 24.7789 25.9511 23.7094 25.9511 22.2766V20.0325H27.9998H30.0486V22.2766ZM41.1284 33.4939C40.9777 33.8864 41.0779 34.4309 41.3511 34.7041C42.0085 35.3615 43.2956 34.3348 42.9486 33.4302C42.6154 32.5624 41.4703 32.6025 41.1284 33.4939ZM38.1226 39.9521C36.3816 42.7731 34.1867 45.212 31.6444 47.1511C29.067 49.117 29.7804 50.884 32.4785 49.2167C36.4176 46.7823 42.0923 39.0875 40.8589 37.8542C40.033 37.0283 39.8327 37.1817 38.1226 39.9521Z" fill="#719FD6"/>
</svg>
