<svg width="57" height="56" viewBox="0 0 57 56" fill="none" xmlns="http://www.w3.org/2000/svg">
<path fill-rule="evenodd" clip-rule="evenodd" d="M22.3131 0.510704C17.504 1.60612 11.7464 4.61054 11.7464 6.0242C11.7464 7.03857 12.8842 6.80091 15.259 5.29119C18.8402 3.01477 23.1245 1.90934 28.3643 1.90934C34.2275 1.90934 38.1675 3.09171 42.9398 6.28371C54.2969 13.8797 57.8604 29.5005 50.8677 41.0374L49.3903 43.4759L48.5858 42.4907C47.8842 41.6315 47.7449 41.6001 47.4927 42.2462C47.3342 42.6537 47.2677 43.9854 47.3451 45.2055C47.4822 47.3622 47.5295 47.4282 49.0288 47.5716C52.2399 47.878 54.1275 46.3938 51.6284 45.527L50.5349 45.1477L52.2463 42.3277C55.0695 37.6747 56.1371 33.6978 56.1335 27.8469C56.1303 21.9287 55.1246 18.1111 52.3715 13.561C47.4043 5.35357 39.0621 0.413729 29.5235 0.0322004C26.7713 -0.0779784 24.1265 0.0977614 22.3131 0.510704ZM4.5757 8.33295C3.63691 8.7295 3.93193 9.76118 5.10019 10.1668L6.19378 10.5461L4.4983 13.3406C-0.465208 21.5198 -0.879515 31.4113 3.37011 40.2803C5.71847 45.1809 11.0303 50.4927 15.931 52.8411C22.5817 56.0276 30.0489 56.6304 36.7871 54.5247C40.3825 53.4011 44.6863 50.9002 44.8957 49.8135C45.1243 48.6274 43.9423 48.8305 41.4697 50.4026C37.8884 52.679 33.6042 53.7845 28.3643 53.7845C22.5012 53.7845 18.5611 52.6021 13.7888 49.4101C2.43176 41.8141 -1.13175 26.1933 5.86097 14.6564L7.33837 12.2179L8.14286 13.2031C8.84445 14.0622 8.98376 14.0937 9.23599 13.4476C9.39443 13.0401 9.4609 11.7084 9.38351 10.4883L9.24237 8.26966L7.19359 8.18134C6.06676 8.13262 4.88894 8.20092 4.5757 8.33295ZM13.6823 13.0975C10.0651 14.8881 8.0131 18.3319 8.0131 22.6111C8.0131 26.9286 8.75886 27.994 18.9322 38.2092L28.3461 47.6622L37.5852 38.4373C47.7444 28.2944 48.7155 26.9208 48.7155 22.6954C48.7155 16.5376 44.4814 12.1396 38.5541 12.1396C35.52 12.1396 32.0148 13.7367 29.992 16.04C29.2371 16.8996 28.505 17.603 28.3643 17.603C28.2236 17.603 27.4915 16.8996 26.7367 16.04C23.5351 12.3941 17.7421 11.0883 13.6823 13.0975ZM21.5546 14.6222C22.4256 14.9865 24.2312 16.3182 25.5675 17.5816C26.9038 18.8455 28.1909 19.8794 28.4272 19.8794C28.6639 19.8794 29.7711 18.9406 30.8875 17.7928C33.8496 14.7484 35.8975 13.82 39.1345 14.0541C41.2175 14.2048 42.1462 14.5367 43.4957 15.612C45.6988 17.3681 46.9085 19.8316 46.9085 22.5615C46.9085 23.7844 46.5393 25.4371 46.059 26.3622C45.5918 27.2628 41.6759 31.5939 37.3562 35.9865L29.5025 43.9731V37.5681V31.1627L30.6116 31.4414C32.6649 31.9567 36.4192 30.8099 38.0646 29.1645C40.1749 27.0542 39.9276 25.8368 37.2424 25.1179C36.1155 24.8165 34.579 24.2324 33.8277 23.8208C32.1359 22.8934 31.6141 22.8861 29.7648 23.7634C28.4476 24.3886 28.1576 24.389 26.9639 23.7662C25.2734 22.8847 24.5918 22.8939 22.9009 23.8208C22.1497 24.2324 20.6131 24.8165 19.4863 25.1179C16.801 25.8368 16.5538 27.0542 18.664 29.1645C20.3094 30.8099 24.0637 31.9567 26.117 31.4414L27.2261 31.1627V37.5463V43.9294L19.3724 35.9696C9.65349 26.1191 8.9305 24.8898 10.1306 20.2623C11.435 15.2337 16.7445 12.6126 21.5546 14.6222ZM16.6221 16.066C15.829 16.8591 16.3407 17.6585 17.5513 17.5192C18.2966 17.4336 18.8033 17.099 18.8033 16.6924C18.8033 15.9767 17.178 15.5101 16.6221 16.066ZM12.8692 18.5304C11.5775 19.9582 11.4396 24.2515 12.6251 26.1396C13.624 27.7308 14.9425 28.1233 14.9189 26.8225C14.9111 26.3845 14.6038 25.6278 14.2359 25.142C13.8685 24.6558 13.5676 23.5171 13.5676 22.6111C13.5676 21.7051 13.8685 20.5664 14.2359 20.0802C15.7575 18.0688 14.5382 16.6861 12.8692 18.5304ZM26.214 25.5964C27.5612 26.5398 27.5243 28.3136 26.1384 29.2214C25.2397 29.8105 24.7057 29.8465 23.0653 29.4295C20.96 28.8945 18.9509 27.6375 19.7139 27.3333C19.9643 27.2332 21.1936 26.6581 22.4456 26.0553C25.2365 24.7118 24.9934 24.7414 26.214 25.5964ZM34.3418 26.0931C35.8119 26.7565 37.1021 27.3734 37.2091 27.464C37.6166 27.8091 35.5665 28.946 33.6634 29.4295C31.2499 30.0432 29.5025 29.1936 29.5025 27.4071C29.5025 26.5735 30.9044 24.8875 31.5977 24.8875C31.6369 24.8875 32.8716 25.4302 34.3418 26.0931Z" fill="#6FC3A3"/>
</svg>
