<svg width="57" height="56" viewBox="0 0 57 56" fill="none" xmlns="http://www.w3.org/2000/svg">
<path fill-rule="evenodd" clip-rule="evenodd" d="M36.5255 0.962486C34.7845 2.07702 32.9774 4.97673 32.5431 7.35241C32.0937 9.8114 33.3312 13.5862 35.1519 15.3103C37.6828 17.7065 38.3493 17.8759 40.1145 16.5737C44.9314 13.0198 45.4026 6.21693 41.1284 1.94226C40.0557 0.869608 38.9166 -0.00408321 38.597 1.43544e-05C38.2774 0.00411192 37.345 0.437088 36.5255 0.962486ZM41.2618 5.78258C42.1437 7.85185 42.0367 10.2043 40.9663 12.3032C39.7603 14.6666 39.1543 14.5846 39.1543 12.0573C39.1543 10.3122 39.0195 10.0085 38.2437 10.0085C37.4629 10.0085 37.3308 10.3168 37.3186 12.1711L37.3045 14.3337L36.2008 13.0799C33.9677 10.5426 34.3087 6.13406 36.9416 3.5007L38.2892 2.15306L39.4634 3.23527C40.109 3.83032 40.9185 4.97673 41.2618 5.78258ZM22.9521 15.436C20.8045 15.9646 20.5964 16.2118 20.2631 18.6353C19.3307 25.414 24.6712 31.4069 31.6444 31.4069C35.695 31.4069 36.199 30.892 36.1772 26.7762C36.1567 22.9864 35.2475 20.7765 32.7065 18.3407C30.2102 15.9477 25.9852 14.6898 22.9521 15.436ZM49.2252 15.5093C45.9717 16.1467 42.9509 18.4759 41.3027 21.6183C40.5907 22.976 40.3439 24.2913 40.3326 26.7862C40.3143 30.9025 40.8065 31.4087 44.8185 31.4024C49.4164 31.3951 53.2289 29.0704 55.341 24.986C56.8161 22.1337 56.7223 16.7864 55.1835 15.9928C53.8568 15.3085 51.3076 15.1018 49.2252 15.5093ZM29.0415 18.3812C31.9448 19.8827 34.1461 23.2077 34.1461 26.0915V27.4942L32.4197 25.8083C30.5476 23.9803 29.718 23.7231 29.2905 24.8376C29.1148 25.2947 29.6452 26.1971 30.7629 27.3417L32.5098 29.1305H30.8057C28.8603 29.1305 26.1905 27.8985 24.7208 26.3232C22.4408 23.8788 21.4756 18.7614 23.1055 17.7588C24.0802 17.1597 27.3396 17.5012 29.0415 18.3812ZM53.1543 17.5799C54.0311 17.8148 54.1787 18.1609 54.1787 19.9815C54.1787 24.5653 50.6511 28.6351 46.3428 29.0212L43.9348 29.237L45.6421 27.4573C47.3517 25.6749 47.8702 24.1224 46.7557 24.1224C46.4293 24.1224 45.4672 24.8394 44.6177 25.7159C42.7556 27.6372 42.3381 27.7 42.3513 26.0573C42.3909 21.0738 48.4498 16.3192 53.1543 17.5799ZM15.8979 35.163C12.964 36.6568 0.455078 46.0548 0.455078 46.7655C0.455078 48.4391 2.19699 47.5927 8.75354 42.7321C18.4415 35.5505 20.7722 34.8871 26.8029 37.5938C28.7588 38.472 30.0112 38.6915 33.063 38.6915C36.271 38.6915 37.0226 38.8362 37.7884 39.602C38.8715 40.6852 38.9016 40.972 38.0534 42.133C37.4925 42.9006 36.6707 43.0467 31.7932 43.2443C27.2071 43.4301 26.1787 43.5972 26.1787 44.1549C26.1787 44.7222 27.2258 44.8592 32.3669 44.9639L38.5551 45.09L44.9701 42.346C51.7265 39.4559 52.8187 39.195 53.7024 40.2599C54.7368 41.5065 54.0694 42.9616 52.0274 43.9104C48.606 45.4998 49.0144 47.6801 52.4563 46.1996C55.4867 44.8961 56.2274 43.9923 56.2274 41.5989C56.2274 39.8893 56.0021 39.3293 54.9499 38.4242C53.1679 36.8913 51.8972 37.0315 46.4338 39.3653C43.8073 40.4876 41.4025 41.4095 41.0892 41.4141C40.7764 41.4191 40.5201 40.9019 40.5201 40.2645C40.5201 39.6271 40.017 38.6027 39.4024 37.988C38.3953 36.9805 37.9118 36.8703 34.4953 36.8703C31.307 36.8703 30.2011 36.6554 27.5313 35.5168C23.3864 33.7489 18.9405 33.6141 15.8979 35.163ZM45.3006 47.3419C44.8804 48.0221 45.465 48.7077 46.4657 48.7077C47.0457 48.7077 47.3494 48.3949 47.3494 47.7972C47.3494 46.8315 45.8256 46.4928 45.3006 47.3419ZM38.9266 49.9793C36.2304 51.1959 36.0497 51.2136 24.9885 51.3538L13.7822 51.4963L12.2943 53.0311C11.366 53.9886 10.9093 54.8349 11.0796 55.2793C11.4529 56.2522 11.8454 56.1799 13.3879 54.8536C14.7105 53.7159 14.7109 53.7159 24.5733 53.7159C32.3132 53.7159 34.9684 53.5579 36.9088 52.9828C40.5711 51.897 42.8789 50.6094 42.7114 49.7458C42.4915 48.6107 41.8769 48.6485 38.9266 49.9793Z" fill="#A6CA61"/>
</svg>
