<svg width="56" height="57" viewBox="0 0 56 57" fill="none" xmlns="http://www.w3.org/2000/svg">
<path fill-rule="evenodd" clip-rule="evenodd" d="M36.994 0.599089C36.7427 0.677729 36.3736 0.844417 36.1737 0.969761C35.9737 1.095 27.9738 9.03781 18.3962 18.6204C4.07626 32.9476 0.941681 36.1356 0.754322 36.5629C0.419853 37.3252 0.367681 38.0238 0.588181 38.7867C0.769963 39.4155 0.862931 39.522 3.85521 42.5326C5.6191 44.3072 7.12203 45.7284 7.3726 45.8585C7.64615 46.0005 8.09863 46.1046 8.5801 46.1359C10.1262 46.237 8.47412 47.7585 28.0107 28.2411C40.7459 15.5185 45.5601 10.642 45.7841 10.238C46.0537 9.7517 46.0912 9.57014 46.09 8.7542C46.0889 8.01176 46.0411 7.73635 45.8528 7.38701C45.7231 7.14639 44.2225 5.56395 42.5182 3.8705C39.606 0.976761 39.3837 0.780979 38.8254 0.616589C38.1215 0.409323 37.6163 0.404511 36.994 0.599089ZM38.4113 2.34395C38.9143 2.5616 44.2516 7.96189 44.3471 8.34995C44.5112 9.01582 44.3349 9.41143 43.4992 10.2529L42.7048 11.0525L41.0621 9.42576C40.1586 8.53096 39.3347 7.76982 39.2311 7.73428C38.9682 7.64404 38.3971 7.86235 38.2687 8.10221C38.2099 8.21224 38.1617 8.4591 38.1617 8.65062C38.1617 8.95282 38.3789 9.21904 39.7996 10.6584L41.4374 12.3179L40.1881 13.5637L38.9386 14.8096L38.0592 13.9694C37.3225 13.2656 37.1204 13.1292 36.8147 13.1292C36.3479 13.1292 35.9377 13.5411 35.9377 14.0099C35.9377 14.2828 36.0992 14.508 36.802 15.2149L37.6663 16.0843L36.3848 17.3658L35.1032 18.6475L33.4253 16.982C31.9584 15.5262 31.703 15.3167 31.3948 15.3167C30.923 15.3167 30.5054 15.7343 30.5054 16.2061C30.5054 16.5142 30.7148 16.7695 32.1702 18.2359L33.835 19.9133L32.5851 21.1666L31.3352 22.4201L30.5027 21.6098C29.5814 20.7134 29.2723 20.5728 28.7805 20.8272C28.0871 21.1857 28.1395 21.744 28.947 22.6022C29.2928 22.9697 29.6713 23.3777 29.7881 23.509L30.0006 23.7477L28.7506 25.0012L27.5007 26.2547L25.8353 24.5919C24.3121 23.0711 24.1367 22.9292 23.7806 22.9292C23.2612 22.9292 22.9148 23.2756 22.9148 23.795C22.9148 24.1511 23.0566 24.3265 24.5775 25.8497L26.2403 27.5151L24.9856 28.7662L23.7308 30.0174L22.865 29.1748C22.1053 28.4356 21.9502 28.3323 21.5989 28.3323C21.081 28.3323 20.6617 28.7272 20.6617 29.2149C20.6617 29.4978 21.1257 29.9845 21.4979 30.42C21.8631 30.8472 22.5364 31.4164 22.5364 31.4164C22.0811 32.0993 20.7152 33.2375 20.0323 33.9204L17.6456 31.6136L17.107 31.0667C16.6659 30.6188 16.4996 30.5198 16.1884 30.5198C15.7087 30.5198 15.3023 30.8797 15.3023 31.3045V31.6136L18.6665 35.2863L8.87784 44.8473L1.82093 37.5627L7.91981 31.6136L22.4118 17.1104C30.3825 9.13384 37.0515 2.51403 37.232 2.39995C37.6227 2.15298 37.9355 2.1381 38.4113 2.34395ZM32.6108 32.6254C12.1417 53.0947 10.4898 54.7735 10.4898 55.1069C10.4898 55.3437 10.5819 55.5594 10.7583 55.7357L11.0267 56.0042H33.1885H55.3504L55.6701 55.6845L55.9898 55.3648V33.2029V11.0411L55.7213 10.7727C55.5449 10.5962 55.3293 10.5042 55.0924 10.5042C54.7587 10.5042 53.085 12.1511 32.6108 32.6254ZM54.2398 17.5042V21.5511H53.5763C52.7905 21.5511 52.5653 21.6517 52.3868 22.0825C52.1052 22.7623 52.7142 23.3011 53.7639 23.3011H54.2398V24.5042V25.7073H52.8642C51.4897 25.7073 51.4884 25.7075 51.1689 26.027C50.993 26.2029 50.8492 26.4268 50.8492 26.5247C50.8492 26.795 51.1469 27.3128 51.3463 27.3894C51.4436 27.4267 52.1345 27.4573 52.8816 27.4573H54.2398V28.7151V29.9729H53.5925C52.7825 29.9729 52.6311 30.0315 52.4288 30.4228C52.0587 31.1382 52.5846 31.7229 53.5983 31.7229H54.2398V32.9174V34.1118L52.8082 34.1479C51.3944 34.1834 51.3733 34.1877 51.1129 34.4908C50.7901 34.8664 50.7777 35.212 51.0734 35.5878C51.2922 35.8661 51.3323 35.8736 52.7413 35.9034L54.1851 35.9339L54.2161 37.1644L54.247 38.3948H53.5422C52.8894 38.3948 52.8165 38.4197 52.5542 38.7314C52.1978 39.155 52.1978 39.3847 52.5542 39.8083C52.8162 40.1197 52.8899 40.1448 53.5386 40.1448H54.2398V41.337V42.5291L52.8084 42.5675C51.3961 42.6052 51.3734 42.6098 51.1131 42.9127C50.76 43.3232 50.7779 43.6997 51.1689 44.0907C51.4884 44.4102 51.4897 44.4104 52.8642 44.4104H54.2398V45.6136V46.8167H53.5751C52.9804 46.8167 52.8754 46.8517 52.5779 47.1492C52.2988 47.4283 52.2567 47.5378 52.3153 47.8314C52.4229 48.3688 52.6345 48.506 53.4505 48.5667L54.1851 48.6214L54.2143 51.4378L54.2435 54.2542H51.4653H48.6871L48.641 53.5285C48.6011 52.9024 48.5535 52.7674 48.2939 52.5441C47.8894 52.1961 47.5114 52.2158 47.122 52.6052C46.8388 52.8883 46.8023 53.0008 46.8023 53.5895V54.2542H45.5992H44.396V52.9345C44.396 51.6145 44.3207 51.2745 43.9681 51.0038C43.6893 50.7897 43.229 50.843 42.8983 51.1275C42.5954 51.3878 42.5908 51.4106 42.5531 52.8228L42.5147 54.2542H41.3226H40.1304V53.5676C40.1304 53.1341 40.0699 52.7946 39.9662 52.6466C39.6499 52.1949 38.8917 52.23 38.5206 52.7134C38.4474 52.8089 38.3858 53.1947 38.3839 53.5706L38.3804 54.2542H37.1773H35.9742V52.8786C35.9742 51.5041 35.9739 51.5028 35.6545 51.1833C35.2396 50.7684 34.8494 50.7684 34.4345 51.1833C34.115 51.5028 34.1148 51.5041 34.1148 52.8786V54.2542H32.9117H31.7085L31.705 53.5706C31.7032 53.1947 31.6416 52.8089 31.5683 52.7134C31.1972 52.23 30.439 52.1949 30.1227 52.6466C30.019 52.7946 29.9585 53.1341 29.9585 53.5676V54.2542H28.7719H27.5853L27.5209 52.8052C27.459 51.4149 27.4448 51.3461 27.1701 51.1099C26.7848 50.7784 26.339 50.7941 25.9812 51.1519C25.6996 51.4336 25.6929 51.4729 25.6929 52.8472V54.2542H24.4898H23.2867V53.5895C23.2867 53.0008 23.2501 52.8883 22.967 52.6052C22.5776 52.2158 22.1996 52.1961 21.795 52.5441C21.5355 52.7674 21.4879 52.9024 21.448 53.5285L21.4018 54.2542H17.4519H13.502L17.1639 50.5648C23.0283 44.656 54.1744 13.4573 54.2086 13.4573C54.2258 13.4573 54.2398 15.2784 54.2398 17.5042ZM45.5445 32.5846C45.364 32.7002 42.3502 35.6667 38.8472 39.1769C31.8509 46.1871 32.0392 45.9611 32.6717 46.5936L33.0042 46.9261H39.6382H46.2723L46.592 46.6064L46.9117 46.2867V39.6672V33.0477L46.6656 32.7722C46.3256 32.3918 45.945 32.328 45.5445 32.5846ZM45.1617 40.3089V45.1761H40.2676H35.3735L40.2398 40.3089C42.9162 37.6319 45.1186 35.4417 45.1339 35.4417C45.1492 35.4417 45.1617 37.6319 45.1617 40.3089Z" fill="#E86851"/>
</svg>
