<svg width="57" height="60" viewBox="0 0 57 60" fill="none" xmlns="http://www.w3.org/2000/svg">
<path fill-rule="evenodd" clip-rule="evenodd" d="M25.4978 8.12958C22.3705 8.46667 18.9069 9.64459 16.1859 11.2965C11.604 14.0781 8.07528 18.4331 6.19354 23.6284C5.67833 25.0512 5.65366 25.5314 6.07821 25.8758C6.80616 26.4666 7.34581 26.0648 7.85847 24.5502C12.0741 12.0973 26.0949 6.33509 37.6178 12.32C44.3874 15.8361 48.7606 22.6311 49.361 30.5665L49.4381 31.5869L48.2209 30.3564C47.1909 29.3152 46.9464 29.1259 46.6323 29.1259C46.1315 29.1259 45.6897 29.5859 45.6897 30.1073C45.6897 30.4556 45.9267 30.7438 47.8171 32.6937C49.7514 34.6891 49.9808 34.8882 50.3448 34.8882C50.7089 34.8882 50.9382 34.6891 52.8726 32.6937C54.7629 30.7438 55 30.4556 55 30.1073C55 29.5859 54.5581 29.1259 54.0573 29.1259C53.7433 29.1259 53.5027 29.3121 52.4975 30.3325L51.3088 31.539L51.2291 30.4826C50.7903 24.6645 48.6152 19.5782 44.7956 15.4379C39.8476 10.0745 32.6707 7.35646 25.4978 8.12958ZM18.4101 16.9109C18.0248 17.2667 14.0345 24.4548 14.0345 24.793C14.0345 24.937 14.9003 26.6168 15.9587 28.5256L17.8829 31.9963L15.9587 35.467C14.9003 37.3759 14.0345 39.0547 14.0345 39.1975C14.0345 39.5398 18.0244 46.7542 18.4067 47.1032C18.7019 47.3726 18.7132 47.3733 22.8804 47.3733C25.6281 47.3733 27.1526 47.3289 27.3343 47.2434C27.5249 47.1539 28.2033 46.0463 29.5219 43.672L31.4332 40.2304L35.358 40.1704C39.0873 40.1134 39.294 40.0985 39.5115 39.8703C39.8749 39.4894 43.8276 32.279 43.8276 31.9972C43.8276 31.6619 39.8329 24.4622 39.4536 24.1139C39.1612 23.8454 39.1349 23.8437 35.2963 23.8394L31.4332 23.8352L29.5281 20.3707C28.1803 17.9198 27.5403 16.8675 27.3405 16.7736C27.1509 16.6845 25.6843 16.6408 22.8804 16.6408C18.7121 16.6408 18.702 16.6414 18.4101 16.9109ZM28.1335 21.7093L29.851 24.7968L28.1352 27.8918L26.4195 30.9867H22.9458H19.4722L17.7572 27.8911L16.0424 24.7956L17.4909 22.1887C18.2876 20.755 19.0692 19.3516 19.2278 19.07L19.5162 18.558L22.966 18.5898L26.4158 18.6216L28.1335 21.7093ZM20.5752 20.6925C20.1851 21.0411 18.3405 24.4619 18.3405 24.8365C18.3405 25.5796 19.3411 26.0529 19.8349 25.5435C19.9528 25.4219 20.4111 24.6661 20.8533 23.8638L21.6573 22.4052L23.3792 22.4042C25.0515 22.4032 25.1093 22.3946 25.3867 22.1084C25.5669 21.9227 25.6724 21.6766 25.6724 21.4428C25.6724 21.2089 25.5669 20.9628 25.3867 20.7771C25.1041 20.4855 25.0784 20.4824 22.9557 20.4824C21.0795 20.4824 20.7808 20.5088 20.5752 20.6925ZM40.11 28.9092L41.8223 31.9939L40.1061 35.0917L38.3899 38.1896H34.9163H31.4426L29.7297 35.1L28.017 32.0104L29.7251 28.889L31.4332 25.7676L34.9155 25.7961L38.3977 25.8245L40.11 28.9092ZM32.555 28.0154C32.1706 28.4183 30.3276 31.7602 30.3276 32.0545C30.3276 32.3679 30.9628 32.9675 31.2949 32.9675C31.7503 32.9675 32.0254 32.6436 32.875 31.1067L33.6713 29.6661L35.2872 29.6369C36.1759 29.6209 37.0199 29.5796 37.1628 29.5451C37.4935 29.4655 37.8175 28.8332 37.7242 28.4497C37.6853 28.29 37.5502 28.0528 37.4238 27.9224C37.2114 27.7033 37.0295 27.6853 35.032 27.6853H32.87L32.555 28.0154ZM3.12741 31.3204C1.23706 33.2703 1 33.5586 1 33.9068C1 34.4282 1.44189 34.8882 1.94267 34.8882C2.25666 34.8882 2.49734 34.702 3.5025 33.6816L4.6912 32.4751L4.77092 33.5316C5.13996 38.4246 6.70945 42.7271 9.53561 46.593C10.4451 47.8371 12.6661 50.1247 13.8925 51.0804C20.4838 56.2171 29.0243 57.4175 36.6186 54.2743C42.9535 51.6526 47.9258 46.2408 50.0577 39.6473C50.4284 38.5009 50.4621 38.3016 50.3378 37.9921C50.1726 37.5805 49.9093 37.4093 49.4417 37.4093C48.9421 37.4093 48.6864 37.7926 48.2001 39.27C47.6529 40.9325 46.4976 43.2531 45.4825 44.7288C44.5349 46.1065 42.4797 48.3314 41.2045 49.3601C33.4013 55.6549 22.6005 55.6513 14.7909 49.3511C13.7243 48.4906 11.97 46.6887 11.1707 45.6326C8.52381 42.1352 6.98294 37.992 6.63904 33.4477L6.56188 32.4272L7.7791 33.6577C8.77623 34.6657 9.0595 34.8882 9.34544 34.8882C9.83808 34.8882 10.3103 34.408 10.3103 33.9072C10.3103 33.5585 10.0739 33.2709 8.18293 31.3204C6.24859 29.3251 6.01921 29.1259 5.65517 29.1259C5.29114 29.1259 5.06175 29.3251 3.12741 31.3204ZM28.1448 36.1153L29.8653 39.2032L28.1395 42.2978L26.4139 45.3925H22.9438H19.4738L17.8046 42.3913C16.8866 40.7406 16.1341 39.3114 16.1323 39.2153C16.1298 39.0663 17.0402 37.3752 19.0607 33.776L19.5166 32.9639L22.9704 32.9957L26.4242 33.0275L28.1448 36.1153ZM20.5756 35.0983C20.1929 35.4408 18.3405 38.8813 18.3405 39.2495C18.3405 39.9883 19.3444 40.4554 19.838 39.9463C19.9575 39.823 20.4122 39.0667 20.8484 38.2656L21.6414 36.809H23.3712C25.0527 36.809 25.1091 36.8007 25.3867 36.5143C25.7872 36.1012 25.7776 35.4712 25.3658 35.1371C25.081 34.906 24.9077 34.8882 22.9347 34.8882C21.0785 34.8882 20.7806 34.9148 20.5756 35.0983Z" fill="#9BBA52"/>
</svg>
