<svg width="190" height="176" viewBox="0 0 190 176" fill="none" xmlns="http://www.w3.org/2000/svg">
<path d="M115.223 118L104.248 148.202H105.39L117.255 119.603L141.731 119.675L149.146 149.842H150.162L144.456 118H115.223Z" fill="url(#paint0_linear_952_1029)"/>
<path d="M69.3892 60.459L85.4901 114.182H145.167V117.634H86.7846C86.7846 117.634 84.7204 117.688 83.859 117.073C82.9975 116.457 82.7088 115.033 82.7088 115.033L67.3164 63.2513L69.3892 60.459Z" fill="#E6E9ED"/>
<path d="M86.1552 59.4306H71.8988C71.8988 59.4306 70.2849 59.2486 69.5114 60.2246C68.9394 60.9644 69.9036 63.1055 69.9036 63.1055L85.4914 114.181H117.993L93.9945 58.5684L86.1552 59.4306Z" fill="#8A849E"/>
<path d="M119.278 141.681C119.278 141.681 120.648 141.302 120.78 142.234C120.912 143.166 120.817 144.016 122.395 145.387C123.972 146.759 127.181 148.508 126.503 149.743C125.826 150.978 124.194 150.786 121.639 149.843C119.084 148.9 115.447 146.771 114.019 146.276C112.591 145.781 112.176 145.282 112.35 144.209C112.524 143.137 113.732 139.783 114.468 140.349C115.204 140.915 117.89 142.621 119.278 141.681Z" fill="url(#paint1_linear_952_1029)"/>
<path d="M114.592 140.629C114.592 140.629 114.357 141.921 116.367 142.819C118.377 143.716 119.341 141.877 119.341 141.877L114.592 140.629Z" fill="url(#paint2_linear_952_1029)"/>
<path d="M135.569 104.984C135.569 104.984 137.374 108.585 135.859 112.378C134.345 116.17 119.454 142.64 119.454 142.64L114.59 140.628L125.888 107.333C125.888 107.333 133.96 103.151 135.569 104.984Z" fill="black"/>
<path d="M90.1099 103.708C90.1099 103.708 88.4498 109.334 94.225 111.153C100 112.972 117.01 113.843 117.01 113.843C117.01 113.843 118.277 106.96 123.341 107.197C128.405 107.434 128.325 107.716 131.331 106.033C134.337 104.35 136.316 105.14 136.316 105.14L119.859 97.3203L90.1099 103.708Z" fill="url(#paint3_linear_952_1029)"/>
<path d="M121.458 55.8633C121.458 55.8633 124.076 60.2835 124.824 66.7688C125.573 73.254 124.824 78.9703 126.798 77.6742C128.772 76.3781 133.945 62.0198 133.945 62.0198C133.945 62.0198 134.693 63.858 136.463 63.9937C138.233 64.1295 139.323 64.1985 139.323 64.1985C139.323 64.1985 134.49 80.1252 131.359 84.4121C128.228 88.699 126.118 89.2442 126.118 89.2442C126.118 89.2442 121.286 90.2642 118.699 80.6007C116.112 70.9372 121.458 55.8633 121.458 55.8633Z" fill="url(#paint4_linear_952_1029)"/>
<path d="M116 53.2715C116 53.2715 121.041 54.821 121.458 55.8606C121.874 56.9001 120.693 75.7211 120.416 79.4713C120.14 83.2215 120.763 98.8234 120.763 98.8234L107.347 97.3178C107.347 97.3178 107.331 68.7118 107.347 66.7652L116 53.2715Z" fill="url(#paint5_linear_952_1029)"/>
<path d="M96.6132 52.9082C96.6132 52.9082 90.696 54.8618 89.1465 57.665C87.5969 60.4683 90.4261 83.7785 90.6277 85.7996C90.8293 87.8206 90.8984 88.697 90.8984 88.697L91.3691 98.3087L107.344 97.838V65.5923L96.6132 52.9082Z" fill="url(#paint6_linear_952_1029)"/>
<path d="M102.725 51.4694C102.725 51.4694 99.4621 52.2744 99.1224 52.8675C98.7827 53.4606 100.012 57.1481 102.937 60.5382C105.862 63.9283 107.344 66.7685 107.344 66.7685C107.344 66.7685 111.667 61.7245 112.981 57.5718C114.295 53.4191 113.914 52.3591 113.914 52.3591C113.914 52.3591 108.913 49.6892 102.725 51.4694Z" fill="url(#paint7_linear_952_1029)"/>
<path d="M110.919 46.7676C110.919 46.7676 111.643 51.7103 111.531 52.3231C111.42 52.9358 110.976 55.3782 107.198 55.3782C103.42 55.3782 103.087 52.4337 103.087 52.4337L102.524 49.3229L110.919 46.7676Z" fill="url(#paint8_linear_952_1029)"/>
<path d="M98.6133 37.9146C98.6133 37.9146 98.3646 40.033 98.7279 40.6959C98.95 41.0986 99.1248 41.5256 99.2488 41.9685C99.2488 41.9685 99.2826 44.7929 100.064 46.865C100.845 48.937 102.418 51.3794 103.254 51.6147C104.09 51.8501 106.381 52.2275 107.787 50.6246C109.194 49.0217 112.158 48.7573 112.73 43.5714C113.302 38.3854 114.396 38.9981 111.062 37.396C107.728 35.7939 98.8746 35.7924 98.6133 37.9146Z" fill="url(#paint9_linear_952_1029)"/>
<path d="M108.289 29.0323C102.543 28.3482 96.7641 30.6258 96.6629 36.0518C96.6252 38.0313 97.9237 38.6527 100.494 38.6982C101.231 38.7115 101.966 38.6197 102.659 38.5185C102.196 38.7727 101.498 39.034 100.495 39.1305C98.3246 39.3392 97.2717 38.7735 97.2717 38.7735C97.2717 38.7735 98.8832 39.8444 102.401 39.6067C104.353 39.4749 105.424 38.9751 105.991 38.5577C106.218 38.6908 106.407 38.8799 106.54 39.1069C107.497 40.7035 109.06 40.7945 109.159 41.7062C109.259 42.6179 108.909 44.2647 109.765 44.3541C110.621 44.4435 110.768 41.1868 111.883 41.4324C112.999 41.6779 112.339 44.0787 111.883 45.9476C111.428 47.8164 111.013 47.3119 111.062 48.5429C111.111 49.7739 112.412 48.3483 113.373 46.2888C114.393 44.0968 115.619 42.7246 116.073 38.848C116.527 34.9715 114.034 29.7157 108.289 29.0323Z" fill="url(#paint10_linear_952_1029)"/>
<path d="M108.288 53.8911C108.288 53.8911 109.29 54.9628 109.569 55.8949C109.849 56.827 109.978 57.0192 109.978 57.0192C109.978 57.0192 111.87 55.3849 112.314 53.6369C112.757 51.8889 112.784 51.8763 112.784 51.8763L111.545 50.6328C111.545 50.6328 110.527 52.8429 108.288 53.8911Z" fill="url(#paint11_linear_952_1029)"/>
<path d="M102.874 51.2613C102.874 51.2613 102.976 52.0498 104.187 53.1443C105.397 54.2388 106.121 54.1462 106.121 54.1462C106.121 54.1462 105.166 54.7519 104.746 55.5906C104.326 56.4293 103.955 57.665 103.955 57.665C103.955 57.665 102.795 56.667 101.979 54.6734C101.163 52.6798 101.39 51.6293 101.39 51.6293C101.39 51.6293 101.956 50.6596 102.874 51.2613Z" fill="url(#paint12_linear_952_1029)"/>
<path d="M99.4638 52.5793C99.4638 52.5793 97.8013 52.2514 97.205 52.5793L96.6104 52.9081L98.4619 58.7139L100.561 58.3844L99.3909 60.7836L107.342 66.7714L99.4638 52.5793Z" fill="url(#paint13_linear_952_1029)"/>
<path d="M113.913 52.3583C113.913 52.3583 113.506 56.8052 111.162 60.5758C108.818 64.3465 107.343 66.7676 107.343 66.7676L114.78 59.6006L113.557 58.5375L115.597 58.0283C115.597 58.0283 116.46 53.5948 115.852 52.9287C115.244 52.2626 113.913 52.3583 113.913 52.3583Z" fill="url(#paint14_linear_952_1029)"/>
<path d="M105.524 56.0871L104.833 62.2443L107.344 66.7681L109.494 63.269L108.539 55.916L105.524 56.0871Z" fill="#E86851"/>
<path d="M106.121 54.1479L108.429 53.8223C108.429 53.8223 109.37 54.9473 108.86 55.593C108.35 56.2387 107.479 56.5118 106.639 56.4435C106.111 56.3896 105.608 56.1893 105.188 55.8653C105.188 55.8653 104.886 54.322 106.121 54.1479Z" fill="#DE5E47"/>
<path d="M89.5956 57.0195C89.5956 57.0195 94.5297 66.4437 92.3118 73.7002C90.0938 80.9567 88.4101 87.3148 89.9871 88.0625C91.5641 88.8102 105.678 89.7226 105.678 89.7226C105.678 89.7226 104.848 89.8858 104.35 92.0041C103.852 94.1225 104.433 95.0365 104.433 95.0365C104.433 95.0365 90.9011 96.1153 86.75 95.0365C82.5988 93.9577 80.3573 92.0473 81.1011 86.1528C81.8449 80.2584 87.7895 58.5981 89.5956 57.0195Z" fill="url(#paint15_linear_952_1029)"/>
<path d="M134.243 62.5639C134.243 62.5639 133.822 59.3605 134.777 58.15C135.733 56.9394 137.803 55.8637 137.803 55.8637C137.803 55.8637 137.994 56.5573 137.357 57.3544C136.72 58.1515 136.688 58.6599 136.688 58.6599C136.688 58.6599 142.04 54.4233 142.549 54.9332C143.058 55.4432 138.96 58.2135 139.322 58.3736C139.685 58.5336 143.887 55.7296 144.27 56.1438C144.654 56.5581 140.83 58.7556 140.83 58.9471C140.83 59.1385 145.002 56.653 145.162 57.163C145.323 57.6729 141.339 59.7748 141.499 60.1255C141.659 60.4762 144.525 58.2778 144.842 59.042C145.16 59.8062 143.473 59.9976 141.53 61.5589C139.587 63.1202 138.693 64.1582 138.693 64.1582C138.693 64.1582 135.241 65.0337 134.243 62.5639Z" fill="url(#paint16_linear_952_1029)"/>
<path d="M104.996 90.3355C104.996 90.3355 107.454 89.0221 108.557 89.0472C109.66 89.0723 113.398 89.0472 113.398 89.0472C113.398 89.0472 113.147 90.2515 111.668 90.1762C110.188 90.1009 109.385 90.6525 110.037 91.0039C110.689 91.3554 115.932 90.352 116.257 90.7034C116.583 91.0549 116.282 91.5304 113.598 91.7563L110.915 91.9823C110.915 91.9823 112.52 91.9823 114.15 91.8317C115.78 91.681 116.182 91.7069 116.083 91.9823C115.984 92.2577 116.107 92.4334 114.2 92.6351C112.294 92.8367 110.914 92.6351 110.914 92.6351C110.914 92.6351 114.276 93.0611 114.953 93.0611C115.631 93.0611 115.981 92.7598 115.956 93.1858C115.931 93.6118 115.956 93.7633 114.2 93.9139C113.077 93.9969 111.948 93.9371 110.841 93.7358C110.841 93.7358 112.673 94.0873 113.776 94.1877C114.879 94.2881 115.08 94.2128 115.11 94.4137C115.139 94.6145 114.403 94.915 112.349 95.0146C110.295 95.1143 107.909 95.1159 106.429 94.8648C104.949 94.6137 104.199 94.2371 104.199 94.2371C104.199 94.2371 103.743 91.8528 104.996 90.3355Z" fill="url(#paint17_linear_952_1029)"/>
<path d="M135.621 145.667C135.621 145.667 136.653 144.42 137.382 145.204C138.112 145.989 138.582 146.843 140.95 147.091C143.318 147.339 147.455 146.878 147.63 148.471C147.805 150.065 146.155 150.954 143.153 151.745C140.151 152.535 135.368 152.921 133.713 153.392C132.058 153.863 131.344 153.667 130.805 152.553C130.267 151.439 129.203 147.521 130.256 147.568C131.309 147.614 134.939 147.452 135.621 145.667Z" fill="url(#paint18_linear_952_1029)"/>
<path d="M130.56 147.748C130.56 147.748 131.187 149.104 133.646 148.631C136.105 148.158 135.806 145.807 135.806 145.807L130.56 147.748Z" fill="url(#paint19_linear_952_1029)"/>
<path d="M117.577 116.275C117.577 116.275 120.081 125.21 122.952 131.26C125.824 137.31 130.563 147.744 130.563 147.744C130.563 147.744 132.259 147.514 133.559 146.954C134.334 146.622 135.085 146.237 135.809 145.804C135.809 145.804 126.752 107.487 125.76 107.31C124.769 107.134 116.003 105.583 117.577 116.275Z" fill="black"/>
<path d="M87.2745 117.633L76.3008 147.835L77.287 148.144L89.3842 119.454L113.907 119.307L120.734 149.476H122.213L116.508 117.633H87.2745Z" fill="url(#paint20_linear_952_1029)"/>
<path d="M158.422 108.311L159.302 123.661C159.302 123.661 161.941 140.62 161.941 142.14C161.941 143.659 157.383 148.379 157.383 148.379C157.383 148.379 160.822 149.979 163.702 146.86C166.582 143.74 166.662 140.7 166.662 140.7C166.662 140.7 166.101 138.62 166.101 132.94C166.101 127.26 166.089 122.7 166.089 122.7L168.981 107.262L158.422 108.311Z" fill="url(#paint21_linear_952_1029)"/>
<path d="M174.079 112.902L174.376 118.673C174.376 118.673 178.448 138.157 178.226 140.23C178.004 142.302 175.782 149.338 175.782 149.338C175.782 149.338 179.559 150.226 180.743 146.45C181.927 142.673 182.52 138.823 182.372 138.23C182.224 137.638 182.396 115.35 182.396 115.35L183.337 112.902H174.079Z" fill="url(#paint22_linear_952_1029)"/>
<path d="M156.941 94.2003L156.915 116.29C156.915 116.29 159.615 118.811 170.992 118.811C182.369 118.811 184.261 116.29 184.261 116.29C184.261 116.29 185.133 96.0307 185.064 93.8614C184.995 91.692 169.071 87.0176 169.071 87.0176C169.071 87.0176 156.267 94.1336 156.941 94.2003Z" fill="#E86851"/>
<path d="M156.736 40.0697C156.736 40.0697 155.712 41.5023 154.853 42.8494C153.994 44.1965 144.505 58.8545 144.613 59.8807C144.721 60.907 147.359 63.4898 150.676 60.6889C153.992 57.888 156.481 53.6278 156.481 53.6278C156.481 53.6278 159.27 38.9038 156.736 40.0697Z" fill="url(#paint23_linear_952_1029)"/>
<path d="M165.206 35.2836C165.206 35.2836 165.309 37.0881 164.763 37.5149C164.217 37.9417 162.714 38.5309 162.714 38.5309C162.714 38.5309 162.691 41.1482 163.591 41.3828C164.491 41.6174 173.869 41.4221 174.217 41.3828C174.566 41.3436 174.445 39.0589 174.288 38.0822C174.131 37.1054 173.899 32.9707 173.899 32.9707L165.206 35.2836Z" fill="url(#paint24_linear_952_1029)"/>
<path d="M168.792 44.385L174.202 37.2988C174.202 37.2988 180.151 38.2332 180.87 40.0676C181.59 41.9019 181.329 48.4514 181.198 53.6257C181.067 58.7999 180.936 69.4111 182.508 73.5372C184.08 77.6632 185.389 82.3792 185.652 86.4402C185.914 90.5011 185.389 95.6117 185.389 95.6117C185.389 95.6117 182.245 96.3963 175.896 96.0684C169.546 95.7404 168.493 95.6117 168.493 95.6117V88.0124L168.792 44.385Z" fill="url(#paint25_linear_952_1029)"/>
<path d="M163.93 18.0701C163.93 18.0701 160.799 19.5137 161.046 23.0819C161.293 26.6501 161.543 28.2891 160.758 30.726C159.973 33.1628 158.982 36.0963 160.758 37.9142C162.534 39.732 167.034 36.283 167.034 36.283C167.034 36.283 163.797 17.7657 163.93 18.0701Z" fill="url(#paint26_linear_952_1029)"/>
<path d="M162.825 20.5273C162.825 20.5273 161.884 22.342 162.144 23.9669C162.405 25.5917 163.164 26.7623 163.127 27.3664C163.09 27.9705 162.955 30.5776 163.37 31.9765C163.785 33.3754 165.41 35.6412 167.032 36.2838C168.655 36.9264 171.704 35.868 173.594 32.8835C175.484 29.899 172.838 25.8553 170.496 23.3996C168.154 20.9439 162.825 20.5273 162.825 20.5273Z" fill="url(#paint27_linear_952_1029)"/>
<path d="M164.897 37.7157C165.115 37.6011 165.709 41.0313 169.545 45.2295C173.382 49.4277 177.725 58.9829 176.638 66.077C175.552 73.171 166.361 95.6104 166.361 95.6104H156.156C156.156 95.6104 157.314 85.1341 157.097 79.0074C156.881 72.8807 157.676 57.5346 156.592 53.9876C155.508 50.4406 155.144 49.4999 155.505 47.3972C155.867 45.2946 157.026 39.9438 157.026 39.9438L164.897 37.7157Z" fill="url(#paint28_linear_952_1029)"/>
<path d="M180.87 40.0703C180.87 40.0703 186.832 44.9888 187.912 51.8576C188.992 58.7265 189.706 67.3921 188.783 68.4677C187.859 69.5433 182.324 71.4922 173.712 72.3631C165.101 73.2339 162.332 72.3631 162.332 72.3631L162.896 68.3131C162.896 68.3131 172.739 67.5953 177.557 66.0065C182.375 64.4178 182.53 63.339 182.222 61.1359C181.915 58.9329 179.873 42.941 180.87 40.0703Z" fill="url(#paint29_linear_952_1029)"/>
<path d="M163.684 18.7305C163.684 18.7305 161.159 21.7025 164.293 24.6752C167.428 27.6479 170.32 27.4031 170.32 27.4031C170.32 27.4031 169.628 27.1992 168.488 26.5072C167.348 25.8152 167.141 25.5673 167.141 25.5673C167.141 25.5673 167.063 25.9344 169.543 26.3824C172.023 26.8304 172.8 27.196 173.207 29.6392C173.614 32.0823 171.569 36.5073 173.769 38.38C175.968 40.2528 180.496 39.6957 180.496 39.6957C180.496 39.6957 181.424 36.4382 179.844 33.3039C178.263 30.1695 177.686 28.092 177.647 25.568C177.608 23.0441 177.725 22.6361 176.711 20.6418C175.696 18.6474 174.716 18.1986 174.716 18.1986C174.716 18.1986 175.892 18.7141 176.912 20.2612C177.932 21.8084 177.89 24.2712 177.89 24.2712C177.89 24.2712 178.342 19.8266 175.411 17.7914C172.48 15.7563 167.879 15.5115 165.638 16.7715C163.397 18.0315 163.684 18.7305 163.684 18.7305Z" fill="url(#paint30_linear_952_1029)"/>
<path d="M165.649 39.4C165.649 39.4 167.454 40.5125 169.538 40.2152C171.622 39.9178 172.66 39.3105 172.66 39.3105L168.788 44.4016C168.788 44.4016 166.089 40.9911 165.649 39.4Z" fill="url(#paint31_linear_952_1029)"/>
<path d="M162.86 68.577C162.86 68.577 159.554 66.9137 158.843 66.7247C158.133 66.5356 156.078 66.7247 156.078 66.7247L152.994 68.0796C152.994 68.0796 153.151 69.0791 155.147 68.5802C157.144 68.0812 156.886 68.031 157.497 68.1534C158.108 68.2757 158.697 68.719 158.697 68.719C157.946 69.335 157.022 69.7019 156.053 69.7688C154.413 69.8912 151.916 68.7645 151.452 68.7159C150.988 68.6672 150.62 68.9364 152.284 69.5483C153.948 70.1603 155.416 70.5031 155.759 70.5518C156.102 70.6004 154.462 70.6498 152.455 69.8912C150.447 69.1325 150.497 68.7928 150.179 68.7928C149.862 68.7928 149.739 69.5515 151.869 70.3839C153.998 71.2163 155.371 71.4117 155.371 71.4117C155.371 71.4117 152.481 71.1182 151.036 70.6781C150.163 70.407 149.378 69.9085 148.761 69.2337C148.761 69.2337 147.683 69.3796 149.153 70.5063C150.624 71.6329 153.069 72.86 155.076 72.86C157.083 72.86 162.42 71.7616 162.42 71.7616C162.42 71.7616 163.105 69.4918 162.86 68.577Z" fill="url(#paint32_linear_952_1029)"/>
<path d="M140.043 69.3346C140.04 69.5518 140.122 69.7614 140.273 69.9175C140.424 70.0736 140.631 70.1634 140.848 70.1671H152.602C152.819 70.1631 153.026 70.0733 153.176 69.9172C153.327 69.7611 153.41 69.5515 153.406 69.3346V50.1441C153.408 50.0368 153.388 49.9301 153.349 49.8302C153.31 49.7303 153.251 49.6391 153.176 49.5619C153.102 49.4847 153.013 49.4229 152.914 49.3801C152.816 49.3373 152.71 49.3143 152.602 49.3125H140.848C140.741 49.3142 140.635 49.3371 140.536 49.3799C140.437 49.4226 140.348 49.4843 140.273 49.5616C140.199 49.6388 140.14 49.73 140.1 49.83C140.061 49.9299 140.041 50.0367 140.043 50.1441V69.3346Z" fill="url(#paint33_linear_952_1029)"/>
<path d="M139.652 69.6589C139.651 69.7663 139.67 69.8731 139.71 69.973C139.749 70.073 139.808 70.1642 139.883 70.2414C139.957 70.3186 140.047 70.3804 140.145 70.4231C140.244 70.4659 140.35 70.4888 140.457 70.4905H152.211C152.428 70.4866 152.634 70.3968 152.785 70.2409C152.936 70.085 153.019 69.8757 153.015 69.6589V50.4684C153.019 50.2515 152.936 50.042 152.785 49.8861C152.634 49.7301 152.428 49.6404 152.211 49.6367H140.457C140.35 49.6385 140.244 49.6613 140.145 49.7041C140.047 49.7468 139.957 49.8086 139.883 49.8858C139.808 49.963 139.749 50.0542 139.71 50.1542C139.67 50.2541 139.651 50.3609 139.652 50.4684V69.6589Z" fill="url(#paint34_linear_952_1029)"/>
<path d="M140.466 69.1051C140.466 69.1051 140.466 68.4688 140.466 68.4515V50.4708C140.465 50.4596 140.468 50.4484 140.475 50.4395H152.216C152.216 50.4395 152.216 50.4504 152.216 50.4677V68.4484C152.216 68.4641 152.212 69.0972 152.209 69.1019L140.466 69.1051Z" fill="#4F4D4D"/>
<path d="M143.295 47.916C143.295 47.916 141.838 47.9945 141.284 48.7367C140.73 49.4789 140.832 50.1112 140.955 50.4627C141.079 50.8142 140.606 52.0224 141.078 51.9401C141.55 51.8577 141.653 51.263 141.797 50.5859C141.94 49.9088 141.961 49.5189 142.618 49.067C143.275 48.6151 143.746 48.0784 143.295 47.916Z" fill="url(#paint35_linear_952_1029)"/>
<path d="M145.162 47.9162C145.162 47.9162 143.357 47.7538 142.905 48.4701C142.642 48.8801 142.447 49.3307 142.33 49.8039L142.864 51.7943C142.864 51.7943 143.727 51.7943 143.582 50.9533C143.438 50.1122 143.443 50.0902 143.818 49.4963C144.193 48.9024 145.162 47.9162 145.162 47.9162Z" fill="url(#paint36_linear_952_1029)"/>
<path d="M145.944 47.8496C145.944 47.8496 144.832 48.0183 144.401 48.4898L143.971 48.9606C143.971 48.9606 144.463 50.5603 144.463 51.0122C144.463 51.4641 144.507 51.9537 144.957 51.6485C145.406 51.3433 145.342 51.0106 145.448 50.1751C145.554 49.3395 145.551 49.2681 145.818 48.8782C146.084 48.4882 145.944 47.8496 145.944 47.8496Z" fill="url(#paint37_linear_952_1029)"/>
<path d="M148.793 49.6596C148.793 49.6596 148.219 47.7515 147.398 47.6071C146.577 47.4628 146.143 47.6071 146.143 47.6071L145.034 48.9409C145.034 48.9409 145.343 49.6588 146.184 49.1865C147.026 48.7142 147.126 48.4458 147.168 48.6012C147.211 48.7565 147.435 49.6588 147.435 49.6588L148.793 49.6596Z" fill="url(#paint38_linear_952_1029)"/>
<g opacity="0.6">
<path d="M142.49 53.3926H142.359C142.018 53.3926 141.741 53.6694 141.741 54.0108C141.741 54.3523 142.018 54.6291 142.359 54.6291H142.49C142.831 54.6291 143.108 54.3523 143.108 54.0108C143.108 53.6694 142.831 53.3926 142.49 53.3926Z" fill="white"/>
<path d="M150.102 53.3926H144.358C144.017 53.3926 143.74 53.6694 143.74 54.0108C143.74 54.3523 144.017 54.6291 144.358 54.6291H150.102C150.443 54.6291 150.72 54.3523 150.72 54.0108C150.72 53.6694 150.443 53.3926 150.102 53.3926Z" fill="white"/>
<path d="M142.49 55.3789H142.359C142.018 55.3789 141.741 55.6557 141.741 55.9971C141.741 56.3386 142.018 56.6154 142.359 56.6154H142.49C142.831 56.6154 143.108 56.3386 143.108 55.9971C143.108 55.6557 142.831 55.3789 142.49 55.3789Z" fill="white"/>
<path d="M150.102 55.3789H144.358C144.017 55.3789 143.74 55.6557 143.74 55.9971C143.74 56.3386 144.017 56.6154 144.358 56.6154H150.102C150.443 56.6154 150.72 56.3386 150.72 55.9971C150.72 55.6557 150.443 55.3789 150.102 55.3789Z" fill="white"/>
<path d="M142.49 57.3633H142.359C142.018 57.3633 141.741 57.6401 141.741 57.9815C141.741 58.323 142.018 58.5998 142.359 58.5998H142.49C142.831 58.5998 143.108 58.323 143.108 57.9815C143.108 57.6401 142.831 57.3633 142.49 57.3633Z" fill="white"/>
<path d="M150.102 57.3633H144.358C144.017 57.3633 143.74 57.6401 143.74 57.9815C143.74 58.323 144.017 58.5998 144.358 58.5998H150.102C150.443 58.5998 150.72 58.323 150.72 57.9815C150.72 57.6401 150.443 57.3633 150.102 57.3633Z" fill="white"/>
<path d="M142.49 60.5833H142.359C142.278 60.5835 142.198 60.5676 142.123 60.5366C142.048 60.5056 141.98 60.4601 141.922 60.4028C141.865 60.3454 141.819 60.2773 141.788 60.2024C141.757 60.1274 141.741 60.047 141.741 59.9659V59.9659C141.741 59.8019 141.806 59.6447 141.922 59.5287C142.038 59.4128 142.195 59.3477 142.359 59.3477H142.49C142.572 59.3477 142.652 59.3637 142.727 59.3947C142.802 59.4258 142.87 59.4714 142.927 59.5288C142.985 59.5862 143.03 59.6544 143.061 59.7294C143.092 59.8044 143.108 59.8847 143.108 59.9659V59.9659C143.108 60.1297 143.043 60.2867 142.927 60.4025C142.811 60.5183 142.654 60.5833 142.49 60.5833Z" fill="white"/>
<path d="M150.102 60.5833H144.358C144.277 60.5835 144.197 60.5676 144.122 60.5366C144.047 60.5056 143.979 60.4601 143.921 60.4028C143.864 60.3454 143.818 60.2773 143.787 60.2024C143.756 60.1274 143.74 60.047 143.74 59.9659V59.9659C143.74 59.8019 143.805 59.6447 143.921 59.5287C144.037 59.4128 144.195 59.3477 144.358 59.3477H150.102C150.183 59.3477 150.263 59.3636 150.338 59.3947C150.413 59.4258 150.481 59.4713 150.539 59.5287C150.596 59.5862 150.642 59.6543 150.673 59.7293C150.704 59.8043 150.72 59.8847 150.72 59.9659C150.72 60.047 150.704 60.1274 150.673 60.2024C150.642 60.2773 150.596 60.3454 150.539 60.4028C150.481 60.4601 150.413 60.5056 150.338 60.5366C150.263 60.5676 150.183 60.5835 150.102 60.5833Z" fill="white"/>
<path d="M142.49 61.332H142.359C142.018 61.332 141.741 61.6088 141.741 61.9503C141.741 62.2917 142.018 62.5685 142.359 62.5685H142.49C142.831 62.5685 143.108 62.2917 143.108 61.9503C143.108 61.6088 142.831 61.332 142.49 61.332Z" fill="white"/>
<path d="M150.102 61.332H144.358C144.017 61.332 143.74 61.6088 143.74 61.9503C143.74 62.2917 144.017 62.5685 144.358 62.5685H150.102C150.443 62.5685 150.72 62.2917 150.72 61.9503C150.72 61.6088 150.443 61.332 150.102 61.332Z" fill="white"/>
<path d="M142.49 63.3184H142.359C142.018 63.3184 141.741 63.5952 141.741 63.9366C141.741 64.278 142.018 64.5548 142.359 64.5548H142.49C142.831 64.5548 143.108 64.278 143.108 63.9366C143.108 63.5952 142.831 63.3184 142.49 63.3184Z" fill="white"/>
<path d="M150.102 63.3184H144.358C144.017 63.3184 143.74 63.5952 143.74 63.9366C143.74 64.278 144.017 64.5548 144.358 64.5548H150.102C150.443 64.5548 150.72 64.278 150.72 63.9366C150.72 63.5952 150.443 63.3184 150.102 63.3184Z" fill="white"/>
<path d="M142.49 65.3027H142.359C142.018 65.3027 141.741 65.5795 141.741 65.921C141.741 66.2624 142.018 66.5392 142.359 66.5392H142.49C142.831 66.5392 143.108 66.2624 143.108 65.921C143.108 65.5795 142.831 65.3027 142.49 65.3027Z" fill="white"/>
<path d="M150.102 65.3027H144.358C144.017 65.3027 143.74 65.5795 143.74 65.921C143.74 66.2624 144.017 66.5392 144.358 66.5392H150.102C150.443 66.5392 150.72 66.2624 150.72 65.921C150.72 65.5795 150.443 65.3027 150.102 65.3027Z" fill="white"/>
</g>
<path d="M166.813 140.6C166.813 140.6 165.479 141.213 164.791 142.875C164.102 144.537 162.515 147.715 160.24 148.328C157.965 148.942 157.568 147.643 157.568 147.643C157.568 147.643 155.546 148.834 155.654 150.062C155.761 151.291 159.008 151.687 161.231 150.459C163.454 149.231 165.154 147.064 165.154 147.064L165.551 150.712L166.561 150.098C166.561 150.098 167.61 144.685 167.428 142.731C167.247 140.778 166.813 140.6 166.813 140.6Z" fill="url(#paint39_linear_952_1029)"/>
<path d="M182.372 138.23C182.372 138.23 181.335 144.261 180.057 146.61C178.779 148.958 176.065 148.427 176.065 148.427C176.065 148.427 175.271 150.123 174.81 150.929C174.348 151.736 173.715 152.6 175.846 152.656C177.977 152.711 180.051 151.906 181.031 149.717C182.011 147.528 182.757 144.937 182.757 144.937V151.202H183.736C183.736 151.202 183.794 141.67 183.736 140.597C183.679 139.523 182.372 138.23 182.372 138.23Z" fill="url(#paint40_linear_952_1029)"/>
<path d="M146.851 69.7885C146.851 69.891 146.821 69.9912 146.764 70.0765C146.707 70.1618 146.626 70.2283 146.532 70.2676C146.437 70.3068 146.333 70.3172 146.232 70.2972C146.132 70.2773 146.04 70.2279 145.967 70.1555C145.895 70.083 145.845 69.9907 145.825 69.8901C145.805 69.7896 145.816 69.6854 145.855 69.5908C145.894 69.4961 145.961 69.4153 146.046 69.3584C146.131 69.3016 146.232 69.2713 146.334 69.2715C146.471 69.2715 146.603 69.326 146.7 69.4229C146.797 69.5199 146.851 69.6514 146.851 69.7885V69.7885Z" fill="url(#paint41_linear_952_1029)"/>
<path d="M144.114 60.34C144.324 59.4515 143.773 58.5612 142.885 58.3514C141.996 58.1417 141.106 58.692 140.896 59.5806C140.687 60.4691 141.237 61.3595 142.125 61.5692C143.014 61.7789 143.904 61.2286 144.114 60.34Z" stroke="#FF1D25" stroke-width="3" stroke-miterlimit="10"/>
<path d="M148.578 61.2207C148.575 61.3111 148.547 61.3989 148.495 61.473C148.443 61.5472 148.371 61.6044 148.286 61.6375C148.202 61.6707 148.11 61.6783 148.022 61.6594C147.933 61.6405 147.853 61.5959 147.789 61.5313C147.726 61.4666 147.683 61.3848 147.666 61.296C147.649 61.2071 147.659 61.1153 147.694 61.0319C147.729 60.9485 147.788 60.8773 147.863 60.8272C147.938 60.777 148.027 60.7502 148.117 60.75C148.178 60.7505 148.239 60.7631 148.295 60.7871C148.351 60.811 148.402 60.8459 148.445 60.8896C148.488 60.9334 148.522 60.9852 148.544 61.042C148.567 61.0988 148.578 61.1595 148.578 61.2207V61.2207Z" fill="url(#paint42_linear_952_1029)"/>
<path d="M160.071 98.832H0.0273438V103.707H160.071V98.832Z" fill="url(#paint43_linear_952_1029)"/>
<path d="M160.044 103.707H0V105.581H160.044V103.707Z" fill="url(#paint44_linear_952_1029)"/>
<path d="M1.88281 160.123L1.88281 103.713L-0.00014472 103.713L-0.000147186 160.123L1.88281 160.123Z" fill="#C5C5C5"/>
<path d="M160.052 160.123L160.052 103.713L158.169 103.713L158.169 160.123L160.052 160.123Z" fill="#C5C5C5"/>
<path d="M29.5624 80.3188H27.6465C28.284 80.2661 28.9248 80.2661 29.5624 80.3188V80.3188Z" fill="#71BD89"/>
<path d="M64.3634 148.817C64.3634 148.817 64.2912 151.461 68.1442 151.209C71.9972 150.956 70.6195 147.5 70.6195 147.5C70.6195 147.5 68.9288 150.031 64.3634 148.817Z" fill="url(#paint45_linear_952_1029)"/>
<path d="M70.8639 148.607C70.8639 148.607 71.6736 147.557 72.28 148.607C72.8865 149.657 73.4506 149.697 75.4693 149.536C77.488 149.375 81.9694 150.908 82.295 152.645C82.6206 154.381 80.3164 154.3 73.9002 155.067C67.484 155.835 65.6622 156.804 64.7349 155.067C63.8075 153.331 63.9652 149.099 64.37 149.217C64.7749 149.334 65.9392 151.806 68.5039 151.178C71.0687 150.551 70.8639 148.607 70.8639 148.607Z" fill="url(#paint46_linear_952_1029)"/>
<path d="M62.3275 110.578C59.4183 107.47 45.5793 107.411 39.0117 107.566V122.53C47.8608 122.33 55.7442 122.401 55.7442 123.891C55.7442 128.077 63.786 148.63 64.7282 148.822C65.6705 149.013 69.416 150.127 70.9859 147.505C72.5559 144.883 66.1718 114.685 62.3275 110.578Z" fill="black"/>
<path d="M17.1889 123.963L9.1377 160.136H10.8426L19.4257 125.683L40.5031 125.469L47.6583 155.371L49.149 155.152L42.692 123.963H17.1889Z" fill="url(#paint47_linear_952_1029)"/>
<path d="M27.3256 68.666C27.3256 68.666 23.9387 74.3934 22.6135 81.5902C21.2884 88.787 21.1943 93.5156 23.2757 94.3708C25.3572 95.2259 32.175 88.7282 32.175 88.7282L27.3256 68.666Z" fill="#D95942"/>
<path d="M31.7147 102.822C31.7147 102.822 27.6844 121.397 36.6331 121.97C45.5819 122.544 75.0408 120.12 75.0408 122.999C75.0408 127.186 83.0834 147.739 84.0249 147.931C84.9663 148.123 88.7119 149.236 90.2818 146.614C91.8517 143.991 85.4685 113.801 81.6233 109.691C77.7782 105.582 54.8296 106.802 54.8296 106.802" fill="black"/>
<path d="M45.4309 65.3281C45.4309 65.3281 52.5846 68.0537 53.1895 68.3409C53.7944 68.628 55.249 79.1953 55.1736 86.7366C55.0983 94.2778 54.4189 102.493 54.9477 104.644C55.4765 106.796 56.9091 106.721 56.9091 106.721C56.9091 106.721 51.9326 110.718 44.4674 110.644C37.0023 110.57 27.6526 103.016 26.9183 98.0744C26.1839 93.1332 21.9527 71.4917 28.11 68.0796C32.1019 65.8703 45.4309 65.3281 45.4309 65.3281Z" fill="#E86851"/>
<path d="M76.2316 108.163C76.6512 108.076 77.0753 108.012 77.5018 107.972C78.2754 107.894 80.8755 108.728 80.8755 108.728C80.8755 108.728 84.8407 112.93 84.7426 114.011C84.6445 115.092 82.4525 111.685 81.9025 111.404C81.3525 111.124 84.4029 114.616 83.8074 115.17C83.2119 115.725 81.9558 112.907 81.4537 112.615C80.9516 112.323 83.2355 115.354 83.037 115.847C82.8385 116.341 81.1281 113.706 80.4236 113.138C79.719 112.569 82.8855 116.575 82.1826 116.764C81.4796 116.953 80.6872 115.695 79.7504 114.466C78.8136 113.236 76.2748 113.367 75.4808 110.884C74.6868 108.4 76.2316 108.163 76.2316 108.163Z" fill="url(#paint48_linear_952_1029)"/>
<path d="M50.6238 53.7314C50.6238 53.7314 50.8866 57.7367 50.8301 58.4953C50.7737 59.254 49.5897 60.7439 49.1582 62.2048C48.7267 63.6656 48.9417 64.4847 46.5645 64.1889C44.1872 63.8932 41.4805 63.4044 41.4805 63.4044C41.4805 63.4044 44.982 54.021 46.2506 53.409C47.5193 52.797 50.6238 53.7314 50.6238 53.7314Z" fill="url(#paint49_linear_952_1029)"/>
<path d="M51.227 46.7664C52.5278 49.4841 52.7553 52.8789 51.2741 54.1931C49.7928 55.5072 49.1785 57.42 49.1785 57.42C49.1785 57.42 49.2271 56.2879 49.4719 55.4986C49.7167 54.7093 49.9662 54.4002 49.9662 54.4002C49.9662 54.4002 48.4418 56.08 47.0578 56.7406C45.6738 57.4012 44.6421 61.2063 45.4644 63.4196C46.2866 65.6328 47.2108 66.8301 48.1468 67.7433C49.0828 68.6566 51.1431 72.3989 48.6756 75.5411C46.2081 78.6833 40.8692 81.2645 35.4517 81.0331C30.0343 80.8017 28.4393 73.6346 28.4393 73.6346C28.1602 74.5722 28.1877 75.5743 28.5177 76.4952C29.074 78.04 30.3944 79.1917 30.3944 79.1917C30.3944 79.1917 26.7517 76.9471 27.5472 72.377C28.3428 67.8069 32.6657 59.4081 33.1404 56.8661C33.6151 54.3241 33.7531 47.1845 38.3711 44.6347C42.9891 42.0849 49.0789 42.2779 51.227 46.7664Z" fill="url(#paint50_linear_952_1029)"/>
<path d="M53.1904 68.343C53.3151 67.9594 59.4528 69.4242 60.4806 82.1012C61.5083 94.7782 62.9402 100.589 66.1953 102.149C69.4505 103.71 77.5017 107.974 77.5017 107.974C77.5017 107.974 78.0188 109.891 76.4763 110.641C74.9338 111.392 58.0461 107.545 56.4314 102.92C54.8168 98.2954 51.2572 74.2477 53.1904 68.343Z" fill="#D95942"/>
<path d="M53.5118 121.308H50.048L42.1545 84.3993C42.1545 84.3993 41.4986 82.077 40.2794 81.0492C39.7262 80.5831 38.8012 80.3886 37.957 80.3164H39.5073C39.5073 80.3164 42.5271 80.0222 43.744 81.0492C44.9609 82.0762 45.6183 84.3993 45.6183 84.3993L53.5118 121.308Z" fill="#E6E9ED"/>
<path d="M11.3003 82.7968C9.75945 84.2828 10.5118 86.4058 10.5118 86.4058L19.0393 121.31H17.2528L8.42176 85.1662C8.42176 85.1662 7.66936 83.0479 9.21182 81.5572C9.87792 80.3521 12.6176 80.3184 12.9087 80.3184H37.9575C38.8017 80.3905 39.7267 80.5851 40.2799 81.0512C40.4918 81.2355 40.6828 81.4426 40.8495 81.6686C40.5844 81.6168 40.3167 81.5796 40.0476 81.5572H14.9972C14.7061 81.558 11.9696 81.5917 11.3003 82.7968Z" fill="#E6E9ED"/>
<path d="M50.0485 121.309H19.0392L10.5118 86.4045C10.5118 86.4045 9.75939 84.2862 11.3003 82.7955C11.9664 81.5904 14.7061 81.5566 14.9972 81.5566H40.0476C40.3167 81.5791 40.5844 81.6163 40.8494 81.6681C41.7046 82.7994 42.1549 84.3999 42.1549 84.3999L50.0485 121.309Z" fill="#8A849E"/>
<path d="M84.0245 147.931C84.0245 147.931 83.9523 150.575 87.8053 150.323C91.6583 150.07 90.2814 146.613 90.2814 146.613C90.2814 146.613 88.5915 149.145 84.0245 147.931Z" fill="url(#paint51_linear_952_1029)"/>
<path d="M90.5238 147.719C90.5238 147.719 91.3335 146.668 91.936 147.719C92.5385 148.769 93.1066 148.809 95.1253 148.648C97.144 148.487 101.626 150.02 101.951 151.756C102.276 153.492 99.9731 153.412 93.5522 154.179C87.1313 154.946 85.3143 155.915 84.3877 154.179C83.4611 152.443 83.6165 148.211 84.0221 148.328C84.4277 148.446 85.5873 150.918 88.1567 150.29C90.7262 149.662 90.5238 147.719 90.5238 147.719Z" fill="url(#paint52_linear_952_1029)"/>
<path d="M77.6137 121.309H17.2539V123.962H77.6137V121.309Z" fill="#E6E9ED"/>
<path d="M52.1114 123.963L44.0586 160.136H45.765L54.3466 125.683L75.4248 125.469L82.58 155.371L84.0707 155.152L77.6137 123.963H52.1114Z" fill="url(#paint53_linear_952_1029)"/>
<defs>
<linearGradient id="paint0_linear_952_1029" x1="104.248" y1="133.921" x2="150.162" y2="133.921" gradientUnits="userSpaceOnUse">
<stop stop-color="#C0C0C0"/>
<stop offset="1" stop-color="#DEDFDE"/>
</linearGradient>
<linearGradient id="paint1_linear_952_1029" x1="121.138" y1="143.584" x2="116.613" y2="150.704" gradientUnits="userSpaceOnUse">
<stop stop-color="#727070"/>
<stop offset="1"/>
</linearGradient>
<linearGradient id="paint2_linear_952_1029" x1="117.138" y1="140.95" x2="115.653" y2="143.288" gradientUnits="userSpaceOnUse">
<stop stop-color="#FAC698"/>
<stop offset="1" stop-color="#F39A77"/>
</linearGradient>
<linearGradient id="paint3_linear_952_1029" x1="114.333" y1="99.2213" x2="109.787" y2="120.272" gradientUnits="userSpaceOnUse">
<stop stop-color="#C0C0C0"/>
<stop offset="1" stop-color="#F3F4F3"/>
</linearGradient>
<linearGradient id="paint4_linear_952_1029" x1="120.201" y1="72.6506" x2="129.771" y2="72.4263" gradientUnits="userSpaceOnUse">
<stop stop-color="#DCDCDC"/>
<stop offset="1" stop-color="white"/>
</linearGradient>
<linearGradient id="paint5_linear_952_1029" x1="114.922" y1="94.7343" x2="113.738" y2="51.1853" gradientUnits="userSpaceOnUse">
<stop stop-color="#DCDCDC"/>
<stop offset="1" stop-color="white"/>
</linearGradient>
<linearGradient id="paint6_linear_952_1029" x1="98.0144" y1="95.8593" x2="98.0144" y2="31.5735" gradientUnits="userSpaceOnUse">
<stop stop-color="#DCDCDC"/>
<stop offset="1" stop-color="white"/>
</linearGradient>
<linearGradient id="paint7_linear_952_1029" x1="99.0675" y1="58.813" x2="113.965" y2="58.813" gradientUnits="userSpaceOnUse">
<stop stop-color="#C0C0C0"/>
<stop offset="1" stop-color="#DEDFDE"/>
</linearGradient>
<linearGradient id="paint8_linear_952_1029" x1="102.528" y1="51.0725" x2="111.539" y2="51.0725" gradientUnits="userSpaceOnUse">
<stop stop-color="#FAC698"/>
<stop offset="1" stop-color="#F39A77"/>
</linearGradient>
<linearGradient id="paint9_linear_952_1029" x1="100.195" y1="44.1402" x2="106.778" y2="43.9856" gradientUnits="userSpaceOnUse">
<stop stop-color="#FAC698"/>
<stop offset="1" stop-color="#F39A77"/>
</linearGradient>
<linearGradient id="paint10_linear_952_1029" x1="96.6621" y1="38.9579" x2="116.123" y2="38.9579" gradientUnits="userSpaceOnUse">
<stop stop-color="#171F37"/>
<stop offset="1" stop-color="#212043"/>
</linearGradient>
<linearGradient id="paint11_linear_952_1029" x1="108.288" y1="53.8221" x2="112.779" y2="53.8221" gradientUnits="userSpaceOnUse">
<stop stop-color="#C0C0C0"/>
<stop offset="1" stop-color="#DEDFDE"/>
</linearGradient>
<linearGradient id="paint12_linear_952_1029" x1="101.361" y1="54.3651" x2="106.121" y2="54.3651" gradientUnits="userSpaceOnUse">
<stop stop-color="#C0C0C0"/>
<stop offset="1" stop-color="#DEDFDE"/>
</linearGradient>
<linearGradient id="paint13_linear_952_1029" x1="96.6119" y1="59.6004" x2="107.342" y2="59.6004" gradientUnits="userSpaceOnUse">
<stop stop-color="#C0C0C0"/>
<stop offset="1" stop-color="#F3F4F3"/>
</linearGradient>
<linearGradient id="paint14_linear_952_1029" x1="117.256" y1="60.9579" x2="107.224" y2="58.7462" gradientUnits="userSpaceOnUse">
<stop stop-color="#C0C0C0"/>
<stop offset="1" stop-color="#EBEBEB"/>
</linearGradient>
<linearGradient id="paint15_linear_952_1029" x1="83.2681" y1="76.4674" x2="94.2143" y2="76.2108" gradientUnits="userSpaceOnUse">
<stop stop-color="#DCDCDC"/>
<stop offset="1" stop-color="white"/>
</linearGradient>
<linearGradient id="paint16_linear_952_1029" x1="135.28" y1="59.7081" x2="140.207" y2="59.5928" gradientUnits="userSpaceOnUse">
<stop stop-color="#FAC698"/>
<stop offset="1" stop-color="#F39A77"/>
</linearGradient>
<linearGradient id="paint17_linear_952_1029" x1="105.377" y1="92.1596" x2="110.834" y2="92.0317" gradientUnits="userSpaceOnUse">
<stop stop-color="#FAC698"/>
<stop offset="1" stop-color="#F39A77"/>
</linearGradient>
<linearGradient id="paint18_linear_952_1029" x1="138.096" y1="147.248" x2="138.476" y2="156.866" gradientUnits="userSpaceOnUse">
<stop stop-color="#727070"/>
<stop offset="1"/>
</linearGradient>
<linearGradient id="paint19_linear_952_1029" x1="132.634" y1="147.375" x2="132.758" y2="150.531" gradientUnits="userSpaceOnUse">
<stop stop-color="#FAC698"/>
<stop offset="1" stop-color="#F39A77"/>
</linearGradient>
<linearGradient id="paint20_linear_952_1029" x1="76.3008" y1="133.555" x2="122.213" y2="133.555" gradientUnits="userSpaceOnUse">
<stop stop-color="#C0C0C0"/>
<stop offset="1" stop-color="#DEDFDE"/>
</linearGradient>
<linearGradient id="paint21_linear_952_1029" x1="164.693" y1="106.743" x2="159.605" y2="148.843" gradientUnits="userSpaceOnUse">
<stop stop-color="#FAC698"/>
<stop offset="1" stop-color="#F39A77"/>
</linearGradient>
<linearGradient id="paint22_linear_952_1029" x1="179.856" y1="112.482" x2="175.406" y2="149.306" gradientUnits="userSpaceOnUse">
<stop stop-color="#FAC698"/>
<stop offset="1" stop-color="#F39A77"/>
</linearGradient>
<linearGradient id="paint23_linear_952_1029" x1="144.609" y1="50.9759" x2="157.799" y2="50.9759" gradientUnits="userSpaceOnUse">
<stop stop-color="#DCDCDC"/>
<stop offset="1" stop-color="white"/>
</linearGradient>
<linearGradient id="paint24_linear_952_1029" x1="169.224" y1="31.6236" x2="168.189" y2="44.31" gradientUnits="userSpaceOnUse">
<stop stop-color="#FAC698"/>
<stop offset="1" stop-color="#F39A77"/>
</linearGradient>
<linearGradient id="paint25_linear_952_1029" x1="170.072" y1="67.0049" x2="186.678" y2="66.3356" gradientUnits="userSpaceOnUse">
<stop stop-color="#DCDCDC"/>
<stop offset="1" stop-color="white"/>
</linearGradient>
<linearGradient id="paint26_linear_952_1029" x1="165" y1="16.0083" x2="162.705" y2="44.1013" gradientUnits="userSpaceOnUse">
<stop stop-color="#171F37"/>
<stop offset="1" stop-color="#212043"/>
</linearGradient>
<linearGradient id="paint27_linear_952_1029" x1="168.788" y1="19.3921" x2="167.054" y2="40.6287" gradientUnits="userSpaceOnUse">
<stop stop-color="#FAC698"/>
<stop offset="1" stop-color="#F39A77"/>
</linearGradient>
<linearGradient id="paint28_linear_952_1029" x1="175.317" y1="66.86" x2="152.781" y2="66.5587" gradientUnits="userSpaceOnUse">
<stop stop-color="#DCDCDC"/>
<stop offset="1" stop-color="white"/>
</linearGradient>
<linearGradient id="paint29_linear_952_1029" x1="165.943" y1="56.7486" x2="191.682" y2="55.7106" gradientUnits="userSpaceOnUse">
<stop stop-color="#DCDCDC"/>
<stop offset="1" stop-color="white"/>
</linearGradient>
<linearGradient id="paint30_linear_952_1029" x1="173.026" y1="13.8607" x2="170.448" y2="45.4254" gradientUnits="userSpaceOnUse">
<stop stop-color="#171F37"/>
<stop offset="1" stop-color="#212043"/>
</linearGradient>
<linearGradient id="paint31_linear_952_1029" x1="165.653" y1="41.8557" x2="172.663" y2="41.8557" gradientUnits="userSpaceOnUse">
<stop stop-color="#FFAC06"/>
<stop offset="1" stop-color="#FA8A13"/>
</linearGradient>
<linearGradient id="paint32_linear_952_1029" x1="148.378" y1="69.7452" x2="162.912" y2="69.7452" gradientUnits="userSpaceOnUse">
<stop stop-color="#FAC698"/>
<stop offset="1" stop-color="#F39A77"/>
</linearGradient>
<linearGradient id="paint33_linear_952_1029" x1="140.043" y1="59.7363" x2="153.406" y2="59.7363" gradientUnits="userSpaceOnUse">
<stop stop-color="#C0C0C0"/>
<stop offset="1" stop-color="#929292"/>
</linearGradient>
<linearGradient id="paint34_linear_952_1029" x1="139.652" y1="60.0636" x2="153.015" y2="60.0636" gradientUnits="userSpaceOnUse">
<stop stop-color="#C0C0C0"/>
<stop offset="1" stop-color="#DEDFDE"/>
</linearGradient>
<linearGradient id="paint35_linear_952_1029" x1="140.858" y1="49.9269" x2="143.473" y2="49.9269" gradientUnits="userSpaceOnUse">
<stop stop-color="#FAC698"/>
<stop offset="1" stop-color="#F39A77"/>
</linearGradient>
<linearGradient id="paint36_linear_952_1029" x1="142.33" y1="49.8454" x2="145.162" y2="49.8454" gradientUnits="userSpaceOnUse">
<stop stop-color="#FAC698"/>
<stop offset="1" stop-color="#F39A77"/>
</linearGradient>
<linearGradient id="paint37_linear_952_1029" x1="143.971" y1="49.7977" x2="145.981" y2="49.7977" gradientUnits="userSpaceOnUse">
<stop stop-color="#FAC698"/>
<stop offset="1" stop-color="#F39A77"/>
</linearGradient>
<linearGradient id="paint38_linear_952_1029" x1="145.037" y1="48.6012" x2="148.793" y2="48.6012" gradientUnits="userSpaceOnUse">
<stop stop-color="#FAC698"/>
<stop offset="1" stop-color="#F39A77"/>
</linearGradient>
<linearGradient id="paint39_linear_952_1029" x1="162.388" y1="140.065" x2="160.996" y2="151.587" gradientUnits="userSpaceOnUse">
<stop stop-color="#727070"/>
<stop offset="1"/>
</linearGradient>
<linearGradient id="paint40_linear_952_1029" x1="180.682" y1="138.026" x2="178.867" y2="153.05" gradientUnits="userSpaceOnUse">
<stop stop-color="#727070"/>
<stop offset="1"/>
</linearGradient>
<linearGradient id="paint41_linear_952_1029" x1="145.816" y1="69.7885" x2="146.851" y2="69.7885" gradientUnits="userSpaceOnUse">
<stop stop-color="#1D7ECE"/>
<stop offset="1" stop-color="#185D9B"/>
</linearGradient>
<linearGradient id="paint42_linear_952_1029" x1="147.659" y1="61.22" x2="148.578" y2="61.22" gradientUnits="userSpaceOnUse">
<stop stop-color="#1D7ECE"/>
<stop offset="1" stop-color="#185D9B"/>
</linearGradient>
<linearGradient id="paint43_linear_952_1029" x1="0.0273438" y1="101.27" x2="160.071" y2="101.27" gradientUnits="userSpaceOnUse">
<stop stop-color="#DCDCDC"/>
<stop offset="1" stop-color="white"/>
</linearGradient>
<linearGradient id="paint44_linear_952_1029" x1="79.8955" y1="101.153" x2="80.2682" y2="111.422" gradientUnits="userSpaceOnUse">
<stop stop-color="#C0C0C0"/>
<stop offset="1" stop-color="#F3F4F3"/>
</linearGradient>
<linearGradient id="paint45_linear_952_1029" x1="64.3634" y1="149.363" x2="70.8588" y2="149.363" gradientUnits="userSpaceOnUse">
<stop stop-color="#FAC698"/>
<stop offset="1" stop-color="#F39A77"/>
</linearGradient>
<linearGradient id="paint46_linear_952_1029" x1="64.0429" y1="152.09" x2="82.3225" y2="152.09" gradientUnits="userSpaceOnUse">
<stop stop-color="#727070"/>
<stop offset="1"/>
</linearGradient>
<linearGradient id="paint47_linear_952_1029" x1="9.1377" y1="142.05" x2="49.1498" y2="142.05" gradientUnits="userSpaceOnUse">
<stop stop-color="#C0C0C0"/>
<stop offset="1" stop-color="#DEDFDE"/>
</linearGradient>
<linearGradient id="paint48_linear_952_1029" x1="76.3817" y1="112.92" x2="84.7304" y2="111.217" gradientUnits="userSpaceOnUse">
<stop stop-color="#FAC698"/>
<stop offset="1" stop-color="#F39A77"/>
</linearGradient>
<linearGradient id="paint49_linear_952_1029" x1="41.0848" y1="59.3512" x2="51.0878" y2="58.3615" gradientUnits="userSpaceOnUse">
<stop stop-color="#FAC698"/>
<stop offset="1" stop-color="#F39A77"/>
</linearGradient>
<linearGradient id="paint50_linear_952_1029" x1="26.3943" y1="63.4143" x2="53.2859" y2="60.7539" gradientUnits="userSpaceOnUse">
<stop stop-color="#171F37"/>
<stop offset="1" stop-color="#212043"/>
</linearGradient>
<linearGradient id="paint51_linear_952_1029" x1="84.0245" y1="148.477" x2="90.5207" y2="148.477" gradientUnits="userSpaceOnUse">
<stop stop-color="#FAC698"/>
<stop offset="1" stop-color="#F39A77"/>
</linearGradient>
<linearGradient id="paint52_linear_952_1029" x1="83.7028" y1="151.202" x2="101.982" y2="151.202" gradientUnits="userSpaceOnUse">
<stop stop-color="#727070"/>
<stop offset="1"/>
</linearGradient>
<linearGradient id="paint53_linear_952_1029" x1="44.0586" y1="142.05" x2="84.0707" y2="142.05" gradientUnits="userSpaceOnUse">
<stop stop-color="#C0C0C0"/>
<stop offset="1" stop-color="#DEDFDE"/>
</linearGradient>
</defs>
</svg>
