<svg width="190" height="176" viewBox="0 0 190 176" fill="none" xmlns="http://www.w3.org/2000/svg">
<path d="M60.989 108.311L60.1088 123.661C60.1088 123.661 57.4695 140.62 57.4695 142.14C57.4695 143.659 62.0278 148.379 62.0278 148.379C62.0278 148.379 58.5891 149.979 55.7089 146.86C52.8288 143.74 52.7488 140.7 52.7488 140.7C52.7488 140.7 53.3097 138.62 53.3097 132.94C53.3097 127.26 53.3215 122.7 53.3215 122.7L50.4296 107.262L60.989 108.311Z" fill="url(#paint0_linear_952_1305)"/>
<path d="M45.3311 112.902L45.0345 118.673C45.0345 118.673 40.9618 138.157 41.1838 140.23C41.4059 142.302 43.6278 149.338 43.6278 149.338C43.6278 149.338 39.8509 150.226 38.667 146.45C37.483 142.673 36.8899 138.823 37.0382 138.23C37.1865 137.638 37.0146 115.35 37.0146 115.35L36.0732 112.902H45.3311Z" fill="url(#paint1_linear_952_1305)"/>
<path d="M62.4692 94.2003L62.4951 116.29C62.4951 116.29 59.7954 118.811 48.4184 118.811C37.0414 118.811 35.149 116.29 35.149 116.29C35.149 116.29 34.2774 96.0307 34.3464 93.8614C34.4155 91.692 50.339 87.0176 50.339 87.0176C50.339 87.0176 63.1432 94.1336 62.4692 94.2003Z" fill="#E86851"/>
<path d="M62.6733 40.0697C62.6733 40.0697 63.6972 41.5023 64.5563 42.8494C65.4154 44.1965 74.9047 58.8545 74.7964 59.8807C74.6882 60.907 72.0505 63.4898 68.7341 60.6889C65.4177 57.888 62.9283 53.6278 62.9283 53.6278C62.9283 53.6278 60.14 38.9038 62.6733 40.0697Z" fill="url(#paint2_linear_952_1305)"/>
<path d="M54.2054 35.2836C54.2054 35.2836 54.1019 37.0881 54.6479 37.5149C55.194 37.9417 56.6972 38.5309 56.6972 38.5309C56.6972 38.5309 56.72 41.1482 55.8201 41.3828C54.9202 41.6174 45.5423 41.4221 45.1939 41.3828C44.8456 41.3436 44.9664 39.0589 45.1233 38.0822C45.2802 37.1054 45.5117 32.9707 45.5117 32.9707L54.2054 35.2836Z" fill="url(#paint3_linear_952_1305)"/>
<path d="M50.619 44.385L45.2095 37.2988C45.2095 37.2988 39.2601 38.2332 38.5406 40.0676C37.8212 41.9019 38.0825 48.4514 38.2135 53.6257C38.3445 58.7999 38.4755 69.4111 36.9032 73.5372C35.331 77.6632 34.0223 82.3792 33.7595 86.4402C33.4967 90.5011 34.0223 95.6117 34.0223 95.6117C34.0223 95.6117 37.1661 96.3963 43.5156 96.0684C49.8651 95.7404 50.918 95.6117 50.918 95.6117V88.0124L50.619 44.385Z" fill="url(#paint4_linear_952_1305)"/>
<path d="M55.4812 18.0701C55.4812 18.0701 58.6124 19.5137 58.3653 23.0819C58.1182 26.6501 57.8679 28.2891 58.6532 30.726C59.4386 33.1628 60.4295 36.0963 58.6532 37.9142C56.877 39.732 52.3767 36.283 52.3767 36.283C52.3767 36.283 55.6138 17.7657 55.4812 18.0701Z" fill="url(#paint5_linear_952_1305)"/>
<path d="M56.5855 20.5273C56.5855 20.5273 57.5269 22.342 57.2665 23.9669C57.006 25.5917 56.2465 26.7623 56.2834 27.3664C56.3203 27.9705 56.456 30.5776 56.041 31.9765C55.6259 33.3754 54.0011 35.6412 52.3786 36.2838C50.7561 36.9264 47.7065 35.868 45.8165 32.8835C43.9265 29.899 46.5728 25.8553 48.9147 23.3996C51.2567 20.9439 56.5855 20.5273 56.5855 20.5273Z" fill="url(#paint6_linear_952_1305)"/>
<path d="M54.5122 37.7157C54.2949 37.6011 53.701 41.0313 49.8645 45.2295C46.0279 49.4277 41.6846 58.9829 42.7712 66.077C43.8578 73.171 53.049 95.6104 53.049 95.6104H63.2539C63.2539 95.6104 62.0958 85.1341 62.3124 79.0074C62.5289 72.8807 61.7334 57.5346 62.8176 53.9876C63.9019 50.4406 64.266 49.4999 63.9043 47.3972C63.5426 45.2946 62.3838 39.9438 62.3838 39.9438L54.5122 37.7157Z" fill="url(#paint7_linear_952_1305)"/>
<path d="M38.5399 40.0703C38.5399 40.0703 32.5772 44.9888 31.4976 51.8576C30.4181 58.7265 29.7033 67.3921 30.6267 68.4677C31.5502 69.5433 37.0861 71.4922 45.6975 72.3631C54.3089 73.2339 57.0776 72.3631 57.0776 72.3631L56.5135 68.3131C56.5135 68.3131 46.6711 67.5953 41.8531 66.0065C37.0351 64.4178 36.8798 63.339 37.1873 61.1359C37.4949 58.9329 39.5363 42.941 38.5399 40.0703Z" fill="url(#paint8_linear_952_1305)"/>
<path d="M55.7273 18.7305C55.7273 18.7305 58.2521 21.7025 55.1177 24.6752C51.9834 27.6479 49.0907 27.4031 49.0907 27.4031C49.0907 27.4031 49.7834 27.1992 50.9234 26.5072C52.0634 25.8152 52.2697 25.5673 52.2697 25.5673C52.2697 25.5673 52.3482 25.9344 49.8682 26.3824C47.3881 26.8304 46.6114 27.196 46.2042 29.6392C45.797 32.0823 47.8416 36.5073 45.6425 38.38C43.4434 40.2528 38.9156 39.6957 38.9156 39.6957C38.9156 39.6957 37.9875 36.4382 39.5676 33.3039C41.1477 30.1695 41.7252 28.092 41.7644 25.568C41.8036 23.0441 41.6859 22.6361 42.7004 20.6418C43.7148 18.6474 44.6955 18.1986 44.6955 18.1986C44.6955 18.1986 43.5187 18.7141 42.4987 20.2612C41.4788 21.8084 41.5212 24.2712 41.5212 24.2712C41.5212 24.2712 41.0693 19.8266 44.0004 17.7914C46.9315 15.7563 51.5322 15.5115 53.7729 16.7715C56.0137 18.0315 55.7273 18.7305 55.7273 18.7305Z" fill="url(#paint9_linear_952_1305)"/>
<path d="M53.7607 39.4C53.7607 39.4 51.9562 40.5125 49.8724 40.2152C47.7886 39.9178 46.7506 39.3105 46.7506 39.3105L50.6217 44.4016C50.6217 44.4016 53.3214 40.9911 53.7607 39.4Z" fill="url(#paint10_linear_952_1305)"/>
<path d="M56.5515 68.577C56.5515 68.577 59.8569 66.9137 60.5677 66.7247C61.2785 66.5356 63.3333 66.7247 63.3333 66.7247L66.4175 68.0796C66.4175 68.0796 66.2606 69.0791 64.2638 68.5802C62.2671 68.0812 62.5252 68.031 61.914 68.1534C61.3029 68.2757 60.7144 68.719 60.7144 68.719C61.4654 69.335 62.3895 69.7019 63.3584 69.7688C64.9982 69.8912 67.4947 68.7645 67.9591 68.7159C68.4236 68.6672 68.7916 68.9364 67.1275 69.5483C65.4634 70.1603 63.9947 70.5031 63.6519 70.5518C63.309 70.6004 64.9487 70.6498 66.9564 69.8912C68.9642 69.1325 68.9139 68.7928 69.2317 68.7928C69.5494 68.7928 69.6718 69.5515 67.5425 70.3839C65.4132 71.2163 64.0402 71.4117 64.0402 71.4117C64.0402 71.4117 66.9306 71.1182 68.3749 70.6781C69.2481 70.407 70.0333 69.9085 70.6502 69.2337C70.6502 69.2337 71.7282 69.3796 70.2579 70.5063C68.7876 71.6329 66.3421 72.86 64.3352 72.86C62.3283 72.86 56.9909 71.7616 56.9909 71.7616C56.9909 71.7616 56.306 69.4918 56.5515 68.577Z" fill="url(#paint11_linear_952_1305)"/>
<path d="M79.3671 69.3346C79.3706 69.5518 79.2879 69.7614 79.1369 69.9175C78.986 70.0736 78.7792 70.1634 78.5621 70.1671H66.8077C66.5908 70.1631 66.3844 70.0733 66.2337 69.9172C66.0831 69.7611 66.0006 69.5515 66.0044 69.3346V50.1441C66.0025 50.0368 66.0218 49.9301 66.0611 49.8302C66.1005 49.7303 66.1592 49.6391 66.2338 49.5619C66.3084 49.4847 66.3975 49.4229 66.496 49.3801C66.5944 49.3373 66.7004 49.3143 66.8077 49.3125H78.5621C78.6696 49.3142 78.7757 49.3371 78.8743 49.3799C78.9729 49.4226 79.0621 49.4843 79.1369 49.5616C79.2116 49.6388 79.2704 49.73 79.3099 49.83C79.3494 49.9299 79.3688 50.0367 79.3671 50.1441V69.3346Z" fill="url(#paint12_linear_952_1305)"/>
<path d="M79.7582 69.6589C79.76 69.7663 79.7405 69.8731 79.701 69.973C79.6615 70.073 79.6027 70.1642 79.528 70.2414C79.4532 70.3186 79.364 70.3804 79.2654 70.4231C79.1667 70.4659 79.0607 70.4888 78.9532 70.4905H67.1996C66.9828 70.4866 66.7764 70.3968 66.6256 70.2409C66.4749 70.085 66.3921 69.8757 66.3954 69.6589V50.4684C66.3919 50.2515 66.4746 50.042 66.6254 49.8861C66.7762 49.7301 66.9827 49.6404 67.1996 49.6367H78.9532C79.0607 49.6385 79.1667 49.6613 79.2654 49.7041C79.364 49.7468 79.4532 49.8086 79.528 49.8858C79.6027 49.963 79.6615 50.0542 79.701 50.1542C79.7405 50.2541 79.76 50.3609 79.7582 50.4684V69.6589Z" fill="url(#paint13_linear_952_1305)"/>
<path d="M78.9452 69.1051C78.9452 69.1051 78.9452 68.4688 78.9452 68.4515V50.4708C78.946 50.4596 78.9427 50.4484 78.9358 50.4395H67.1947C67.1947 50.4395 67.1947 50.4504 67.1947 50.4677V68.4484C67.1947 68.4641 67.1987 69.0972 67.2018 69.1019L78.9452 69.1051Z" fill="#4F4D4D"/>
<path d="M76.1161 47.916C76.1161 47.916 77.573 47.9945 78.1269 48.7367C78.6808 49.4789 78.5788 50.1112 78.4557 50.4627C78.3325 50.8142 78.8056 52.0224 78.3333 51.9401C77.8609 51.8577 77.7582 51.263 77.6146 50.5859C77.471 49.9088 77.4506 49.5189 76.7932 49.067C76.1357 48.6151 75.6649 48.0784 76.1161 47.916Z" fill="url(#paint14_linear_952_1305)"/>
<path d="M74.2495 47.9162C74.2495 47.9162 76.0541 47.7538 76.506 48.4701C76.7696 48.8801 76.9639 49.3307 77.0811 49.8039L76.5475 51.7943C76.5475 51.7943 75.6845 51.7943 75.8289 50.9533C75.9732 50.1122 75.9685 50.0902 75.5935 49.4963C75.2185 48.9024 74.2495 47.9162 74.2495 47.9162Z" fill="url(#paint15_linear_952_1305)"/>
<path d="M73.4658 47.8496C73.4658 47.8496 74.5775 48.0183 75.0082 48.4898L75.439 48.9606C75.439 48.9606 74.947 50.5603 74.947 51.0122C74.947 51.4641 74.9023 51.9537 74.4528 51.6485C74.0032 51.3433 74.0675 51.0106 73.9616 50.1751C73.8557 49.3395 73.8588 49.2681 73.5921 48.8782C73.3253 48.4882 73.4658 47.8496 73.4658 47.8496Z" fill="url(#paint16_linear_952_1305)"/>
<path d="M70.6171 49.6596C70.6171 49.6596 71.1914 47.7515 72.0121 47.6071C72.8327 47.4628 73.2674 47.6071 73.2674 47.6071L74.376 48.9409C74.376 48.9409 74.0676 49.6588 73.2258 49.1865C72.384 48.7142 72.2843 48.4458 72.242 48.6012C72.1996 48.7565 71.9752 49.6588 71.9752 49.6588L70.6171 49.6596Z" fill="url(#paint17_linear_952_1305)"/>
<g opacity="0.6">
<path d="M76.9214 53.3926H77.0517C77.3931 53.3926 77.6699 53.6694 77.6699 54.0108C77.6699 54.3523 77.3931 54.6291 77.0517 54.6291H76.9214C76.58 54.6291 76.3032 54.3523 76.3032 54.0108C76.3032 53.6694 76.58 53.3926 76.9214 53.3926Z" fill="white"/>
<path d="M69.3096 53.3926H75.0527C75.3941 53.3926 75.6709 53.6694 75.6709 54.0108C75.6709 54.3523 75.3941 54.6291 75.0527 54.6291H69.3096C68.9682 54.6291 68.6914 54.3523 68.6914 54.0108C68.6914 53.6694 68.9682 53.3926 69.3096 53.3926Z" fill="white"/>
<path d="M76.9214 55.3789H77.0517C77.3931 55.3789 77.6699 55.6557 77.6699 55.9971C77.6699 56.3386 77.3931 56.6154 77.0517 56.6154H76.9214C76.58 56.6154 76.3032 56.3386 76.3032 55.9971C76.3032 55.6557 76.58 55.3789 76.9214 55.3789Z" fill="white"/>
<path d="M69.3096 55.3789H75.0527C75.3941 55.3789 75.6709 55.6557 75.6709 55.9971C75.6709 56.3386 75.3941 56.6154 75.0527 56.6154H69.3096C68.9682 56.6154 68.6914 56.3386 68.6914 55.9971C68.6914 55.6557 68.9682 55.3789 69.3096 55.3789Z" fill="white"/>
<path d="M76.9214 57.3633H77.0517C77.3931 57.3633 77.6699 57.6401 77.6699 57.9815C77.6699 58.323 77.3931 58.5998 77.0517 58.5998H76.9214C76.58 58.5998 76.3032 58.323 76.3032 57.9815C76.3032 57.6401 76.58 57.3633 76.9214 57.3633Z" fill="white"/>
<path d="M69.3096 57.3633H75.0527C75.3941 57.3633 75.6709 57.6401 75.6709 57.9815C75.6709 58.323 75.3941 58.5998 75.0527 58.5998H69.3096C68.9682 58.5998 68.6914 58.323 68.6914 57.9815C68.6914 57.6401 68.9682 57.3633 69.3096 57.3633Z" fill="white"/>
<path d="M76.9207 60.5833H77.0517C77.1328 60.5835 77.2132 60.5676 77.2882 60.5366C77.3632 60.5056 77.4314 60.4601 77.4888 60.4028C77.5462 60.3454 77.5918 60.2773 77.6228 60.2024C77.6539 60.1274 77.6699 60.047 77.6699 59.9659V59.9659C77.6699 59.8019 77.6048 59.6447 77.4888 59.5287C77.3729 59.4128 77.2157 59.3477 77.0517 59.3477H76.9207C76.8395 59.3477 76.7592 59.3637 76.6842 59.3947C76.6092 59.4258 76.5411 59.4714 76.4838 59.5288C76.4264 59.5862 76.381 59.6544 76.35 59.7294C76.319 59.8044 76.3031 59.8847 76.3032 59.9659V59.9659C76.3032 60.1297 76.3683 60.2867 76.4841 60.4025C76.5998 60.5183 76.7569 60.5833 76.9207 60.5833Z" fill="white"/>
<path d="M69.3096 60.5833H75.0527C75.1338 60.5835 75.2142 60.5676 75.2892 60.5366C75.3642 60.5056 75.4324 60.4601 75.4898 60.4028C75.5472 60.3454 75.5927 60.2773 75.6238 60.2024C75.6549 60.1274 75.6709 60.047 75.6709 59.9659V59.9659C75.6709 59.8019 75.6058 59.6447 75.4898 59.5287C75.3739 59.4128 75.2166 59.3477 75.0527 59.3477H69.3096C69.2284 59.3477 69.1481 59.3636 69.0731 59.3947C68.998 59.4258 68.9299 59.4713 68.8725 59.5287C68.8151 59.5862 68.7695 59.6543 68.7385 59.7293C68.7074 59.8043 68.6914 59.8847 68.6914 59.9659C68.6914 60.047 68.7074 60.1274 68.7385 60.2024C68.7695 60.2773 68.8151 60.3454 68.8725 60.4028C68.9299 60.4601 68.9981 60.5056 69.0731 60.5366C69.1481 60.5676 69.2285 60.5835 69.3096 60.5833Z" fill="white"/>
<path d="M76.9214 61.332H77.0517C77.3931 61.332 77.6699 61.6088 77.6699 61.9503C77.6699 62.2917 77.3931 62.5685 77.0517 62.5685H76.9214C76.58 62.5685 76.3032 62.2917 76.3032 61.9503C76.3032 61.6088 76.58 61.332 76.9214 61.332Z" fill="white"/>
<path d="M69.3096 61.332H75.0527C75.3941 61.332 75.6709 61.6088 75.6709 61.9503C75.6709 62.2917 75.3941 62.5685 75.0527 62.5685H69.3096C68.9682 62.5685 68.6914 62.2917 68.6914 61.9503C68.6914 61.6088 68.9682 61.332 69.3096 61.332Z" fill="white"/>
<path d="M76.9214 63.3184H77.0517C77.3931 63.3184 77.6699 63.5952 77.6699 63.9366C77.6699 64.278 77.3931 64.5548 77.0517 64.5548H76.9214C76.58 64.5548 76.3032 64.278 76.3032 63.9366C76.3032 63.5952 76.58 63.3184 76.9214 63.3184Z" fill="white"/>
<path d="M69.3096 63.3184H75.0527C75.3941 63.3184 75.6709 63.5952 75.6709 63.9366C75.6709 64.278 75.3941 64.5548 75.0527 64.5548H69.3096C68.9682 64.5548 68.6914 64.278 68.6914 63.9366C68.6914 63.5952 68.9682 63.3184 69.3096 63.3184Z" fill="white"/>
<path d="M76.9214 65.3027H77.0517C77.3931 65.3027 77.6699 65.5795 77.6699 65.921C77.6699 66.2624 77.3931 66.5392 77.0517 66.5392H76.9214C76.58 66.5392 76.3032 66.2624 76.3032 65.921C76.3032 65.5795 76.58 65.3027 76.9214 65.3027Z" fill="white"/>
<path d="M69.3096 65.3027H75.0527C75.3941 65.3027 75.6709 65.5795 75.6709 65.921C75.6709 66.2624 75.3941 66.5392 75.0527 66.5392H69.3096C68.9682 66.5392 68.6914 66.2624 68.6914 65.921C68.6914 65.5795 68.9682 65.3027 69.3096 65.3027Z" fill="white"/>
</g>
<path d="M52.5979 140.6C52.5979 140.6 53.9317 141.213 54.6205 142.875C55.3094 144.537 56.8958 147.715 59.171 148.328C61.4462 148.942 61.8432 147.643 61.8432 147.643C61.8432 147.643 63.8651 148.834 63.7576 150.062C63.6501 151.291 60.4028 151.687 58.1801 150.459C55.9574 149.231 54.2573 147.064 54.2573 147.064L53.8603 150.712L52.8497 150.098C52.8497 150.098 51.8016 144.685 51.9828 142.731C52.1641 140.778 52.5979 140.6 52.5979 140.6Z" fill="url(#paint18_linear_952_1305)"/>
<path d="M37.0387 138.23C37.0387 138.23 38.0759 144.261 39.3539 146.61C40.632 148.958 43.3458 148.427 43.3458 148.427C43.3458 148.427 44.1398 150.123 44.6011 150.929C45.0624 151.736 45.6956 152.6 43.5647 152.656C41.4338 152.711 39.3594 151.906 38.3795 149.717C37.3996 147.528 36.6534 144.937 36.6534 144.937V151.202H35.6743C35.6743 151.202 35.617 141.67 35.6743 140.597C35.7316 139.523 37.0387 138.23 37.0387 138.23Z" fill="url(#paint19_linear_952_1305)"/>
<path d="M72.5591 69.7885C72.559 69.891 72.5892 69.9912 72.6461 70.0765C72.7029 70.1618 72.7837 70.2283 72.8784 70.2676C72.973 70.3068 73.0772 70.3172 73.1777 70.2972C73.2783 70.2773 73.3706 70.2279 73.4431 70.1555C73.5155 70.083 73.5649 69.9907 73.5848 69.8901C73.6048 69.7896 73.5945 69.6854 73.5552 69.5908C73.5159 69.4961 73.4494 69.4153 73.3641 69.3584C73.2788 69.3016 73.1786 69.2713 73.0761 69.2715C72.939 69.2715 72.8075 69.326 72.7105 69.4229C72.6136 69.5199 72.5591 69.6514 72.5591 69.7885V69.7885Z" fill="url(#paint20_linear_952_1305)"/>
<path d="M75.297 60.34C75.0873 59.4515 75.6376 58.5612 76.5262 58.3514C77.4148 58.1417 78.3051 58.692 78.5148 59.5806C78.7245 60.4691 78.1742 61.3595 77.2857 61.5692C76.3971 61.7789 75.5068 61.2286 75.297 60.34Z" stroke="#FF1D25" stroke-width="3" stroke-miterlimit="10"/>
<path d="M70.8331 61.2207C70.8352 61.3111 70.864 61.3989 70.9158 61.473C70.9676 61.5472 71.04 61.6044 71.1242 61.6375C71.2083 61.6707 71.3003 61.6783 71.3888 61.6594C71.4772 61.6405 71.5581 61.5959 71.6213 61.5313C71.6846 61.4666 71.7273 61.3848 71.7443 61.296C71.7612 61.2071 71.7516 61.1153 71.7166 61.0319C71.6817 60.9485 71.6229 60.8773 71.5476 60.8272C71.4724 60.777 71.384 60.7502 71.2936 60.75C71.2324 60.7505 71.1719 60.7631 71.1156 60.7871C71.0593 60.811 71.0083 60.8459 70.9655 60.8896C70.9227 60.9334 70.889 60.9852 70.8662 61.042C70.8435 61.0988 70.8322 61.1595 70.8331 61.2207V61.2207Z" fill="url(#paint21_linear_952_1305)"/>
<path d="M12.0001 98.8496H160.754V103.714H12.0001V98.8496Z" fill="url(#paint22_linear_952_1305)"/>
<path d="M14.3535 104.654L14.3535 153.611L11.9998 153.611L11.9998 104.654L14.3535 104.654Z" fill="#D0D1D0"/>
<path d="M160.754 104.654L160.754 153.611L158.4 153.611L158.4 104.654L160.754 104.654Z" fill="#D0D1D0"/>
<path d="M88.0173 65.3281H121.21L112.029 90.8634H80.549L88.0173 65.3281Z" fill="url(#paint23_linear_952_1305)"/>
<path d="M88.0176 65.3284L86.9922 64.627L79.7875 90.3364L80.5493 90.8636L88.0176 65.3284Z" fill="url(#paint24_linear_952_1305)"/>
<path d="M121.21 65.3277L120.172 64.4961L86.9919 64.6263L88.0173 65.3277H121.21Z" fill="url(#paint25_linear_952_1305)"/>
<path d="M95.3333 83.5645H103.766L105.628 98.8258H96.6781L95.3333 83.5645Z" fill="url(#paint26_linear_952_1305)"/>
<path d="M96.6787 98.8258H88.5734V97.9628H95.6462L94.3941 84.2243L95.334 83.5645L96.6787 98.8258Z" fill="url(#paint27_linear_952_1305)"/>
<path d="M95.3334 69.306C95.3337 69.6311 95.4629 69.9428 95.6929 70.1726C95.9228 70.4024 96.2346 70.5315 96.5597 70.5315H110.729C110.89 70.5316 111.05 70.5 111.198 70.4384C111.347 70.3769 111.482 70.2866 111.596 70.1728C111.71 70.059 111.801 69.9239 111.862 69.7752C111.924 69.6265 111.956 69.467 111.956 69.306C111.956 69.1447 111.925 68.985 111.863 68.836C111.802 68.687 111.711 68.5516 111.597 68.4376C111.483 68.3235 111.348 68.2331 111.199 68.1714C111.05 68.1097 110.89 68.078 110.729 68.0781H96.5597C96.3987 68.0781 96.2392 68.1098 96.0904 68.1715C95.9417 68.2331 95.8065 68.3234 95.6926 68.4373C95.5787 68.5512 95.4884 68.6863 95.4268 68.8351C95.3652 68.9839 95.3334 69.1434 95.3334 69.3044V69.306Z" fill="url(#paint28_linear_952_1305)"/>
<path d="M33.3706 97.3184H88.5728V98.8232H33.3706V97.3184Z" fill="url(#paint29_linear_952_1305)"/>
<path d="M104.63 95.0801H115.928V98.8334H104.63V95.0801Z" fill="url(#paint30_linear_952_1305)"/>
<path d="M12.0001 103.715H160.754V105.598H12.0001V103.715Z" fill="url(#paint31_linear_952_1305)"/>
<path d="M140.154 80.3188H142.07C141.433 80.2661 140.792 80.2661 140.154 80.3188V80.3188Z" fill="#71BD89"/>
<path d="M122.818 148.817C122.818 148.817 122.89 151.461 119.037 151.209C115.184 150.956 116.562 147.5 116.562 147.5C116.562 147.5 118.252 150.031 122.818 148.817Z" fill="url(#paint32_linear_952_1305)"/>
<path d="M116.317 148.607C116.317 148.607 115.508 147.557 114.901 148.607C114.295 149.657 113.731 149.697 111.712 149.536C109.693 149.375 105.212 150.908 104.886 152.645C104.561 154.381 106.865 154.3 113.281 155.067C119.697 155.835 121.519 156.804 122.446 155.067C123.374 153.331 123.216 149.099 122.811 149.217C122.406 149.334 121.242 151.806 118.677 151.178C116.112 150.551 116.317 148.607 116.317 148.607Z" fill="url(#paint33_linear_952_1305)"/>
<path d="M124.855 110.578C127.764 107.47 141.603 107.411 148.17 107.566V122.53C139.321 122.33 131.438 122.401 131.438 123.891C131.438 128.077 123.396 148.63 122.454 148.822C121.512 149.013 117.766 150.127 116.196 147.505C114.626 144.883 121.01 114.685 124.855 110.578Z" fill="black"/>
<path d="M169.992 123.963L178.043 160.136H176.339L167.755 125.683L146.678 125.469L139.523 155.371L138.032 155.152L144.489 123.963H169.992Z" fill="url(#paint34_linear_952_1305)"/>
<path d="M159.856 68.6641C159.856 68.6641 163.242 74.3914 164.568 81.5882C165.893 88.7851 165.987 93.5136 163.905 94.3688C161.824 95.224 155.006 88.7262 155.006 88.7262L159.856 68.6641Z" fill="#D95942"/>
<path d="M155.467 102.822C155.467 102.822 159.498 121.397 150.549 121.97C141.6 122.544 112.141 120.12 112.141 122.999C112.141 127.186 104.099 147.739 103.157 147.931C102.216 148.123 98.4703 149.236 96.9003 146.614C95.3304 143.991 101.714 113.801 105.559 109.691C109.404 105.582 132.353 106.802 132.353 106.802" fill="black"/>
<path d="M141.75 65.3281C141.75 65.3281 134.597 68.0537 133.992 68.3409C133.387 68.628 131.932 79.1953 132.008 86.7366C132.083 94.2778 132.762 102.493 132.233 104.644C131.705 106.796 130.272 106.721 130.272 106.721C130.272 106.721 135.249 110.718 142.714 110.644C150.179 110.57 159.529 103.016 160.263 98.0744C160.997 93.1332 165.228 71.4917 159.071 68.0796C155.079 65.8703 141.75 65.3281 141.75 65.3281Z" fill="#E86851"/>
<path d="M110.951 108.163C110.531 108.076 110.107 108.012 109.68 107.972C108.907 107.894 106.307 108.728 106.307 108.728C106.307 108.728 102.341 112.93 102.44 114.011C102.538 115.092 104.73 111.685 105.28 111.404C105.83 111.124 102.779 114.616 103.375 115.17C103.97 115.725 105.226 112.907 105.728 112.615C106.231 112.323 103.947 115.354 104.145 115.847C104.344 116.341 106.054 113.706 106.759 113.138C107.463 112.569 104.297 116.575 105 116.764C105.703 116.953 106.495 115.695 107.432 114.466C108.368 113.236 110.907 113.367 111.701 110.884C112.495 108.4 110.951 108.163 110.951 108.163Z" fill="url(#paint35_linear_952_1305)"/>
<path d="M136.558 53.7314C136.558 53.7314 136.295 57.7367 136.352 58.4953C136.408 59.254 137.592 60.7439 138.024 62.2048C138.455 63.6656 138.24 64.4847 140.618 64.1889C142.995 63.8932 145.702 63.4044 145.702 63.4044C145.702 63.4044 142.2 54.021 140.931 53.409C139.663 52.797 136.558 53.7314 136.558 53.7314Z" fill="url(#paint36_linear_952_1305)"/>
<path d="M135.954 46.7664C134.653 49.4841 134.426 52.8789 135.907 54.1931C137.388 55.5072 138.003 57.42 138.003 57.42C138.003 57.42 137.954 56.2879 137.709 55.4986C137.464 54.7093 137.215 54.4002 137.215 54.4002C137.215 54.4002 138.739 56.08 140.123 56.7406C141.507 57.4012 142.539 61.2063 141.717 63.4196C140.895 65.6328 139.97 66.8301 139.034 67.7433C138.098 68.6566 136.038 72.3989 138.506 75.5411C140.973 78.6833 146.312 81.2645 151.729 81.0331C157.147 80.8017 158.742 73.6346 158.742 73.6346C159.021 74.5722 158.993 75.5743 158.663 76.4952C158.107 78.04 156.787 79.1917 156.787 79.1917C156.787 79.1917 160.429 76.9471 159.634 72.377C158.838 67.8069 154.515 59.4081 154.041 56.8661C153.566 54.3241 153.428 47.1845 148.81 44.6347C144.192 42.0849 138.102 42.2779 135.954 46.7664Z" fill="url(#paint37_linear_952_1305)"/>
<path d="M133.991 68.343C133.867 67.9594 127.729 69.4242 126.701 82.1012C125.673 94.7782 124.241 100.589 120.986 102.149C117.731 103.71 109.68 107.974 109.68 107.974C109.68 107.974 109.163 109.891 110.705 110.641C112.248 111.392 129.136 107.545 130.75 102.92C132.365 98.2954 135.924 74.2477 133.991 68.343Z" fill="#D95942"/>
<path d="M133.669 121.308H137.133L145.027 84.3993C145.027 84.3993 145.683 82.077 146.902 81.0492C147.455 80.5831 148.38 80.3886 149.224 80.3164H147.674C147.674 80.3164 144.654 80.0222 143.437 81.0492C142.22 82.0762 141.563 84.3993 141.563 84.3993L133.669 121.308Z" fill="#E6E9ED"/>
<path d="M175.881 82.7968C177.422 84.2828 176.67 86.4058 176.67 86.4058L168.142 121.31H169.929L178.76 85.1662C178.76 85.1662 179.512 83.0479 177.97 81.5572C177.304 80.3521 174.564 80.3184 174.273 80.3184H149.224C148.38 80.3905 147.455 80.5851 146.902 81.0512C146.69 81.2355 146.499 81.4426 146.332 81.6686C146.597 81.6168 146.865 81.5796 147.134 81.5572H172.184C172.476 81.558 175.212 81.5917 175.881 82.7968Z" fill="#E6E9ED"/>
<path d="M137.133 121.307H168.142L176.67 86.4025C176.67 86.4025 177.422 84.2842 175.881 82.7935C175.215 81.5884 172.476 81.5547 172.184 81.5547H147.134C146.865 81.5771 146.597 81.6143 146.332 81.6661C145.477 82.7974 145.027 84.398 145.027 84.398L137.133 121.307Z" fill="#8A849E"/>
<path d="M103.157 147.931C103.157 147.931 103.229 150.575 99.3763 150.323C95.5233 150.07 96.9002 146.613 96.9002 146.613C96.9002 146.613 98.5902 149.145 103.157 147.931Z" fill="url(#paint38_linear_952_1305)"/>
<path d="M96.6574 147.719C96.6574 147.719 95.8477 146.668 95.2452 147.719C94.6426 148.769 94.0746 148.809 92.0559 148.648C90.0372 148.487 85.555 150.02 85.2302 151.756C84.9053 153.492 87.2081 153.412 93.6289 154.179C100.05 154.946 101.867 155.915 102.793 154.179C103.72 152.443 103.565 148.211 103.159 148.328C102.753 148.446 101.594 150.918 99.0244 150.29C96.455 149.662 96.6574 147.719 96.6574 147.719Z" fill="url(#paint39_linear_952_1305)"/>
<path d="M109.568 121.309H169.928V123.962H109.568V121.309Z" fill="#E6E9ED"/>
<path d="M135.07 123.963L143.123 160.136H141.417L132.835 125.683L111.757 125.469L104.602 155.371L103.111 155.152L109.568 123.963H135.07Z" fill="url(#paint40_linear_952_1305)"/>
<defs>
<linearGradient id="paint0_linear_952_1305" x1="54.7172" y1="106.743" x2="59.8051" y2="148.843" gradientUnits="userSpaceOnUse">
<stop stop-color="#FAC698"/>
<stop offset="1" stop-color="#F39A77"/>
</linearGradient>
<linearGradient id="paint1_linear_952_1305" x1="39.5543" y1="112.482" x2="44.0043" y2="149.306" gradientUnits="userSpaceOnUse">
<stop stop-color="#FAC698"/>
<stop offset="1" stop-color="#F39A77"/>
</linearGradient>
<linearGradient id="paint2_linear_952_1305" x1="74.8012" y1="50.9759" x2="61.6102" y2="50.9759" gradientUnits="userSpaceOnUse">
<stop stop-color="#DCDCDC"/>
<stop offset="1" stop-color="white"/>
</linearGradient>
<linearGradient id="paint3_linear_952_1305" x1="50.1869" y1="31.6236" x2="51.2225" y2="44.31" gradientUnits="userSpaceOnUse">
<stop stop-color="#FAC698"/>
<stop offset="1" stop-color="#F39A77"/>
</linearGradient>
<linearGradient id="paint4_linear_952_1305" x1="49.3394" y1="67.0049" x2="32.7333" y2="66.3356" gradientUnits="userSpaceOnUse">
<stop stop-color="#DCDCDC"/>
<stop offset="1" stop-color="white"/>
</linearGradient>
<linearGradient id="paint5_linear_952_1305" x1="54.4111" y1="16.0083" x2="56.7059" y2="44.1013" gradientUnits="userSpaceOnUse">
<stop stop-color="#171F37"/>
<stop offset="1" stop-color="#212043"/>
</linearGradient>
<linearGradient id="paint6_linear_952_1305" x1="50.6227" y1="19.3921" x2="52.3566" y2="40.6287" gradientUnits="userSpaceOnUse">
<stop stop-color="#FAC698"/>
<stop offset="1" stop-color="#F39A77"/>
</linearGradient>
<linearGradient id="paint7_linear_952_1305" x1="44.0924" y1="66.86" x2="66.6291" y2="66.5587" gradientUnits="userSpaceOnUse">
<stop stop-color="#DCDCDC"/>
<stop offset="1" stop-color="white"/>
</linearGradient>
<linearGradient id="paint8_linear_952_1305" x1="53.4671" y1="56.7486" x2="27.7278" y2="55.7106" gradientUnits="userSpaceOnUse">
<stop stop-color="#DCDCDC"/>
<stop offset="1" stop-color="white"/>
</linearGradient>
<linearGradient id="paint9_linear_952_1305" x1="46.3855" y1="13.8607" x2="48.9628" y2="45.4254" gradientUnits="userSpaceOnUse">
<stop stop-color="#171F37"/>
<stop offset="1" stop-color="#212043"/>
</linearGradient>
<linearGradient id="paint10_linear_952_1305" x1="53.7576" y1="41.8557" x2="46.7475" y2="41.8557" gradientUnits="userSpaceOnUse">
<stop stop-color="#FFAC06"/>
<stop offset="1" stop-color="#FA8A13"/>
</linearGradient>
<linearGradient id="paint11_linear_952_1305" x1="71.0331" y1="69.7452" x2="56.499" y2="69.7452" gradientUnits="userSpaceOnUse">
<stop stop-color="#FAC698"/>
<stop offset="1" stop-color="#F39A77"/>
</linearGradient>
<linearGradient id="paint12_linear_952_1305" x1="79.3671" y1="59.7363" x2="66.0044" y2="59.7363" gradientUnits="userSpaceOnUse">
<stop stop-color="#C0C0C0"/>
<stop offset="1" stop-color="#929292"/>
</linearGradient>
<linearGradient id="paint13_linear_952_1305" x1="79.7582" y1="60.0636" x2="66.3954" y2="60.0636" gradientUnits="userSpaceOnUse">
<stop stop-color="#C0C0C0"/>
<stop offset="1" stop-color="#DEDFDE"/>
</linearGradient>
<linearGradient id="paint14_linear_952_1305" x1="78.5529" y1="49.9269" x2="75.938" y2="49.9269" gradientUnits="userSpaceOnUse">
<stop stop-color="#FAC698"/>
<stop offset="1" stop-color="#F39A77"/>
</linearGradient>
<linearGradient id="paint15_linear_952_1305" x1="77.0811" y1="49.8454" x2="74.2495" y2="49.8454" gradientUnits="userSpaceOnUse">
<stop stop-color="#FAC698"/>
<stop offset="1" stop-color="#F39A77"/>
</linearGradient>
<linearGradient id="paint16_linear_952_1305" x1="75.439" y1="49.7977" x2="73.4289" y2="49.7977" gradientUnits="userSpaceOnUse">
<stop stop-color="#FAC698"/>
<stop offset="1" stop-color="#F39A77"/>
</linearGradient>
<linearGradient id="paint17_linear_952_1305" x1="74.3728" y1="48.6012" x2="70.6171" y2="48.6012" gradientUnits="userSpaceOnUse">
<stop stop-color="#FAC698"/>
<stop offset="1" stop-color="#F39A77"/>
</linearGradient>
<linearGradient id="paint18_linear_952_1305" x1="57.0229" y1="140.065" x2="58.4155" y2="151.587" gradientUnits="userSpaceOnUse">
<stop stop-color="#727070"/>
<stop offset="1"/>
</linearGradient>
<linearGradient id="paint19_linear_952_1305" x1="38.7286" y1="138.026" x2="40.5441" y2="153.05" gradientUnits="userSpaceOnUse">
<stop stop-color="#727070"/>
<stop offset="1"/>
</linearGradient>
<linearGradient id="paint20_linear_952_1305" x1="73.5939" y1="69.7885" x2="72.5591" y2="69.7885" gradientUnits="userSpaceOnUse">
<stop stop-color="#1D7ECE"/>
<stop offset="1" stop-color="#185D9B"/>
</linearGradient>
<linearGradient id="paint21_linear_952_1305" x1="71.7518" y1="61.22" x2="70.8331" y2="61.22" gradientUnits="userSpaceOnUse">
<stop stop-color="#1D7ECE"/>
<stop offset="1" stop-color="#185D9B"/>
</linearGradient>
<linearGradient id="paint22_linear_952_1305" x1="160.754" y1="101.282" x2="12.0001" y2="101.282" gradientUnits="userSpaceOnUse">
<stop stop-color="#DCDCDC"/>
<stop offset="1" stop-color="white"/>
</linearGradient>
<linearGradient id="paint23_linear_952_1305" x1="90.1003" y1="90.224" x2="102.701" y2="74.8222" gradientUnits="userSpaceOnUse">
<stop stop-color="#C0C0C0"/>
<stop offset="1" stop-color="#E1E2E1"/>
</linearGradient>
<linearGradient id="paint24_linear_952_1305" x1="86.9239" y1="77.8194" x2="83.5338" y2="77.7402" gradientUnits="userSpaceOnUse">
<stop stop-color="#C0C0C0"/>
<stop offset="1" stop-color="#E1E2E1"/>
</linearGradient>
<linearGradient id="paint25_linear_952_1305" x1="86.1563" y1="64.5926" x2="114.928" y2="65.1049" gradientUnits="userSpaceOnUse">
<stop stop-color="#C0C0C0"/>
<stop offset="1" stop-color="#E1E2E1"/>
</linearGradient>
<linearGradient id="paint26_linear_952_1305" x1="95.1819" y1="82.0463" x2="105.32" y2="100.449" gradientUnits="userSpaceOnUse">
<stop stop-color="#C0C0C0"/>
<stop offset="1" stop-color="#E1E2E1"/>
</linearGradient>
<linearGradient id="paint27_linear_952_1305" x1="96.0048" y1="91.2901" x2="92.4013" y2="91.2053" gradientUnits="userSpaceOnUse">
<stop stop-color="#C0C0C0"/>
<stop offset="1" stop-color="#E1E2E1"/>
</linearGradient>
<linearGradient id="paint28_linear_952_1305" x1="103.694" y1="67.9573" x2="103.549" y2="71.9241" gradientUnits="userSpaceOnUse">
<stop stop-color="#C0C0C0"/>
<stop offset="1" stop-color="#E1E2E1"/>
</linearGradient>
<linearGradient id="paint29_linear_952_1305" x1="61.0298" y1="96.4773" x2="60.8595" y2="101.167" gradientUnits="userSpaceOnUse">
<stop stop-color="#C0C0C0"/>
<stop offset="1" stop-color="#E1E2E1"/>
</linearGradient>
<linearGradient id="paint30_linear_952_1305" x1="110.347" y1="95.0652" x2="110.145" y2="100.629" gradientUnits="userSpaceOnUse">
<stop stop-color="#999898"/>
<stop offset="1" stop-color="#575757"/>
</linearGradient>
<linearGradient id="paint31_linear_952_1305" x1="86.4944" y1="101.148" x2="86.0895" y2="111.467" gradientUnits="userSpaceOnUse">
<stop stop-color="#C0C0C0"/>
<stop offset="1" stop-color="#F3F4F3"/>
</linearGradient>
<linearGradient id="paint32_linear_952_1305" x1="122.818" y1="149.363" x2="116.322" y2="149.363" gradientUnits="userSpaceOnUse">
<stop stop-color="#FAC698"/>
<stop offset="1" stop-color="#F39A77"/>
</linearGradient>
<linearGradient id="paint33_linear_952_1305" x1="123.138" y1="152.09" x2="104.859" y2="152.09" gradientUnits="userSpaceOnUse">
<stop stop-color="#727070"/>
<stop offset="1"/>
</linearGradient>
<linearGradient id="paint34_linear_952_1305" x1="178.043" y1="142.05" x2="138.031" y2="142.05" gradientUnits="userSpaceOnUse">
<stop stop-color="#C0C0C0"/>
<stop offset="1" stop-color="#DEDFDE"/>
</linearGradient>
<linearGradient id="paint35_linear_952_1305" x1="110.8" y1="112.92" x2="102.452" y2="111.217" gradientUnits="userSpaceOnUse">
<stop stop-color="#FAC698"/>
<stop offset="1" stop-color="#F39A77"/>
</linearGradient>
<linearGradient id="paint36_linear_952_1305" x1="146.097" y1="59.3512" x2="136.094" y2="58.3615" gradientUnits="userSpaceOnUse">
<stop stop-color="#FAC698"/>
<stop offset="1" stop-color="#F39A77"/>
</linearGradient>
<linearGradient id="paint37_linear_952_1305" x1="160.787" y1="63.4143" x2="133.895" y2="60.7539" gradientUnits="userSpaceOnUse">
<stop stop-color="#171F37"/>
<stop offset="1" stop-color="#212043"/>
</linearGradient>
<linearGradient id="paint38_linear_952_1305" x1="103.157" y1="148.477" x2="96.6609" y2="148.477" gradientUnits="userSpaceOnUse">
<stop stop-color="#FAC698"/>
<stop offset="1" stop-color="#F39A77"/>
</linearGradient>
<linearGradient id="paint39_linear_952_1305" x1="103.478" y1="151.202" x2="85.1988" y2="151.202" gradientUnits="userSpaceOnUse">
<stop stop-color="#727070"/>
<stop offset="1"/>
</linearGradient>
<linearGradient id="paint40_linear_952_1305" x1="143.123" y1="142.05" x2="103.111" y2="142.05" gradientUnits="userSpaceOnUse">
<stop stop-color="#C0C0C0"/>
<stop offset="1" stop-color="#DEDFDE"/>
</linearGradient>
</defs>
</svg>
