<svg width="276" height="269" viewBox="0 0 276 269" fill="none" xmlns="http://www.w3.org/2000/svg">
<path d="M-140.336 276.073C-140.336 198.8 -77.4104 135.936 -0.130325 135.936C77.1497 135.936 140.075 198.833 140.075 276.073C140.075 353.313 77.1388 416.211 -0.075592 416.211C-77.2899 416.211 -140.336 353.368 -140.336 276.073ZM136.495 276.073C136.477 239.858 122.084 205.131 96.4771 179.52C70.8699 153.909 36.1428 139.509 -0.075592 139.483C-75.33 139.483 -136.832 200.651 -136.832 276.106C-136.832 351.561 -75.3848 412.839 -0.075592 412.839C75.2336 412.839 136.495 351.496 136.495 276.073Z" fill="#E2F2D9"/>
<path d="M-92.8618 276.073C-92.8661 257.723 -87.4281 239.783 -77.2355 224.524C-67.0429 209.264 -52.5534 197.369 -35.5997 190.344C-18.646 183.319 0.0105286 181.478 18.0104 185.055C36.0102 188.633 52.5448 197.467 65.5231 210.441C78.5014 223.415 87.3404 239.946 90.9223 257.943C94.5042 275.941 92.668 294.596 85.646 311.55C78.624 328.503 66.7317 342.994 51.4729 353.189C36.2141 363.385 18.2744 368.826 -0.0775528 368.826C-24.6755 368.806 -48.2604 359.028 -65.6558 341.638C-83.0512 324.249 -92.8357 300.668 -92.8618 276.073ZM89.9913 276.073C89.974 258.259 84.6749 240.85 74.7641 226.047C64.8534 211.245 50.7758 199.712 34.3111 192.908C17.8463 186.104 -0.266243 184.334 -17.737 187.821C-35.2077 191.309 -51.2521 199.897 -63.8419 212.501C-76.4317 225.105 -85.0016 241.159 -88.4682 258.632C-91.9348 276.105 -90.1424 294.214 -83.3177 310.669C-76.4931 327.124 -64.9425 341.186 -50.1261 351.078C-35.3098 360.97 -17.893 366.247 -0.0775528 366.243C23.8083 366.185 46.6972 356.662 63.5738 339.76C80.4504 322.858 89.9382 299.956 89.9584 276.073H89.9913Z" fill="#E2F2D9"/>
<path d="M-83.8186 276.072C-83.8099 259.524 -78.895 243.35 -69.695 229.594C-60.495 215.838 -47.4229 205.119 -32.1312 198.79C-16.8395 192.461 -0.0145798 190.807 16.2168 194.038C32.4483 197.268 47.3575 205.238 59.06 216.94C70.7625 228.641 78.7329 243.549 81.9638 259.779C85.1946 276.009 83.5408 292.832 77.2115 308.122C70.8821 323.412 60.1613 336.483 46.4042 345.682C32.6472 354.881 16.4714 359.796 -0.0784378 359.805C-22.2806 359.781 -43.5667 350.952 -59.266 335.254C-74.9653 319.557 -83.7954 298.272 -83.8186 276.072ZM81.0558 276.072C81.0493 260.028 76.2853 244.347 67.3662 231.01C58.4471 217.673 45.7734 207.28 30.9475 201.145C16.1216 195.009 -0.190742 193.408 -15.9271 196.542C-31.6634 199.676 -46.117 207.405 -57.4606 218.752C-68.8041 230.099 -76.5282 244.554 -79.6561 260.29C-82.784 276.026 -81.1754 292.337 -75.0335 307.159C-68.8917 321.981 -58.4925 334.649 -45.1508 343.562C-31.8091 352.475 -16.1239 357.232 -0.0784378 357.232C21.4329 357.191 42.0512 348.626 57.259 333.414C72.4667 318.202 81.0239 297.582 81.0558 276.072Z" fill="#E2F2D9"/>
<path d="M90.4863 263.349L136.966 257.492L137.437 260.065L90.7272 265.922L90.4863 263.349Z" fill="#E2F2D9"/>
<path d="M88.1443 252.053L133.693 240.404L134.274 242.977L88.7903 254.56L88.1443 252.053Z" fill="#E2F2D9"/>
<path d="M79.2515 230.857L120.574 208.205L121.746 210.548L80.5983 233.145L79.2515 230.857Z" fill="#E2F2D9"/>
<path d="M72.9883 221.253L111.092 193.686L112.504 195.733L74.4446 223.301L72.9883 221.253Z" fill="#E2F2D9"/>
<path d="M65.6643 212.543L99.8589 180.344L101.611 182.216L67.3067 214.415L65.6643 212.543Z" fill="#E2F2D9"/>
<path d="M57.0029 204.806L86.982 168.633L89.0296 170.264L58.9956 206.448L57.0029 204.806Z" fill="#E2F2D9"/>
<path d="M47.4666 198.142L72.8689 158.51L75.0368 159.856L49.744 199.599L47.4666 198.142Z" fill="#E2F2D9"/>
<path d="M37.3923 192.812L57.4734 150.256L59.8165 151.427L39.7902 193.808L37.3923 192.812Z" fill="#E2F2D9"/>
<path d="M26.7952 188.716L41.3139 144.047L43.7775 144.868L29.3135 189.592L26.7952 188.716Z" fill="#E2F2D9"/>
<path d="M15.6692 186.074L24.4614 139.895L26.9141 140.3L18.2532 186.545L15.6692 186.074Z" fill="#E2F2D9"/>
<path d="M4.14062 184.796L7.12976 137.85L9.70288 138.08L6.77937 185.026L4.14062 184.796Z" fill="#E2F2D9"/>
<path d="M128.185 223.881C188.011 201.054 245.035 274.243 245.506 274.932L245.736 275.042L243.689 277.166L243.338 276.936C242.637 275.994 186.96 204.579 129.126 226.651L128.185 223.881Z" fill="#E2F2D9"/>
<path d="M133.341 239.391L137.885 237.749C178.397 222.772 216.501 266.554 223.585 275.334L223.815 275.564L222.654 276.736L222.293 276.506C215.154 267.66 177.926 224.874 138.465 239.282L133.899 241.088L133.341 239.391Z" fill="#E2F2D9"/>
<path d="M68.2368 155.869L70.35 151.424C88.3178 112.196 146.097 116.061 157.594 117.32L157.703 117.2L157.824 118.962L157.474 119.072C146.053 117.9 89.4456 113.926 71.7734 152.092L69.7149 156.537L68.2368 155.869Z" fill="#E2F2D9"/>
<path d="M119.052 205.739L123.563 203.747C157.867 187.883 158.327 139.36 156.816 119.347V118.756L156.575 118.58V117.705H157.747L157.987 117.475L158.447 117.934V119.226C160.035 139.71 159.542 189 124.143 205.214L119.643 207.261L119.052 205.739Z" fill="#E2F2D9"/>
<path d="M-41.5525 120.991C-41.5525 87.5003 -8.4528 58.586 -0.843044 52.3236L-0.722584 52.1484L0.569424 53.3199L0.328537 53.5498C-8.43089 60.8085 -51.2973 98.2734 -36.8114 137.435L-35.1471 142.055L-36.8114 142.756L-38.5962 138.125C-40.5379 132.62 -41.5373 126.828 -41.5525 120.991Z" fill="#E2F2D9"/>
<path d="M-1.17285 53.3199L-0.351655 52.3236V52.1484H0.239616L1.33454 53.09C16.6635 66.4249 51.2085 101.667 37.8066 138.081L35.8686 142.756L34.3466 142.055L36.1095 137.435C49.2486 102.138 15.3825 67.5417 0.0425034 54.2286L-0.417348 53.8782H-0.658234L-1.17285 53.3199Z" fill="#E2F2D9"/>
<path d="M53.3674 148.492C80.237 89.6674 171.861 101.415 172.791 101.667L172.912 104.48H172.441C171.51 104.36 82.0546 92.7767 56.1157 149.664L53.3674 148.492Z" fill="#E2F2D9"/>
<path d="M126.082 219.558C182.449 194.038 171.27 104.24 171.161 103.244V102.488H174.018V103.09C174.248 103.802 185.548 195.756 127.122 222.153L126.082 219.558Z" fill="#E2F2D9"/>
<path d="M-56.7714 123.892C-56.7714 78.6424 -12.602 39.7761 -1.54322 30.7548C-1.41072 30.4933 -1.20887 30.2733 -0.959763 30.1189C-0.710655 29.9644 -0.423862 29.8814 -0.130749 29.8789V32.7473C0.167904 32.7506 0.456303 32.6387 0.674511 32.4348C0.892719 32.2309 1.02391 31.9507 1.0408 31.6525V32.3532L0.569988 32.7035C-11.4085 42.4256 -69.823 93.127 -49.6325 146.883L-52.3808 147.978C-55.2941 140.282 -56.7819 132.12 -56.7714 123.892Z" fill="#E2F2D9"/>
<path d="M-1.7749 32.3618V31.6612C-1.7749 31.9515 -1.65956 32.23 -1.45422 32.4353C-1.24888 32.6406 -0.970367 32.756 -0.679974 32.756V29.8438C-0.373589 29.8523 -0.0741364 29.9368 0.191512 30.0897C0.45716 30.2425 0.680665 30.459 0.84196 30.7196C13.6636 41.2628 72.3189 92.8838 51.6576 147.866L48.9641 146.771C69.0998 93.267 10.6416 42.3357 -1.15082 32.6246L-1.7749 32.3618Z" fill="#E2F2D9"/>
<path d="M215.176 266.97L228.403 258.189L229.465 259.591L216.172 268.317L215.176 266.97Z" fill="#E2F2D9"/>
<path d="M205.934 257.961L219.04 249.641L219.982 251.162L206.865 259.417L205.934 257.961Z" fill="#E2F2D9"/>
<path d="M192.402 247.768L204.413 238.758L205.574 240.159L193.639 249.181L192.402 247.768Z" fill="#E2F2D9"/>
<path d="M199.201 252.683L210.851 243.268L211.902 244.724L200.372 253.975L199.201 252.683Z" fill="#E2F2D9"/>
<path d="M172.332 237.587L184.737 227.756L185.788 229.157L173.383 238.934L172.332 237.587Z" fill="#E2F2D9"/>
<path d="M157.987 234.772L172.44 224.59L173.382 226.002L158.984 236.184L157.987 234.772Z" fill="#E2F2D9"/>
<path d="M141.476 236.655L157.757 220.846L159.093 222.138L142.943 237.881L141.476 236.655Z" fill="#E2F2D9"/>
<path d="M132.816 236.884L141.477 221.195L143.053 222.016L134.392 237.705L132.816 236.884Z" fill="#E2F2D9"/>
<path d="M219.283 271.067L237.196 266.742L237.546 268.549L219.743 272.589L219.283 271.067Z" fill="#E2F2D9"/>
<path d="M157.046 117.701L157.287 117.471L172.211 102.428L173.667 103.654L173.141 104.004L158.217 118.992L157.046 117.701Z" fill="#E2F2D9"/>
<path d="M145.748 117.356L148.737 101.854L150.555 102.259L147.39 117.707L145.748 117.356Z" fill="#E2F2D9"/>
<path d="M132.816 117.597L136.155 102.488L137.907 102.839L134.513 117.947L132.816 117.597Z" fill="#E2F2D9"/>
<path d="M116.128 119.874L118.121 104.951L119.764 105.302L117.771 120.169L116.128 119.874Z" fill="#E2F2D9"/>
<path d="M124.143 118.59L125.851 103.777L127.482 103.898L126.081 118.766L124.143 118.59Z" fill="#E2F2D9"/>
<path d="M94.5796 126.834L96.3425 111.266L98.0396 111.506L96.3425 127.13L94.5796 126.834Z" fill="#E2F2D9"/>
<path d="M82.5259 135.034L85.4603 117.703L87.2121 117.944L84.1683 135.385L82.5259 135.034Z" fill="#E2F2D9"/>
<path d="M72.1694 147.909L72.5198 125.322H74.2169L73.987 147.909H72.1694Z" fill="#E2F2D9"/>
<path d="M151.375 117.242L161.087 101.783L162.488 102.604L152.896 118.173L151.375 117.242Z" fill="#E2F2D9"/>
<path d="M157.639 127.891L173.263 124.957L173.668 126.599L157.869 129.643L157.639 127.891Z" fill="#E2F2D9"/>
<path d="M157.396 140.895L172.681 137.73L173.141 139.482L157.757 142.646L157.396 140.895Z" fill="#E2F2D9"/>
<path d="M155.349 157.919L170.568 155.992L170.798 157.689L155.579 159.616L155.349 157.919Z" fill="#E2F2D9"/>
<path d="M156.816 149.61L171.861 148.154L171.981 149.906L156.937 151.307L156.816 149.61Z" fill="#E2F2D9"/>
<path d="M148.735 179.461L164.601 177.885L164.721 179.691L148.965 181.158L148.735 179.461Z" fill="#E2F2D9"/>
<path d="M140.534 191.693L158.217 188.891L158.447 190.642L140.896 193.456L140.534 191.693Z" fill="#E2F2D9"/>
<path d="M157.046 122.39L172.681 112.668L173.667 114.201L157.867 123.857L157.046 122.39Z" fill="#E2F2D9"/>
<path d="M-0.831055 52.9662V52.6158V31.3105H0.800379V31.8908V53.0866L-0.831055 52.9662Z" fill="#E2F2D9"/>
<path d="M6.65918 59.8211L15.6705 46.6504L16.9625 47.6467L8.06072 60.7517L6.65918 59.8211Z" fill="#E2F2D9"/>
<path d="M15.7886 69.073L24.34 56.0117L25.7414 57.0628L17.19 70.0583L15.7886 69.073Z" fill="#E2F2D9"/>
<path d="M26.3228 82.4719L35.5749 70.5273L36.9764 71.4689L27.6148 83.5229L26.3228 82.4719Z" fill="#E2F2D9"/>
<path d="M21.3521 75.688L30.8998 64.0391L32.3013 65.1448L22.8192 76.7938L21.3521 75.688Z" fill="#E2F2D9"/>
<path d="M36.7466 102.487L46.9951 90.2578L48.2214 91.3636L37.9838 103.658L36.7466 102.487Z" fill="#E2F2D9"/>
<path d="M39.6804 117.004L50.0932 102.553L51.5056 103.659L41.0819 118.066L39.6804 117.004Z" fill="#E2F2D9"/>
<path d="M37.8625 133.107L54.0784 116.893L55.3048 118.064L39.0341 134.333L37.8625 133.107Z" fill="#E2F2D9"/>
<path d="M37.9829 141.648L54.0784 133.043L54.8339 134.565L38.9136 143.225L37.9829 141.648Z" fill="#E2F2D9"/>
<path d="M2.21045 56.302L6.41501 38.3906L8.17782 38.7957L3.90758 56.6523L2.21045 56.302Z" fill="#E2F2D9"/>
<path d="M138.487 274.814C177.828 273.939 185.569 244.499 185.569 244.258L188.021 244.849C188.021 245.199 179.831 276.457 138.498 277.332L138.487 274.814Z" fill="#E2F2D9"/>
<path d="M168.928 275.163C189.304 274.933 198.666 264.685 203.122 256.025L204.644 256.781C200.265 265.802 190.246 276.685 168.928 276.926V275.163Z" fill="#E2F2D9"/>
<path d="M181.463 226.116C181.463 219.908 183.653 198.253 212.121 186.078L213.216 188.531C183.193 201.176 184.003 224.594 184.003 227.397L181.496 227.517L181.463 226.116Z" fill="#E2F2D9"/>
<path d="M162.73 180.216L164.712 178.398C171.511 185.132 186.731 195.084 211.794 185.723L212.735 188.12C186.26 198.127 170.099 187.387 162.73 180.216Z" fill="#E2F2D9"/>
<path d="M164.164 222.128C165.259 215.559 169.781 203.637 186.993 196.783L187.694 198.25C171.193 204.918 166.89 216.162 165.861 222.424L164.164 222.128Z" fill="#E2F2D9"/>
<path d="M154.999 196.201L155.82 194.734C161.908 198.369 172.09 201.522 186.96 196.311L187.551 198.008C171.97 203.394 161.316 200 154.999 196.201Z" fill="#E2F2D9"/>
<path d="M81.76 83.9818C81.9225 76.5323 83.5056 69.1822 86.4244 62.3262L88.8223 63.421C76.57 93.6491 93.6509 109.655 95.6327 111.32L93.8808 113.367C89.9773 109.544 86.8903 104.968 84.8068 99.9172C82.7234 94.8662 81.6869 89.445 81.76 83.9818Z" fill="#E2F2D9"/>
<path d="M47.2258 93.1236V90.4851C56.8831 90.4851 74.6866 86.9159 85.8002 62.3262L88.3185 63.421C76.0881 90.2552 55.5363 93.1236 47.2258 93.1236Z" fill="#E2F2D9"/>
<path d="M72.3968 104.009C72.5479 98.4035 73.8017 92.8826 76.0868 87.7617L77.6087 88.342C70.5793 104.764 75.7364 115.713 79.1307 120.891L77.9591 121.822C74.2781 116.617 72.3317 110.384 72.3968 104.009Z" fill="#E2F2D9"/>
<path d="M52.5576 108.341C59.3462 106.578 69.0582 101.542 75.8577 87.375L77.2592 88.0866C70.1203 102.954 60.0469 108.22 52.908 109.983L52.5576 108.341Z" fill="#E2F2D9"/>
<path d="M118.823 155.989C133.221 141.231 132.454 127.359 129.356 118.174L131.053 117.703C133.801 125.553 135.794 141.056 119.994 157.27L118.823 155.989Z" fill="#E2F2D9"/>
<path d="M119.052 156.222C135.092 140.895 150.432 142.646 157.747 144.923L157.396 146.62C150.203 144.343 135.684 142.756 120.103 157.514L119.052 156.222Z" fill="#E2F2D9"/>
<path d="M-20.179 72.8675L-19.3687 71.3457C-12.0217 74.9696 0.449474 84.5712 0.799852 107.103H-0.842541C-1.17102 86.6623 -11.5181 77.1921 -20.179 72.8675Z" fill="#E2F2D9"/>
<path d="M-0.720947 107.108C-0.129686 84.8063 11.8707 75.3579 18.714 71.7012L19.5352 73.1573C12.9656 76.6717 1.62218 85.7478 1.04187 107.228L-0.720947 107.108Z" fill="#E2F2D9"/>
<path d="M96.9788 177.174C124.144 148.785 108.87 122.498 108.749 122.433L110.862 121.031C111.092 121.371 127.483 149.245 98.8182 179.057L96.9788 177.174Z" fill="#E2F2D9"/>
<path d="M97.4468 177.647C127.13 149.017 154.766 164.881 154.996 165.122L153.704 167.224C152.609 166.699 127.426 152.236 99.2643 179.465L97.4468 177.647Z" fill="#E2F2D9"/>
<path d="M-31.9495 90.4888L-31.3692 87.9707C-30.9859 88.0911 0.329033 96.1709 1.27067 137.435L-1.30242 137.544C-2.26595 98.273 -30.7341 90.7187 -31.9495 90.4888Z" fill="#E2F2D9"/>
<path d="M-0.842529 137.435C-0.0213326 96.1709 30.6039 88.0911 31.009 87.9707L31.7098 90.4888C30.363 90.7187 2.56272 98.273 1.74152 137.566L-0.842529 137.435Z" fill="#E2F2D9"/>
<path d="M171.04 152.595L171.16 153.931L171.27 152.595C173.634 152.211 176.025 152.014 178.42 152.004C191.826 152.027 204.676 157.362 214.156 166.841C223.636 176.32 228.971 189.169 228.995 202.574C228.995 218.613 221.615 233.722 209.034 242.798L207.337 240.51C213.239 236.108 218.026 230.383 221.31 223.794C224.594 217.204 226.285 209.936 226.246 202.574C226.212 189.915 221.153 177.787 212.181 168.855C203.209 159.923 191.058 154.918 178.398 154.938C176.125 154.975 173.856 155.128 171.598 155.398L171.139 153.931L171.04 152.595Z" fill="#E2F2D9"/>
<path d="M33.4746 67.7729L33.9345 67.0175C35.2265 65.3753 36.628 63.7987 38.2156 62.1017C47.7361 52.6155 60.6287 47.2891 74.0691 47.2891C87.5095 47.2891 100.402 52.6155 109.923 62.1017C115.48 67.584 119.666 74.3 122.139 81.704C124.612 89.1079 125.303 96.991 124.157 104.712L121.408 104.242C122.471 96.9791 121.805 89.5684 119.465 82.6116C117.125 75.6548 113.177 69.3481 107.941 64.2038C103.514 59.7516 98.2512 56.2183 92.4542 53.8073C86.6572 51.3962 80.4406 50.155 74.1621 50.155C67.8836 50.155 61.6671 51.3962 55.8701 53.8073C50.0731 56.2183 44.81 59.7516 40.3836 64.2038C38.8657 65.6253 37.4939 67.195 36.2886 68.8897L35.7082 69.5903L33.4746 67.7729Z" fill="#E2F2D9"/>
<path d="M35.3452 70.1862C45.2019 61.772 57.8657 57.3771 70.8163 57.8762C83.7669 58.3752 96.0548 63.7317 105.235 72.8795C113.985 81.3392 119.215 92.7939 119.874 104.947L118.001 105.067C117.181 93.4459 112.188 82.5125 103.943 74.2808C95.0968 65.5161 83.2842 60.3887 70.8401 59.9123C58.3959 59.4359 46.2259 63.6452 36.7358 71.708L35.3452 70.1862Z" fill="#E2F2D9"/>
<path d="M170.57 157.686L170.734 155.639C183.628 156.701 195.655 162.556 204.444 172.049C213.233 181.543 218.144 193.984 218.21 206.92C218.297 219.117 213.866 230.914 205.772 240.039L204.129 238.692C211.955 229.976 216.249 218.655 216.174 206.942C216.126 194.512 211.414 182.552 202.969 173.431C194.523 164.309 182.961 158.69 170.57 157.686Z" fill="#E2F2D9"/>
<path d="M210.379 230.087C214.004 227.897 218.044 225.521 222.205 223.189L223.135 224.941C219.04 227.284 215.055 229.507 211.43 231.849L210.379 230.087Z" fill="#E2F2D9"/>
<path d="M226.245 214.398C224.723 215.34 223.256 216.161 221.866 217.157C219.522 218.504 217.234 220.026 214.957 221.132" fill="#E2F2D9"/>
<path d="M227.231 206.334C224.428 208.14 221.505 209.903 218.691 211.6C218.045 211.83 217.224 212.531 216.644 212.695" fill="#E2F2D9"/>
<path d="M216.873 205.21C220.333 203.163 224.187 201.17 227.231 199.178L216.873 205.21Z" fill="#E2F2D9"/>
<path d="M216.413 197.781C219.862 195.668 223.256 193.686 226.475 191.924L216.413 197.781Z" fill="#E2F2D9"/>
<path d="M214.531 191.342C217.75 189.349 221.32 187.543 224.484 185.484L214.531 191.342Z" fill="#E2F2D9"/>
<path d="M212.341 185.487C215.374 183.56 218.659 181.513 221.823 179.75L212.341 185.487Z" fill="#E2F2D9"/>
<path d="M209.056 179.46C212.341 177.763 215.429 175.65 218.363 173.986L209.056 179.46Z" fill="#E2F2D9"/>
<path d="M205.113 174.25C208.207 172.725 211.179 170.964 214.004 168.984L205.113 174.25Z" fill="#E2F2D9"/>
<path d="M200.482 169.877C203.23 168.18 206.165 166.483 209.033 164.666L200.482 169.877Z" fill="#E2F2D9"/>
<path d="M194.919 165.23C197.804 163.792 200.581 162.15 203.23 160.314L194.919 165.23Z" fill="#E2F2D9"/>
<path d="M196.561 156.861C194.145 158.453 191.645 159.915 189.072 161.241C189.072 161.241 188.722 161.241 188.722 161.536" fill="#E2F2D9"/>
<path d="M188.251 154.227C187.43 154.938 186.729 155.168 186.061 155.748C184.332 156.631 182.654 157.61 181.035 158.683" fill="#E2F2D9"/>
<path d="M171.51 156.576C173.388 155.615 175.215 154.559 176.985 153.412L171.51 156.576Z" fill="#E2F2D9"/>
<path d="M35.3452 70.1862C45.2019 61.772 57.8657 57.3771 70.8163 57.8762C83.7669 58.3752 96.0548 63.7317 105.235 72.8795C113.985 81.3392 119.215 92.7939 119.874 104.947L118.001 105.067C117.181 93.4459 112.188 82.5125 103.943 74.2808C95.0968 65.5161 83.2842 60.3887 70.8401 59.9123C58.3959 59.4359 46.2259 63.6452 36.7358 71.708L35.3452 70.1862Z" fill="#E2F2D9"/>
<path d="M116.128 94.7548C117.07 90.6602 118.231 86.4451 119.643 81.4746L121.625 82.0001C120.103 86.9159 119.052 91.1309 118.121 95.346L116.128 94.7548Z" fill="#E2F2D9"/>
<path d="M116.36 72.5781C115.834 74.1547 115.484 75.7969 115.013 77.4392C114.528 80.0818 113.843 82.6839 112.965 85.2233" fill="#E2F2D9"/>
<path d="M111.332 65.9668C110.62 69.1856 109.799 72.5357 108.988 75.8202C108.729 76.584 108.531 77.3675 108.397 78.1632" fill="#E2F2D9"/>
<path d="M103.252 72.511C104.183 68.6573 105.442 64.5626 106.351 60.873L103.252 72.511Z" fill="#E2F2D9"/>
<path d="M97.4468 67.5923C98.5417 63.7385 99.6366 59.8738 100.556 56.3594L97.4468 67.5923Z" fill="#E2F2D9"/>
<path d="M91.7778 64.3722C92.599 60.6279 93.7597 57.0588 94.5808 53.3145L91.7778 64.3722Z" fill="#E2F2D9"/>
<path d="M85.9194 61.8579C86.7406 58.234 87.6823 54.4897 88.6677 51.041L85.9194 61.8579Z" fill="#E2F2D9"/>
<path d="M79.3604 59.8758C80.5867 56.3615 81.2984 52.6172 82.1743 49.4531L79.3604 59.8758Z" fill="#E2F2D9"/>
<path d="M72.9883 59.0529C74.0398 55.7437 74.9169 52.3816 75.6161 48.9805L72.9883 59.0529Z" fill="#E2F2D9"/>
<path d="M66.6047 59.2948C67.415 55.9009 68.2325 52.6164 69.0574 49.4414L66.6047 59.2948Z" fill="#E2F2D9"/>
<path d="M59.3472 59.8756C60.3908 56.7967 61.2105 53.6464 61.7998 50.4492L59.3472 59.8756Z" fill="#E2F2D9"/>
<path d="M54.6052 52.6191C54.0287 55.4765 53.2642 58.2927 52.3168 61.0493C52.2856 61.079 52.2609 61.1146 52.2439 61.1542C52.227 61.1937 52.2183 61.2362 52.2183 61.2792C52.2183 61.3222 52.227 61.3647 52.2439 61.4043C52.2609 61.4438 52.2856 61.4795 52.3168 61.5091" fill="#E2F2D9"/>
<path d="M47.0049 56.832C46.764 57.7626 46.534 58.3538 46.2931 59.4049C45.6909 61.1965 45.2046 63.025 44.8369 64.879" fill="#E2F2D9"/>
<path d="M36.625 70.2415C37.3623 68.2725 37.8943 66.2326 38.2126 64.1543L36.625 70.2415Z" fill="#E2F2D9"/>
<path d="M221.614 182.683C221.614 178.818 227.593 173.311 236.253 169.447C244.684 165.877 254.747 164.421 256.619 168.866C258.382 172.851 252.119 179.223 242.385 183.559C233.845 187.303 223.771 188.705 221.844 184.205C221.638 183.726 221.559 183.202 221.614 182.683ZM255.042 170.322C255.073 170.121 255.03 169.915 254.922 169.742C253.75 167.224 246.261 167.399 237.009 171.439C227.757 175.479 222.611 181.041 223.782 183.318C224.779 185.727 232.323 185.606 241.454 181.621C249.951 177.877 255.042 173.081 255.042 170.322Z" fill="#E2F2D9"/>
<path d="M88.7878 47.0541C88.9602 42.4512 89.931 37.9132 91.6566 33.6425C94.4706 26.2743 98.7408 20.5046 102.431 18.8952C103.451 18.4511 104.602 18.412 105.65 18.7857C107.051 19.3659 108.748 20.9753 108.748 25.8582C108.559 30.4378 107.589 34.9513 105.88 39.2042C102.595 47.7547 96.4524 55.8893 91.777 54.1376C89.839 53.3165 88.7878 50.9188 88.7878 47.0541ZM106.701 25.8582C106.701 22.9898 106.121 21.0629 104.883 20.6469C104.594 20.5549 104.289 20.524 103.988 20.556C103.686 20.5881 103.395 20.6824 103.131 20.833C100.197 22.1796 96.102 27.6757 93.5289 34.3541C91.8573 38.3909 90.9049 42.689 90.7149 47.0541C90.7149 49.8021 91.4266 51.7946 92.7077 52.1997C95.0509 53.196 100.372 47.7548 103.953 38.5035C105.643 34.4946 106.575 30.207 106.701 25.8582Z" fill="#E2F2D9"/>
<path d="M183.161 151.778C230.746 138.552 256.269 168.277 256.521 168.627L255.043 169.875C254.802 169.591 230.1 140.84 183.675 153.661L183.161 151.778Z" fill="#E2F2D9"/>
<path d="M217.103 232.202C258.381 207.492 254.746 169.742 254.746 169.447L256.619 169.217C256.859 169.447 260.659 208.631 218.165 233.899L217.103 232.202Z" fill="#E2F2D9"/>
<path d="M41.5327 58.5872C66.0044 15.6263 105.039 18.6699 105.225 18.6699L105.115 20.6516C104.754 20.6516 67.0555 17.7284 43.1751 59.6383L41.5327 58.5872Z" fill="#E2F2D9"/>
<path d="M104.654 20.4163L105.88 18.8945C106.231 19.1354 136.538 43.8346 124.264 91.9522L122.392 91.4814C134.162 44.6558 105.037 20.6462 104.654 20.4163Z" fill="#E2F2D9"/>
<path d="M84.2886 240.637L126.192 222.43L127.133 224.838L85.3397 242.98L84.2886 240.637Z" fill="#E2F2D9"/>
<path d="M225.194 255.324L254.987 238.814L256.279 241.103L226.475 257.613L225.194 255.324Z" fill="#E2F2D9"/>
<path d="M255.688 244.845C254.419 244.81 253.211 244.294 252.309 243.402C251.406 242.509 250.876 241.307 250.827 240.039C250.821 238.738 251.328 237.486 252.237 236.556C253.147 235.626 254.387 235.091 255.688 235.068C256.945 235.128 258.13 235.669 258.998 236.579C259.867 237.489 260.351 238.699 260.351 239.957C260.351 241.215 259.867 242.424 258.998 243.334C258.13 244.245 256.945 244.786 255.688 244.845Z" fill="#E2F2D9"/>
<path d="M144.587 102.08L153.949 69.3008L156.467 70.0562L147.04 102.781L144.587 102.08Z" fill="#E2F2D9"/>
<path d="M172.683 129.298L206.166 119.762L206.866 122.269L173.668 131.87L172.683 129.298Z" fill="#E2F2D9"/>
<path d="M171.28 101.666L193.759 79.5508L196.441 82.1784L173.908 104.36L171.28 101.666Z" fill="#E2F2D9"/>
<path d="M158.448 73.1006C158.007 73.5451 157.483 73.898 156.905 74.1388C156.327 74.3796 155.707 74.5036 155.081 74.5036C154.455 74.5036 153.835 74.3796 153.257 74.1388C152.679 73.898 152.155 73.5451 151.714 73.1006C150.844 72.1849 150.358 70.9699 150.358 69.7066C150.358 68.4434 150.844 67.2284 151.714 66.3127C152.626 65.4789 153.825 65.03 155.06 65.06C156.295 65.09 157.47 65.5965 158.341 66.4736C159.211 67.3507 159.708 68.5303 159.728 69.7655C159.748 71.0007 159.289 72.1958 158.448 73.1006Z" fill="#E2F2D9"/>
<path d="M210.03 124.491C209.347 125.174 208.477 125.639 207.53 125.827C206.583 126.015 205.601 125.918 204.709 125.548C203.817 125.178 203.054 124.553 202.518 123.75C201.982 122.947 201.695 122.003 201.695 121.037C201.695 120.072 201.982 119.128 202.518 118.325C203.054 117.522 203.817 116.896 204.709 116.526C205.601 116.157 206.583 116.06 207.53 116.248C208.477 116.436 209.347 116.901 210.03 117.583C210.931 118.507 211.435 119.747 211.435 121.037C211.435 122.328 210.931 123.567 210.03 124.491Z" fill="#E2F2D9"/>
<path d="M18.3621 50.0454L35.1145 19.7188L37.3919 21.0106L20.6505 51.3263L18.3621 50.0454Z" fill="#E2F2D9"/>
<path d="M-2.23364 31.5419L-2.00368 0L1.74095 0.0547613L1.511 31.6624L-2.23364 31.5419Z" fill="#E2F2D9"/>
<path d="M41.1918 20.2981C41.1934 20.9415 41.0668 21.5788 40.8196 22.1728C40.5724 22.7669 40.2094 23.3058 39.7519 23.7582C39.2943 24.2106 38.7513 24.5674 38.1545 24.808C37.5577 25.0485 36.919 25.1679 36.2756 25.1591C35.6403 25.1592 35.0112 25.033 34.4251 24.7879C33.8389 24.5429 33.3073 24.1837 32.8611 23.7315C32.4149 23.2792 32.063 22.7428 31.8259 22.1534C31.5888 21.564 31.4711 20.9334 31.4798 20.2981C31.4679 19.6651 31.5839 19.0362 31.8207 18.449C32.0575 17.8619 32.4103 17.3285 32.858 16.8808C33.3057 16.4332 33.8392 16.0804 34.4264 15.8436C35.0136 15.6068 35.6426 15.4909 36.2756 15.5028C36.9139 15.4926 37.5479 15.6089 38.1411 15.8448C38.7343 16.0807 39.2749 16.4316 39.7318 16.8774C40.1888 17.3231 40.5531 17.8548 40.8036 18.4419C41.0542 19.029 41.1861 19.6598 41.1918 20.2981Z" fill="#E2F2D9"/>
<path d="M136.145 259.539C155.35 240.391 177.479 259.299 177.752 259.419L176.351 261.236C175.354 260.47 155.394 243.61 137.952 261.171L136.145 259.539Z" fill="#E2F2D9"/>
<path d="M151.716 254.909C151.716 248.701 153.83 241.913 160.147 235.355L161.91 236.998C148.968 250.234 154.771 264.686 159.447 272.174L157.519 273.269C154.771 268.846 151.716 262.398 151.716 254.909Z" fill="#E2F2D9"/>
<path d="M109.799 191.164V188.767C134.621 188.767 136.734 162.776 136.855 161.725L139.044 161.834C139.077 162.206 136.789 191.164 109.799 191.164Z" fill="#E2F2D9"/>
<path d="M115.133 166.524L117.421 165.998C118.702 171.034 121.166 178.348 127.484 183.088C131.403 186.548 136.243 188.475 142.583 188.77L142.473 191.102C135.794 190.752 130.057 188.595 126.049 184.906C119.173 179.727 116.6 171.91 115.133 166.524Z" fill="#E2F2D9"/>
<path d="M15.9089 98.3285L17.6609 96.752C17.7813 97.1023 36.625 119.174 17.5404 138.355L15.9089 136.713C33.4716 118.999 16.6097 99.1496 15.9089 98.3285Z" fill="#E2F2D9"/>
<path d="M3.90894 117.007L5.08048 115.134C9.58064 117.828 16.4896 121.331 24.3403 120.171C29.8182 119.673 34.961 117.317 38.9138 113.492L40.4905 115.189C35.3443 119.634 30.1325 122.152 24.5702 122.503C16.0188 123.674 8.75947 119.93 3.90894 117.007Z" fill="#E2F2D9"/>
<path d="M84.627 167.927C84.627 140.885 113.555 138.553 113.96 138.553L114.081 140.885C112.843 140.95 86.8607 143.074 86.8607 167.927V168.047H84.6708L84.627 167.927Z" fill="#E2F2D9"/>
<path d="M84.3987 133.867H86.7418C86.9717 152.359 101.261 158.446 109.801 160.439L109.341 162.628C100.198 160.559 84.6286 153.935 84.3987 133.867Z" fill="#E2F2D9"/>
<path d="M-67.5671 276.071C-67.5844 262.733 -63.6454 249.689 -56.2483 238.59C-48.8512 227.491 -38.3284 218.835 -26.0107 213.716C-13.693 208.597 -0.133736 207.246 12.952 209.834C26.0377 212.421 38.062 218.831 47.5041 228.252C56.9462 237.674 63.382 249.683 65.9973 262.762C68.6127 275.841 67.2901 289.402 62.197 301.729C57.1038 314.057 48.4689 324.597 37.3843 332.017C26.2997 339.436 13.2635 343.402 -0.0756454 343.413C-17.9508 343.413 -35.096 336.323 -47.749 323.698C-60.402 311.073 -67.5294 293.944 -67.5671 276.071ZM65.8938 276.071C65.9025 263.027 62.0431 250.275 54.8037 239.424C47.5642 228.574 37.2698 220.114 25.2221 215.114C13.1743 210.113 -0.085762 208.797 -12.8815 211.332C-25.6773 213.866 -37.4342 220.138 -46.6657 229.353C-55.8971 238.568 -62.1886 250.313 -64.7446 263.104C-67.3006 275.894 -66.0063 289.155 -61.0254 301.21C-56.0446 313.265 -47.6007 323.572 -36.7616 330.829C-25.9225 338.086 -13.1748 341.966 -0.130379 341.979C17.3552 341.959 34.1204 335.012 46.4948 322.659C58.8692 310.306 65.8446 293.554 65.8938 276.071Z" fill="#E2F2D9"/>
<path d="M-73.8635 276.07C-73.8549 261.49 -69.5236 247.24 -61.4173 235.12C-53.3109 223.001 -41.7933 213.557 -28.3202 207.981C-14.8472 202.406 -0.0234451 200.949 14.2773 203.796C28.578 206.642 41.7138 213.664 52.0244 223.974C62.335 234.283 69.3575 247.418 72.2043 261.717C75.0511 276.017 73.5944 290.839 68.0184 304.311C62.4423 317.783 52.9972 329.299 40.8769 337.405C28.7566 345.51 14.5051 349.841 -0.0762634 349.85C-19.6396 349.83 -38.3959 342.05 -52.2293 328.218C-66.0627 314.386 -73.8432 295.631 -73.8635 276.07ZM72.0467 276.07C72.0467 261.772 67.8048 247.796 59.8578 235.91C51.9109 224.024 40.6162 214.763 27.4031 209.298C14.1901 203.833 -0.347343 202.411 -14.3693 205.21C-28.3913 208.01 -41.2674 214.906 -51.3682 225.026C-61.469 235.145 -68.3404 248.034 -71.1127 262.06C-73.8849 276.086 -72.4335 290.619 -66.9421 303.82C-61.4507 317.021 -52.1661 328.297 -40.2634 336.22C-28.3608 344.142 -14.375 348.356 -0.0762634 348.328C19.065 348.29 37.4094 340.661 50.931 327.114C64.4526 313.567 72.0467 295.209 72.0467 276.07Z" fill="#E2F2D9"/>
</svg>
