<svg width="142" height="286" viewBox="0 0 142 286" fill="none" xmlns="http://www.w3.org/2000/svg">
<path d="M70.1035 142.502C70.1035 102.616 102.583 70.168 142.472 70.168C182.361 70.168 214.841 102.633 214.841 142.502C214.841 182.37 182.356 214.836 142.501 214.836C102.646 214.836 70.1035 182.398 70.1035 142.502ZM212.993 142.502C212.984 123.809 205.555 105.884 192.338 92.6646C179.12 79.4452 161.195 72.0124 142.501 71.9989C103.657 71.9989 71.912 103.571 71.912 142.519C71.912 181.466 103.629 213.095 142.501 213.095C181.372 213.095 212.993 181.432 212.993 142.502Z" fill="#E2F2D9"/>
<path d="M94.6084 142.498C94.6062 133.026 97.4131 123.767 102.674 115.89C107.935 108.014 115.414 101.874 124.165 98.2481C132.916 94.6219 142.546 93.6719 151.836 95.5184C161.127 97.3649 169.662 101.925 176.361 108.621C183.06 115.318 187.622 123.851 189.471 133.14C191.32 142.43 190.372 152.059 186.747 160.81C183.123 169.561 176.985 177.04 169.109 182.303C161.233 187.565 151.973 190.374 142.5 190.374C129.804 190.364 117.63 185.317 108.651 176.341C99.6723 167.365 94.6219 155.193 94.6084 142.498ZM188.99 142.498C188.981 133.303 186.246 124.318 181.131 116.677C176.015 109.036 168.749 103.084 160.25 99.5717C151.752 96.0597 142.403 95.146 133.385 96.9461C124.367 98.7462 116.086 103.179 109.587 109.685C103.089 116.191 98.6656 124.477 96.8762 133.496C95.0869 142.515 96.012 151.862 99.5347 160.355C103.057 168.849 109.019 176.107 116.667 181.213C124.315 186.319 133.304 189.043 142.5 189.04C154.829 189.011 166.644 184.095 175.355 175.371C184.066 166.647 188.963 154.826 188.973 142.498H188.99Z" fill="#E2F2D9"/>
<path d="M99.2773 142.498C99.2818 133.957 101.819 125.608 106.567 118.508C111.316 111.408 118.063 105.875 125.956 102.608C133.849 99.3414 142.534 98.4879 150.912 100.155C159.29 101.823 166.986 105.936 173.026 111.976C179.066 118.016 183.18 125.711 184.848 134.088C186.516 142.466 185.662 151.149 182.395 159.041C179.128 166.934 173.594 173.68 166.493 178.429C159.393 183.177 151.043 185.713 142.501 185.718C131.041 185.706 120.054 181.149 111.95 173.046C103.847 164.943 99.2893 153.957 99.2773 142.498ZM184.379 142.498C184.376 134.217 181.917 126.123 177.313 119.239C172.71 112.355 166.168 106.99 158.515 103.824C150.863 100.657 142.443 99.83 134.32 101.448C126.198 103.065 118.737 107.055 112.882 112.912C107.027 118.769 103.04 126.23 101.426 134.352C99.8114 142.475 100.642 150.893 103.812 158.544C106.982 166.195 112.35 172.733 119.236 177.334C126.123 181.934 134.219 184.39 142.501 184.39C153.604 184.369 164.247 179.948 172.096 172.096C179.946 164.244 184.363 153.601 184.379 142.498Z" fill="#E2F2D9"/>
<path d="M137.2 71.271L138.545 71.1523L140.082 95.3842L138.743 95.5029L137.2 71.271Z" fill="#E2F2D9"/>
<path d="M128.377 72.4161L129.66 72.207L134.192 96.0433L132.91 96.2863L128.377 72.4161Z" fill="#E2F2D9"/>
<path d="M119.736 74.7747L120.957 74.3848L128.434 97.4355L127.213 97.9215L119.736 74.7747Z" fill="#E2F2D9"/>
<path d="M111.349 78.1606L112.575 77.5898L122.923 99.5499L121.697 100.155L111.349 78.1606Z" fill="#E2F2D9"/>
<path d="M103.566 82.5138L104.668 81.8809L117.707 102.332L116.548 103.089L103.566 82.5138Z" fill="#E2F2D9"/>
<path d="M96.3877 87.9208L97.3711 87.0449L112.811 105.778L111.771 106.62L96.3877 87.9208Z" fill="#E2F2D9"/>
<path d="M89.8335 94.1167L90.7547 93.1504L108.461 109.798L107.483 110.793L89.8335 94.1167Z" fill="#E2F2D9"/>
<path d="M84.1362 101.096L85.0009 100.039L104.669 114.297L103.809 115.387L84.1362 101.096Z" fill="#E2F2D9"/>
<path d="M79.4854 108.74L80.0901 107.559L101.363 119.285L100.741 120.46L79.4854 108.74Z" fill="#E2F2D9"/>
<path d="M75.6753 116.895L76.2348 115.629L98.8413 124.569L98.2931 125.84L75.6753 116.895Z" fill="#E2F2D9"/>
<path d="M72.9912 125.471L73.3529 124.205L96.8128 130.218L96.4511 131.546L72.9912 125.471Z" fill="#E2F2D9"/>
<path d="M71.4478 134.297L71.6456 132.969L95.6536 136.049L95.4671 137.439L71.4478 134.297Z" fill="#E2F2D9"/>
<path d="M70.9624 143.27V141.908L95.2304 141.97V143.27H70.9624Z" fill="#E2F2D9"/>
<path d="M71.4478 150.856L95.4671 147.951L95.7101 149.223L71.6456 152.212L71.4478 150.856Z" fill="#E2F2D9"/>
<path d="M73.0474 159.677L96.575 153.664L96.8915 155.082L73.4091 161.005L73.0474 159.677Z" fill="#E2F2D9"/>
<path d="M75.7368 168.255L98.3545 159.371L98.8406 160.671L76.2963 169.492L75.7368 168.255Z" fill="#E2F2D9"/>
<path d="M79.4854 176.418L100.741 164.754L101.363 165.901L80.2144 177.627L79.4854 176.418Z" fill="#E2F2D9"/>
<path d="M84.1982 184.029L103.871 169.766L104.668 170.918L85.063 185.12L84.1982 184.029Z" fill="#E2F2D9"/>
<path d="M89.8955 191.034L107.602 174.482L108.523 175.449L90.8167 191.944L89.8955 191.034Z" fill="#E2F2D9"/>
<path d="M96.3877 197.203L111.89 178.594L112.873 179.436L97.4332 198.022L96.3877 197.203Z" fill="#E2F2D9"/>
<path d="M103.629 202.581L116.605 182.096L117.786 182.853L104.793 203.304L103.629 202.581Z" fill="#E2F2D9"/>
<path d="M111.411 206.899L121.759 185.023L122.98 185.662L112.632 207.475L111.411 206.899Z" fill="#E2F2D9"/>
<path d="M119.736 210.31L127.269 187.293L128.496 187.717L121.092 210.705L119.736 210.31Z" fill="#E2F2D9"/>
<path d="M128.433 212.611L133.027 188.803L134.327 189.164L129.721 212.854L128.433 212.611Z" fill="#E2F2D9"/>
<path d="M137.261 213.849L138.861 189.617L140.206 189.742L138.601 213.911L137.261 213.849Z" fill="#E2F2D9"/>
<path d="M121.092 62.45C121.092 45.1633 138.177 30.2389 142.104 27.0064L142.167 26.916L142.834 27.5207L142.709 27.6394C138.188 31.386 116.062 50.724 123.539 70.9379L124.398 73.3227L123.539 73.6843L122.618 71.2939C121.616 68.4527 121.1 65.4628 121.092 62.45Z" fill="#E2F2D9"/>
<path d="M141.935 27.5207L142.358 27.0064V26.916H142.664L143.229 27.402C151.141 34.285 168.972 52.4758 162.054 71.2713L161.054 73.6843L160.268 73.3227L161.178 70.9379C167.96 52.7188 150.48 34.8614 142.562 27.9897L142.325 27.8089H142.2L141.935 27.5207Z" fill="#E2F2D9"/>
<path d="M60.2354 68.3082C60.2354 65.0419 60.4162 62.5046 60.5405 61.2048V60.9957L61.3996 60.9336L61.4617 61.2048C60.857 67.0367 58.9524 96.3432 78.5014 105.317L80.762 106.447L80.3212 107.233L78.0605 106.148C62.5017 98.9823 60.2354 79.4522 60.2354 68.3082Z" fill="#E2F2D9"/>
<path d="M60.6147 60.8744L60.6769 60.7558H60.7956L60.8578 60.6936L61.4625 60.6371C72.0084 59.8516 97.5537 60.0324 105.952 78.3419L106.998 80.6984L106.195 81.0318L105.093 78.6414C96.949 60.9366 71.8841 60.7558 61.5755 61.5413H61.276L61.1517 61.6034H60.7278L60.6147 60.8744Z" fill="#E2F2D9"/>
<path d="M26.9077 142.817L27.4729 142.15L27.7328 142.393C32.9267 148.677 51.3735 168.739 70.9281 161.488L73.3753 160.675L73.6126 161.488L71.2898 162.28C51.1362 169.773 32.322 149.35 27.049 142.947L26.9077 142.817Z" fill="#E2F2D9"/>
<path d="M26.8457 142.575L26.9079 142.456V142.337L27.2696 141.913C34.2041 133.878 52.3345 115.986 71.2674 122.965L73.5902 123.903L73.2907 124.689L70.9057 123.813C52.5775 117.032 34.7354 134.601 28.01 142.518L27.7669 142.699V142.818L27.5126 143.151L26.8457 142.575Z" fill="#E2F2D9"/>
<path d="M60.9136 223.609L61.1566 223.547L61.2809 223.609C69.4362 224.361 96.5696 225.48 105.273 206.503L106.33 204.209L107.251 204.571L106.138 206.921C97.1913 226.316 69.4984 225.259 61.2187 224.508L60.9757 224.57L60.9136 223.609Z" fill="#E2F2D9"/>
<path d="M60.3604 217.288C60.3604 205.02 63.0618 186.14 78.259 179.132L80.5875 178.002L81.0113 178.878L78.6829 179.844C60.8577 188.061 60.7955 213.078 61.4624 223.414L61.5189 223.713L61.6433 223.838V224.228L60.8577 224.346L60.6768 224.29V224.166L60.6147 224.109V223.544C60.479 221.792 60.3604 219.679 60.3604 217.288Z" fill="#E2F2D9"/>
<path d="M121.391 222.61C121.361 219.601 121.878 216.612 122.917 213.789L123.844 211.342L124.703 211.675L123.782 214.06C117 232.369 134.565 250.227 142.432 257.008L142.675 257.245H142.794L143.099 257.46L142.5 258.172L142.438 258.11H142.319L141.895 257.692C135.113 251.826 121.391 238.083 121.391 222.61Z" fill="#E2F2D9"/>
<path d="M113.236 63.9477C113.236 40.5918 136.035 20.5304 141.743 15.874C141.811 15.739 141.916 15.6255 142.044 15.5457C142.173 15.466 142.321 15.4232 142.472 15.4219V16.9025C142.626 16.9042 142.775 16.8464 142.888 16.7411C143 16.6359 143.068 16.4912 143.077 16.3373V16.699L142.834 16.8798C136.651 21.898 106.5 48.0681 116.921 75.8149L115.503 76.38C113.999 72.4078 113.231 68.195 113.236 63.9477Z" fill="#E2F2D9"/>
<path d="M141.624 16.706V16.3443C141.624 16.4942 141.683 16.6379 141.789 16.7439C141.895 16.8499 142.039 16.9094 142.189 16.9094V15.4062C142.347 15.4107 142.501 15.4543 142.639 15.5332C142.776 15.6121 142.891 15.7238 142.974 15.8583C149.592 21.3003 179.868 47.9451 169.203 76.3249L167.813 75.7597C178.206 48.1429 148.032 21.8541 141.946 16.8416L141.624 16.706Z" fill="#E2F2D9"/>
<path d="M51.9097 63.2279C51.9053 59.897 52.094 56.5685 52.4749 53.2594L53.9443 53.1973V53.5024C53.9443 53.9262 48.0667 100.152 77.2403 113.443L76.6751 114.805C55.0238 104.984 51.9097 77.9716 51.9097 63.2279Z" fill="#E2F2D9"/>
<path d="M52.894 54.1084V52.594H53.2049C58.0427 52.1136 101.554 48.3387 114.666 76.7975L113.31 77.4022C100.622 49.8758 58.0935 53.5659 53.2049 54.1084H52.894Z" fill="#E2F2D9"/>
<path d="M15.6387 143.065L16.6786 141.975L16.7972 142.099C17.1646 142.579 45.9596 179.396 75.7379 168.145L76.3031 169.501C45.5413 181.255 16.9272 144.698 15.763 143.156L15.6387 143.065Z" fill="#E2F2D9"/>
<path d="M15.6387 142.269L15.7574 142.145C16.9216 140.636 45.5979 104.142 76.2974 115.8L75.7323 117.224C46.0726 105.922 18.0858 141.665 16.8538 143.145L16.6729 143.326L15.6387 142.269Z" fill="#E2F2D9"/>
<path d="M53.2041 231.067H53.4471C53.9332 231.129 100.129 236.961 113.445 207.711L114.846 208.378C101.056 238.532 53.6901 232.61 53.2041 232.547V231.067Z" fill="#E2F2D9"/>
<path d="M52.0748 222.306C52.0748 207.348 55.2058 180.217 76.7045 170.367L77.3827 171.695C49.752 184.387 53.482 226.929 54.098 231.76V232.122H52.5608V231.823C52.2331 228.661 52.0709 225.485 52.0748 222.306Z" fill="#E2F2D9"/>
<path d="M141.936 268.716V268.383L142.179 268.145C148.282 263.189 178.502 237.025 168.046 209.227L169.374 208.713C180.225 237.143 149.916 263.76 143.326 269.112C143.114 269.37 142.814 269.541 142.484 269.592V268.083C142.405 268.085 142.327 268.103 142.256 268.137C142.185 268.17 142.121 268.219 142.07 268.278C142.018 268.338 141.979 268.408 141.956 268.483C141.933 268.558 141.926 268.638 141.936 268.716Z" fill="#E2F2D9"/>
<path d="M113.552 221.049C113.539 216.827 114.305 212.639 115.813 208.695L117.22 209.21C106.895 236.962 136.956 263.189 143.065 268.145L143.365 268.382V268.715C143.375 268.632 143.367 268.548 143.34 268.468C143.314 268.389 143.27 268.316 143.212 268.256C143.155 268.195 143.084 268.148 143.006 268.118C142.927 268.088 142.843 268.076 142.76 268.082V269.591C142.606 269.588 142.457 269.541 142.329 269.456C142.201 269.371 142.099 269.251 142.037 269.111C136.334 264.562 113.552 244.546 113.552 221.049Z" fill="#E2F2D9"/>
<path d="M52.8198 53.504L53.4415 52.8711L53.6789 53.0519L61.399 60.8787L60.6756 61.3929L60.6134 61.2686L52.8198 53.504Z" fill="#E2F2D9"/>
<path d="M70.5439 110.034L79.4226 107.469L79.6657 108.345L70.7248 110.91L70.5439 110.034Z" fill="#E2F2D9"/>
<path d="M105.036 64.627H104.171V76.4716H105.036V64.627Z" fill="#E2F2D9"/>
<path d="M107.359 79.4894L110.066 70.459L110.971 70.7585L108.224 79.7945L107.359 79.4894Z" fill="#E2F2D9"/>
<path d="M16.1245 142.937V142.033H16.4862H27.213L27.3938 142.09L27.2695 142.937H27.1508H16.4862H16.1245Z" fill="#E2F2D9"/>
<path d="M24.082 150.974L30.8979 146.504L31.3217 147.255L24.585 151.788L24.082 150.974Z" fill="#E2F2D9"/>
<path d="M28.875 155.387L35.6739 151.092L36.0978 151.849L29.3554 156.11L28.875 155.387Z" fill="#E2F2D9"/>
<path d="M36.4136 161.004L42.5286 156.41L43.0881 157.201L36.894 161.79L36.4136 161.004Z" fill="#E2F2D9"/>
<path d="M33.0283 158.738L39.0416 153.906L39.5842 154.601L33.5878 159.433L33.0283 158.738Z" fill="#E2F2D9"/>
<path d="M46.5815 166.745L52.8944 161.67L53.4426 162.365L47.0619 167.44L46.5815 166.745Z" fill="#E2F2D9"/>
<path d="M52.9561 168.38L60.3597 163.119L60.857 163.848L53.3799 169.132L52.9561 168.38Z" fill="#E2F2D9"/>
<path d="M60.2988 170.431L68.6971 162.215L69.3018 162.882L60.9205 171.036L60.2988 170.431Z" fill="#E2F2D9"/>
<path d="M68.5767 170.434L73.0471 162.279L73.9118 162.794L69.4357 170.858L68.5767 170.434Z" fill="#E2F2D9"/>
<path d="M19.7925 146.444L28.9933 144.33L29.2363 145.268L19.9903 147.32L19.7925 146.444Z" fill="#E2F2D9"/>
<path d="M52.8198 231.525L53.0742 231.31L60.7943 223.607L61.3368 224.302L61.2181 224.421L53.4415 232.186L52.8198 231.525Z" fill="#E2F2D9"/>
<path d="M64.7681 232.244L66.4296 224.242L67.2322 224.417L65.6328 232.487L64.7681 232.244Z" fill="#E2F2D9"/>
<path d="M71.2676 231.884L72.9913 224.119L73.8504 224.3L72.1266 232.127L71.2676 231.884Z" fill="#E2F2D9"/>
<path d="M80.5859 230.736L81.6315 223L82.5527 223.119L81.5072 230.827L80.5859 230.736Z" fill="#E2F2D9"/>
<path d="M76.6025 231.346L77.3994 223.729L78.3207 223.853L77.5238 231.403L76.6025 231.346Z" fill="#E2F2D9"/>
<path d="M91.7993 227.598L92.7205 219.381L93.5796 219.528L92.7205 227.66L91.7993 227.598Z" fill="#E2F2D9"/>
<path d="M97.4961 224.183L98.8977 215.209L99.8189 215.299L98.3551 224.302L97.4961 224.183Z" fill="#E2F2D9"/>
<path d="M104.052 220.314L104.295 208.656H105.154L105.036 220.314H104.052Z" fill="#E2F2D9"/>
<path d="M58.4658 232.008L63.5466 224L64.287 224.548L59.3136 232.494L58.4658 232.008Z" fill="#E2F2D9"/>
<path d="M52.8198 219.616L60.9186 218.107L61.0373 219.012L53.0742 220.436L52.8198 219.616Z" fill="#E2F2D9"/>
<path d="M53.1934 212.971L60.9191 211.4L61.1565 212.248L53.2555 213.909L53.1934 212.971Z" fill="#E2F2D9"/>
<path d="M54.3018 203.609L62.0219 202.643L62.2027 203.547L54.4204 204.513L54.3018 203.609Z" fill="#E2F2D9"/>
<path d="M53.6787 207.718L61.3988 206.898L61.461 207.837L53.7409 208.532L53.6787 207.718Z" fill="#E2F2D9"/>
<path d="M57.3652 192.31L65.5092 191.496L65.6335 192.434L57.4896 193.186L57.3652 192.31Z" fill="#E2F2D9"/>
<path d="M60.6763 186.6L69.7414 185.176L69.9223 186.086L60.795 187.476L60.6763 186.6Z" fill="#E2F2D9"/>
<path d="M52.8198 226.115L60.9186 221.068L61.399 221.854L53.3172 226.872L52.8198 226.115Z" fill="#E2F2D9"/>
<path d="M133.649 260.409L138.301 253.701L139.041 254.187L134.39 260.951L133.649 260.409Z" fill="#E2F2D9"/>
<path d="M129.118 255.577L133.526 248.926L134.328 249.35L129.858 256.057L129.118 255.577Z" fill="#E2F2D9"/>
<path d="M123.358 248.017L128.134 241.852L128.812 242.456L124.025 248.684L123.358 248.017Z" fill="#E2F2D9"/>
<path d="M125.749 251.404L130.7 245.42L131.384 246.025L126.472 251.947L125.749 251.404Z" fill="#E2F2D9"/>
<path d="M117.47 237.898L122.743 231.523L123.477 232.128L118.21 238.412L117.47 237.898Z" fill="#E2F2D9"/>
<path d="M115.818 231.522L121.153 224.119L121.939 224.633L116.547 232.065L115.818 231.522Z" fill="#E2F2D9"/>
<path d="M113.857 224.06L122.256 215.662L122.86 216.295L114.473 224.698L113.857 224.06Z" fill="#E2F2D9"/>
<path d="M113.977 215.538L122.318 211.102L122.742 211.944L114.474 216.357L113.977 215.538Z" fill="#E2F2D9"/>
<path d="M138.238 265.003L140.386 255.758L141.262 256.001L139.041 265.184L138.238 265.003Z" fill="#E2F2D9"/>
<path d="M96.0269 32.9322L97.2533 32.418C103.809 47.8285 115.937 47.5233 117.283 47.4046L117.407 48.7665C115.937 48.8852 102.939 49.2186 96.0269 32.9322Z" fill="#E2F2D9"/>
<path d="M92.0361 57.4616C95.5288 53.9297 100.677 46.1029 95.7832 33.162L97.0717 32.6816C102.401 46.8489 96.0262 55.399 93.0195 58.4223L92.0361 57.4616Z" fill="#E2F2D9"/>
<path d="M101.48 45.9476L102.345 45.5859C105.736 54.1078 111.529 56.2834 114.779 56.8259L114.598 57.7301C111.224 57.1254 105.03 54.8028 101.48 45.9476Z" fill="#E2F2D9"/>
<path d="M100.498 62.0249C102.346 58.9394 103.99 53.6218 101.3 45.9476L102.148 45.5859C104.974 53.6218 103.188 59.2446 101.227 62.5053L100.498 62.0249Z" fill="#E2F2D9"/>
<path d="M32.1802 97.8554L32.6662 96.6179C48.2251 102.936 56.5669 94.1144 57.4881 93.0859L58.4658 93.9901C57.4881 95.0808 48.6038 104.507 32.1802 97.8554Z" fill="#E2F2D9"/>
<path d="M32.1816 98.1595L32.6677 96.9219C46.5198 103.178 48.0457 113.626 48.0457 117.978L46.7006 118.04V117.978C46.7006 113.96 45.2369 104.07 32.1816 98.1595Z" fill="#E2F2D9"/>
<path d="M45.2363 103.205L45.598 102.392C53.9963 105.986 59.631 103.415 62.259 101.572L62.8241 102.267C60.0549 104.262 53.9963 106.98 45.2363 103.205Z" fill="#E2F2D9"/>
<path d="M45.0381 103.358L45.4168 102.572C53.1369 106.195 55.7649 111.394 56.72 115.078L55.7931 115.259C55.0245 111.784 52.3965 106.861 45.0381 103.358Z" fill="#E2F2D9"/>
<path d="M32.3618 187.709C47.8642 181.182 47.559 169.06 47.4403 167.738L48.7232 167.619C48.9041 169.128 49.2884 182.029 32.8987 188.918L32.3618 187.709Z" fill="#E2F2D9"/>
<path d="M32.605 187.955C46.881 182.575 55.4036 189.04 58.3311 191.911L57.3647 192.939C53.9229 189.345 46.0615 184.242 33.1645 189.136L32.605 187.955Z" fill="#E2F2D9"/>
<path d="M45.5972 182.621C53.9955 179.388 56.2618 173.41 56.8665 170.268L57.7255 170.386C57.0473 173.777 54.781 179.965 45.8967 183.497L45.5972 182.621Z" fill="#E2F2D9"/>
<path d="M45.5972 182.846C53.6168 180.065 59.1949 181.789 62.4446 183.784L61.9586 184.479C58.8898 182.603 53.5603 180.975 45.8402 183.721L45.5972 182.846Z" fill="#E2F2D9"/>
<path d="M93.083 227.593L93.942 226.508C95.0441 227.536 104.55 236.358 97.7965 252.797L96.5701 252.311C102.826 236.719 94.0607 228.395 93.083 227.593Z" fill="#E2F2D9"/>
<path d="M96.9487 252.309C103.166 238.413 113.672 236.961 118.024 236.961V238.289C112.994 238.289 103.81 240.165 98.1751 252.852L96.9487 252.309Z" fill="#E2F2D9"/>
<path d="M101.48 222.673L102.204 222.107C104.171 224.978 106.934 231.047 103.187 239.75L102.345 239.388C105.951 231.014 103.306 225.362 101.48 222.673Z" fill="#E2F2D9"/>
<path d="M102.526 239.589C106.194 231.887 111.349 229.197 115.016 228.287L115.203 229.163C111.772 230.039 106.872 232.554 103.306 239.979L102.526 239.589Z" fill="#E2F2D9"/>
<path d="M132.124 37.6117L132.542 36.8262C136.334 38.6967 142.771 43.6527 142.952 55.2826H142.104C141.935 44.732 136.594 39.8438 132.124 37.6117Z" fill="#E2F2D9"/>
<path d="M60.6763 74.8038C64.768 73.4476 72.8668 72.4191 81.0729 80.5171L80.4682 81.1783C72.929 73.7471 65.6892 74.1088 61.038 75.6798L60.6763 74.8038Z" fill="#E2F2D9"/>
<path d="M74.0319 66.2074C73.9965 64.4127 74.2621 62.6249 74.8175 60.918L75.6144 61.2231C74.4841 64.9076 73.6533 72.3727 81.3112 80.4368L80.5878 81.0414C75.377 75.5599 74.0319 70.2705 74.0319 66.2074Z" fill="#E2F2D9"/>
<path d="M36.8159 152.422C39.1444 147.833 44.2365 142.21 55.2628 142.092V142.939C44.6604 143.149 39.8226 148.438 37.6185 152.846L36.8159 152.422Z" fill="#E2F2D9"/>
<path d="M36.9565 132.666L37.7534 132.305C39.5845 135.746 44.2528 141.669 55.3412 141.849L55.2791 142.816C43.7554 142.454 38.8611 136.323 36.9565 132.666Z" fill="#E2F2D9"/>
<path d="M73.8506 218.591C73.8506 214.421 75.3144 209.227 80.4686 203.898L81.1299 204.56C73.7828 212.115 74.1501 219.252 75.6139 223.931L74.817 224.293C74.1757 222.461 73.8489 220.533 73.8506 218.591Z" fill="#E2F2D9"/>
<path d="M60.9141 210.191L61.1571 209.344C64.8871 210.474 72.3699 211.339 80.3273 203.727L81.0734 204.388C72.6864 212.248 64.8306 211.44 60.9141 210.191Z" fill="#E2F2D9"/>
<path d="M132.243 247.237C135.73 245.423 141.625 240.772 141.924 229.65H142.772C142.501 241.252 136.284 246.146 132.667 248.022L132.243 247.237Z" fill="#E2F2D9"/>
<path d="M126.048 46.704L126.348 45.4043C126.546 45.4665 142.709 49.637 143.195 70.9359L141.867 70.9924C141.37 50.722 126.676 46.8227 126.048 46.704Z" fill="#E2F2D9"/>
<path d="M62.3833 85.2278C62.5642 85.1035 76.9588 76.6777 92.3368 91.444L91.4269 92.4103C76.7328 78.3335 63.2367 86.245 63.0558 86.3693L62.3833 85.2278Z" fill="#E2F2D9"/>
<path d="M82.791 72.5364C82.791 66.4954 85.1816 62.5057 85.2382 62.4492L86.3685 63.1726C86.0011 63.7377 78.6427 76.6447 92.6192 91.2075L91.6358 92.2021C84.6787 84.9236 82.791 77.9727 82.791 72.5364Z" fill="#E2F2D9"/>
<path d="M45.354 158.558C45.4162 158.467 49.5871 142.271 70.905 141.848L70.9615 143.147C50.6891 143.662 46.6991 158.739 46.6991 158.92L45.354 158.558Z" fill="#E2F2D9"/>
<path d="M45.354 126.44L46.6991 126.078C46.8178 126.683 50.6891 141.127 70.9615 141.545L70.905 142.941C49.5871 142.455 45.4162 126.564 45.354 126.44Z" fill="#E2F2D9"/>
<path d="M82.7916 212.186C82.7916 206.716 84.5605 199.799 91.4329 192.605L92.3428 193.606C78.3211 208.259 86.2843 221.731 86.3464 221.861L85.2161 222.613C83.5696 219.387 82.7373 215.808 82.7916 212.186Z" fill="#E2F2D9"/>
<path d="M62.3833 199.8L63.0615 198.669C63.6267 198.974 76.5971 206.468 91.2404 192.453L92.0995 193.391C76.7215 208.135 62.5642 199.89 62.3833 199.8Z" fill="#E2F2D9"/>
<path d="M141.867 214.057H143.195C143.557 234.299 158.211 238.17 158.906 238.288L158.607 239.65C158.324 239.588 142.228 235.389 141.867 214.057Z" fill="#E2F2D9"/>
<path d="M126.049 238.288C126.665 238.17 141.082 234.299 141.5 214.057H142.834C142.41 235.389 126.546 239.588 126.411 239.65L126.049 238.288Z" fill="#E2F2D9"/>
<path d="M78.3833 50.3856C78.4117 43.4409 81.1895 36.7902 86.1091 31.888C91.0287 26.9858 97.6897 24.2312 104.635 24.2268C108.649 24.2103 112.612 25.1334 116.206 26.9222C119.799 28.711 122.925 31.316 125.331 34.5287L124.105 35.4385C121.849 32.4048 118.911 29.9437 115.53 28.2534C112.148 26.5631 108.416 25.691 104.635 25.7074C98.0847 25.7059 91.8016 28.304 87.1656 32.9311C82.5296 37.5582 79.9197 43.8359 79.9092 50.3856C79.9401 51.5903 80.0401 52.7922 80.2088 53.9854L78.745 54.1605C78.5468 52.9109 78.426 51.6502 78.3833 50.3856Z" fill="#E2F2D9"/>
<path d="M24.4609 104.145C24.4526 100.72 25.1196 97.3258 26.4239 94.1579C27.7282 90.9901 29.6442 88.1103 32.0623 85.6834C34.8899 82.8091 38.3546 80.6411 42.1761 79.355C45.9975 78.0689 50.0682 77.7007 54.0584 78.2805L53.7984 79.7893C50.0407 79.2614 46.2115 79.6208 42.6175 80.8386C39.0236 82.0564 35.7648 84.0988 33.1022 86.8023C30.8139 89.0861 28.9985 91.7987 27.7599 94.7848C26.5212 97.7709 25.8837 100.972 25.8837 104.205C25.8837 107.438 26.5212 110.639 27.7599 113.625C28.9985 116.611 30.8139 119.323 33.1022 121.607C33.9547 122.466 34.8751 123.254 35.8546 123.964L34.9277 125.145C33.9243 124.385 32.9675 123.566 32.0623 122.692C29.6203 120.265 27.6894 117.374 26.3838 114.188C25.0782 111.003 24.4244 107.588 24.4609 104.145Z" fill="#E2F2D9"/>
<path d="M24.206 180.398C24.1814 176.373 25.1055 172.399 26.9033 168.798C28.7012 165.196 31.3222 162.069 34.5541 159.67L35.4188 160.913C29.3434 165.321 25.732 172.662 25.6755 180.398C25.6963 186.947 28.3042 193.222 32.9311 197.857C37.5581 202.492 43.8292 205.111 50.3787 205.144L54.0013 204.782L54.1822 206.263C52.9238 206.46 51.6523 206.56 50.3787 206.563C46.9404 206.569 43.5348 205.896 40.3571 204.583C37.1794 203.27 34.292 201.343 31.8605 198.913C29.4291 196.482 27.5013 193.595 26.1878 190.418C24.8743 187.241 24.2008 183.836 24.206 180.398Z" fill="#E2F2D9"/>
<path d="M77.9419 234.607C77.9531 233.382 78.0589 232.16 78.2584 230.951L79.7278 231.194C79.1865 234.949 79.5363 238.779 80.7487 242.374C81.9612 245.969 84.0025 249.228 86.7076 251.888C88.9923 254.186 91.7089 256.01 94.7011 257.255C97.6933 258.499 100.902 259.14 104.143 259.14C107.384 259.14 110.592 258.499 113.584 257.255C116.577 256.01 119.293 254.186 121.578 251.888C122.458 251.038 123.256 250.107 123.963 249.108L125.127 250.012C124.367 251.062 123.529 252.052 122.618 252.973C118.961 256.61 114.311 259.087 109.252 260.093C104.193 261.099 98.9497 260.589 94.1791 258.628C89.4085 256.667 85.3229 253.341 82.4345 249.068C79.546 244.795 77.9832 239.765 77.9419 234.607Z" fill="#E2F2D9"/>
<path d="M80.3325 54.341C80.8681 47.6761 83.8882 41.4554 88.7943 36.9119C93.7005 32.3684 100.135 29.8336 106.822 29.8097C113.105 29.7503 119.182 32.0513 123.85 36.2576L123.166 37.0148C118.658 33.0291 112.839 30.8459 106.822 30.8834C100.4 30.9003 94.2189 33.3233 89.497 37.6744C84.7751 42.0255 81.856 47.9884 81.3159 54.3862L80.3325 54.341Z" fill="#E2F2D9"/>
<path d="M29.7957 106.896C29.7806 103.395 30.4664 99.9265 31.8126 96.6946C33.1589 93.4628 35.1384 90.533 37.6345 88.0779C42.0001 83.562 47.9057 80.8546 54.1767 80.4941L54.3011 81.517C48.2538 81.9122 42.5604 84.5073 38.2957 88.8125C33.77 93.3756 31.1213 99.4704 30.8733 105.892C30.6253 112.314 32.796 118.595 36.9563 123.493L36.1537 124.222C32.0421 119.386 29.788 113.243 29.7957 106.896Z" fill="#E2F2D9"/>
<path d="M29.7955 178.194C29.7766 171.928 32.0363 165.868 36.1536 161.145L37.0126 161.811C33.0283 166.163 30.9541 172.023 30.8976 178.199C30.9155 184.619 33.3423 190.798 37.698 195.515C42.0537 200.231 48.0211 203.141 54.4196 203.669L54.3575 204.697C47.6915 204.148 41.473 201.123 36.9268 196.217C32.3807 191.312 29.8365 184.882 29.7955 178.194Z" fill="#E2F2D9"/>
<path d="M80.4683 230.832L81.5703 230.736C81.8979 236.783 84.4811 242.488 88.81 246.723C93.3941 251.238 99.5012 253.874 105.931 254.115C112.361 254.355 118.648 252.182 123.556 248.023L124.161 248.808C119.053 253.148 112.503 255.413 105.805 255.156C99.1073 254.899 92.75 252.137 87.9906 247.418C83.5607 242.98 80.8884 237.088 80.4683 230.832Z" fill="#E2F2D9"/>
<path d="M80.3325 54.341C80.8681 47.6761 83.8882 41.4554 88.7943 36.9119C93.7005 32.3684 100.135 29.8336 106.822 29.8097C113.105 29.7503 119.182 32.0513 123.85 36.2576L123.166 37.0148C118.658 33.0291 112.839 30.8459 106.822 30.8834C100.4 30.9003 94.2189 33.3233 89.497 37.6744C84.7751 42.0255 81.856 47.9884 81.3159 54.3862L80.3325 54.341Z" fill="#E2F2D9"/>
<path d="M115.141 27.7809L116.062 27.2949C117.227 29.3519 118.447 31.4372 119.674 33.3698L118.69 33.9349C117.526 31.991 116.243 29.8153 115.141 27.7809Z" fill="#E2F2D9"/>
<path d="M110.666 25.709C111.169 26.4323 111.53 27.2235 112.016 28.0033C112.785 29.146 113.48 30.3371 114.096 31.5692" fill="#E2F2D9"/>
<path d="M106.075 25.4089L106.996 24.8438C107.855 26.3865 108.765 27.8332 109.624 29.3646C109.721 29.5671 109.842 29.7568 109.986 29.9297C109.986 30.1106 110.183 30.2914 110.183 30.4948L109.324 30.9808C109.262 30.8565 109.138 30.6757 109.019 30.4948C108.901 30.314 108.765 30.1332 108.765 29.9297C107.855 28.3983 106.996 26.8894 106.075 25.4089Z" fill="#E2F2D9"/>
<path d="M102.374 25.4089L103.216 24.8438C103.956 26.0531 104.759 27.415 105.42 28.6526C105.779 29.155 106.089 29.6905 106.347 30.2518L105.42 30.8169C105.169 30.2684 104.888 29.7345 104.578 29.2177C103.809 27.884 103.069 26.556 102.374 25.4089Z" fill="#E2F2D9"/>
<path d="M98.5981 25.8249L99.5137 25.2598C100.079 26.39 100.74 27.5202 101.362 28.6504L102.492 30.4927L101.571 31.0069L100.525 29.1364C99.8189 28.0005 99.1577 26.9155 98.5981 25.8249Z" fill="#E2F2D9"/>
<path d="M98.7171 31.6929C97.6772 30.0597 96.7503 28.3023 95.7104 26.6465L98.7171 31.6929Z" fill="#E2F2D9"/>
<path d="M92.2798 28.2154L93.201 27.7012C93.9413 29.1196 94.9247 30.6002 95.7838 31.9904L96.2076 32.6233L95.2864 33.1375L94.9247 32.5329C94.0035 31.1709 93.0823 29.696 92.2798 28.2154Z" fill="#E2F2D9"/>
<path d="M92.5968 34.5273C91.6756 32.8998 90.6357 31.2667 89.771 29.7578L92.5968 34.5273Z" fill="#E2F2D9"/>
<path d="M89.8957 36.643C89.147 35.0118 88.2463 33.4546 87.2056 31.9922L89.8957 36.643Z" fill="#E2F2D9"/>
<path d="M87.6796 38.9973C86.7019 37.5224 85.8542 36.0418 84.9951 34.5273L87.6796 38.9973Z" fill="#E2F2D9"/>
<path d="M85.3003 41.8691C84.4978 40.3885 83.6557 38.8797 82.791 37.5234L85.3003 41.8691Z" fill="#E2F2D9"/>
<path d="M80.9492 40.9941C81.6896 42.1752 82.4752 43.5371 83.159 44.8651C83.159 44.8651 83.159 44.9838 83.3399 44.9838" fill="#E2F2D9"/>
<path d="M79.603 45.3418C79.8746 45.6981 80.1166 46.0761 80.3264 46.472C80.8294 47.4101 81.4568 48.1673 81.8128 49.0433" fill="#E2F2D9"/>
<path d="M80.8297 53.9291C80.3267 53.0531 79.7842 52.0529 79.106 51.1035L80.8297 53.9291Z" fill="#E2F2D9"/>
<path d="M29.7957 106.896C29.7806 103.395 30.4664 99.9265 31.8126 96.6946C33.1589 93.4628 35.1384 90.533 37.6345 88.0779C42.0001 83.562 47.9057 80.8546 54.1767 80.4941L54.3011 81.517C48.2538 81.9122 42.5604 84.5073 38.2957 88.8125C33.77 93.3756 31.1213 99.4704 30.8733 105.892C30.6253 112.314 32.796 118.595 36.9563 123.493L36.1537 124.222C32.0421 119.386 29.788 113.243 29.7957 106.896Z" fill="#E2F2D9"/>
<path d="M41.9868 80.6995L42.2864 79.6992C44.6148 80.3321 46.9433 80.9707 49.1474 81.4511L48.9044 82.5135C46.7003 81.9371 44.3153 81.3324 41.9868 80.6995Z" fill="#E2F2D9"/>
<path d="M37.2559 82.9291L37.5158 81.9062C37.9962 81.9967 38.3579 82.1436 38.7988 82.2679C39.2217 82.372 39.65 82.4531 40.0817 82.5109C41.4267 82.8726 42.834 83.1721 44.1282 83.6411L43.7552 84.6414C42.4737 84.2129 41.1653 83.8694 39.8386 83.6129L38.5388 83.2512C38.1771 83.1099 37.6967 83.0534 37.2559 82.9291Z" fill="#E2F2D9"/>
<path d="M33.8867 85.4738L34.1297 84.4453C34.9266 84.6261 35.7291 84.8691 36.5317 85.05C37.4359 85.2308 38.3571 85.5021 39.2218 85.7112L39.5835 85.8016C39.8557 85.8592 40.1224 85.9405 40.3804 86.0446L40.0809 87.0392C39.8536 86.9165 39.5987 86.8543 39.3405 86.8583L38.9788 86.8018C38.0576 86.5588 37.1364 86.2367 36.2717 86.0446C35.407 85.8524 34.6892 85.6829 33.8867 85.4738Z" fill="#E2F2D9"/>
<path d="M31.2593 88.1301L31.4401 87.1016C32.7852 87.4067 34.1303 87.7684 35.5488 88.1301C36.1536 88.3392 36.8939 88.4917 37.5721 88.6952L37.2556 89.6615C36.5887 89.5428 35.9106 89.362 35.2324 89.1812C33.9296 88.7537 32.603 88.4028 31.2593 88.1301Z" fill="#E2F2D9"/>
<path d="M28.9038 91.0734L29.2655 90.0449L32.8599 91.0734C33.5876 91.223 34.3034 91.4251 35.0019 91.6781L34.7024 92.6444C34.0185 92.4353 33.2951 92.2828 32.5547 92.0793C31.317 91.7572 30.0963 91.3899 28.9038 91.0734Z" fill="#E2F2D9"/>
<path d="M33.2203 95.1095C31.3157 94.6574 29.4168 94.0527 27.5122 93.6289L33.2203 95.1095Z" fill="#E2F2D9"/>
<path d="M26.168 97.164L26.411 96.1016C28.2693 96.6803 30.1555 97.1651 32.0626 97.5539L31.8026 98.5824C29.915 98.1586 28.0104 97.6782 26.168 97.164Z" fill="#E2F2D9"/>
<path d="M30.8973 101.457C29.1114 100.892 27.2124 100.457 25.5 100.039L30.8973 101.457Z" fill="#E2F2D9"/>
<path d="M25.1841 103.958L25.3084 102.936C27.0976 103.27 28.86 103.734 30.5814 104.326L30.2762 105.292C28.6098 104.737 26.9088 104.291 25.1841 103.958Z" fill="#E2F2D9"/>
<path d="M30.5987 108.073C28.9032 107.705 27.2077 107.225 25.5122 106.863L30.5987 108.073Z" fill="#E2F2D9"/>
<path d="M30.8981 111.785C29.293 111.271 27.5071 110.853 25.9868 110.52L30.8981 111.785Z" fill="#E2F2D9"/>
<path d="M27.207 114.201C28.5465 114.535 29.9707 114.958 31.4966 115.382C31.4966 115.382 31.5531 115.439 31.6775 115.382" fill="#E2F2D9"/>
<path d="M29.2935 118.201C29.7965 118.325 30.096 118.444 30.6385 118.535C31.5598 118.868 32.5431 118.958 33.4644 119.258" fill="#E2F2D9"/>
<path d="M36.2166 123.509C35.3067 123.204 34.1311 122.87 33.1025 122.633L36.2166 123.509Z" fill="#E2F2D9"/>
<path d="M29.7955 178.194C29.7766 171.928 32.0363 165.868 36.1536 161.145L37.0126 161.811C33.0283 166.163 30.9541 172.023 30.8976 178.199C30.9155 184.619 33.3423 190.798 37.698 195.515C42.0537 200.231 48.0211 203.141 54.4196 203.669L54.3575 204.697C47.6915 204.148 41.473 201.123 36.9268 196.217C32.3807 191.312 29.8365 184.882 29.7955 178.194Z" fill="#E2F2D9"/>
<path d="M27.207 168.977C29.349 167.739 31.4344 166.501 33.339 165.32L33.9042 166.258C31.9374 167.434 29.9481 168.615 27.7835 169.762L27.207 168.977Z" fill="#E2F2D9"/>
<path d="M25.6875 174.267C26.4109 173.871 27.2134 173.391 27.9481 172.905C29.1124 172.244 30.3388 171.515 31.5595 170.854" fill="#E2F2D9"/>
<path d="M25.0664 178.528C26.6093 177.618 28.0731 176.652 29.5877 175.838L30.6276 175.205" fill="#E2F2D9"/>
<path d="M30.458 179.133C28.6156 180.161 26.7901 181.246 25.0664 182.213L30.458 179.133Z" fill="#E2F2D9"/>
<path d="M30.818 183.027C28.9926 184.028 27.2123 185.056 25.562 185.96L30.818 183.027Z" fill="#E2F2D9"/>
<path d="M31.6826 186.264C29.9872 187.287 28.2521 188.196 26.5962 189.281L31.6826 186.264Z" fill="#E2F2D9"/>
<path d="M32.8585 189.283C31.2082 190.25 29.6088 191.368 27.9585 192.182L32.8585 189.283Z" fill="#E2F2D9"/>
<path d="M34.5037 192.361C32.8478 193.299 31.1975 194.3 29.7168 195.187L34.5037 192.361Z" fill="#E2F2D9"/>
<path d="M36.5882 195.055C35.1074 195.84 33.4628 196.807 31.9199 197.835L36.5882 195.055Z" fill="#E2F2D9"/>
<path d="M38.9798 197.314C37.5161 198.253 35.9732 199.066 34.5659 200.004L38.9798 197.314Z" fill="#E2F2D9"/>
<path d="M41.8504 199.676C40.3553 200.445 38.9077 201.304 37.5156 202.247L41.8504 199.676Z" fill="#E2F2D9"/>
<path d="M40.8843 204.028C42.105 203.305 43.4501 202.582 44.7952 201.734C44.811 201.743 44.8284 201.748 44.8463 201.749C44.8642 201.751 44.8822 201.748 44.8992 201.743C44.9162 201.737 44.9318 201.727 44.9451 201.715C44.9583 201.703 44.9688 201.688 44.976 201.672" fill="#E2F2D9"/>
<path d="M45.2363 205.418C45.5952 205.133 45.9859 204.89 46.4006 204.694C47.2469 204.141 48.1243 203.638 49.0286 203.186" fill="#E2F2D9"/>
<path d="M53.922 204.209C52.9305 204.663 51.9843 205.21 51.0962 205.842L53.922 204.209Z" fill="#E2F2D9"/>
<path d="M80.4683 230.832L81.5703 230.736C81.8979 236.783 84.4811 242.488 88.81 246.723C93.3941 251.238 99.5012 253.874 105.931 254.115C112.361 254.355 118.648 252.182 123.556 248.023L124.161 248.808C119.053 253.148 112.503 255.413 105.805 255.156C99.1073 254.899 92.75 252.137 87.9906 247.418C83.5607 242.98 80.8884 237.088 80.4683 230.832Z" fill="#E2F2D9"/>
<path d="M79.665 242.704L79.8459 241.919C80.3263 239.952 80.9479 237.839 81.5075 235.844L82.4739 236.115C81.9935 238.082 81.434 240.167 80.8293 242.156L80.6484 243.004L79.665 242.704Z" fill="#E2F2D9"/>
<path d="M82.4126 247.609C82.6104 246.733 82.7913 245.913 83.0343 245.009C83.3395 243.709 83.656 242.291 84.0742 241.02" fill="#E2F2D9"/>
<path d="M84.939 251.002C85.3007 249.306 85.7246 247.611 86.2219 245.916C86.3462 245.554 86.4649 245.011 86.5271 244.74" fill="#E2F2D9"/>
<path d="M89.0928 247.607C88.6124 249.602 87.9908 251.716 87.5669 253.586L89.0928 247.607Z" fill="#E2F2D9"/>
<path d="M92.0988 250.133C91.5337 252.128 91.0533 254.179 90.5107 255.936L92.0988 250.133Z" fill="#E2F2D9"/>
<path d="M95.106 251.768C94.6087 253.7 94.0039 255.571 93.5801 257.419L95.106 251.768Z" fill="#E2F2D9"/>
<path d="M98.0499 253.006C97.6147 255.001 97.1909 256.871 96.6313 258.657L98.0499 253.006Z" fill="#E2F2D9"/>
<path d="M101.362 254.182C100.865 255.939 100.441 257.81 100.062 259.499L101.362 254.182Z" fill="#E2F2D9"/>
<path d="M104.787 254.545C104.222 256.243 103.774 257.979 103.447 259.738L104.787 254.545Z" fill="#E2F2D9"/>
<path d="M108.099 254.424C107.602 256.176 107.24 257.814 106.816 259.51L108.099 254.424Z" fill="#E2F2D9"/>
<path d="M111.773 254.182C111.224 255.739 110.793 257.335 110.484 258.957L111.773 254.182Z" fill="#E2F2D9"/>
<path d="M114.157 257.807C114.474 256.416 114.898 254.981 115.321 253.484C115.321 253.484 115.44 253.484 115.321 253.303" fill="#E2F2D9"/>
<path d="M118.198 255.698C118.329 255.261 118.431 254.815 118.503 254.365C118.803 253.37 118.939 252.432 119.244 251.539" fill="#E2F2D9"/>
<path d="M123.539 248.805C123.153 249.806 122.845 250.836 122.618 251.885L123.539 248.805Z" fill="#E2F2D9"/>
<path d="M85.6616 13.3169C85.6616 11.0565 86.5263 10.2371 87.1423 9.99409C89.4708 8.93734 92.794 13.0457 94.7438 17.3405C95.7611 19.6188 96.3365 22.0696 96.4392 24.5626C96.4392 26.823 95.6989 27.6142 95.032 27.9193C94.4779 28.104 93.8756 28.0819 93.3365 27.8572C91.4432 27.1338 89.1035 24.2631 87.5153 20.5447C86.3455 17.9395 85.6616 15.2779 85.6616 13.3169ZM95.4107 24.5852C95.2912 22.2412 94.7313 19.9407 93.7604 17.8039C91.6749 13.2152 88.7926 10.3727 87.5436 10.9152C87.0576 11.1582 86.6846 12.0454 86.6846 13.3339C86.6846 15.21 87.3628 17.7135 88.38 20.1604C89.906 23.4832 92.0536 26.3257 93.653 26.9417C93.9372 27.078 94.2628 27.1003 94.5629 27.0038C95.1676 26.7608 95.4107 25.8849 95.4107 24.5852Z" fill="#E2F2D9"/>
<path d="M9.50139 88.614C9.47083 88.3651 9.53765 88.114 9.68788 87.9132C10.5469 85.5567 15.7577 86.1049 20.2281 87.8285C24.6986 89.5521 28.0104 92.2985 28.0104 94.3498C28.0338 94.599 27.993 94.8499 27.8917 95.0788C27.7749 95.3407 27.6059 95.576 27.3951 95.7703C27.1842 95.9647 26.9359 96.1139 26.6653 96.209C24.7607 97.0567 21.0928 96.6611 17.3458 95.1184C12.6889 93.3835 9.50139 90.6653 9.50139 88.614ZM27.0214 94.3498C27.0214 92.9596 24.3312 90.5466 19.7873 88.7948C15.1304 86.9187 11.1008 87.0373 10.5413 88.2806V88.614C10.5413 89.942 13.2314 92.4511 17.7188 94.169C21.1437 95.497 24.6986 95.983 26.1962 95.2596C26.3504 95.2226 26.493 95.148 26.6113 95.0425C26.7297 94.937 26.8201 94.8039 26.8744 94.655C26.9207 94.6184 26.9584 94.5722 26.9848 94.5194C27.0112 94.4667 27.0256 94.4088 27.027 94.3498H27.0214Z" fill="#E2F2D9"/>
<path d="M9.80631 197.082C9.80631 195.025 12.8751 192.244 17.3456 190.25C21.0926 188.707 24.7605 188.136 26.6651 188.859C27.195 189.079 27.6296 189.479 27.8915 189.99C28.0216 190.21 28.0844 190.463 28.0723 190.719C28.0723 192.77 24.9413 195.55 20.5331 197.427C16.7974 199.122 13.1125 199.659 11.1684 198.935C10.8945 198.854 10.6415 198.715 10.4268 198.527C10.2121 198.338 10.0409 198.106 9.92501 197.845C9.83453 197.601 9.79416 197.342 9.80631 197.082ZM27.0268 190.736C27.0418 190.63 27.0219 190.523 26.9703 190.431C26.8459 190.131 26.6086 190.007 26.2299 189.826C24.8226 189.261 21.7538 189.498 17.7807 191.25C13.429 193.12 10.8462 195.692 10.8462 197.082C10.837 197.206 10.8583 197.33 10.9084 197.443C11.0552 197.711 11.2974 197.912 11.5866 198.009C13.1747 198.642 16.7408 198.009 20.1092 196.528C24.4609 194.663 27.0268 192.064 27.0268 190.736Z" fill="#E2F2D9"/>
<path d="M86.3452 271.702C86.4068 269.341 86.8811 267.01 87.7468 264.813C89.2275 261.01 91.4317 258.032 93.3249 257.229C93.5745 257.068 93.8609 256.972 94.1574 256.952C94.4539 256.931 94.7508 256.986 95.0204 257.111C96.0038 257.444 96.5464 258.71 96.5464 260.767C96.4788 263.107 96.0046 265.417 95.1448 267.594C93.6188 271.464 91.409 274.516 89.4931 275.239C89.2395 275.376 88.9597 275.457 88.6723 275.478C88.3849 275.498 88.0964 275.457 87.8259 275.358C86.8256 274.968 86.3452 273.697 86.3452 271.702ZM95.5912 260.767C95.5912 259.315 95.2239 258.292 94.6813 258.105C94.3777 258.006 94.0477 258.029 93.7601 258.168C92.3416 258.733 90.3296 261.191 88.7924 265.175C87.9268 267.246 87.4498 269.458 87.3851 271.702C87.3851 273.154 87.6846 274.12 88.3063 274.363C88.5493 274.516 88.7924 274.516 89.1654 274.239C90.7535 273.635 92.7767 270.769 94.1218 267.232C94.996 265.183 95.4937 262.993 95.5912 260.767Z" fill="#E2F2D9"/>
<path d="M76.5964 35.693C76.5964 18.9206 86.8258 10.1614 87.0236 10.0371L87.6848 10.8565C87.5661 10.9469 72.6854 23.6958 79.2074 47.6281L78.241 47.9276C77.1383 43.9433 76.585 39.827 76.5964 35.693Z" fill="#E2F2D9"/>
<path d="M87.3237 9.93724C87.5667 9.88073 107.54 7.9424 120.713 29.8799L119.792 30.445C107.059 9.08391 87.6289 10.9883 87.4481 10.9883L87.3237 9.93724Z" fill="#E2F2D9"/>
<path d="M9.5625 89.0321V88.0996L10.6928 88.1279C10.6928 88.3709 9.16689 107.856 30.79 120.096L30.2248 121.028C10.8454 110.031 9.5625 93.2647 9.5625 89.0321Z" fill="#E2F2D9"/>
<path d="M9.68799 87.793C9.80667 87.6404 22.6189 72.0548 47.4408 78.2766L47.1243 79.3051C23.0993 73.2302 10.6657 88.279 10.4849 88.4316L9.68799 87.793Z" fill="#E2F2D9"/>
<path d="M10.0039 197.985L10.846 197.318C10.9082 197.443 23.6582 212.249 47.6832 205.659L47.9206 206.716C23.3587 213.452 10.1226 198.138 10.0039 197.985Z" fill="#E2F2D9"/>
<path d="M9.86816 196.262C9.86816 191.368 11.2867 175.387 29.7957 164.266L30.3609 165.232C12.4114 175.969 10.9307 191.549 10.9307 196.205V197.562L9.94728 197.68C9.94728 197.68 9.86816 197.081 9.86816 196.262Z" fill="#E2F2D9"/>
<path d="M87.9902 275.42L88.1259 274.364C88.3067 274.364 107.782 275.816 120.108 254.24L121.018 254.805C108.398 276.991 88.2446 275.42 87.9902 275.42Z" fill="#E2F2D9"/>
<path d="M76.7212 248.924C76.7679 245.099 77.2841 241.293 78.2584 237.594L79.2249 237.837C73.1098 262.006 88.307 274.365 88.4257 274.518L87.7475 275.298C87.6797 275.179 76.7212 266.256 76.7212 248.924Z" fill="#E2F2D9"/>
<path d="M123.239 10.8446L124.403 10.1777L132.909 25.5882L131.807 26.2551L123.239 10.8446Z" fill="#E2F2D9"/>
<path d="M141.388 16.2808L141.506 0L143.439 0.0282657L143.321 16.3429L141.388 16.2808Z" fill="#E2F2D9"/>
<path d="M126.291 10.4776C126.299 11.1346 126.045 11.7677 125.587 12.2381C125.128 12.7085 124.501 12.9777 123.844 12.9867C123.513 12.9944 123.183 12.9348 122.875 12.8114C122.567 12.6881 122.287 12.5035 122.053 12.269C121.818 12.0344 121.634 11.7547 121.51 11.4468C121.387 11.1389 121.327 10.8092 121.335 10.4776C121.32 10.1452 121.375 9.81337 121.497 9.50369C121.619 9.19401 121.804 8.91336 122.041 8.67997C122.278 8.44657 122.562 8.26563 122.873 8.1489C123.185 8.03217 123.518 7.98226 123.85 8.0024C124.5 8.01131 125.121 8.27602 125.578 8.73924C126.035 9.20246 126.291 9.82695 126.291 10.4776Z" fill="#E2F2D9"/>
<path d="M35.7305 62.9931L36.0978 61.6934L53.0753 66.5307L52.6401 67.8587L35.7305 62.9931Z" fill="#E2F2D9"/>
<path d="M61.7788 36.0423L63.0617 35.6523L68.0182 52.8712L66.7353 53.2611L61.7788 36.0423Z" fill="#E2F2D9"/>
<path d="M41.0645 42.3866L42.4095 41.0586L53.7975 52.7168L52.4581 54.0448L41.0645 42.3866Z" fill="#E2F2D9"/>
<path d="M37.6975 60.5566C37.9317 60.7907 38.1174 61.0687 38.2442 61.3746C38.3709 61.6805 38.4361 62.0084 38.4361 62.3395C38.4361 62.6706 38.3709 62.9985 38.2442 63.3044C38.1174 63.6103 37.9317 63.8883 37.6975 64.1224C37.4634 64.3565 37.1854 64.5422 36.8795 64.669C36.5735 64.7957 36.2456 64.8609 35.9145 64.8609C35.5833 64.8609 35.2554 64.7957 34.9495 64.669C34.6435 64.5422 34.3655 64.3565 34.1314 64.1224C33.6792 63.6388 33.4277 63.0015 33.4277 62.3395C33.4277 61.6775 33.6792 61.0402 34.1314 60.5566C34.6187 60.1118 35.2547 59.8652 35.9145 59.8652C36.5742 59.8652 37.2102 60.1118 37.6975 60.5566Z" fill="#E2F2D9"/>
<path d="M64.2245 34.1045C64.4579 34.3362 64.6431 34.6117 64.7696 34.9153C64.896 35.2189 64.9611 35.5445 64.9611 35.8733C64.9611 36.2021 64.896 36.5277 64.7696 36.8313C64.6431 37.1349 64.4579 37.4104 64.2245 37.6421C63.7447 38.1193 63.0955 38.3873 62.4188 38.3873C61.742 38.3873 61.0928 38.1193 60.6131 37.6421C60.3766 37.4103 60.1898 37.1327 60.0642 36.8262C59.9386 36.5198 59.8769 36.191 59.8827 35.8599C59.8885 35.5288 59.9618 35.2024 60.0981 34.9006C60.2344 34.5987 60.4307 34.3279 60.6753 34.1045C61.1494 33.6406 61.7865 33.3809 62.4498 33.3809C63.1132 33.3809 63.7503 33.6406 64.2245 34.1045Z" fill="#E2F2D9"/>
<path d="M10.123 160.614L25.5011 152.092L26.1058 153.211L10.7899 161.727L10.123 160.614Z" fill="#E2F2D9"/>
<path d="M10.123 124.324L10.7899 123.148L26.411 131.789L25.8684 132.97L10.123 124.324Z" fill="#E2F2D9"/>
<path d="M0.000488281 143.515V141.549L16.3054 141.668L16.2432 143.662L0.000488281 143.515Z" fill="#E2F2D9"/>
<path d="M10.4213 158.679C10.7481 158.67 11.0733 158.726 11.3778 158.845C11.6823 158.964 11.9597 159.143 12.1938 159.371C12.4278 159.599 12.6136 159.872 12.7402 160.174C12.8667 160.475 12.9315 160.799 12.9306 161.126C12.9373 161.616 12.7982 162.098 12.5309 162.51C12.2636 162.922 11.8802 163.245 11.4291 163.439C10.9781 163.632 10.4797 163.688 9.99697 163.599C9.51429 163.509 9.06903 163.278 8.71757 162.935C8.3661 162.593 8.12423 162.153 8.02255 161.673C7.92087 161.193 7.96396 160.693 8.14637 160.238C8.32878 159.782 8.64231 159.39 9.04727 159.113C9.45223 158.835 9.93041 158.684 10.4213 158.679Z" fill="#E2F2D9"/>
<path d="M10.4219 121.182C11.0874 121.182 11.7257 121.446 12.1963 121.917C12.6669 122.387 12.9312 123.025 12.9312 123.691C12.9312 124.356 12.6669 124.994 12.1963 125.465C11.7257 125.935 11.0874 126.2 10.4219 126.2C9.7564 126.2 9.11815 125.935 8.64756 125.465C8.17697 124.994 7.9126 124.356 7.9126 123.691C7.9126 123.025 8.17697 122.387 8.64756 121.917C9.11815 121.446 9.7564 121.182 10.4219 121.182Z" fill="#E2F2D9"/>
<path d="M61.7168 248.925L66.5546 232.006L67.8375 232.373L63.0054 249.292L61.7168 248.925Z" fill="#E2F2D9"/>
<path d="M35.6729 221.973L52.8198 216.961L53.1929 218.227L36.0345 223.245L35.6729 221.973Z" fill="#E2F2D9"/>
<path d="M41.0645 242.64L52.6389 231.129L54.0575 232.553L42.4095 243.912L41.0645 242.64Z" fill="#E2F2D9"/>
<path d="M60.551 247.289C61.0359 246.84 61.6727 246.59 62.334 246.59C62.9953 246.59 63.6322 246.84 64.1171 247.289C64.3674 247.515 64.5696 247.788 64.7114 248.094C64.8532 248.399 64.9317 248.73 64.9423 249.067C64.9529 249.404 64.8952 249.739 64.7728 250.053C64.6505 250.367 64.4659 250.653 64.2302 250.893C63.9945 251.134 63.7125 251.324 63.4013 251.453C63.0901 251.582 62.756 251.647 62.4192 251.643C62.0824 251.639 61.7497 251.568 61.4413 251.432C61.1329 251.297 60.855 251.101 60.6244 250.855C60.3805 250.629 60.1846 250.356 60.0484 250.052C59.9122 249.748 59.8384 249.42 59.8316 249.088C59.8247 248.755 59.8849 248.424 60.0085 248.115C60.1321 247.806 60.3165 247.526 60.551 247.289Z" fill="#E2F2D9"/>
<path d="M33.9897 220.825C34.2249 220.582 34.5067 220.388 34.8184 220.255C35.1301 220.123 35.4652 220.055 35.8039 220.055C36.1426 220.055 36.4778 220.123 36.7895 220.255C37.1011 220.388 37.383 220.582 37.6181 220.825C38.073 221.301 38.327 221.933 38.327 222.591C38.327 223.249 38.073 223.882 37.6181 224.357C37.1487 224.834 36.5097 225.105 35.8408 225.112C35.1719 225.119 34.5273 224.861 34.048 224.395C33.5687 223.928 33.2935 223.291 33.2826 222.622C33.2716 221.953 33.5259 221.307 33.9897 220.825Z" fill="#E2F2D9"/>
<path d="M123.104 274.245L131.746 258.535L132.91 259.196L124.269 274.85L123.104 274.245Z" fill="#E2F2D9"/>
<path d="M141.505 285.001L141.686 268.658L143.557 268.777L143.438 285.001H141.505Z" fill="#E2F2D9"/>
<path d="M121.154 274.521C121.184 273.877 121.462 273.269 121.928 272.824C122.395 272.379 123.015 272.131 123.66 272.131C124.305 272.131 124.925 272.379 125.392 272.824C125.859 273.269 126.136 273.877 126.167 274.521C126.183 274.86 126.13 275.199 126.011 275.517C125.893 275.835 125.71 276.126 125.476 276.372C125.242 276.617 124.96 276.813 124.648 276.946C124.336 277.08 124 277.149 123.66 277.149C123.321 277.149 122.985 277.08 122.672 276.946C122.36 276.813 122.079 276.617 121.844 276.372C121.61 276.126 121.428 275.835 121.309 275.517C121.19 275.199 121.138 274.86 121.154 274.521Z" fill="#E2F2D9"/>
<path d="M83.3955 71.8159L83.5198 70.6348C83.6555 70.6348 98.6549 71.8158 98.6549 85.774H97.4341C97.4341 72.9913 84.0172 71.8159 83.3955 71.8159Z" fill="#E2F2D9"/>
<path d="M85.6001 81.8717C88.2451 81.2105 91.9808 79.9729 94.4901 76.6783C96.2703 74.6835 97.2537 72.0557 97.4346 68.8516L98.5988 68.9702C98.3558 72.4174 97.3102 75.2882 95.3491 77.4469C92.7211 81.0466 88.7311 82.2842 85.9222 83.0075L85.6001 81.8717Z" fill="#E2F2D9"/>
<path d="M49.8872 133.328C50.0681 133.271 61.4617 123.512 71.3238 133.39L70.4817 134.237C61.4391 125.145 51.1701 133.876 50.701 134.266L49.8872 133.328Z" fill="#E2F2D9"/>
<path d="M58.5278 122.268L59.4321 121.482C61.7775 124.082 63.0604 126.924 63.1791 129.823C63.8629 134.237 61.8397 138.04 60.4155 140.487L59.3756 139.854C60.732 137.56 62.6252 133.994 61.9583 129.942C61.8397 127.286 60.6754 124.687 58.5278 122.268Z" fill="#E2F2D9"/>
<path d="M70.5376 201.557C70.5376 201.314 71.764 186.299 85.7235 186.299V187.48C72.9282 187.48 71.764 200.924 71.764 201.608L70.5376 201.557Z" fill="#E2F2D9"/>
<path d="M68.8203 187.501L68.939 186.32C72.3695 186.592 75.2519 187.648 77.4616 189.615C80.9487 192.305 82.2938 196.261 82.9154 199.069L81.8134 199.374C81.1917 196.775 79.9709 193.028 76.6591 190.553C74.6358 188.739 72.0078 187.773 68.8203 187.501Z" fill="#E2F2D9"/>
<path d="M128.937 223.606C128.937 220.43 130.039 216.961 133.407 213.666L134.193 214.48C125.065 223.521 133.887 233.818 134.266 234.298L133.345 235.055C133.345 234.993 128.937 229.89 128.937 223.606Z" fill="#E2F2D9"/>
<path d="M121.516 225.606C124.081 223.25 126.851 221.978 129.716 221.798C134.69 221.131 138.979 223.73 140.386 224.578L139.782 225.606C137.436 224.182 133.949 222.431 129.852 223.007C127.212 223.126 124.703 224.307 122.313 226.448L121.516 225.606Z" fill="#E2F2D9"/>
<path d="M129.535 62.1737C129.535 55.8614 133.83 50.815 133.887 50.7246L134.752 51.5101C134.446 51.9339 125.624 62.2076 134.752 71.3284L133.887 72.1139C130.632 68.825 129.535 65.2874 129.535 62.1737Z" fill="#E2F2D9"/>
<path d="M121.453 59.7626L122.312 58.8867C129.094 65.5324 136.594 62.5091 140.397 60.1526L141.03 61.2093C136.893 63.7805 128.874 67.0412 121.453 59.7626Z" fill="#E2F2D9"/>
<path d="M71.5093 83.7271L72.6848 83.6367C72.747 84.151 73.849 97.6288 86.6443 97.5666V98.8042C72.6848 98.7929 71.5827 83.8063 71.5093 83.7271Z" fill="#E2F2D9"/>
<path d="M69.1191 97.6783C78.6195 97.554 81.7505 90.1793 82.7904 85.7715L83.8924 86.0427C82.7904 90.784 79.4842 98.7633 69.1191 98.882V97.6783Z" fill="#E2F2D9"/>
<path d="M50.6899 151.094L51.4755 150.156C51.9107 150.608 62.2136 159.255 71.2562 150.247L72.1152 151.032C62.2023 160.916 50.7465 151.213 50.6899 151.094Z" fill="#E2F2D9"/>
<path d="M58.8911 162.728C65.5092 155.896 62.5025 148.437 60.174 144.69L61.1574 143.961C63.7289 148.069 66.9729 156.105 59.6936 163.48L58.8911 162.728Z" fill="#E2F2D9"/>
<path d="M83.5767 212.244C84.1418 212.244 97.6153 211.154 97.6153 198.371V198.314H98.836V198.371C98.836 212.244 83.8366 213.448 83.6558 213.476L83.5767 212.244Z" fill="#E2F2D9"/>
<path d="M85.7241 202.247L85.9784 201.066C90.754 202.123 98.7172 205.48 98.8359 215.9H97.6151C97.5529 206.322 90.1945 203.242 85.7241 202.247Z" fill="#E2F2D9"/>
<path d="M107.665 142.497C107.656 135.612 109.689 128.88 113.507 123.151C117.325 117.422 122.757 112.954 129.114 110.312C135.472 107.669 142.471 106.972 149.225 108.308C155.98 109.643 162.186 112.952 167.06 117.815C171.934 122.678 175.256 128.877 176.606 135.627C177.955 142.378 177.273 149.378 174.644 155.741C172.015 162.104 167.558 167.544 161.837 171.374C156.115 175.204 149.386 177.251 142.501 177.256C133.275 177.256 124.425 173.597 117.894 167.08C111.363 160.563 107.684 151.722 107.665 142.497ZM176.552 142.497C176.557 135.764 174.564 129.182 170.828 123.581C167.091 117.981 161.777 113.614 155.559 111.033C149.34 108.452 142.496 107.773 135.891 109.081C129.286 110.389 123.218 113.626 118.453 118.383C113.688 123.139 110.441 129.202 109.121 135.804C107.802 142.406 108.47 149.25 111.041 155.473C113.612 161.695 117.97 167.015 123.565 170.761C129.16 174.507 135.74 176.509 142.473 176.516C151.498 176.506 160.152 172.92 166.539 166.544C172.926 160.168 176.527 151.521 176.552 142.497Z" fill="#E2F2D9"/>
<path d="M104.414 142.498C104.418 134.973 106.654 127.617 110.838 121.362C115.022 115.106 120.967 110.232 127.921 107.354C134.876 104.476 142.527 103.724 149.909 105.193C157.29 106.663 164.07 110.287 169.392 115.608C174.714 120.93 178.339 127.709 179.808 135.09C181.278 142.471 180.526 150.122 177.648 157.075C174.77 164.029 169.894 169.973 163.638 174.157C157.382 178.341 150.026 180.576 142.5 180.581C132.402 180.57 122.721 176.555 115.58 169.415C108.44 162.276 104.424 152.595 104.414 142.498ZM179.727 142.498C179.727 135.119 177.537 127.905 173.436 121.77C169.334 115.634 163.504 110.854 156.684 108.033C149.864 105.213 142.36 104.478 135.122 105.923C127.885 107.368 121.238 110.928 116.025 116.151C110.811 121.375 107.264 128.027 105.833 135.267C104.403 142.507 105.152 150.008 107.986 156.822C110.821 163.636 115.613 169.456 121.757 173.545C127.9 177.635 135.119 179.81 142.5 179.795C152.38 179.776 161.848 175.838 168.828 168.845C175.807 161.853 179.727 152.377 179.727 142.498Z" fill="#E2F2D9"/>
</svg>
