<svg width="107" height="74" viewBox="0 0 107 74" fill="none" xmlns="http://www.w3.org/2000/svg">
<path d="M71.4501 12.1143C71.9329 12.0401 72.258 12.3658 72.5896 12.6141C77.7911 16.5221 82.6418 20.7912 86.8487 25.7955C91.8732 31.7704 93.1285 38.8029 92.8356 46.29C92.7487 48.4826 92.4976 50.6784 92.1822 52.8517C92.0438 53.7964 92.5652 54.2414 93.0867 54.7573C97.0135 58.6524 100.705 62.7571 104.059 67.1585C104.935 68.3096 105.724 69.5284 106.525 70.7311C106.924 71.3276 107.143 71.9757 106.895 72.7141C106.702 73.2945 106.464 73.8298 105.794 73.9717C105.089 74.12 104.706 73.6621 104.372 73.1527C103.374 71.6275 102.415 70.0733 101.375 68.5772C99.0832 65.2657 96.5082 62.1735 93.8559 59.1458C93.077 58.259 92.282 58.0494 91.1683 58.301C85.7704 59.5262 80.7298 61.6092 76.275 64.8885C70.7967 68.9222 64.7841 69.1028 58.4785 67.8259C57.3906 67.6067 57.4581 67.1971 58.147 66.491C61.7938 62.7345 65.769 59.4198 70.4233 56.9693C76.1946 53.9319 82.1879 54.2382 88.2714 55.7311C89.0986 55.9342 89.8936 56.3018 90.7724 56.2631C90.8464 56.3212 90.8754 56.5469 91.0202 56.3244C90.9429 56.2986 90.8625 56.2728 90.7852 56.2502C90.1479 54.8315 88.8636 53.977 87.8046 52.9452C85.9603 51.1492 83.9647 49.5144 82.0881 47.7506C81.2352 46.9478 80.4047 46.8478 79.3136 47.196C72.67 49.3113 66.5737 52.5292 61.5975 57.3723C55.4818 63.3182 48.201 64.8369 40.138 64.2597C39.5489 64.2178 38.2132 64.3951 39.1756 63.0828C43.743 56.8338 48.8995 51.1975 55.8359 47.4927C60.5449 44.9776 65.637 44.581 70.845 44.8519C73.6646 45.0002 76.4489 45.4323 79.2556 45.9321C79.2524 45.3097 78.8629 45.155 78.5797 44.9325C75.3738 42.4078 72.0456 40.0539 68.6273 37.8291C67.7324 37.2455 66.9149 37.1552 65.9042 37.4292C58.9645 39.2962 52.6783 42.4626 47.1195 46.9993C40.9169 52.0617 33.7198 52.7807 26.1525 52.1004C25.2898 52.023 25.2802 51.6844 25.7565 51.104C34.4472 40.4957 44.7859 33.4503 59.3347 35.4462C61.3368 35.7203 63.3453 35.9525 65.4021 36.2104C65.2282 35.4946 64.6199 35.3979 64.1886 35.1464C60.0557 32.7474 55.7812 30.6322 51.4069 28.7104C50.4927 28.3073 49.746 28.288 48.8415 28.762C43.8557 31.377 38.8119 33.8856 33.8389 36.5232C28.1706 39.5284 22.0389 40.6376 15.7558 41.1922C15.6174 41.2051 15.4694 41.1083 15.2022 41.0245C16.1421 39.4348 17.4908 38.2998 18.6849 37.0391C21.1247 34.4595 23.8028 32.1573 26.6417 30.0227C31.531 26.3469 37.0705 25.5182 42.9608 26.0664C43.4082 26.1083 43.8589 26.3695 44.3835 26.0664C39.0018 23.5642 33.6071 22.3228 27.5977 23.4256C22.3028 24.3961 16.9243 25.3215 11.4685 24.9797C7.56732 24.7347 3.7563 23.9898 0 22.9451C0.0772503 22.2454 0.576157 22.1874 0.923784 22.0004C4.51592 20.056 8.24969 18.4567 12.1219 17.1412C17.8609 15.1936 23.5807 15.3097 28.7951 18.2762C34.2251 21.3652 40.0543 23.1354 45.9318 24.9185C47.1484 25.2893 48.3394 25.7472 49.746 25.9051C49.1441 25.3602 48.5422 24.8185 47.9435 24.2704C43.5949 20.2818 38.8022 16.7865 34.724 12.5077C31.4409 9.06397 29.088 4.94961 26.9217 0.732059C26.8316 0.55794 26.8284 0.335455 26.7866 0.145214C26.9378 0.0775009 27.0473 -0.0192302 27.1181 0.00334082C33.002 1.94445 38.6316 4.41758 43.5981 8.19983C48.1785 11.6887 50.1258 16.7091 51.4873 22.0487C51.6998 22.8806 51.9959 23.7287 51.9895 24.567C51.9734 26.7919 53.1547 27.7947 55.1213 28.5718C60.0139 30.5032 64.5394 33.2052 69.1873 35.6494C69.2646 35.7074 69.3933 35.8299 69.4126 35.8138C69.6154 35.659 69.4287 35.572 69.3322 35.472C65.9943 30.9965 62.3603 26.7596 58.7843 22.4808C54.5709 17.4378 52.3081 11.4629 50.158 5.1334C50.6408 5.25593 50.85 5.26883 51.0142 5.35911C56.4153 8.38362 61.5878 11.7209 65.8495 16.2964C69.5511 20.2689 70.8482 25.2151 71.4276 30.4161C71.64 32.3314 71.6625 34.2725 71.7269 36.204C71.7495 36.8875 71.8621 37.4292 72.5027 37.8355C77.775 41.1728 82.6289 45.0582 87.2864 49.2016C87.4796 49.3725 87.7113 49.4983 87.9656 49.6692C88.1973 49.0372 87.7725 48.6889 87.5407 48.3117C84.5794 43.517 81.5602 38.7577 78.6312 33.9436C74.5433 27.2272 72.5026 19.8207 71.4694 12.0917L71.4501 12.1143Z" fill="#E86851"/>
</svg>
