<svg width="69" height="86" viewBox="0 0 69 86" fill="none" xmlns="http://www.w3.org/2000/svg">
<path opacity="0.8" fill-rule="evenodd" clip-rule="evenodd" d="M-9.68336 55.4234C-13.3847 51.4599 -17.564 46.7583 -20.9993 44.6117C-20.9716 44.6117 -20.9494 44.6117 -20.923 44.6172C-19.9461 44.7211 -18.9692 44.825 -18.0033 45.0064C-17.0264 45.1421 -16.0758 45.3831 -15.1154 45.5922C-13.2211 46.0797 -11.349 46.6752 -9.54756 47.4521C-7.7445 48.2419 -6.0045 49.1683 -4.34275 50.2232C-2.67571 51.284 -1.10289 52.4833 0.428342 53.7533C6.40917 59.0241 12.3304 64.5913 18.9958 69.124C22.3285 71.3855 25.894 73.3285 29.6493 74.7563C33.4213 76.1578 37.3235 77.0995 41.2424 77.9097C37.3457 77.0012 33.4698 75.9556 29.7629 74.4613C26.0672 72.9449 22.5932 70.9299 19.3478 68.6047C16.1079 66.2726 13.0468 63.6828 10.073 61.0003C9.31782 60.3439 8.5917 59.6487 7.84756 58.9756C7.10896 58.2971 6.3773 57.6171 5.64979 56.9233C4.19477 55.555 2.76191 54.1369 1.22098 52.8116C-0.31045 51.4694 -1.92578 50.2261 -3.61524 49.089C-5.32084 47.9645 -7.10942 46.971 -8.96556 46.1171C-10.828 45.2737 -12.7708 44.6172 -14.7357 44.0702C-15.7293 43.8403 -16.7173 43.5717 -17.7262 43.4138C-18.7253 43.2047 -19.7341 43.0786 -20.7443 42.9526C-21.7531 42.8155 -22.7744 42.7726 -23.7832 42.6853L-24.3209 42.6687C-26.5519 41.4528 -28 40.8407 -28 40.8407C-28 40.8407 15.185 41.5304 27.6677 43.3916C47.6957 46.3802 63.0982 60.8369 63.5762 61.2856C63.0607 60.9186 46.4416 49.0184 32.5469 47.1626C18.6909 45.3124 0.232946 46.2874 0.232946 46.2874C0.232946 46.2874 9.83331 47.1571 26.2515 55.85C44.1344 65.3198 55.9117 85.7647 55.9117 85.7647C55.9117 85.7647 27.9656 88.5012 9.01989 75.3103C0.745671 69.5492 -1.66135 64.0166 -9.68336 55.4234ZM55.8771 44.566C55.8738 43.7486 56.1954 42.9634 56.7713 42.383C57.3471 41.8026 58.13 41.4745 58.9479 41.4708C59.3528 41.4726 59.7534 41.5541 60.1267 41.7107C60.5001 41.8672 60.839 42.0957 61.124 42.3831C61.409 42.6705 61.6346 43.0112 61.7879 43.3858C61.9412 43.7603 62.0191 44.1613 62.0173 44.566C62.0173 46.2763 60.6426 47.6626 58.9479 47.6626C58.5428 47.6608 58.142 47.5792 57.7685 47.4226C57.3949 47.266 57.0559 47.0374 56.7708 46.7499C56.4856 46.4623 56.2599 46.1215 56.1066 45.7468C55.9533 45.3721 55.8753 44.9708 55.8771 44.566ZM65.641 40.554C65.6391 40.1069 65.815 39.6773 66.1299 39.3597C66.4449 39.0421 66.8731 38.8625 67.3205 38.8603C68.2475 38.8603 69 39.6192 69 40.554C69 41.4888 68.2475 42.2477 67.3205 42.2477C66.3934 42.2477 65.641 41.4888 65.641 40.554ZM45.7737 43.7725C42.078 43.7725 39.082 40.7507 39.082 37.0226C39.082 33.2959 42.078 30.2741 45.7737 30.2741C49.4695 30.2741 52.4654 33.2959 52.4654 37.0226C52.4654 40.7507 49.4695 43.7725 45.7737 43.7725ZM36.9868 28.6053C36.6999 28.8463 27.4349 36.614 12.4773 38.5903C4.51488 39.6414 -13.3943 40.1067 -22.4862 40.2826C-21.9827 40.2081 -21.4814 40.1204 -20.9826 40.0195C-19.9724 39.8602 -18.9858 39.5915 -17.9922 39.3561C-16.0273 38.8146 -14.0845 38.1582 -12.222 37.3093C-10.3674 36.4559 -8.58064 35.4623 -6.87725 34.3373C-5.1728 33.21 -3.57644 31.9456 -2.04105 30.6203C-0.494562 29.2894 0.938292 27.8782 2.39332 26.51C3.11786 25.8173 3.85049 25.1331 4.59109 24.4576C5.33522 23.7832 6.05581 23.088 6.81103 22.4315C9.79036 19.749 12.8514 17.1607 16.0913 14.823C19.3367 12.4964 22.8107 10.487 26.5065 8.96498C30.2133 7.47763 34.0892 6.43066 37.9859 5.51664C34.067 6.32679 30.1593 7.26851 26.3928 8.67C22.632 10.1047 19.072 12.0422 15.7338 14.3023C9.07394 18.8405 3.14715 24.4077 -2.83368 29.673C-4.35937 30.943 -5.93773 32.1478 -7.59922 33.2045C-9.26135 34.2583 -11.0013 35.1843 -12.804 35.9742C-14.6055 36.7567 -16.4776 37.348 -18.3775 37.841C-19.3378 38.0488 -20.2884 38.2842 -21.2598 38.4213C-22.2256 38.6013 -23.2026 38.7052 -24.1795 38.8146C-24.2557 38.8257 -24.3306 38.8312 -24.4068 38.8368C-21.0741 37.2552 -15.7695 33.5604 -12.6682 29.0111C-7.19874 20.9885 -2.08538 13.1155 5.98098 7.51502C22.6971 -4.07917 45.7737 1.1986 45.7737 1.1986C45.7737 1.1986 38.1674 16.6954 19.9228 27.2703C7.3875 34.5367 -2.74637 35.6017 -2.74637 35.6017C-2.74637 35.6017 4.65621 37.1071 16.7758 35.8537C25.9688 34.9065 36.65 28.7978 36.9868 28.6053Z" fill="#E86851"/>
</svg>
