<svg width="290" height="291" viewBox="0 0 290 291" fill="none" xmlns="http://www.w3.org/2000/svg">
<g opacity="0.8">
<path d="M142.665 0.0176544C142.665 -81.1603 208.765 -147.202 289.943 -147.202C371.12 -147.202 437.22 -81.1258 437.22 0.0176544C437.22 81.1611 371.109 147.237 290 147.237C208.891 147.237 142.665 81.2186 142.665 0.0176544ZM433.459 0.0176544C433.441 -38.0275 418.321 -74.5098 391.423 -101.415C364.524 -128.32 328.045 -143.448 290 -143.476C210.95 -143.476 146.346 -79.2165 146.346 0.0521545C146.346 79.3208 210.892 143.695 290 143.695C369.108 143.695 433.459 79.2518 433.459 0.0176544Z" fill="#E86851"/>
<path d="M192.536 0.0184174C192.531 -19.2591 198.244 -38.1051 208.95 -54.136C219.657 -70.1669 234.877 -82.6627 252.686 -90.0431C270.495 -97.4234 290.093 -99.3568 309 -95.5988C327.908 -91.8407 345.277 -82.5599 358.91 -68.9303C372.542 -55.3006 381.827 -37.9342 385.59 -19.0274C389.352 -0.120552 387.424 19.4774 380.047 37.288C372.671 55.0986 360.179 70.3217 344.151 81.0322C328.122 91.7428 309.278 97.4595 290 97.4595C264.162 97.4382 239.387 87.166 221.114 68.8976C202.841 50.6291 192.563 25.857 192.536 0.0184174ZM384.612 0.0184174C384.594 -18.6956 379.027 -36.9841 368.617 -52.5351C358.206 -68.0861 343.418 -80.2013 326.123 -87.3492C308.828 -94.4971 289.802 -96.3568 271.45 -92.693C253.098 -89.0293 236.244 -80.0066 223.02 -66.7658C209.795 -53.5249 200.793 -36.6603 197.151 -18.304C193.51 0.0523834 195.393 19.0762 202.561 36.3627C209.73 53.6492 221.864 68.4221 237.427 78.8139C252.991 89.2057 271.286 94.7497 290 94.7451C315.091 94.6843 339.134 84.6799 356.862 66.9241C374.59 49.1683 384.556 25.1091 384.577 0.0184174H384.612Z" fill="#E86851"/>
<path d="M202.036 0.0173492C202.045 -17.3672 207.208 -34.3589 216.872 -48.8099C226.536 -63.2608 240.267 -74.5223 256.33 -81.1709C272.393 -87.8195 290.067 -89.5567 307.117 -86.1629C324.167 -82.7691 339.828 -74.3967 352.121 -62.1039C364.414 -49.8112 372.786 -34.1499 376.18 -17.0998C379.574 -0.049736 377.837 17.6238 371.188 33.6868C364.54 49.7498 353.278 63.4812 338.827 73.1452C324.376 82.8092 307.384 87.9721 290 87.9812C266.678 87.9568 244.318 78.6814 227.827 62.1903C211.336 45.6992 202.06 23.3393 202.036 0.0173492ZM375.226 0.0173492C375.219 -16.8374 370.215 -33.3116 360.846 -47.3225C351.477 -61.3334 338.164 -72.2517 322.591 -78.697C307.017 -85.1423 289.882 -86.8252 273.352 -83.5328C256.822 -80.2404 241.639 -72.1207 229.723 -60.2002C217.808 -48.2797 209.694 -33.0937 206.408 -16.5623C203.123 -0.0309448 204.813 17.1034 211.264 32.6745C217.716 48.2456 228.639 61.5542 242.654 70.9175C256.669 80.2807 273.145 85.2783 290 85.2783C312.596 85.2357 334.254 76.2381 350.229 60.2569C366.204 44.2755 375.193 22.6137 375.226 0.0173492Z" fill="#E86851"/>
<path d="M144.414 1.59313V-1.17871L193.801 -1.05221V1.59313H144.414Z" fill="#E86851"/>
<path d="M145.402 17.028L194.284 11.1162L194.779 13.7041L145.805 19.7884L145.402 17.028Z" fill="#E86851"/>
<path d="M148.658 34.9818L196.539 22.7441L197.183 25.631L149.394 37.6846L148.658 34.9818Z" fill="#E86851"/>
<path d="M154.132 52.4418L200.161 34.3613L201.151 37.0067L155.271 54.9606L154.132 52.4418Z" fill="#E86851"/>
<path d="M161.758 69.0507L205.015 45.3115L206.28 47.6464L163.241 71.5121L161.758 69.0507Z" fill="#E86851"/>
<path d="M171.35 84.5436L211.387 55.5137L213.009 57.86L173.11 86.7634L171.35 84.5436Z" fill="#E86851"/>
<path d="M182.944 98.8042L218.978 65.1162L220.853 67.0829L184.818 100.656L182.944 98.8042Z" fill="#E86851"/>
<path d="M196.159 111.352L227.708 73.4775L229.709 75.1913L198.287 113.02L196.159 111.352Z" fill="#E86851"/>
<path d="M210.892 122.303L237.3 80.6104L239.704 82.1516L213.262 123.776L210.892 122.303Z" fill="#E86851"/>
<path d="M226.73 131.091L247.789 86.5684L250.274 87.868L229.214 132.264L226.73 131.091Z" fill="#E86851"/>
<path d="M243.672 138.037L259.003 91.1914L261.499 92.054L246.432 138.842L243.672 138.037Z" fill="#E86851"/>
<path d="M261.373 142.718L270.723 94.2617L273.369 94.9978L263.995 143.212L261.373 142.718Z" fill="#E86851"/>
<path d="M279.338 145.235L282.593 95.916L285.33 96.1691L282.064 145.361L279.338 145.235Z" fill="#E86851"/>
<path d="M54.7588 0.662838L55.9089 -0.694336L56.438 -0.199778C67.0079 12.5899 104.549 53.4204 144.344 38.6639L149.325 37.0077L149.808 38.6639L145.08 40.2742C104.066 55.5252 65.7773 13.9586 55.0463 0.927386L54.7588 0.662838Z" fill="#E86851"/>
<path d="M54.6323 0.16729L54.7589 -0.074234V-0.315792L55.4949 -1.17841C69.6073 -17.5336 106.504 -53.9475 145.034 -39.7431L149.762 -37.8338L149.152 -36.2351L144.298 -38.0179C106.999 -51.8197 70.6885 -16.0614 57.0017 0.052269L56.5071 0.420326V0.661846L55.9895 1.34044L54.6323 0.16729Z" fill="#E86851"/>
<path d="M123.964 165.099L124.458 164.973L124.711 165.099C141.308 166.629 196.527 168.906 214.239 130.284L216.39 125.614L218.265 126.35L215.999 131.135C197.792 170.608 141.434 168.458 124.585 166.928L124.09 167.054L123.964 165.099Z" fill="#E86851"/>
<path d="M122.837 152.241C122.837 127.271 128.334 88.8445 159.262 74.5825L164.001 72.2822L164.863 74.065L160.125 76.0317C123.849 92.755 123.722 143.672 125.079 164.709L125.194 165.318L125.447 165.571V166.365L123.849 166.606L123.481 166.491V166.238L123.354 166.123V164.973C123.078 161.408 122.837 157.106 122.837 152.241Z" fill="#E86851"/>
<path d="M289.322 234.086L289.816 233.533C302.675 222.895 343.195 185.02 328.553 145.662L326.713 140.808L328.438 140.256L330.256 144.937C345.323 185.583 304.055 224.079 291.081 234.845L290.587 235.397L289.322 234.086Z" fill="#E86851"/>
<path d="M247.042 163.065C246.98 156.942 248.032 150.858 250.147 145.111L252.034 140.131L253.782 140.809L251.907 145.663C238.105 182.928 273.852 219.273 289.862 233.075L290.357 233.558H290.598L291.219 233.995L290 235.444L289.874 235.318H289.632L288.769 234.467C274.968 222.528 247.042 194.556 247.042 163.065Z" fill="#E86851"/>
<path d="M31.8248 1.16901L33.9411 -1.05078L34.1826 -0.797746C34.9302 0.179886 93.5306 75.1125 154.132 52.2129L155.282 54.9733C92.6795 78.8965 34.4472 4.49296 32.0779 1.35304L31.8248 1.16901Z" fill="#E86851"/>
<path d="M31.8248 -0.442276L32.0664 -0.695309C34.4357 -3.76622 92.7945 -78.0432 155.271 -54.3155L154.121 -51.4171C93.7606 -74.4202 36.805 -1.67295 34.2977 1.34045L33.9296 1.70851L31.8248 -0.442276Z" fill="#E86851"/>
<path d="M108.276 180.283H108.77C109.759 180.409 203.773 192.279 230.87 132.747L233.723 134.104C205.659 195.477 109.265 183.423 108.276 183.296V180.283Z" fill="#E86851"/>
<path d="M105.975 162.456C105.975 132.011 112.347 76.7923 156.099 56.7451L157.479 59.448C101.248 85.2804 108.839 171.864 110.093 181.698V182.434H106.964V181.824C106.297 175.39 105.967 168.925 105.975 162.456Z" fill="#E86851"/>
<path d="M288.85 256.906V256.227L289.344 255.744C301.766 245.657 363.265 192.405 341.987 135.829L344.69 134.782C366.773 192.647 305.09 246.819 291.679 257.711C291.247 258.236 290.637 258.584 289.966 258.688V255.617C289.805 255.621 289.647 255.658 289.502 255.727C289.357 255.795 289.227 255.893 289.122 256.014C289.017 256.136 288.939 256.278 288.892 256.431C288.845 256.585 288.831 256.746 288.85 256.906Z" fill="#E86851"/>
<path d="M231.089 159.89C231.062 151.298 232.622 142.774 235.69 134.748L238.554 135.795C217.54 192.279 278.717 245.657 291.15 255.744L291.76 256.227V256.906C291.781 256.737 291.764 256.565 291.71 256.403C291.657 256.241 291.568 256.093 291.45 255.97C291.332 255.847 291.188 255.751 291.029 255.69C290.87 255.629 290.699 255.605 290.529 255.618V258.689C290.216 258.681 289.912 258.586 289.652 258.413C289.391 258.24 289.185 257.996 289.057 257.711C277.452 248.452 231.089 207.714 231.089 159.89Z" fill="#E86851"/>
<path d="M32.814 0.915485V-0.924805H33.55H55.38L55.7481 -0.809747L55.495 0.915485H55.2535H33.55H32.814Z" fill="#E86851"/>
<path d="M49.0081 17.2705L62.8789 8.17285L63.7415 9.70251L50.0317 18.9268L49.0081 17.2705Z" fill="#E86851"/>
<path d="M58.7612 26.2529L72.5976 17.5117L73.4602 19.0529L59.7389 27.7251L58.7612 26.2529Z" fill="#E86851"/>
<path d="M74.1044 37.6847L86.5491 28.334L87.6877 29.9442L75.082 39.2835L74.1044 37.6847Z" fill="#E86851"/>
<path d="M67.215 33.074L79.4526 23.2402L80.5567 24.6549L68.3536 34.4888L67.215 33.074Z" fill="#E86851"/>
<path d="M94.7958 49.3704L107.643 39.042L108.759 40.4567L95.7734 50.7851L94.7958 49.3704Z" fill="#E86851"/>
<path d="M107.769 52.6962L122.836 41.9883L123.849 43.472L108.632 54.2259L107.769 52.6962Z" fill="#E86851"/>
<path d="M122.71 56.8717L139.801 40.1484L141.032 41.5056L123.975 58.1023L122.71 56.8717Z" fill="#E86851"/>
<path d="M139.56 56.8702L148.657 40.2734L150.417 41.3201L141.308 57.7328L139.56 56.8702Z" fill="#E86851"/>
<path d="M40.2784 8.04668L59.003 3.74512L59.4975 5.65441L40.681 9.82948L40.2784 8.04668Z" fill="#E86851"/>
<path d="M107.494 181.212L108.011 180.775L123.722 165.099L124.826 166.513L124.585 166.755L108.759 182.558L107.494 181.212Z" fill="#E86851"/>
<path d="M131.808 182.686L135.189 166.399L136.822 166.756L133.568 183.18L131.808 182.686Z" fill="#E86851"/>
<path d="M145.035 181.95L148.543 166.146L150.291 166.515L146.783 182.444L145.035 181.95Z" fill="#E86851"/>
<path d="M164 179.613L166.128 163.867L168.003 164.109L165.875 179.797L164 179.613Z" fill="#E86851"/>
<path d="M155.892 180.845L157.514 165.341L159.389 165.594L157.767 180.96L155.892 180.845Z" fill="#E86851"/>
<path d="M186.82 173.22L188.694 156.497L190.443 156.796L188.694 173.347L186.82 173.22Z" fill="#E86851"/>
<path d="M198.413 166.272L201.266 148.008L203.14 148.192L200.161 166.514L198.413 166.272Z" fill="#E86851"/>
<path d="M211.755 158.395L212.25 134.667H213.998L213.756 158.395H211.755Z" fill="#E86851"/>
<path d="M118.984 182.193L129.323 165.896L130.83 167.011L120.709 183.182L118.984 182.193Z" fill="#E86851"/>
<path d="M107.494 156.98L123.975 153.909L124.217 155.749L108.011 158.648L107.494 156.98Z" fill="#E86851"/>
<path d="M108.253 143.453L123.975 140.256L124.458 141.981L108.379 145.363L108.253 143.453Z" fill="#E86851"/>
<path d="M110.507 124.396L126.218 122.43L126.586 124.27L110.748 126.237L110.507 124.396Z" fill="#E86851"/>
<path d="M109.242 132.757L124.953 131.089L125.079 132.998L109.368 134.413L109.242 132.757Z" fill="#E86851"/>
<path d="M116.741 101.393L133.315 99.7363L133.568 101.646L116.994 103.175L116.741 101.393Z" fill="#E86851"/>
<path d="M123.481 89.7753L141.929 86.877L142.297 88.7287L123.722 91.5581L123.481 89.7753Z" fill="#E86851"/>
<path d="M107.494 170.206L123.975 159.935L124.953 161.533L108.506 171.747L107.494 170.206Z" fill="#E86851"/>
<path d="M271.989 239.997L281.454 226.345L282.961 227.334L273.495 241.101L271.989 239.997Z" fill="#E86851"/>
<path d="M262.764 230.165L271.735 216.628L273.369 217.491L264.271 231.143L262.764 230.165Z" fill="#E86851"/>
<path d="M251.044 214.786L260.763 202.238L262.143 203.469L252.402 216.144L251.044 214.786Z" fill="#E86851"/>
<path d="M255.909 221.675L265.985 209.495L267.376 210.726L257.382 222.779L255.909 221.675Z" fill="#E86851"/>
<path d="M239.06 194.186L249.791 181.212L251.286 182.443L240.566 195.232L239.06 194.186Z" fill="#E86851"/>
<path d="M235.701 181.213L246.559 166.146L248.157 167.193L237.185 182.318L235.701 181.213Z" fill="#E86851"/>
<path d="M231.71 166.021L248.801 148.93L250.032 150.218L232.964 167.321L231.71 166.021Z" fill="#E86851"/>
<path d="M231.952 148.677L248.928 139.648L249.79 141.362L232.964 150.345L231.952 148.677Z" fill="#E86851"/>
<path d="M281.328 249.35L285.698 230.533L287.481 231.028L282.961 249.718L281.328 249.35Z" fill="#E86851"/>
<path d="M65.8579 92.0296C97.4067 78.7453 96.7856 54.0745 96.544 51.3831L99.1549 51.1416C99.523 54.2125 100.305 80.4706 66.9506 94.4909L65.8579 92.0296Z" fill="#E86851"/>
<path d="M66.3524 92.537C95.4053 81.5875 112.75 94.7453 118.707 100.588L116.741 102.681C109.736 95.3664 93.7376 84.9805 67.4911 94.9409L66.3524 92.537Z" fill="#E86851"/>
<path d="M92.7944 81.6805C109.886 75.1016 114.498 62.9329 115.729 56.5381L117.477 56.7796C116.097 63.6805 111.484 76.2747 93.404 83.4632L92.7944 81.6805Z" fill="#E86851"/>
<path d="M92.7944 82.1397C109.115 76.481 120.467 79.9889 127.081 84.0489L126.091 85.4636C119.846 81.6451 109 78.3327 93.289 83.9224L92.7944 82.1397Z" fill="#E86851"/>
<path d="M189.43 173.208L191.179 171C193.421 173.093 212.767 191.047 199.023 224.505L196.527 223.516C209.259 191.783 191.42 174.842 189.43 173.208Z" fill="#E86851"/>
<path d="M197.298 223.517C209.949 195.234 231.331 192.278 240.187 192.278V194.981C229.951 194.981 211.261 198.8 199.793 224.621L197.298 223.517Z" fill="#E86851"/>
<path d="M206.522 163.189L207.994 162.039C211.996 167.882 217.621 180.235 209.995 197.947L208.281 197.211C215.619 180.166 210.237 168.664 206.522 163.189Z" fill="#E86851"/>
<path d="M208.649 197.628C216.114 181.951 226.603 176.477 234.068 174.625L234.447 176.408C227.466 178.19 217.494 183.309 210.237 198.422L208.649 197.628Z" fill="#E86851"/>
<path d="M74.921 20.2153C79.6597 10.876 90.0226 -0.568038 112.462 -0.80957V0.915662C90.8852 1.34122 81.0399 12.1067 76.5543 21.0779L74.921 20.2153Z" fill="#E86851"/>
<path d="M75.2086 -19.9944L76.8303 -20.7305C80.5568 -13.726 90.0571 -1.67239 112.623 -1.30434L112.497 0.662416C89.045 -0.0736828 79.0846 -12.5529 75.2086 -19.9944Z" fill="#E86851"/>
<path d="M150.291 154.886C150.291 146.398 153.27 135.828 163.759 124.982L165.105 126.328C150.153 141.706 150.9 156.232 153.879 165.755L152.257 166.491C150.952 162.762 150.287 158.838 150.291 154.886Z" fill="#E86851"/>
<path d="M123.964 137.795L124.458 136.07C132.049 138.371 147.277 140.13 163.471 124.638L164.99 125.983C147.921 141.982 131.934 140.337 123.964 137.795Z" fill="#E86851"/>
<path d="M289.195 177.637H290.92C291.173 199.041 301.87 209.001 311.094 213.556L310.105 215.086C302.548 211.152 289.321 201.134 289.195 177.637Z" fill="#E86851"/>
<path d="M269.125 213.188C276.221 209.496 288.217 200.031 288.827 177.396H290.552C290 201.008 277.348 210.969 269.987 214.787L269.125 213.188Z" fill="#E86851"/>
<path d="M92.2999 32.7054C92.4264 32.5213 100.915 -0.442071 144.298 -1.30469L144.413 1.34065C103.157 2.3873 95.0373 33.0734 95.0373 33.4415L92.2999 32.7054Z" fill="#E86851"/>
<path d="M92.2999 -32.6692L95.0373 -33.4053C95.2788 -32.1746 103.157 -2.77666 144.413 -1.92554L144.298 0.91534C100.915 -0.0737953 92.4264 -32.4162 92.2999 -32.6692Z" fill="#E86851"/>
<path d="M168.486 141.855C168.486 130.721 172.086 116.643 186.072 102.002L187.924 104.038C159.389 133.861 175.594 161.281 175.721 161.545L173.42 163.075C170.07 156.51 168.376 149.225 168.486 141.855Z" fill="#E86851"/>
<path d="M126.954 116.644L128.334 114.344C129.484 114.965 155.88 130.216 185.681 101.692L187.429 103.602C156.133 133.609 127.322 116.828 126.954 116.644Z" fill="#E86851"/>
<path d="M288.712 145.661H291.415C292.151 186.86 321.974 194.738 323.389 194.98L322.779 197.752C322.204 197.625 289.448 189.079 288.712 145.661Z" fill="#E86851"/>
<path d="M256.519 194.98C257.773 194.738 287.113 186.86 287.964 145.661H290.679C289.816 189.079 257.531 197.625 257.255 197.752L256.519 194.98Z" fill="#E86851"/>
<path d="M49.2611 77.1593C49.211 68.9675 51.0915 60.879 54.7503 53.5494C58.4091 46.2198 63.7432 39.8553 70.3204 34.9717L72.0802 37.502C59.716 46.4732 52.3665 61.4137 52.2515 77.1593C52.2938 90.4881 57.6011 103.26 67.0174 112.694C76.4337 122.127 89.1961 127.458 102.525 127.525L109.897 126.788L110.265 129.802C107.704 130.202 105.117 130.406 102.525 130.411C95.5277 130.424 88.597 129.055 82.13 126.383C75.663 123.711 69.787 119.789 64.8387 114.842C59.8905 109.895 55.9673 104.02 53.2942 97.5533C50.6211 91.0869 49.2505 84.1565 49.2611 77.1593Z" fill="#E86851"/>
<path d="M158.618 187.492C158.641 184.999 158.856 182.511 159.262 180.051L162.252 180.545C161.151 188.188 161.862 195.982 164.33 203.299C166.798 210.616 170.952 217.249 176.457 222.664C181.106 227.341 186.635 231.053 192.724 233.586C198.814 236.119 205.344 237.423 211.939 237.423C218.534 237.423 225.064 236.119 231.154 233.586C237.243 231.053 242.772 227.341 247.421 222.664C249.211 220.932 250.836 219.038 252.275 217.005L254.644 218.845C253.098 220.982 251.391 222.996 249.538 224.872C242.095 232.274 232.632 237.315 222.337 239.363C212.041 241.41 201.371 240.373 191.662 236.381C181.953 232.39 173.639 225.621 167.761 216.924C161.882 208.227 158.702 197.989 158.618 187.492Z" fill="#E86851"/>
<path d="M60.6361 72.6748C60.5976 59.9215 65.1962 47.5891 73.5753 37.9746L75.3236 39.3318C67.215 48.188 62.9939 60.1151 62.8789 72.6863C62.9153 85.7521 67.8541 98.3284 76.7184 107.927C85.5827 117.527 97.7268 123.449 110.748 124.524L110.622 126.617C97.0561 125.499 84.4008 119.341 75.1489 109.357C65.8971 99.3731 60.7195 86.2863 60.6361 72.6748Z" fill="#E86851"/>
<path d="M163.759 179.8L166.002 179.604C166.668 191.912 171.926 203.522 180.735 212.142C190.064 221.331 202.493 226.697 215.578 227.187C228.663 227.676 241.457 223.253 251.447 214.788L252.677 216.386C242.283 225.219 228.952 229.829 215.322 229.305C201.691 228.781 188.754 223.161 179.068 213.557C170.052 204.525 164.614 192.533 163.759 179.8Z" fill="#E86851"/>
<path d="M60.6361 72.6748C60.5976 59.9215 65.1962 47.5891 73.5753 37.9746L75.3236 39.3318C67.215 48.188 62.9939 60.1151 62.8789 72.6863C62.9153 85.7521 67.8541 98.3284 76.7184 107.927C85.5827 117.527 97.7268 123.449 110.748 124.524L110.622 126.617C97.0561 125.499 84.4008 119.341 75.1489 109.357C65.8971 99.3731 60.7195 86.2863 60.6361 72.6748Z" fill="#E86851"/>
<path d="M55.3684 53.9151C59.7275 51.3963 63.9716 48.8775 67.8476 46.4736L68.9977 48.3829C64.9952 50.7752 60.9466 53.179 56.5416 55.5138L55.3684 53.9151Z" fill="#E86851"/>
<path d="M52.2745 64.6793C53.7467 63.8742 55.38 62.8966 56.8752 61.9075C59.2445 60.5618 61.7403 59.0781 64.2247 57.7324" fill="#E86851"/>
<path d="M51.0095 73.3508C54.1494 71.4991 57.1283 69.5323 60.2108 67.8761L62.327 66.5879" fill="#E86851"/>
<path d="M61.982 74.582C58.2325 76.6753 54.5175 78.8836 51.0095 80.8504L61.982 74.582Z" fill="#E86851"/>
<path d="M62.7179 82.5098C59.0029 84.5455 55.3799 86.6388 52.0215 88.4791L62.7179 82.5098Z" fill="#E86851"/>
<path d="M64.4777 89.0977C61.0273 91.1794 57.4963 93.0311 54.1263 95.2394L64.4777 89.0977Z" fill="#E86851"/>
<path d="M66.8699 95.2383C63.5115 97.205 60.2565 99.4824 56.8981 101.139L66.8699 95.2383Z" fill="#E86851"/>
<path d="M70.217 101.508C66.8471 103.417 63.4886 105.453 60.4752 107.259L70.217 101.508Z" fill="#E86851"/>
<path d="M74.461 106.982C71.4476 108.581 68.1006 110.548 64.9607 112.641L74.461 106.982Z" fill="#E86851"/>
<path d="M79.3261 111.583C76.3472 113.492 73.2073 115.148 70.3434 117.058L79.3261 111.583Z" fill="#E86851"/>
<path d="M85.169 116.391C82.1263 117.957 79.1804 119.704 76.3473 121.624L85.169 116.391Z" fill="#E86851"/>
<path d="M83.202 125.246C85.6864 123.774 88.4237 122.302 91.1611 120.577C91.1933 120.594 91.2287 120.605 91.2651 120.608C91.3016 120.611 91.3383 120.606 91.3728 120.594C91.4074 120.582 91.4392 120.563 91.4661 120.539C91.493 120.514 91.5145 120.484 91.5291 120.45" fill="#E86851"/>
<path d="M92.0583 128.078C92.7887 127.498 93.5837 127.004 94.4277 126.606C96.15 125.481 97.9357 124.455 99.7759 123.535" fill="#E86851"/>
<path d="M109.736 125.614C107.719 126.538 105.793 127.651 103.985 128.938L109.736 125.614Z" fill="#E86851"/>
<path d="M163.759 179.8L166.002 179.604C166.668 191.912 171.926 203.522 180.735 212.142C190.064 221.331 202.493 226.697 215.578 227.187C228.663 227.676 241.457 223.253 251.447 214.788L252.677 216.386C242.283 225.219 228.952 229.829 215.322 229.305C201.691 228.781 188.754 223.161 179.068 213.557C170.052 204.525 164.614 192.533 163.759 179.8Z" fill="#E86851"/>
<path d="M162.126 203.963L162.494 202.364C163.471 198.362 164.737 194.06 165.875 190L167.842 190.552C166.864 194.555 165.726 198.799 164.495 202.847L164.127 204.572L162.126 203.963Z" fill="#E86851"/>
<path d="M167.716 213.947C168.118 212.164 168.486 210.496 168.981 208.656C169.602 206.011 170.246 203.124 171.097 200.536" fill="#E86851"/>
<path d="M172.857 220.848C173.593 217.398 174.455 213.947 175.468 210.497C175.721 209.761 175.962 208.657 176.089 208.104" fill="#E86851"/>
<path d="M181.31 213.946C180.333 218.006 179.068 222.308 178.205 226.115L181.31 213.946Z" fill="#E86851"/>
<path d="M187.429 219.09C186.279 223.15 185.302 227.325 184.197 230.902L187.429 219.09Z" fill="#E86851"/>
<path d="M193.548 222.412C192.536 226.346 191.305 230.153 190.443 233.914L193.548 222.412Z" fill="#E86851"/>
<path d="M199.54 224.933C198.655 228.993 197.792 232.8 196.653 236.434L199.54 224.933Z" fill="#E86851"/>
<path d="M206.28 227.321C205.268 230.898 204.406 234.705 203.635 238.144L206.28 227.321Z" fill="#E86851"/>
<path d="M213.25 228.068C212.101 231.525 211.19 235.057 210.525 238.638L213.25 228.068Z" fill="#E86851"/>
<path d="M219.99 227.819C218.978 231.385 218.242 234.72 217.379 238.171L219.99 227.819Z" fill="#E86851"/>
<path d="M227.466 227.321C226.348 230.49 225.472 233.739 224.844 237.04L227.466 227.321Z" fill="#E86851"/>
<path d="M232.32 234.708C232.964 231.878 233.826 228.957 234.689 225.909C234.689 225.909 234.931 225.909 234.689 225.541" fill="#E86851"/>
<path d="M240.543 230.407C240.81 229.516 241.018 228.61 241.165 227.692C241.774 225.668 242.05 223.759 242.671 221.941" fill="#E86851"/>
<path d="M251.412 216.385C250.627 218.423 250 220.519 249.537 222.653L251.412 216.385Z" fill="#E86851"/>
<path d="M19.9551 111.11C19.9551 106.924 26.2004 101.265 35.2982 97.2048C42.9237 94.0649 50.3882 92.9032 54.2642 94.3754C55.3426 94.8221 56.2271 95.6373 56.7601 96.6757C57.0248 97.1238 57.1528 97.6396 57.1281 98.1595C57.1281 102.335 50.7563 107.993 41.7851 111.812C34.1825 115.262 26.6835 116.355 22.727 114.883C22.1697 114.718 21.6548 114.434 21.2179 114.051C20.781 113.668 20.4326 113.194 20.1967 112.663C20.0125 112.167 19.9304 111.639 19.9551 111.11ZM55.0003 98.194C55.0309 97.9799 54.9905 97.7618 54.8853 97.5729C54.6323 96.9633 54.1492 96.7103 53.3786 96.3422C50.5147 95.1921 44.2694 95.6752 36.1838 99.2406C27.3276 103.048 22.0714 108.281 22.0714 111.11C22.0526 111.362 22.096 111.615 22.1979 111.846C22.4966 112.39 22.9895 112.801 23.5781 112.996C26.81 114.285 34.0675 112.996 40.9224 109.983C49.7786 106.188 55.0003 100.897 55.0003 98.194Z" fill="#E86851"/>
<path d="M175.721 262.99C175.846 258.186 176.811 253.441 178.573 248.969C181.586 241.229 186.072 235.168 189.925 233.534C190.433 233.206 191.016 233.011 191.619 232.969C192.223 232.926 192.827 233.038 193.376 233.293C195.377 233.971 196.481 236.548 196.481 240.734C196.344 245.496 195.378 250.197 193.629 254.628C190.523 262.507 186.026 268.718 182.127 270.19C181.611 270.468 181.041 270.633 180.457 270.675C179.872 270.717 179.285 270.634 178.734 270.431C176.698 269.638 175.721 267.05 175.721 262.99ZM194.537 240.734C194.537 237.778 193.79 235.697 192.685 235.317C192.068 235.116 191.396 235.161 190.811 235.444C187.924 236.594 183.829 241.597 180.701 249.705C178.939 253.92 177.969 258.423 177.837 262.99C177.837 265.946 178.447 267.912 179.712 268.407C180.206 268.717 180.701 268.717 181.46 268.154C184.692 266.923 188.809 261.092 191.547 253.892C193.326 249.721 194.339 245.264 194.537 240.734Z" fill="#E86851"/>
<path d="M20.3577 112.952L22.0714 111.595C22.1979 111.848 48.1454 141.982 97.0385 128.571L97.5216 130.722C47.5358 144.432 20.5992 113.262 20.3577 112.952Z" fill="#E86851"/>
<path d="M20.0817 109.443C20.0817 99.4827 22.9685 66.9563 60.6361 44.3213L61.7863 46.288C25.2573 68.1409 22.244 99.8507 22.244 109.328V112.088L20.2427 112.33C20.2427 112.33 20.0817 111.111 20.0817 109.443Z" fill="#E86851"/>
<path d="M179.068 270.559L179.344 268.408C179.712 268.408 219.346 271.364 244.431 227.451L246.283 228.601C220.6 273.756 179.585 270.559 179.068 270.559Z" fill="#E86851"/>
<path d="M156.134 216.626C156.229 208.84 157.279 201.095 159.262 193.565L161.229 194.06C148.784 243.252 179.712 268.406 179.953 268.716L178.573 270.304C178.435 270.062 156.134 251.901 156.134 216.626Z" fill="#E86851"/>
<path d="M20.5992 36.8922L51.8949 19.5479L53.1256 21.8252L21.9564 39.158L20.5992 36.8922Z" fill="#E86851"/>
<path d="M0 2.08845V-1.91406L33.182 -1.6725L33.0554 2.3875L0 2.08845Z" fill="#E86851"/>
<path d="M21.2087 32.9482C21.8737 32.9297 22.5356 33.045 23.1553 33.2871C23.7749 33.5293 24.3395 33.8933 24.8158 34.3577C25.2921 34.8222 25.6702 35.3776 25.9278 35.9909C26.1854 36.6043 26.3172 37.2632 26.3154 37.9284C26.329 38.9274 26.0459 39.908 25.502 40.746C24.958 41.584 24.1777 42.2418 23.2597 42.6362C22.3418 43.0306 21.3275 43.1438 20.3452 42.9614C19.3628 42.7791 18.4567 42.3094 17.7414 41.6119C17.0262 40.9143 16.5339 40.0202 16.327 39.0428C16.1201 38.0654 16.2078 37.0485 16.579 36.121C16.9502 35.1934 17.5883 34.3968 18.4124 33.832C19.2365 33.2672 20.2097 32.9597 21.2087 32.9482Z" fill="#E86851"/>
<path d="M125.597 216.628L135.442 182.192L138.053 182.94L128.219 217.376L125.597 216.628Z" fill="#E86851"/>
<path d="M72.5977 161.776L107.493 151.574L108.252 154.151L73.3337 164.364L72.5977 161.776Z" fill="#E86851"/>
<path d="M83.5702 203.837L107.125 180.408L110.012 183.307L86.3075 206.425L83.5702 203.837Z" fill="#E86851"/>
<path d="M123.228 213.301C124.214 212.385 125.51 211.877 126.856 211.877C128.202 211.877 129.498 212.385 130.485 213.301C130.994 213.759 131.406 214.316 131.694 214.938C131.983 215.56 132.143 216.234 132.164 216.919C132.186 217.604 132.069 218.287 131.819 218.925C131.57 219.564 131.195 220.146 130.715 220.635C130.235 221.125 129.662 221.513 129.028 221.775C128.395 222.037 127.715 222.169 127.03 222.162C126.344 222.154 125.667 222.009 125.039 221.733C124.412 221.457 123.846 221.058 123.377 220.558C122.881 220.097 122.482 219.541 122.205 218.923C121.928 218.306 121.777 217.638 121.764 216.961C121.75 216.284 121.872 215.611 122.124 214.982C122.375 214.353 122.75 213.781 123.228 213.301Z" fill="#E86851"/>
<path d="M69.1702 159.44C69.6487 158.944 70.2222 158.55 70.8565 158.28C71.4909 158.011 72.173 157.872 72.8622 157.872C73.5514 157.872 74.2335 158.011 74.8679 158.28C75.5022 158.55 76.0757 158.944 76.5542 159.44C77.4801 160.408 77.9969 161.695 77.9969 163.035C77.9969 164.374 77.4801 165.661 76.5542 166.629C75.5989 167.599 74.2986 168.151 72.9372 168.166C71.5759 168.18 70.2642 167.655 69.2887 166.705C68.3132 165.756 67.7532 164.459 67.731 163.097C67.7088 161.736 68.2262 160.421 69.1702 159.44Z" fill="#E86851"/>
<path d="M250.527 268.166L268.113 236.191L270.482 237.537L252.896 269.396L250.527 268.166Z" fill="#E86851"/>
<path d="M287.976 290.052L288.344 256.79L292.151 257.032L291.909 290.052H287.976Z" fill="#E86851"/>
<path d="M246.559 268.717C246.621 267.406 247.185 266.169 248.135 265.264C249.085 264.358 250.347 263.853 251.66 263.853C252.972 263.853 254.234 264.358 255.184 265.264C256.134 266.169 256.698 267.406 256.76 268.717C256.793 269.407 256.686 270.097 256.444 270.744C256.202 271.392 255.832 271.983 255.355 272.484C254.878 272.984 254.305 273.382 253.67 273.654C253.034 273.926 252.351 274.066 251.66 274.066C250.969 274.066 250.285 273.926 249.649 273.654C249.014 273.382 248.441 272.984 247.964 272.484C247.487 271.983 247.117 271.392 246.875 270.744C246.633 270.097 246.526 269.407 246.559 268.717Z" fill="#E86851"/>
<path d="M143.551 120.21C143.551 119.716 146.047 89.1562 174.455 89.1562V91.5601C148.416 91.5601 146.047 118.922 146.047 120.314L143.551 120.21Z" fill="#E86851"/>
<path d="M140.054 91.6158L140.296 89.2119C147.277 89.764 153.143 91.9148 157.64 95.9173C164.737 101.392 167.474 109.443 168.739 115.159L166.496 115.781C165.231 110.49 162.747 102.864 156.007 97.8266C151.889 94.1346 146.541 92.1678 140.054 91.6158Z" fill="#E86851"/>
<path d="M262.396 165.1C262.396 158.637 264.639 151.575 271.494 144.869L273.093 146.525C254.518 164.928 272.472 185.884 273.242 186.861L271.367 188.402C271.367 188.276 262.396 177.89 262.396 165.1Z" fill="#E86851"/>
<path d="M247.295 169.162C252.517 164.366 258.152 161.778 263.984 161.41C274.105 160.052 282.835 165.343 285.698 167.068L284.468 169.162C279.695 166.263 272.598 162.698 264.26 163.871C258.888 164.113 253.782 166.516 248.917 170.875L247.295 169.162Z" fill="#E86851"/>
<path d="M103.157 17.5138L104.756 15.6045C105.642 16.5246 126.609 34.122 145.011 15.7886L146.76 17.3872C126.586 37.5034 103.272 17.7553 103.157 17.5138Z" fill="#E86851"/>
<path d="M119.846 41.1937C133.314 27.2883 127.196 12.1063 122.457 4.48078L124.458 2.99707C129.691 11.3587 136.293 27.7139 121.479 42.7234L119.846 41.1937Z" fill="#E86851"/>
<path d="M170.085 141.981C171.235 141.981 198.655 139.761 198.655 113.745V113.63H201.139V113.745C201.139 141.981 170.614 144.431 170.246 144.488L170.085 141.981Z" fill="#E86851"/>
<path d="M174.455 121.625L174.973 119.222C184.692 121.372 200.897 128.204 201.139 149.413H198.655C198.528 129.918 183.553 123.65 174.455 121.625Z" fill="#E86851"/>
<path d="M219.105 0.0189133C219.086 -13.993 223.224 -27.6955 230.994 -39.3556C238.764 -51.0157 249.818 -60.1096 262.757 -65.4869C275.696 -70.8643 289.939 -72.2836 303.685 -69.5653C317.431 -66.8471 330.061 -60.1134 339.98 -50.216C349.898 -40.3185 356.659 -27.7019 359.406 -13.962C362.153 -0.222046 360.764 14.024 355.414 26.9743C350.064 39.9246 340.993 50.9974 329.35 58.7922C317.706 66.587 304.012 70.7535 290 70.7649C271.223 70.765 253.214 63.3162 239.922 50.053C226.631 36.7898 219.144 18.7957 219.105 0.0189133ZM359.297 0.0189133C359.306 -13.6834 355.252 -27.0808 347.648 -38.4793C340.043 -49.8778 329.229 -58.7654 316.574 -64.0185C303.918 -69.2717 289.99 -70.6543 276.548 -67.9917C263.107 -65.3291 250.757 -58.7408 241.06 -49.0598C231.363 -39.3788 224.754 -27.0399 222.07 -13.6032C219.385 -0.166428 220.744 13.7647 225.976 26.4288C231.208 39.0929 240.078 49.9213 251.464 57.5448C262.85 65.1683 276.24 69.2446 289.943 69.2582C308.31 69.237 325.921 61.939 338.92 48.962C351.918 35.985 359.245 18.3863 359.297 0.0189133Z" fill="#E86851"/>
<path d="M212.491 0.0175171C212.5 -15.2993 217.05 -30.2696 225.565 -43.0013C234.08 -55.7329 246.179 -65.6544 260.331 -71.5117C274.484 -77.3689 290.056 -78.8991 305.078 -75.9087C320.1 -72.9183 333.898 -65.5416 344.729 -54.711C355.559 -43.8804 362.936 -30.0821 365.926 -15.06C368.917 -0.0379715 367.386 15.5334 361.529 29.686C355.672 43.8386 345.75 55.9372 333.019 64.4524C320.287 72.9677 305.317 77.5174 290 77.5265C269.45 77.5051 249.748 69.3322 235.216 54.8011C220.685 40.27 212.512 20.5676 212.491 0.0175171ZM365.761 0.0175171C365.761 -15.0025 361.305 -29.6849 352.957 -42.1715C344.609 -54.658 332.745 -64.3875 318.865 -70.1286C304.986 -75.8696 289.715 -77.3641 274.986 -74.423C260.257 -71.4818 246.731 -64.2372 236.121 -53.606C225.511 -42.9748 218.293 -29.4349 215.381 -14.7C212.469 0.0350113 213.993 15.3027 219.762 29.1708C225.53 43.039 235.283 54.8842 247.786 63.2073C260.289 71.5304 274.98 75.9573 290 75.9277C310.107 75.8881 329.376 67.873 343.58 53.6414C357.784 39.4097 365.761 20.1243 365.761 0.0175171Z" fill="#E86851"/>
</g>
</svg>
