<svg width="408" height="507" viewBox="0 0 408 507" fill="none" xmlns="http://www.w3.org/2000/svg">
<g opacity="0.6">
<path d="M176.61 147.028C176.61 46.5356 258.436 -35.2197 358.929 -35.2197C459.422 -35.2197 541.248 46.5783 541.248 147.028C541.248 247.478 459.407 329.276 359 329.276C258.593 329.276 176.61 247.549 176.61 147.028ZM536.592 147.028C536.57 99.9309 517.853 54.7684 484.554 21.4615C451.255 -11.8453 406.097 -30.5726 359 -30.6066C261.141 -30.6066 181.166 48.9418 181.166 147.071C181.166 245.2 261.07 324.891 359 324.891C456.93 324.891 536.592 245.115 536.592 147.028Z" fill="#E86851"/>
<path d="M238.346 147.029C238.341 123.165 245.412 99.8348 258.666 79.9896C271.92 60.1444 290.762 44.6755 312.808 35.5391C334.854 26.4028 359.115 24.0093 382.521 28.6616C405.927 33.3138 427.429 44.8028 444.305 61.6754C461.182 78.548 472.676 100.046 477.333 123.452C481.991 146.857 479.604 171.118 470.472 193.166C461.341 215.215 445.877 234.06 426.035 247.319C406.193 260.577 382.864 267.654 359 267.654C327.014 267.628 296.345 254.912 273.724 232.297C251.104 209.682 238.38 179.015 238.346 147.029ZM476.123 147.029C476.1 123.862 469.21 101.222 456.322 81.9714C443.434 62.7204 425.128 47.7225 403.718 38.8739C382.308 30.0253 358.755 27.7232 336.036 32.2587C313.318 36.7942 292.454 47.9636 276.083 64.3548C259.711 80.7461 248.567 101.623 244.06 124.347C239.552 147.071 241.882 170.621 250.757 192.021C259.632 213.42 274.652 231.708 293.918 244.572C313.185 257.437 335.833 264.3 359 264.294C390.06 264.219 419.825 251.834 441.77 229.854C463.716 207.873 476.054 178.09 476.08 147.029H476.123Z" fill="#E86851"/>
<path d="M250.107 147.028C250.118 125.507 256.509 104.473 268.473 86.5836C280.436 68.6943 297.435 54.7533 317.319 46.5228C337.204 38.2923 359.083 36.1418 380.19 40.3431C401.297 44.5444 420.684 54.9089 435.902 70.1265C451.119 85.344 461.484 104.732 465.685 125.838C469.886 146.945 467.736 168.824 459.505 188.709C451.275 208.594 437.334 225.592 419.445 237.556C401.555 249.519 380.521 255.91 359 255.921C330.129 255.891 302.449 244.409 282.034 223.994C261.619 203.579 250.137 175.899 250.107 147.028ZM464.504 147.028C464.496 126.163 458.301 105.769 446.703 88.4248C435.105 71.0803 418.624 57.5642 399.345 49.5853C380.066 41.6065 358.854 39.5233 338.391 43.599C317.928 47.6747 299.133 57.7264 284.382 72.4832C269.631 87.2399 259.587 106.039 255.52 126.504C251.452 146.969 253.544 168.18 261.531 187.456C269.517 206.732 283.04 223.207 300.389 234.798C317.738 246.389 338.135 252.576 359 252.576C386.973 252.523 413.784 241.384 433.56 221.601C453.335 201.817 464.463 175.001 464.504 147.028V147.028Z" fill="#E86851"/>
<path d="M407.723 38.7479L433.836 -16.5957L436.882 -15.0722L410.841 40.0435L407.723 38.7479Z" fill="#E86851"/>
<path d="M393.94 33.4236L412.82 -24.668L416.024 -23.6001L397.215 34.5626L393.94 33.4236Z" fill="#E86851"/>
<path d="M379.474 29.991L390.908 -30.0654L394.097 -29.5386L382.835 30.6032L379.474 29.991Z" fill="#E86851"/>
<path d="M364.482 28.3255L368.369 -32.7275L371.715 -32.4285L367.913 28.6246L364.482 28.3255Z" fill="#E86851"/>
<path d="M345.645 -32.4285L349.033 -32.7275L352.906 28.3255L349.532 28.6246L345.645 -32.4285Z" fill="#E86851"/>
<path d="M323.419 -29.5386L326.651 -30.0654L338.07 29.991L334.838 30.6032L323.419 -29.5386Z" fill="#E86851"/>
<path d="M301.649 -23.6016L304.724 -24.584L323.561 33.4933L320.486 34.7177L301.649 -23.6016Z" fill="#E86851"/>
<path d="M280.52 -15.0727L283.609 -16.5107L309.679 38.8186L306.59 40.3421L280.52 -15.0727Z" fill="#E86851"/>
<path d="M260.914 -4.11033L263.69 -5.70508L296.537 45.8227L293.619 47.7306L260.914 -4.11033Z" fill="#E86851"/>
<path d="M242.831 9.51744L245.309 7.31055L284.207 54.51L281.587 56.6314L242.831 9.51744Z" fill="#E86851"/>
<path d="M226.315 25.1223L228.636 22.6875L273.244 64.633L270.781 67.139L226.315 25.1223Z" fill="#E86851"/>
<path d="M211.963 42.7055L214.141 40.043L263.69 75.9658L261.526 78.7138L211.963 42.7055Z" fill="#E86851"/>
<path d="M200.245 61.9699L201.768 58.9941L255.361 88.5382L253.795 91.4998L200.245 61.9699Z" fill="#E86851"/>
<path d="M190.648 82.5155L192.058 79.3262L249.01 101.851L247.629 105.054L190.648 82.5155Z" fill="#E86851"/>
<path d="M183.885 104.129L184.797 100.939L243.899 116.089L242.988 119.435L183.885 104.129Z" fill="#E86851"/>
<path d="M179.998 126.369L180.497 123.023L240.98 130.783L240.51 134.286L179.998 126.369Z" fill="#E86851"/>
<path d="M178.774 148.979V145.548L239.913 145.704V148.979H178.774Z" fill="#E86851"/>
<path d="M179.998 168.086L240.51 160.768L241.123 163.971L180.497 171.503L179.998 168.086Z" fill="#E86851"/>
<path d="M184.028 190.312L243.301 175.163L244.098 178.737L184.939 193.658L184.028 190.312Z" fill="#E86851"/>
<path d="M190.805 211.925L247.786 189.543L249.011 192.818L192.215 215.043L190.805 211.925Z" fill="#E86851"/>
<path d="M200.245 232.484L253.795 203.097L255.361 205.987L202.082 235.531L200.245 232.484Z" fill="#E86851"/>
<path d="M212.12 251.665L261.682 215.728L263.69 218.632L214.298 254.412L212.12 251.665Z" fill="#E86851"/>
<path d="M226.472 269.319L271.08 227.615L273.4 230.05L228.792 271.611L226.472 269.319Z" fill="#E86851"/>
<path d="M242.831 284.853L281.886 237.967L284.364 240.088L245.465 286.917L242.831 284.853Z" fill="#E86851"/>
<path d="M261.07 298.409L293.761 246.796L296.737 248.704L264.003 300.232L261.07 298.409Z" fill="#E86851"/>
<path d="M280.676 309.287L306.746 254.171L309.822 255.78L283.752 310.739L280.676 309.287Z" fill="#E86851"/>
<path d="M301.649 317.885L320.628 259.894L323.718 260.961L305.066 318.882L301.649 317.885Z" fill="#E86851"/>
<path d="M323.561 323.681L335.137 263.695L338.412 264.607L326.808 324.293L323.561 323.681Z" fill="#E86851"/>
<path d="M345.801 326.797L349.831 265.744L353.219 266.057L349.176 326.954L345.801 326.797Z" fill="#E86851"/>
<path d="M364.781 266.057L368.212 265.744L371.871 326.797L368.511 326.954L364.781 266.057Z" fill="#E86851"/>
<path d="M379.631 264.607L382.835 263.695L394.254 323.681L391.05 324.293L379.631 264.607Z" fill="#E86851"/>
<path d="M394.097 260.805L397.372 259.894L416.024 317.885L412.82 318.882L394.097 260.805Z" fill="#E86851"/>
<path d="M151.75 -39.889C151.75 -48.1186 152.205 -54.5116 152.519 -57.7863V-58.3131L154.683 -58.4697L154.839 -57.7863C153.316 -43.0926 148.518 30.7463 197.767 53.3565L203.463 56.2041L202.352 58.1832L196.657 55.4495C157.459 37.3955 151.75 -11.8114 151.75 -39.889Z" fill="#E86851"/>
<path d="M67.7876 147.826L69.2114 146.146L69.8664 146.758C82.9512 162.591 129.424 213.136 178.688 194.868L184.853 192.818L185.451 194.868L179.6 196.862C128.826 215.741 81.4277 164.285 68.1436 148.153L67.7876 147.826Z" fill="#E86851"/>
<path d="M67.6311 147.214L67.7877 146.915V146.616L68.699 145.548C86.1691 125.301 131.845 80.2233 179.543 97.8074L185.395 100.171L184.64 102.15L178.632 99.9431C132.457 82.8574 87.5076 127.124 70.5642 147.071L69.9519 147.527V147.826L69.3112 148.666L67.6311 147.214Z" fill="#E86851"/>
<path d="M153.458 351.387L154.071 351.231L154.384 351.387C174.93 353.281 243.287 356.1 265.214 308.288L267.876 302.508L270.197 303.419L267.392 309.342C244.853 358.207 175.086 355.545 154.227 353.651L153.615 353.808L153.458 351.387Z" fill="#E86851"/>
<path d="M152.063 335.47C152.063 304.559 158.869 256.989 197.155 239.334L203.021 236.486L204.089 238.693L198.223 241.128C153.316 261.83 153.16 324.862 154.84 350.904L154.982 351.658L155.295 351.972V352.954L153.316 353.253L152.861 353.111V352.798L152.704 352.655V351.231C152.362 346.817 152.063 341.492 152.063 335.47Z" fill="#E86851"/>
<path d="M358.16 436.788L358.772 436.105C374.69 422.935 424.851 376.049 406.726 327.326L404.448 321.317L406.584 320.634L408.834 326.429C427.485 376.746 376.399 424.401 360.338 437.728L359.726 438.412L358.16 436.788Z" fill="#E86851"/>
<path d="M305.821 348.869C305.744 341.289 307.047 333.758 309.665 326.644L312 320.479L314.164 321.319L311.844 327.327C294.758 373.459 339.01 418.451 358.829 435.537L359.442 436.135H359.741L360.509 436.676L359 438.47L358.844 438.313H358.545L357.477 437.26C340.391 422.48 305.821 387.853 305.821 348.869Z" fill="#E86851"/>
<path d="M130.777 -52.6902C130.766 -61.0827 131.241 -69.4688 132.201 -77.8063L135.903 -77.9629V-77.1941C135.903 -76.1262 121.095 40.3416 194.592 73.8297L193.169 77.2611C138.622 52.5153 130.777 -15.543 130.777 -52.6902Z" fill="#E86851"/>
<path d="M39.3969 148.453L42.0167 145.705L42.3156 146.018C43.2411 147.229 115.784 239.99 190.805 211.642L192.229 215.059C114.731 244.674 42.6431 152.568 39.7101 148.681L39.3969 148.453Z" fill="#E86851"/>
<path d="M39.3969 146.459L39.6958 146.146C42.6289 142.345 114.873 50.3948 192.215 79.768L190.791 83.356C116.069 54.8798 45.5619 144.936 42.458 148.666L42.0024 149.122L39.3969 146.459Z" fill="#E86851"/>
<path d="M134.038 370.184H134.65C135.874 370.341 252.257 385.034 285.802 311.338L289.333 313.018C254.592 388.993 135.262 374.071 134.038 373.914V370.184Z" fill="#E86851"/>
<path d="M131.19 348.114C131.19 310.425 139.078 242.068 193.24 217.251L194.948 220.597C125.338 252.576 134.735 359.76 136.287 371.934V372.845H132.415V372.091C131.589 364.125 131.18 356.122 131.19 348.114Z" fill="#E86851"/>
<path d="M357.576 465.037V464.197L358.189 463.599C373.566 451.112 449.697 385.189 423.357 315.152L426.702 313.856C454.04 385.488 377.681 452.55 361.079 466.034C360.544 466.683 359.789 467.114 358.957 467.244V463.442C358.759 463.447 358.563 463.493 358.384 463.577C358.204 463.662 358.044 463.783 357.914 463.934C357.783 464.084 357.686 464.26 357.628 464.45C357.57 464.64 357.552 464.84 357.576 465.037Z" fill="#E86851"/>
<path d="M286.072 344.94C286.039 334.303 287.969 323.751 291.768 313.815L295.313 315.111C269.3 385.034 345.032 451.114 360.424 463.6L361.178 464.198V465.038C361.204 464.829 361.183 464.616 361.117 464.416C361.051 464.216 360.941 464.032 360.795 463.88C360.649 463.727 360.471 463.609 360.274 463.533C360.077 463.458 359.865 463.427 359.655 463.444V467.245C359.268 467.236 358.891 467.118 358.569 466.904C358.246 466.689 357.991 466.388 357.832 466.035C343.466 454.573 286.072 404.142 286.072 344.94Z" fill="#E86851"/>
<path d="M177.72 65.2297L200.088 58.7656L200.701 60.9725L178.176 67.4367L177.72 65.2297Z" fill="#E86851"/>
<path d="M40.6213 148.139V145.861H41.5326H68.5565L69.0122 146.004L68.6989 148.139H68.3999H41.5326H40.6213Z" fill="#E86851"/>
<path d="M60.6686 168.385L77.8398 157.123L78.9076 159.017L61.9358 170.436L60.6686 168.385Z" fill="#E86851"/>
<path d="M72.7424 179.505L89.8709 168.684L90.9388 170.591L73.9527 181.327L72.7424 179.505Z" fill="#E86851"/>
<path d="M91.7361 193.658L107.142 182.082L108.551 184.075L92.9463 195.637L91.7361 193.658Z" fill="#E86851"/>
<path d="M83.2075 187.948L98.3569 175.774L99.7237 177.526L84.6171 189.699L83.2075 187.948Z" fill="#E86851"/>
<path d="M117.351 208.124L133.255 195.338L134.636 197.089L118.561 209.875L117.351 208.124Z" fill="#E86851"/>
<path d="M133.411 212.24L152.063 198.984L153.316 200.821L134.479 214.134L133.411 212.24Z" fill="#E86851"/>
<path d="M151.906 217.409L173.064 196.707L174.588 198.387L153.473 218.933L151.906 217.409Z" fill="#E86851"/>
<path d="M172.765 217.408L184.028 196.862L186.206 198.158L174.929 218.476L172.765 217.408Z" fill="#E86851"/>
<path d="M49.8619 156.968L73.0416 151.643L73.6538 154.006L50.3603 159.175L49.8619 156.968Z" fill="#E86851"/>
<path d="M133.069 371.335L133.71 370.794L153.159 351.388L154.526 353.139L154.227 353.438L134.636 373.001L133.069 371.335Z" fill="#E86851"/>
<path d="M163.169 373.159L167.355 352.998L169.377 353.439L165.347 373.771L163.169 373.159Z" fill="#E86851"/>
<path d="M179.543 372.247L183.885 352.684L186.05 353.139L181.707 372.859L179.543 372.247Z" fill="#E86851"/>
<path d="M203.021 369.356L205.655 349.864L207.976 350.163L205.342 369.584L203.021 369.356Z" fill="#E86851"/>
<path d="M192.984 370.881L194.991 351.688L197.312 352.001L195.304 371.023L192.984 370.881Z" fill="#E86851"/>
<path d="M231.27 361.442L233.591 340.739L235.755 341.109L233.591 361.598L231.27 361.442Z" fill="#E86851"/>
<path d="M245.622 352.841L249.153 330.23L251.474 330.458L247.786 353.14L245.622 352.841Z" fill="#E86851"/>
<path d="M262.138 343.088L262.75 313.715H264.915L264.615 343.088H262.138Z" fill="#E86851"/>
<path d="M147.293 372.547L160.093 352.372L161.959 353.753L149.429 373.772L147.293 372.547Z" fill="#E86851"/>
<path d="M133.069 341.338L153.473 337.536L153.772 339.814L133.71 343.402L133.069 341.338Z" fill="#E86851"/>
<path d="M134.009 324.592L153.473 320.634L154.071 322.77L134.166 326.956L134.009 324.592Z" fill="#E86851"/>
<path d="M136.8 300.999L156.249 298.564L156.705 300.843L137.099 303.277L136.8 300.999Z" fill="#E86851"/>
<path d="M135.234 311.35L154.683 309.285L154.84 311.649L135.39 313.4L135.234 311.35Z" fill="#E86851"/>
<path d="M144.517 272.522L165.034 270.472L165.347 272.835L144.83 274.729L144.517 272.522Z" fill="#E86851"/>
<path d="M152.86 258.143L175.698 254.555L176.154 256.847L153.16 260.35L152.86 258.143Z" fill="#E86851"/>
<path d="M133.069 357.709L153.473 344.994L154.683 346.973L134.322 359.617L133.069 357.709Z" fill="#E86851"/>
<path d="M336.703 444.106L348.421 427.205L350.286 428.43L338.568 445.473L336.703 444.106Z" fill="#E86851"/>
<path d="M325.284 431.934L336.39 415.176L338.412 416.244L327.149 433.144L325.284 431.934Z" fill="#E86851"/>
<path d="M310.776 412.897L322.807 397.363L324.515 398.887L312.456 414.577L310.776 412.897Z" fill="#E86851"/>
<path d="M316.798 421.424L329.271 406.346L330.994 407.869L318.621 422.791L316.798 421.424Z" fill="#E86851"/>
<path d="M295.939 387.395L309.224 371.334L311.075 372.857L297.805 388.69L295.939 387.395Z" fill="#E86851"/>
<path d="M291.782 371.335L305.223 352.684L307.202 353.979L293.618 372.702L291.782 371.335Z" fill="#E86851"/>
<path d="M286.841 352.529L307.999 331.371L309.523 332.966L288.393 354.138L286.841 352.529Z" fill="#E86851"/>
<path d="M287.14 331.057L308.156 319.88L309.223 322.001L288.393 333.121L287.14 331.057Z" fill="#E86851"/>
<path d="M348.264 455.684L353.675 432.391L355.882 433.003L350.286 456.14L348.264 455.684Z" fill="#E86851"/>
<path d="M81.0718 34.5473L82.2963 31.4291C121.494 47.3473 142.509 25.1216 144.83 22.5303L147.293 24.8084C144.83 27.5563 122.448 51.3055 81.0718 34.5473Z" fill="#E86851"/>
<path d="M81.0718 35.3164L82.2963 32.1982C117.194 47.9598 121.038 74.2861 121.038 85.2495L117.65 85.4061V85.2495C117.65 75.1261 113.962 50.2095 81.0718 35.3164Z" fill="#E86851"/>
<path d="M113.962 48.0309L114.873 45.9806C136.031 55.036 150.226 48.5576 156.847 43.916L158.271 45.6673C151.294 50.6934 136.031 57.5419 113.962 48.0309Z" fill="#E86851"/>
<path d="M113.464 48.4146L114.417 46.4355C133.867 55.5622 140.487 68.6613 142.894 77.9445L140.559 78.4001C138.622 69.6437 132.002 57.2423 113.464 48.4146Z" fill="#E86851"/>
<path d="M81.5276 260.932C120.583 244.487 119.814 213.946 119.515 210.614L122.747 210.315C123.203 214.117 124.171 246.623 82.8802 263.979L81.5276 260.932Z" fill="#E86851"/>
<path d="M82.1396 261.56C118.105 248.005 139.576 264.294 146.952 271.527L144.517 274.118C135.846 265.063 116.041 252.206 83.5493 264.536L82.1396 261.56Z" fill="#E86851"/>
<path d="M114.873 248.121C136.031 239.976 141.74 224.912 143.264 216.996L145.428 217.295C143.719 225.838 138.01 241.429 115.628 250.328L114.873 248.121Z" fill="#E86851"/>
<path d="M114.873 248.688C135.077 241.683 149.13 246.026 157.317 251.052L156.092 252.803C148.361 248.076 134.935 243.975 115.485 250.895L114.873 248.688Z" fill="#E86851"/>
<path d="M234.502 361.427L236.666 358.693C239.442 361.285 263.391 383.51 246.376 424.929L243.287 423.705C259.048 384.422 236.965 363.449 234.502 361.427Z" fill="#E86851"/>
<path d="M244.241 423.704C259.903 388.692 286.371 385.033 297.335 385.033V388.379C284.663 388.379 261.526 393.106 247.33 425.071L244.241 423.704Z" fill="#E86851"/>
<path d="M255.66 349.023L257.482 347.6C262.437 354.833 269.4 370.124 259.96 392.051L257.838 391.14C266.922 370.039 260.259 355.801 255.66 349.023Z" fill="#E86851"/>
<path d="M258.294 391.655C267.534 372.248 280.519 365.471 289.76 363.179L290.23 365.386C281.587 367.593 269.243 373.928 260.259 392.637L258.294 391.655Z" fill="#E86851"/>
<path d="M92.7471 172.031C98.6132 160.47 111.442 146.303 139.22 146.004V148.14C112.51 148.666 100.322 161.993 94.7689 173.099L92.7471 172.031Z" fill="#E86851"/>
<path d="M93.1031 122.255L95.1107 121.344C99.7239 130.015 111.485 144.936 139.42 145.392L139.263 147.827C110.232 146.915 97.9014 131.467 93.1031 122.255Z" fill="#E86851"/>
<path d="M186.049 338.746C186.049 328.238 189.737 315.153 202.722 301.727L204.388 303.392C185.879 322.429 186.804 340.411 190.492 352.201L188.484 353.112C186.868 348.495 186.045 343.637 186.049 338.746V338.746Z" fill="#E86851"/>
<path d="M153.458 317.586L154.071 315.451C163.468 318.298 182.319 320.477 202.366 301.298L204.246 302.964C183.116 322.769 163.326 320.733 153.458 317.586Z" fill="#E86851"/>
<path d="M358.003 366.908H360.139C360.452 393.405 373.694 405.736 385.113 411.374L383.888 413.268C374.534 408.398 358.16 395.997 358.003 366.908Z" fill="#E86851"/>
<path d="M333.158 410.918C341.943 406.348 356.793 394.63 357.548 366.609H359.683C359 395.84 343.338 408.17 334.226 412.898L333.158 410.918Z" fill="#E86851"/>
<path d="M157.16 2.73962C157.616 2.42638 193.881 -18.8027 232.622 18.4016L230.33 20.8363C193.311 -14.6309 159.31 5.30247 158.855 5.6157L157.16 2.73962Z" fill="#E86851"/>
<path d="M208.574 -29.2402C208.574 -44.4608 214.597 -54.5129 214.739 -54.6553L217.587 -52.8328C216.661 -51.409 198.123 -18.8891 233.334 17.8025L230.857 20.3084C213.33 1.96973 208.574 -15.5431 208.574 -29.2402Z" fill="#E86851"/>
<path d="M114.261 187.493C114.418 187.265 124.925 146.458 178.632 145.391L178.774 148.665C127.702 149.961 117.65 187.948 117.65 188.404L114.261 187.493Z" fill="#E86851"/>
<path d="M114.261 106.564L117.65 105.652C117.949 107.176 127.702 143.568 178.774 144.622L178.632 148.139C124.925 146.914 114.418 106.877 114.261 106.564Z" fill="#E86851"/>
<path d="M208.574 322.613C208.574 308.831 213.031 291.403 230.344 273.278L232.637 275.798C197.312 312.718 217.373 346.662 217.53 346.989L214.682 348.883C210.534 340.756 208.437 331.737 208.574 322.613Z" fill="#E86851"/>
<path d="M157.16 291.404L158.869 288.556C160.293 289.325 192.969 308.205 229.86 272.895L232.024 275.258C193.283 312.405 157.616 291.632 157.16 291.404Z" fill="#E86851"/>
<path d="M357.405 327.324H360.751C361.663 378.325 398.582 388.078 400.333 388.377L399.579 391.809C398.867 391.652 358.317 381.073 357.405 327.324Z" fill="#E86851"/>
<path d="M317.553 388.377C319.105 388.078 355.426 378.325 356.48 327.324H359.84C358.772 381.073 318.806 391.652 318.464 391.809L317.553 388.377Z" fill="#E86851"/>
<path d="M61.6226 50.3948C61.6015 41.7633 63.282 33.2123 66.568 25.2308C69.8539 17.2492 74.6809 9.99362 80.7728 3.87882C87.8962 -3.36302 96.6251 -8.82535 106.252 -12.0658C115.88 -15.3063 126.135 -16.2338 136.188 -14.7731L135.533 -10.9715C126.066 -12.3016 116.419 -11.3962 107.365 -8.32783C98.3104 -5.25949 90.1005 -0.113508 83.3926 6.69798C77.6277 12.4521 73.0542 19.2866 69.9336 26.8102C66.8131 34.3339 65.2068 42.3991 65.2068 50.5443C65.2068 58.6894 66.8131 66.7546 69.9336 74.2783C73.0542 81.802 77.6277 88.6365 83.3926 94.3906C85.5403 96.5532 87.8591 98.5388 90.3266 100.328L87.9915 103.304C85.4637 101.39 83.0531 99.3269 80.7728 97.1243C74.6205 91.0099 69.7561 83.7244 66.4669 75.6983C63.1777 67.6722 61.5305 59.0682 61.6226 50.3948V50.3948Z" fill="#E86851"/>
<path d="M60.9818 242.525C60.9197 232.384 63.2477 222.371 67.777 213.298C72.3064 204.224 78.9097 196.345 87.0518 190.3L89.2302 193.432C73.9242 204.538 64.8261 223.033 64.6837 242.525C64.7361 259.025 71.3062 274.836 82.9629 286.514C94.6196 298.192 110.419 304.791 126.919 304.874L136.045 303.963L136.501 307.693C133.331 308.188 130.127 308.44 126.919 308.448C118.257 308.463 109.677 306.768 101.671 303.46C93.6655 300.153 86.3914 295.298 80.2658 289.174C74.1402 283.049 69.2836 275.776 65.9745 267.771C62.6653 259.767 60.9687 251.187 60.9818 242.525V242.525Z" fill="#E86851"/>
<path d="M196.358 379.109C196.386 376.022 196.653 372.942 197.155 369.896L200.857 370.509C199.493 379.97 200.375 389.619 203.429 398.676C206.484 407.734 211.626 415.946 218.441 422.649C224.197 428.439 231.041 433.034 238.579 436.169C246.118 439.305 254.202 440.919 262.366 440.919C270.53 440.919 278.614 439.305 286.152 436.169C293.691 433.034 300.535 428.439 306.29 422.649C308.506 420.505 310.518 418.16 312.299 415.643L315.232 417.922C313.318 420.566 311.205 423.06 308.91 425.382C299.696 434.546 287.983 440.786 275.238 443.32C262.493 445.855 249.283 444.571 237.264 439.63C225.246 434.688 214.953 426.31 207.676 415.543C200.399 404.777 196.462 392.103 196.358 379.109V379.109Z" fill="#E86851"/>
<path d="M402.014 419.134L405.06 416.856C412.944 427.211 423.879 434.829 436.323 438.637C448.768 442.446 462.094 442.251 474.422 438.082C486.75 433.912 497.458 425.977 505.036 415.397C512.614 404.817 516.679 392.125 516.659 379.111C516.568 376.08 516.311 373.057 515.89 370.055L519.62 369.6C520.048 372.754 520.304 375.929 520.389 379.111C520.376 392.899 516.045 406.336 508.002 417.535C499.959 428.735 488.61 437.133 475.549 441.551C462.488 445.968 448.371 446.183 435.182 442.165C421.992 438.147 410.393 430.098 402.014 419.148V419.134Z" fill="#E86851"/>
<path d="M75.0634 57.3291C75.0254 48.5083 76.7531 39.7691 80.1447 31.6264C83.5363 23.4836 88.5232 16.1019 94.8117 9.91617C105.81 -1.46186 120.688 -8.28331 136.487 -9.19141L136.8 -6.61431C121.565 -5.61854 107.222 0.920041 96.4775 11.7671C85.0759 23.2639 78.4031 38.6202 77.7783 54.7998C77.1535 70.9794 82.6221 86.8046 93.1031 99.1465L91.0812 100.983C80.7229 88.7983 75.0442 73.3218 75.0634 57.3291Z" fill="#E86851"/>
<path d="M75.0633 236.971C75.0157 221.183 80.7084 205.917 91.0812 194.015L93.2454 195.695C83.2075 206.658 77.9821 221.423 77.8397 236.985C77.8848 253.16 83.9987 268.728 94.9721 280.611C105.945 292.494 120.979 299.826 137.099 301.157L136.942 303.748C120.149 302.364 104.482 294.741 93.0291 282.381C81.576 270.022 75.1665 253.821 75.0633 236.971V236.971Z" fill="#E86851"/>
<path d="M202.722 369.586L205.499 369.344C206.324 384.58 212.832 398.952 223.738 409.623C235.286 420.998 250.672 427.641 266.87 428.247C283.069 428.853 298.908 423.378 311.274 412.898L312.797 414.877C299.929 425.811 283.427 431.519 266.553 430.87C249.68 430.221 233.664 423.264 221.673 411.375C210.513 400.193 203.781 385.348 202.722 369.586V369.586Z" fill="#E86851"/>
<path d="M405.658 414.875L407.566 412.896C418.939 422.994 433.648 428.523 448.857 428.416C465.044 428.321 480.611 422.178 492.501 411.192C504.39 400.207 511.742 385.172 513.114 369.043L515.705 369.342C513.114 403.684 483.569 431.079 448.786 430.936C432.922 431.083 417.563 425.363 405.658 414.875V414.875Z" fill="#E86851"/>
<path d="M75.0634 57.3291C75.0254 48.5083 76.7531 39.7691 80.1447 31.6264C83.5363 23.4836 88.5232 16.1019 94.8117 9.91617C105.81 -1.46186 120.688 -8.28331 136.487 -9.19141L136.8 -6.61431C121.565 -5.61854 107.222 0.920041 96.4775 11.7671C85.0759 23.2639 78.4031 38.6202 77.7783 54.7998C77.1535 70.9794 82.6221 86.8046 93.1031 99.1465L91.0812 100.983C80.7229 88.7983 75.0442 73.3218 75.0634 57.3291Z" fill="#E86851"/>
<path d="M93.8575 -3.05572L94.5125 -5.63281C95.7227 -5.405 96.634 -5.03479 97.7446 -4.72155C98.8101 -4.45926 99.889 -4.25489 100.977 -4.10932C104.365 -3.19808 107.911 -2.44346 111.171 -1.2617L110.231 1.25843C107.003 0.178998 103.707 -0.686665 100.364 -1.33292L97.0896 -2.24413C96.1783 -2.60009 94.9681 -2.74248 93.8575 -3.05572Z" fill="#E86851"/>
<path d="M85.3717 3.35111L85.9839 0.759766C87.9915 1.21539 90.0133 1.82764 92.0351 2.28326C94.3132 2.73888 96.6341 3.42232 98.8125 3.94913L99.7237 4.17695C100.409 4.32209 101.081 4.52694 101.731 4.78918L100.977 7.29506C100.404 6.98609 99.762 6.82925 99.1115 6.83947L98.2002 6.69708C95.8794 6.08484 93.5586 5.27327 91.3802 4.78918C89.2018 4.30508 87.3935 3.87792 85.3717 3.35111Z" fill="#E86851"/>
<path d="M78.7512 10.0435L79.2068 7.45215C82.5955 8.22101 85.9842 9.13226 89.558 10.0435C91.0814 10.5703 92.9466 10.9547 94.6552 11.4673L93.8578 13.902C92.1777 13.603 90.4692 13.1474 88.7606 12.6918C85.4786 11.6149 82.1364 10.7307 78.7512 10.0435V10.0435Z" fill="#E86851"/>
<path d="M72.8137 17.4615L73.725 14.8701L82.7804 17.4615C84.6136 17.8384 86.417 18.3476 88.1767 18.985L87.422 21.4197C85.6992 20.8929 83.8767 20.5084 82.0115 19.9958C78.8934 19.1843 75.818 18.2588 72.8137 17.4615Z" fill="#E86851"/>
<path d="M83.6917 27.6269C78.8934 26.4879 74.1094 24.9643 69.3112 23.8965Z" fill="#E86851"/>
<path d="M65.9226 32.8096L66.5348 30.1328C71.2164 31.591 75.9684 32.8123 80.773 33.792L80.118 36.3834C75.3625 35.3155 70.5642 34.1053 65.9226 32.8096Z" fill="#E86851"/>
<path d="M77.8397 43.6168C73.3405 42.1929 68.5565 41.0966 64.2423 40.043Z" fill="#E86851"/>
<path d="M63.4452 49.9248L63.7584 47.3477C68.266 48.1895 72.7059 49.3602 77.0426 50.8503L76.2737 53.285C72.0755 51.886 67.7902 50.7635 63.4452 49.9248V49.9248Z" fill="#E86851"/>
<path d="M77.0852 60.2891C72.8137 59.3636 68.5423 58.1534 64.2709 57.2422Z" fill="#E86851"/>
<path d="M77.8399 69.6444C73.7962 68.3487 69.297 67.2951 65.4669 66.4551Z" fill="#E86851"/>
<path d="M68.5424 75.7373C71.9168 76.5774 75.5048 77.6452 79.3491 78.7131C79.3491 78.7131 79.4915 78.8554 79.8047 78.7131" fill="#E86851"/>
<path d="M73.7961 85.8047C75.0633 86.1179 75.818 86.4169 77.1848 86.6447C79.5056 87.4848 81.9831 87.7126 84.3039 88.4672" fill="#E86851"/>
<path d="M91.2378 99.1874C88.9455 98.4185 85.9839 97.5785 83.3926 96.9805Z" fill="#E86851"/>
<path d="M75.0633 236.971C75.0157 221.183 80.7084 205.917 91.0812 194.015L93.2454 195.695C83.2075 206.658 77.9821 221.423 77.8397 236.985C77.8848 253.16 83.9987 268.728 94.9721 280.611C105.945 292.494 120.979 299.826 137.099 301.157L136.942 303.748C120.149 302.364 104.482 294.741 93.0291 282.381C81.576 270.022 75.1665 253.821 75.0633 236.971V236.971Z" fill="#E86851"/>
<path d="M68.5424 213.749C73.9386 210.631 79.1925 207.513 83.9907 204.537L85.4145 206.901C80.4597 209.862 75.4478 212.838 69.9946 215.728L68.5424 213.749Z" fill="#E86851"/>
<path d="M64.7122 227.074C66.5346 226.078 68.5565 224.868 70.4074 223.643C73.3405 221.977 76.4302 220.14 79.5056 218.475" fill="#E86851"/>
<path d="M63.1461 237.81C67.0331 235.517 70.7208 233.082 74.5366 231.032L77.1564 229.438" fill="#E86851"/>
<path d="M76.7293 239.335C72.0877 241.926 67.4887 244.66 63.1461 247.095Z" fill="#E86851"/>
<path d="M77.6405 249.146C73.0416 251.666 68.5566 254.257 64.399 256.535Z" fill="#E86851"/>
<path d="M79.8189 257.302C75.5475 259.879 71.1764 262.171 67.0046 264.905Z" fill="#E86851"/>
<path d="M82.7804 264.905C78.6229 267.34 74.5934 270.159 70.4359 272.209Z" fill="#E86851"/>
<path d="M86.9237 272.666C82.7519 275.03 78.5944 277.55 74.864 279.785Z" fill="#E86851"/>
<path d="M92.1776 279.443C88.4472 281.422 84.3039 283.857 80.4169 286.448Z" fill="#E86851"/>
<path d="M98.2002 285.139C94.5125 287.502 90.6255 289.553 87.0802 291.916Z" fill="#E86851"/>
<path d="M105.433 291.09C101.667 293.029 98.0199 295.192 94.5127 297.568Z" fill="#E86851"/>
<path d="M102.999 302.053C106.074 300.23 109.463 298.408 112.851 296.272C112.891 296.293 112.935 296.306 112.98 296.31C113.025 296.314 113.071 296.308 113.113 296.293C113.156 296.279 113.196 296.255 113.229 296.225C113.262 296.194 113.289 296.157 113.307 296.115" fill="#E86851"/>
<path d="M113.962 305.557C114.866 304.838 115.85 304.226 116.895 303.734C119.027 302.341 121.238 301.072 123.516 299.933" fill="#E86851"/>
<path d="M135.846 302.508C133.348 303.651 130.964 305.029 128.727 306.623Z" fill="#E86851"/>
<path d="M202.722 369.586L205.499 369.344C206.324 384.58 212.832 398.952 223.738 409.623C235.286 420.998 250.672 427.641 266.87 428.247C283.069 428.853 298.908 423.378 311.274 412.898L312.797 414.877C299.929 425.811 283.427 431.519 266.553 430.87C249.68 430.221 233.664 423.264 221.673 411.375C210.513 400.193 203.781 385.348 202.722 369.586V369.586Z" fill="#E86851"/>
<path d="M200.7 399.498L201.156 397.519C202.366 392.564 203.932 387.239 205.342 382.213L207.777 382.896C206.567 387.851 205.157 393.105 203.633 398.117L203.178 400.253L200.7 399.498Z" fill="#E86851"/>
<path d="M207.62 411.857C208.119 409.651 208.574 407.586 209.187 405.308C209.956 402.033 210.753 398.459 211.806 395.256" fill="#E86851"/>
<path d="M213.985 420.401C214.896 416.129 215.964 411.858 217.217 407.587C217.53 406.675 217.829 405.308 217.986 404.625" fill="#E86851"/>
<path d="M224.45 411.857C223.24 416.883 221.673 422.209 220.605 426.921Z" fill="#E86851"/>
<path d="M232.025 418.225C230.601 423.251 229.391 428.419 228.024 432.847Z" fill="#E86851"/>
<path d="M239.599 422.336C238.346 427.205 236.823 431.918 235.755 436.574Z" fill="#E86851"/>
<path d="M247.017 425.457C245.921 430.483 244.853 435.196 243.443 439.695Z" fill="#E86851"/>
<path d="M255.361 428.414C254.108 432.842 253.04 437.555 252.086 441.812Z" fill="#E86851"/>
<path d="M263.989 429.34C262.566 433.619 261.439 437.991 260.615 442.425Z" fill="#E86851"/>
<path d="M272.333 429.031C271.08 433.445 270.168 437.574 269.1 441.846Z" fill="#E86851"/>
<path d="M281.587 428.414C280.204 432.337 279.119 436.359 278.341 440.445Z" fill="#E86851"/>
<path d="M287.596 437.559C288.393 434.056 289.461 430.44 290.529 426.667C290.529 426.667 290.828 426.667 290.529 426.211" fill="#E86851"/>
<path d="M297.776 432.233C298.107 431.131 298.363 430.009 298.545 428.873C299.3 426.367 299.641 424.004 300.41 421.754" fill="#E86851"/>
<path d="M311.231 414.875C310.259 417.398 309.483 419.992 308.91 422.635Z" fill="#E86851"/>
<path d="M405.658 414.875L407.566 412.896C418.939 422.994 433.648 428.523 448.857 428.416C465.044 428.321 480.611 422.178 492.501 411.192C504.39 400.207 511.742 385.172 513.114 369.043L515.705 369.342C513.114 403.684 483.569 431.079 448.786 430.936C432.922 431.083 417.563 425.363 405.658 414.875V414.875Z" fill="#E86851"/>
<path d="M23.9342 11.2689C23.8572 10.6418 24.0255 10.0093 24.404 9.50338C26.5682 3.56609 39.6957 4.94719 50.9581 9.28982C62.2204 13.6324 70.564 20.5521 70.564 25.7206C70.623 26.3483 70.52 26.9807 70.265 27.5573C69.9707 28.2172 69.545 28.81 69.0138 29.2997C68.4825 29.7893 67.8569 30.1654 67.1753 30.4049C62.3771 32.5407 53.1365 31.544 43.6966 27.657C31.9644 23.2859 23.9342 16.4373 23.9342 11.2689ZM68.0723 25.7206C68.0723 22.218 61.295 16.1383 49.8475 11.7245C38.1153 6.99747 27.9635 7.29647 26.554 10.4289V11.2689C26.554 14.6149 33.3313 20.9366 44.6364 25.265C53.2647 28.611 62.2204 29.8354 65.9935 28.0129C66.3819 27.9197 66.7412 27.7318 67.0393 27.4659C67.3374 27.2001 67.5651 26.8647 67.7021 26.4895C67.8188 26.3974 67.9137 26.2808 67.9801 26.1479C68.0466 26.015 68.0829 25.8691 68.0865 25.7206H68.0723Z" fill="#E86851"/>
<path d="M24.7031 284.555C24.7031 279.372 32.4344 272.367 43.6967 267.341C53.1366 263.454 62.3772 262.016 67.1754 263.838C68.5103 264.391 69.6053 265.401 70.2651 266.686C70.5928 267.241 70.7512 267.879 70.7207 268.523C70.7207 273.691 62.8328 280.696 51.7271 285.423C42.3157 289.695 33.0324 291.047 28.1345 289.225C27.4446 289.021 26.8072 288.67 26.2663 288.195C25.7255 287.721 25.2942 287.135 25.0021 286.477C24.7742 285.863 24.6725 285.209 24.7031 284.555V284.555ZM68.0866 268.565C68.1245 268.3 68.0745 268.03 67.9443 267.797C67.631 267.042 67.033 266.729 66.0791 266.273C62.5338 264.849 54.8025 265.447 44.7931 269.861C33.8297 274.574 27.3229 281.052 27.3229 284.555C27.2996 284.867 27.3534 285.18 27.4795 285.466C27.8493 286.139 28.4595 286.648 29.1881 286.89C33.189 288.485 42.1733 286.89 50.6592 283.16C61.6225 278.461 68.0866 271.911 68.0866 268.565V268.565Z" fill="#E86851"/>
<path d="M217.53 472.569C217.685 466.622 218.88 460.748 221.061 455.213C224.791 445.631 230.344 438.127 235.114 436.106C235.743 435.699 236.464 435.458 237.211 435.405C237.958 435.353 238.706 435.491 239.386 435.806C241.863 436.647 243.23 439.836 243.23 445.019C243.06 450.913 241.865 456.733 239.699 462.218C235.854 471.971 230.287 479.66 225.461 481.482C224.822 481.827 224.117 482.032 223.393 482.083C222.669 482.135 221.942 482.032 221.26 481.781C218.74 480.799 217.53 477.595 217.53 472.569ZM240.824 445.019C240.824 441.359 239.898 438.782 238.531 438.312C237.766 438.063 236.935 438.119 236.21 438.469C232.637 439.893 227.568 446.086 223.695 456.124C221.514 461.342 220.313 466.917 220.15 472.569C220.15 476.229 220.904 478.663 222.471 479.275C223.083 479.66 223.695 479.66 224.635 478.962C228.636 477.439 233.733 470.22 237.122 461.307C239.324 456.144 240.578 450.626 240.824 445.019V445.019Z" fill="#E86851"/>
<path d="M24.0908 12.322V9.97266L26.9384 10.0439C26.9384 10.6561 23.0942 59.7491 77.5692 90.5889L76.1454 92.9382C27.3229 65.2308 24.0908 22.9863 24.0908 12.322Z" fill="#E86851"/>
<path d="M24.4041 9.20399C24.7031 8.81957 56.9809 -30.4492 119.515 -14.773L118.717 -12.1817C58.1911 -27.4877 26.8673 10.4284 26.4116 10.8129L24.4041 9.20399Z" fill="#E86851"/>
<path d="M25.2014 286.832L27.3229 285.152C27.4795 285.466 59.6007 322.769 120.127 306.168L120.725 308.83C58.8461 325.802 25.5004 287.217 25.2014 286.832Z" fill="#E86851"/>
<path d="M24.8597 282.489C24.8597 270.159 28.4335 229.894 75.0633 201.873L76.4871 204.308C31.2669 231.36 27.5365 270.615 27.5365 282.347V285.764L25.0591 286.063C25.0591 286.063 24.8597 284.554 24.8597 282.489Z" fill="#E86851"/>
<path d="M221.673 481.939L222.015 479.276C222.471 479.276 271.535 482.935 302.588 428.574L304.881 429.998C273.087 485.897 222.314 481.939 221.673 481.939Z" fill="#E86851"/>
<path d="M193.283 415.174C193.4 405.536 194.701 395.948 197.155 386.627L199.59 387.239C184.184 448.136 222.471 479.274 222.77 479.659L221.061 481.624C220.89 481.325 193.283 458.843 193.283 415.174Z" fill="#E86851"/>
<path d="M25.5005 192.676L64.2424 171.205L65.7659 174.024L27.1806 195.481L25.5005 192.676Z" fill="#E86851"/>
<path d="M25.5005 101.239L27.1806 98.2773L66.5347 120.047L65.1679 123.023L25.5005 101.239Z" fill="#E86851"/>
<path d="M0 149.593V144.638L41.077 144.937L40.9204 149.963L0 149.593Z" fill="#E86851"/>
<path d="M26.2549 187.793C27.0781 187.771 27.8976 187.913 28.6646 188.213C29.4316 188.513 30.1307 188.963 30.7202 189.538C31.3098 190.113 31.7779 190.801 32.0968 191.56C32.4157 192.319 32.5789 193.135 32.5766 193.959C32.5935 195.195 32.243 196.409 31.5697 197.447C30.8963 198.484 29.9303 199.298 28.794 199.786C27.6576 200.275 26.4019 200.415 25.1859 200.189C23.9699 199.963 22.8481 199.382 21.9627 198.518C21.0772 197.655 20.4679 196.548 20.2117 195.338C19.9555 194.128 20.0641 192.869 20.5236 191.721C20.9832 190.573 21.7731 189.587 22.7933 188.887C23.8135 188.188 25.0182 187.808 26.2549 187.793V187.793Z" fill="#E86851"/>
<path d="M26.2551 93.3232C27.9317 93.3232 29.5397 93.9893 30.7252 95.1748C31.9108 96.3604 32.5768 97.9683 32.5768 99.645C32.5768 101.322 31.9108 102.93 30.7252 104.115C29.5397 105.301 27.9317 105.967 26.2551 105.967C24.5785 105.967 22.9705 105.301 21.7849 104.115C20.5994 102.93 19.9333 101.322 19.9333 99.645C19.9333 97.9683 20.5994 96.3604 21.7849 95.1748C22.9705 93.9893 24.5785 93.3232 26.2551 93.3232Z" fill="#E86851"/>
<path d="M155.48 415.176L167.668 372.547L170.9 373.472L158.727 416.101L155.48 415.176Z" fill="#E86851"/>
<path d="M89.871 347.274L133.069 334.645L134.009 337.834L90.7822 350.477L89.871 347.274Z" fill="#E86851"/>
<path d="M103.454 399.343L132.614 370.34L136.188 373.928L106.843 402.546L103.454 399.343Z" fill="#E86851"/>
<path d="M152.547 411.057C153.769 409.924 155.373 409.295 157.039 409.295C158.705 409.295 160.31 409.924 161.532 411.057C162.162 411.625 162.671 412.315 163.029 413.084C163.386 413.854 163.584 414.688 163.61 415.536C163.637 416.385 163.492 417.23 163.184 418.02C162.875 418.811 162.41 419.531 161.816 420.137C161.223 420.744 160.512 421.223 159.728 421.548C158.944 421.873 158.103 422.036 157.254 422.027C156.405 422.018 155.567 421.837 154.79 421.496C154.013 421.155 153.313 420.66 152.732 420.041C152.118 419.471 151.624 418.783 151.281 418.018C150.938 417.253 150.752 416.427 150.735 415.589C150.718 414.75 150.869 413.917 151.181 413.139C151.492 412.36 151.957 411.652 152.547 411.057V411.057Z" fill="#E86851"/>
<path d="M85.628 344.383C86.2203 343.769 86.9303 343.28 87.7156 342.947C88.5009 342.613 89.3453 342.441 90.1984 342.441C91.0516 342.441 91.8961 342.613 92.6813 342.947C93.4666 343.28 94.1766 343.769 94.7689 344.383C95.9151 345.581 96.5548 347.175 96.5548 348.832C96.5548 350.49 95.9151 352.084 94.7689 353.282C93.5863 354.482 91.9766 355.166 90.2913 355.184C88.6061 355.202 86.9823 354.552 85.7748 353.376C84.5672 352.201 83.8739 350.595 83.8464 348.91C83.8189 347.225 84.4594 345.597 85.628 344.383V344.383Z" fill="#E86851"/>
<path d="M382.977 441.67L385.953 440.146L407.424 478.974L404.448 480.497L382.977 441.67Z" fill="#E86851"/>
<path d="M310.135 478.976L331.905 439.395L334.838 441.06L313.068 480.5L310.135 478.976Z" fill="#E86851"/>
<path d="M356.494 506.071L356.95 464.895L361.663 465.194L361.364 506.071H356.494Z" fill="#E86851"/>
<path d="M399.579 479.659C399.577 478.843 399.737 478.033 400.051 477.279C400.364 476.525 400.824 475.84 401.404 475.265C401.985 474.691 402.673 474.237 403.431 473.93C404.188 473.624 404.998 473.471 405.815 473.48C406.642 473.461 407.464 473.607 408.234 473.908C409.005 474.209 409.707 474.66 410.302 475.235C410.897 475.81 411.371 476.497 411.698 477.256C412.026 478.016 412.199 478.833 412.208 479.659C412.216 480.501 412.055 481.336 411.737 482.115C411.418 482.894 410.948 483.602 410.353 484.197C409.757 484.792 409.05 485.263 408.27 485.581C407.491 485.9 406.657 486.06 405.815 486.052C404.152 485.997 402.574 485.301 401.411 484.11C400.249 482.918 399.593 481.324 399.579 479.659V479.659Z" fill="#E86851"/>
<path d="M305.223 479.659C305.3 478.036 305.999 476.505 307.174 475.384C308.35 474.262 309.912 473.637 311.537 473.637C313.162 473.637 314.724 474.262 315.9 475.384C317.076 476.505 317.775 478.036 317.852 479.659C317.892 480.513 317.759 481.367 317.46 482.168C317.161 482.97 316.702 483.702 316.112 484.321C315.522 484.94 314.812 485.433 314.026 485.77C313.239 486.107 312.393 486.28 311.537 486.28C310.682 486.28 309.835 486.107 309.049 485.77C308.262 485.433 307.553 484.94 306.962 484.321C306.372 483.702 305.913 482.97 305.614 482.168C305.315 481.367 305.182 480.513 305.223 479.659V479.659Z" fill="#E86851"/>
<path d="M210.098 -31.0613L210.411 -34.0371C210.753 -34.0371 248.541 -31.0613 248.541 4.10683H245.465C245.465 -28.0998 211.664 -31.0613 210.098 -31.0613Z" fill="#E86851"/>
<path d="M125.68 123.92C126.136 123.777 154.84 99.1882 179.685 124.076L177.564 126.212C154.783 103.303 128.912 125.301 127.73 126.283L125.68 123.92Z" fill="#E86851"/>
<path d="M147.45 96.0553L149.728 94.0762C155.637 100.626 158.869 107.787 159.168 115.092C160.891 126.212 155.794 135.794 152.206 141.959L149.586 140.364C153.003 134.584 157.773 125.599 156.093 115.391C155.794 108.699 152.861 102.149 147.45 96.0553Z" fill="#E86851"/>
<path d="M177.706 295.817C177.706 295.205 180.796 257.374 215.964 257.374V260.35C183.729 260.35 180.796 294.222 180.796 295.945L177.706 295.817Z" fill="#E86851"/>
<path d="M173.378 260.422L173.677 257.446C182.319 258.13 189.581 260.792 195.148 265.747C203.933 272.524 207.321 282.491 208.888 289.567L206.111 290.336C204.545 283.787 201.469 274.347 193.126 268.111C188.029 263.54 181.408 261.106 173.378 260.422Z" fill="#E86851"/>
<path d="M324.828 351.388C324.828 343.386 327.605 334.644 336.091 326.343L338.07 328.393C315.075 351.174 337.301 377.116 338.255 378.326L335.934 380.234C335.934 380.077 324.828 367.22 324.828 351.388Z" fill="#E86851"/>
<path d="M306.134 356.415C312.598 350.478 319.575 347.274 326.793 346.818C339.323 345.138 350.13 351.688 353.675 353.824L352.152 356.415C346.243 352.827 337.458 348.413 327.135 349.865C320.486 350.164 314.164 353.14 308.141 358.536L306.134 356.415Z" fill="#E86851"/>
<path d="M180.155 -1.04758L183.116 -1.27539C183.273 0.0202786 186.049 33.9782 218.285 33.8216V36.9397C183.116 36.9112 180.34 -0.848242 180.155 -1.04758Z" fill="#E86851"/>
<path d="M174.132 34.1062C198.067 33.7929 205.955 15.2122 208.574 4.10645L211.351 4.78989C208.574 16.7357 200.245 36.8399 174.132 37.1389V34.1062Z" fill="#E86851"/>
<path d="M127.702 168.686L129.681 166.322C130.777 167.461 156.733 189.246 179.514 166.55L181.678 168.529C156.705 193.432 127.844 168.985 127.702 168.686Z" fill="#E86851"/>
<path d="M148.361 198.001C165.034 180.787 157.459 161.992 151.593 152.553L154.071 150.716C160.549 161.067 168.722 181.314 150.383 199.894L148.361 198.001Z" fill="#E86851"/>
<path d="M210.553 322.769C211.977 322.769 245.921 320.021 245.921 287.814V287.672H248.996V287.814C248.996 322.769 211.208 325.802 210.753 325.873L210.553 322.769Z" fill="#E86851"/>
<path d="M215.964 297.569L216.604 294.594C228.636 297.256 248.697 305.714 248.996 331.969H245.921C245.764 307.835 227.226 300.075 215.964 297.569Z" fill="#E86851"/>
<path d="M378.264 376.348C379.318 375.209 401.245 349.296 378.421 326.515L380.542 324.308C405.359 349.281 380.841 378.213 380.542 378.412L378.264 376.348Z" fill="#E86851"/>
<path d="M362.574 352.057C371.117 346.717 392.574 336.751 411.752 355.545L409.702 357.752C392.616 340.78 373.85 348.469 364.325 354.634L362.574 352.057Z" fill="#E86851"/>
<path d="M271.236 147.029C271.214 129.683 276.336 112.721 285.955 98.2862C295.574 83.8518 309.258 72.5942 325.275 65.9374C341.293 59.2806 358.925 57.5237 375.941 60.8886C392.957 64.2536 408.593 72.5895 420.871 84.8418C433.15 97.0942 441.519 112.713 444.92 129.722C448.32 146.731 446.601 164.367 439.978 180.398C433.355 196.43 422.126 210.137 407.712 219.786C393.298 229.436 376.346 234.594 359 234.608C335.756 234.608 313.461 225.387 297.007 208.968C280.554 192.549 271.285 170.273 271.236 147.029ZM444.785 147.029C444.796 130.067 439.778 113.482 430.364 99.371C420.95 85.2605 407.563 74.2582 391.897 67.7552C376.23 61.2522 358.987 59.5406 342.348 62.8367C325.709 66.1328 310.42 74.2887 298.416 86.2731C286.412 98.2575 278.23 113.532 274.907 130.166C271.583 146.8 273.266 164.045 279.743 179.723C286.22 195.4 297.2 208.805 311.295 218.242C325.39 227.68 341.966 232.726 358.929 232.743C381.667 232.716 403.468 223.682 419.559 207.617C435.65 191.553 444.721 169.767 444.785 147.029V147.029Z" fill="#E86851"/>
<path d="M263.049 147.028C263.061 128.067 268.693 109.535 279.234 93.774C289.775 78.013 304.752 65.7309 322.272 58.48C339.792 51.2291 359.069 49.3349 377.665 53.0368C396.261 56.7387 413.343 65.8705 426.75 79.2781C440.158 92.6856 449.29 109.767 452.991 128.363C456.693 146.96 454.799 166.236 447.548 183.756C440.297 201.276 428.015 216.253 412.254 226.794C396.493 237.335 377.961 242.968 359 242.979C333.56 242.953 309.17 232.835 291.182 214.846C273.193 196.858 263.076 172.468 263.049 147.028V147.028ZM452.787 147.028C452.787 128.435 447.271 110.259 436.937 94.8012C426.603 79.3437 411.915 67.2992 394.733 60.1922C377.552 53.0852 358.648 51.2351 340.414 54.876C322.18 58.5169 305.436 67.4853 292.302 80.646C279.167 93.8067 270.231 110.568 266.626 128.809C263.021 147.05 264.909 165.95 272.05 183.118C279.191 200.286 291.264 214.949 306.742 225.253C322.22 235.556 340.406 241.036 359 241C383.891 240.951 407.745 231.029 425.328 213.411C442.911 195.793 452.787 171.919 452.787 147.028V147.028Z" fill="#E86851"/>
</g>
</svg>
