<svg width="64" height="64" viewBox="0 0 64 64" fill="none" xmlns="http://www.w3.org/2000/svg">
<path fill-rule="evenodd" clip-rule="evenodd" d="M24.6512 11.3224C20.5671 11.9897 17.2809 14.7105 15.9157 18.5548C15.7727 18.9571 15.5793 19.6338 15.4857 20.0584C15.3208 20.8063 15.3145 21.0736 15.2854 28.563L15.2555 36.2955L14.5572 36.8127C12.8615 38.0687 11.6493 39.936 11.3261 41.7904C11.2219 42.3876 11.2002 43.3463 11.2002 47.3417C11.2002 52.6119 11.1929 52.5273 11.6636 52.7215C11.833 52.7914 15.5887 52.8098 26.4225 52.7939L40.9541 52.7725L41.1502 52.5445L41.3463 52.3164L41.3457 47.2208C41.3452 42.404 41.3362 42.0881 41.1824 41.4461C41.0929 41.0727 40.9057 40.5075 40.7665 40.1902L40.5134 39.6134L40.552 38.0653C40.5871 36.655 40.61 36.4599 40.8091 35.8758C41.2291 34.6441 41.8401 33.8889 43.0568 33.0978C45.1326 31.7479 46.1434 30.0109 46.2773 27.5631L46.3271 26.6556L46.8517 26.5238C48.7561 26.0453 50.2673 24.6239 50.9152 22.7017L51.135 22.0497L51.1609 17.4372L51.1869 12.8248H51.6742C52.2377 12.8248 52.5688 12.682 52.7063 12.38C52.8715 12.0174 52.8228 11.7712 52.5272 11.4756L52.2509 11.1992H45.5444C41.479 11.1992 38.7576 11.2298 38.6337 11.2768C38.3575 11.3819 38.1448 11.7285 38.1448 12.0734C38.1448 12.2909 38.2062 12.4126 38.4061 12.5913C38.6363 12.797 38.7294 12.8248 39.1888 12.8248H39.7102L39.7411 17.356C39.7712 21.7787 39.7764 21.9017 39.9553 22.4955C40.5744 24.55 42.1134 26.0348 44.1408 26.5332L44.7006 26.6709L44.6506 27.4895C44.5307 29.4499 43.818 30.6467 42.0926 31.7855C40.1876 33.043 39.1773 34.7154 38.9501 36.9878L38.895 37.5396L38.5898 37.2639C38.422 37.1122 38.0594 36.8292 37.7841 36.635L37.2835 36.2819L37.2832 28.7594C37.2829 22.5431 37.2622 21.1095 37.1638 20.503C36.6017 17.0362 34.5107 14.1318 31.3518 12.4301C30.6638 12.0595 29.2749 11.5729 28.4013 11.3962C27.5208 11.2183 25.5283 11.1791 24.6512 11.3224ZM27.7199 12.9458C31.7012 13.5461 34.8957 16.7003 35.5388 20.6662C35.6366 21.2694 35.6578 22.6501 35.658 28.4459L35.6584 35.4923L35.2041 35.336C34.2391 35.0039 33.6191 34.9205 31.7784 34.8748L29.9704 34.8299V33.5467V32.2635L30.6002 31.8211C32.3414 30.5979 33.5561 28.7072 33.912 26.6659C34.0849 25.6737 34.0858 21.1591 33.9131 20.5775C33.6634 19.7363 32.9827 19.0097 32.1643 18.7109C31.9008 18.6146 31.3447 18.5594 30.1736 18.513C27.8385 18.4208 26.1409 18.0463 24.3021 17.2182C23.8996 17.037 23.502 16.8888 23.4186 16.889C23.1285 16.8898 22.8056 17.1759 22.5494 17.6589C22.2199 18.2801 21.9293 18.4752 21.2375 18.5398C19.8798 18.6666 18.8443 19.5975 18.6019 20.909C18.489 21.5203 18.4865 25.1449 18.5983 26.2348C18.7866 28.0701 19.5427 29.6444 20.8626 30.9496C21.2017 31.2849 21.7259 31.7189 22.0276 31.9141L22.5761 32.2691V33.5495V34.8299L20.7681 34.8749C18.9411 34.9203 18.1917 35.0252 17.2335 35.3698L16.8881 35.4939L16.8884 28.6499C16.8886 21.4265 16.9109 20.8935 17.2648 19.6521C18.2316 16.2604 21.2305 13.5396 24.6075 12.9905C24.9427 12.936 25.2718 12.8807 25.3388 12.8675C25.6971 12.7973 27.0242 12.8409 27.7199 12.9458ZM49.5532 14.0439V15.2631H45.4497H41.3463V14.0439V12.8248H45.4497H49.5532V14.0439ZM49.552 19.1441C49.5511 20.8682 49.5219 21.5222 49.4281 21.9203C48.8755 24.2649 46.4065 25.6305 44.1336 24.8483C43.5208 24.6374 42.9935 24.2885 42.5108 23.7746C42.0111 23.2427 41.8149 22.9208 41.5829 22.2529C41.4134 21.7649 41.3967 21.5494 41.3638 19.4295C41.3442 18.1673 41.3494 17.0791 41.3753 17.0115C41.4165 16.9041 41.9344 16.8886 45.4879 16.8886H49.5532L49.552 19.1441ZM45.277 18.5762C44.9185 18.6341 44.7215 18.9697 44.6778 19.5974L44.6372 20.1804L44.0685 20.2048C43.5832 20.2258 43.467 20.2608 43.2762 20.4435C43.1022 20.6103 43.0527 20.733 43.0527 20.9973C43.0527 21.5778 43.4545 21.8465 44.3223 21.8465H44.6778V22.3686C44.6778 22.8063 44.7105 22.9296 44.8801 23.1311C45.1229 23.4198 45.4392 23.4957 45.7896 23.3492C46.1304 23.2068 46.3029 22.8532 46.3029 22.2976V21.8465L46.6889 21.842C47.2835 21.8349 47.6201 21.6868 47.7985 21.354C47.9832 21.0092 47.9333 20.7065 47.6441 20.4172C47.4738 20.2469 47.3723 20.221 46.8754 20.221H46.3029L46.3026 19.713C46.3025 19.3501 46.2564 19.1296 46.1413 18.9409C46.0528 18.7956 45.9704 18.6767 45.9583 18.6767C45.9461 18.6767 45.8268 18.6479 45.693 18.6125C45.5592 18.5772 45.372 18.5609 45.277 18.5762ZM24.6479 19.1216C26.3509 19.7596 27.9632 20.0596 30.0661 20.1297C31.7479 20.1858 31.8326 20.212 32.231 20.7974L32.4194 21.0744L32.3865 23.7566C32.3497 26.7551 32.3297 26.8908 31.7513 28.071C31.1503 29.2973 30.1105 30.3369 28.8735 30.9482C27.9903 31.3847 27.2768 31.5444 26.2326 31.5393C23.4559 31.5259 21.108 29.7012 20.3636 26.9781C20.2134 26.4285 20.1899 26.0704 20.1582 23.85C20.1267 21.6375 20.1386 21.3004 20.2596 20.9836C20.4625 20.4521 20.7964 20.2366 21.5687 20.1387C22.3803 20.0359 22.9391 19.7654 23.3981 19.2533C23.594 19.0347 23.7858 18.8521 23.8243 18.8476C23.8629 18.843 24.2335 18.9663 24.6479 19.1216ZM22.8757 22.8873C22.6728 23.0991 22.6573 23.1655 22.6573 23.8248C22.6573 24.6409 22.7617 24.8765 23.1852 25.0163C23.51 25.1235 23.9725 24.9669 24.1145 24.7014C24.3814 24.2025 24.3092 23.1959 23.9831 22.8697C23.68 22.5664 23.1753 22.5745 22.8757 22.8873ZM28.5828 22.8969C28.3573 23.1225 28.3453 23.1696 28.3453 23.8303C28.3453 24.4762 28.3615 24.5442 28.5709 24.7788C28.8381 25.0778 29.2571 25.1297 29.5985 24.906C29.8836 24.7192 29.9704 24.4675 29.9704 23.8285C29.9704 22.9985 29.7227 22.6593 29.1163 22.6593C28.8975 22.6593 28.7584 22.7212 28.5828 22.8969ZM25.2026 27.2914C24.1777 27.5601 23.8762 27.8055 23.8762 28.3705C23.8762 28.5906 23.9334 28.7384 24.0723 28.8774C24.3704 29.1756 24.6316 29.2059 25.1597 29.0038C25.9184 28.7133 26.4883 28.6994 27.2407 28.9526C27.9492 29.1911 28.2258 29.1779 28.4916 28.8931C28.9406 28.412 28.7478 27.8275 28.0355 27.5105C27.1379 27.111 26.1747 27.0365 25.2026 27.2914ZM27.9073 35.7977C27.3486 36.3222 26.8282 36.5139 26.1175 36.4569C25.4986 36.4071 25.0303 36.175 24.5611 35.6852L24.2012 35.3095V34.1348V32.9601L24.5466 33.0119C26.0619 33.2393 26.9294 33.2355 28.0203 32.9964L28.3047 32.9341L28.3289 34.1566L28.3532 35.3792L27.9073 35.7977ZM23.5127 36.948C24.1196 37.5044 24.644 37.8062 25.301 37.9774C26.6352 38.325 28.0057 37.9476 29.0493 36.9452L29.555 36.4594L31.4894 36.4963C33.2398 36.5296 33.4973 36.5528 34.1957 36.7407C36.466 37.3512 38.3423 38.8254 39.2047 40.6759C39.7136 41.7681 39.7187 41.8269 39.72 46.7377L39.7212 51.1876H38.0961H36.4709V48.1741V45.1606L36.2334 44.923C35.9798 44.6694 35.5572 44.6034 35.2476 44.7692C34.8648 44.9741 34.8458 45.1388 34.8458 48.2576V51.1876H26.2733H17.7007V48.1741V45.1606L17.4632 44.923C17.0468 44.5066 16.3514 44.6497 16.1629 45.1906C16.107 45.351 16.0756 46.4752 16.0756 48.3144V51.1876H14.4505H12.8253V46.8765C12.8253 42.0314 12.8447 41.8175 13.3883 40.6622C14.1969 38.9438 15.9818 37.4755 18.0257 36.8476C18.9991 36.5486 19.468 36.4976 21.3448 36.4864L22.9981 36.4764L23.5127 36.948ZM23.3887 39.8199C22.3319 39.9892 21.3405 40.7682 20.8515 41.8135C20.341 42.9047 20.4839 44.2396 21.2144 45.2036C21.5877 45.6962 25.7859 49.4312 26.0664 49.5202C26.1598 49.5499 26.3379 49.5518 26.462 49.5246C26.7492 49.4615 31.0872 45.6357 31.4164 45.1553C31.8595 44.5085 32.0257 43.8944 31.9883 43.0425C31.9468 42.0966 31.6532 41.403 31.0307 40.7802C30.4254 40.1749 29.7138 39.866 28.8262 39.8236C27.9917 39.7837 27.4673 39.914 26.7704 40.3344L26.2924 40.6226L25.9257 40.3797C25.1745 39.882 24.2604 39.6803 23.3887 39.8199ZM24.3563 41.4404C24.6796 41.5097 24.8807 41.633 25.3348 42.0404C26.1679 42.7875 26.4263 42.7925 27.1835 42.0762C27.7062 41.5818 28.0386 41.4344 28.6311 41.4344C29.6264 41.4344 30.3767 42.1906 30.3767 43.1935C30.3767 43.9914 30.2447 44.1599 28.2176 45.9507C27.2088 46.8417 26.3548 47.5812 26.3197 47.594C26.2603 47.6157 23.7521 45.4474 22.8715 44.613C22.654 44.407 22.408 44.0921 22.3248 43.9133C21.8584 42.9117 22.4761 41.7008 23.5918 41.4291C23.9373 41.345 23.9096 41.3446 24.3563 41.4404Z" fill="#A39E60"/>
</svg>
