<svg width="64" height="64" viewBox="0 0 64 64" fill="none" xmlns="http://www.w3.org/2000/svg">
<path fill-rule="evenodd" clip-rule="evenodd" d="M11.0715 10.5041C10.1743 10.8142 9.59961 11.6188 9.59961 12.5646C9.59961 13.1912 9.79952 13.6809 10.221 14.0864C10.852 14.6933 10.7782 14.6829 14.7977 14.7318L18.4345 14.776L17.8735 15.6606C13.6776 22.2776 10.8383 32.0311 10.3028 41.6675C10.1138 45.067 10.3144 47.5704 10.864 48.6747C12.0012 50.959 15.7858 52.7999 19.3454 52.7999C22.9108 52.7999 26.6894 50.9593 27.8308 48.6666C29.0319 46.2536 28.4226 37.4655 26.5358 29.9909C25.8844 27.4101 24.9666 24.5625 24.0268 22.2066C23.1771 20.0767 21.3986 16.633 20.2922 14.9751L20.1298 14.7318H31.3745H42.6191L42.4281 15.0193C41.8204 15.9341 40.9617 17.4363 40.3116 18.7215C37.4921 24.2955 35.3607 31.8547 34.6021 38.9695C34.0762 43.9021 34.2203 47.5037 34.9972 48.8466C36.0206 50.6156 38.7213 52.1621 41.7071 52.6888C42.6389 52.8531 44.3526 52.8333 45.3184 52.647C48.6842 51.9978 51.382 50.2283 52.0845 48.2091C52.8407 46.0353 52.5813 39.6274 51.4972 33.7062C50.3013 27.1736 47.8969 20.5587 45.0346 15.926L44.3241 14.776L48.1812 14.7318C52.4377 14.683 52.3791 14.6907 52.9712 14.1051C53.4006 13.6805 53.5996 13.1925 53.5996 12.5646C53.5996 11.9205 53.3935 11.4324 52.936 10.9929C52.2643 10.3478 54.0341 10.3965 31.5613 10.4043C17.7027 10.4091 11.2555 10.4405 11.0715 10.5041ZM16.4734 11.6102C16.2381 12.0668 16.2428 12.9831 16.4831 13.4491C16.5815 13.64 16.662 13.8077 16.662 13.8216C16.662 13.8357 15.5136 13.8472 14.1099 13.8472C11.3491 13.8472 11.1866 13.8239 10.7585 13.3649C10.5689 13.1618 10.5349 13.0398 10.5349 12.5646C10.5349 12.0893 10.5689 11.9673 10.7585 11.7643C11.1838 11.3086 11.3191 11.2891 14.0807 11.2854L16.6427 11.2819L16.4734 11.6102ZM19.5146 11.6102C19.2793 12.0668 19.284 12.9831 19.5243 13.4491C19.6227 13.64 19.7032 13.8077 19.7032 13.8216C19.7032 13.8357 19.3711 13.8471 18.9652 13.847C18.4413 13.8469 18.137 13.8021 17.916 13.6922C17.4797 13.4755 17.1987 13.0268 17.1987 12.547C17.1987 11.6643 17.7233 11.2871 18.9556 11.2838L19.6839 11.2819L19.5146 11.6102ZM41.8602 11.4678C42.3115 11.6839 42.5121 12.0078 42.5121 12.5203C42.5121 12.9779 42.328 13.3335 41.9544 13.597L41.6624 13.803L31.4654 13.8258C21.8884 13.8471 21.2495 13.8391 20.9572 13.6931C20.5205 13.475 20.2399 13.0266 20.2399 12.547C20.2399 12.0023 20.4483 11.654 20.8942 11.4538C21.2547 11.292 21.64 11.2857 31.3701 11.2838C41.455 11.2819 41.4724 11.2822 41.8602 11.4678ZM44.9014 11.4678C45.3527 11.6839 45.5533 12.0078 45.5533 12.5203C45.5533 12.9765 45.3692 13.3335 44.9998 13.5937C44.7621 13.7611 44.5674 13.8026 43.8804 13.8323C43.4231 13.8522 43.0488 13.8521 43.0488 13.8323C43.0488 13.8124 43.1293 13.64 43.2277 13.4491C43.4668 12.9854 43.4706 12.1122 43.2358 11.6315L43.065 11.2819H43.789C44.3419 11.2819 44.6047 11.3259 44.9014 11.4678ZM51.9293 11.4032C52.0876 11.4699 52.3177 11.6323 52.4407 11.7642C52.6303 11.9673 52.6644 12.0894 52.6644 12.5646C52.6644 13.0398 52.6303 13.1618 52.4407 13.3649C52.0084 13.8283 51.8679 13.8472 48.8657 13.8472C47.339 13.8472 46.09 13.8357 46.09 13.8216C46.09 13.8077 46.1705 13.64 46.2689 13.4491C46.508 12.9854 46.5118 12.1122 46.277 11.6315L46.1062 11.2819H48.8739C51.0187 11.2819 51.7062 11.3092 51.9293 11.4032ZM18.8982 23.0356V30.1894L17.5341 30.2491C15.7824 30.3257 14.4208 30.4586 13.7997 30.6137C12.7764 30.8692 12.7204 31.6292 13.7055 31.8916C14.0114 31.973 14.0697 32.0256 14.0786 32.228C14.098 32.6672 14.0604 32.7295 13.4015 33.3524C12.9618 33.768 12.7065 34.0879 12.6252 34.3254C12.4955 34.7045 12.4627 36.7209 12.577 37.2983L12.6402 37.6173L12.1018 37.7474L11.5635 37.8775V37.6322C11.5635 36.888 12.3052 32.7353 12.8235 30.578C13.7872 26.5666 15.1306 22.8061 16.7938 19.4643C17.7051 17.6334 18.7 15.8842 18.8311 15.8826C18.8679 15.8821 18.8982 19.101 18.8982 23.0356ZM21.5308 18.8894C23.9146 23.5275 25.8308 29.6628 26.8078 35.785C26.9359 36.5878 27.063 37.3893 27.0901 37.5661L27.1395 37.8876L26.6325 37.7711C26.3536 37.7069 26.1137 37.6418 26.0991 37.6264C26.0845 37.611 26.1114 37.2003 26.1589 36.7138C26.2488 35.792 26.2003 34.8204 26.0368 34.2674C25.9752 34.0589 25.7229 33.7298 25.3267 33.341C24.7565 32.7814 24.7122 32.7104 24.7122 32.3568C24.7122 32.071 24.7514 31.9637 24.8687 31.9278C24.9549 31.9015 25.1551 31.8242 25.3136 31.7562C25.885 31.5111 25.7516 30.8444 25.0932 30.6548C24.5651 30.5027 22.835 30.3227 21.2461 30.2544L19.7926 30.1919L19.7943 23.0147L19.7959 15.8375L20.3792 16.8106C20.7 17.3458 21.2182 18.2812 21.5308 18.8894ZM42.9594 23.0362V30.1907L41.5506 30.2509C38.7274 30.3718 37.3671 30.6066 37.116 31.0166C36.8999 31.3695 37.1917 31.7162 37.8833 31.9278C38.0006 31.9637 38.0398 32.071 38.0398 32.3568C38.0398 32.7112 37.9959 32.781 37.4119 33.3541C37.0079 33.7505 36.7529 34.081 36.6969 34.2806C36.5454 34.8207 36.5002 35.8888 36.5921 36.758C36.6409 37.2202 36.6687 37.611 36.6537 37.6264C36.6387 37.6418 36.3993 37.7067 36.1218 37.7705L35.617 37.8865L35.674 37.4771C36.645 30.5044 38.6292 23.8931 41.2927 18.7567C41.9381 17.5119 42.87 15.8818 42.936 15.8818C42.9489 15.8818 42.9594 19.1012 42.9594 23.0362ZM44.6776 17.0547C47.4815 21.8163 49.7071 28.335 50.8248 35.0601C50.9679 35.921 51.1132 36.9107 51.1476 37.2595L51.2101 37.8937L50.659 37.7563L50.1077 37.619L50.1748 37.2107C50.2117 36.986 50.2411 36.3047 50.2402 35.6965C50.2382 34.3117 50.1179 34.0002 49.3216 33.3181C48.6698 32.7596 48.5628 32.5908 48.64 32.2431C48.6856 32.038 48.7663 31.9661 49.0299 31.8959C49.4175 31.7928 49.7573 31.5096 49.7573 31.2899C49.7573 30.6508 48.6626 30.3997 45.2179 30.2491L43.8538 30.1894V23.0356C43.8538 19.101 43.884 15.8822 43.9209 15.8826C43.9579 15.8832 44.2984 16.4106 44.6776 17.0547ZM27.8628 16.8156C27.6858 16.9382 27.6639 17.0302 27.6639 17.6539C27.6639 18.3036 27.6802 18.3651 27.8876 18.4994C28.0947 18.6336 28.1276 18.6336 28.3348 18.4994C28.5421 18.3651 28.5584 18.3036 28.5584 17.6539C28.5584 17.0302 28.5366 16.9382 28.3596 16.8156C28.2503 16.7399 28.1385 16.6779 28.1112 16.6779C28.0839 16.6779 27.9721 16.7399 27.8628 16.8156ZM25.8929 18.6417C25.8339 18.7001 25.7856 18.8513 25.7856 18.9778C25.7856 19.3442 25.9398 19.4201 26.6841 19.4201C27.2329 19.4201 27.3971 19.3882 27.5159 19.2583C27.7083 19.0481 27.7033 18.8636 27.5003 18.6819C27.3003 18.5029 26.0645 18.472 25.8929 18.6417ZM28.5949 18.7567C28.4592 18.9615 28.4592 18.9941 28.5949 19.199C28.7304 19.4035 28.7937 19.4201 29.4371 19.4201C30.1938 19.4201 30.3474 19.3455 30.3474 18.9778C30.3474 18.6102 30.1938 18.5355 29.4371 18.5355C28.7937 18.5355 28.7304 18.5522 28.5949 18.7567ZM27.812 19.5819C27.702 19.702 27.6639 19.9137 27.6639 20.4046C27.6639 21.1245 27.7424 21.2777 28.1112 21.2777C28.4817 21.2777 28.5584 21.1252 28.5584 20.3892C28.5584 19.8464 28.5261 19.684 28.3948 19.5665C28.1822 19.3762 27.9957 19.3812 27.812 19.5819ZM31.4407 21.2386C31.2636 21.3612 31.2418 21.4532 31.2418 22.0769C31.2418 22.7265 31.2581 22.788 31.4654 22.9224C31.6726 23.0566 31.7055 23.0566 31.9127 22.9224C32.12 22.788 32.1363 22.7265 32.1363 22.0769C32.1363 21.4532 32.1145 21.3612 31.9375 21.2386C31.8281 21.1628 31.7163 21.1008 31.6891 21.1008C31.6618 21.1008 31.55 21.1628 31.4407 21.2386ZM29.4708 23.0646C29.4117 23.123 29.3634 23.2743 29.3634 23.4008C29.3634 23.7672 29.5176 23.8431 30.2619 23.8431C30.8108 23.8431 30.975 23.8111 31.0938 23.6813C31.2862 23.471 31.2812 23.2866 31.0782 23.1049C30.8782 22.9258 29.6423 22.8949 29.4708 23.0646ZM32.1728 23.1796C32.0371 23.3845 32.0371 23.417 32.1728 23.6219C32.3083 23.8264 32.3716 23.8431 33.0149 23.8431C33.7716 23.8431 33.9252 23.7684 33.9252 23.4008C33.9252 23.0331 33.7716 22.9585 33.0149 22.9585C32.3716 22.9585 32.3083 22.9751 32.1728 23.1796ZM31.3899 24.0048C31.2799 24.125 31.2418 24.3367 31.2418 24.8275C31.2418 25.5475 31.3203 25.7007 31.6891 25.7007C32.0595 25.7007 32.1363 25.5482 32.1363 24.8121C32.1363 24.2693 32.104 24.1069 31.9727 23.9895C31.7601 23.7992 31.5736 23.8041 31.3899 24.0048ZM18.8982 31.2294C18.8982 31.3409 18.7007 31.362 17.6571 31.362C16.0572 31.362 15.4479 31.2505 16.662 31.1799C18.4454 31.0762 18.8982 31.0862 18.8982 31.2294ZM22.423 31.194C22.7852 31.201 22.8327 31.2172 22.6549 31.2736C22.5319 31.3125 21.8376 31.3483 21.112 31.3532C19.9407 31.3611 19.7926 31.3456 19.7926 31.2157C19.7926 31.0846 19.9046 31.0754 20.88 31.1273C21.4781 31.1591 22.1724 31.1891 22.423 31.194ZM42.9595 31.2515C42.9596 31.395 42.8499 31.4023 41.4613 31.3514C40.6371 31.3212 39.9428 31.2838 39.9182 31.2681C39.8629 31.233 41.3296 31.1365 42.2662 31.1136C42.8732 31.0988 42.9594 31.116 42.9595 31.2515ZM46.4842 31.194C46.8464 31.201 46.894 31.2172 46.7161 31.2736C46.5931 31.3125 45.8989 31.3483 45.1732 31.3532C44.002 31.3611 43.8538 31.3456 43.8538 31.2157C43.8538 31.0846 43.9658 31.0754 44.9412 31.1273C45.5393 31.1591 46.2337 31.1891 46.4842 31.194ZM17.078 32.2306L18.8534 32.2909L18.8825 32.5922L18.9116 32.8935L17.8605 32.8342C16.0538 32.7322 15.1443 32.5942 15.043 32.4069C14.9366 32.2105 15.0099 32.0594 15.1801 32.1239C15.2475 32.1494 16.1015 32.1975 17.078 32.2306ZM23.8177 32.2892C23.8177 32.445 23.7594 32.5211 23.6165 32.5518C23.2517 32.63 21.8225 32.7725 20.7922 32.8334L19.7792 32.8933L19.8083 32.5921L19.8373 32.2909L21.6581 32.2288C22.6596 32.1946 23.525 32.148 23.5812 32.1252C23.7791 32.045 23.8177 32.0718 23.8177 32.2892ZM41.1767 32.2324L42.9146 32.2909L42.9426 32.5784L42.9707 32.8658H42.4705C41.9556 32.8658 39.4938 32.6359 39.1355 32.5545C38.994 32.5223 38.9343 32.4442 38.9343 32.2914C38.9343 32.1002 38.9646 32.0802 39.1865 32.124C39.3253 32.1515 40.2209 32.2003 41.1767 32.2324ZM47.6716 32.4577C47.6211 32.588 46.4554 32.7459 44.8915 32.8342L43.8404 32.8935L43.8695 32.5922L43.8986 32.2909L45.7205 32.2288C46.7226 32.1945 47.5678 32.1412 47.5989 32.1102C47.6716 32.0376 47.7287 32.3106 47.6716 32.4577ZM16.5725 33.6216C17.2367 33.6914 18.0317 33.7489 18.3391 33.7495L18.8982 33.7504V36.3293V38.908L16.9974 38.8419C15.952 38.8055 14.8161 38.7497 14.473 38.7178L13.8494 38.6599L13.6972 38.2536C13.4905 37.7021 13.3135 35.8652 13.3943 35.1101L13.4593 34.5023L14.0543 33.9461C14.6248 33.4129 14.6642 33.392 15.0072 33.4422C15.204 33.4711 15.9084 33.5518 16.5725 33.6216ZM24.6888 33.9544C25.2296 34.5114 25.2305 34.5131 25.2912 35.1707C25.3523 35.8315 25.2242 37.5035 25.0678 38.0877C24.9069 38.6885 24.9177 38.6846 23.1088 38.7874C22.2022 38.8389 21.0853 38.881 20.6266 38.881H19.7926V36.3287V33.7763L20.8883 33.7137C21.491 33.6792 22.3665 33.5986 22.8338 33.5345C24.1726 33.3507 24.0829 33.3304 24.6888 33.9544ZM39.8079 33.5265C40.3558 33.598 41.2891 33.6837 41.8818 33.7167L42.9594 33.777V36.329V38.881H42.1254C41.6667 38.881 40.5498 38.8389 39.6432 38.7874C37.8401 38.6849 37.8495 38.6882 37.6855 38.1008C37.5289 37.5397 37.3894 35.728 37.4558 35.1154C37.5191 34.5301 37.5366 34.4969 38.063 33.9547C38.361 33.6477 38.6513 33.3966 38.7081 33.3966C38.7649 33.3966 39.2598 33.4551 39.8079 33.5265ZM48.6296 33.8914C49.3228 34.4766 49.3618 34.5927 49.3394 36.0061C49.3218 37.1283 49.2034 37.952 48.9984 38.3793C48.8564 38.675 48.8462 38.6792 48.1209 38.7349C47.7172 38.766 46.5921 38.8178 45.6204 38.8502L43.8538 38.909V36.3422V33.7754L44.9943 33.7096C45.6215 33.6734 46.497 33.5939 46.9398 33.5328C47.3825 33.4718 47.812 33.4162 47.8941 33.4093C47.9764 33.4023 48.3073 33.6193 48.6296 33.8914ZM12.0701 39.2929C12.3836 39.3495 12.4548 39.4956 12.4567 40.0854C12.4582 40.5073 12.308 40.7271 11.6411 41.2793L11.1817 41.6596L11.2424 40.779C11.3471 39.2604 11.3777 39.1231 11.5971 39.1867C11.7016 39.217 11.9145 39.2648 12.0701 39.2929ZM27.3772 40.3156C27.4316 40.9586 27.4664 41.4943 27.4545 41.506C27.4427 41.5177 27.227 41.332 26.9751 41.0931C26.4729 40.6168 26.3604 40.3234 26.4512 39.725C26.5009 39.3976 26.547 39.3346 26.7955 39.2557C26.9534 39.2055 27.1265 39.1604 27.1804 39.1554C27.2423 39.1497 27.3146 39.5758 27.3772 40.3156ZM35.8966 39.2464C36.2029 39.3371 36.2393 39.3811 36.2912 39.7236C36.3921 40.3887 36.2712 40.6659 35.634 41.2303L35.2407 41.5788L35.2964 41.0924C35.3269 40.8248 35.3782 40.2776 35.4104 39.8762C35.4426 39.4748 35.4892 39.1464 35.5141 39.1464C35.5389 39.1464 35.711 39.1915 35.8966 39.2464ZM51.4006 39.5666C51.4282 39.7977 51.4771 40.3627 51.5094 40.8223L51.568 41.6578L51.1098 41.2783C50.409 40.698 50.2938 40.5169 50.2954 39.997C50.2971 39.4421 50.3358 39.3843 50.786 39.2643C51.3429 39.1156 51.3472 39.1178 51.4006 39.5666ZM15.7228 39.6785C16.5591 39.725 17.6157 39.7637 18.0708 39.7644L18.8982 39.7656V40.3431V40.9206L18.3391 40.876C18.0317 40.8515 17.3574 40.8081 16.8409 40.7797C15.9196 40.729 13.9507 40.5179 13.5537 40.4274C13.3775 40.3872 13.3524 40.3255 13.3524 39.9326V39.4836L13.7773 39.5387C14.011 39.5691 14.8865 39.632 15.7228 39.6785ZM25.539 39.9204C25.5139 40.1516 25.4875 40.3484 25.4804 40.3579C25.4175 40.4413 22.2738 40.7697 20.62 40.8657L19.7926 40.9137V40.3532V39.7926L21.6934 39.7257C22.7388 39.6889 23.896 39.6289 24.265 39.5924C24.6339 39.556 25.0818 39.5203 25.2602 39.5133L25.5847 39.5003L25.539 39.9204ZM39.7393 39.6774C40.5018 39.7234 41.5383 39.7621 42.0425 39.7633L42.9594 39.7656V40.3396V40.9137L42.132 40.8657C40.4774 40.7697 37.3315 40.441 37.2723 40.3579C37.2655 40.3484 37.2342 40.1464 37.2027 39.909L37.1456 39.4774L37.7492 39.5356C38.0812 39.5675 38.9767 39.6314 39.7393 39.6774ZM49.3995 39.9409C49.3995 40.3252 49.3739 40.3873 49.1983 40.4274C48.8013 40.5179 46.8324 40.729 45.9111 40.7797C45.3946 40.8081 44.7204 40.8515 44.4129 40.876L43.8538 40.9206V40.3561V39.7917L45.7546 39.7244C46.8 39.6874 47.9572 39.6277 48.3262 39.5916C49.5064 39.4765 49.3995 39.4417 49.3995 39.9409ZM14.4448 41.4412C15.1968 41.5357 16.2147 41.6365 16.7067 41.6651C17.1987 41.6938 17.893 41.7392 18.2497 41.7662L18.8982 41.8153V42.9366V44.0579L17.4308 45.5071C16.5199 46.4066 15.9178 46.9371 15.8431 46.9057C15.7769 46.878 14.6964 46.1419 13.4419 45.2701C11.1621 43.6857 11.161 43.6848 11.1912 43.3839C11.2405 42.8933 11.4615 42.5389 11.9516 42.1648C12.2055 41.971 12.5315 41.6902 12.676 41.5409C12.8204 41.3916 12.9699 41.2694 13.008 41.2694C13.0461 41.2694 13.6926 41.3467 14.4448 41.4412ZM26.5745 41.9447C27.3486 42.6597 27.449 42.8475 27.5027 43.6818L27.5298 44.1039L25.1594 45.5529L22.7891 47.0018L21.2909 45.5298L19.7926 44.0578V42.9361V41.8143L20.3517 41.7651C20.6592 41.7381 21.3333 41.6919 21.8499 41.6625C22.3665 41.6332 23.3526 41.5377 24.0413 41.4505C25.9365 41.2104 25.7374 41.1716 26.5745 41.9447ZM38.5765 41.4406C39.339 41.5337 40.3855 41.6339 40.9021 41.6633C41.4186 41.6927 42.0929 41.7387 42.4003 41.7655L42.9594 41.8143V42.9361V44.0578L41.4611 45.5312L39.9629 47.0047L37.5652 45.5409L35.1675 44.0773L35.2292 43.5801C35.2631 43.3066 35.327 42.9833 35.3711 42.8617C35.4829 42.5532 36.7933 41.2891 37.0111 41.2794C37.1095 41.2751 37.8139 41.3476 38.5765 41.4406ZM49.8617 41.3478C49.8781 41.391 50.1933 41.6748 50.5622 41.9787C51.3824 42.6543 51.4519 42.7494 51.5149 43.2805L51.5648 43.7021L49.2347 45.3164C47.9532 46.2044 46.8728 46.9308 46.8338 46.9308C46.7948 46.9308 46.1083 46.2844 45.3083 45.4943L43.8538 44.0579V42.9366V41.8153L44.5023 41.7682C46.8856 41.5951 47.9276 41.5024 48.5945 41.4044C49.5629 41.2621 49.8246 41.2504 49.8617 41.3478ZM12.9544 46.0084C13.9093 46.6688 14.7723 47.2759 14.8724 47.3574C15.0483 47.5008 15.007 47.5271 13.6444 48.1412C12.8689 48.4906 12.1806 48.7891 12.1149 48.8046C11.8982 48.8555 11.4906 47.9952 11.3528 47.1962C11.1948 46.281 11.0746 44.8078 11.1578 44.8078C11.1911 44.8078 11.9996 45.3481 12.9544 46.0084ZM51.5973 45.4933C51.4397 47.3074 51.2314 48.1966 50.8521 48.6748L50.6965 48.8708L49.2007 48.1903C48.2946 47.7781 47.7373 47.4778 47.7869 47.4287C47.9517 47.2658 51.5039 44.8134 51.5791 44.8106C51.6218 44.8091 51.63 45.1163 51.5973 45.4933ZM20.7322 46.2235L22.072 47.5507L20.7087 48.899L19.3454 50.2473L17.982 48.899L16.6188 47.5507L17.9586 46.2235C18.6955 45.4935 19.3195 44.8962 19.3454 44.8962C19.3712 44.8962 19.9953 45.4935 20.7322 46.2235ZM44.7934 46.2235L46.1332 47.5507L44.77 48.899L43.4066 50.2473L42.0433 48.899L40.68 47.5507L42.0198 46.2235C42.7567 45.4935 43.3807 44.8962 43.4066 44.8962C43.4324 44.8962 44.0565 45.4935 44.7934 46.2235ZM27.5745 45.2727C27.5745 45.3339 27.5133 45.9008 27.4386 46.5326C27.3011 47.6951 27.0592 48.4067 26.6192 48.9425L26.4564 49.1409L25.0505 48.3675C24.2773 47.9422 23.6439 47.5743 23.643 47.55C23.6413 47.5002 27.4029 45.1838 27.5074 45.1703C27.5443 45.1655 27.5745 45.2116 27.5745 45.2727ZM37.2168 46.3558C38.2588 46.9883 39.1105 47.5257 39.1096 47.55C39.1086 47.5743 38.475 47.942 37.7017 48.3669L36.2956 49.1397L36.1296 48.9428C35.8054 48.558 35.5131 47.8603 35.4001 47.2012C35.2316 46.2182 35.1468 45.1358 35.2413 45.1736C35.2858 45.1913 36.1747 45.7233 37.2168 46.3558ZM17.3989 49.5615L18.8982 51.0422V51.4916V51.9409L18.2497 51.8657C16.9816 51.7187 15.3444 51.205 14.2205 50.6013C13.6677 50.3044 12.7277 49.6632 12.7268 49.5824C12.7264 49.5445 15.7121 48.1205 15.856 48.0901C15.88 48.0849 16.5744 48.7471 17.3989 49.5615ZM48.4827 48.8362C49.3314 49.2198 50.025 49.555 50.0243 49.5812C50.0212 49.6971 48.9311 50.4109 48.2552 50.7397C47.0581 51.3221 45.7314 51.7197 44.5023 51.8646L43.8538 51.9409V51.4935V51.046L45.3462 49.5683C46.167 48.7554 46.8613 48.1013 46.8891 48.1146C46.9169 48.1279 47.634 48.4526 48.4827 48.8362ZM24.2812 48.9432C25.0576 49.369 25.6807 49.7571 25.666 49.8057C25.6152 49.9723 24.2075 50.7855 23.4732 51.0724C22.5372 51.4382 21.271 51.7695 20.4411 51.8657L19.7926 51.9409V51.4935V51.0461L21.2451 49.6077C22.044 48.8165 22.7363 48.1692 22.7836 48.1692C22.831 48.1692 23.5048 48.5176 24.2812 48.9432ZM41.5049 49.6057L42.9594 51.0421V51.4916V51.9409L42.3109 51.8657C40.9721 51.7105 39.012 51.0708 37.9801 50.4523C37.3739 50.089 36.9857 49.7619 37.1006 49.7113C37.1498 49.6897 37.7737 49.3376 38.487 48.9289C39.2004 48.5201 39.8439 48.182 39.9172 48.1775C39.9904 48.1729 40.7049 48.8156 41.5049 49.6057Z" fill="#8BC1AC"/>
</svg>
