<svg width="64" height="64" viewBox="0 0 64 64" fill="none" xmlns="http://www.w3.org/2000/svg">
<path fill-rule="evenodd" clip-rule="evenodd" d="M31.9337 11.3264C31.6333 11.472 31.4725 11.7242 31.3884 12.1816C31.326 12.5204 31.4834 12.4757 29.7273 12.6532C26.4005 12.9893 22.9706 14.3236 20.1573 16.3762C18.6766 17.4566 18.4516 17.7866 18.8974 18.2249C19.2183 18.5406 19.4318 18.4812 20.2358 17.8525C22.8039 15.8443 25.6391 14.5578 28.6502 14.0344C29.6313 13.8638 31.1219 13.7103 31.7983 13.7102C32.3273 13.7101 32.4786 13.5989 32.6033 13.1183L32.7033 12.7327L33.5706 13.5933L34.438 14.4541L33.5702 15.2584L32.7025 16.0627L32.6198 15.7421C32.4815 15.2051 32.3761 15.1532 31.4504 15.1654C29.3476 15.1932 27.0783 15.7055 24.9754 16.6274C19.9595 18.8261 16.2313 23.4437 15.1737 28.7675L15.0324 29.4787H14.6011C14.3639 29.4787 14.0492 29.455 13.9016 29.4259L13.6335 29.3732L13.6853 28.9396C13.7748 28.1904 14.3036 26.3107 14.6991 25.3355C15.3767 23.6652 16.0842 22.42 17.136 21.0458C17.9819 19.9408 17.9881 19.9286 17.8637 19.6332C17.6571 19.1427 17.204 19.1046 16.779 19.5421C15.7017 20.6509 14.1854 23.1892 13.4602 25.0982C12.8615 26.6744 12.331 28.9047 12.331 29.8461C12.331 30.5004 12.3801 30.5224 14.1793 30.6725C15.593 30.7904 15.7315 30.7901 15.92 30.6686C16.0541 30.5822 16.1423 30.431 16.1755 30.2312C16.3936 28.9157 16.6023 28.0138 16.8839 27.1703C18.6734 21.8096 23.2118 17.822 28.8268 16.6768C29.3501 16.5701 30.1281 16.4575 30.5557 16.4267L31.3333 16.3706L31.3892 16.7141C31.5016 17.4053 32.1669 17.8335 32.7478 17.5885C33.0817 17.4476 35.4207 15.2607 35.598 14.9236C35.7351 14.6627 35.754 14.2976 35.6448 14.0202C35.5478 13.7742 33.2326 11.5169 32.8882 11.3327C32.5593 11.1567 32.2876 11.1549 31.9337 11.3264ZM40.3845 12.2028C40.2054 12.3788 40.1816 12.4733 40.1816 13.007V13.6116L39.5124 13.6415C38.9298 13.6676 38.8228 13.6962 38.686 13.8624C38.4727 14.1213 38.4869 14.4559 38.72 14.6714C38.8822 14.8212 39.0081 14.8481 39.5464 14.8481H40.1816V15.4531C40.1816 15.9661 40.2099 16.0892 40.3676 16.2618C40.6362 16.5558 40.9874 16.5753 41.256 16.3111C41.3938 16.1756 41.4213 16.0402 41.4213 15.4983V14.8481H42.0824C42.8566 14.8481 43.0741 14.7157 43.0741 14.2444C43.0741 13.8009 42.7822 13.6289 42.0299 13.6289H41.4213V13.0156C41.4213 12.4728 41.398 12.3793 41.2184 12.2028C40.9599 11.9485 40.643 11.9485 40.3845 12.2028ZM45.5595 16.5253C45.4056 16.7177 45.3881 16.8499 45.3881 17.8258V18.9121H44.2687C43.1903 18.9121 43.1418 18.9195 42.9464 19.1117C42.7454 19.3094 42.7436 19.3249 42.7436 20.845C42.7436 22.8317 42.664 22.7324 44.2571 22.7324H45.3881V23.8359V24.9395L45.6348 25.1821L45.8815 25.4247L47.4096 25.3994C49.4018 25.3663 49.3026 25.445 49.3423 23.8682L49.3709 22.7324H50.5139C52.0678 22.7324 51.9996 22.8208 51.9996 20.8076C51.9996 19.3272 51.9974 19.309 51.7967 19.1117C51.6015 18.9196 51.5523 18.9121 50.4823 18.9121H49.3709L49.3423 17.767C49.3037 16.223 49.4258 16.3111 47.3271 16.3111H45.7307L45.5595 16.5253ZM48.1153 18.6624C48.1153 19.7885 48.1165 19.7953 48.3331 19.9629C48.5287 20.1142 48.6631 20.1314 49.6554 20.1314H50.7599V20.8222V21.5131H49.6554C48.6668 21.5131 48.5282 21.5306 48.3353 21.6798C48.1234 21.8438 48.1195 21.8657 48.0969 23.0007L48.074 24.1548H47.3716H46.6691L46.6278 22.9991C46.5738 21.4896 46.647 21.5619 45.1375 21.5273L43.9832 21.5009V20.8161V20.1314H45.0877C46.08 20.1314 46.2144 20.1142 46.41 19.9629C46.6266 19.7953 46.6278 19.7885 46.6278 18.6624V17.5304H47.3716H48.1153V18.6624ZM28.3336 19.2432L28.1158 19.4116V23.7949V28.1782H23.6591H19.2024L19.0311 28.3924C18.864 28.6013 18.8598 28.69 18.8598 31.9984C18.8598 35.3068 18.864 35.3956 19.0311 35.6044L19.2024 35.8186H23.6591H28.1158V40.2019V44.5852L28.3336 44.7536C28.5459 44.918 28.6362 44.9221 32 44.9221C35.3638 44.9221 35.4541 44.918 35.6664 44.7536L35.8842 44.5852V40.2019V35.8186H40.3409H44.7976L44.9689 35.6044C45.136 35.3956 45.1402 35.3068 45.1402 31.9984C45.1402 28.69 45.136 28.6013 44.9689 28.3924L44.7976 28.1782H43.3987C42.1099 28.1782 41.9867 28.191 41.8345 28.3408C41.5884 28.5828 41.6141 29.0178 41.887 29.2289C42.0769 29.3759 42.2194 29.3974 43.0026 29.3974H43.9006V31.9984V34.5994H39.5657C36.5648 34.5994 35.1689 34.6272 35.0294 34.6896C34.9187 34.7393 34.7868 34.869 34.7363 34.9779C34.6728 35.1151 34.6446 36.488 34.6446 39.4395V43.7029H32H29.3554V39.4395C29.3554 36.488 29.3272 35.1151 29.2637 34.9779C29.2132 34.869 29.0813 34.7393 28.9706 34.6896C28.8311 34.6272 27.4352 34.5994 24.4343 34.5994H20.0994V31.9984V29.3974H24.4343C27.4352 29.3974 28.8311 29.3696 28.9706 29.3072C29.0813 29.2575 29.2132 29.1278 29.2637 29.0189C29.3272 28.8818 29.3554 27.5088 29.3554 24.5574V20.2939H32H34.6446V24.5574C34.6446 27.5088 34.6728 28.8818 34.7363 29.0189C34.8982 29.3683 35.1018 29.3974 37.382 29.3974H39.5332L39.7832 29.1515C39.9836 28.9544 40.0226 28.8617 39.9799 28.6842C39.8635 28.2001 39.7664 28.1782 37.7345 28.1782H35.8842V23.7949V19.4116L35.6664 19.2432C35.4541 19.0788 35.3638 19.0747 32 19.0747C28.6362 19.0747 28.5459 19.0788 28.3336 19.2432ZM48.0401 33.3599C47.9013 33.4718 47.8295 33.7015 47.7032 34.4368C47.4199 36.0863 46.9543 37.5352 46.2869 38.8446C45.9192 39.5657 45.902 39.6987 46.138 39.9936C46.3599 40.2713 46.7741 40.286 47.0173 40.0249C47.5407 39.463 48.4798 36.9737 48.8263 35.2293L48.9676 34.5181H49.3989C49.6361 34.5181 49.9464 34.541 50.0884 34.5689C50.4135 34.6329 50.4162 34.7203 50.1325 35.9714C49.5109 38.7114 48.2357 41.3102 46.4382 43.4997C46.1446 43.8573 45.4556 44.5783 44.9071 45.1018C41.5669 48.2898 37.5634 49.9886 32.7632 50.255C32.2057 50.2859 31.6927 50.3521 31.6231 50.4021C31.5536 50.4521 31.4517 50.6665 31.3967 50.8786L31.2967 51.2642L30.4294 50.4037L29.562 49.5433L30.4298 48.7417L31.2975 47.9401L31.3802 48.2577C31.5191 48.7917 31.625 48.8436 32.5496 48.8314C36.0771 48.7848 39.7953 47.4472 42.6957 45.1813C43.9314 44.216 45.6361 42.3968 45.6361 42.0434C45.6361 41.73 45.3329 41.427 45.0195 41.427C44.778 41.427 44.6595 41.5207 44.0165 42.2194C42.3706 44.0084 41.003 45.0521 39.047 46.012C37.3444 46.8476 35.1992 47.4432 33.4284 47.572L32.6668 47.6273L32.6109 47.2832C32.4984 46.5915 31.8333 46.1632 31.2522 46.4083C30.9183 46.5492 28.5792 48.7362 28.402 49.0732C28.2649 49.3341 28.246 49.6993 28.3552 49.9766C28.4522 50.2226 30.7674 52.4799 31.1118 52.6641C31.4431 52.8414 31.6881 52.8439 32.0531 52.6735C32.364 52.5284 32.5264 52.279 32.6116 51.8152C32.674 51.4763 32.5192 51.5203 34.2727 51.3443C40.7694 50.6925 46.7898 46.5473 49.7373 40.6968C50.7696 38.6477 51.5169 36.177 51.6432 34.3962C51.7079 33.4832 51.7132 33.4865 50.0064 33.3377C48.2934 33.1883 48.252 33.1888 48.0401 33.3599ZM15.0967 38.6596C14.7341 38.8041 14.6877 38.9605 14.6577 40.1389L14.6291 41.2645H13.4861C11.9322 41.2645 12.0004 41.176 12.0004 43.1892C12.0004 44.6697 12.0026 44.6878 12.2033 44.8851C12.3985 45.0772 12.4477 45.0847 13.5177 45.0847H14.6291L14.6577 46.2298C14.6963 47.7739 14.5742 47.6857 16.6729 47.6857H18.2693L18.4405 47.4715C18.5944 47.2791 18.6119 47.1469 18.6119 46.171V45.0847H19.7313C20.8097 45.0847 20.8582 45.0774 21.0535 44.8851C21.2546 44.6875 21.2564 44.6719 21.2564 43.1518C21.2564 41.1651 21.336 41.2645 19.7429 41.2645H18.6119V40.1609V39.0574L18.3703 38.8198L18.1287 38.5822L16.6968 38.5873C15.9092 38.5901 15.1891 38.6227 15.0967 38.6596ZM17.3722 40.9977C17.4262 42.5072 17.353 42.4349 18.8625 42.4695L20.0168 42.496V43.1807V43.8655H18.9123C17.92 43.8655 17.7856 43.8826 17.59 44.034C17.3734 44.2015 17.3722 44.2083 17.3722 45.3345V46.4665H16.6284H15.8847V45.3345C15.8847 44.2083 15.8835 44.2015 15.6669 44.034C15.4713 43.8826 15.3369 43.8655 14.3446 43.8655H13.2401V43.1746V42.4837H14.3446C15.3369 42.4837 15.4713 42.4665 15.6669 42.3152C15.8833 42.1478 15.8847 42.1398 15.8847 41.0283C15.8847 40.4131 15.9109 39.8841 15.9428 39.8526C15.9748 39.8211 16.3002 39.8059 16.666 39.8187L17.3309 39.842L17.3722 40.9977ZM22.9333 47.5653C22.6193 47.6953 22.5787 47.8074 22.5787 48.5458V49.1487H21.9176C21.1434 49.1487 20.9259 49.2811 20.9259 49.7524C20.9259 50.1959 21.2178 50.368 21.9701 50.368H22.5787V50.9812C22.5787 51.524 22.602 51.6175 22.7816 51.794C22.8932 51.9038 23.0808 51.9936 23.1985 51.9936C23.3163 51.9936 23.5039 51.9038 23.6155 51.794C23.7946 51.618 23.8184 51.5235 23.8184 50.9898V50.3852L24.4876 50.3553C25.0702 50.3293 25.1772 50.3007 25.314 50.1344C25.5273 49.8756 25.5131 49.5409 25.28 49.3254C25.1178 49.1756 24.9919 49.1487 24.4536 49.1487H23.8184V48.5501C23.8184 47.6853 23.4999 47.331 22.9333 47.5653Z" fill="#E86851"/>
</svg>
